<?xml version="1.0" encoding="utf-8"?>
<!-- Generator: Adobe Illustrator 18.1.1, SVG Export Plug-In . SVG Version: 6.00 Build 0)  -->
<svg version="1.1" id="Layer_1" xmlns="http://www.w3.org/2000/svg" xmlns:xlink="http://www.w3.org/1999/xlink" x="0px" y="0px"
	 viewBox="0 0 863.3 863.3" enable-background="new 0 0 863.3 863.3" xml:space="preserve">
<g>
	<path fill="#FFFFFF" d="M431.7,806.6c-50.6,0-99.7-9.9-146-29.5c-44.7-18.9-84.8-45.9-119.2-80.4c-34.4-34.4-61.5-74.5-80.4-119.2
		c-19.6-46.2-29.5-95.3-29.5-146c0-50.6,9.9-99.7,29.5-146c18.9-44.7,45.9-84.8,80.4-119.2S241,105,285.7,86.2
		c46.2-19.6,95.3-29.5,146-29.5c50.6,0,99.7,9.9,146,29.5c44.7,18.9,84.8,45.9,119.2,80.4c34.4,34.4,61.5,74.5,80.4,119.2
		c19.6,46.2,29.5,95.3,29.5,146c0,50.6-9.9,99.7-29.5,146c-18.9,44.7-45.9,84.8-80.4,119.2c-34.4,34.4-74.5,61.5-119.2,80.4
		C531.4,796.7,482.3,806.6,431.7,806.6z M431.7,67.5c-49.2,0-96.9,9.6-141.8,28.6c-43.4,18.3-82.3,44.6-115.8,78
		c-33.4,33.4-59.7,72.4-78,115.8c-19,44.9-28.6,92.6-28.6,141.8s9.6,96.9,28.6,141.8c18.3,43.4,44.6,82.3,78,115.8
		c33.4,33.4,72.4,59.7,115.8,78c44.9,19,92.6,28.6,141.8,28.6s96.9-9.6,141.8-28.6c43.4-18.3,82.3-44.6,115.8-78
		c33.4-33.4,59.7-72.4,78-115.8c19-44.9,28.6-92.6,28.6-141.8s-9.6-96.9-28.6-141.8c-18.3-43.4-44.6-82.3-78-115.8
		c-33.4-33.4-72.4-59.7-115.8-78C528.5,77.1,480.8,67.5,431.7,67.5z"/>
</g>
<path fill="#FFFFFF" d="M431.7,863.3c-58.3,0-114.8-11.4-168-33.9c-51.4-21.7-97.6-52.9-137.2-92.5c-39.6-39.6-70.8-85.8-92.5-137.2
	C11.4,546.5,0,489.9,0,431.7c0-58.3,11.4-114.8,33.9-168c21.7-51.4,52.9-97.6,92.5-137.2s85.8-70.8,137.2-92.5
	C316.9,11.4,373.4,0,431.7,0c58.3,0,114.8,11.4,168,33.9c51.4,21.7,97.6,52.9,137.2,92.5c39.6,39.6,70.8,85.8,92.5,137.2
	c22.5,53.2,33.9,109.8,33.9,168c0,58.3-11.4,114.8-33.9,168c-21.7,51.4-52.9,97.6-92.5,137.2c-39.6,39.6-85.8,70.8-137.2,92.5
	C546.5,851.9,489.9,863.3,431.7,863.3z M431.7,10.8c-56.8,0-111.9,11.1-163.8,33.1c-50.1,21.2-95.1,51.5-133.8,90.2
	c-38.7,38.7-69,83.7-90.2,133.8c-21.9,51.9-33.1,107-33.1,163.8s11.1,111.9,33.1,163.8c21.2,50.1,51.5,95.1,90.2,133.8
	c38.7,38.7,83.7,69,133.8,90.2c51.9,21.9,107,33.1,163.8,33.1s111.9-11.1,163.8-33.1c50.1-21.2,95.1-51.5,133.8-90.2
	s69-83.7,90.2-133.8c21.9-51.9,33.1-107,33.1-163.8s-11.1-111.9-33.1-163.8c-21.2-50.1-51.5-95.1-90.2-133.8
	c-38.7-38.7-83.7-69-133.8-90.2C543.6,21.9,488.5,10.8,431.7,10.8z"/>
<g>
	<g>
		<g>
			
				<rect x="231.3" y="16.3" transform="matrix(-0.7071 0.7071 -0.7071 -0.7071 613.7751 339.1042)" fill="#FFFFFF" width="10.8" height="560.7"/>
		</g>
		<g>
			
				<rect x="621.3" y="16.3" transform="matrix(0.7071 0.7071 -0.7071 0.7071 393.2868 -356.216)" fill="#FFFFFF" width="10.8" height="560.7"/>
		</g>
	</g>
	<g>
		<g>
			<path fill="#FFFFFF" d="M828.7,761.1l-334-334c-2.9,2-5.4,4.7-7.8,7.4l334.2,334.2L828.7,761.1z"/>
		</g>
		<g>
			<path fill="#FFFFFF" d="M34.6,761.1l7.6,7.6l332.3-332.3c-2.4-2.6-5-5.2-7.5-7.8L34.6,761.1z"/>
		</g>
	</g>
</g>
<g>
	<g>
		<g>
			<rect x="174" y="249.7" fill="#FFFFFF" width="516.4" height="10.8"/>
		</g>
		<g>
			<rect x="174" y="602.8" fill="#FFFFFF" width="516.4" height="10.8"/>
		</g>
	</g>
	<g>
		<rect x="682" y="255.8" fill="#FFFFFF" width="10.8" height="357.7"/>
	</g>
	<g>
		<rect x="170.5" y="255.8" fill="#FFFFFF" width="10.8" height="357.7"/>
	</g>
</g>
</svg>
