<?xml version="1.0" encoding="utf-8"?>
<!-- Generator: Adobe Illustrator 18.1.1, SVG Export Plug-In . SVG Version: 6.00 Build 0)  -->
<svg version="1.1" id="Layer_1" xmlns="http://www.w3.org/2000/svg" xmlns:xlink="http://www.w3.org/1999/xlink" x="0px" y="0px"
	 viewBox="-194 -104 1000 1000" enable-background="new -194 -104 1000 1000" xml:space="preserve">
<g>
	<g>
		<path fill="#E3B6BF" d="M306.1,771.6c-50.7,0-99.9-9.9-146.3-29.6c-44.8-18.9-85-46-119.4-80.5c-34.5-34.5-61.6-74.6-80.5-119.4
			c-19.6-46.3-29.6-95.5-29.6-146.3c0-50.7,9.9-99.9,29.6-146.3c18.9-44.8,46-85,80.5-119.4S115,68.8,159.8,49.9
			c46.3-19.6,95.5-29.6,146.3-29.6c50.7,0,99.9,9.9,146.3,29.6c44.8,18.9,85,46,119.4,80.5c34.5,34.5,61.6,74.6,80.5,119.4
			c19.6,46.3,29.6,95.5,29.6,146.3c0,50.7-9.9,99.9-29.6,146.3c-18.9,44.8-46,85-80.5,119.4c-34.5,34.5-74.6,61.6-119.4,80.5
			C405.9,761.7,356.7,771.6,306.1,771.6z M306.1,31.2c-49.3,0-97.1,9.6-142.1,28.7C120.5,78.2,81.5,104.5,48,138
			c-33.5,33.5-59.8,72.5-78.1,116c-19,45-28.7,92.8-28.7,142.1s9.6,97.1,28.7,142.1c18.3,43.5,44.7,82.4,78.1,116
			c33.5,33.5,72.5,59.8,116,78.1c45,19,92.8,28.7,142.1,28.7s97.1-9.6,142.1-28.7c43.5-18.3,82.4-44.7,116-78.1
			c33.5-33.5,59.8-72.5,78.1-116c19-45,28.7-92.8,28.7-142.1S661.3,299,642.3,254c-18.3-43.5-44.7-82.4-78.1-116
			c-33.5-33.5-72.5-59.8-116-78.1C403,40.8,355.2,31.2,306.1,31.2z"/>
	</g>
	<path fill="#E3B6BF" d="M306.1,828.4c-58.4,0-115-11.4-168.3-34c-51.5-21.7-97.8-53-137.4-92.7c-39.7-39.7-70.9-86-92.7-137.4
		c-22.6-53.3-34.1-110-34.1-168.3c0-58.4,11.4-115,34-168.3c21.7-51.5,53-97.8,92.7-137.4s86-70.9,137.4-92.7
		C191-25,247.6-36.4,306.1-36.4s115,11.4,168.3,34c51.5,21.7,97.8,53,137.4,92.7c39.7,39.7,70.9,86,92.7,137.4
		c22.5,53.3,34,110,34,168.3c0,58.4-11.4,115-34,168.3c-21.7,51.5-53,97.8-92.7,137.4c-39.7,39.7-86,70.9-137.4,92.7
		C421.1,817,364.4,828.4,306.1,828.4z M306.1-25.6c-56.9,0-112.1,11.1-164.1,33.2C91.8,28.8,46.7,59.1,7.9,97.9s-69.1,83.9-90.4,134
		c-21.9,52-33.2,107.2-33.2,164.1s11.1,112.1,33.2,164.1c21.2,50.2,51.6,95.3,90.4,134c38.8,38.8,83.9,69.1,134,90.4
		c52,21.9,107.2,33.2,164.1,33.2s112.1-11.1,164.1-33.2c50.2-21.2,95.3-51.6,134-90.4c38.8-38.8,69.1-83.9,90.4-134
		c21.9-52,33.2-107.2,33.2-164.1S716.6,283.9,694.6,232c-21.2-50.2-51.6-95.3-90.4-134c-38.8-38.8-83.9-69.1-134-90.4
		C418.2-14.5,363-25.6,306.1-25.6z"/>
	<g>
		<g>
			<g>
				
					<rect x="105.2" y="-20" transform="matrix(0.7071 -0.7071 0.7071 0.7071 -152.0214 154.627)" fill="#E3B6BF" width="10.8" height="561.7"/>
			</g>
			<g>
				
					<rect x="496" y="-20.1" transform="matrix(-0.7071 -0.7071 0.7071 -0.7071 671.4816 799.7181)" fill="#E3B6BF" width="10.8" height="561.7"/>
			</g>
		</g>
		<g>
			<g>
				<path fill="#E3B6BF" d="M703.8,726L369.2,391.4c-2.9,2-5.4,4.7-7.8,7.4l334.8,334.8L703.8,726z"/>
			</g>
			<g>
				<path fill="#E3B6BF" d="M-91.8,726l7.6,7.6l332.9-332.9c-2.4-2.6-5-5.2-7.5-7.8L-91.8,726z"/>
			</g>
		</g>
	</g>
	<g>
		<g>
			<g>
				<rect x="47.9" y="213.7" fill="#E3B6BF" width="517.3" height="10.8"/>
			</g>
			<g>
				<rect x="47.9" y="567.5" fill="#E3B6BF" width="517.3" height="10.8"/>
			</g>
		</g>
		<g>
			<rect x="556.8" y="219.8" fill="#E3B6BF" width="10.8" height="358.3"/>
		</g>
		<g>
			<rect x="44.4" y="219.8" fill="#E3B6BF" width="10.8" height="358.3"/>
		</g>
	</g>
</g>
</svg>
