<?xml version="1.0" encoding="utf-8"?>
<!-- Generator: Adobe Illustrator 18.1.1, SVG Export Plug-In . SVG Version: 6.00 Build 0)  -->
<svg version="1.1" xmlns="http://www.w3.org/2000/svg" xmlns:xlink="http://www.w3.org/1999/xlink" x="0px" y="0px"
	 viewBox="0 0 1920 1080" enable-background="new 0 0 1920 1080" xml:space="preserve">
<g id="Layer_2">
</g>
<g id="Front">
	<g>
		<g>
			<path fill="#FFFFFF" d="M886.9,336.6c0-1.9-1.5-3.5-3.4-3.5c-1.9,0-3.6,1.6-3.5,3.5c0.1,2.2,1.8,3.4,3.5,3.4
				C885.3,340.1,886.9,338.5,886.9,336.6z"/>
			<path fill="#FFFFFF" d="M888.9,324c0.7,0.1,1.4,0.2,2.1,0.2c2.2,0.3,4.4,0.5,6.6,0.8c1.9,0.2,3.9,0.4,5.8,0.7
				c2,0.2,4.1,0.5,6.1,0.8c2.6,0.4,5.1,0.8,7.7,1.2c5,0.9,10,1.9,14.6,4.2c4.6,2.2,8.4,5.4,10.9,9.9c1.5,2.7,2.4,5.5,2.7,8.6
				c0.2,1.5,0.3,2.9,0.1,4.5c-0.1-0.1-0.1-0.1-0.2-0.1c-2.3-3-5.2-5-8.6-6.6c-3.8-1.8-7.8-2.9-11.9-3.6c-2.9-0.5-5.8-0.9-8.7-1.1
				c-4.2-0.4-8.5-0.4-12.8-0.3c-2,0.1-4.1,0.2-6.1,0.3c-1.8,0.1-3.6,0.3-5.4,0.5c0.8-1.1,0.8-2.3,0.8-3.5c0-3.7,0-7.5,0-11.2
				c0-0.4,0-0.8-0.1-1.2c-0.3-1-1.2-1.8-2.5-1.8c-4.8,0.1-9.1,1.4-12.3,5.2c-1.6,1.9-2.5,4.2-2.8,6.6c-0.7,5.1,0.3,9.9,2.5,14.5
				c2.1,4.6,4.3,9.3,6.5,13.9c3,6.6,5.8,13.2,7.7,20.2c1,3.5,1.7,7.1,2.2,10.7c0.4,3.2,0.5,6.5,0.4,9.7c-0.4,8.2-2.9,15.7-7.6,22.4
				c-0.1,0.2-0.2,0.3-0.3,0.5c0.2,0.2,0.4,0.3,0.6,0.4c4.6,3.2,9.1,6.3,13.7,9.5c1,0.7,2,1.7,2.9,2.5c0.6,0.5,0.5,0.7,0.2,1.3
				c-1,1.9-2,3.7-3,5.6c-0.6,1.1-1.3,2-2.2,2.8c-0.9,0.8-2,1.1-3.2,1.1c-0.7,0-0.8,0-0.8,0.7c0.2,2.9-1.3,4.8-3.5,6.3
				c-1.7,1.2-3.4,2.3-5,3.5c-0.3,0.2-0.6,0.2-0.8,0c-0.2-0.2-0.3-0.3-0.5-0.5c-2.5-2.6-5.1-5.2-7.5-7.8c-9.1-9.7-17-20.2-23.8-31.6
				c-3.4-5.7-6.2-11.8-8.2-18.1c-0.8-2.4-1.2-4.9-1.5-7.4c-0.3-2.1-0.6-4.1-0.8-6.2c-0.1-1.3-0.2-2.5-0.3-3.8c0-0.3-0.1-0.6-0.1-0.9
				c0-0.5,0-1,0-1.5c0-0.2,0.1-0.4,0.1-0.6c0.1-1.7,0.1-3.4,0.3-5.1c0.3-2.7,0.6-5.3,1.2-8c1.8-8.6,5.2-16.5,9.9-23.9
				c2.7-4.2,5.8-8,9.2-11.7c3.1-3.4,6.5-6.3,10.5-8.5c3.7-2.1,7.6-3.4,11.9-3.8c0.7-0.1,1.3-0.2,2-0.2
				C887.8,324,888.3,324,888.9,324z"/>
			<path fill="#FFFFFF" d="M886.9,336.6c0,1.9-1.5,3.4-3.4,3.4c-1.7,0-3.4-1.2-3.5-3.4c-0.1-1.9,1.6-3.5,3.5-3.5
				C885.4,333.1,886.9,334.7,886.9,336.6z"/>
		</g>
		<rect x="795.5" y="296.5" fill="none" stroke="#FFFFFF" stroke-width="4" stroke-miterlimit="10" width="196" height="196"/>
		<g>
			<path fill="#FFFFFF" d="M824.4,531.9v7H807v7.2h15.7v6.6H807v7.2h18v6.9h-25.8v-35H824.4z"/>
			<path fill="#FFFFFF" d="M856.3,531.9h7.8v35h-7.8l-16.7-21.9v21.9h-7.8v-35h7.3l17.2,22.5V531.9z"/>
			<path fill="#FFFFFF" d="M899.4,536.5c3.3,3,5,7.3,5,12.7c0,5.4-1.6,9.7-4.9,12.9c-3.2,3.2-8.2,4.8-14.9,4.8h-12v-35h12.4
				C891.3,531.9,896.1,533.4,899.4,536.5z M893.7,557.2c1.9-1.8,2.9-4.4,2.9-7.9c0-3.4-1-6.1-2.9-7.9c-1.9-1.8-4.9-2.8-8.8-2.8h-4.4
				v21.2h5C889,559.9,891.8,559,893.7,557.2z"/>
			<path fill="#FFFFFF" d="M942.5,544.8l-9.4,19.1h-4.7l-9.4-19.1v22h-7.8v-35h10.5l9,19.2l9.1-19.2h10.5v35h-7.8V544.8z"/>
			<path fill="#FFFFFF" d="M958.9,531.9h7.8v14.4l13.2-14.4h9.7l-13.9,15.5c1.2,1.7,3.4,4.8,6.7,9.3c3.2,4.5,5.6,7.9,7.2,10.2h-9.1
				L970.2,553l-3.5,3.9v9.9h-7.8V531.9z"/>
		</g>
		<g>
			<path fill="#FFFFFF" d="M863.7,667.9c-3.8,0-6.6-1.3-8.5-3.8s-2.8-6-2.8-10.3c0-4.3,0.9-7.7,2.8-10.3c1.9-2.6,4.7-3.8,8.5-3.8
				c3.8,0,6.6,1.3,8.5,3.8c1.9,2.6,2.8,6,2.8,10.3c0,4.3-0.9,7.7-2.8,10.3S867.5,667.9,863.7,667.9z M859.7,647.2
				c-0.9,1.7-1.3,3.9-1.3,6.6c0,2.7,0.4,4.9,1.3,6.6c0.9,1.7,2.2,2.5,4,2.5c1.8,0,3.2-0.8,4-2.5c0.9-1.7,1.3-3.9,1.3-6.6
				c0-2.7-0.4-4.9-1.3-6.6c-0.9-1.7-2.2-2.5-4-2.5C861.9,644.7,860.5,645.5,859.7,647.2z"/>
			<path fill="#FFFFFF" d="M893.4,650.9c0.7-1,1-1.9,1-2.8s-0.3-1.7-0.9-2.3s-1.4-0.9-2.3-0.9c-1.7,0-3.3,1.2-4.9,3.7l-4.9-2.9
				c1.3-2,2.7-3.5,4.2-4.5c1.5-1,3.5-1.5,5.8-1.5c2.4,0,4.4,0.7,6.2,2.2c1.8,1.5,2.7,3.5,2.7,6.1c0,1.4-0.4,2.8-1.1,4
				c-0.7,1.3-2,2.9-4,4.9l-4.9,5.1h10.8v5.5h-19.2V663l8-8.2C891.5,653.2,892.7,651.9,893.4,650.9z"/>
			<path fill="#FFFFFF" d="M919.3,667.9c-3.8,0-6.6-1.3-8.5-3.8s-2.8-6-2.8-10.3c0-4.3,0.9-7.7,2.8-10.3c1.9-2.6,4.7-3.8,8.5-3.8
				c3.8,0,6.6,1.3,8.5,3.8c1.9,2.6,2.8,6,2.8,10.3c0,4.3-0.9,7.7-2.8,10.3S923,667.9,919.3,667.9z M915.2,647.2
				c-0.9,1.7-1.3,3.9-1.3,6.6c0,2.7,0.4,4.9,1.3,6.6c0.9,1.7,2.2,2.5,4,2.5c1.8,0,3.2-0.8,4-2.5c0.9-1.7,1.3-3.9,1.3-6.6
				c0-2.7-0.4-4.9-1.3-6.6c-0.9-1.7-2.2-2.5-4-2.5C917.4,644.7,916.1,645.5,915.2,647.2z"/>
		</g>
		<rect x="843.2" y="601.2" fill="#FFFFFF" width="100.1" height="4.1"/>
	</g>
</g>
</svg>
