<?xml version="1.0" encoding="utf-8"?>
<!-- Generator: Adobe Illustrator 18.1.1, SVG Export Plug-In . SVG Version: 6.00 Build 0)  -->
<svg version="1.1" id="Layer_1" xmlns="http://www.w3.org/2000/svg" xmlns:xlink="http://www.w3.org/1999/xlink" x="0px" y="0px"
	 viewBox="-194 -104 1000 1000" enable-background="new -194 -104 1000 1000" xml:space="preserve">
<g>
	<g>
		<path fill="#FFF" d="M-69.5,396.1c0-50.7,9.9-99.8,29.5-146.2c18.9-44.8,46-84.9,80.5-119.4s74.5-61.6,119.3-80.4
			c46.3-19.6,95.4-29.5,146.2-29.5c50.7,0,99.8,9.9,146.2,29.5C497,69,537.2,96,571.6,130.6c34.4,34.4,61.6,74.6,80.5,119.4
			c19.6,46.3,29.5,95.4,29.5,146.2c0,50.7-9.9,99.8-29.5,146.2c-18.9,44.8-46,84.9-80.5,119.4c-34.4,34.4-74.6,61.6-119.4,80.5
			c-46.3,19.6-95.4,29.5-146.2,29.5c-50.7,0-99.8-9.9-146.2-29.5c-44.8-18.9-84.9-46-119.4-80.5C6,627.3-21.1,587.1-40,542.4
			C-59.6,495.9-69.5,446.7-69.5,396.1z M670.7,396.1c0-49.3-9.6-97-28.6-142c-18.3-43.5-44.7-82.4-78.1-116
			c-33.4-33.4-72.5-59.8-116-78.1c-45-19-92.7-28.6-142-28.6S208.9,41,164,60c-43.5,18.3-82.4,44.7-116,78.1
			c-33.4,33.4-59.8,72.5-78.1,116c-19,45-28.6,92.7-28.6,142s9.6,97,28.6,142c18.3,43.5,44.7,82.4,78.1,116
			c33.4,33.4,72.5,59.8,116,78.1c45,19,92.7,28.6,142,28.6s97-9.6,142-28.6c43.5-18.3,82.4-44.7,116-78.1
			c33.4-33.4,59.8-72.5,78.1-116C661,493,670.7,445.2,670.7,396.1z"/>
	</g>
	<path fill="#FFF" d="M-126.3,396.1c0-58.4,11.4-115,33.9-168.2c21.7-51.5,53-97.7,92.6-137.4S86.2,19.5,137.7-2.2
		c53.4-22.6,110-34,168.3-34c58.4,0,115,11.4,168.2,33.9c51.5,21.7,97.7,53,137.4,92.6c39.7,39.7,70.9,85.9,92.6,137.4
		c22.5,53.3,33.9,110,33.9,168.2c0,58.4-11.4,115-33.9,168.2c-21.7,51.5-53,97.7-92.6,137.4c-39.7,39.7-85.9,70.9-137.4,92.6
		c-53.3,22.5-110,33.9-168.2,33.9c-58.4,0-115-11.4-168.2-33.9c-51.5-21.7-97.7-53-137.4-92.6c-39.7-39.7-70.9-85.9-92.6-137.4
		C-114.8,511-126.3,454.3-126.3,396.1z M727.4,396.1c0-56.9-11.1-112.1-33.1-164c-21.2-50.2-51.6-95.2-90.3-134
		c-38.8-38.8-83.8-69.1-134-90.3c-52-21.9-107.2-33.1-164-33.1s-112.1,11.1-164,33.1C91.7,28.9,46.7,59.3,7.9,98
		s-69.1,83.8-90.3,134c-21.9,52-33.1,107.2-33.1,164s11.1,112.1,33.1,164c21.2,50.2,51.6,95.2,90.3,134
		c38.8,38.8,83.8,69.1,134,90.3c52,21.9,107.2,33.1,164,33.1s112.1-11.1,164-33.1c50.2-21.2,95.2-51.6,134-90.3
		c38.8-38.8,69.1-83.8,90.3-134C716.3,508.1,727.4,452.9,727.4,396.1z"/>
	<g>
		<g>
			<g>
				
					<rect x="492.9" y="-40.7" transform="matrix(-0.7071 0.7071 -0.7071 -0.7071 1020.329 57.3594)" fill="#FFF" width="10.8" height="561.5"/>
			</g>
			<g>
				
					<rect x="102.4" y="-40.7" transform="matrix(0.7071 0.7071 -0.7071 0.7071 201.3353 -5.9113)" fill="#FFF" width="10.8" height="561.5"/>
			</g>
		</g>
	</g>
	<rect x="-83.9" y="545.3" fill="#FFF" width="774" height="10.6"/>
</g>
</svg>
