<?xml version="1.0" encoding="utf-8"?>
<!-- Generator: Adobe Illustrator 18.1.1, SVG Export Plug-In . SVG Version: 6.00 Build 0)  -->
<svg version="1.1" id="Layer_1" xmlns="http://www.w3.org/2000/svg" xmlns:xlink="http://www.w3.org/1999/xlink" x="0px" y="0px"
	 viewBox="0 0 863.3 863.3" enable-background="new 0 0 863.3 863.3" xml:space="preserve">
<g>
	<path fill="#FFFFFF" d="M56.7,431.7c0-50.6,9.9-99.7,29.5-146c18.9-44.7,45.9-84.8,80.4-119.2S241,105,285.7,86.2
		c46.2-19.6,95.3-29.5,146-29.5c50.6,0,99.7,9.9,146,29.5c44.7,18.9,84.8,45.9,119.2,80.4c34.4,34.4,61.5,74.5,80.4,119.2
		c19.6,46.2,29.5,95.3,29.5,146c0,50.6-9.9,99.7-29.5,146c-18.9,44.7-45.9,84.8-80.4,119.2c-34.4,34.4-74.5,61.5-119.2,80.4
		c-46.2,19.6-95.3,29.5-146,29.5c-50.6,0-99.7-9.9-146-29.5c-44.7-18.9-84.8-45.9-119.2-80.4c-34.4-34.4-61.5-74.5-80.4-119.2
		C66.6,531.4,56.7,482.3,56.7,431.7z M795.8,431.7c0-49.2-9.6-96.9-28.6-141.8c-18.3-43.4-44.6-82.3-78-115.8
		c-33.4-33.4-72.4-59.7-115.8-78c-44.9-19-92.6-28.6-141.8-28.6s-96.9,9.6-141.8,28.6c-43.4,18.3-82.3,44.6-115.8,78
		c-33.4,33.4-59.7,72.4-78,115.8c-19,44.9-28.6,92.6-28.6,141.8s9.6,96.9,28.6,141.8c18.3,43.4,44.6,82.3,78,115.8
		c33.4,33.4,72.4,59.7,115.8,78c44.9,19,92.6,28.6,141.8,28.6s96.9-9.6,141.8-28.6c43.4-18.3,82.3-44.6,115.8-78
		c33.4-33.4,59.7-72.4,78-115.8C786.2,528.5,795.8,480.8,795.8,431.7z"/>
</g>
<path fill="#FFFFFF" d="M0,431.7c0-58.3,11.4-114.8,33.9-168c21.7-51.4,52.9-97.6,92.5-137.2c39.6-39.6,85.8-70.8,137.2-92.5
	C316.9,11.4,373.4,0,431.7,0c58.3,0,114.8,11.4,168,33.9c51.4,21.7,97.6,52.9,137.2,92.5c39.6,39.6,70.8,85.8,92.5,137.2
	c22.5,53.2,33.9,109.8,33.9,168c0,58.3-11.4,114.8-33.9,168c-21.7,51.4-52.9,97.6-92.5,137.2c-39.6,39.6-85.8,70.8-137.2,92.5
	c-53.2,22.5-109.8,33.9-168,33.9c-58.3,0-114.8-11.4-168-33.9c-51.4-21.7-97.6-52.9-137.2-92.5c-39.6-39.6-70.8-85.8-92.5-137.2
	C11.4,546.5,0,489.9,0,431.7z M852.5,431.7c0-56.8-11.1-111.9-33.1-163.8c-21.2-50.1-51.5-95.1-90.2-133.8
	c-38.7-38.7-83.7-69-133.8-90.2c-51.9-21.9-107-33.1-163.8-33.1S319.7,21.9,267.8,43.9c-50.1,21.2-95.1,51.5-133.8,90.2
	c-38.7,38.7-69,83.7-90.2,133.8c-21.9,51.9-33.1,107-33.1,163.8s11.1,111.9,33.1,163.8c21.2,50.1,51.5,95.1,90.2,133.8
	s83.7,69,133.8,90.2c51.9,21.9,107,33.1,163.8,33.1s111.9-11.1,163.8-33.1c50.1-21.2,95.1-51.5,133.8-90.2
	c38.7-38.7,69-83.7,90.2-133.8C841.4,543.6,852.5,488.5,852.5,431.7z"/>
<g>
	<g>
		<g>
			
				<rect x="618.3" y="-4.5" transform="matrix(0.7071 -0.7071 0.7071 0.7071 -12.4068 521.816)" fill="#FFFFFF" width="10.8" height="560.7"/>
		</g>
		<g>
			
				<rect x="228.3" y="-4.5" transform="matrix(-0.7071 -0.7071 0.7071 -0.7071 203.9273 636.2347)" fill="#FFFFFF" width="10.8" height="560.7"/>
		</g>
	</g>
</g>
<rect x="42.3" y="580.7" fill="#FFFFFF" width="772.9" height="10.6"/>
</svg>
