<?xml version="1.0" encoding="utf-8"?>
<!-- Generator: Adobe Illustrator 18.1.1, SVG Export Plug-In . SVG Version: 6.00 Build 0)  -->
<svg version="1.1" id="Layer_1" xmlns="http://www.w3.org/2000/svg" xmlns:xlink="http://www.w3.org/1999/xlink" x="0px" y="0px"
	 viewBox="136.8 1.2 338.5 786.2" enable-background="new 136.8 1.2 338.5 786.2" xml:space="preserve">
<rect x="136.8" y="1.2" fill="#FAF8EC" width="338.5" height="142.4"/>
<g>
	<g>
		
			<linearGradient id="SVGID_1_" gradientUnits="userSpaceOnUse" x1="1451" y1="522.3999" x2="1451" y2="-164.2" gradientTransform="matrix(0.1166 0 0 -0.1166 136.7647 92.3738)">
			<stop  offset="0" style="stop-color:#FFFFFF"/>
			<stop  offset="1" style="stop-color:#B1D37C"/>
		</linearGradient>
		<path fill="url(#SVGID_1_)" d="M306,111.5c-5.4,0-10.6-1.1-15.6-3.1c-4.8-2-9.1-4.9-12.7-8.6c-3.7-3.7-6.6-8-8.6-12.7
			c-2.1-4.9-3.1-10.2-3.1-15.6s1.1-10.6,3.1-15.6c2-4.8,4.9-9.1,8.6-12.7c3.7-3.7,8-6.6,12.7-8.6c4.9-2.1,10.2-3.1,15.6-3.1
			c5.4,0,10.6,1.1,15.6,3.1c4.8,2,9.1,4.9,12.7,8.6c3.7,3.7,6.6,8,8.6,12.7c2.1,4.9,3.1,10.2,3.1,15.6s-1.1,10.6-3.1,15.6
			c-2,4.8-4.9,9.1-8.6,12.7c-3.7,3.7-8,6.6-12.7,8.6C316.6,110.5,311.4,111.5,306,111.5z M306,32.4c-5.3,0-10.4,1-15.2,3.1
			c-4.7,2-8.8,4.8-12.4,8.4c-3.6,3.6-6.4,7.8-8.4,12.4c-2,4.8-3.1,9.9-3.1,15.2c0,5.3,1,10.4,3.1,15.2c2,4.7,4.8,8.8,8.4,12.4
			c3.6,3.6,7.8,6.4,12.4,8.4c4.8,2,9.9,3.1,15.2,3.1s10.4-1,15.2-3.1c4.7-2,8.8-4.8,12.4-8.4c3.6-3.6,6.4-7.8,8.4-12.4
			c2-4.8,3.1-9.9,3.1-15.2c0-5.3-1-10.4-3.1-15.2c-2-4.7-4.8-8.8-8.4-12.4c-3.6-3.6-7.8-6.4-12.4-8.4
			C316.4,33.5,311.3,32.4,306,32.4z"/>
	</g>
	<g>
		
			<linearGradient id="SVGID_2_" gradientUnits="userSpaceOnUse" x1="1451" y1="475.4" x2="1451" y2="-117.2" gradientTransform="matrix(0.1166 0 0 -0.1166 136.7647 92.3738)">
			<stop  offset="0" style="stop-color:#FFFFFF"/>
			<stop  offset="1" style="stop-color:#B1D37C"/>
		</linearGradient>
		<path fill="url(#SVGID_2_)" d="M306,106c-4.7,0-9.2-0.9-13.4-2.7c-4.1-1.7-7.8-4.2-11-7.4s-5.7-6.9-7.4-11
			c-1.8-4.3-2.7-8.8-2.7-13.4c0-4.7,0.9-9.2,2.7-13.4c1.7-4.1,4.2-7.8,7.4-11c3.2-3.2,6.9-5.7,11-7.4c4.3-1.8,8.8-2.7,13.4-2.7
			s9.2,0.9,13.4,2.7c4.1,1.7,7.8,4.2,11,7.4c3.2,3.2,5.7,6.9,7.4,11c1.8,4.3,2.7,8.8,2.7,13.4c0,4.7-0.9,9.2-2.7,13.4
			c-1.7,4.1-4.2,7.8-7.4,11s-6.9,5.7-11,7.4C315.2,105.1,310.7,106,306,106z M306,37.8c-4.5,0-9,0.9-13.1,2.6
			c-4,1.7-7.6,4.1-10.7,7.2s-5.5,6.7-7.2,10.7c-1.8,4.2-2.6,8.6-2.6,13.1c0,4.5,0.9,9,2.6,13.1c1.7,4,4.1,7.6,7.2,10.7
			s6.7,5.5,10.7,7.2c4.2,1.8,8.6,2.6,13.1,2.6s9-0.9,13.1-2.6c4-1.7,7.6-4.1,10.7-7.2c3.1-3.1,5.5-6.7,7.2-10.7
			c1.8-4.2,2.6-8.6,2.6-13.1c0-4.5-0.9-9-2.6-13.1c-1.7-4-4.1-7.6-7.2-10.7c-3.1-3.1-6.7-5.5-10.7-7.2C315,38.7,310.5,37.8,306,37.8
			z"/>
	</g>
</g>
<linearGradient id="SVGID_3_" gradientUnits="userSpaceOnUse" x1="1451" y1="-5958.5" x2="1451" y2="109" gradientTransform="matrix(0.1166 0 0 -0.1166 136.7647 92.3738)">
	<stop  offset="0.1947" style="stop-color:#53D3D7"/>
	<stop  offset="0.3014" style="stop-color:#65D8D6"/>
	<stop  offset="0.4781" style="stop-color:#CDF2CE"/>
</linearGradient>
<rect x="136.8" y="79.7" fill="url(#SVGID_3_)" width="338.5" height="707.7"/>
<polygon fill="#FAF8EC" points="363.9,315.1 274.3,377.6 136.8,400 136.8,130.3 165.1,161.1 177.2,217.1 322.8,240.4 "/>
<polygon fill="#FAF8EC" points="353.9,506.5 401.3,569 474,591.4 474,321.7 459,352.5 395,424 353.9,446.5 "/>
<g>
	
		<radialGradient id="SVGID_4_" cx="-31781.2441" cy="-6336.3799" r="6983.3691" gradientTransform="matrix(1.055086e-02 0 0 1.055086e-02 641.8275 136.6301)" gradientUnits="userSpaceOnUse">
		<stop  offset="0.5071" style="stop-color:#E3B6BF"/>
		<stop  offset="1" style="stop-color:#1B0C75"/>
	</radialGradient>
	<polygon fill="url(#SVGID_4_)" points="279.5,92.4 279,91.9 254.4,116.5 254.8,117 	"/>
	
		<radialGradient id="SVGID_5_" cx="-32319.7207" cy="-5949.6987" r="7057.1279" gradientTransform="matrix(1.055086e-02 0 0 1.055086e-02 641.8275 136.6301)" gradientUnits="userSpaceOnUse">
		<stop  offset="0.5071" style="stop-color:#E3B6BF"/>
		<stop  offset="1" style="stop-color:#1B0C75"/>
	</radialGradient>
	<polygon fill="url(#SVGID_5_)" points="237.4,136.2 238.1,137 276,99.1 275.2,98.4 	"/>
	
		<radialGradient id="SVGID_6_" cx="-33216.8633" cy="-5684.9883" r="13659.4277" gradientTransform="matrix(1.055086e-02 0 0 1.055086e-02 641.8275 136.6301)" gradientUnits="userSpaceOnUse">
		<stop  offset="0.5071" style="stop-color:#E3B6BF"/>
		<stop  offset="1" style="stop-color:#1B0C75"/>
	</radialGradient>
	<polygon fill="url(#SVGID_6_)" points="169.8,200 243.7,126.1 242.2,124.6 169.8,197.1 	"/>
	
		<radialGradient id="SVGID_7_" cx="-31815.0293" cy="-6247.3799" r="7049.6826" gradientTransform="matrix(1.055086e-02 0 0 1.055086e-02 641.8275 136.6301)" gradientUnits="userSpaceOnUse">
		<stop  offset="0.5071" style="stop-color:#E3B6BF"/>
		<stop  offset="1" style="stop-color:#1B0C75"/>
	</radialGradient>
	<path fill="url(#SVGID_7_)" d="M332.6,46.2l-6.6,6.6c-0.3-0.4-0.7-0.7-1-1.1c-2.5-2.5-5.3-4.4-8.5-5.8c-3.3-1.4-6.8-2.1-10.4-2.1
		c-3.6,0-7.1,0.7-10.4,2.1c-3.2,1.4-6.1,3.3-8.5,5.8s-4.4,5.3-5.8,8.5c-1.4,3.3-2.1,6.8-2.1,10.4c0,3.6,0.7,7.1,2.1,10.4
		c1,2.4,2.4,4.6,4,6.6l-5.8,5.8l0.5,0.5l5.8-5.8c0.4,0.5,0.8,0.9,1.3,1.4c2.5,2.5,5.3,4.4,8.5,5.8c3.3,1.4,6.8,2.1,10.4,2.1
		c3.6,0,7.1-0.7,10.4-2.1c3.2-1.4,6.1-3.3,8.5-5.8c2.5-2.5,4.4-5.3,5.8-8.5c1.4-3.3,2.1-6.8,2.1-10.4c0-3.6-0.7-7.1-2.1-10.4
		c-1.1-2.5-2.5-4.9-4.3-6.9l6.6-6.6L332.6,46.2z M281.9,80.9c-1.4-3.2-2.1-6.6-2.1-10.2s0.7-7,2.1-10.2c1.3-3.1,3.2-5.9,5.6-8.3
		c2.4-2.4,5.2-4.3,8.3-5.6c3.2-1.4,6.6-2.1,10.2-2.1s7,0.7,10.2,2.1c3.1,1.3,5.9,3.2,8.3,5.6c0.3,0.3,0.7,0.7,1,1.1l-2,2
		c-0.3-0.4-0.7-0.7-1-1.1c-0.1-0.1-0.3-0.3-0.4-0.4l0,0l0,0c-2-1.9-4.4-3.5-7-4.6c-2.9-1.2-5.9-1.8-9.1-1.8s-6.2,0.6-9.1,1.8
		c-2.6,1.1-4.9,2.6-7,4.6l0,0l0,0c-0.1,0.1-0.3,0.3-0.4,0.4c-2.1,2.1-3.8,4.6-5,7.4c-1.2,2.9-1.8,5.9-1.8,9.1s0.6,6.2,1.8,9.1
		c0.8,2,1.9,3.8,3.3,5.5l-2,2C284.2,85.4,282.9,83.2,281.9,80.9z M290.3,86.9c-0.1-0.1-0.2-0.2-0.2-0.2c-0.4-0.4-0.9-0.9-1.3-1.4
		l15.8-15.8l1,1l-15,15h30.9l-13.6-13.6l15.6-15.6c1.4,1.7,2.5,3.6,3.4,5.6c1.2,2.8,1.8,5.8,1.8,8.8s-0.6,6-1.8,8.8
		c-1.1,2.7-2.8,5.1-4.9,7.2c-0.1,0.1-0.2,0.2-0.2,0.2L290.3,86.9L290.3,86.9z M321.1,87.6c-1.9,1.7-4,3-6.2,4
		c-2.8,1.2-5.8,1.8-8.8,1.8s-6-0.6-8.8-1.8c-2.3-1-4.4-2.3-6.2-4H321.1z M321.8,54.5c0.1,0.1,0.2,0.2,0.2,0.2c0.3,0.3,0.7,0.7,1,1.1
		l-15.7,15.7l-0.9-0.9l15.1-15h-31l13.6,13.6l-15.7,15.7c-1.3-1.6-2.3-3.4-3.1-5.3c-1.2-2.8-1.8-5.8-1.8-8.8s0.6-6,1.8-8.8
		c1.1-2.7,2.8-5.1,4.9-7.2c0.1-0.1,0.2-0.2,0.2-0.2L321.8,54.5L321.8,54.5z M291,53.8c1.9-1.7,4-3,6.2-4c2.8-1.2,5.8-1.8,8.8-1.8
		s6,0.6,8.8,1.8c2.3,1,4.4,2.3,6.2,4H291z M319.8,84.8h-27.7L306,71L319.8,84.8z M292.1,56.2h27.8L306,70.1L292.1,56.2z M330.1,60.5
		c1.4,3.2,2.1,6.6,2.1,10.2s-0.7,7-2.1,10.2c-1.3,3.1-3.2,5.9-5.6,8.3s-5.2,4.3-8.3,5.6c-3.2,1.4-6.6,2.1-10.2,2.1s-7-0.7-10.2-2.1
		c-3.1-1.3-5.9-3.2-8.3-5.6c-0.4-0.4-0.9-0.9-1.3-1.4l2-2c0.4,0.5,0.8,0.9,1.3,1.4c0.1,0.1,0.3,0.3,0.4,0.4l0,0l0,0
		c2,1.9,4.4,3.5,7,4.6c2.9,1.2,5.9,1.8,9.1,1.8s6.2-0.6,9.1-1.8c2.6-1.1,4.9-2.6,7-4.6l0,0l0,0c0.1-0.1,0.3-0.3,0.4-0.4
		c2.1-2.1,3.8-4.6,5-7.4c1.2-2.9,1.8-5.9,1.8-9.1c0-3.1-0.6-6.2-1.8-9.1c-0.9-2.1-2.1-4.1-3.5-5.8l2-2
		C327.7,55.8,329.1,58.1,330.1,60.5z"/>
	
		<radialGradient id="SVGID_8_" cx="-31812.8105" cy="-6306.4873" r="6983.4272" gradientTransform="matrix(1.055086e-02 0 0 1.055086e-02 641.8275 136.6301)" gradientUnits="userSpaceOnUse">
		<stop  offset="0.5071" style="stop-color:#E3B6BF"/>
		<stop  offset="1" style="stop-color:#1B0C75"/>
	</radialGradient>
	<path fill="url(#SVGID_8_)" d="M353.9,23.9l-0.5-0.5L327.8,49c0.2,0.2,0.3,0.3,0.5,0.4L353.9,23.9z"/>
	
		<radialGradient id="SVGID_9_" cx="-31857.041" cy="-6232.6362" r="7107.8047" gradientTransform="matrix(1.055086e-02 0 0 1.055086e-02 641.8275 136.6301)" gradientUnits="userSpaceOnUse">
		<stop  offset="0.5071" style="stop-color:#E3B6BF"/>
		<stop  offset="1" style="stop-color:#1B0C75"/>
	</radialGradient>
	<path fill="url(#SVGID_9_)" d="M379.4,1.2l-42,42c0.3,0.3,0.5,0.5,0.9,0.7L381,1.2L379.4,1.2z"/>
</g>
</svg>
