<?xml version="1.0" encoding="utf-8"?>
<!-- Generator: Adobe Illustrator 18.1.1, SVG Export Plug-In . SVG Version: 6.00 Build 0)  -->
<svg version="1.1" id="Layer_1" xmlns="http://www.w3.org/2000/svg" xmlns:xlink="http://www.w3.org/1999/xlink" x="0px" y="0px"
	 viewBox="0 0 2902 6790.5" enable-background="new 0 0 2902 6790.5" xml:space="preserve">
<rect x="0" y="10" fill="#FAF8EC" width="2902" height="1220.8"/>
<g>
	<g>
		<linearGradient id="SVGID_1_" gradientUnits="userSpaceOnUse" x1="1451" y1="410.3471" x2="1451" y2="1096.9054">
			<stop  offset="0" style="stop-color:#FFFFFF"/>
			<stop  offset="1" style="stop-color:#B1D37C"/>
		</linearGradient>
		<path fill="url(#SVGID_1_)" d="M1451,1096.9c-46.3,0-91.3-9.1-133.6-27c-40.9-17.3-77.6-42-109.1-73.6
			c-31.5-31.5-56.3-68.2-73.6-109.1c-17.9-42.3-27-87.3-27-133.6c0-46.3,9.1-91.3,27-133.6c17.3-40.9,42-77.6,73.6-109.1
			c31.5-31.5,68.2-56.3,109.1-73.6c42.3-17.9,87.3-27,133.6-27c46.3,0,91.3,9.1,133.6,27c40.9,17.3,77.6,42,109.1,73.6
			c31.5,31.5,56.3,68.2,73.6,109.1c17.9,42.3,27,87.3,27,133.6c0,46.3-9.1,91.3-27,133.6c-17.3,40.9-42,77.6-73.6,109.1
			c-31.5,31.5-68.2,56.3-109.1,73.6C1542.3,1087.8,1497.3,1096.9,1451,1096.9z M1451,418.9c-45.2,0-89,8.8-130.3,26.3
			c-39.9,16.9-75.6,41-106.4,71.7c-30.7,30.7-54.9,66.5-71.7,106.4c-17.5,41.3-26.3,85.1-26.3,130.3s8.8,89,26.3,130.3
			c16.9,39.9,41,75.6,71.7,106.4c30.7,30.7,66.5,54.9,106.4,71.7c41.3,17.5,85.1,26.3,130.3,26.3s89-8.8,130.3-26.3
			c39.9-16.9,75.6-41,106.4-71.7s54.9-66.5,71.7-106.4c17.5-41.3,26.3-85.1,26.3-130.3s-8.8-89-26.3-130.3
			c-16.9-39.9-41-75.6-71.7-106.4c-30.7-30.7-66.5-54.9-106.4-71.7C1540,427.8,1496.2,418.9,1451,418.9z"/>
	</g>
	<g>
		<linearGradient id="SVGID_2_" gradientUnits="userSpaceOnUse" x1="1451" y1="457.3393" x2="1451" y2="1049.9132">
			<stop  offset="0" style="stop-color:#FFFFFF"/>
			<stop  offset="1" style="stop-color:#B1D37C"/>
		</linearGradient>
		<path fill="url(#SVGID_2_)" d="M1451,1049.9c-40,0-78.8-7.8-115.3-23.3c-35.3-14.9-67-36.3-94.2-63.5
			c-27.2-27.2-48.6-58.9-63.5-94.2c-15.5-36.5-23.3-75.3-23.3-115.3c0-40,7.8-78.8,23.3-115.3c14.9-35.3,36.3-67,63.5-94.2
			s58.9-48.6,94.2-63.5c36.5-15.5,75.3-23.3,115.3-23.3c40,0,78.8,7.8,115.3,23.3c35.3,14.9,67,36.3,94.2,63.5
			c27.2,27.2,48.6,58.9,63.5,94.2c15.5,36.5,23.3,75.3,23.3,115.3c0,40-7.8,78.8-23.3,115.3c-14.9,35.3-36.3,67-63.5,94.2
			c-27.2,27.2-58.9,48.6-94.2,63.5C1529.8,1042.1,1491,1049.9,1451,1049.9z M1451,464.8c-39,0-76.8,7.6-112.4,22.7
			c-34.4,14.5-65.3,35.4-91.8,61.9c-26.5,26.5-47.4,57.4-61.9,91.8c-15.1,35.6-22.7,73.4-22.7,112.4s7.6,76.8,22.7,112.4
			c14.5,34.4,35.4,65.3,61.9,91.8c26.5,26.5,57.4,47.4,91.8,61.9c35.6,15.1,73.4,22.7,112.4,22.7s76.8-7.6,112.4-22.7
			c34.4-14.5,65.3-35.4,91.8-61.9c26.5-26.5,47.4-57.4,61.9-91.8c15.1-35.6,22.7-73.4,22.7-112.4s-7.6-76.8-22.7-112.4
			c-14.5-34.4-35.4-65.3-61.9-91.8c-26.5-26.5-57.4-47.4-91.8-61.9C1527.8,472.4,1490,464.8,1451,464.8z"/>
	</g>
</g>
<linearGradient id="SVGID_3_" gradientUnits="userSpaceOnUse" x1="1451" y1="6750.5" x2="1451" y2="823.68">
	<stop  offset="0.1947" style="stop-color:#53D3D7"/>
	<stop  offset="0.3014" style="stop-color:#65D8D6"/>
	<stop  offset="0.4781" style="stop-color:#CDF2CE"/>
</linearGradient>
<rect x="0" y="823.7" fill="url(#SVGID_3_)" width="2902" height="5926.8"/>
<polygon fill="#FAF8EC" points="1947,2842 1179,3378 0,3570 0,1258 243,1522 347,2002 1595,2202 "/>
<line fill="none" stroke="#000000" stroke-miterlimit="10" x1="1451" y1="-1254" x2="1451" y2="5658"/>
<g>
	
		<radialGradient id="SVGID_4_" cx="-31781.2441" cy="5573.0244" r="6983.3691" gradientTransform="matrix(9.046163e-02 0 0 -9.046163e-02 4330.3394 1243.0938)" gradientUnits="userSpaceOnUse">
		<stop  offset="0" style="stop-color:#1B0C75"/>
		<stop  offset="0.5071" style="stop-color:#E3B6BF"/>
		<stop  offset="1" style="stop-color:#1B0C75"/>
	</radialGradient>
	<polygon fill="url(#SVGID_4_)" points="1223.7,932.6 1219.7,928.5 1008.4,1139.8 1012.4,1143.9 	"/>
	
		<radialGradient id="SVGID_5_" cx="-32319.7207" cy="5186.3433" r="7057.1279" gradientTransform="matrix(9.046163e-02 0 0 -9.046163e-02 4330.3394 1243.0938)" gradientUnits="userSpaceOnUse">
		<stop  offset="0.5071" style="stop-color:#E3B6BF"/>
		<stop  offset="1" style="stop-color:#1B0C75"/>
	</radialGradient>
	<polygon fill="url(#SVGID_5_)" points="862.7,1308.8 868.9,1315.1 1193.5,990.5 1187.2,984.3 	"/>
	
		<radialGradient id="SVGID_6_" cx="-33216.8633" cy="4921.6328" r="13659.4277" gradientTransform="matrix(9.046163e-02 0 0 -9.046163e-02 4330.3394 1243.0938)" gradientUnits="userSpaceOnUse">
		<stop  offset="0.5071" style="stop-color:#E3B6BF"/>
		<stop  offset="1" style="stop-color:#1B0C75"/>
	</radialGradient>
	<polygon fill="url(#SVGID_6_)" points="282.9,1855.7 916.9,1221.6 904.4,1209 282.9,1830.5 	"/>
	
		<radialGradient id="SVGID_7_" cx="-31815.4336" cy="5484.2715" r="7050.585" gradientTransform="matrix(9.046163e-02 0 0 -9.046163e-02 4330.3394 1243.0938)" gradientUnits="userSpaceOnUse">
		<stop  offset="0.5071" style="stop-color:#E3B6BF"/>
		<stop  offset="1" style="stop-color:#1B0C75"/>
	</radialGradient>
	<path fill="url(#SVGID_7_)" d="M1679.3,537l-56.7,56.7c-2.8-3.2-5.8-6.3-8.8-9.3c-21.1-21.1-45.7-37.7-73.1-49.3
		c-28.4-12-58.5-18.1-89.5-18.1s-61.2,6.1-89.5,18.1c-27.4,11.6-52,28.2-73.1,49.3c-21.1,21.1-37.7,45.7-49.3,73.1
		c-12,28.4-18.1,58.5-18.1,89.5c0,31.1,6.1,61.2,18.1,89.5c8.7,20.7,20.3,39.8,34.6,57l-50.1,50.1l4.1,4.1l49.8-49.8
		c3.5,4,7.2,7.9,11,11.7c21.1,21.1,45.7,37.7,73.1,49.3c28.4,12,58.5,18.1,89.5,18.1c31.1,0,61.2-6.1,89.5-18.1
		c27.4-11.6,52-28.2,73.1-49.3c21.1-21.1,37.7-45.7,49.3-73.1c12-28.4,18.1-58.5,18.1-89.5c0-31.1-6.1-61.2-18.1-89.5
		c-9.2-21.7-21.5-41.6-36.7-59.5l56.9-56.9L1679.3,537z M1244.6,834.3c-11.7-27.6-17.6-57-17.6-87.3s5.9-59.6,17.6-87.3
		c11.3-26.7,27.5-50.7,48.1-71.3c20.6-20.6,44.6-36.8,71.3-48.1c27.6-11.7,57-17.6,87.3-17.6c30.3,0,59.6,5.9,87.3,17.6
		c26.7,11.3,50.7,27.5,71.3,48.1c3,3,5.9,6.1,8.8,9.3l-17.3,17.3c-2.8-3.2-5.7-6.3-8.8-9.3c-1.2-1.2-2.5-2.4-3.7-3.6v0h0
		c-17.5-16.6-37.6-29.8-59.8-39.2c-24.6-10.4-50.8-15.7-77.8-15.7s-53.1,5.3-77.8,15.7c-22.2,9.4-42.3,22.6-59.8,39.2h0v0
		c-1.2,1.2-2.5,2.4-3.7,3.6c-18.3,18.3-32.8,39.7-42.8,63.5c-10.4,24.6-15.7,50.8-15.7,77.8s5.3,53.1,15.7,77.8
		c7.2,17.1,16.7,32.9,28.2,47.2l-17.4,17.4C1264.2,872.7,1253,854.3,1244.6,834.3z M1316,886.1c-0.7-0.6-1.3-1.3-2-1.9
		c-3.8-3.8-7.4-7.8-10.9-11.8L1438.5,737l8.4,8.4l-128.8,128.4h265.3L1467,757.4l133.9-133.9c12,14.5,21.7,30.5,29.1,48
		c10.1,23.9,15.2,49.3,15.2,75.5c0,26.2-5.1,51.6-15.2,75.5c-9.8,23.1-23.8,43.9-41.6,61.7c-0.6,0.6-1.3,1.3-2,1.9L1316,886.1
		L1316,886.1z M1580.2,891.9c-15.9,14.2-33.9,25.6-53.5,33.9c-23.9,10.1-49.3,15.2-75.5,15.2c-26.2,0-51.6-5.1-75.5-15.2
		c-19.7-8.3-37.6-19.7-53.5-33.9H1580.2z M1586.4,607.8c0.7,0.6,1.3,1.3,2,1.9c3,3,5.9,6.2,8.7,9.3l-134.2,134.2l-7.9-7.9
		l129.2-128.8h-266.2l116.3,116.3l-135,135c-11-13.8-20.1-29-27-45.4c-10.1-23.9-15.2-49.3-15.2-75.5c0-26.2,5.1-51.6,15.2-75.5
		c9.8-23.1,23.8-43.9,41.6-61.7c0.6-0.6,1.3-1.3,2-1.9L1586.4,607.8L1586.4,607.8z M1322.1,602.1c15.9-14.2,33.9-25.6,53.5-33.9
		c23.9-10.1,49.3-15.2,75.5-15.2s51.6,5.1,75.5,15.2c19.7,8.3,37.6,19.7,53.5,33.9H1322.1z M1569.5,868H1332L1451,749.5L1569.5,868z
		 M1332,622.4h238.3l-119.4,119L1332,622.4z M1657.8,659.7c11.7,27.6,17.6,57,17.6,87.3c0,30.3-5.9,59.6-17.6,87.3
		c-11.3,26.7-27.5,50.7-48.1,71.3c-20.6,20.6-44.6,36.8-71.3,48.1c-27.6,11.7-57,17.6-87.3,17.6c-30.3,0-59.6-5.9-87.3-17.6
		c-26.7-11.3-50.7-27.5-71.3-48.1c-3.8-3.8-7.4-7.7-11-11.8l17.4-17.4c3.5,4.1,7.1,8,10.9,11.8c1.2,1.2,2.5,2.4,3.7,3.6v0h0
		c17.5,16.6,37.6,29.8,59.8,39.2c24.6,10.4,50.8,15.7,77.8,15.7s53.1-5.3,77.8-15.7c22.2-9.4,42.3-22.6,59.8-39.2h0v0
		c1.2-1.2,2.5-2.4,3.7-3.6c18.3-18.3,32.8-39.7,42.8-63.5c10.4-24.6,15.7-50.8,15.7-77.8s-5.3-53.1-15.7-77.8
		c-7.6-18.1-17.8-34.8-30.3-49.8l17.4-17.4C1637,619.4,1648.9,638.7,1657.8,659.7z"/>
	
		<radialGradient id="SVGID_8_" cx="-31812.8105" cy="5543.1318" r="6983.4272" gradientTransform="matrix(9.046163e-02 0 0 -9.046163e-02 4330.3394 1243.0938)" gradientUnits="userSpaceOnUse">
		<stop  offset="0" style="stop-color:#1B0C75"/>
		<stop  offset="0.5071" style="stop-color:#E3B6BF"/>
		<stop  offset="1" style="stop-color:#1B0C75"/>
	</radialGradient>
	<path fill="url(#SVGID_8_)" d="M1861.3,345.5l-4.1-4.1l-219.1,219.1c1.4,1.3,2.9,2.5,4.4,3.7L1861.3,345.5z"/>
	
		<radialGradient id="SVGID_9_" cx="-31802.7598" cy="5469.6494" r="6993.9756" gradientTransform="matrix(9.046163e-02 0 0 -9.046163e-02 4330.3394 1243.0938)" gradientUnits="userSpaceOnUse">
		<stop  offset="0" style="stop-color:#1B0C75"/>
		<stop  offset="0.5071" style="stop-color:#E3B6BF"/>
		<stop  offset="1" style="stop-color:#1B0C75"/>
	</radialGradient>
	<path fill="url(#SVGID_9_)" d="M2080.4,150.7l-360.2,360.2c2.2,2.2,4.7,4.2,7.3,6.1l359.6-359.6L2080.4,150.7z"/>
</g>
</svg>
