<?xml version="1.0" encoding="utf-8"?>
<!-- Generator: Adobe Illustrator 18.1.1, SVG Export Plug-In . SVG Version: 6.00 Build 0)  -->
<svg version="1.1" id="Layer_1" xmlns="http://www.w3.org/2000/svg" xmlns:xlink="http://www.w3.org/1999/xlink" x="0px" y="0px"
	 viewBox="272.3 0 339.7 792" enable-background="new 272.3 0 339.7 792" xml:space="preserve">
<rect x="271.7" y="0" fill="#FAF8EC" width="340.3" height="143.5"/>
<g>
	<g>
		
			<linearGradient id="SVGID_1_" gradientUnits="userSpaceOnUse" x1="1451.4177" y1="216.8283" x2="1451.4177" y2="902.9346" gradientTransform="matrix(0.1175 0 0 0.1175 272.2658 1.795838e-02)">
			<stop  offset="0" style="stop-color:#FFFFFF"/>
			<stop  offset="1" style="stop-color:#B1D37C"/>
		</linearGradient>
		<path fill="url(#SVGID_1_)" d="M442.7,106.1c-5.4,0-10.7-1.1-15.7-3.1c-4.8-2-9.2-4.9-12.8-8.7c-3.7-3.7-6.6-8.1-8.7-12.8
			c-2.1-4.9-3.1-10.3-3.1-15.7c0-5.4,1.1-10.7,3.1-15.7c2-4.8,4.9-9.2,8.7-12.8c3.7-3.7,8.1-6.6,12.8-8.7c4.9-2.1,10.3-3.1,15.7-3.1
			c5.4,0,10.7,1.1,15.7,3.1c4.8,2,9.2,4.9,12.8,8.7c3.7,3.7,6.6,8.1,8.7,12.8C482,55,483,60.3,483,65.8s-1.1,10.7-3.1,15.7
			c-2,4.8-4.9,9.2-8.7,12.8c-3.7,3.7-8.1,6.6-12.8,8.7C453.4,105.1,448.2,106.1,442.7,106.1z M442.7,26.4c-5.3,0-10.5,1-15.3,3.1
			c-4.7,2-8.9,4.8-12.5,8.5c-3.6,3.6-6.4,7.9-8.5,12.5c-2,4.8-3.1,10-3.1,15.3s1,10.5,3.1,15.3c2,4.7,4.8,8.9,8.5,12.5
			c3.6,3.6,7.9,6.4,12.5,8.5c4.8,2,10,3.1,15.3,3.1c5.3,0,10.5-1,15.3-3.1c4.7-2,8.9-4.8,12.5-8.5c3.6-3.6,6.4-7.9,8.5-12.5
			c2-4.8,3.1-10,3.1-15.3c0-5.3-1-10.5-3.1-15.3c-2-4.7-4.8-8.9-8.5-12.5c-3.6-3.6-7.9-6.4-12.5-8.5
			C453.2,27.5,448.1,26.4,442.7,26.4z"/>
	</g>
	<g>
		
			<linearGradient id="SVGID_2_" gradientUnits="userSpaceOnUse" x1="1451.4177" y1="263.998" x2="1451.4177" y2="856.598" gradientTransform="matrix(0.1175 0 0 0.1175 272.2658 1.795838e-02)">
			<stop  offset="0" style="stop-color:#FFFFFF"/>
			<stop  offset="1" style="stop-color:#B1D37C"/>
		</linearGradient>
		<path fill="url(#SVGID_2_)" d="M442.7,100.5c-4.7,0-9.3-0.9-13.5-2.7c-4.1-1.7-7.9-4.2-11.1-7.5c-3.2-3.2-5.7-7-7.5-11.1
			c-1.8-4.3-2.7-8.9-2.7-13.5c0-4.7,0.9-9.3,2.7-13.5c1.7-4.1,4.2-7.9,7.5-11.1c3.2-3.2,7-5.7,11.1-7.5c4.3-1.8,8.9-2.7,13.5-2.7
			s9.3,0.9,13.5,2.7c4.1,1.7,7.9,4.2,11.1,7.5c3.2,3.2,5.7,7,7.5,11.1c1.8,4.3,2.7,8.9,2.7,13.5c0,4.7-0.9,9.3-2.7,13.5
			c-1.7,4.1-4.2,7.9-7.5,11.1c-3.2,3.2-7,5.7-11.1,7.5C452,99.6,447.5,100.5,442.7,100.5z M442.7,31.8c-4.5,0-9.1,0.9-13.2,2.6
			c-4,1.7-7.7,4.1-10.8,7.3c-3.1,3.1-5.5,6.7-7.3,10.8c-1.8,4.2-2.6,8.7-2.6,13.2s0.9,9.1,2.6,13.2c1.7,4,4.1,7.7,7.3,10.8
			c3.1,3.1,6.7,5.5,10.8,7.3c4.2,1.8,8.7,2.6,13.2,2.6c4.5,0,9.1-0.9,13.2-2.6c4-1.7,7.7-4.1,10.8-7.3c3.1-3.1,5.5-6.7,7.3-10.8
			c1.8-4.2,2.6-8.7,2.6-13.2s-0.9-9.1-2.6-13.2c-1.7-4-4.1-7.7-7.3-10.8c-3.1-3.1-6.7-5.5-10.8-7.3
			C451.8,32.7,447.3,31.8,442.7,31.8z"/>
	</g>
</g>
<linearGradient id="SVGID_3_" gradientUnits="userSpaceOnUse" x1="1446.3187" y1="6752.7739" x2="1446.3187" y2="640.4236" gradientTransform="matrix(0.1175 0 0 0.1175 272.2658 1.795838e-02)">
	<stop  offset="0.1381" style="stop-color:#000000"/>
	<stop  offset="0.1947" style="stop-color:#53D3D7"/>
	<stop  offset="0.2297" style="stop-color:#65D8D6"/>
	<stop  offset="0.4571" style="stop-color:#CDF2CE"/>
</linearGradient>
<rect x="272.3" y="75.2" fill="url(#SVGID_3_)" width="339.7" height="718"/>
<linearGradient id="SVGID_4_" gradientUnits="userSpaceOnUse" x1="1451.4177" y1="3.1664" x2="1451.4177" y2="-637.4102" gradientTransform="matrix(-0.1175 0 0 -0.1175 613.2334 75.2243)">
	<stop  offset="0" style="stop-color:#53D3D7"/>
	<stop  offset="0.1922" style="stop-color:#65D8D6;stop-opacity:0"/>
</linearGradient>
<rect x="272.3" y="74.9" opacity="0.3" fill="url(#SVGID_4_)" width="341" height="75.2"/>
<polygon fill="#FAF8EC" points="383.4,450.9 473.7,497 612.2,513.5 612.2,314.7 583.7,337.4 571.5,378.7 424.8,395.8 "/>
<g>
	
		<radialGradient id="SVGID_5_" cx="-31781.2441" cy="7715.1777" r="6983.3691" gradientTransform="matrix(1.062870e-02 0 0 -1.062870e-02 781.0546 146.0471)" gradientUnits="userSpaceOnUse">
		<stop  offset="0.5071" style="stop-color:#E3B6BF"/>
		<stop  offset="1" style="stop-color:#1B0C75"/>
	</radialGradient>
	<polygon fill="url(#SVGID_5_)" points="416.1,86.8 415.6,86.3 390.8,111.1 391.2,111.6 	"/>
	
		<radialGradient id="SVGID_6_" cx="-32319.7207" cy="7328.4966" r="7057.1279" gradientTransform="matrix(1.062870e-02 0 0 -1.062870e-02 781.0546 146.0471)" gradientUnits="userSpaceOnUse">
		<stop  offset="0.5071" style="stop-color:#E3B6BF"/>
		<stop  offset="1" style="stop-color:#1B0C75"/>
	</radialGradient>
	<polygon fill="url(#SVGID_6_)" points="373.6,131 374.3,131.8 412.5,93.6 411.7,92.9 	"/>
	
		<radialGradient id="SVGID_7_" cx="-33216.8633" cy="7063.7861" r="13659.4277" gradientTransform="matrix(1.062870e-02 0 0 -1.062870e-02 781.0546 146.0471)" gradientUnits="userSpaceOnUse">
		<stop  offset="0.5071" style="stop-color:#E3B6BF"/>
		<stop  offset="1" style="stop-color:#1B0C75"/>
	</radialGradient>
	<polygon fill="url(#SVGID_7_)" points="305.5,195.2 380,120.8 378.5,119.3 305.5,192.3 	"/>
	
		<radialGradient id="SVGID_8_" cx="-31810.4395" cy="7626.1777" r="7043.3433" gradientTransform="matrix(1.062870e-02 0 0 -1.062870e-02 781.0546 146.0471)" gradientUnits="userSpaceOnUse">
		<stop  offset="0.5071" style="stop-color:#E3B6BF"/>
		<stop  offset="1" style="stop-color:#1B0C75"/>
	</radialGradient>
	<path fill="url(#SVGID_8_)" d="M469.5,40.3l-6.6,6.6c-0.3-0.4-0.7-0.7-1-1.1c-2.5-2.5-5.3-4.4-8.6-5.8c-3.3-1.4-6.9-2.1-10.5-2.1
		s-7.2,0.7-10.5,2.1c-3.2,1.4-6.1,3.3-8.6,5.8s-4.4,5.3-5.8,8.6c-1.4,3.3-2.1,6.9-2.1,10.5c0,3.6,0.7,7.2,2.1,10.5
		c1,2.4,2.4,4.6,4,6.6l-5.8,5.8l0.5,0.5l5.8-5.8c0.4,0.5,0.8,0.9,1.3,1.4c2.5,2.5,5.3,4.4,8.6,5.8c3.3,1.4,6.9,2.1,10.5,2.1
		s7.2-0.7,10.5-2.1c3.2-1.4,6.1-3.3,8.6-5.8c2.5-2.5,4.4-5.3,5.8-8.6c1.4-3.3,2.1-6.9,2.1-10.5c0-3.6-0.7-7.2-2.1-10.5
		c-1.1-2.5-2.5-4.9-4.3-7l6.6-6.6L469.5,40.3z M418.5,75.3c-1.4-3.2-2.1-6.6-2.1-10.3s0.7-7.1,2.1-10.3c1.3-3.1,3.2-5.9,5.6-8.4
		c2.4-2.4,5.2-4.3,8.4-5.6c3.2-1.4,6.6-2.1,10.3-2.1c3.6,0,7.1,0.7,10.3,2.1c3.1,1.3,5.9,3.2,8.4,5.6c0.3,0.3,0.7,0.7,1,1.1l-2,2
		c-0.3-0.4-0.7-0.7-1-1.1c-0.1-0.1-0.3-0.3-0.4-0.4l0,0l0,0c-2-1.9-4.4-3.5-7.1-4.6c-2.9-1.2-5.9-1.8-9.2-1.8
		c-3.2,0-6.2,0.6-9.2,1.8c-2.6,1.1-4.9,2.6-7.1,4.6l0,0l0,0c-0.1,0.1-0.3,0.3-0.4,0.4c-2.1,2.1-3.8,4.6-5,7.5
		c-1.2,2.9-1.8,5.9-1.8,9.2c0,3.1,0.6,6.2,1.8,9.2c0.8,2,1.9,3.8,3.3,5.5l-2,2C420.8,79.8,419.5,77.6,418.5,75.3z M426.9,81.3
		c-0.1-0.1-0.2-0.2-0.2-0.2c-0.4-0.4-0.9-0.9-1.3-1.4l15.9-15.9l1,1l-15.1,15.1h31.1l-13.7-13.7l15.7-15.7c1.4,1.7,2.5,3.6,3.4,5.6
		c1.2,2.8,1.8,5.8,1.8,8.9c0,3-0.6,6-1.8,8.9c-1.1,2.7-2.8,5.1-4.9,7.3c-0.1,0.1-0.2,0.2-0.2,0.2H426.9L426.9,81.3z M458,82
		c-1.9,1.7-4,3-6.2,4c-2.8,1.2-5.8,1.8-8.9,1.8s-6-0.6-8.9-1.8c-2.3-1-4.4-2.3-6.2-4H458z M458.7,48.7c0.1,0.1,0.2,0.2,0.2,0.2
		c0.3,0.3,0.7,0.7,1,1.1l-15.8,15.8l-0.9-0.9l15.2-15.1h-31.2l13.7,13.7L425,79.3c-1.3-1.6-2.3-3.4-3.1-5.3
		c-1.2-2.8-1.8-5.8-1.8-8.9s0.6-6,1.8-8.9c1.1-2.7,2.8-5.1,4.9-7.3c0.1-0.1,0.2-0.2,0.2-0.2L458.7,48.7L458.7,48.7z M427.6,48
		c1.9-1.7,4-3,6.2-4c2.8-1.2,5.8-1.8,8.9-1.8c3,0,6,0.6,8.9,1.8c2.3,1,4.4,2.3,6.2,4H427.6z M456.7,79.2h-27.9l14-13.9L456.7,79.2z
		 M428.7,50.4h28l-14,14L428.7,50.4z M467,54.7c1.4,3.2,2.1,6.6,2.1,10.3s-0.7,7.1-2.1,10.3c-1.3,3.1-3.2,5.9-5.6,8.4
		c-2.4,2.4-5.2,4.3-8.4,5.6c-3.2,1.4-6.6,2.1-10.3,2.1c-3.6,0-7.1-0.7-10.3-2.1c-3.1-1.3-5.9-3.2-8.4-5.6c-0.4-0.4-0.9-0.9-1.3-1.4
		l2-2c0.4,0.5,0.8,0.9,1.3,1.4c0.1,0.1,0.3,0.3,0.4,0.4l0,0l0,0c2,1.9,4.4,3.5,7.1,4.6c2.9,1.2,5.9,1.8,9.2,1.8
		c3.2,0,6.2-0.6,9.2-1.8c2.6-1.1,4.9-2.6,7.1-4.6l0,0l0,0c0.1-0.1,0.3-0.3,0.4-0.4c2.1-2.1,3.8-4.6,5-7.5c1.2-2.9,1.8-5.9,1.8-9.2
		c0-3.1-0.6-6.2-1.8-9.2c-0.9-2.1-2.1-4.1-3.5-5.8l2-2C464.6,50,466,52.3,467,54.7z"/>
	
		<radialGradient id="SVGID_9_" cx="-31812.8105" cy="7685.2852" r="6983.4272" gradientTransform="matrix(1.062870e-02 0 0 -1.062870e-02 781.0546 146.0471)" gradientUnits="userSpaceOnUse">
		<stop  offset="0.5071" style="stop-color:#E3B6BF"/>
		<stop  offset="1" style="stop-color:#1B0C75"/>
	</radialGradient>
	<path fill="url(#SVGID_9_)" d="M491,17.8l-0.5-0.5l-25.8,25.8c0.2,0.2,0.3,0.3,0.5,0.4L491,17.8z"/>
	
		<radialGradient id="SVGID_10_" cx="-31512.0254" cy="7911.043" r="6289.4717" gradientTransform="matrix(1.062870e-02 0 0 -1.062870e-02 781.0546 146.0471)" gradientUnits="userSpaceOnUse">
		<stop  offset="0.5071" style="stop-color:#E3B6BF"/>
		<stop  offset="1" style="stop-color:#1B0C75"/>
	</radialGradient>
	<path fill="url(#SVGID_10_)" d="M511.7,0l-37.3,37.3c0.3,0.3,0.5,0.5,0.9,0.7l38-38H511.7z"/>
</g>
<polygon points="612.3,1013.1 272.3,1013.1 272.3,537.2 612,565.5 "/>
<line fill="none" stroke="#53E27C" stroke-width="0.1" stroke-miterlimit="10" x1="544.1" y1="67.9" x2="612" y2="0"/>
<line fill="none" stroke="#53E27C" stroke-width="0.1" stroke-miterlimit="10" x1="342.8" y1="86.3" x2="379.6" y2="49.4"/>
<line fill="none" stroke="#53E27C" stroke-width="0.1" stroke-miterlimit="10" x1="502.6" y1="72.4" x2="533.6" y2="41.4"/>
<line fill="none" stroke="#53E27C" stroke-width="0.1" stroke-miterlimit="10" x1="602.8" y1="49.7" x2="614.2" y2="38.3"/>
<line fill="none" stroke="#53E27C" stroke-width="0.1" stroke-miterlimit="10" x1="272.3" y1="107.3" x2="289.6" y2="90"/>
<line fill="none" stroke="#53E27C" stroke-width="0.1" stroke-miterlimit="10" x1="513.3" y1="37.9" x2="530.6" y2="20.6"/>
<line fill="none" stroke="#53E27C" stroke-width="0.1" stroke-miterlimit="10" x1="384.4" y1="140.4" x2="401.7" y2="123.1"/>
<g>
	<line fill="none" stroke="#53E27C" stroke-width="0.1" stroke-miterlimit="10" x1="310.6" y1="130.4" x2="378.4" y2="62.6"/>
</g>
<polygon fill="#FAF8EC" points="501.1,312.4 410.8,375.3 272.3,397.9 272.3,126.2 300.8,157.2 313,213.7 459.7,237.1 "/>
<g>
	<line fill="none" stroke="#53E27C" stroke-width="0.1" stroke-miterlimit="10" x1="330.6" y1="270.4" x2="398.4" y2="202.6"/>
</g>
<g>
	<line fill="none" stroke="#53E27C" stroke-width="0.1" stroke-miterlimit="10" x1="545.1" y1="270.4" x2="613" y2="202.6"/>
</g>
<g>
	<line fill="none" stroke="#53E27C" stroke-width="0.1" stroke-miterlimit="10" x1="275.1" y1="360.4" x2="343" y2="292.6"/>
</g>
<g>
	<line fill="none" stroke="#53E27C" stroke-width="0.1" stroke-miterlimit="10" x1="494.1" y1="340.4" x2="562" y2="272.6"/>
</g>
<g>
	<line fill="none" stroke="#53E27C" stroke-width="0.1" stroke-miterlimit="10" x1="499.7" y1="146.4" x2="567.5" y2="78.5"/>
</g>
<g>
	<line fill="none" stroke="#53E27C" stroke-width="0.1" stroke-miterlimit="10" x1="278.6" y1="448" x2="346.5" y2="380.2"/>
	<line fill="none" stroke="#53E27C" stroke-width="0.1" stroke-miterlimit="10" x1="278.6" y1="448" x2="346.5" y2="380.2"/>
</g>
<g>
	<line fill="none" stroke="#53E27C" stroke-width="0.1" stroke-miterlimit="10" x1="272.3" y1="793.2" x2="340.2" y2="725.3"/>
	<line fill="none" stroke="#53E27C" stroke-width="0.1" stroke-miterlimit="10" x1="380.1" y1="757.8" x2="420.2" y2="717.7"/>
</g>
<g>
	<path fill="none" stroke="#53E27C" stroke-width="0.1" stroke-miterlimit="10" d="M453.4,793.1"/>
	<path fill="none" stroke="#53E27C" stroke-width="0.1" stroke-miterlimit="10" d="M613.5,633"/>
	<line fill="none" stroke="#53E27C" stroke-width="0.1" stroke-miterlimit="10" x1="495.6" y1="750.9" x2="453.4" y2="793.1"/>
	<line fill="none" stroke="#53E27C" stroke-width="0.1" stroke-miterlimit="10" x1="613.5" y1="633" x2="578.1" y2="668.4"/>
</g>
<g>
	<line fill="none" stroke="#53E27C" stroke-width="0.1" stroke-miterlimit="10" x1="601.4" y1="679.1" x2="533.6" y2="747"/>
</g>
</svg>
