<?xml version="1.0" encoding="utf-8"?>
<!-- Generator: Adobe Illustrator 18.1.1, SVG Export Plug-In . SVG Version: 6.00 Build 0)  -->
<svg version="1.1" id="Layer_1" xmlns="http://www.w3.org/2000/svg" xmlns:xlink="http://www.w3.org/1999/xlink" x="0px" y="0px"
	 viewBox="0 0 612 792" enable-background="new 0 0 612 792" xml:space="preserve">
<symbol  id="circle5" viewBox="-203 -203 406 406">
	<path fill="none" stroke="#231F20" stroke-width="2" stroke-miterlimit="10" stroke-opacity="0" d="M-202,0
		c0,111.6,90.4,202,202,202S202,111.6,202,0S111.6-202,0-202S-202-111.6-202,0z"/>
	<path fill="#231F20" d="M-191-62.8l-1.9-0.6c13.1-39.6,38-73.9,70.6-98.5l1.2,1.6C-153.3-135.9-178-102-191-62.8z"/>
	<path fill="#231F20" d="M191,62.8l1.9,0.6c-13.1,39.6-38,73.9-70.6,98.5l-1.2-1.6C153.3,135.9,178,102,191,62.8z"/>
</symbol>
<symbol  id="circle_x5F_2_1_" viewBox="-221 -221 442 442">
	<path fill="none" d="M19.5,218.2C132.4,208.8,221,114.3,221-1c0-121.5-98.5-220-220-220S-219-122.5-219-1s98.5,220,220,220
		C7.2,219,13.4,218.7,19.5,218.2"/>
	<path fill="#231F20" d="M-153.1-155.1C-194.3-114-217-59.2-217-1s22.7,113,63.9,154.1S-57.2,217,1,217c5.3,0,10.7-0.2,16-0.6l0.3,4
		C11.9,220.8,6.4,221,1,221c-59.3,0-115-23.1-157-65s-65-97.7-65-157s23.1-115,65-157c3.5-3.5,7.2-6.9,10.9-10.2l2.6,3
		C-146.1-162-149.7-158.6-153.1-155.1z"/>
</symbol>
<symbol  id="circle_x5F_4" viewBox="-214.2 -214 428.5 428">
	<path fill="none" stroke="#231F20" stroke-width="13" stroke-miterlimit="10" stroke-opacity="0" d="M-207.8,0
		c0,114.6,92.9,207.5,207.5,207.5S207.2,114.6,207.2,0S114.3-207.5-0.2-207.5S-207.8-114.6-207.8,0z"/>
	<g>
		<path fill="#231F20" d="M151.6,151.3C111.2,191.7,57.5,214,0.2,214v-13c110.8,0,201-90.2,201-201s-90.2-201-201-201v-13
			c118,0,214,96,214,214C214.2,57.2,191.9,110.9,151.6,151.3z"/>
	</g>
</symbol>
<symbol  id="circle_x5F_6" viewBox="-195.5 -195.5 391 391">
	<path fill="none" stroke="#231F20" stroke-width="3" stroke-miterlimit="10" stroke-opacity="0" d="M-194,0
		c0,107.1,86.9,194,194,194S194,107.1,194,0S107.1-194,0-194S-194-107.1-194,0z"/>
	<g>
		<path fill="#231F20" d="M176.1,77.7l2.7,1.2c-24.7,55.8-74.8,98-135.5,111.8l-0.7-2.9C102.5,174.1,151.8,132.6,176.1,77.7z"/>
	</g>
</symbol>
<symbol  id="circle_x5F_7" viewBox="-194 -194 388 388">
	<g>
		<path fill="none" d="M-171,0c0-94.1,76.4-170.7,170.5-171v342C-94.6,170.7-171,94.1-171,0z"/>
		<path fill="#231F20" d="M-171,0c0,94.1,76.4,170.7,170.5,171v23C-107.2,193.7-194,106.8-194,0s86.8-193.7,193.5-194v23
			C-94.6-170.7-171-94.1-171,0z"/>
	</g>
	<path fill="none" stroke="#231F20" stroke-width="23" stroke-miterlimit="10" stroke-opacity="0" d="M-182.5,0
		c0,100.8,81.7,182.5,182.5,182.5S182.5,100.8,182.5,0S100.8-182.5,0-182.5S-182.5-100.8-182.5,0z"/>
</symbol>
<symbol  id="circle_x5F_7b" viewBox="-186.5 -186.5 373 373">
	<path opacity="0.5" fill="none" stroke="#231F20" stroke-width="23" stroke-miterlimit="10" enable-background="new    " d="
		M-175,0c0,96.6,78.4,175,175,175S175,96.6,175,0S96.6-175,0-175S-175-96.6-175,0z"/>
</symbol>
<symbol  id="dots_x5F_4_1_" viewBox="-208.5 -208.5 417 417">
	<g>
		<path fill="#231F20" d="M3.3-208.5v2c0.7,0,1.3,0,2,0v-2C4.6-208.5,4-208.5,3.3-208.5z M-4.8-208.4c-0.7,0-1.3,0-2,0.1l0.1,2
			c0.7,0,1.3,0,2-0.1L-4.8-208.4z M13.4-208.1l-0.1,2c0.7,0,1.3,0.1,2,0.1l0.1-2C14.7-208,14-208,13.4-208.1z M-14.8-208
			c-0.7,0-1.3,0.1-2,0.2l0.2,2c0.7-0.1,1.3-0.1,2-0.2L-14.8-208z M23.4-207.2l-0.2,2c0.7,0.1,1.3,0.2,2,0.2l0.2-2
			C24.7-207,24.1-207.1,23.4-207.2z M-24.8-207c-0.7,0.1-1.3,0.2-2,0.2l0.3,2c0.7-0.1,1.3-0.2,2-0.2L-24.8-207z M33.4-205.8l-0.3,2
			c0.7,0.1,1.3,0.2,2,0.3l0.3-2C34.7-205.6,34-205.7,33.4-205.8z M-34.8-205.6c-0.7,0.1-1.3,0.2-2,0.3l0.4,2c0.7-0.1,1.3-0.2,2-0.3
			L-34.8-205.6z M43.3-204l-0.4,2c0.7,0.1,1.3,0.3,2,0.4l0.4-2C44.6-203.7,43.9-203.9,43.3-204z M-44.7-203.7
			c-0.7,0.1-1.3,0.3-2,0.4l0.4,1.9c0.6-0.1,1.3-0.3,1.9-0.4L-44.7-203.7z M53.1-201.7l-0.5,1.9c0.6,0.2,1.3,0.3,1.9,0.5l0.5-1.9
			C54.4-201.3,53.7-201.5,53.1-201.7z M-54.5-201.3c-0.6,0.2-1.3,0.4-1.9,0.5l0.5,1.9c0.6-0.2,1.3-0.4,1.9-0.5L-54.5-201.3z
			 M62.8-198.9l-0.6,1.9c0.6,0.2,1.3,0.4,1.9,0.6l0.6-1.9C64.1-198.5,63.4-198.7,62.8-198.9z M-64.2-198.4c-0.6,0.2-1.3,0.4-1.9,0.6
			l0.6,1.9c0.6-0.2,1.3-0.4,1.9-0.6L-64.2-198.4z M72.3-195.6l-0.7,1.9c0.6,0.2,1.2,0.5,1.9,0.7l0.7-1.9
			C73.6-195.2,72.9-195.4,72.3-195.6z M-73.7-195.1c-0.6,0.2-1.3,0.5-1.9,0.7l0.7,1.9c0.6-0.2,1.2-0.5,1.9-0.7L-73.7-195.1z
			 M81.6-191.9l-0.8,1.8c0.6,0.3,1.2,0.5,1.8,0.8l0.8-1.8C82.9-191.4,82.3-191.6,81.6-191.9z M-83.1-191.3c-0.6,0.3-1.2,0.5-1.9,0.8
			l0.8,1.8c0.6-0.3,1.2-0.5,1.8-0.8L-83.1-191.3z M90.8-187.7l-0.9,1.8c0.6,0.3,1.2,0.6,1.8,0.9l0.9-1.8
			C92-187.2,91.4-187.5,90.8-187.7z M-92.2-187.1c-0.6,0.3-1.2,0.6-1.8,0.9l0.9,1.8c0.6-0.3,1.2-0.6,1.8-0.9L-92.2-187.1z
			 M99.7-183.1l-1,1.8c0.6,0.3,1.2,0.6,1.7,1l1-1.7C100.9-182.5,100.3-182.8,99.7-183.1z M-101.1-182.4c-0.6,0.3-1.2,0.7-1.8,1
			l1,1.7c0.6-0.3,1.2-0.7,1.7-1L-101.1-182.4z M108.4-178.1l-1,1.7c0.6,0.3,1.1,0.7,1.7,1l1.1-1.7
			C109.6-177.4,109-177.8,108.4-178.1z M-109.8-177.2c-0.6,0.4-1.1,0.7-1.7,1.1l1.1,1.7c0.6-0.4,1.1-0.7,1.7-1.1L-109.8-177.2z
			 M116.9-172.7l-1.1,1.7c0.5,0.4,1.1,0.7,1.6,1.1l1.1-1.6C118-171.9,117.4-172.3,116.9-172.7z M-118.3-171.7
			c-0.6,0.4-1.1,0.8-1.7,1.2l1.2,1.6c0.5-0.4,1.1-0.8,1.6-1.1L-118.3-171.7z M125.1-166.8l-1.2,1.6c0.5,0.4,1.1,0.8,1.6,1.2l1.2-1.6
			C126.2-166,125.6-166.4,125.1-166.8z M-126.4-165.8c-0.5,0.4-1.1,0.8-1.6,1.2l1.2,1.6c0.5-0.4,1.1-0.8,1.6-1.2L-126.4-165.8z
			 M133-160.6l-1.3,1.5c0.5,0.4,1,0.9,1.5,1.3l1.3-1.5C134-159.7,133.5-160.2,133-160.6z M-134.3-159.5c-0.5,0.4-1,0.9-1.5,1.3
			l1.3,1.5c0.5-0.4,1-0.9,1.5-1.3L-134.3-159.5z M140.6-154l-1.3,1.5c0.5,0.4,1,0.9,1.5,1.4l1.4-1.5
			C141.6-153.1,141.1-153.5,140.6-154z M-141.9-152.8c-0.5,0.5-1,0.9-1.5,1.4l1.4,1.5c0.5-0.5,1-0.9,1.5-1.4L-141.9-152.8z
			 M147.9-147l-1.4,1.4c0.5,0.5,0.9,0.9,1.4,1.4l1.4-1.4C148.8-146.1,148.3-146.5,147.9-147z M-149.1-145.8c-0.5,0.5-0.9,1-1.4,1.4
			l1.4,1.4c0.5-0.5,0.9-1,1.4-1.4L-149.1-145.8z M154.8-139.7l-1.5,1.3c0.4,0.5,0.9,1,1.3,1.5l1.5-1.3
			C155.7-138.7,155.2-139.2,154.8-139.7z M-155.9-138.4c-0.4,0.5-0.9,1-1.3,1.5l1.5,1.3c0.4-0.5,0.9-1,1.3-1.5L-155.9-138.4z
			 M161.4-132.1l-1.5,1.3c0.4,0.5,0.8,1,1.3,1.6l1.6-1.3C162.2-131,161.8-131.5,161.4-132.1z M-162.4-130.7c-0.4,0.5-0.8,1-1.3,1.6
			l1.6,1.2c0.4-0.5,0.8-1,1.2-1.6L-162.4-130.7z M167.6-124.1l-1.6,1.2c0.4,0.5,0.8,1.1,1.2,1.6l1.6-1.2
			C168.4-123,168-123.6,167.6-124.1z M-168.6-122.7c-0.4,0.5-0.8,1.1-1.2,1.6l1.6,1.2c0.4-0.5,0.8-1.1,1.2-1.6L-168.6-122.7z
			 M173.4-115.9l-1.7,1.1c0.4,0.6,0.7,1.1,1.1,1.7l1.7-1.1C174.1-114.8,173.7-115.3,173.4-115.9z M-174.3-114.5
			c-0.4,0.6-0.7,1.1-1.1,1.7l1.7,1.1c0.4-0.6,0.7-1.1,1.1-1.7L-174.3-114.5z M178.8-107.4l-1.7,1c0.3,0.6,0.7,1.1,1,1.7l1.7-1
			C179.5-106.2,179.1-106.8,178.8-107.4z M-179.6-105.9c-0.3,0.6-0.7,1.2-1,1.7l1.7,1c0.3-0.6,0.7-1.1,1-1.7L-179.6-105.9z
			 M183.8-98.6l-1.8,0.9c0.3,0.6,0.6,1.2,0.9,1.8l1.8-0.9C184.4-97.4,184.1-98,183.8-98.6z M-184.5-97.2c-0.3,0.6-0.6,1.2-0.9,1.8
			l1.8,0.9c0.3-0.6,0.6-1.2,0.9-1.8L-184.5-97.2z M188.3-89.6l-1.8,0.9c0.3,0.6,0.6,1.2,0.9,1.8l1.8-0.8
			C188.9-88.4,188.6-89,188.3-89.6z M-189-88.2c-0.3,0.6-0.6,1.2-0.8,1.8l1.8,0.8c0.3-0.6,0.6-1.2,0.8-1.8L-189-88.2z M192.4-80.4
			l-1.8,0.8c0.3,0.6,0.5,1.2,0.8,1.9l1.9-0.8C193-79.1,192.7-79.7,192.4-80.4z M-193-79c-0.3,0.6-0.5,1.2-0.8,1.9l1.9,0.7
			c0.2-0.6,0.5-1.2,0.7-1.9L-193-79z M196.1-71l-1.9,0.7c0.2,0.6,0.5,1.3,0.7,1.9l1.9-0.7C196.6-69.7,196.3-70.3,196.1-71z
			 M-196.6-69.5c-0.2,0.6-0.4,1.3-0.7,1.9l1.9,0.7c0.2-0.6,0.4-1.3,0.7-1.9L-196.6-69.5z M199.3-61.4l-1.9,0.6
			c0.2,0.6,0.4,1.3,0.6,1.9l1.9-0.6C199.7-60.1,199.5-60.7,199.3-61.4z M-199.7-60c-0.2,0.6-0.4,1.3-0.6,1.9l1.9,0.6
			c0.2-0.6,0.4-1.3,0.6-1.9L-199.7-60z M202-51.7l-1.9,0.5c0.2,0.6,0.3,1.3,0.5,1.9l1.9-0.5C202.4-50.4,202.2-51,202-51.7z
			 M-202.4-50.2c-0.2,0.7-0.3,1.3-0.5,2l1.9,0.5c0.2-0.6,0.3-1.3,0.5-1.9L-202.4-50.2z M204.3-41.8l-2,0.4c0.1,0.7,0.3,1.3,0.4,2
			l2-0.4C204.6-40.5,204.4-41.2,204.3-41.8z M-204.6-40.4c-0.1,0.7-0.3,1.3-0.4,2l2,0.4c0.1-0.7,0.2-1.3,0.4-2L-204.6-40.4z
			 M206.1-31.9l-2,0.3c0.1,0.7,0.2,1.3,0.3,2l2-0.3C206.3-30.6,206.2-31.3,206.1-31.9z M-206.3-30.5c-0.1,0.7-0.2,1.3-0.3,2l2,0.3
			c0.1-0.7,0.2-1.3,0.3-2L-206.3-30.5z M207.4-21.9l-2,0.2c0.1,0.7,0.1,1.3,0.2,2l2-0.2C207.5-20.6,207.4-21.3,207.4-21.9z
			 M-207.5-20.5c-0.1,0.7-0.1,1.3-0.2,2l2,0.2c0.1-0.7,0.1-1.3,0.2-2L-207.5-20.5z M208.2-11.9l-2,0.1c0,0.7,0.1,1.3,0.1,2l2-0.1
			C208.2-10.6,208.2-11.2,208.2-11.9z M-208.2-10.4c0,0.7-0.1,1.3-0.1,2l2,0.1c0-0.7,0.1-1.3,0.1-2L-208.2-10.4z M208.5-1.8h-2
			c0,0.6,0,1.2,0,1.8v0.2h2V0C208.5-0.6,208.5-1.2,208.5-1.8z M-206.5-0.4h-2V0c0,0.7,0,1.4,0,2h2c0-0.7,0-1.3,0-2V-0.4z M206.3,8.2
			c0,0.7-0.1,1.3-0.1,2l2,0.1c0-0.7,0.1-1.3,0.1-2L206.3,8.2z M-206.3,10l-2,0.1c0,0.7,0.1,1.3,0.1,2l2-0.1
			C-206.2,11.3-206.2,10.6-206.3,10z M205.7,18.1c-0.1,0.7-0.1,1.3-0.2,2l2,0.2c0.1-0.7,0.1-1.3,0.2-2L205.7,18.1z M-205.6,19.9
			l-2,0.2c0.1,0.7,0.1,1.3,0.2,2l2-0.2C-205.4,21.3-205.5,20.6-205.6,19.9z M204.6,28c-0.1,0.7-0.2,1.3-0.3,2l2,0.3
			c0.1-0.7,0.2-1.3,0.3-2L204.6,28z M-204.4,29.8l-2,0.3c0.1,0.7,0.2,1.3,0.3,2l2-0.3C-204.2,31.2-204.3,30.5-204.4,29.8z M203,37.9
			c-0.1,0.7-0.2,1.3-0.4,2l2,0.4c0.1-0.7,0.3-1.3,0.4-2L203,37.9z M-202.7,39.7l-2,0.4c0.1,0.7,0.3,1.3,0.4,2l2-0.4
			C-202.4,41-202.6,40.3-202.7,39.7z M201,47.7c-0.2,0.6-0.3,1.3-0.5,1.9l1.9,0.5c0.2-0.7,0.3-1.3,0.5-2L201,47.7z M-200.6,49.4
			l-1.9,0.5c0.2,0.7,0.3,1.3,0.5,2l1.9-0.5C-200.2,50.7-200.4,50.1-200.6,49.4z M198.4,57.3c-0.2,0.6-0.4,1.3-0.6,1.9l1.9,0.6
			c0.2-0.6,0.4-1.3,0.6-1.9L198.4,57.3z M-197.9,59l-1.9,0.6c0.2,0.6,0.4,1.3,0.6,1.9l1.9-0.6C-197.6,60.3-197.7,59.7-197.9,59z
			 M195.5,66.8c-0.2,0.6-0.4,1.3-0.7,1.9l1.9,0.7c0.2-0.6,0.4-1.3,0.7-1.9L195.5,66.8z M-194.8,68.6l-1.9,0.7
			c0.2,0.6,0.5,1.3,0.7,1.9l1.9-0.7C-194.4,69.8-194.6,69.2-194.8,68.6z M192,76.2c-0.2,0.6-0.5,1.2-0.7,1.9l1.9,0.8
			c0.3-0.6,0.5-1.2,0.8-1.9L192,76.2z M-191.3,77.9l-1.9,0.8c0.3,0.6,0.5,1.2,0.8,1.9l1.8-0.8C-190.8,79.1-191,78.5-191.3,77.9z
			 M188.1,85.3c-0.3,0.6-0.6,1.2-0.8,1.8l1.8,0.8c0.3-0.6,0.6-1.2,0.8-1.8L188.1,85.3z M-187.3,87.1l-1.8,0.8
			c0.3,0.6,0.6,1.2,0.9,1.8l1.8-0.9C-186.7,88.3-187,87.7-187.3,87.1z M183.8,94.3c-0.3,0.6-0.6,1.2-0.9,1.8l1.8,0.9
			c0.3-0.6,0.6-1.2,0.9-1.8L183.8,94.3z M-182.9,96l-1.8,0.9c0.3,0.6,0.6,1.2,0.9,1.8l1.8-0.9C-182.2,97.2-182.5,96.6-182.9,96z
			 M179,103c-0.3,0.6-0.7,1.1-1,1.7l1.7,1c0.3-0.6,0.7-1.2,1-1.7L179,103z M-178,104.8l-1.7,1c0.3,0.6,0.7,1.2,1,1.7l1.7-1
			C-177.3,105.9-177.7,105.3-178,104.8z M173.8,111.5c-0.4,0.6-0.7,1.1-1.1,1.7l1.7,1.1c0.4-0.6,0.7-1.1,1.1-1.7L173.8,111.5z
			 M-172.7,113.2l-1.7,1.1c0.4,0.6,0.7,1.1,1.1,1.7l1.7-1.1C-172,114.4-172.3,113.8-172.7,113.2z M168.2,119.8
			c-0.4,0.5-0.8,1.1-1.2,1.6l1.6,1.2c0.4-0.5,0.8-1.1,1.2-1.6L168.2,119.8z M-167,121.5l-1.6,1.2c0.4,0.5,0.8,1.1,1.2,1.6l1.6-1.2
			C-166.2,122.5-166.6,122-167,121.5z M162.2,127.8c-0.4,0.5-0.8,1-1.2,1.6l1.6,1.3c0.4-0.5,0.8-1,1.3-1.6L162.2,127.8z M-161,129.4
			l-1.6,1.3c0.4,0.5,0.8,1,1.3,1.6l1.5-1.3C-160.1,130.4-160.5,129.9-161,129.4z M155.9,135.4c-0.4,0.5-0.9,1-1.3,1.5l1.5,1.3
			c0.4-0.5,0.9-1,1.3-1.5L155.9,135.4z M-154.5,137l-1.5,1.3c0.4,0.5,0.9,1,1.3,1.5l1.5-1.3C-153.6,138-154.1,137.5-154.5,137z
			 M149.1,142.8c-0.5,0.5-0.9,1-1.4,1.4l1.4,1.4c0.5-0.5,0.9-1,1.4-1.4L149.1,142.8z M-147.7,144.3l-1.4,1.4c0.5,0.5,0.9,1,1.4,1.4
			l1.4-1.4C-146.8,145.3-147.2,144.8-147.7,144.3z M142.1,149.9c-0.5,0.5-1,0.9-1.5,1.4l1.4,1.5c0.5-0.5,1-0.9,1.5-1.4L142.1,149.9z
			 M-140.6,151.3l-1.4,1.5c0.5,0.5,1,0.9,1.5,1.4l1.3-1.5C-139.6,152.2-140.1,151.7-140.6,151.3z M134.7,156.5
			c-0.5,0.4-1,0.9-1.5,1.3l1.3,1.5c0.5-0.4,1-0.9,1.5-1.3L134.7,156.5z M-133.1,157.9l-1.3,1.5c0.5,0.4,1,0.9,1.5,1.3l1.3-1.5
			C-132.1,158.7-132.6,158.3-133.1,157.9z M127,162.9c-0.5,0.4-1.1,0.8-1.6,1.2l1.2,1.6c0.5-0.4,1.1-0.8,1.6-1.2L127,162.9z
			 M-125.3,164.1l-1.2,1.6c0.5,0.4,1.1,0.8,1.6,1.2l1.2-1.6C-124.3,164.9-124.8,164.5-125.3,164.1z M118.9,168.8
			c-0.5,0.4-1.1,0.8-1.6,1.1l1.1,1.6c0.6-0.4,1.1-0.8,1.7-1.2L118.9,168.8z M-117.3,170l-1.1,1.6c0.6,0.4,1.1,0.8,1.7,1.1l1.1-1.7
			C-116.2,170.7-116.7,170.4-117.3,170z M110.6,174.4c-0.6,0.4-1.1,0.7-1.7,1.1l1.1,1.7c0.6-0.4,1.1-0.7,1.7-1.1L110.6,174.4z
			 M-108.9,175.5l-1.1,1.7c0.6,0.4,1.1,0.7,1.7,1.1l1-1.7C-107.8,176.2-108.4,175.8-108.9,175.5z M102.1,179.5
			c-0.6,0.3-1.2,0.7-1.7,1l1,1.7c0.6-0.3,1.2-0.7,1.8-1L102.1,179.5z M-100.4,180.5l-1,1.7c0.6,0.3,1.2,0.6,1.8,1l1-1.8
			C-99.2,181.2-99.8,180.8-100.4,180.5z M93.3,184.3c-0.6,0.3-1.2,0.6-1.8,0.9l0.9,1.8c0.6-0.3,1.2-0.6,1.8-0.9L93.3,184.3z
			 M-91.5,185.2l-0.9,1.8c0.6,0.3,1.2,0.6,1.8,0.9l0.9-1.8C-90.4,185.7-90.9,185.4-91.5,185.2z M84.3,188.6
			c-0.6,0.3-1.2,0.5-1.8,0.8l0.8,1.8c0.6-0.3,1.2-0.5,1.8-0.8L84.3,188.6z M-82.5,189.4l-0.8,1.8c0.6,0.3,1.2,0.5,1.8,0.8l0.8-1.8
			C-81.3,189.9-81.9,189.6-82.5,189.4z M75,192.4c-0.6,0.2-1.2,0.5-1.9,0.7l0.7,1.9c0.6-0.2,1.3-0.5,1.9-0.7L75,192.4z M-73.3,193.1
			L-74,195c0.6,0.2,1.3,0.5,1.9,0.7l0.7-1.9C-72.1,193.6-72.7,193.3-73.3,193.1z M65.6,195.9c-0.6,0.2-1.3,0.4-1.9,0.6l0.6,1.9
			c0.6-0.2,1.3-0.4,1.9-0.6L65.6,195.9z M-63.9,196.4l-0.6,1.9c0.6,0.2,1.3,0.4,1.9,0.6l0.6-1.9C-62.6,196.8-63.3,196.6-63.9,196.4z
			 M56.1,198.8c-0.6,0.2-1.3,0.4-1.9,0.5l0.5,1.9c0.6-0.2,1.3-0.4,1.9-0.5L56.1,198.8z M-54.3,199.3l-0.5,1.9
			c0.6,0.2,1.3,0.3,1.9,0.5l0.5-1.9C-53.1,199.6-53.7,199.5-54.3,199.3z M46.4,201.3c-0.6,0.1-1.3,0.3-1.9,0.4l0.4,2
			c0.7-0.1,1.3-0.3,2-0.4L46.4,201.3z M-44.7,201.7l-0.4,2c0.7,0.1,1.3,0.3,2,0.4l0.4-2C-43.4,201.9-44,201.8-44.7,201.7z
			 M36.6,203.3c-0.7,0.1-1.3,0.2-2,0.3l0.3,2c0.7-0.1,1.3-0.2,2-0.3L36.6,203.3z M-34.9,203.6l-0.3,2c0.7,0.1,1.3,0.2,2,0.3l0.3-2
			C-33.5,203.8-34.2,203.7-34.9,203.6z M26.8,204.8c-0.7,0.1-1.3,0.2-2,0.2l0.2,2c0.7-0.1,1.3-0.2,2-0.2L26.8,204.8z M-25,205
			l-0.2,2c0.7,0.1,1.3,0.2,2,0.2l0.2-2C-23.7,205.2-24.3,205.1-25,205z M16.8,205.8c-0.7,0.1-1.3,0.1-2,0.2l0.1,2
			c0.7,0,1.3-0.1,2-0.2L16.8,205.8z M-15.1,206l-0.1,2c0.7,0,1.3,0.1,2,0.1l0.1-2C-13.7,206.1-14.4,206-15.1,206z M6.9,206.4
			c-0.7,0-1.3,0-2,0.1v2c0.7,0,1.3,0,2-0.1V206.4z M-5.1,206.4v2c0.7,0,1.3,0,2,0v-2C-3.8,206.5-4.4,206.5-5.1,206.4z"/>
	</g>
</symbol>
<symbol  id="middle_x5F_stick_1_" viewBox="-18.6 -233.5 37.2 467">
	<path fill="#231F20" d="M18.5-213.7v426.4c-6.1,0.5-12.3,0.8-18.5,0.8s-12.4-0.3-18.5-0.8v-426.4c6.1-0.5,12.3-0.8,18.5-0.8
		S12.4-214.3,18.5-213.7z"/>
	<path fill="#231F20" d="M18.5,224.7v8.8h-37.1v-8.8c6.1,0.5,12.3,0.8,18.5,0.8S12.4,225.2,18.5,224.7z"/>
	<path fill="#231F20" d="M0-222.5c-6.2,0-12.4,0.3-18.5,0.8v-4v-7.8h37.1v7.8v4C12.4-222.3,6.2-222.5,0-222.5z"/>
</symbol>
<g id="Layer_3">
	
		<image overflow="visible" enable-background="new    " width="474" height="473" xlink:href="9C9E3E96710D2667.png"  transform="matrix(1.0541 -0.5684 0.5684 1.0541 -85.9962 281.4207)">
	</image>
	
		<image overflow="visible" enable-background="new    " width="474" height="473" xlink:href="9C9E3E96710D2665.png"  transform="matrix(1.0541 -0.5684 0.5684 1.0541 -718.6545 281.4207)">
	</image>
	
		<image overflow="visible" enable-background="new    " width="474" height="473" xlink:href="9C9E3E96710D266B.png"  transform="matrix(0.4071 3.565513e-05 -3.565513e-05 0.4071 -16.435 -203.9901)">
	</image>
</g>
<g id="Layer_2" display="none">
</g>
<g id="inner_x5F_circle" display="none">
	
		<circle display="inline" opacity="0.5" fill="none" stroke="#231F20" stroke-width="5" stroke-miterlimit="10" enable-background="new    " cx="306" cy="396" r="170.3"/>
	<g display="inline">
		
			<line opacity="0.5" fill="none" stroke="#231F20" stroke-width="5" stroke-miterlimit="10" enable-background="new    " x1="271.1" y1="228.4" x2="271.1" y2="563.6"/>
		
			<line opacity="0.5" fill="none" stroke="#231F20" stroke-width="5" stroke-miterlimit="10" enable-background="new    " x1="340.9" y1="228.4" x2="340.9" y2="563.6"/>
	</g>
</g>
<g id="CircleOut_x5F_10" display="none">
	
		<circle display="inline" opacity="0.5" fill="none" stroke="#231F20" stroke-width="20" stroke-miterlimit="10" enable-background="new    " cx="306" cy="396" r="193"/>
</g>
<g id="circleOut_x5F_10_x5F_lines_x5F_small" display="none">
	<g display="inline" opacity="0.5">
		
			<circle fill="none" stroke="#231F20" stroke-width="9" stroke-miterlimit="10" stroke-dasharray="1.5031,4.0083" cx="306" cy="396" r="198.2"/>
	</g>
</g>
<g id="circleOut_x5F_9_x5F_lines_x5F_big" display="none">
	<g display="inline" opacity="0.5">
		
			<circle fill="none" stroke="#231F20" stroke-width="15" stroke-miterlimit="10" stroke-dasharray="1.4957,3.9884" cx="306" cy="396" r="190.4"/>
	</g>
</g>
<g id="circleOut_x5F_8_x5F_thin" display="none">
	
		<circle display="inline" opacity="0.5" fill="none" stroke="#231F20" stroke-width="2" stroke-miterlimit="10" enable-background="new    " cx="306" cy="396" r="213"/>
</g>
<g id="circleOut_x5F_7_x5F_in">
	<g id="Layer_4">
	</g>
	
		<use xlink:href="#circle_x5F_7b"  width="373" height="373" id="XMLID_7_" x="-186.5" y="-186.5" transform="matrix(1.2911 0 0 -1.2911 306 396)" overflow="visible"/>
</g>
<g id="circleOut_x5F_7_x5F_out">
	
		<use xlink:href="#circle_x5F_7"  width="388" height="388" x="-194" y="-194" transform="matrix(1.2911 0 0 -1.2911 306 396)" overflow="visible"/>
</g>
<g id="circleOut_x5F_6_x5F_thin">
	
		<use xlink:href="#circle_x5F_6"  width="391" height="391" id="XMLID_6_" x="-195.5" y="-195.5" transform="matrix(1.2911 0 0 -1.2911 306 396)" overflow="visible"/>
</g>
<g id="circleOut_x5F_5_x5F_thin">
	
		<use xlink:href="#circle5"  width="406" height="406" id="XMLID_5_" x="-203" y="-203" transform="matrix(1.2911 0 0 -1.2911 306 396)" overflow="visible"/>
</g>
<g id="circleOut_x5F_4">
	
		<use xlink:href="#circle_x5F_4"  width="428.5" height="428" id="XMLID_4_" x="-214.2" y="-214" transform="matrix(1.2911 0 0 -1.2911 305.6772 396)" overflow="visible"/>
</g>
<g id="dots_x5F_4">
	
		<use xlink:href="#dots_x5F_4_1_"  width="417" height="417" id="XMLID_3_" x="-208.5" y="-208.5" transform="matrix(1.2911 0 0 -1.2911 306 396)" overflow="visible"/>
</g>
<g id="dots_x5F_4_x5F_off" display="none">
	<g display="inline">
		
			<circle fill="none" stroke="#231F20" stroke-width="2" stroke-miterlimit="10" stroke-dasharray="2.0059,8.0235" cx="306" cy="396" r="267.9"/>
	</g>
</g>
<g id="circleOut_x5F_3_x5F_off" display="none">
	
		<circle display="inline" opacity="0.5" fill="none" stroke="#231F20" stroke-width="4" stroke-miterlimit="10" enable-background="new    " cx="306" cy="396" r="278.9"/>
</g>
<g id="circle_x5F_2">
	
		<use xlink:href="#circle_x5F_2_1_"  width="442" height="442" id="XMLID_2_" x="-221" y="-221" transform="matrix(1.2911 0 0 -1.2911 304.7089 394.7089)" overflow="visible"/>
</g>
<g id="circleOut_x5F_1_x5F_off" display="none">
	
		<circle display="inline" opacity="0.5" fill="none" stroke="#231F20" stroke-width="4" stroke-miterlimit="10" enable-background="new    " cx="306" cy="396" r="289.2"/>
</g>
<g id="middle_x5F_stick">
	
		<use xlink:href="#middle_x5F_stick_1_"  width="37.2" height="467" id="XMLID_1_" x="-18.6" y="-233.5" transform="matrix(1.2877 0 0 -1.2877 306.0645 395.2408)" overflow="visible"/>
</g>
</svg>
