<?xml version="1.0" encoding="utf-8"?>
<!-- Generator: Adobe Illustrator 18.1.1, SVG Export Plug-In . SVG Version: 6.00 Build 0)  -->
<svg version="1.1" id="Layer_1" xmlns="http://www.w3.org/2000/svg" xmlns:xlink="http://www.w3.org/1999/xlink" x="0px" y="0px"
	 viewBox="0 0 612 792" enable-background="new 0 0 612 792" xml:space="preserve">
<g>
	<g>
		<path fill="#FF1F71" d="M338.6,449.7c0.1-0.4,0.3-0.8,0.5-1.1c0.2-0.3,0.5-0.7,0.9-0.9c0.3-0.3,0.7-0.5,1.1-0.6
			c0.4-0.2,0.8-0.2,1.2-0.2l7.5,0l0.8-3l-9.5,0l0.8-2.9l9.5,0c0.4,0,0.8,0.1,1.1,0.2c0.3,0.2,0.6,0.4,0.8,0.6
			c0.2,0.3,0.3,0.6,0.4,0.9c0.1,0.4,0,0.7-0.1,1.1l-3.5,12.8l-2.9,0l0.7-2.7c-0.1,0.4-0.3,0.7-0.6,1c-0.3,0.3-0.5,0.6-0.9,0.8
			c-0.3,0.2-0.7,0.4-1,0.6c-0.4,0.1-0.7,0.2-1.1,0.2l-4.6,0c-0.4,0-0.7-0.1-1.1-0.2c-0.3-0.2-0.6-0.4-0.8-0.6
			c-0.2-0.3-0.3-0.6-0.4-0.9c-0.1-0.4,0-0.7,0.1-1.1L338.6,449.7z M340.4,453.7l7.5,0l1.1-4l-7.5,0L340.4,453.7z"/>
		<path fill="#FF1F71" d="M358.6,443.7l-2.7,9.9l7.5,0l0.7-2.7l2.9,0l-0.7,2.7c-0.1,0.4-0.3,0.8-0.5,1.1c-0.2,0.4-0.5,0.7-0.9,0.9
			c-0.3,0.3-0.7,0.5-1.1,0.6s-0.8,0.2-1.2,0.2l-7.5,0c-0.4,0-0.7-0.1-1.1-0.2c-0.3-0.2-0.6-0.4-0.8-0.6c-0.2-0.3-0.3-0.6-0.4-0.9
			c-0.1-0.4,0-0.7,0.1-1.1l2.7-9.9c0.1-0.4,0.3-0.8,0.5-1.1c0.2-0.4,0.5-0.7,0.9-0.9c0.3-0.3,0.7-0.5,1.1-0.6
			c0.4-0.2,0.8-0.2,1.2-0.2l7.5,0c0.4,0,0.8,0.1,1.1,0.2s0.6,0.4,0.8,0.6s0.3,0.6,0.4,0.9c0.1,0.4,0,0.7-0.1,1.1l-0.7,2.7l-2.9,0
			l0.7-2.7L358.6,443.7z"/>
		<path fill="#FF1F71" d="M369.7,449.7c0.1-0.4,0.3-0.8,0.5-1.1c0.2-0.4,0.5-0.7,0.9-0.9c0.3-0.3,0.7-0.5,1.1-0.6
			c0.4-0.2,0.8-0.2,1.2-0.2l7.5,0l0.8-3l-9.5,0l0.8-2.9l9.5,0c0.4,0,0.8,0.1,1.1,0.2c0.3,0.2,0.6,0.4,0.8,0.6
			c0.2,0.3,0.3,0.6,0.4,0.9c0.1,0.4,0,0.7-0.1,1.1l-3.5,12.8l-2.9,0l0.7-2.7c-0.1,0.4-0.3,0.7-0.6,1c-0.3,0.3-0.5,0.6-0.9,0.9
			c-0.3,0.2-0.7,0.4-1,0.6c-0.4,0.1-0.7,0.2-1.1,0.2l-4.6,0c-0.4,0-0.7-0.1-1.1-0.2c-0.3-0.2-0.6-0.4-0.8-0.6
			c-0.2-0.3-0.3-0.6-0.4-0.9c-0.1-0.4,0-0.7,0.1-1.1L369.7,449.7z M371.5,453.7l7.5,0l1.1-4l-7.5,0L371.5,453.7z"/>
		<path fill="#FF1F71" d="M386.8,443.8c0.1-0.4,0.3-0.8,0.5-1.1c0.2-0.4,0.5-0.7,0.9-0.9c0.3-0.3,0.7-0.5,1.1-0.6
			c0.4-0.2,0.8-0.2,1.2-0.2l8.1,0l1.6-6.1l2.9,0l-5.9,21.8l-2.9,0l0.7-2.7c-0.1,0.4-0.3,0.7-0.6,1c-0.3,0.3-0.5,0.6-0.9,0.9
			c-0.3,0.2-0.7,0.4-1,0.6c-0.4,0.1-0.7,0.2-1.1,0.2l-5.2,0c-0.4,0-0.7-0.1-1.1-0.2c-0.3-0.2-0.6-0.4-0.8-0.6
			c-0.2-0.3-0.3-0.6-0.4-0.9c-0.1-0.4,0-0.7,0.1-1.1L386.8,443.8z M387,453.7l8.1,0l2.7-9.9l-8.1,0L387,453.7z"/>
		<path fill="#FF1F71" d="M414.5,450.2l-10.4,0l-0.9,3.5l10.4,0l-0.8,2.9l-10.4,0c-0.4,0-0.7-0.1-1.1-0.2c-0.3-0.2-0.6-0.4-0.8-0.6
			c-0.2-0.3-0.3-0.6-0.4-0.9c-0.1-0.4,0-0.7,0.1-1.1l2.7-9.9c0.1-0.4,0.3-0.8,0.5-1.1c0.2-0.4,0.5-0.7,0.9-0.9
			c0.3-0.3,0.7-0.5,1.1-0.6c0.4-0.2,0.8-0.2,1.2-0.2l7.5,0c0.4,0,0.8,0.1,1.1,0.2c0.3,0.2,0.6,0.4,0.8,0.6c0.2,0.3,0.3,0.6,0.4,0.9
			c0.1,0.4,0,0.7-0.1,1.1L414.5,450.2z M405.8,443.8l-1,3.5l7.5,0l1-3.5L405.8,443.8z"/>
		<path fill="#FF1F71" d="M430.9,443.8l-3.5,12.8l-2.9,0l3.5-12.8l-6.7,0l-3.5,12.8l-2.9,0l4.2-15.8l2.9,0l-0.7,2.8
			c0.1-0.4,0.3-0.7,0.6-1.1c0.2-0.3,0.5-0.6,0.9-0.9c0.3-0.3,0.7-0.4,1.1-0.6c0.4-0.1,0.8-0.2,1.2-0.2l3.8,0c0.4,0,0.7,0.1,1,0.2
			c0.3,0.1,0.6,0.3,0.8,0.6c0.2,0.3,0.3,0.5,0.4,0.9c0.1,0.3,0.1,0.7,0,1.1c0.1-0.4,0.3-0.7,0.6-1.1c0.2-0.3,0.5-0.6,0.9-0.9
			c0.3-0.3,0.7-0.4,1.1-0.6c0.4-0.1,0.8-0.2,1.2-0.2l3.8,0c0.4,0,0.8,0.1,1.1,0.2c0.3,0.2,0.6,0.4,0.8,0.6c0.2,0.3,0.3,0.6,0.4,0.9
			c0.1,0.4,0,0.7-0.1,1.1l-3.5,12.8l-2.9,0l3.5-12.8L430.9,443.8z"/>
		<path fill="#FF1F71" d="M438.6,463l5.4-7.8l-2.3-14.3l3.1,0l1.7,10.9l7.5-10.8l3.1,0L441.5,463L438.6,463z"/>
	</g>
	<g>
		<g>
			<circle fill="#FF1F71" cx="223.2" cy="343.7" r="6.1"/>
		</g>
		<g>
			<path fill="#FF1F71" d="M223.3,358.6C223.3,358.6,223.3,358.6,223.3,358.6c-1.2,0-2.4-0.2-3.6-0.4c-3.9-1-7.1-3.4-9.2-6.8
				c-2.1-3.4-2.7-7.4-1.7-11.3c1.7-6.7,7.6-11.3,14.5-11.3c1.2,0,2.4,0.1,3.6,0.4c8,2,12.9,10.1,10.9,18.1
				C236.1,353.9,230.1,358.6,223.3,358.6z M223.2,331.7c-5.5,0-10.2,3.7-11.6,9c-0.8,3.1-0.3,6.3,1.3,9c1.6,2.7,4.2,4.7,7.3,5.4
				c1,0.2,1.9,0.4,2.9,0.4c0,0,0,0,0,0c5.5,0,10.2-3.7,11.6-9c1.6-6.4-2.3-12.9-8.7-14.5C225.2,331.8,224.2,331.7,223.2,331.7z"/>
		</g>
		<g>
			<path fill="#FF1F71" d="M194.5,471.4C194.5,471.4,194.5,471.4,194.5,471.4c-1,0-2.1-0.1-3.1-0.4c-6.8-1.7-11-8.6-9.3-15.4
				c1.4-5.7,6.5-9.6,12.3-9.6c1,0,2.1,0.1,3.1,0.4c6.8,1.7,11,8.6,9.3,15.4C205.4,467.5,200.4,471.4,194.5,471.4z M194.5,449
				c-4.5,0-8.3,3-9.4,7.4c-1.3,5.2,1.9,10.5,7.1,11.8c0.8,0.2,1.6,0.3,2.4,0.3c4.5,0,8.3-3,9.4-7.4c1.3-5.2-1.9-10.5-7.1-11.8
				C196.1,449.1,195.3,449,194.5,449z"/>
		</g>
		<g>
			<path fill="#FF1F71" d="M204.5,400.1c0.6-2.5,3.2-4.1,5.7-3.4c2.5,0.6,4.1,3.2,3.4,5.7c-0.6,2.5-3.2,4.1-5.7,3.4
				C205.4,405.2,203.8,402.6,204.5,400.1z"/>
		</g>
		<g>
			<path fill="#FF1F71" d="M209.1,414c-1,0-2.1-0.1-3.1-0.4c-3.3-0.8-6.1-2.9-7.8-5.8c-1.8-2.9-2.3-6.3-1.4-9.6
				c1.4-5.7,6.5-9.7,12.4-9.7c1,0,2.1,0.1,3.1,0.4c6.8,1.7,11,8.6,9.3,15.5C220,410,214.9,414,209.1,414z M209.1,391.5
				c-4.5,0-8.4,3-9.4,7.4c-0.6,2.5-0.2,5.1,1.1,7.4c1.3,2.2,3.5,3.8,6,4.4c0.8,0.2,1.6,0.3,2.4,0.3c4.5,0,8.4-3,9.4-7.4
				c1.3-5.2-1.9-10.5-7.1-11.8C210.6,391.6,209.9,391.5,209.1,391.5z"/>
		</g>
		<g>
			<path fill="#FF1F71" d="M257.8,445c0.8-3.3-1.2-6.6-4.4-7.4c-3.3-0.8-6.6,1.2-7.4,4.4c-0.8,3.3,1.2,6.6,4.5,7.4
				C253.7,450.2,257,448.2,257.8,445z"/>
		</g>
		<g>
			<circle fill="#FF1F71" cx="166.6" cy="360.5" r="6.1"/>
		</g>
		<g>
			<path fill="#FF1F71" d="M200.4,460.2c0.8-3.3-1.2-6.6-4.4-7.4c-3.3-0.8-6.6,1.2-7.4,4.4c-0.8,3.3,1.2,6.6,4.4,7.4
				C196.3,465.5,199.6,463.5,200.4,460.2z"/>
		</g>
		<g>
			<polygon fill="#FF1F71" points="185.2,452.9 149.6,418.4 164.6,358.1 224.4,341 269.1,384.2 254.4,443.1 249.5,441.9 
				263.6,385.8 223,346.6 168.8,362.1 155.1,416.8 188.7,449.3 			"/>
		</g>
		<g>
			<path fill="#FF1F71" d="M180.2,374.6c-0.4,0-0.8-0.1-1-0.4l-13.5-13c-0.4-0.4-0.5-0.9-0.4-1.4c0.1-0.5,0.5-0.9,1-1.1l57-16.3
				c0.5-0.1,1.1,0,1.5,0.4c0.4,0.4,0.5,0.9,0.4,1.4l-4.5,18.2c-0.1,0.5-0.5,0.9-1,1.1l-39,11.2C180.5,374.6,180.3,374.6,180.2,374.6
				z M169.6,360.8l11,10.6l37.3-10.7l3.7-14.9L169.6,360.8z"/>
		</g>
		<g>
			<path fill="#FF1F71" d="M248.3,391.6c-0.4,0-0.8-0.1-1-0.4l-29.1-28.2c-0.4-0.4-0.5-0.9-0.4-1.4l4.5-18.2c0.1-0.5,0.5-0.9,1-1.1
				c0.5-0.1,1.1,0,1.5,0.4l42.6,41.2c0.4,0.4,0.5,0.9,0.4,1.4c-0.1,0.5-0.5,0.9-1,1.1l-18,5.2C248.6,391.6,248.4,391.6,248.3,391.6z
				 M220.8,361.5l27.9,27l14.7-4.2l-38.9-37.6L220.8,361.5z"/>
		</g>
		<g>
			<path fill="#FF1F71" d="M197.7,449.5c-0.1,0-0.2,0-0.4,0c-0.8-0.2-1.3-1-1.1-1.8l1.8-7.3c0.1-0.5,0.5-0.9,1-1.1l39-11.2
				c0.5-0.1,1.1,0,1.5,0.4l13.5,13c0.6,0.6,0.6,1.5,0,2.1c-0.6,0.6-1.5,0.6-2.1,0l-12.9-12.4l-37.3,10.7l-1.6,6.5
				C199,449,198.4,449.5,197.7,449.5z"/>
		</g>
		<g>
			<path fill="#FF1F71" d="M205.4,455.9"/>
		</g>
		<g>
			
				<rect x="226.2" y="424.9" transform="matrix(0.2752 0.9614 -0.9614 0.2752 597.5742 105.7221)" fill="#FF1F71" width="5" height="48.5"/>
		</g>
		<g>
			<path fill="#FF1F71" d="M185.6,451.8l-34.3-33.1c-0.4-0.4-0.5-0.9-0.4-1.4c0.1-0.5,0.5-0.9,1-1.1l18-5.2c0.5-0.1,1.1,0,1.5,0.4
				l29.1,28.2c0.4,0.4,0.5,0.9,0.4,1.4l-1.8,7.3l-2.9-0.7l1.6-6.5l-27.9-27l-14.7,4.2l32.4,31.3L185.6,451.8z"/>
		</g>
		<g>
			
				<rect x="214" y="361.5" transform="matrix(0.9678 0.2516 -0.2516 0.9678 101.59 -42.1159)" fill="#FF1F71" width="3" height="29.3"/>
		</g>
		<g>
			<path fill="#FF1F71" d="M249.1,444.2"/>
		</g>
		<g>
			<path fill="#FF1F71" d="M209.2,428.1c-9.6,0-18.4-5.1-23.2-13.4c-7.3-12.8-2.9-29.1,9.9-36.4c4-2.3,8.6-3.5,13.2-3.5
				c9.6,0,18.4,5.1,23.2,13.4c7.3,12.8,2.9,29.1-9.9,36.4C218.4,426.9,213.8,428.1,209.2,428.1z M209.1,378.7c-3.9,0-7.8,1-11.3,3
				c-10.9,6.2-14.6,20.1-8.4,31c4,7,11.6,11.4,19.7,11.4c3.9,0,7.8-1,11.3-3c10.9-6.2,14.6-20.1,8.4-31
				C224.8,383.1,217.3,378.7,209.1,378.7z"/>
		</g>
	</g>
</g>
<g>
	<path fill="#FF1F71" d="M282.7,385.9H277l10.7-39.9h5.7l15.7,31l8.3-31h5.7l-10.7,39.9h-5.7l-15.7-31L282.7,385.9z"/>
	<path fill="#FF1F71" d="M325,356.2h5.5l-6.5,24.2h15.3l6.5-24.2h5.5l-8,29.7h-5.5l1.3-5c-0.2,0.7-0.6,1.3-1.1,2
		c-0.5,0.6-1,1.1-1.6,1.6c-0.6,0.5-1.3,0.8-2,1.1c-0.7,0.3-1.4,0.4-2.1,0.4h-9.8c-0.7,0-1.4-0.1-2-0.4c-0.6-0.3-1.1-0.7-1.4-1.2
		c-0.4-0.5-0.6-1.1-0.7-1.7c-0.1-0.7-0.1-1.4,0.1-2.1L325,356.2z"/>
	<path fill="#FF1F71" d="M363.9,344.8l-11,41.1h-5.5l11-41.1H363.9z"/>
	<path fill="#FF1F71" d="M373.5,344.8l-11,41.1H357l11-41.1H373.5z"/>
	<path fill="#FF1F71" d="M300,427.8c-0.2,0.8-0.6,1.5-1,2.2c-0.5,0.7-1.1,1.3-1.7,1.8c-0.7,0.5-1.4,0.9-2.2,1.2s-1.6,0.4-2.3,0.4
		H272l-4.8,5.7h-4.5l5.1-6.1c-0.4-0.2-0.8-0.5-1.2-0.9c-0.3-0.4-0.6-0.8-0.8-1.2c-0.2-0.5-0.3-1-0.3-1.5c0-0.5,0-1.1,0.2-1.7
		l7.6-28.5c0.2-0.8,0.6-1.5,1-2.2s1.1-1.3,1.7-1.8c0.7-0.5,1.4-0.9,2.2-1.2c0.8-0.3,1.6-0.5,2.3-0.5h20.5l4.8-5.7h4.8l-5.2,6.2
		c0.5,0.2,0.9,0.5,1.2,0.9c0.3,0.4,0.6,0.8,0.8,1.2c0.2,0.5,0.3,0.9,0.3,1.5c0,0.5,0,1.1-0.2,1.7L300,427.8z M271.5,427.8h0.8
		l24-28.5h-17.2L271.5,427.8z M301,399.3l-24.1,28.5h17.4l7.6-28.5H301z"/>
	<path fill="#FF1F71" d="M330.8,428c-0.2,0.8-0.5,1.5-1,2.1c-0.5,0.7-1,1.2-1.6,1.7c-0.6,0.5-1.3,0.9-2.1,1.2
		c-0.7,0.3-1.5,0.4-2.3,0.4h-15.3c-0.7,0-1.4-0.1-2-0.4c-0.6-0.3-1.1-0.7-1.4-1.2c-0.4-0.5-0.6-1.1-0.7-1.7
		c-0.1-0.7-0.1-1.4,0.1-2.1l9.5-35.6h5.5l-4.5,16.7c0.2-0.7,0.6-1.4,1.1-2c0.5-0.6,1-1.2,1.6-1.7c0.6-0.5,1.3-0.8,2-1.1
		c0.7-0.3,1.5-0.4,2.2-0.4h9.8c0.8,0,1.4,0.1,2,0.4c0.6,0.3,1.1,0.7,1.4,1.2s0.6,1.1,0.7,1.7c0.1,0.7,0.1,1.4-0.1,2.1L330.8,428z
		 M315.1,409.3l-5,18.7h15.3l5-18.7H315.1z"/>
	<path fill="#FF1F71" d="M332,440l9.7-36.2h5.5l-9.7,36.2c-0.2,0.8-0.5,1.5-1,2.1c-0.5,0.7-1,1.2-1.6,1.7s-1.3,0.9-2.1,1.2
		c-0.7,0.3-1.5,0.4-2.3,0.4h-4.3l1.5-5.5H332z M344.5,392.4h6l-1.5,5.7h-6L344.5,392.4z"/>
	<path fill="#FF1F71" d="M372,421.5h-19.6l-1.8,6.5h19.6l-1.5,5.5h-19.6c-0.7,0-1.4-0.1-2-0.4c-0.6-0.3-1.1-0.7-1.4-1.2
		s-0.6-1.1-0.7-1.7c-0.1-0.7-0.1-1.4,0.1-2.1l5-18.7c0.2-0.8,0.5-1.5,1-2.1c0.5-0.7,1-1.2,1.6-1.7c0.6-0.5,1.3-0.9,2.1-1.2
		c0.7-0.3,1.5-0.4,2.2-0.4h14.2c0.8,0,1.4,0.1,2,0.4c0.6,0.3,1.1,0.7,1.4,1.2c0.4,0.5,0.6,1.1,0.7,1.7c0.1,0.7,0.1,1.4-0.1,2.1
		L372,421.5z M355.6,409.3l-1.8,6.7H368l1.8-6.7H355.6z"/>
	<path fill="#FF1F71" d="M384.8,409.3l-5,18.7H394l1.3-5h5.5l-1.3,5c-0.2,0.8-0.5,1.5-1,2.1s-1,1.2-1.6,1.7
		c-0.6,0.5-1.3,0.9-2.1,1.2c-0.7,0.3-1.5,0.4-2.3,0.4h-14.2c-0.7,0-1.4-0.1-2-0.4c-0.6-0.3-1.1-0.7-1.4-1.2s-0.6-1.1-0.7-1.7
		c-0.1-0.7-0.1-1.4,0.1-2.1l5-18.7c0.2-0.8,0.5-1.5,1-2.1c0.5-0.7,1-1.2,1.6-1.7c0.6-0.5,1.3-0.9,2.1-1.2c0.7-0.3,1.5-0.4,2.2-0.4
		h14.2c0.8,0,1.4,0.1,2,0.4c0.6,0.3,1.1,0.7,1.4,1.2c0.4,0.5,0.6,1.1,0.7,1.7c0.1,0.7,0.1,1.4-0.1,2.1l-1.3,5h-5.5l1.3-5H384.8z"/>
	<path fill="#FF1F71" d="M408.3,403.8h7.2l2.4-9.1h5.5l-2.4,9.1h9.8l-1.5,5.5h-9.8l-5,18.7h9.8l-1.5,5.5h-9.8c-0.7,0-1.4-0.1-2-0.4
		c-0.6-0.3-1.1-0.7-1.4-1.2c-0.4-0.5-0.6-1.1-0.7-1.7s-0.1-1.4,0.1-2.1l5-18.7h-7.2L408.3,403.8z"/>
</g>
</svg>
