<?xml version="1.0" encoding="utf-8"?>
<!-- Generator: Adobe Illustrator 18.1.1, SVG Export Plug-In . SVG Version: 6.00 Build 0)  -->
<svg version="1.1" id="Layer_1" xmlns="http://www.w3.org/2000/svg" xmlns:xlink="http://www.w3.org/1999/xlink" x="0px" y="0px"
	 viewBox="0 0 612 792" enable-background="new 0 0 612 792" xml:space="preserve">
<g>
	<path fill="#FF1F71" d="M345.8,435.3l-4.9,18.2h10.9l-0.8,3h-13.9l5.7-21.2H345.8z"/>
	<path fill="#FF1F71" d="M353.6,449.6c0.1-0.4,0.3-0.8,0.5-1.1c0.2-0.4,0.5-0.7,0.9-0.9c0.3-0.3,0.7-0.5,1.1-0.6s0.8-0.2,1.2-0.2
		h7.5l0.8-3h-9.5l0.8-2.9h9.5c0.4,0,0.8,0.1,1.1,0.2s0.6,0.4,0.8,0.6s0.3,0.6,0.4,0.9s0,0.7-0.1,1.1l-3.4,12.8h-2.9l0.7-2.7
		c-0.1,0.4-0.3,0.7-0.6,1c-0.3,0.3-0.5,0.6-0.9,0.9s-0.7,0.4-1,0.6c-0.4,0.1-0.7,0.2-1.1,0.2h-4.6c-0.4,0-0.8-0.1-1.1-0.2
		c-0.3-0.2-0.6-0.4-0.8-0.6s-0.3-0.6-0.4-0.9c-0.1-0.4,0-0.7,0.1-1.1L353.6,449.6z M355.4,453.6h7.5l1.1-4h-7.5L355.4,453.6z"/>
	<path fill="#FF1F71" d="M382,453.6c-0.1,0.4-0.3,0.8-0.5,1.1c-0.2,0.4-0.5,0.7-0.9,0.9c-0.3,0.3-0.7,0.5-1.1,0.6
		c-0.4,0.2-0.8,0.2-1.2,0.2h-8.1c-0.4,0-0.7-0.1-1.1-0.2c-0.3-0.2-0.6-0.4-0.8-0.6c-0.2-0.3-0.3-0.6-0.4-0.9c-0.1-0.4,0-0.7,0.1-1.1
		l5.1-18.9h2.9l-2.4,8.9c0.1-0.4,0.3-0.7,0.6-1.1c0.2-0.3,0.5-0.6,0.9-0.9c0.3-0.2,0.7-0.4,1.1-0.6c0.4-0.1,0.8-0.2,1.2-0.2h5.2
		c0.4,0,0.8,0.1,1.1,0.2s0.6,0.4,0.8,0.6c0.2,0.3,0.3,0.6,0.4,0.9s0,0.7-0.1,1.1L382,453.6z M373.6,443.7l-2.7,9.9h8.1l2.7-9.9
		H373.6z"/>
	<path fill="#FF1F71" d="M393.7,453.6l1-3.7h-6.9c-0.4,0-0.8-0.1-1.1-0.2c-0.3-0.2-0.6-0.4-0.8-0.6c-0.2-0.3-0.3-0.6-0.4-0.9
		c-0.1-0.4,0-0.7,0.1-1.1l0.9-3.4c0.1-0.4,0.3-0.8,0.5-1.1s0.5-0.7,0.9-0.9c0.3-0.3,0.7-0.5,1.1-0.6s0.8-0.2,1.2-0.2h9.2l-0.8,2.9
		h-9.2l-0.9,3.4h6.9c0.4,0,0.8,0.1,1.1,0.2c0.3,0.2,0.6,0.4,0.8,0.6c0.2,0.3,0.3,0.6,0.4,0.9c0.1,0.4,0,0.7-0.1,1.1l-1,3.7
		c-0.1,0.4-0.3,0.8-0.5,1.1c-0.2,0.4-0.5,0.7-0.9,0.9s-0.7,0.5-1.1,0.6c-0.4,0.2-0.8,0.2-1.2,0.2h-9.8l0.8-2.9H393.7z"/>
</g>
<g>
	<g>
		<path fill="#FF1F71" d="M220.9,459.4"/>
	</g>
	<g>
		<path fill="#FF1F71" d="M251.4,424.6c3.2,3,3.4,7.9,0.4,11.1c-3,3.2-7.9,3.4-11.1,0.4c-3.2-3-3.4-7.9-0.4-11.1
			C243.3,421.8,248.3,421.6,251.4,424.6z"/>
	</g>
	<g>
		<circle fill="#FF1F71" cx="208.6" cy="304.4" r="7.5"/>
	</g>
	<g>
		<path fill="#FF1F71" d="M211.8,379.2"/>
	</g>
	<g>
		<path fill="#FF1F71" d="M285.7,332.9"/>
	</g>
	<g>
		<path fill="#FF1F71" d="M285.7,332.9"/>
	</g>
	<g>
		<path fill="#FF1F71" d="M211.8,379.2"/>
	</g>
	<g>
		<path fill="#FF1F71" d="M245.7,430"/>
	</g>
	<g>
		
			<rect x="201.5" y="396" transform="matrix(0.5542 0.8324 -0.8324 0.5542 431.8538 -9.409)" fill="#FF1F71" width="46.4" height="5"/>
	</g>
	<g>
		<path fill="#FF1F71" d="M226.4,454.3c-0.3,0-0.7-0.1-1-0.4c-0.6-0.5-0.7-1.5-0.2-2.1l10-11.6c0.5-0.6,1.5-0.7,2.1-0.2
			c0.6,0.5,0.7,1.5,0.2,2.1l-10,11.6C227.2,454.1,226.8,454.3,226.4,454.3z"/>
	</g>
	<g>
		<path fill="#FF1F71" d="M287.2,333.4"/>
	</g>
	<g>
		<path fill="#FF1F71" d="M287.2,333.4"/>
	</g>
	<g>
		<path fill="#FF1F71" d="M211.8,379.2"/>
	</g>
	<g>
		<path fill="#FF1F71" d="M287.2,335.9C287.1,335.9,287.1,335.9,287.2,335.9l-44.6-1.2c-1.4,0-2.5-1.2-2.4-2.6
			c0-1.4,1.1-2.4,2.5-2.4c0,0,0,0,0.1,0l44.6,1.2c1.4,0,2.5,1.2,2.4,2.6C289.6,334.8,288.5,335.9,287.2,335.9z"/>
	</g>
	<g>
		<path fill="#FF1F71" d="M221.6,322.6c-0.4,0-0.9-0.2-1.2-0.6l-13-16.8c-0.5-0.7-0.4-1.6,0.3-2.1c0.7-0.5,1.6-0.4,2.1,0.3l13,16.8
			c0.5,0.7,0.4,1.6-0.3,2.1C222.2,322.5,221.9,322.6,221.6,322.6z"/>
	</g>
	<g>
		<path fill="#FF1F71" d="M228.3,346.5c-6.7,0-12.6-4.7-14-11.3c-0.8-3.8-0.2-7.6,1.9-10.9c2.1-3.2,5.3-5.5,9-6.3
			c1-0.2,2.1-0.3,3.1-0.3c6.7,0,12.6,4.7,14.1,11.3c0.8,3.8,0.2,7.6-1.9,10.9c-2.1,3.2-5.3,5.5-9,6.3
			C230.4,346.4,229.3,346.5,228.3,346.5z M228.3,320.7c-0.8,0-1.7,0.1-2.5,0.3c-3,0.7-5.5,2.4-7.1,5s-2.2,5.6-1.5,8.6
			c1.2,5.2,5.8,8.9,11.1,8.9c0.8,0,1.7-0.1,2.5-0.3c3-0.7,5.5-2.4,7.1-5c1.6-2.6,2.2-5.6,1.5-8.6
			C238.3,324.4,233.6,320.7,228.3,320.7z"/>
	</g>
	<g>
		<path fill="#FF1F71" d="M217.5,373.1c3.4,3.1,3.6,8.4,0.4,11.8c-3.1,3.4-8.4,3.6-11.8,0.4c-3.4-3.1-3.6-8.4-0.4-11.8
			C208.9,370.1,214.2,369.9,217.5,373.1z"/>
	</g>
	<g>
		<path fill="#FF1F71" d="M246.1,446.1C246.1,446.1,246.1,446.1,246.1,446.1c-8.5,0-15.5-6.7-15.8-15.2c-0.2-4.2,1.3-8.2,4.2-11.3
			c2.9-3.1,6.8-4.9,11-5c8.8-0.3,16,6.5,16.3,15.2c0.2,4.2-1.4,8.2-4.2,11.3c-2.9,3.1-6.8,4.9-11,5
			C246.5,446.1,246.3,446.1,246.1,446.1z M246.1,417.6c-0.2,0-0.3,0-0.5,0c-3.4,0.1-6.6,1.6-8.9,4.1s-3.5,5.8-3.4,9.2
			c0.2,6.9,5.9,12.3,12.8,12.3c0,0,0,0,0,0c0.2,0,0.3,0,0.5,0c3.4-0.1,6.6-1.6,8.9-4.1c2.3-2.5,3.5-5.8,3.4-9.2
			C258.6,423,253,417.6,246.1,417.6z"/>
	</g>
	<g>
		<path fill="#FF1F71" d="M285.5,326.1c4-0.9,8,1.6,8.9,5.6c0.9,4-1.6,8-5.6,8.9c-4,0.9-8-1.6-8.9-5.6
			C279,331,281.5,327,285.5,326.1z"/>
	</g>
	<g>
		<path fill="#FF1F71" d="M182.5,390.9c2.3,2.1,2.5,5.7,0.4,8c-2.1,2.3-5.7,2.5-8,0.4c-2.3-2.1-2.5-5.7-0.4-8
			C176.6,389,180.2,388.8,182.5,390.9z"/>
	</g>
	<g>
		
			<rect x="200.1" y="372.9" transform="matrix(0.459 0.8884 -0.8884 0.459 450.6288 28.889)" fill="#FF1F71" width="3" height="23.1"/>
	</g>
	<g>
		<path fill="#FF1F71" d="M178.7,410.7C178.7,410.7,178.7,410.7,178.7,410.7c-3.8,0-7.5-1.4-10.4-4c-6.4-5.7-6.9-15.6-1.2-22
			c3-3.3,7.2-5.2,11.6-5.2c3.8,0,7.5,1.4,10.4,4c3.1,2.8,4.9,6.6,5.2,10.8c0.2,4.2-1.2,8.2-4,11.2
			C187.4,408.8,183.2,410.7,178.7,410.7z M178.7,382.6c-3.6,0-7,1.5-9.4,4.2c-4.6,5.2-4.2,13.1,1,17.8c2.3,2.1,5.3,3.2,8.4,3.2
			c0,0,0,0,0,0c3.6,0,7-1.5,9.4-4.2c2.2-2.5,3.4-5.7,3.2-9.1c-0.2-3.4-1.7-6.4-4.2-8.7C184.8,383.7,181.9,382.6,178.7,382.6z"/>
	</g>
	<g>
		<path fill="#FF1F71" d="M231.3,447.5c2.9,2.7,3.1,7.3,0.4,10.2c-2.7,2.9-7.3,3.1-10.2,0.4c-2.9-2.7-3.1-7.3-0.4-10.2
			C223.8,444.9,228.4,444.8,231.3,447.5z"/>
	</g>
	<g>
		<path fill="#FF1F71" d="M276.7,473c-0.5,0-0.9-0.2-1.2-0.6l-22-29.8c-0.5-0.7-0.3-1.6,0.3-2.1c0.7-0.5,1.6-0.4,2.1,0.3l22,29.8
			c0.5,0.7,0.3,1.6-0.3,2.1C277.3,472.9,277,473,276.7,473z"/>
	</g>
	<g>
		<path fill="#FF1F71" d="M249.5,416.3l-5-0.3l2.7-40.7c0-0.6,0.3-1.1,0.6-1.5l37.4-41.9l3.7,3.3l-36.9,41.3L249.5,416.3z"/>
	</g>
	<g>
		<path fill="#FF1F71" d="M276.7,480.2c-2.1,0-4.2-0.8-5.8-2.2c-1.7-1.5-2.7-3.7-2.9-6c-0.1-2.3,0.7-4.5,2.2-6.3
			c1.6-1.8,4-2.9,6.5-2.9c2.1,0,4.2,0.8,5.8,2.2c3.6,3.2,3.9,8.7,0.7,12.2C281.5,479.1,279.2,480.2,276.7,480.2z M276.7,464.8
			c-1.9,0-3.7,0.8-5,2.2c-1.2,1.3-1.8,3-1.7,4.8c0.1,1.8,0.9,3.4,2.2,4.6c1.2,1.1,2.8,1.7,4.5,1.7c1.9,0,3.7-0.8,5-2.2
			c2.5-2.7,2.2-7-0.5-9.4C279.9,465.4,278.4,464.8,276.7,464.8z"/>
	</g>
	<g>
		<path fill="#FF1F71" d="M226.7,324.7c4-0.9,8.1,1.6,9,5.7c0.9,4.1-1.7,8.1-5.7,9c-4.1,0.9-8.1-1.6-9-5.7
			C220.1,329.6,222.6,325.6,226.7,324.7z"/>
	</g>
	<g>
		<path fill="#FF1F71" d="M279.3,468.8c1.5,1.4,1.6,3.8,0.2,5.3c-1.4,1.5-3.8,1.6-5.3,0.2c-1.5-1.4-1.6-3.8-0.2-5.3
			C275.4,467.4,277.8,467.3,279.3,468.8z"/>
	</g>
	<g>
		<path fill="#FF1F71" d="M211.8,380.7c-0.8,0-1.4-0.6-1.5-1.3c-0.1-0.8,0.5-1.6,1.3-1.6l37.9-3.8c0.8-0.1,1.6,0.5,1.6,1.3
			c0.1,0.8-0.5,1.6-1.3,1.6l-37.9,3.8C211.9,380.7,211.9,380.7,211.8,380.7z"/>
	</g>
	<g>
		<circle fill="#FF1F71" cx="249.7" cy="375.3" r="6.6"/>
	</g>
	<g>
		<path fill="#FF1F71" d="M211.9,380.3c-0.3,0-0.5,0-0.8-0.1c-1.3-0.4-2-1.9-1.6-3.2l10.8-32.5c0.4-1.3,1.9-2,3.2-1.6
			c1.3,0.4,2,1.9,1.6,3.2l-10.8,32.5C214,379.6,213,380.3,211.9,380.3z"/>
	</g>
</g>
<g>
	<path fill="#FF1F71" d="M282.7,385.9H277l10.7-39.9h5.7l15.7,31l8.3-31h5.7l-10.7,39.9h-5.7l-15.7-31L282.7,385.9z"/>
	<path fill="#FF1F71" d="M325,356.2h5.5l-6.5,24.2h15.3l6.5-24.2h5.5l-8,29.7h-5.5l1.3-5c-0.2,0.7-0.6,1.3-1.1,2
		c-0.5,0.6-1,1.1-1.6,1.6c-0.6,0.5-1.3,0.8-2,1.1c-0.7,0.3-1.4,0.4-2.1,0.4h-9.8c-0.7,0-1.4-0.1-2-0.4c-0.6-0.3-1.1-0.7-1.4-1.2
		c-0.4-0.5-0.6-1.1-0.7-1.7c-0.1-0.7-0.1-1.4,0.1-2.1L325,356.2z"/>
	<path fill="#FF1F71" d="M363.9,344.8l-11,41.1h-5.5l11-41.1H363.9z"/>
	<path fill="#FF1F71" d="M373.5,344.8l-11,41.1H357l11-41.1H373.5z"/>
	<path fill="#FF1F71" d="M300,427.8c-0.2,0.8-0.6,1.5-1,2.2c-0.5,0.7-1.1,1.3-1.7,1.8c-0.7,0.5-1.4,0.9-2.2,1.2s-1.6,0.4-2.3,0.4
		H272l-4.8,5.7h-4.5l5.1-6.1c-0.4-0.2-0.8-0.5-1.2-0.9c-0.3-0.4-0.6-0.8-0.8-1.2c-0.2-0.5-0.3-1-0.3-1.5c0-0.5,0-1.1,0.2-1.7
		l7.6-28.5c0.2-0.8,0.6-1.5,1-2.2s1.1-1.3,1.7-1.8c0.7-0.5,1.4-0.9,2.2-1.2c0.8-0.3,1.6-0.5,2.3-0.5h20.5l4.8-5.7h4.8l-5.2,6.2
		c0.5,0.2,0.9,0.5,1.2,0.9c0.3,0.4,0.6,0.8,0.8,1.2c0.2,0.5,0.3,0.9,0.3,1.5c0,0.5,0,1.1-0.2,1.7L300,427.8z M271.5,427.8h0.8
		l24-28.5h-17.2L271.5,427.8z M301,399.3l-24.1,28.5h17.4l7.6-28.5H301z"/>
	<path fill="#FF1F71" d="M330.8,428c-0.2,0.8-0.5,1.5-1,2.1c-0.5,0.7-1,1.2-1.6,1.7c-0.6,0.5-1.3,0.9-2.1,1.2
		c-0.7,0.3-1.5,0.4-2.3,0.4h-15.3c-0.7,0-1.4-0.1-2-0.4c-0.6-0.3-1.1-0.7-1.4-1.2c-0.4-0.5-0.6-1.1-0.7-1.7
		c-0.1-0.7-0.1-1.4,0.1-2.1l9.5-35.6h5.5l-4.5,16.7c0.2-0.7,0.6-1.4,1.1-2c0.5-0.6,1-1.2,1.6-1.7c0.6-0.5,1.3-0.8,2-1.1
		c0.7-0.3,1.5-0.4,2.2-0.4h9.8c0.8,0,1.4,0.1,2,0.4c0.6,0.3,1.1,0.7,1.4,1.2s0.6,1.1,0.7,1.7c0.1,0.7,0.1,1.4-0.1,2.1L330.8,428z
		 M315.1,409.3l-5,18.7h15.3l5-18.7H315.1z"/>
	<path fill="#FF1F71" d="M332,440l9.7-36.2h5.5l-9.7,36.2c-0.2,0.8-0.5,1.5-1,2.1c-0.5,0.7-1,1.2-1.6,1.7s-1.3,0.9-2.1,1.2
		c-0.7,0.3-1.5,0.4-2.3,0.4h-4.3l1.5-5.5H332z M344.5,392.4h6l-1.5,5.7h-6L344.5,392.4z"/>
	<path fill="#FF1F71" d="M372,421.5h-19.6l-1.8,6.5h19.6l-1.5,5.5h-19.6c-0.7,0-1.4-0.1-2-0.4c-0.6-0.3-1.1-0.7-1.4-1.2
		s-0.6-1.1-0.7-1.7c-0.1-0.7-0.1-1.4,0.1-2.1l5-18.7c0.2-0.8,0.5-1.5,1-2.1c0.5-0.7,1-1.2,1.6-1.7c0.6-0.5,1.3-0.9,2.1-1.2
		c0.7-0.3,1.5-0.4,2.2-0.4h14.2c0.8,0,1.4,0.1,2,0.4c0.6,0.3,1.1,0.7,1.4,1.2c0.4,0.5,0.6,1.1,0.7,1.7c0.1,0.7,0.1,1.4-0.1,2.1
		L372,421.5z M355.6,409.3l-1.8,6.7H368l1.8-6.7H355.6z"/>
	<path fill="#FF1F71" d="M384.8,409.3l-5,18.7H394l1.3-5h5.5l-1.3,5c-0.2,0.8-0.5,1.5-1,2.1s-1,1.2-1.6,1.7
		c-0.6,0.5-1.3,0.9-2.1,1.2c-0.7,0.3-1.5,0.4-2.3,0.4h-14.2c-0.7,0-1.4-0.1-2-0.4c-0.6-0.3-1.1-0.7-1.4-1.2s-0.6-1.1-0.7-1.7
		c-0.1-0.7-0.1-1.4,0.1-2.1l5-18.7c0.2-0.8,0.5-1.5,1-2.1c0.5-0.7,1-1.2,1.6-1.7c0.6-0.5,1.3-0.9,2.1-1.2c0.7-0.3,1.5-0.4,2.2-0.4
		h14.2c0.8,0,1.4,0.1,2,0.4c0.6,0.3,1.1,0.7,1.4,1.2c0.4,0.5,0.6,1.1,0.7,1.7c0.1,0.7,0.1,1.4-0.1,2.1l-1.3,5h-5.5l1.3-5H384.8z"/>
	<path fill="#FF1F71" d="M408.3,403.8h7.2l2.4-9.1h5.5l-2.4,9.1h9.8l-1.5,5.5h-9.8l-5,18.7h9.8l-1.5,5.5h-9.8c-0.7,0-1.4-0.1-2-0.4
		c-0.6-0.3-1.1-0.7-1.4-1.2c-0.4-0.5-0.6-1.1-0.7-1.7s-0.1-1.4,0.1-2.1l5-18.7h-7.2L408.3,403.8z"/>
</g>
</svg>
