<?xml version="1.0" encoding="utf-8"?>
<!-- Generator: Adobe Illustrator 18.1.1, SVG Export Plug-In . SVG Version: 6.00 Build 0)  -->
<svg version="1.1" id="Layer_1" xmlns="http://www.w3.org/2000/svg" xmlns:xlink="http://www.w3.org/1999/xlink" x="0px" y="0px"
	 viewBox="0 0 612 792" enable-background="new 0 0 612 792" xml:space="preserve">
<g>
	<g>
	</g>
	<g>
		<path fill="#FF1F71" d="M252.1,452l-4.8-1.2l28.9-113.2l-102.3,59.5l-2.5-4.3l107.5-62.5c0.9-0.5,2-0.4,2.8,0.2
			c0.8,0.6,1.2,1.6,0.9,2.6L252.1,452z"/>
	</g>
	<g>
		<path fill="#FF1F71" d="M222.7,398.7"/>
	</g>
	<g>
		<path fill="#FF1F71" d="M251.1,451.8l-2.9-0.7L277,338.2l-44.5,51.4l-2.3-2l48.6-56.2c0.5-0.5,1.2-0.7,1.8-0.3
			c0.6,0.3,0.9,1,0.8,1.7L251.1,451.8z"/>
	</g>
	<g>
		
			<rect x="215.8" y="429.2" transform="matrix(0.4554 0.8903 -0.8903 0.4554 513.6907 21.7614)" fill="#FF1F71" width="46.4" height="3"/>
	</g>
	<g>
		<path fill="#FF1F71" d="M207.2,398.7c0,0-0.1,0-0.1,0l-23.7-2.3c-0.8-0.1-1.4-0.8-1.3-1.6c0.1-0.8,0.8-1.4,1.6-1.3l23.7,2.3
			c0.8,0.1,1.4,0.8,1.3,1.6C208.6,398.1,208,398.7,207.2,398.7z"/>
	</g>
	<g>
		<path fill="#FF1F71" d="M222.3,413.1C222.3,413.1,222.3,413.1,222.3,413.1c-6.8,0-12.8-4.6-14.6-11.2c-1.1-3.9-0.5-8,1.5-11.5
			c2-3.5,5.3-6,9.2-7.1c1.3-0.4,2.6-0.5,4-0.5c6.8,0,12.8,4.6,14.6,11.2c2.2,8.1-2.6,16.4-10.7,18.6
			C224.9,412.9,223.6,413.1,222.3,413.1z M222.3,385.8c-1.1,0-2.1,0.1-3.2,0.4c-3.1,0.8-5.7,2.9-7.4,5.7c-1.6,2.8-2,6.1-1.2,9.2
			c1.4,5.3,6.2,9,11.7,9c0,0,0,0,0,0c1.1,0,2.1-0.1,3.2-0.4c6.5-1.7,10.3-8.4,8.5-14.9C232.6,389.5,227.7,385.8,222.3,385.8z"/>
	</g>
	<g>
		<path fill="#FF1F71" d="M215.2,399.8c-1-3.8,1.2-7.7,5-8.7c3.8-1,7.7,1.2,8.7,5c1,3.8-1.2,7.7-5,8.7
			C220.1,405.8,216.2,403.6,215.2,399.8z"/>
	</g>
	<g>
		<path fill="#FF1F71" d="M269.1,338.9c-1.2-4.3,1.4-8.8,5.7-10c4.3-1.2,8.8,1.4,10,5.7c1.2,4.3-1.4,8.8-5.7,10
			C274.7,345.8,270.3,343.2,269.1,338.9z"/>
	</g>
	<g>
		<circle fill="#FF1F71" cx="249.6" cy="450.4" r="7.1"/>
	</g>
	<g>
		<path fill="#FF1F71" d="M163.8,397.8c-1.6-5.9,1.9-12,7.8-13.6c5.9-1.6,12,1.9,13.6,7.8c1.6,5.9-1.9,12-7.8,13.6
			C171.5,407.3,165.4,403.7,163.8,397.8z"/>
	</g>
	<g>
		<g>
			<circle fill="#FF1F71" cx="285.4" cy="451.4" r="5.4"/>
		</g>
		<g>
			<line fill="#FF1F71" x1="249.6" y1="451.4" x2="273.4" y2="451.4"/>
			<path fill="#FF1F71" d="M249.6,452.9c-0.8,0-1.5-0.7-1.5-1.5s0.7-1.5,1.5-1.5l23.8,0c0.8,0,1.5,0.7,1.5,1.5s-0.7,1.5-1.5,1.5
				L249.6,452.9z"/>
		</g>
		<g>
			<path fill="#FF1F71" d="M285.4,464.8C285.4,464.8,285.4,464.8,285.4,464.8c-6.1,0-11.4-4.1-13-9.9c-0.9-3.5-0.5-7.1,1.3-10.2
				c1.8-3.1,4.7-5.3,8.1-6.3c1.2-0.3,2.3-0.5,3.5-0.5c6.1,0,11.4,4.1,13,9.9c1.9,7.2-2.3,14.6-9.5,16.5
				C287.7,464.7,286.6,464.8,285.4,464.8z M285.4,441c-0.9,0-1.8,0.1-2.7,0.4c-2.7,0.7-4.9,2.5-6.3,4.9c-1.4,2.4-1.8,5.2-1,7.9
				c1.2,4.5,5.4,7.7,10.1,7.7h0c0.9,0,1.8-0.1,2.7-0.4c5.6-1.5,8.9-7.2,7.4-12.8C294.2,444.1,290.1,441,285.4,441z"/>
		</g>
	</g>
	<g>
		<path fill="#FF1F71" d="M282.7,385.9H277l10.7-39.9h5.7l15.7,31l8.3-31h5.7l-10.7,39.9h-5.7l-15.7-31L282.7,385.9z"/>
		<path fill="#FF1F71" d="M325,356.2h5.5l-6.5,24.2h15.3l6.5-24.2h5.5l-8,29.7h-5.5l1.3-5c-0.2,0.7-0.6,1.3-1.1,2
			c-0.5,0.6-1,1.1-1.6,1.6c-0.6,0.5-1.3,0.8-2,1.1c-0.7,0.3-1.4,0.4-2.1,0.4h-9.8c-0.7,0-1.4-0.1-2-0.4c-0.6-0.3-1.1-0.7-1.4-1.2
			c-0.4-0.5-0.6-1.1-0.7-1.7c-0.1-0.7-0.1-1.4,0.1-2.1L325,356.2z"/>
		<path fill="#FF1F71" d="M363.9,344.8l-11,41.1h-5.5l11-41.1H363.9z"/>
		<path fill="#FF1F71" d="M373.5,344.8l-11,41.1H357l11-41.1H373.5z"/>
		<path fill="#FF1F71" d="M300,427.8c-0.2,0.8-0.6,1.5-1,2.2c-0.5,0.7-1.1,1.3-1.7,1.8c-0.7,0.5-1.4,0.9-2.2,1.2s-1.6,0.4-2.3,0.4
			H272l-4.8,5.7h-4.5l5.1-6.1c-0.4-0.2-0.8-0.5-1.2-0.9c-0.3-0.4-0.6-0.8-0.8-1.2c-0.2-0.5-0.3-1-0.3-1.5c0-0.5,0-1.1,0.2-1.7
			l7.6-28.5c0.2-0.8,0.6-1.5,1-2.2s1.1-1.3,1.7-1.8c0.7-0.5,1.4-0.9,2.2-1.2c0.8-0.3,1.6-0.5,2.3-0.5h20.5l4.8-5.7h4.8l-5.2,6.2
			c0.5,0.2,0.9,0.5,1.2,0.9c0.3,0.4,0.6,0.8,0.8,1.2c0.2,0.5,0.3,0.9,0.3,1.5c0,0.5,0,1.1-0.2,1.7L300,427.8z M271.5,427.8h0.8
			l24-28.5h-17.2L271.5,427.8z M301,399.3l-24.1,28.5h17.4l7.6-28.5H301z"/>
		<path fill="#FF1F71" d="M330.8,428c-0.2,0.8-0.5,1.5-1,2.1c-0.5,0.7-1,1.2-1.6,1.7c-0.6,0.5-1.3,0.9-2.1,1.2
			c-0.7,0.3-1.5,0.4-2.3,0.4h-15.3c-0.7,0-1.4-0.1-2-0.4c-0.6-0.3-1.1-0.7-1.4-1.2c-0.4-0.5-0.6-1.1-0.7-1.7
			c-0.1-0.7-0.1-1.4,0.1-2.1l9.5-35.6h5.5l-4.5,16.7c0.2-0.7,0.6-1.4,1.1-2c0.5-0.6,1-1.2,1.6-1.7c0.6-0.5,1.3-0.8,2-1.1
			c0.7-0.3,1.5-0.4,2.2-0.4h9.8c0.8,0,1.4,0.1,2,0.4c0.6,0.3,1.1,0.7,1.4,1.2s0.6,1.1,0.7,1.7c0.1,0.7,0.1,1.4-0.1,2.1L330.8,428z
			 M315.1,409.3l-5,18.7h15.3l5-18.7H315.1z"/>
		<path fill="#FF1F71" d="M332,440l9.7-36.2h5.5l-9.7,36.2c-0.2,0.8-0.5,1.5-1,2.1c-0.5,0.7-1,1.2-1.6,1.7s-1.3,0.9-2.1,1.2
			c-0.7,0.3-1.5,0.4-2.3,0.4h-4.3l1.5-5.5H332z M344.5,392.4h6l-1.5,5.7h-6L344.5,392.4z"/>
		<path fill="#FF1F71" d="M372,421.5h-19.6l-1.8,6.5h19.6l-1.5,5.5h-19.6c-0.7,0-1.4-0.1-2-0.4c-0.6-0.3-1.1-0.7-1.4-1.2
			s-0.6-1.1-0.7-1.7c-0.1-0.7-0.1-1.4,0.1-2.1l5-18.7c0.2-0.8,0.5-1.5,1-2.1c0.5-0.7,1-1.2,1.6-1.7c0.6-0.5,1.3-0.9,2.1-1.2
			c0.7-0.3,1.5-0.4,2.2-0.4h14.2c0.8,0,1.4,0.1,2,0.4c0.6,0.3,1.1,0.7,1.4,1.2c0.4,0.5,0.6,1.1,0.7,1.7c0.1,0.7,0.1,1.4-0.1,2.1
			L372,421.5z M355.6,409.3l-1.8,6.7H368l1.8-6.7H355.6z"/>
		<path fill="#FF1F71" d="M384.8,409.3l-5,18.7H394l1.3-5h5.5l-1.3,5c-0.2,0.8-0.5,1.5-1,2.1s-1,1.2-1.6,1.7
			c-0.6,0.5-1.3,0.9-2.1,1.2c-0.7,0.3-1.5,0.4-2.3,0.4h-14.2c-0.7,0-1.4-0.1-2-0.4c-0.6-0.3-1.1-0.7-1.4-1.2s-0.6-1.1-0.7-1.7
			c-0.1-0.7-0.1-1.4,0.1-2.1l5-18.7c0.2-0.8,0.5-1.5,1-2.1c0.5-0.7,1-1.2,1.6-1.7c0.6-0.5,1.3-0.9,2.1-1.2c0.7-0.3,1.5-0.4,2.2-0.4
			h14.2c0.8,0,1.4,0.1,2,0.4c0.6,0.3,1.1,0.7,1.4,1.2c0.4,0.5,0.6,1.1,0.7,1.7c0.1,0.7,0.1,1.4-0.1,2.1l-1.3,5h-5.5l1.3-5H384.8z"/>
		<path fill="#FF1F71" d="M408.3,403.8h7.2l2.4-9.1h5.5l-2.4,9.1h9.8l-1.5,5.5h-9.8l-5,18.7h9.8l-1.5,5.5h-9.8c-0.7,0-1.4-0.1-2-0.4
			c-0.6-0.3-1.1-0.7-1.4-1.2c-0.4-0.5-0.6-1.1-0.7-1.7s-0.1-1.4,0.1-2.1l5-18.7h-7.2L408.3,403.8z"/>
	</g>
	<g>
		<path fill="#FF1F71" d="M176.5,406.9"/>
	</g>
	<g>
		<path fill="#FF1F71" d="M176.5,408.6"/>
	</g>
	<g>
		
			<rect x="163.3" y="420.7" transform="matrix(0.8066 0.5911 -0.5911 0.8066 290.9575 -42.9321)" fill="#FF1F71" width="95.6" height="5"/>
	</g>
	<g>
		<path fill="#FF1F71" d="M229.6,399"/>
	</g>
</g>
</svg>
