<?xml version="1.0" encoding="utf-8"?>
<!-- Generator: Adobe Illustrator 18.1.1, SVG Export Plug-In . SVG Version: 6.00 Build 0)  -->
<svg version="1.1" id="Layer_1" xmlns="http://www.w3.org/2000/svg" xmlns:xlink="http://www.w3.org/1999/xlink" x="0px" y="0px"
	 viewBox="0 0 214.5 98" enable-background="new 0 0 214.5 98" xml:space="preserve">
<g>
	<polygon fill="#FF3366" points="0,0 -0.5,98 155,98 183,0 	"/>
	<polygon points="183,0 155,98 214.5,98 214.5,0 	"/>
</g>
<g>
	<circle fill="#FFFFFF" cx="53.4" cy="49.5" r="3.1"/>
	<circle fill="#FFFFFF" cx="81.1" cy="72.9" r="2.4"/>
	<path fill="#FFFFFF" d="M81.1,67c-0.5,0-1,0.1-1.5,0.2C78,67.6,76.8,68.6,76,70c-0.4,0.7-0.7,1.5-0.7,2.3h-6.7c0-0.2,0-0.4-0.1-0.6
		c-0.2-0.7-0.6-1.3-1.1-1.7l11.2-43.8c1.8-0.6,2.8-2.5,2.3-4.3c-0.5-1.9-2.5-3-4.4-2.5C75,19.7,74,21,73.9,22.5l-38,22.1
		c-1.2-1-2.9-1.5-4.5-1.1c-2.6,0.7-4.1,3.4-3.4,6c0.7,2.6,3.4,4.1,6,3.4c0.5-0.1,1-0.4,1.5-0.7l27,19.8c-0.1,0.4,0,0.8,0.1,1.3
		c0.4,1.7,2.2,2.6,3.8,2.2c1-0.3,1.8-1,2.1-1.9l6.9,0c0,0.3,0.1,0.6,0.2,0.9c0.7,2.6,3,4.3,5.7,4.3l0,0c0.5,0,1-0.1,1.5-0.2
		c3.1-0.8,5-4.1,4.1-7.2C86.1,68.8,83.7,67,81.1,67z M74.4,24.7c0,0,0.1,0.1,0.1,0.1L57.6,44.3c-1.1-0.9-2.6-1.4-4.1-1.4
		c-0.6,0-1.2,0.1-1.7,0.2c-1.7,0.5-3.1,1.6-4,3.1c-0.4,0.7-0.7,1.5-0.8,2.3l-9.5-0.9c0-0.2-0.1-0.5-0.1-0.7
		c-0.1-0.2-0.1-0.4-0.2-0.6L74.4,24.7z M58.6,48.1c0.8,2.8-0.9,5.7-3.7,6.5c-0.5,0.1-0.9,0.2-1.4,0.2c-2.4,0-4.5-1.6-5.1-3.9
		c-0.4-1.4-0.2-2.8,0.5-4c0.7-1.2,1.8-2.1,3.2-2.5c0.5-0.1,0.9-0.2,1.4-0.2C55.9,44.2,58,45.8,58.6,48.1z M59.9,47.8
		c-0.3-1-0.7-1.8-1.4-2.6l16.9-19.5c0.3,0.2,0.5,0.3,0.9,0.4l-11,43.2c-0.2,0-0.4,0-0.6,0.1c-0.1,0-0.1,0-0.2,0.1l-7.4-14.4
		C59.4,53.6,60.6,50.6,59.9,47.8z M37.4,48.9l9.4,0.9c0,0,0,0,0,0c0,0.5,0.1,0.9,0.2,1.4c0.8,2.9,3.4,4.9,6.4,4.9l0,0
		c0.6,0,1.2-0.1,1.7-0.2c0.2-0.1,0.5-0.1,0.7-0.2l7.3,14.2L36.9,50.6C37.1,50.1,37.3,49.5,37.4,48.9z M82.3,77.3
		c-0.4,0.1-0.8,0.2-1.2,0.2l0,0c-2.1,0-3.9-1.4-4.4-3.4c-0.3-1.2-0.2-2.4,0.4-3.5s1.6-1.8,2.8-2.1c0.4-0.1,0.8-0.2,1.2-0.2
		c2.1,0,3.9,1.4,4.4,3.4C86.2,74.1,84.7,76.7,82.3,77.3z"/>
	<polygon fill="#FFFFFF" points="79.9,44.3 83.5,30.7 90.4,44.3 92.9,44.3 97.6,26.8 95.1,26.8 91.5,40.3 84.6,26.8 82.1,26.8 
		77.4,44.3 	"/>
	<path fill="#FFFFFF" d="M95.5,42.8c0,0.3,0.1,0.5,0.3,0.8c0.2,0.2,0.4,0.4,0.6,0.5c0.3,0.1,0.5,0.2,0.9,0.2h4.3
		c0.3,0,0.6-0.1,0.9-0.2c0.3-0.1,0.6-0.3,0.9-0.5c0.3-0.2,0.5-0.4,0.7-0.7c0.2-0.3,0.4-0.6,0.5-0.9l-0.6,2.2h2.4l3.5-13h-2.4
		l-2.8,10.6H98l2.8-10.6h-2.4l-2.8,10.6C95.5,42.2,95.5,42.5,95.5,42.8z"/>
	<polygon fill="#FFFFFF" points="110.6,44.3 115.4,26.3 113,26.3 108.2,44.3 	"/>
	<polygon fill="#FFFFFF" points="114.8,44.3 119.6,26.3 117.2,26.3 112.4,44.3 	"/>
	<path fill="#FFFFFF" d="M90.9,49.4c0-0.2-0.1-0.4-0.1-0.6c-0.1-0.2-0.2-0.4-0.3-0.5c-0.1-0.2-0.3-0.3-0.5-0.4l2.3-2.7h-2.1L88,47.6
		h-9c-0.3,0-0.7,0.1-1,0.2c-0.3,0.1-0.7,0.3-0.9,0.5c-0.3,0.2-0.5,0.5-0.7,0.8c-0.2,0.3-0.4,0.6-0.5,1l-3.3,12.5
		c-0.1,0.3-0.1,0.5-0.1,0.8c0,0.2,0.1,0.5,0.1,0.7c0.1,0.2,0.2,0.4,0.3,0.5c0.1,0.2,0.3,0.3,0.5,0.4l-2.2,2.7h2l2.1-2.5h9.1
		c0.3,0,0.7-0.1,1-0.2c0.3-0.1,0.7-0.3,0.9-0.5c0.3-0.2,0.5-0.5,0.7-0.8c0.2-0.3,0.4-0.6,0.5-1l3.3-12.5
		C90.9,49.8,90.9,49.6,90.9,49.4z M75,62.6l3.3-12.5h7.5L75.4,62.6H75z M85,62.6h-7.6l10.6-12.5h0.4L85,62.6z"/>
	<path fill="#FFFFFF" d="M100.5,63.6c0.2-0.3,0.4-0.6,0.4-0.9l2.2-8.2c0.1-0.3,0.1-0.6,0.1-0.9c0-0.3-0.2-0.5-0.3-0.8
		c-0.2-0.2-0.4-0.4-0.6-0.5c-0.3-0.1-0.6-0.2-0.9-0.2h-4.3c-0.3,0-0.6,0.1-1,0.2c-0.3,0.1-0.6,0.3-0.9,0.5c-0.3,0.2-0.5,0.5-0.7,0.7
		c-0.2,0.3-0.4,0.6-0.5,0.9l2-7.3h-2.4l-4.2,15.6c-0.1,0.3-0.1,0.6-0.1,0.9c0,0.3,0.1,0.5,0.3,0.8c0.2,0.2,0.4,0.4,0.6,0.5
		c0.3,0.1,0.6,0.2,0.9,0.2h6.7c0.3,0,0.7-0.1,1-0.2c0.3-0.1,0.6-0.3,0.9-0.5C100.1,64.2,100.3,63.9,100.5,63.6z M98.6,62.7h-6.7
		l2.2-8.2h6.7L98.6,62.7z"/>
	<path fill="#FFFFFF" d="M105.7,52.1l-4.2,15.8h-1.9L99,70.3h1.9c0.3,0,0.7-0.1,1-0.2c0.3-0.1,0.6-0.3,0.9-0.5
		c0.3-0.2,0.5-0.5,0.7-0.8c0.2-0.3,0.4-0.6,0.4-0.9l4.2-15.8H105.7z"/>
	<polygon fill="#FFFFFF" points="106.3,49.6 108.9,49.6 109.6,47.1 106.9,47.1 	"/>
	<path fill="#FFFFFF" d="M119,59.8l1.4-5.3c0.1-0.3,0.1-0.6,0.1-0.9c0-0.3-0.2-0.5-0.3-0.8c-0.2-0.2-0.4-0.4-0.6-0.5
		c-0.3-0.1-0.6-0.2-0.9-0.2h-6.2c-0.3,0-0.7,0.1-1,0.2c-0.3,0.1-0.6,0.3-0.9,0.5c-0.3,0.2-0.5,0.5-0.7,0.8c-0.2,0.3-0.4,0.6-0.4,0.9
		l-2.2,8.2c-0.1,0.3-0.1,0.6-0.1,0.9c0,0.3,0.2,0.5,0.3,0.8c0.2,0.2,0.4,0.4,0.6,0.5c0.3,0.1,0.6,0.2,0.9,0.2h8.6l0.6-2.4h-8.6
		l0.8-2.9H119z M111.8,54.5h6.2l-0.8,2.9H111L111.8,54.5z"/>
	<path fill="#FFFFFF" d="M132.9,52.8c-0.2-0.2-0.4-0.4-0.6-0.5c-0.3-0.1-0.6-0.2-0.9-0.2h-6.2c-0.3,0-0.7,0.1-1,0.2
		c-0.3,0.1-0.6,0.3-0.9,0.5c-0.3,0.2-0.5,0.5-0.7,0.8c-0.2,0.3-0.3,0.6-0.4,0.9l-2.2,8.2c-0.1,0.3-0.1,0.6-0.1,0.9
		c0,0.3,0.2,0.5,0.3,0.8c0.2,0.2,0.4,0.4,0.6,0.5c0.3,0.1,0.5,0.2,0.9,0.2h6.2c0.3,0,0.7-0.1,1-0.2c0.3-0.1,0.6-0.3,0.9-0.5
		c0.3-0.2,0.5-0.5,0.7-0.8s0.4-0.6,0.4-0.9l0.6-2.2h-2.4l-0.6,2.2h-6.2l2.2-8.2h6.2l-0.6,2.2h2.4l0.6-2.2c0.1-0.3,0.1-0.6,0.1-0.9
		C133.2,53.3,133.1,53,132.9,52.8z"/>
	<path fill="#FFFFFF" d="M144,54.5l0.6-2.4h-4.3l1.1-4h-2.4l-1.1,4h-3.2l-0.6,2.4h3.2l-2.2,8.2c-0.1,0.3-0.1,0.6-0.1,0.9
		c0,0.3,0.2,0.5,0.3,0.8c0.2,0.2,0.4,0.4,0.6,0.5c0.3,0.1,0.6,0.2,0.9,0.2h4.3l0.6-2.4h-4.3l2.2-8.2H144z"/>
</g>
</svg>
