<?xml version="1.0" encoding="utf-8"?>
<!-- Generator: Adobe Illustrator 18.1.1, SVG Export Plug-In . SVG Version: 6.00 Build 0)  -->
<svg version="1.1" id="Layer_1" xmlns="http://www.w3.org/2000/svg" xmlns:xlink="http://www.w3.org/1999/xlink" x="0px" y="0px"
	 viewBox="0 0 104.5 129.1" enable-background="new 0 0 104.5 129.1" xml:space="preserve">
<g>
	
		<radialGradient id="SVGID_1_" cx="439.9102" cy="-414.7812" r="11.7292" gradientTransform="matrix(-0.7522 0.7973 0.9937 0.6035 811.9489 -2.1507)" gradientUnits="userSpaceOnUse">
		<stop  offset="0.5071" style="stop-color:#E3B6BF"/>
		<stop  offset="1" style="stop-color:#1B0C75"/>
	</radialGradient>
	<path fill="url(#SVGID_1_)" d="M64.3,89.9c0,0-1.7,5.5,2.9,10.9c3,3.5,6.3,5.9,6.3,5.9s-8.4-5.2-10-10.1
		C62.9,94.4,62.5,91,64.3,89.9z"/>
	
		<radialGradient id="SVGID_2_" cx="459.4922" cy="-413.7801" r="16.4953" fx="463.4144" fy="-415.4469" gradientTransform="matrix(-0.7522 0.7973 2.8778 1.7479 1591.5466 471.3504)" gradientUnits="userSpaceOnUse">
		<stop  offset="0.5071" style="stop-color:#E3B6BF"/>
		<stop  offset="1" style="stop-color:#1B0C75"/>
	</radialGradient>
	<path fill="url(#SVGID_2_)" d="M51.3,117.8c-0.1-2.1,0.4-5.6,2.2-6.3c0,0-2.8,5.1-0.1,11c1.8,3.9,4.2,6.6,4.2,6.6
		S51.5,122.8,51.3,117.8z"/>
	
		<radialGradient id="SVGID_3_" cx="428.8564" cy="-433.8665" r="35.4492" gradientTransform="matrix(-0.7522 0.7973 0.9937 0.6035 811.9489 -2.1507)" gradientUnits="userSpaceOnUse">
		<stop  offset="0.5071" style="stop-color:#E3B6BF"/>
		<stop  offset="1" style="stop-color:#1B0C75"/>
	</radialGradient>
	<path fill="url(#SVGID_3_)" d="M65.3,87.6c0-0.1,0.1-0.3,0.1-0.4c0.8-0.5,1.4-1,1.7-1.7c0.1-0.1,0.2-0.1,0.3-0.2
		c-0.1,0.2-0.1,0.3-0.2,0.5c-1.3,1.4-1.4,4.3-1.1,6.2c0.8,5.2,8.1,11.2,8.1,11.2s-2.9-2.7-5.2-6.5c-0.1-0.1-0.1-0.2-0.2-0.3
		c3,4.3,8.3,8,8.3,8s-3.5-2.8-6.5-6.9c-1.2-1.6-1.9-3.2-2.4-4.7c2.1,3.7,6.2,7,6.2,7s-2.4-2.2-4.5-5.5c3.5,5.1,10.7,9.8,10.7,9.8
		s-4-2.9-7.7-7.2c-1.8-2.1-2.9-4.2-3.5-6c1.9,4.7,7.7,9.4,7.7,9.4s-2.9-2.7-5.3-6.6c-0.1-0.2-0.2-0.4-0.3-0.6
		c2.4,2.6,5.6,4.5,5.6,4.5s-2.7-1.9-5-4.8c3.1,3.1,7.5,5.6,7.5,5.6s-3.2-2-6.3-5.1c-2.1-2.1-3-4.3-3.4-6c0-0.2,0-0.4,0-0.6
		c0.7,4.7,7.1,9.8,7.1,9.8s-2.6-2.4-4.7-5.9c-1.9-3.2-1.6-6.4-1.1-8.4c-0.2,1.2-0.1,2.5,0.1,3.4c0.1,0.6,0.4,1.1,0.7,1.7
		c1.3,5,6.9,10.3,6.9,10.3s-2.3-2.5-4.2-6.1c3.8,4.3,10.2,7.8,10.2,7.8s-4.1-2.5-7.9-6.5c-0.3-0.3-0.5-0.6-0.8-0.9
		c1.9,1.6,3.7,2.7,3.7,2.7s-2.9-2-5.4-5.2c0-0.1-0.1-0.1-0.1-0.2C73.4,88.2,73,87,72.7,86c-0.1-1,0-2,0.1-2.8c0,1.1,0.2,2.3,0.5,3.2
		c1.5,4.9,9.8,10,9.8,10s-3.3-2.3-6.2-5.8c-3.2-3.8-3.1-7.7-2.8-9.7c0.1,1.1,0.4,2.3,0.8,3.4c1.3,4.8,6.6,9.9,6.6,9.9
		s-2.1-2.3-4-5.7c3.9,4.4,10.4,8,10.4,8s-4.1-2.6-8-6.6c-2.3-2.4-3.5-4.9-4.1-7c0-0.2,0-0.3,0-0.5c0.1,0.3,0.2,0.5,0.2,0.8
		c1.8,5.2,10.6,10.8,10.6,10.8s-3.5-2.5-6.7-6.2c-3-3.5-3.5-7-3.5-9.2c0.3-0.6,0.7-1.4,1.1-2.3c-0.3,1.7,0.2,4,0.7,5.6
		c2,5.9,11.9,12.3,11.9,12.3s-4-2.8-7.6-7.1c-2.8-3.3-3.7-6.5-3.9-9c0.1-0.2,0.2-0.4,0.3-0.6c-0.1,4.5,4.5,9.6,4.5,9.6
		s-1.9-2.5-3.1-6c-0.1-0.5-0.2-0.9-0.3-1.3c0,0.2,0.1,0.3,0.1,0.5c1.6,6,10.9,12.6,10.9,12.6s-3.7-2.9-7-7.3
		c-0.8-1.1-1.4-2.1-1.8-3.1c0.8,1.1,1.6,2,2.3,2.7c0.9,1.3,1.7,2.1,1.7,2.1s-0.4-0.5-1-1.4c0.4,0.4,0.7,0.6,0.7,0.6s-0.4-0.4-0.9-1
		c-0.6-0.9-1.3-2.2-1.9-3.6c3.6,5.5,11.6,10.8,11.6,10.8s-4.2-3.1-8.2-7.7c-2.5-2.9-3.7-5.8-4.3-8.2c0-0.1,0.1-0.2,0.2-0.3
		c0.3,1.3,0.8,2.6,1.4,3.8c1.5,3.8,6.4,7.6,6.4,7.6s-2.4-2.1-4.4-5.1c-1.2-1.8-1.6-3.6-1.7-5.1c0.4,0.8,0.9,1.6,1.5,2.4
		c1.2,2.7,2.8,4.7,2.8,4.7s-0.9-1.4-1.8-3.5c0.9,1,1.7,1.7,2,2c2.5,3.3,5.9,5.9,5.9,5.9s-3-2.6-5.5-6.4c-0.6-0.9-1-1.7-1.3-2.5
		c1,1.4,1.8,2.3,1.8,2.3s-1.3-1.6-2.3-4.1c0-0.2-0.1-0.4-0.1-0.7c1.8,3.6,5.5,6.8,5.5,6.8s-2.4-2.3-4.2-5.7c-0.5-1-0.9-2-1-2.9
		c1.3,2.7,3.5,4.9,3.5,4.9s-1.9-2.3-3.1-5.6c-0.3-0.9-0.4-1.7-0.5-2.6c0.1-0.3,0.1-0.5,0.2-0.8c0.1-0.1,0.1-0.1,0.2-0.2
		c0,4.8,4.2,10.2,4.2,10.2s-1.1-1.6-2-4.1c2.5,4.2,7.4,8.1,7.4,8.1s-3-2.7-5.6-6.6c-1.1-1.7-1.7-3.3-2-4.9c1.8,4.1,6.3,8.1,6.3,8.1
		s-2.5-2.5-4.6-6.1c-0.6-1.1-1-2.1-1.2-3.1c1.2,3.2,3.9,5.8,3.9,5.8s-1.9-2.3-3.1-5.6c-0.4-1.2-0.5-2.5-0.4-3.6c0,0,0-0.1,0.1-0.1
		c0,4.7,4.1,10.1,4.1,10.1s-1.5-2.2-2.5-5.4c2.3,4.2,6.4,7.9,6.4,7.9s-2.5-2.6-4.7-6.3c0.2,0.2,0.3,0.3,0.3,0.3S94,75.7,93.6,75
		c-1.3-2.4-1.7-4.7-1.7-6.6c0-0.2,0.1-0.5,0.2-0.7c0.2-0.2,0.4-0.4,0.6-0.7c0,0,0,0,0,0c0,0.4,0,0.8,0,1.2
		c0.1,5.5,6.9,12.1,6.9,12.1s-1.1-1.3-2.4-3.3c0,0,0,0,0,0s-0.8-1.2-1.5-3.2c1,1.5,2,2.5,2,2.5s-1.6-1.9-2.8-4.8
		c-0.1-0.3-0.2-0.7-0.2-1c-0.1-0.6-0.2-1.3-0.1-1.9c1.3,4.9,7.1,9.9,7.1,9.9s-2.7-2.7-4.8-6.6c-0.5-0.9-0.8-1.8-1.1-2.7
		c1.1,2.8,3.3,5,3.3,5s-1.8-2.2-2.7-5.4c-0.3-1.2-0.3-2.4,0-3.5c0.1,0,0.3,0,0.4,0c-0.2,3.9,3.2,8,3.2,8s-1.6-2.4-2.2-5.7
		c-0.1-0.8-0.1-1.5,0-2.2c0.9,2.6,3.1,4.6,3.1,4.6s-1.7-1.9-2.4-4.8c0,0,0,0,0,0c1.5-0.1,3.1-0.5,4-1.4c0.4-0.4,0.8-0.9,1.1-1.4
		c0.1,0,0.2,0,0.2,0c-0.1,0-0.1-0.1-0.2-0.1c0-0.1,0.1-0.1,0.1-0.2c0.5-0.1,0.8-0.1,0.8-0.1c-0.2-0.1-0.4-0.1-0.7-0.2
		c0.4-0.9,0.6-1.8,0.3-2.7c0,0-0.2,1.1-0.9,2.4c-0.6-0.1-1.8-0.4-3.6-0.8c1.1-1.7,2.3-2.7,2.3-2.7c-0.8,0.2-1.6,0.8-2.2,1.4
		c0.4-0.7,0.8-1.2,1.2-1.7c0.7-0.4,1.4-0.9,1.9-1.5c0,0-0.4,0.2-1.1,0.6c0.2-0.2,0.3-0.3,0.3-0.3c-0.5,0.2-0.9,0.5-1.3,0.8
		c-1,0.4-2.2,0.8-3.5,1c0-0.1,0.1-0.1,0.1-0.2c0,0-0.2,0.1-0.4,0.2c-1.4,0.2-2.8,0.2-4.1-0.4c-2.7-1.1-4.1-3-4.1-3s2.4,3.9,6,4.4
		c-0.4,0.2-0.9,0.3-1.4,0.5c-0.5-0.1-1.1-0.1-1.7-0.2c-0.2,0-0.3,0-0.5-0.1c-0.4,0-0.9-0.1-1.3-0.1c-0.4-0.1-0.8-0.1-1.2-0.1
		c-0.3,0-0.5,0-0.8-0.1c-2.4-1.1-3.8-2.5-3.8-2.5s0.9,1.1,2.4,2.2c-0.7-0.3-1.3-0.7-2-1.2c-0.5-0.4-1-0.8-1.5-1.2
		c-0.1-0.1-0.2-0.2-0.2-0.2s0,0,0.1,0.1c-2.4-2.2-3.7-4.2-3.7-4.2s2.4,4.2,5.8,6.9c-0.1,0-0.2,0-0.3,0c-0.4-0.1-0.8-0.2-1.3-0.1
		c-1.9-1.4-3-2.7-3-2.7s0.7,1.1,1.9,2.3c-1.7-1-2.7-2-2.7-2s0,0,0,0c-1.7-1.5-2.6-2.8-2.6-2.8s1.8,2.7,4.5,5.1c-0.8,0-1.5,0-2.3-0.1
		c-2.6-2.4-4.1-4.6-4.1-4.6s1.3,2.3,3.3,4.6c-0.4,0-0.9,0-1.3,0c-0.4-0.3-0.6-0.5-0.6-0.5s0.2,0.2,0.5,0.5c-0.4,0-0.8,0-1.2,0
		c-1-1.2-1.6-2.1-1.6-2.1s0.5,0.9,1.3,2.1c-0.4,0-0.8,0-1.2,0c-0.2,0-0.3-0.1-0.5-0.1c-1.7-2.1-2.6-3.7-2.6-3.7s0.8,1.7,2.2,3.7
		c-0.3,0-0.5,0.1-0.8,0.1c-2.9,0.1-6,0.3-9.2,0.6c-0.5-0.1-1.1,0-1.7,0.2c-1,0.1-2.1,0.3-3.1,0.4c-0.6-0.1-1.4,0-2.3,0.3
		c-1.3,0.2-2.5,0.4-3.8,0.7c-0.2,0-0.5,0.1-0.8,0.1c-1.7,0.3-3.4,0.7-5.2,1.1c-0.4,0-0.9,0.2-1.4,0.3c-6.7,1.7-13.8,4-20.9,7.2
		c-0.2,0.1-0.3,0.2-0.5,0.2c-1.1,0.3-2.4,1-3.6,1.7c-1.2,0.6-2.3,1.2-3.5,1.8c-2,0.1-5.3,2.2-7.4,3.7c-0.6,0.5-1.1,1-1.7,1.5
		c-0.1,0-0.1,0.1-0.2,0.1l0,0C3,83.8,0,91.2,0,91.2s1.8-3.9,5.2-8.3C6.1,81.7,7,80.6,8,79.7L8,79.8c2.8-1.8,5.5-3.4,8.3-4.9
		c-4.5,4.6-6.6,12.5-6.6,12.5s1.3-3.9,4.2-8.2c1.7-2.6,3.9-4.5,5.9-5.9c-4.2,4-3.6,11.7-3.6,11.7s0-3.2,1.6-7.1
		c1.5-3.5,4.7-5.8,7.1-7.1c-0.7,0.6-1.4,1.3-1.9,1.9c-3.2,3.8-3.5,11-3.5,11s0.3-3,1.8-6.6c1.6-4.1,4.8-6.5,6.4-7.5
		c0.5-0.2,0.9-0.4,1.4-0.6c-0.6,0.5-1.2,1-1.7,1.6c-0.4,0.4-0.9,0.8-1.2,1.1c-4.9,5-4.5,14.3-4.5,14.3s0.1-1.6,0.6-4
		c-0.3,2.1-0.4,3.5-0.4,3.5s0.4-3.8,2.3-8.4c0.6-1.4,1.3-2.6,2.1-3.7c1.8-2.2,4-3.8,5.8-4.9c-0.8,0.8-1.6,1.7-2.2,2.4
		c-3.7,4.7-4.4,13.4-4.4,13.4s0.5-3.7,2.3-8.1c0.5-1.3,1.1-2.4,1.8-3.4c-2.6,5-2.9,11.5-2.9,11.5s0.4-3.9,2.3-8.5
		c2.3-5.6,7-8.8,8.8-9.9c0.7-0.2,1.5-0.5,2.2-0.7c-0.7,0.5-1.4,1-2,1.6c-1.9,1.2-3.9,3.2-5.2,4.8C27.8,77.4,27,88.4,27,88.4
		s0.6-4.6,2.9-10.2c1-2.5,2.4-4.5,3.8-6.3c-2.5,4.8-3.2,10.5-3.2,10.5s0.7-3.9,3-8.6c1.4-2.9,3.4-5.1,5.3-6.7
		c0.3-0.2,0.5-0.4,0.8-0.5c0,0,0,0-0.1,0.1C34.7,71.1,33,80.4,33,80.4s0.7-2.9,2.5-6.5c-2.7,5.9-3.2,13-3.2,13s0.7-4.7,2.9-10.3
		c1-2.4,2.3-4.5,3.7-6.2c-3.1,5.3-4.1,12.4-4.1,12.4s0.8-4.2,3.2-9.2c2.8-5.9,7.7-9.3,9.7-10.5c0.3-0.1,0.6-0.1,0.8-0.2
		c-1.2,0.8-2.4,1.7-3.2,2.6c-0.5,0.5-1,1-1.4,1.6c0,0.1-0.1,0.1-0.1,0.2c-5.3,5.9-7,17.3-7,17.3s0.8-4,3-8.9c-0.7,2.2-1,3.8-1,3.8
		s1-3.9,3.5-8.5c0.1-0.1,0.1-0.2,0.2-0.3c3-4.4,6.9-7.1,8.8-8.3c0.2,0,0.4-0.1,0.6-0.1c-1.7,0.9-3.5,2.3-4.8,3.4
		c-5.4,4.8-8.2,14.8-8.2,14.8s1.5-4.2,4.5-9c0.1-0.1,0.2-0.2,0.2-0.3c-3.2,5.6-4.6,12.3-4.6,12.3s1.2-4.7,4.2-10.2
		c1.2-2.2,2.6-4,4-5.5c-3.1,4.5-4.6,10.1-4.6,10.1s1.2-3.5,3.8-7.7c-3.8,6.6-5.3,15.4-5.3,15.4s1.1-5.1,4-11.2
		c1.4-3,3.1-5.4,4.9-7.4C46,72,43.7,79.9,43.7,79.9s1.5-4.2,4.6-9.1c0.2-0.3,0.3-0.5,0.5-0.7c-1.6,3.8-2.1,7.6-2.1,7.6
		s0.7-3.4,2.7-7.4c-1.9,4.7-2.3,9.8-2.3,9.8s0.6-3.9,2.5-8.6c1.3-3.2,3.2-5.6,4.9-7.3c0.2-0.2,0.5-0.4,0.7-0.5
		c-2.5,2.2-4.4,5.6-5.6,8.4c0,0-0.1-0.1-0.1-0.1s0,0,0.1,0.1c-1.1,2.6-1.7,4.6-1.7,4.6s0.6-1.8,1.9-4.3c0.1,0.2,0.3,0.4,0.5,0.6
		c-1.8,3.3-2.8,6-2.8,6s1-2.4,3.1-5.6c0.1,0.2,0.3,0.3,0.4,0.5C49.8,77.4,49.2,81,49,83c-0.3-0.1-0.4-0.2-0.4-0.2s0.1,0.1,0.4,0.2
		c-0.1,0.9-0.2,1.4-0.2,1.4s0.1-0.5,0.3-1.4c1.1,0.5,4.2,1.9,7.4,2.8c-0.2,0-0.4,0-0.7,0c-5-0.2-9.2-1.3-9.2-1.3s6.4,2.1,11.8,2
		c-1.5,0-3.2,0-5-0.4c-6.1-1-10.9-2.9-10.9-2.9s9.6,4.2,16.6,4.2c-0.7,0.1-1.5,0.1-2.3,0.1c-4.6-0.1-8.3-1.2-8.3-1.2
		s5.5,1.8,10.3,1.8c-1.4,0.2-3,0.2-4.7,0c-5.6-0.6-10-2.1-10-2.1s7,2.8,13,3.1c-0.8,0.1-1.7,0.1-2.7,0.1c-5-0.2-9-1.3-9-1.3
		s9.6,3.1,15,1.5c1-0.3,2.3-0.8,3.3-1.4c0.5-0.2,1-0.4,1.5-0.7c-1.2,1-4.9,3.6-10.7,3c-4.6-0.5-8.3-1.8-8.3-1.8s8.8,3.6,13.9,2.4
		c1.7-0.4,4.1-1.4,5-2.7c-0.6,1.4-0.5,3.4-0.2,4.8c1,4.8,8.5,9.9,8.5,9.9s-3-2.3-5.4-5.7c-3.8-5.2-1.5-10.5-1.5-10.5
		C65.8,86.9,65.5,87.2,65.3,87.6z M44.8,64c-0.6,0.2-1.3,0.6-2,1.1c0.7-0.5,1.4-1,2-1.3c0.1,0,0.3-0.1,0.4-0.1
		C45.1,63.8,44.9,63.9,44.8,64z M41.9,65.8c-1.5,1.2-2.9,2.7-3.9,3.9c0,0,0,0.1-0.1,0.1C39.1,68.1,40.5,66.8,41.9,65.8z M42.3,65.4
		c0.1,0,0.1-0.1,0.2-0.1C42.5,65.3,42.4,65.4,42.3,65.4z M72.3,80.7c0.2-0.8,0.4-1.2,0.4-1.2c-0.4,0.2-0.7,0.6-1,1
		c0.1-0.3,0.2-0.5,0.2-0.5c-0.1,0.1-0.3,0.1-0.4,0.2c0.1-0.2,0.3-0.4,0.3-0.6c0.8-0.2,1.5-0.6,1.9-1.2c0.2-0.1,0.3-0.1,0.4-0.2
		C74.1,78.5,74,78.8,74,79c-0.8,0.4-1.4,1.2-1.8,2.2C72.2,81,72.3,80.8,72.3,80.7z M75.4,77.6c-0.1,0.3-0.3,0.6-0.4,0.9
		c0-0.2,0-0.5,0-0.7C75.2,77.8,75.3,77.7,75.4,77.6C75.4,77.6,75.4,77.6,75.4,77.6z M76.3,75c0.1-0.1,0.2-0.3,0.4-0.6
		c0.4-0.1,0.9-0.3,1.3-0.4c-0.2,0.3-0.3,0.6-0.4,0.9C77.3,74.9,76.8,75,76.3,75z M54.7,79.8c0.1-0.2,0.1-0.4,0.2-0.6
		c0.4,0.2,0.8,0.5,1.2,0.7c-0.1,0.3-0.1,0.5-0.1,0.7C55.4,80.3,55,80,54.7,79.8z M59.8,82.5c-0.6-0.2-1.1-0.5-1.7-0.7
		c0.1-0.2,0.1-0.5,0.2-0.8c0.6,0.3,1.2,0.5,1.8,0.7C60,82,59.9,82.2,59.8,82.5C59.8,82.5,59.8,82.5,59.8,82.5z M68.1,83.8
		c-0.1,0.1-0.4,0.3-0.9,0.5c0,0,0-0.1,0-0.1c0.2-0.1,0.4-0.3,0.6-0.5c0.2,0,0.3-0.1,0.5-0.1C68.2,83.7,68.2,83.8,68.1,83.8z
		 M74,59.8c-0.5,0.2-1.1,0.4-1.6,0.6c0.2-0.1,0.3-0.2,0.4-0.3c0.3-0.1,0.6-0.3,0.9-0.4C73.8,59.7,73.9,59.7,74,59.8
		C74,59.7,74,59.8,74,59.8z M67.2,83c0-0.1,0.1-0.1,0.1-0.2c0.2,0,0.4,0,0.7-0.1c0,0-0.1,0.1-0.2,0.1C67.6,82.9,67.4,83,67.2,83z
		 M70.2,81.4c-0.1,0-0.3,0.1-0.5,0.1c0.4-0.2,0.8-0.4,1.2-0.7c-0.1,0.1-0.2,0.3-0.3,0.5C70.5,81.3,70.3,81.3,70.2,81.4z M68.6,76.1
		c0.1-0.2,0.3-0.5,0.4-0.8c0.4,0.1,0.8,0.3,1.2,0.4c0.1,0,0.2,0.1,0.4,0.1c-0.1,0.2-0.1,0.4-0.2,0.5C69.8,76.3,69.2,76.2,68.6,76.1z
		 M57.5,65.2c0.9-0.8,1.9-1.5,2.8-2c-0.2,0.2-0.4,0.4-0.6,0.6c-0.4,0.3-0.8,0.7-1.1,1c0,0-0.1-0.1-0.1-0.1s0,0,0.1,0.1
		c-0.4,0.4-0.8,0.7-1.1,1.1c0,0.1-0.1,0.1-0.1,0.2c-0.1-0.1-0.2-0.2-0.3-0.3C57.1,65.5,57.3,65.3,57.5,65.2z M71.1,73.7
		c-0.3-0.1-0.7-0.2-1-0.2c0,0,0-0.1,0.1-0.1c0,0,0,0,0,0c0.2,0.1,0.3,0.1,0.5,0.2c0,0,0,0,0,0s0,0,0,0c0.2,0.1,0.5,0.1,0.7,0.2
		c0,0,0,0,0,0C71.3,73.7,71.2,73.7,71.1,73.7z M77.9,59.9C77.9,59.9,78,59.9,77.9,59.9c0,0-0.1,0.1-0.2,0.1c0,0,0,0,0,0
		C77.8,59.9,77.8,59.9,77.9,59.9C77.9,59.9,77.9,59.9,77.9,59.9z M64.6,81.5c-0.5-0.1-0.9-0.1-1.4-0.3c0-0.1,0.1-0.3,0.1-0.4
		c0.3,0.1,0.6,0.1,0.9,0.2c0.6,0.1,1.3,0.2,2,0.2c0,0.1,0,0.1-0.1,0.2C65.7,81.4,65.2,81.5,64.6,81.5z M65.5,79.3
		c0.4,0.1,0.8,0.2,1.2,0.3c-0.1,0.2-0.2,0.4-0.2,0.7c-0.9,0-1.9-0.1-2.9-0.3c0.1-0.4,0.3-0.7,0.4-1.1C64.5,79,65,79.1,65.5,79.3z
		 M64.9,75c-0.3-0.2-0.7-0.3-1.1-0.5c0.2-0.3,0.4-0.7,0.7-1.2c-0.2,0.6-0.3,1-0.3,1s0.2-0.5,0.5-1.2c0.2,0.2,0.5,0.3,0.7,0.5
		C65.2,74,65.1,74.5,64.9,75z M87.2,60.5c-0.1,0-0.2,0-0.2,0c0,0,0.1,0,0.1,0C87.1,60.4,87.1,60.4,87.2,60.5z M69.4,63
		c-0.7,0.6-1.3,1.2-1.9,1.8c-0.1-0.1-0.2-0.1-0.3-0.2c0.1-0.1,0.2-0.2,0.4-0.4C68.2,63.8,68.8,63.4,69.4,63z M59.1,65.4
		c0.1,0.1,0.2,0.2,0.3,0.3c-0.3,0.5-0.7,1-1,1.5c-0.2-0.2-0.4-0.4-0.6-0.6C58.3,66.2,58.7,65.8,59.1,65.4z M63.3,74.2
		c0.3-0.5,0.5-1.1,0.8-1.6c0.2,0.1,0.3,0.2,0.5,0.4c-0.3,0.6-0.6,1.2-0.8,1.6C63.6,74.4,63.4,74.3,63.3,74.2z M64.9,72.3
		c-0.1-0.1-0.2-0.1-0.3-0.2c-0.1,0-0.1-0.1-0.2-0.1c0.1-0.2,0.2-0.4,0.4-0.6c0.1,0.1,0.2,0.2,0.4,0.3C65.1,71.8,65,72,64.9,72.3
		C64.9,72.2,64.9,72.2,64.9,72.3z M71.5,72.2C71.5,72.2,71.4,72.2,71.5,72.2C71.4,72.2,71.4,72.2,71.5,72.2c0.2,0,0.4,0.1,0.6,0.1
		c0,0,0,0,0,0C71.9,72.3,71.7,72.3,71.5,72.2z M64.8,67.4c0.1,0.1,0.3,0.2,0.4,0.3c-0.4,0.5-0.7,1-1,1.5c-0.2-0.1-0.3-0.2-0.5-0.3
		C64,68.4,64.4,67.9,64.8,67.4z M65.6,70.1c0.1-0.2,0.2-0.3,0.3-0.5c0.1,0,0.1,0.1,0.2,0.1c-0.1,0.2-0.2,0.3-0.3,0.5
		C65.7,70.2,65.6,70.1,65.6,70.1z M65.5,70.9c-0.1,0.2-0.2,0.5-0.3,0.7c-0.2-0.1-0.3-0.2-0.4-0.2c0.1-0.2,0.3-0.5,0.4-0.7
		C65.3,70.7,65.4,70.8,65.5,70.9z M85.3,66.7c0,0-0.1,0-0.1,0c0.1-0.1,0.2-0.2,0.3-0.2C85.5,66.5,85.4,66.6,85.3,66.7z M66.5,68.8
		C66.5,68.8,66.5,68.8,66.5,68.8c-0.1,0.3-0.2,0.5-0.3,0.8c-0.1,0-0.1-0.1-0.2-0.1C66.2,69.2,66.3,69,66.5,68.8z M66,69.5
		C66,69.5,66,69.5,66,69.5C66,69.5,66,69.5,66,69.5C66,69.5,66,69.5,66,69.5z M74.8,62.4C74.8,62.4,74.9,62.5,74.8,62.4
		c-0.2,0.3-0.4,0.5-0.6,0.7c0,0-0.1-0.1-0.1-0.1c0.1-0.1,0.2-0.1,0.2-0.2C74.4,62.6,74.6,62.5,74.8,62.4z M74.8,68.9
		C74.8,68.9,74.8,68.9,74.8,68.9c0.1-0.2,0.3-0.4,0.4-0.6c0,0,0,0,0.1,0c0.1,0.1,0.2,0.1,0.3,0.2c-0.1,0.2-0.2,0.4-0.4,0.6
		C75.1,69,75,69,74.8,68.9z M81.3,63.4c0.1,0,0.1,0.1,0.2,0.1c0,0,0,0,0,0C81.4,63.5,81.3,63.5,81.3,63.4
		C81.3,63.4,81.3,63.4,81.3,63.4z M77.4,63.9c-0.1,0.1-0.2,0.2-0.4,0.3c0,0-0.1,0-0.1-0.1C77.1,64.1,77.2,64,77.4,63.9
		C77.3,63.9,77.4,63.9,77.4,63.9z M78.1,66.8c-0.2-0.1-0.3-0.1-0.5-0.2c0,0,0,0,0,0C77.8,66.7,77.9,66.7,78.1,66.8
		C78.1,66.8,78.1,66.8,78.1,66.8z M78.3,65.8c0,0,0.1,0.1,0.1,0.1C78.4,65.9,78.3,65.9,78.3,65.8C78.3,65.9,78.3,65.9,78.3,65.8z
		 M77.3,67.2c-0.1,0-0.2,0-0.3,0c0,0,0.1-0.1,0.1-0.1C77.2,67.2,77.3,67.2,77.3,67.2z M76.4,67.3c-0.1,0-0.1,0-0.2,0
		c0.2-0.2,0.3-0.3,0.5-0.5c0,0,0,0,0,0C76.6,67,76.5,67.1,76.4,67.3z M75.1,65.6c0.1,0.1,0.2,0.2,0.4,0.3c-0.1,0.1-0.2,0.2-0.3,0.3
		c-0.2,0.2-0.4,0.3-0.6,0.5c-0.2-0.1-0.3-0.2-0.4-0.2C74.5,66.2,74.8,65.9,75.1,65.6z M75.4,65.3c0.1-0.1,0.1-0.1,0.2-0.2
		c0.1,0.1,0.2,0.2,0.3,0.2c0,0.1-0.1,0.1-0.1,0.2C75.6,65.5,75.5,65.4,75.4,65.3z M79.1,65c0.1,0.1,0.3,0.2,0.4,0.2
		c-0.1,0.1-0.3,0.3-0.4,0.4c-0.1-0.1-0.3-0.2-0.4-0.2C78.8,65.3,79,65.1,79.1,65z M74.1,67.2c-0.2,0-0.4-0.1-0.5-0.1
		c0,0,0.1-0.1,0.1-0.1c0.1-0.1,0.1-0.1,0.2-0.2C73.9,66.9,74,67,74.1,67.2C74.1,67.2,74.1,67.2,74.1,67.2z M72.5,66.9
		c-0.1,0-0.3-0.1-0.4-0.1c0.3-0.2,0.5-0.5,0.8-0.7c0,0,0.1,0.1,0.1,0.1C72.8,66.4,72.6,66.7,72.5,66.9z M76.6,64.4
		c0,0,0.1,0.1,0.1,0.1c-0.1,0.1-0.2,0.2-0.4,0.4c-0.1,0-0.1-0.1-0.2-0.1C76.3,64.6,76.5,64.5,76.6,64.4z M82.4,66.6
		c-0.1,0-0.2,0-0.3,0c0.1-0.1,0.2-0.2,0.3-0.3c0.1,0,0.2,0,0.3,0.1C82.5,66.4,82.5,66.5,82.4,66.6z M78.9,68.1c-0.1,0-0.2,0-0.2,0
		c0,0,0.1-0.1,0.1-0.1c0,0,0,0,0,0C78.9,68,78.9,68,78.9,68.1C79,68.1,78.9,68.1,78.9,68.1z M80.3,64C80.4,64,80.4,63.9,80.3,64
		c0.1,0,0.2,0,0.2,0.1C80.5,64,80.4,64,80.3,64z M85.4,63.9C85.4,63.9,85.4,63.9,85.4,63.9c-0.1,0-0.1,0-0.1,0
		C85.3,63.9,85.4,63.9,85.4,63.9C85.4,63.9,85.4,63.9,85.4,63.9z M80.6,67.4C80.5,67.4,80.5,67.5,80.6,67.4
		c-0.1,0.1-0.1,0.1-0.2,0.1c0,0,0,0,0.1-0.1C80.5,67.4,80.5,67.4,80.6,67.4z M71.1,66.4c-0.1-0.1-0.1-0.1-0.2-0.2
		c0.3-0.3,0.6-0.7,0.9-1c0.1,0,0.1,0.1,0.2,0.1C71.6,65.7,71.3,66.1,71.1,66.4z M72.2,64.8c0,0.1,0.1,0.1,0.1,0.2
		c-0.1,0.1-0.1,0.2-0.2,0.2c-0.1,0-0.1-0.1-0.2-0.1C72,65,72.1,64.9,72.2,64.8z M72.3,64.7c0.3-0.3,0.6-0.6,0.9-0.9
		c0,0,0.1,0.1,0.1,0.1c-0.3,0.3-0.6,0.6-0.9,0.9C72.4,64.8,72.3,64.7,72.3,64.7z M73.3,63.7c0.2-0.1,0.3-0.3,0.5-0.4
		c0,0,0.1,0.1,0.1,0.1c-0.1,0.1-0.3,0.3-0.4,0.4C73.4,63.7,73.3,63.7,73.3,63.7z M74.4,64C74.4,64,74.4,64,74.4,64
		c-0.1,0.1-0.2,0.2-0.4,0.3c0,0,0,0,0,0C74.1,64.2,74.2,64.1,74.4,64z M82.1,63.1C82.1,63.1,82.1,63,82.1,63.1
		C82.2,63,82.1,63.1,82.1,63.1C82.1,63.1,82.1,63.1,82.1,63.1z M81.6,67.5C81.6,67.5,81.5,67.5,81.6,67.5c-0.2,0.1-0.3,0.1-0.4,0.1
		c0,0,0-0.1,0.1-0.1C81.4,67.5,81.5,67.5,81.6,67.5z M79.9,69.2c0,0,0.1,0,0.1,0C79.9,69.2,79.9,69.2,79.9,69.2
		C79.9,69.2,79.9,69.2,79.9,69.2z M76,69.4c-0.1,0-0.3-0.1-0.4-0.2c0.1-0.2,0.2-0.3,0.3-0.5c0.1,0.1,0.3,0.2,0.4,0.2
		C76.2,69.1,76.1,69.2,76,69.4z M74.2,68.6c-0.1,0-0.1-0.1-0.1-0.1c0.1-0.1,0.2-0.2,0.3-0.2c0,0,0,0,0,0c0,0,0.1,0,0.1,0
		C74.4,68.4,74.3,68.5,74.2,68.6z M72,69.4c-0.1-0.1-0.2-0.1-0.4-0.2c0,0,0-0.1,0.1-0.1c0.3-0.3,0.6-0.7,0.9-1
		c0.1,0.1,0.2,0.2,0.3,0.2C72.6,68.7,72.3,69,72,69.4z M71.2,69c-0.3-0.2-0.6-0.3-0.8-0.5c0.3-0.4,0.6-0.7,1-1.1
		c0.2,0.1,0.4,0.2,0.6,0.2c-0.2,0.4-0.4,0.7-0.6,1C71.3,68.8,71.3,68.9,71.2,69z M70.8,66.4C70.8,66.4,70.8,66.4,70.8,66.4
		C70.8,66.4,70.8,66.4,70.8,66.4C70.8,66.4,70.8,66.4,70.8,66.4z M75.4,63.2C75.4,63.2,75.5,63.2,75.4,63.2
		c-0.1,0.2-0.3,0.4-0.4,0.5c0,0-0.1,0-0.1,0.1c0,0-0.1-0.1-0.1-0.1C75,63.5,75.2,63.3,75.4,63.2z M75.6,63.1
		c0.1-0.1,0.2-0.2,0.3-0.2c0,0,0,0,0,0C75.8,62.9,75.7,63,75.6,63.1C75.6,63.1,75.6,63.1,75.6,63.1z M82.2,62.8c0.1,0,0.1,0,0.2,0.1
		c0,0,0,0,0,0C82.3,62.9,82.2,62.9,82.2,62.8C82.2,62.9,82.2,62.8,82.2,62.8z M77.8,69.8c-0.2,0-0.4-0.1-0.6-0.1
		c0-0.1,0.1-0.1,0.1-0.2C77.5,69.6,77.7,69.7,77.8,69.8C77.8,69.8,77.8,69.8,77.8,69.8z M75.6,70.6c0,0-0.1,0-0.1,0
		c0.1-0.1,0.2-0.3,0.3-0.4c0,0,0,0,0,0C75.8,70.3,75.7,70.5,75.6,70.6z M75.2,70.5c-0.1,0-0.3-0.1-0.4-0.1c0.1-0.2,0.3-0.4,0.4-0.6
		c0.1,0.1,0.3,0.1,0.4,0.2C75.4,70.2,75.3,70.3,75.2,70.5z M74.5,70.4c-0.2-0.1-0.4-0.1-0.7-0.2c0.1-0.2,0.2-0.3,0.3-0.5
		c0.1-0.1,0.1-0.2,0.2-0.3c0.2,0.1,0.3,0.2,0.5,0.3C74.7,69.9,74.6,70.1,74.5,70.4z M73.3,70c-0.1,0-0.2-0.1-0.3-0.1
		c0.2-0.3,0.4-0.6,0.7-0.9c0.1,0,0.1,0.1,0.2,0.1C73.7,69.4,73.5,69.7,73.3,70z M71.2,70.5c-0.1,0-0.2-0.1-0.3-0.1
		c0.1-0.2,0.3-0.5,0.4-0.7c0.1,0.1,0.2,0.1,0.3,0.2C71.5,70,71.3,70.2,71.2,70.5z M72.3,70.4c-0.1,0.1-0.2,0.3-0.2,0.4
		c0,0-0.1,0-0.1,0C72.1,70.6,72.2,70.5,72.3,70.4z M70.4,70.1c-0.3-0.1-0.6-0.3-0.9-0.4c0.2-0.3,0.5-0.6,0.7-0.9
		c0.3,0.2,0.5,0.4,0.8,0.5C70.7,69.6,70.6,69.9,70.4,70.1z M69.8,68.2c-0.1-0.1-0.2-0.1-0.3-0.2c0.3-0.3,0.5-0.7,0.8-1
		c0.1,0,0.2,0.1,0.3,0.1c-0.1,0.2-0.2,0.3-0.3,0.5C70.1,67.8,69.9,68,69.8,68.2z M68.2,67.1c0.1-0.1,0.1-0.2,0.2-0.3
		c0.2-0.2,0.3-0.4,0.5-0.6c0,0,0,0,0,0C68.7,66.6,68.5,66.8,68.2,67.1C68.3,67.1,68.2,67.1,68.2,67.1z M68.2,67.3
		C68.1,67.3,68.1,67.3,68.2,67.3C68.1,67.3,68.1,67.3,68.2,67.3C68.2,67.3,68.2,67.3,68.2,67.3z M69.3,65.8c0.2-0.2,0.3-0.3,0.5-0.5
		c0,0,0,0,0,0C69.7,65.4,69.5,65.6,69.3,65.8C69.4,65.8,69.4,65.8,69.3,65.8C69.3,65.8,69.3,65.8,69.3,65.8z M69.8,65.2
		c0.2-0.2,0.4-0.4,0.6-0.6C70.2,64.8,70,65,69.8,65.2C69.8,65.3,69.8,65.2,69.8,65.2z M75.2,62.2C75.2,62.2,75.2,62.2,75.2,62.2
		c0,0.1-0.1,0.2-0.2,0.3c0,0-0.1-0.1-0.1-0.1C75,62.3,75.1,62.2,75.2,62.2z M75.3,62.1c0.1-0.1,0.2-0.1,0.4-0.2c0,0,0,0,0,0
		C75.6,62,75.5,62,75.3,62.1C75.4,62.1,75.4,62.1,75.3,62.1z M79.5,63.3C79.6,63.3,79.6,63.4,79.5,63.3c0,0.1-0.1,0.2-0.2,0.2
		c0,0,0,0,0,0c0,0,0,0-0.1,0C79.4,63.4,79.5,63.4,79.5,63.3z M80.8,69.2C80.8,69.2,80.8,69.2,80.8,69.2
		C80.8,69.2,80.8,69.2,80.8,69.2C80.8,69.2,80.8,69.2,80.8,69.2C80.8,69.2,80.8,69.2,80.8,69.2z M77.3,70.7c-0.3,0-0.5,0-0.8,0
		c0.1-0.1,0.1-0.1,0.2-0.2C76.9,70.5,77.1,70.6,77.3,70.7C77.3,70.7,77.3,70.7,77.3,70.7z M76.9,71.5c0,0.1-0.1,0.2-0.1,0.3
		c-0.3,0-0.6-0.1-0.9-0.1c0-0.1,0.1-0.2,0.1-0.2c0,0,0,0,0.1,0C76.3,71.5,76.6,71.5,76.9,71.5z M75.1,71.5c-0.1,0-0.2,0-0.3-0.1
		c0.1-0.1,0.1-0.2,0.2-0.2c0.1,0,0.1,0,0.2,0.1C75.2,71.4,75.1,71.5,75.1,71.5z M74.5,71.4c-0.1,0-0.3-0.1-0.4-0.1
		c0.1-0.1,0.1-0.2,0.2-0.3c0.1,0,0.3,0.1,0.4,0.1C74.7,71.3,74.6,71.3,74.5,71.4z M74,71.3c-0.3-0.1-0.5-0.1-0.8-0.2
		c0.1-0.1,0.2-0.3,0.3-0.4c0.2,0.1,0.5,0.2,0.7,0.3C74.1,71.1,74.1,71.2,74,71.3z M72.8,71c-0.1,0-0.3-0.1-0.4-0.1
		c0.1-0.2,0.2-0.3,0.4-0.5c0.1,0.1,0.2,0.1,0.4,0.2C72.9,70.7,72.8,70.8,72.8,71z M70.2,71.2c-0.1,0-0.1,0-0.2-0.1c0,0,0,0,0-0.1
		C70.1,71.1,70.2,71.1,70.2,71.2C70.2,71.2,70.2,71.2,70.2,71.2z M69.7,71c-0.3-0.1-0.7-0.2-1-0.3c0.1-0.1,0.1-0.2,0.2-0.3
		c0.3,0.2,0.6,0.4,0.9,0.5C69.8,71,69.8,71,69.7,71z M68.9,69.4c-0.1,0-0.2-0.1-0.3-0.1c0.2-0.4,0.5-0.7,0.7-1
		c0.1,0.1,0.2,0.1,0.2,0.2C69.3,68.7,69.1,69,68.9,69.4z M67.8,68.7C67.8,68.7,67.7,68.7,67.8,68.7c0-0.1,0.1-0.2,0.2-0.3
		C67.9,68.6,67.8,68.7,67.8,68.7z M80.4,62.8C80.5,62.8,80.5,62.8,80.4,62.8c0,0.1-0.1,0.1-0.1,0.2c0,0,0,0-0.1,0
		C80.3,62.9,80.4,62.8,80.4,62.8z M78.5,71.4c-0.1,0-0.2,0-0.2,0.1c0,0,0,0,0,0C78.3,71.5,78.4,71.5,78.5,71.4z M77.9,71.6
		c-0.2,0-0.4,0.1-0.7,0.1c0-0.1,0.1-0.1,0.1-0.2c0.2,0,0.4,0,0.6,0C78,71.5,77.9,71.6,77.9,71.6z M67.9,70.4
		c0.1-0.1,0.2-0.3,0.3-0.4c0.1,0.1,0.2,0.1,0.3,0.2c-0.1,0.1-0.1,0.3-0.2,0.4C68.1,70.5,68,70.4,67.9,70.4z M67.1,70
		c-0.1,0-0.2-0.1-0.2-0.1c0.1-0.2,0.3-0.4,0.4-0.6c0,0,0.1,0.1,0.1,0.1C67.3,69.6,67.2,69.8,67.1,70z M64.8,69.6
		c-0.1-0.1-0.2-0.1-0.3-0.2c0.1-0.2,0.2-0.3,0.3-0.5c0.1,0.1,0.2,0.1,0.3,0.2C65,69.3,64.9,69.5,64.8,69.6z M65.5,68
		c0.1,0,0.1,0.1,0.2,0.1c-0.2,0.3-0.4,0.6-0.6,0.9C65,69,64.9,69,64.8,68.9C65.1,68.6,65.3,68.3,65.5,68z M65.9,67.5
		c0.3-0.4,0.7-0.8,1.1-1.3c0,0,0,0,0.1,0.1c-0.3,0.4-0.7,0.9-1,1.3C66,67.6,66,67.6,65.9,67.5z M79.2,61.7
		C79.2,61.7,79.2,61.7,79.2,61.7c-0.1,0.1-0.2,0.2-0.4,0.2c0,0,0,0,0,0C79,61.8,79.1,61.8,79.2,61.7z M84.7,61.3c0,0,0.1,0,0.2,0.1
		c-0.1,0-0.2,0-0.3,0C84.6,61.4,84.7,61.3,84.7,61.3z M73.4,72.7C73.4,72.7,73.4,72.7,73.4,72.7c-0.3,0-0.7-0.1-1-0.2c0,0,0,0,0,0
		C72.7,72.6,73.1,72.6,73.4,72.7z M71.3,72.2c-0.1,0-0.2-0.1-0.3-0.1C71.1,72.1,71.2,72.1,71.3,72.2C71.3,72.2,71.3,72.2,71.3,72.2z
		 M63.8,71.5c-0.2-0.1-0.3-0.2-0.5-0.4c0.3-0.4,0.5-0.8,0.9-1.3c0.1,0.1,0.2,0.2,0.4,0.3C64.3,70.6,64,71.1,63.8,71.5z M63.1,71.1
		c-0.2-0.1-0.4-0.3-0.6-0.4c0.3-0.5,0.5-0.9,0.8-1.3c0.2,0.1,0.3,0.3,0.5,0.4C63.6,70.2,63.4,70.6,63.1,71.1z M66.9,64.9
		c0.1,0.1,0.2,0.1,0.3,0.2c-0.2,0.2-0.4,0.5-0.6,0.7c0,0-0.1-0.1-0.1-0.1s0,0,0.1,0.1c-0.4,0.5-0.7,0.9-1.1,1.4
		c-0.1-0.1-0.3-0.2-0.4-0.3C65.7,66.2,66.3,65.6,66.9,64.9z M67.7,65.5C67.7,65.5,67.8,65.5,67.7,65.5c-0.2,0.3-0.4,0.5-0.6,0.7
		c0,0,0,0-0.1,0c0,0,0.1-0.1,0.1-0.1C67.4,65.9,67.5,65.7,67.7,65.5z M68.1,65.1c0.1-0.1,0.2-0.2,0.4-0.3
		C68.4,64.9,68.3,65,68.1,65.1C68.1,65.1,68.1,65.1,68.1,65.1z M79.8,61.4C79.8,61.4,79.9,61.4,79.8,61.4c0,0.1-0.1,0.1-0.2,0.2
		c0,0,0,0,0,0C79.6,61.4,79.7,61.4,79.8,61.4z M83.5,69c-0.5,0.1-1.1,0.2-1.7,0.2c0,0,0-0.1,0.1-0.1c0.6-0.1,1.2-0.1,1.7-0.3
		C83.5,68.9,83.5,68.9,83.5,69z M73.7,72.7c-0.1,0-0.2,0-0.3,0c0,0,0,0,0,0C73.5,72.7,73.6,72.7,73.7,72.7
		C73.7,72.7,73.7,72.7,73.7,72.7z M69.7,72c-0.1,0-0.2-0.1-0.3-0.1c0,0,0,0,0-0.1C69.5,71.9,69.6,72,69.7,72z M69.2,71.9
		c-0.3-0.1-0.6-0.2-1-0.4c0-0.1,0.1-0.2,0.1-0.2C68.7,71.4,68.9,71.6,69.2,71.9C69.2,71.8,69.2,71.8,69.2,71.9z M67.8,71.3
		c-0.1,0-0.2-0.1-0.3-0.2c0.1-0.1,0.1-0.2,0.2-0.4c0.1,0.1,0.2,0.1,0.3,0.2C67.9,71.1,67.8,71.2,67.8,71.3z M66.7,70.7
		c-0.1-0.1-0.2-0.1-0.4-0.2c0.1-0.2,0.2-0.3,0.3-0.5c0,0,0.1,0,0.1,0.1c0,0,0.1,0.1,0.1,0.1C66.9,70.4,66.8,70.6,66.7,70.7z
		 M62.7,73.8c-0.1,0-0.1-0.1-0.2-0.1c-0.4-0.3-0.8-0.5-1.1-0.8c0-0.1,0.1-0.2,0.1-0.3c0.2-0.5,0.5-1,0.8-1.5
		c0.2,0.2,0.4,0.3,0.5,0.5c-0.5,1-0.8,1.6-0.8,1.6s0.3-0.6,0.9-1.5c0.2,0.1,0.4,0.3,0.5,0.4C63.2,72.7,63,73.3,62.7,73.8z
		 M62.5,74.4c-0.3,0.7-0.6,1.4-0.8,2c-0.5-0.3-1-0.6-1.5-0.9c0.3-0.7,0.6-1.4,0.9-2.2C61.6,73.8,62,74.1,62.5,74.4z M58.8,74.6
		c0.4-0.6,0.8-1.3,1.3-2.1c0.1,0.1,0.3,0.3,0.4,0.4c-0.1,0.4-0.2,0.8-0.3,1.1c-0.2,0.4-0.3,0.9-0.5,1.3C59.4,75,59.1,74.8,58.8,74.6
		z M59.1,75.6c-0.3-0.1-0.5-0.3-0.8-0.4c0-0.1,0.1-0.1,0.1-0.2C58.7,75.3,58.9,75.4,59.1,75.6z M60.3,72.1c0.3-0.4,0.6-0.9,1-1.3
		c-0.2,0.6-0.4,1.1-0.6,1.6C60.6,72.3,60.5,72.2,60.3,72.1z M60.1,71.9c-0.3-0.2-0.5-0.4-0.8-0.6c0.3-0.6,0.7-1.2,1.1-1.9
		c0.2,0.2,0.5,0.5,0.8,0.7C60.8,70.8,60.4,71.4,60.1,71.9z M62.2,65c-0.5,0.5-0.9,1.1-1.3,1.8c-0.1-0.1-0.1-0.1-0.2-0.2
		C61.2,66,61.6,65.5,62.2,65C62.1,65,62.2,65,62.2,65z M60.8,67c-0.3,0.5-0.6,1-0.9,1.5c-0.1-0.1-0.2-0.2-0.3-0.3
		c0.3-0.5,0.7-0.9,1-1.4C60.6,66.9,60.7,66.9,60.8,67z M58.8,70.8c-0.2-0.2-0.4-0.3-0.5-0.5c0.4-0.7,0.8-1.3,1.2-2
		c0.1,0.1,0.2,0.2,0.3,0.3C59.4,69.4,59.1,70.1,58.8,70.8z M59.2,65.4c0.6-0.6,1.2-1.1,1.8-1.6c0,0,0,0,0.1,0.1
		c-0.5,0.6-1,1.2-1.5,1.8C59.4,65.6,59.3,65.5,59.2,65.4z M61.1,63.7c0.1-0.1,0.3-0.2,0.4-0.3C61.4,63.5,61.3,63.6,61.1,63.7
		C61.2,63.7,61.2,63.7,61.1,63.7z M63,64.1c-0.2,0.2-0.4,0.4-0.6,0.7c0,0-0.1,0-0.1-0.1c0,0,0.1-0.1,0.1-0.1
		C62.6,64.4,62.8,64.3,63,64.1z M61.6,67.8c0.2,0.2,0.5,0.4,0.8,0.7c0,0.1-0.1,0.1-0.1,0.2c-0.3,0.4-0.6,0.8-0.8,1.2
		c-0.3-0.2-0.6-0.4-0.8-0.7C60.9,68.7,61.3,68.2,61.6,67.8z M80.5,61C80.5,61,80.5,61.1,80.5,61c0,0.1,0,0.1-0.1,0.1
		c0,0-0.1,0-0.1,0C80.4,61.1,80.4,61.1,80.5,61z M69.5,73.1c0,0.1,0,0.1-0.1,0.2c-0.3-0.1-0.6-0.2-0.8-0.3c0.1-0.1,0.1-0.2,0.2-0.2
		C69,72.9,69.3,73,69.5,73.1z M68.5,73c-0.3-0.1-0.6-0.2-0.9-0.3c0.1-0.1,0.1-0.3,0.2-0.4c0.3,0.2,0.6,0.3,0.9,0.4
		C68.6,72.8,68.6,72.9,68.5,73z M67.2,72.5c-0.1-0.1-0.3-0.1-0.4-0.2c0.1-0.2,0.2-0.3,0.3-0.5c0.1,0.1,0.2,0.1,0.3,0.2
		C67.3,72.2,67.3,72.3,67.2,72.5z M66.1,72c-0.2-0.1-0.4-0.2-0.6-0.3c0.1-0.2,0.3-0.4,0.4-0.6c0.1,0.1,0.3,0.2,0.4,0.3
		C66.3,71.6,66.2,71.8,66.1,72z M66,72.1c-0.1,0.2-0.2,0.4-0.3,0.6c-0.2-0.1-0.4-0.3-0.7-0.4c0.1-0.2,0.2-0.4,0.4-0.6
		C65.6,71.9,65.8,72,66,72.1z M64.6,75.8c-0.2,0.6-0.4,1.2-0.6,1.8c-0.6-0.2-1.3-0.5-1.9-0.9c0.3-0.6,0.6-1.3,0.9-1.9
		c0.2,0.1,0.3,0.2,0.5,0.3c0,0,0,0,0,0s0,0,0,0C63.8,75.4,64.2,75.6,64.6,75.8z M63.7,78.6c-0.1,0.4-0.2,0.8-0.4,1.2
		c-0.7-0.2-1.5-0.4-2.2-0.7c0.2-0.5,0.4-1,0.6-1.5C62.4,77.9,63,78.3,63.7,78.6z M60.9,80.5c-0.1,0-0.1-0.1-0.2-0.1
		c-0.1,0-0.1-0.1-0.2-0.1c0.1-0.2,0.1-0.4,0.2-0.6c0.7,0.4,1.5,0.7,2.2,1c0,0.1-0.1,0.3-0.1,0.4C62.3,81,61.6,80.8,60.9,80.5z
		 M58.8,79.3c0.1-0.2,0.1-0.4,0.2-0.6c0.5,0.4,1,0.7,1.6,1c-0.1,0.2-0.1,0.4-0.2,0.6C59.9,79.9,59.3,79.6,58.8,79.3z M59.2,78.1
		c0.2-0.6,0.4-1.1,0.7-1.8c0.2,0.1,0.3,0.2,0.5,0.3c0.3,0.2,0.6,0.5,1,0.7c-0.2,0.6-0.4,1.1-0.5,1.6c-0.5-0.2-0.9-0.4-1.4-0.7
		C59.4,78.2,59.3,78.1,59.2,78.1z M58.9,77.9c-0.6-0.4-1.2-0.8-1.8-1.2c0.2-0.5,0.4-1.1,0.6-1.7c0.2,0.1,0.3,0.2,0.5,0.3
		c-0.3,0.7-0.5,1.1-0.5,1.1s0.2-0.4,0.6-1c0.4,0.2,0.7,0.5,1.2,0.7C59.3,76.7,59.1,77.3,58.9,77.9z M57.7,74.9
		c0-0.1,0.1-0.2,0.1-0.3c0.2,0.1,0.3,0.3,0.5,0.4c0,0.1-0.1,0.1-0.1,0.2C58.1,75.1,57.9,75,57.7,74.9z M58.1,74
		c0.3-0.7,0.6-1.4,0.9-2.2c0-0.1,0.1-0.2,0.1-0.2c0.2,0.2,0.5,0.5,0.7,0.7c-0.5,0.8-0.9,1.6-1.2,2.2C58.5,74.3,58.3,74.2,58.1,74z
		 M57.7,73.7c-0.3-0.2-0.5-0.4-0.8-0.6c0.4-0.9,0.8-1.7,1.2-2.5c0.2,0.2,0.3,0.4,0.5,0.5C58.3,72,57.9,72.9,57.7,73.7z M57.2,69.4
		c-0.3-0.3-0.6-0.6-0.8-0.8c0.5-0.7,1-1.3,1.5-1.9c0.2,0.2,0.4,0.4,0.6,0.6c-0.2,0.3-0.4,0.7-0.6,1C57.6,68.7,57.4,69.1,57.2,69.4z
		 M63.1,65.9c0.2,0.2,0.3,0.3,0.5,0.5c-0.4,0.6-0.7,1.2-1,1.8c-0.3-0.2-0.5-0.4-0.8-0.6c0.2-0.3,0.5-0.7,0.8-1
		C62.7,66.3,62.9,66.1,63.1,65.9z M94.6,61.5C94.6,61.5,94.6,61.5,94.6,61.5C94.6,61.5,94.6,61.5,94.6,61.5
		C94.6,61.5,94.6,61.5,94.6,61.5z M81.2,71.4C81.1,71.4,81.1,71.4,81.2,71.4c-0.3,0.2-0.5,0.3-0.7,0.4c0,0-0.1,0-0.1,0
		C80.7,71.6,80.9,71.5,81.2,71.4C81.2,71.3,81.2,71.4,81.2,71.4z M71.7,73.8C71.7,73.8,71.7,73.8,71.7,73.8c0.1,0,0.2,0,0.3,0
		c0.2,0,0.3,0.1,0.5,0.1C72.3,73.9,72,73.8,71.7,73.8z M69.5,73.3C69.5,73.3,69.5,73.3,69.5,73.3c0-0.1,0-0.1,0.1-0.2c0,0,0,0,0,0
		C69.5,73.1,69.5,73.2,69.5,73.3z M69.2,73.7c-0.1,0.2-0.2,0.3-0.2,0.5c-0.3-0.1-0.6-0.2-0.9-0.3c0.1-0.1,0.2-0.3,0.3-0.5
		C68.7,73.5,68.9,73.6,69.2,73.7z M67.1,73.5c0.1-0.2,0.2-0.4,0.3-0.6c0.3,0.1,0.6,0.3,0.9,0.4c-0.1,0.2-0.2,0.4-0.3,0.5
		C67.7,73.7,67.4,73.6,67.1,73.5z M66.8,73.3c-0.1-0.1-0.3-0.1-0.4-0.2c0.1-0.2,0.2-0.4,0.3-0.6c0.1,0.1,0.2,0.1,0.4,0.2
		C67,72.9,66.9,73.1,66.8,73.3z M66.5,74.1c-0.2,0.5-0.4,0.9-0.5,1.3c-0.2-0.1-0.3-0.1-0.5-0.2c0.2-0.4,0.4-0.9,0.6-1.3
		C66.2,74,66.3,74.1,66.5,74.1z M65.6,76.3c-0.2,0.7-0.4,1.3-0.5,1.6c-0.2-0.1-0.4-0.2-0.7-0.2c0.2-0.5,0.4-1.1,0.7-1.7
		C65.3,76.2,65.5,76.3,65.6,76.3z M69.9,79.9c-0.8,0.2-1.9,0.3-3.2,0.4c0.1-0.2,0.2-0.4,0.3-0.6C67.9,79.8,68.9,79.9,69.9,79.9z
		 M67.6,81.2c-0.4,0.1-0.9,0.2-1.3,0.2c0-0.1,0-0.1,0.1-0.2C66.7,81.2,67.2,81.2,67.6,81.2z M58.6,79.1c-0.7-0.5-1.3-0.9-1.8-1.4
		c0.1-0.2,0.1-0.4,0.2-0.6c0.6,0.5,1.2,0.9,1.8,1.4C58.7,78.7,58.6,78.9,58.6,79.1z M56.6,77.6c-0.4-0.3-0.7-0.6-1-0.8
		c0.1-0.2,0.1-0.4,0.2-0.6c0.3,0.3,0.6,0.5,0.9,0.8C56.7,77.1,56.6,77.4,56.6,77.6z M55.9,75.8c0.3-0.7,0.5-1.5,0.8-2.3
		c0.2,0.2,0.5,0.5,0.8,0.7c0,0.1-0.1,0.3-0.1,0.4c-0.5-0.3-0.7-0.5-0.7-0.5s0.3,0.2,0.7,0.5c-0.2,0.6-0.4,1.2-0.5,1.8
		C56.5,76.3,56.2,76,55.9,75.8z M55.4,75.4c0,0-0.1-0.1-0.1-0.1c0.2-0.5,0.5-1.3,0.8-2.2C55.8,73.9,55.6,74.7,55.4,75.4z M56.1,72.4
		c-0.1,0-0.1-0.1-0.1-0.1c0.2-0.2,0.3-0.5,0.5-0.7C56.3,71.8,56.2,72.1,56.1,72.4z M55.6,72c-0.3-0.3-0.6-0.5-0.9-0.8
		c0.5-0.9,1-1.8,1.6-2.5c0.2,0.2,0.5,0.5,0.8,0.9C56.6,70.4,56.1,71.2,55.6,72z M65.3,63.7c0.1,0.1,0.2,0.1,0.2,0.2
		c-0.6,0.6-1.2,1.3-1.7,2c-0.2-0.1-0.3-0.3-0.5-0.4C64,64.9,64.6,64.3,65.3,63.7z M78.3,59.7c0,0,0.1,0,0.1,0
		c-0.1,0-0.2,0.1-0.2,0.1c0,0,0,0,0,0C78.2,59.7,78.3,59.7,78.3,59.7z M81.2,60.7c0.5-0.2,1-0.4,1.5-0.6c0,0,0.1,0.1,0.1,0.1
		C82.4,60.3,81.9,60.5,81.2,60.7C81.3,60.7,81.3,60.7,81.2,60.7z M95.7,61c0,0,0.1,0,0.1,0c0,0,0,0,0,0C95.8,61.1,95.7,61.1,95.7,61
		C95.7,61,95.7,61,95.7,61z M97.4,62.9c-0.1,0-0.1,0-0.2,0.1c0-0.1,0.1-0.1,0.1-0.2c0.1,0,0.1,0,0.1,0
		C97.4,62.8,97.4,62.9,97.4,62.9z M73.5,74.7c0,0.1-0.1,0.2-0.1,0.3c-0.7,0-1.4-0.1-2.1-0.3c0.1-0.1,0.1-0.2,0.2-0.4
		C72.1,74.6,72.8,74.7,73.5,74.7z M71,74.7c-0.5-0.1-0.9-0.2-1.4-0.4c0.1-0.1,0.2-0.3,0.3-0.4c0.4,0.2,0.9,0.3,1.3,0.4
		C71.1,74.5,71,74.6,71,74.7z M68.1,76c-0.6-0.1-1.3-0.3-2-0.5c0.2-0.4,0.4-0.8,0.6-1.2c0.6,0.3,1.2,0.6,1.8,0.9
		C68.4,75.5,68.2,75.8,68.1,76z M67.7,77c-0.2,0.5-0.4,0.9-0.5,1.3c-0.6-0.1-1.2-0.1-1.8-0.3c-0.1,0-0.2,0-0.3-0.1
		c0.1-0.3,0.3-0.9,0.6-1.6c0.6,0.2,1.1,0.4,1.7,0.6C67.5,77,67.6,77,67.7,77z M71.6,79.7c0,0,0,0.1,0,0.1c-0.2,0.1-0.6,0.3-1.1,0.5
		c0.2-0.1,0.4-0.3,0.6-0.5C71.2,79.8,71.4,79.7,71.6,79.7z M58.5,80.4C58.5,80.4,58.5,80.4,58.5,80.4C58.5,80.4,58.5,80.4,58.5,80.4
		C58.5,80.4,58.5,80.4,58.5,80.4z M58.3,80.3c-0.7-0.3-1.4-0.5-2-0.8c0.1-0.2,0.1-0.4,0.2-0.6C57,79.4,57.6,79.8,58.3,80.3
		C58.3,80.3,58.3,80.3,58.3,80.3z M56.6,78.2c0-0.1,0.1-0.2,0.1-0.3c0.4,0.4,0.8,0.7,1.3,1.1c-0.3-0.2-0.6-0.4-1-0.6
		C56.9,78.4,56.7,78.3,56.6,78.2z M56.4,78.1c-0.4-0.3-0.7-0.5-1-0.8c0.1-0.2,0.1-0.3,0.2-0.5c0.3,0.3,0.6,0.6,1,1
		C56.5,77.9,56.5,78,56.4,78.1z M55,77c-0.4-0.3-0.8-0.6-1.2-0.9c0.2-0.4,0.4-0.8,0.6-1.2c0.2,0.2,0.4,0.4,0.7,0.7
		C55,75.9,55,76.1,55,76.1s0.1-0.2,0.2-0.6c0,0,0.1,0.1,0.1,0.1c-0.1,0.2-0.1,0.4-0.2,0.6c-0.2-0.2-0.3-0.3-0.3-0.3s0.1,0.1,0.3,0.3
		C55.1,76.6,55,76.8,55,77z M54.5,74.7c0.4-0.6,0.8-1.3,1.2-2.1c0.1,0.1,0.1,0.1,0.2,0.2c-0.4,1-0.6,1.9-0.8,2.5
		C55,75,54.7,74.9,54.5,74.7z M54.3,74.5c-0.3-0.3-0.6-0.5-0.8-0.7c0.3-0.7,0.6-1.4,0.9-2.1c0.1-0.1,0.1-0.2,0.2-0.3
		c0.3,0.3,0.5,0.6,0.8,0.9C55.1,73.1,54.7,73.8,54.3,74.5z M54.2,70.7c-0.2-0.2-0.3-0.3-0.5-0.5c0.2-0.4,0.4-0.8,0.6-1.2
		c0-0.1,0.1-0.1,0.1-0.2c0.8-1.2,1.6-2.2,2.5-3.2c0.1,0.1,0.1,0.2,0.2,0.3c-0.5,0.6-1,1.3-1.5,1.9c0,0,0,0,0,0s0,0,0,0
		C55.2,68.8,54.7,69.7,54.2,70.7z M68.4,60C68.4,60,68.4,60,68.4,60c0,0-0.1,0.1-0.2,0.1c-0.1,0-0.2,0.1-0.3,0.1
		C68.1,60.1,68.2,60.1,68.4,60z M68.9,61.3c-0.9,0.6-1.8,1.2-2.5,1.8c-0.2,0.2-0.5,0.4-0.7,0.6c-0.1-0.1-0.2-0.1-0.2-0.2
		C66.6,62.6,67.8,61.9,68.9,61.3z M86,73.1c0-0.6,0.1-1.1,0.2-1.7c0,0.2,0,0.3,0,0.5c0,0.3-0.1,0.5-0.1,0.8
		C86.1,72.8,86.1,72.9,86,73.1z M85.7,68.7c-0.1,0-0.2,0.1-0.3,0.1c0,0,0-0.1,0.1-0.1c0.1-0.1,0.2-0.2,0.3-0.3c0,0-0.1,0-0.2,0.1
		c0.1-0.1,0.1-0.2,0.2-0.3c0.1-0.1,0.3-0.1,0.4-0.2C86,68.2,85.8,68.4,85.7,68.7z M75.3,74.7c-0.1,0.1-0.1,0.3-0.2,0.4
		c-0.4,0-0.9,0-1.3,0c0.1-0.1,0.1-0.2,0.2-0.3C74.4,74.8,74.9,74.8,75.3,74.7z M73.5,76.2c-0.1,0-0.1,0-0.2,0c0,0,0,0,0,0
		C73.3,76.2,73.4,76.2,73.5,76.2z M72.8,76.3c-0.7,0.1-1.5,0.1-2.3,0.1c0.1-0.1,0.1-0.3,0.2-0.5c0.7,0.1,1.4,0.2,2.2,0.3
		C72.8,76.2,72.8,76.2,72.8,76.3z M72.4,77.2c-0.1,0.3-0.2,0.5-0.3,0.8c-1.3,0.3-2.9,0.5-4.6,0.3c0.2-0.4,0.4-0.8,0.6-1.3
		C69.4,77.3,71.1,77.5,72.4,77.2z M71.8,79.6c0,0-0.1,0-0.2,0.1c0,0,0,0,0-0.1C71.7,79.7,71.8,79.7,71.8,79.6z M68.7,82.6
		c0,0-0.1,0-0.1,0c0,0,0,0,0,0C68.6,82.6,68.7,82.6,68.7,82.6z M62.1,85c0.1-0.2,0.1-0.5,0.2-0.9c0.5,0.1,1,0.2,1.5,0.2
		C63.4,84.5,62.8,84.8,62.1,85z M62.6,83.2c0.1-0.3,0.2-0.5,0.3-0.8c0.1,0,0.2,0,0.4,0.1c0.6,0.2,1.2,0.4,1.8,0.4
		c0.4,0,0.8,0.1,1.2,0.1c-0.2,0.1-0.3,0.2-0.5,0.4C64.8,83.3,63.7,83.3,62.6,83.2z M62.5,83.2c-0.8-0.1-1.7-0.3-2.6-0.7
		c0.1-0.2,0.2-0.5,0.3-0.8c0.8,0.3,1.7,0.5,2.5,0.7C62.6,82.6,62.5,82.9,62.5,83.2z M58,81.7c-0.7-0.4-1.4-0.7-2-1.1
		c0-0.2,0.1-0.4,0.2-0.7c0.6,0.3,1.3,0.7,2,1C58.1,81.1,58,81.4,58,81.7z M54.9,78.9c0.1-0.3,0.2-0.7,0.3-1c0.3,0.3,0.7,0.6,1.1,0.9
		c-0.1,0.2-0.1,0.5-0.1,0.7C55.7,79.3,55.3,79.1,54.9,78.9z M54.6,78.7c-0.7-0.3-1.2-0.6-1.6-0.9c0.1-0.2,0.3-0.7,0.7-1.4
		c0.4,0.4,0.8,0.8,1.2,1.1C54.7,78,54.7,78.3,54.6,78.7z M52.9,77.8c-0.3-0.2-0.5-0.3-0.7-0.4c0.2-0.5,0.4-1.1,0.6-1.8
		c0.2,0.2,0.5,0.5,0.7,0.7C53.2,77.1,53,77.7,52.9,77.8z M53,75.3c0.2-0.5,0.4-0.9,0.6-1.4c0.2,0.2,0.5,0.5,0.8,0.8
		c-0.2,0.5-0.4,0.9-0.6,1.3C53.4,75.7,53.2,75.5,53,75.3z M52.6,75C52.6,75,52.6,75,52.6,75c0-0.1,0.1-0.3,0.1-0.4
		C52.7,74.7,52.7,74.9,52.6,75z M52.6,75c-0.2-0.1-0.3-0.3-0.5-0.4c0.4-1.1,0.9-2.6,1.6-4.2c0.1,0.2,0.3,0.3,0.4,0.5
		c-0.4,0.8-0.7,1.7-1,2.6c-0.2-0.2-0.3-0.3-0.3-0.3s0.1,0.1,0.3,0.3c-0.1,0.2-0.1,0.4-0.2,0.6C52.7,74.5,52.6,74.8,52.6,75z
		 M51.9,74.4c-0.1-0.1-0.2-0.1-0.2-0.2c0.1-0.2,0.1-0.3,0.2-0.5c0.2-0.4,0.4-0.9,0.6-1.3C52.2,73.1,52.1,73.8,51.9,74.4z M59.3,61.9
		c0,0-0.1-0.1-0.1-0.1c0.6-0.3,1.1-0.6,1.6-0.9C60.3,61.2,59.8,61.6,59.3,61.9z M56.1,61.7c-0.1,0-0.1,0.1-0.2,0.1
		c0.3-0.2,0.5-0.4,0.7-0.5c0,0,0.1,0,0.1,0C56.6,61.4,56.3,61.5,56.1,61.7z M63.2,60.4c0.3,0,0.6-0.1,0.9-0.1
		c-0.5,0.1-1,0.3-1.6,0.5c0.2-0.1,0.4-0.3,0.6-0.4C63.2,60.5,63.2,60.5,63.2,60.4z M96.1,59.4C96.1,59.4,96.1,59.4,96.1,59.4
		C96.1,59.4,96.1,59.4,96.1,59.4C96.1,59.4,96.1,59.4,96.1,59.4z M99.8,62.3c-0.4,0.1-0.8,0.2-1.2,0.3c0-0.1,0.1-0.1,0.1-0.2
		c0.9-0.2,1.6-0.4,2.1-0.4c0.1,0,0.3,0.1,0.4,0.1C100.7,62.1,100.3,62.2,99.8,62.3z M87.6,70.7c0,0-0.1,0.1-0.1,0.1
		c0.1-0.4,0.2-0.7,0.3-1c0,0,0,0,0,0C87.6,70.1,87.6,70.4,87.6,70.7C87.6,70.6,87.6,70.7,87.6,70.7z M84.2,72.6
		C84.2,72.6,84.2,72.6,84.2,72.6c0,0,0,0.1,0,0.1C84.2,72.7,84.2,72.6,84.2,72.6z M84.6,70.9c0.2-0.6,0.4-1.2,0.6-1.7
		c0.1-0.1,0.2-0.2,0.3-0.3c-0.3,0.5-0.5,1-0.7,1.6C84.7,70.7,84.6,70.8,84.6,70.9z M81.1,78.4C81.1,78.4,81.1,78.4,81.1,78.4
		c0,0,0-0.1,0-0.1C81.1,78.3,81.1,78.3,81.1,78.4z M75.4,75.1c0.1-0.1,0.1-0.3,0.2-0.4c0,0,0.1,0,0.1,0c0.3-0.1,0.6-0.1,1-0.2
		c-0.2,0.3-0.3,0.5-0.3,0.6C76,75,75.7,75.1,75.4,75.1z M74.7,76.2c-0.2,0.5-0.3,0.9-0.5,1.2c-0.5,0.2-1.1,0.4-1.8,0.5
		c0.1-0.3,0.2-0.5,0.4-0.8C73.6,77,74.2,76.7,74.7,76.2C74.6,76.2,74.7,76.2,74.7,76.2z M68.7,83.8C68.7,83.8,68.7,83.8,68.7,83.8
		c0.1-0.2,0.1-0.3,0.2-0.4c0.2-0.1,0.4-0.2,0.6-0.3c-0.2,0.2-0.4,0.5-0.5,0.8c-0.2,0.4-0.4,0.8-0.4,1.3c0,0.1,0,0.1,0,0.2
		C68.6,84.4,68.7,83.8,68.7,83.8z M51.6,74.4c0.1,0.1,0.2,0.2,0.3,0.3c-0.3,1.5-0.5,2.5-0.5,2.5s0.2-0.9,0.6-2.3
		c0.2,0.2,0.3,0.4,0.5,0.5c-0.2,0.7-0.4,1.4-0.5,2c-0.1-0.1-0.2-0.1-0.2-0.1s0.1,0.1,0.2,0.2c-0.5,2.1-0.7,3.5-0.7,3.5
		s0.3-1.3,0.9-3.4c0.5,0.3,1.3,0.9,2.3,1.5c0,0.2-0.1,0.4-0.1,0.7c-0.8-0.5-1.2-0.9-1.2-0.9s0.4,0.4,1.2,1c-0.5,2.6-0.7,4.4-0.7,4.4
		s0.2-1.7,0.9-4.2c0.4,0.3,0.8,0.6,1.2,0.9c0,0.2,0,0.3,0,0.3s0-0.1,0.1-0.3c0.6,0.4,1.3,0.9,2,1.3c-0.2,1-0.3,1.6-0.3,1.6
		s0.1-0.6,0.4-1.5c0.6,0.3,1.2,0.6,1.8,0.9c0,0,0,0.1,0,0.1s0,0,0-0.1c0.8,0.4,1.7,0.7,2.6,0.9c-0.1,0.4-0.2,0.7-0.2,1
		c-0.3,0.1-0.7,0.2-1.1,0.3c-0.8,0.1-1.7,0-2.7-0.1c-4.3-0.6-7.7-2-7.7-2s3,1.4,6.4,2.2c0,0-0.1,0-0.1,0c-3.6-0.8-6.6-2-7.7-2.4
		C49.4,81.3,50.2,78,51.6,74.4z M50.7,73.2c0.4-0.7,0.9-1.4,1.5-2.2c-0.4,0.9-0.7,1.7-1,2.6C51,73.5,50.8,73.3,50.7,73.2z
		 M59.2,61.8c0,0,0.1,0.1,0.1,0.1c-0.8,0.6-1.6,1.3-2.2,1.9c-0.6,0.6-1.1,1.2-1.5,1.8c-1,1-2,2.2-2.8,3.4c-0.2-0.2-0.3-0.3-0.3-0.3
		s0.1,0.1,0.3,0.3c-0.9,1.2-1.6,2.5-2.3,3.7c-0.2-0.2-0.4-0.4-0.6-0.6c0.6-1.1,1.3-2.4,2.2-3.8C54.1,65.4,56.8,63.2,59.2,61.8z
		 M99.5,58.5c-0.3,0.4-0.6,0.8-0.8,1.2c-0.1,0.1-0.2,0.1-0.2,0.2c-0.3,0.1-0.7,0.3-1,0.5c-0.4-0.1-0.7-0.1-1.1-0.2
		c1-0.4,2.1-0.9,2.8-1.6C99.2,58.6,99.3,58.6,99.5,58.5z M98.3,65c-0.1-0.5-0.1-0.9-0.1-1.4c0.3-0.1,0.7-0.2,1-0.4
		c1.3-0.3,2.4-0.5,3.2-0.6c-0.7,0.9-1.8,1.8-3.3,2.1C98.9,64.9,98.6,64.9,98.3,65z M96.4,65.2c0.1-0.3,0.2-0.6,0.3-0.9
		c0.1,0,0.2-0.1,0.3-0.1c-0.1,0.3-0.2,0.7-0.2,1C96.6,65.2,96.5,65.2,96.4,65.2z M86.1,79.5c-0.2-0.6-0.4-1.3-0.6-2.1
		c-0.3-1.3-0.4-2.5-0.3-3.7c0.1,0.8,0.3,1.6,0.7,2.4c0,0.5,0.1,0.9,0.1,1.3c0.3,1.7,1.3,3.5,2.5,5.1C88,82.2,87,81.1,86.1,79.5z
		 M83.1,74.4C83.1,74.4,83.1,74.4,83.1,74.4c0,0.3,0.1,0.5,0.2,0.8c-0.1,0.3-0.1,0.6-0.1,0.9C83.1,75.6,83.1,75,83.1,74.4z M82,76
		c-0.1-0.2-0.1-0.5-0.1-0.7c0.1-0.5,0.2-1,0.3-1.4c-0.1,0.6-0.1,1.2,0,1.8C82.1,75.7,82.1,75.8,82,76z M82,80.8
		c-0.1-0.1-0.1-0.3-0.2-0.4c-0.3-0.7-0.5-1.3-0.7-1.9c0,0,0,0,0,0C81.3,79.2,81.6,80,82,80.8z M78.5,77.7c-0.1-1.3,0-2.3,0.1-3
		c0,0,0.1-0.1,0.1-0.1c0,0,0,0-0.1,0c0.1-0.6,0.2-0.9,0.2-0.9c0,0,0,0,0,0c0,0,0-0.1,0.1-0.1c0.4-0.2,0.9-0.4,1.3-0.7
		c-0.6,1.2-1,2.5-1.1,3.5c0,0.1,0,0.2,0,0.4C78.7,77.2,78.6,77.5,78.5,77.7z M76.2,78.2c0-0.2,0-0.3,0-0.4c0.4-1.1,0.8-1.8,0.8-1.8
		c-0.2,0.1-0.4,0.2-0.5,0.3c0-0.1,0-0.2,0-0.2c-0.3,0.2-0.5,0.4-0.7,0.6c-0.3,0.2-0.8,0.4-1.5,0.6c0.1-0.3,0.3-0.7,0.5-1.2
		c0.9,0,1.7-0.2,2.4-0.5C76.8,76.6,76.5,77.5,76.2,78.2z M73.4,80.4c0.3-0.8,0.5-1.3,0.6-1.3c0,0.2-0.1,0.5-0.1,0.8
		C73.7,80,73.6,80.2,73.4,80.4z"/>
	
		<radialGradient id="SVGID_4_" cx="441.118" cy="-430.0028" r="10.9979" gradientTransform="matrix(-0.7522 0.7973 0.9937 0.6035 811.9489 -2.1507)" gradientUnits="userSpaceOnUse">
		<stop  offset="0.5071" style="stop-color:#E3B6BF"/>
		<stop  offset="1" style="stop-color:#1B0C75"/>
	</radialGradient>
	<path fill="url(#SVGID_4_)" d="M63.2,89.9c-0.1,1.9-3.7,3-6.1,3.4c-5.6,0.8-15-3.4-15-3.4s4,1.6,9,2.4
		C58.7,93.6,63.2,89.9,63.2,89.9z"/>
	
		<radialGradient id="SVGID_5_" cx="463.6218" cy="-420.8853" r="10.0162" gradientTransform="matrix(-0.7522 0.7973 1.0514 0.6386 836.2394 12.6026)" gradientUnits="userSpaceOnUse">
		<stop  offset="0.5071" style="stop-color:#E3B6BF"/>
		<stop  offset="1" style="stop-color:#1B0C75"/>
	</radialGradient>
	<path fill="url(#SVGID_5_)" d="M49.7,114.1c-4.3,2.9-14.2,3.2-14.2,3.2s4.1-0.3,8.7-1.6c7-2,9-6.8,9-6.8
		C54,110.5,51.6,112.9,49.7,114.1z"/>
	
		<radialGradient id="SVGID_6_" cx="450.5017" cy="-419.0947" r="15.3012" gradientTransform="matrix(-0.7522 0.7973 0.9937 0.6035 811.9489 -2.1507)" gradientUnits="userSpaceOnUse">
		<stop  offset="0.5071" style="stop-color:#E3B6BF"/>
		<stop  offset="1" style="stop-color:#1B0C75"/>
	</radialGradient>
	<path fill="url(#SVGID_6_)" d="M53.2,108.9c-4.3,2.8-14.1,2.1-14.1,2.1s4.1,0.1,8.6-0.9c2.7-0.6,4.6-1.7,6-2.8
		c-4.1,2.1-12.4-0.6-12.4-0.6s3.5,0.9,7.5,0.8c3.6-0.1,6-1.9,7.3-3.4c-0.6,0.4-1.4,0.7-2,0.9c-3.9,1.3-11.6-0.4-11.6-0.4
		s3.2,0.6,7,0.5c3.8-0.1,6.1-1.5,7.3-2.4c0-0.3,0.1-0.5,0.2-0.8c-0.3,0.1-0.5,0.3-0.8,0.4c-0.4,0.2-0.8,0.4-1.1,0.6
		c-5.1,2.4-15.1-0.6-15.1-0.6s1.7,0.4,4.2,0.7c-2.2-0.3-3.8-0.7-3.8-0.7s4.1,0.8,8.8,0.7c1.5,0,2.8-0.2,3.9-0.5c2.2-0.8,3.9-2,4.9-3
		c-0.8,0.4-1.7,0.8-2.5,1c-4.8,1.5-14.1-0.4-14.1-0.4s3.9,0.6,8.5,0.5c1.3,0,2.5-0.2,3.5-0.4c-5.2,0.5-12.2-1.1-12.2-1.1
		s4.1,0.8,9,0.7c6.1-0.1,9.3-3,10.3-4c0.1-0.4,0.2-0.9,0.3-1.3c-0.4,0.3-0.9,0.7-1.4,1c-1.2,1.1-3.2,2.1-4.9,2.6
		c-6.1,2-17.8-0.5-17.8-0.5s4.9,0.8,10.8,0.7c2.6-0.1,4.7-0.5,6.5-1.1c-5,0.5-11-0.6-11-0.6s4.2,0.5,9,0.2c3-0.2,5.3-1.2,6.9-2.1
		c0.2-0.2,0.4-0.3,0.5-0.4c-0.7,0.3-1.5,0.6-2.2,0.8c-5.1,1.3-13.7-2.3-13.7-2.3s3.7,1.3,8.2,1.8c5.9,0.6,9.6-2.2,10.6-3.1
		c0.2-0.2,0.4-0.4,0.7-0.6c0,0-2.4,5.3,1.4,10.4c2.4,3.4,5.4,5.6,5.4,5.6s-7.4-5-8.3-9.7c0,0,0,0,0-0.1c0,0.2,0,0.4,0,0.7
		c0.2,1.8,0.9,3.9,2.6,6c2.8,3.3,5.9,5.4,5.9,5.4s-4.8-2.9-7.5-6.4c0.6,1.6,1.6,3.3,3.2,4.9c3.6,3.7,7.4,6.1,7.4,6.1
		s-9.6-5.2-11.8-10.6c-0.6-1.4-1.1-3.5-0.9-5.1c0-0.4-0.1-0.8-0.1-1.2c-0.1,0.1-0.2,0.2-0.3,0.3c0,0.3-0.2,0.7-0.5,1
		c0,0.2-0.1,0.3-0.1,0.5c0,0.2,0,0.5-0.1,0.7c0,2,0.6,5,3.3,7.8c3,3.1,6.3,5,6.3,5s-5.8-3-8.7-6.7c0.5,0.8,1.1,1.7,1.9,2.5
		c2.9,2.9,5.9,4.8,5.9,4.8s-7.6-4.2-9.4-8.4c-0.3-0.7-0.6-1.5-0.7-2.3c-0.2,1.5-0.2,3.5,0.6,5.5c0.5,0.9,1.1,1.9,2,2.8
		c2.9,3,6.2,4.9,6.2,4.9s-1.3-0.7-3-1.8c1.8,1.4,3.2,2.1,3.2,2.1s-8.9-3.8-10.1-8.8c-0.1-0.4-0.2-0.8-0.2-1.2
		c-0.1-0.4-0.2-0.7-0.2-1.1c0,0-0.1,0.1-0.1,0.1c-0.1,0.4-0.2,0.8-0.4,1.1c0,1.5,0.4,4,2.6,6.2c2.4,2.4,4.9,3.9,4.9,3.9
		s-6.4-3.3-7.8-6.8c-0.2-0.6-0.4-1.3-0.5-1.9c-0.4,2-0.4,4.8,1.8,7.2c2.5,2.6,5.4,4,5.4,4s-7.6-3-8.4-7.2c-0.1,1.8,0.2,3.8,1.5,6
		c2.1,3.6,4.8,6,4.8,6s-6.8-5.5-7.3-10.4c-0.1-1.3,0-3.2,0.6-4.6C53.8,108.5,53.5,108.7,53.2,108.9z"/>
</g>
<radialGradient id="SVGID_7_" cx="48.8386" cy="571.9464" r="34.8535" gradientTransform="matrix(-8.811057e-02 0.9975 -1.1805 -6.713379e-02 737.3171 19.2872)" gradientUnits="userSpaceOnUse">
	<stop  offset="0.5071" style="stop-color:#E3B6BF"/>
	<stop  offset="1" style="stop-color:#1B0C75"/>
</radialGradient>
<path fill="url(#SVGID_7_)" d="M101.7,60.3c0,0.1,0.1,0.3,0.1,0.4c0,0-1.2-1.3-3.4-2.6c-2-1.1-4.6-2-7.5-2.1
	c-4.4-0.1-7.7,0.8-7.7,0.8s4-1.4,8.3-1.5c-0.7-0.1-1.4-0.2-2.2-0.3c-5-0.3-9,0.5-9,0.5s9.3-2.4,15.1-0.1c1.3,0.5,3,1.4,4.3,2.3
	c0.4,0.3,0.8,0.5,1.1,0.8c0,0,0-0.1,0-0.1c0-0.1-0.1-0.2-0.1-0.2c-1.6-1.3-6.4-4.6-12.5-4.6c-5,0-8.8,1-8.8,1s4-1.4,8.5-1.6
	c-1.4,0-2.8,0.1-4.4,0.2c-6.4,0.8-11.2,2.4-11.2,2.4s9.3-3.6,16.8-3.5c-0.9-0.2-1.8-0.3-2.8-0.3c-0.5,0-1,0-1.5,0
	c-4.6,0.3-8,1.2-8,1.2s1.8-0.6,4.3-1.1c-3.1,0.2-5.1,0.5-5.1,0.5s0,0,0,0c-3.4,0.6-5.6,1.2-5.6,1.2s12-4,19.9-2.8
	c1.1,0.2,2.3,0.4,3.6,0.7c-1.1-0.5-2.3-1-3.6-1.4c-2.8-0.5-6.2-0.7-10-0.2c-1.2,0.2-1.9,0.4-1.9,0.4s0.2-0.1,0.6-0.2
	c-6.2,0.9-10.7,2.4-10.7,2.4s6.8-2.6,13.7-3.4c-5,0.1-8.7,0.8-8.7,0.8s9.9-2.4,16.8-0.9c-1.8-0.5-3.9-0.8-6.2-0.7
	c-5.2,0.2-9.2,1.2-9.2,1.2s4.7-1.5,9.7-1.8c-1.5,0-3.1,0-4.8,0.3c-5.9,0.8-10.4,2.3-10.4,2.3s7.4-2.8,14-3.3c-2.3-0.1-4.9,0-7.8,0.5
	C68.9,48.7,64,50.6,64,50.6s7.2-3.2,14.2-4.2c-3.9,0.2-6.6,0.7-6.6,0.7s9.7-2.3,16.7-1c-0.3-0.1-0.9-0.4-1.8-0.6
	c-1.2-0.2-2.5-0.3-3.8-0.2c-5.2,0.2-9.2,1.2-9.2,1.2s3.9-1.3,8.3-1.7c-1.4-0.1-3,0-4.6,0.2c-5.5,0.7-9.7,2.1-9.7,2.1s5.9-2.3,11.6-3
	c-0.3,0-0.7,0-1-0.1c-4,0.3-6.7,1-6.7,1s1.6-0.5,4-0.9c-1.3,0.1-2.7,0.2-4.1,0.5c-6.4,1.2-11.2,3-11.2,3s5-2.2,10.6-3.5
	c0.5-0.2,1.8-0.7,3.6-1.2c-3.4,0.2-5.7,0.7-5.7,0.7s3.5-0.8,7.8-1.2c1.2-0.3,2.6-0.5,3.9-0.7c-2.2-0.3-5-0.3-8,0.2
	c-5.1,0.9-8.9,2.4-8.9,2.4s7.3-3.2,13.4-3.5c2.9-0.4,6.3-0.5,9,0.1c-0.6-0.2-1.3-0.4-2-0.5c-3.8-0.3-9.1-0.1-14.9,1.5
	c-8,2.2-13.9,4.9-13.9,4.9s10.3-5.3,19.5-7c-2.3,0.2-4.3,0.4-5.9,0.7c-1.2,0.3-1.8,0.5-1.8,0.5s0.4-0.2,1.1-0.4
	c-1.5,0.3-2.4,0.5-2.4,0.5s1.5-0.4,3.6-0.9c1.3-0.4,2.9-0.9,4.7-1.2c-1.7,0.1-3.4,0.4-5.3,0.8c-7.4,1.7-12.9,4-12.9,4
	s12.8-6.1,21.9-6c0.3,0,0.6,0,1,0c-0.7-0.1-1.5-0.1-2.3-0.1c-5.5,0.1-9.8,1.1-9.8,1.1s7.7-2.3,14-1.6c-0.7-0.2-1.4-0.3-2.2-0.4
	c-3.3-0.1-7.3,0.2-11.6,1.3c-7.4,2-12.9,4.6-12.9,4.6s4.9-2.6,10.8-4.6c1-0.4,2.2-0.9,3.7-1.3C64,37.3,61,38,61,38s4.7-1.3,10.1-1.9
	c2.5-0.6,5.3-1.1,7.7-0.8c1,0.1,2.1,0.3,3.2,0.5c-2.4-0.7-5.4-1.2-8.8-0.9c-2.9,0.2-5.5,0.7-7.2,1.1c-6.2,1.7-10.7,3.9-10.7,3.9
	s11-5.9,19.2-6.2c0.4,0,0.8,0,1.2,0c-0.3,0-0.5-0.1-0.8-0.1c-3.3,0-7.2,0.4-11.5,1.8c-7.1,2.3-12.3,5-12.3,5s5.5-3.3,11.9-5.6
	c-2.2,0.7-3.5,1.2-3.5,1.2s2.2-1,5.2-2c-4.8,0.7-8.1,1.8-8.1,1.8s5.9-2,12-2.8c2.3-0.5,4.8-0.9,7-0.7c-3-0.5-7.4-0.6-12.2,0.6
	c-6.1,1.6-10.5,3.8-10.5,3.8s2.9-1.6,6.8-3.1c-0.4,0.1-0.7,0.2-0.7,0.2s0.5-0.2,1.2-0.4c3.3-1.2,7.1-2.3,10.5-2.4c1,0,2.2,0,3.4,0.2
	c0.3,0,0.6,0,0.9,0.1c-1.1-0.2-2.3-0.4-3.6-0.6c-1.6,0-3.4,0.1-5.4,0.4c-0.1,0-0.2,0-0.3,0.1c-5.4,1.3-9.4,3.3-9.4,3.3
	s2.2-1.2,5.2-2.4c-0.5,0.1-1,0.3-1.6,0.5c-7,2.2-12.1,5-12.1,5s7.3-4.4,14.7-6.5c-5.9,0.8-10.3,2.1-10.3,2.1s9.6-3.3,17.3-3.2
	c0.9-0.1,1.8-0.2,2.7-0.1c1.5,0,3.4,0.3,5.1,0.7c-2.7-0.9-7.2-1.9-12.5-1.1c-5.8,0.9-10.1,2.5-10.1,2.5s9.6-4.1,16.7-3.6
	c-0.3,0-0.6-0.1-0.9-0.1c-2.7-0.1-6.2,0.2-9.9,1.4c-5.6,1.8-9.6,3.9-9.6,3.9s5.1-3.1,10.7-4.9c-5,1.3-8.6,3.1-8.6,3.1
	s3.9-2.2,8.5-3.6c-0.4,0-0.7,0.1-1.1,0.2c-6.5,1.1-11.4,2.8-11.4,2.8s8.8-3.6,16.3-4.1c-2.9,0.1-6.3,0.5-9.9,1.5
	c-7.5,2-13,4.6-13,4.6s9.2-4.8,17.7-6.5c-5.5,0.9-9.5,2.4-9.5,2.4s6.2-2.6,12.3-3.5c-2.3,0-4.9,0.2-7.7,0.8
	c-7,1.5-12.2,3.8-12.2,3.8s7.2-3.5,14.5-5c-0.2,0-0.4,0.1-0.6,0.1c-6.4,1-11.2,2.8-11.2,2.8s11.2-4.6,18.9-4.1
	c1.9,0.1,4.4,0.5,6.3,1.1c-0.2-0.1-0.4-0.3-0.5-0.4c-2.2-0.6-7.1-1.5-13.2-0.7c-0.2,0-0.3,0.1-0.5,0.1c-5.8,1.3-10.1,3.1-10.1,3.1
	s1.7-0.9,4.3-1.8c-6,1.8-10.3,3.8-10.3,3.8s11.8-6.3,20.5-6.5c0.1,0,0.1,0,0.2,0c0.8-0.1,1.6-0.1,2.4-0.1c1.3,0.1,3,0.2,4.5,0.6
	c-0.2-0.2-0.5-0.3-0.7-0.4c-2.3-0.6-8.5-1.9-15.9,0.1c-6.1,1.7-10.6,3.8-10.6,3.8s7.3-4,14.2-5.4c-2.5,0.2-5.2,0.6-8.1,1.6
	c-6.7,2.1-11.5,4.8-11.5,4.8S42.9,23,50.1,21c-4.6,1.2-7.7,2.6-7.7,2.6s9.7-4.9,16.9-4.6c0,0,0.1,0,0.1,0c-0.3-0.1-0.7-0.1-1-0.2
	c-2.6-0.2-5.9-0.2-9.5,0.8c-5.7,1.5-9.9,3.6-9.9,3.6s5.8-3.3,11.8-4.7c-2.5,0.2-5.3,0.6-8.2,1.5c-6.6,2.1-11.3,4.7-11.3,4.7
	S42,18,50.5,17.5c2.3-0.1,5.4-0.1,7.7,0.4c1,0.1,1.9,0.2,2.8,0.4c-0.6-0.4-1.3-0.7-1.9-1c-1.9-0.5-8-1.8-14.9,0.4
	c-5.5,1.8-9.4,4-9.4,4s6.3-4.1,12.6-5.6c-1.4,0.2-2.8,0.5-4.3,1c-5.2,1.7-9,3.7-9,3.7s8.6-5.2,15.3-5.7c1.1-0.1,2.4-0.1,3.6,0
	c-2.1-0.5-5-1-8.1-0.8c-1.5,0.2-3.1,0.5-4.8,1c-5.4,1.7-9.2,3.9-9.2,3.9s1.4-0.9,3.6-2c-2.6,1.2-4.1,2.2-4.1,2.2s8.6-6.4,16.2-6.3
	c0.5,0,1.2,0,1.8,0.1c0.9,0,1.8,0.1,2.7,0.2c-0.4-0.2-0.8-0.4-1.2-0.5c-1.7-0.4-6.2-1.2-11.3,0.4c-4.3,1.4-7.3,3.1-7.3,3.1
	s7-4.5,12.5-4.8c0.9,0,2,0,3,0c-2.7-0.8-6.8-1.5-11-0.2C31,12.9,27.9,15,27.9,15s6.9-5.5,13.2-5.2c-2.5-0.5-5.7-0.7-9.2-0.2
	c-5.9,0.9-10.3,2.5-10.3,2.5s8.9-3.8,16-3.7c-3.1-0.9-6.4-1.8-9.8-2.6l0,0c-1.4-0.1-3,0-4.6,0.1c-6.2,0.6-11,1.9-11,1.9
	S21,5.1,28.1,5.1l0,0c0,0,0,0,0,0c0.9,0,1.8,0,2.6,0.2c2.8,0.4,6.8,1.3,8,2.7C39.9,8.3,41,8.6,42.1,9c0.5,0.1,1,0.2,1.4,0.4
	c-1.8-0.5-3.4-2.1-4.1-3.1c-1.8-2.6,1.1-5.9,1.1-5.9s-1,1.4-1,3.4C39.4,6.9,44,9.5,44,9.5c-0.1,0-0.2,0-0.3-0.1
	c0.3,0.1,0.6,0.2,0.9,0.3c0,0,0,0-0.1,0c0,0-0.1-0.1-0.1-0.1c-0.5-0.4-0.9-0.8-1.3-1.3c-0.3-0.3-0.5-0.5-0.7-0.7
	c-1.4-1.5-1.3-3.1-0.8-4.4c0-0.1,0-0.2,0-0.2s0,0.1,0,0.2C42.3,1.3,43.9,0,43.9,0s-0.7,0.7-1.1,1.9c0.6-1,1.2-1.7,1.2-1.7
	s-1.3,1.8-1.3,4.3c0,0.8,0.2,1.5,0.6,2.3c1,1.5,2.7,2.8,4.2,3.8c-0.6-0.6-1.1-1.2-1.4-1.7c-2-3.1,1.2-7.2,1.2-7.2S46.1,3.5,46.1,6
	c0,0.7,0.2,1.4,0.4,2c-0.6-2.9,2.1-5.9,2.1-5.9s-1.3,1.8-1.3,4.4c0,1.6,0.9,3,2,4.2c-0.6-1.1-0.7-2.3-0.5-3.3
	C48.1,3.9,51,0.4,51,0.4s-1.4,2.2-1.4,5.3c0,1.9,1,3.6,2.3,5.1c0-0.1,0.1-0.3,0.1-0.4c-0.2-0.3-0.4-0.6-0.5-0.9
	c-1.4-2.7,1.6-5.4,1.6-5.4S52,5.3,51.8,7.2c-0.1,0.8,0.1,1.7,0.6,2.5c0.3-0.4,0.6-0.8,1-1.2c0-0.6,0.2-1.1,0.5-1.6
	c0-0.1,0-0.2,0-0.2s0,0.1,0,0.1c0.8-1.6,2.4-2.7,2.4-2.7S55.5,4.8,55,5.9c0.6-0.9,1.2-1.4,1.2-1.4S54.9,6,54.6,8.4
	c0,0.3,0,0.6,0,0.9c0.8-0.9,1.7-1.5,1.7-1.5s-1,0.8-1.6,2c0.1,0.3,0.1,0.6,0.3,0.8c0.2,0.4,0.4,0.7,0.7,1.1c0.2-1,0.9-1.8,1.7-2.5
	c0.6-1.7,1.8-2.9,1.8-2.9s-0.7,0.9-1.1,2.3c0.7-0.5,1.4-0.8,1.4-0.8s-0.8,0.5-1.5,1.4c0.6-0.5,1.1-0.9,1.4-1.1
	c0.6-0.8,1.1-1.3,1.1-1.3s-1.4,1.6-1.7,4c-0.1,0.7,0,1.3,0.2,2c0.2-0.6,0.6-1.1,1-1.6c0.2-3.1,2.8-5.7,2.8-5.7s-1.5,1.9-1.8,4.7
	c0.5-0.5,0.9-0.8,0.9-0.8s-0.4,0.4-1,1c0,0.4,0,0.7,0,1.1c1-1,2-1.7,2-1.7s-1.1,0.9-1.9,2.3c0.1,0.6,0.3,1.2,0.6,1.7
	c0.5-2.7,3.9-5.1,3.9-5.1s-1.8,1.6-2.7,3.9c-0.4,1-0.3,2.1,0.1,3.1c0.3-2.2,2.6-4.1,2.6-4.1s-1.4,1.4-1.8,3.5
	c-0.2,0.8,0,1.6,0.4,2.4c0.3,0.3,0.5,0.6,0.8,0.8c0-0.1,0-0.1-0.1-0.2c-1.3-3.1,2.6-5.8,2.6-5.8s-1.1,0.9-1.7,2.5
	c1.2-2.5,4.8-4.3,4.8-4.3s-2.1,1.3-3.5,3.5c-0.6,1-0.7,2-0.6,3c0.2-1.2,1.1-2.2,1.9-3c1.9-2.6,6.1-4.2,6.1-4.2s-2.8,1.4-4.7,3.9
	c-0.4,0.5-0.7,1.1-0.8,1.7c0.2-0.2,0.5-0.3,0.7-0.5c1.1-1.8,2.9-2.9,2.9-2.9s-1,0.8-1.9,2.3c0.4-0.2,0.8-0.4,1.2-0.5
	c0.6-0.5,1-0.7,1-0.7s-0.3,0.2-0.7,0.6c0.9-0.3,1.5-0.5,1.5-0.5s-0.8,0.3-1.9,0.9c-0.4,0.5-0.9,1-1.3,1.8c0.3-0.3,0.7-0.5,1-0.7
	c0,0,0.1,0,0.1,0s0,0,0,0c0.3-0.2,0.5-0.3,0.8-0.4c0.5-0.7,1-1.1,1-1.1s-0.3,0.3-0.6,0.9c0.6-0.3,1-0.4,1-0.4s-0.5,0.2-1.1,0.7
	c-0.3,0.6-0.6,1.3-0.8,2.3c1-1.3,2.3-2.1,2.3-2.1s-1.5,1.2-2.1,3.3c0.1-0.1,0.3-0.3,0.5-0.4c0.6-1.3,1.5-2.2,1.5-2.2
	s-0.5,0.6-0.9,1.7c1.3-0.9,2.6-1.3,2.6-1.3s-1.8,0.8-3,2.4c0,0.2-0.1,0.4-0.1,0.6c0.6-1.2,1.4-1.9,1.4-1.9s-1.1,1.4-1.3,3.7
	c0,0.1,0,0.3,0,0.4c0.1,0.4,0.2,0.8,0.4,1.2c0.1,0.2,0.3,0.5,0.5,0.7c-0.3-0.7-0.4-1.4-0.4-2.1c0-0.3-0.1-0.6-0.1-0.8
	c-0.1-3.9,7.8-6,7.8-6s-3,1.1-5.2,3.3c-3,3,0.2,7.7,0.9,8.6c0.1,0.2,0.3,0.3,0.4,0.5c0-0.1-0.1-0.2-0.1-0.4c-1-1.3-1.6-3-1.8-4.1
	c-0.7-3.8,4.3-6.7,4.3-6.7s-1.9,1.3-3,3.7c-0.7,1.6-0.4,3.4,0.1,5c0,0,0-0.1,0-0.1c0-0.2,0-0.4,0.1-0.5c0-0.2,0-0.3,0-0.5
	c-0.1-3.9,5.7-6.7,5.7-6.7s-2.2,1.3-3.8,3.8c-0.3,0.5-0.6,1.1-0.7,1.6c0.2-0.2,0.4-0.3,0.6-0.5c0.9-1.7,2.4-2.8,2.4-2.8
	s-0.8,0.8-1.5,2.2c1.2-0.8,2.4-1.2,2.4-1.2s-1.4,0.6-2.7,1.9c-0.1,0.3-0.2,0.6-0.3,0.9c0,0.1-0.1,0.3-0.1,0.4
	c0.6-0.7,1.3-1.3,1.9-1.7c0.4-0.7,0.8-1.1,0.8-1.1s-0.2,0.3-0.5,0.9c0.5-0.3,0.8-0.4,0.8-0.4s-0.4,0.2-0.9,0.7
	c-0.3,0.6-0.5,1.3-0.7,2.2c0.8-1.3,1.9-2,1.9-2s-1.2,1.1-1.8,3.2c1.1-1.4,3-2.1,3-2.1s-1.7,0.9-2.7,2.8c-0.2,0.4-0.3,0.9-0.4,1.3
	c0.2,1,0.6,1.9,1.1,2.8c-0.2-0.7-0.3-1.3-0.3-1.9c0-0.3,0-0.5,0-0.7c0.1-3.6,6.3-5.8,6.3-5.8s-2.4,1.1-4.2,3.2
	c-1.4,1.7-1.2,3.7-0.8,5.4c0-0.2-0.1-0.4-0.1-0.5c-0.1-0.8,0.1-1.6,0.5-2.3c0.6-2,2-3.5,2-3.5s-0.7,0.9-1.1,2.4
	c1.3-1.4,3.2-2.2,3.2-2.2s-1.9,1-3.1,3c-0.2,0.4-0.4,0.7-0.4,1.1c0,0.9,0.1,1.8,0.4,2.6c0.2-2.5,3-4.1,3-4.1s-0.5,0.4-1,1
	c1.9-1.8,4.8-2.9,4.8-2.9s-2.4,1.1-4.3,3.3c-1.2,1.4-1.3,3.2-1,4.7c0-0.5,0-0.9,0-1.3c0.3-3.4,5.9-5.2,5.9-5.2s-2,0.8-3.7,2.6
	c-0.1,0.1-0.2,0.3-0.3,0.4c2-1.9,5-2.9,5-2.9s-1.6,0.7-3.2,2.1c-0.2,0.4-0.5,1.1-0.7,1.9c1-0.9,2-1.3,2-1.3s-1.3,0.8-2.3,2.4
	c0,0.2-0.1,0.3-0.1,0.5c-0.2,1.3,0.1,2.7,0.6,4.1c-0.5-3.1,1.7-5.3,1.7-5.3s-1,1.3-1.1,3.7c0,0.3,0,0.7,0,1.1c0-0.2,0-0.3,0-0.5
	c0-4.1,5.7-6.4,5.7-6.4s-2.2,1.2-3.8,3.6c-0.4,0.6-0.6,1.2-0.8,1.9c0.4-0.6,0.8-1.1,1.2-1.4c0.5-0.7,0.9-1.1,0.9-1.1
	S91.3,31.5,91,32c0.2-0.2,0.4-0.3,0.4-0.3s-0.2,0.2-0.5,0.5c-0.1,0.3-0.3,0.6-0.4,1c0.2-0.3,0.3-0.4,0.3-0.4s-0.2,0.3-0.5,0.9
	c-0.1,0.2-0.1,0.5-0.2,0.7c1.7-3.1,6.6-4.9,6.6-4.9s-2.6,1.1-4.6,3.5c-0.8,0.9-1.2,1.9-1.5,3c0.8-1.2,1.9-1.9,1.9-1.9
	s-1,0.8-1.6,2.5c0.8-2,3.1-3.2,3.1-3.2s-1.4,0.9-2.3,2.6c-0.7,1.3-0.5,2.9-0.1,4.2c-0.6-3.1,1.6-5.3,1.6-5.3s-1,1.3-1.1,3.6
	c0,0.7,0.1,1.4,0.3,2.1c-0.1-1.2,0-2.4,0.2-3.2c0.4-1.8,1.8-3,3.1-3.7c0.7-1.1,1.5-1.7,1.5-1.7s-0.5,0.5-1,1.5
	c1.2-0.6,2.3-0.9,2.3-0.9s-1.3,0.4-2.6,1.5c0,0.1-0.1,0.1-0.1,0.2c0.3-0.3,0.6-0.4,0.6-0.4s-0.3,0.2-0.7,0.7c-0.1,0.3-0.2,0.6-0.4,1
	c0.7-1.1,1.6-1.6,1.6-1.6s-1.1,1-1.8,3.1c0,0,0,0,0,0c0.1-0.1,0.2-0.2,0.3-0.2c0,0,0-0.1,0.1-0.1c1.1-2.5,4.1-3.6,4.1-3.6
	s-1.5,0.8-2.8,2.5c1.4-1,3-1.4,3-1.4s-1.8,0.7-3.4,2.5c-0.1,0.1-0.2,0.3-0.3,0.4c0,0,0,0,0,0c1.4-1.4,3.1-2.1,3.1-2.1
	s-1.7,0.9-3.2,3c-0.1,0.1-0.1,0.2-0.2,0.3c-0.1,0.7-0.1,1.3-0.1,1.9c1.1-2.9,4-4.4,4-4.4s-1.6,1.1-2.8,3.3c-0.5,0.9-0.8,2-0.9,3
	c0.1-0.1,0.1-0.2,0.2-0.3c0.4-2.9,2.8-4.2,2.8-4.2s-1.3,1-1.9,3.3c0,0,0,0,0,0c0.1-0.1,0.2-0.2,0.3-0.3c0,0,0,0,0,0
	c1.1-2.7,4.6-3.9,4.6-3.9s-1.7,0.8-3.1,2.7c1.6-1.1,3.4-1.5,3.4-1.5s-2,0.7-3.8,2.6c-0.1,0.1-0.3,0.3-0.4,0.5c0,0,0,0,0,0
	c1.6-1.5,3.5-2.2,3.5-2.2s-1.9,1-3.5,3.2c-0.1,0.1-0.2,0.2-0.2,0.4c0,0.1,0,0.2,0,0.3c1.4-2,3.6-3,3.6-3s-1.8,1.1-3.2,3.5
	c-0.2,0.3-0.3,0.6-0.4,0.9c0,0.8,0.1,1.5,0.2,2.1c0-0.1,0.1-0.1,0.1-0.2c0.8-2,2.2-3.2,2.2-3.2s-0.6,0.6-1.1,1.8
	c0.7-0.7,1.4-1,1.4-1s-1.1,0.8-2,2.5c-0.1,0.2-0.1,0.4-0.2,0.7c-0.1,0.4-0.2,0.9-0.2,1.4c1-3.2,4.9-4.6,4.9-4.6s-1.8,0.9-3.3,3
	c-0.4,0.5-0.6,1.1-0.8,1.7c0.8-1.7,2.4-2.4,2.4-2.4s-1.3,0.9-1.9,3c-0.5,1.5-0.1,3.7,0.4,5.5c0.1,0.1,0.1,0.2,0.2,0.4
	c-0.2-0.6-0.3-1.1-0.4-1.5c-0.8-4.1,2.2-6.3,2.2-6.3s-1.1,1.1-1.6,3.5c-0.1,0.4-0.1,0.7-0.1,1.1c0.6-1.8,2.2-2.4,2.2-2.4
	s-1.1,0.7-1.7,2.6c-0.4,1.3-0.1,3.1,0.4,4.6c0.2,0.5,0.4,1,0.6,1.4c0.4,0.9,0.7,1.5,0.8,1.8c0,0,0,0.1,0,0.1c0,0,0,0,0,0
	c0.1,0.1,0.1,0.2,0.1,0.2l0,0l-0.1,0c0.1,0.2,0.1,0.2,0.1,0.2c-0.1-0.1-0.1-0.1-0.2-0.2l0,0c0.2,0.3,0.3,0.6,0.4,0.8
	C102.5,61,102.3,60.7,101.7,60.3L101.7,60.3z M86.2,44.5c0.3,0.1,0.7,0.2,1,0.2c0.3,0,0.5,0.1,0.8,0.1c-0.7-0.2-1.5-0.4-2.3-0.5
	C85.8,44.4,86,44.5,86.2,44.5z M92.4,45.3c-0.1-0.1-0.2-0.3-0.3-0.4c-1.2-0.6-3.1-1.4-5.5-2c0,0,0.1,0,0.1,0
	C88.5,43.4,90.8,44.3,92.4,45.3z M84.9,37.6c0.7,0.3,1.3,0.6,1.8,0.9c-0.1-0.1-0.2-0.2-0.3-0.4c-0.2-0.1-0.6-0.2-1-0.4
	C85.3,37.7,85.1,37.7,84.9,37.6z M88.7,39.1c-0.4-0.3-0.7-0.6-0.9-1c0.2,0.3,0.3,0.5,0.4,0.7c0.7,0.8,1.4,1.5,2,2.3
	c0.1,0.1,0.2,0.2,0.2,0.3c0,0,0.1,0.1,0.1,0.1c-0.2-0.3-0.3-0.5-0.4-0.8c-0.1-0.1-0.2-0.3-0.3-0.4c-1-1-1.9-2.5-2.4-3.8
	C88,38,88.7,39.1,88.7,39.1z M92.1,42.7c0.7,1.3,1.4,2.2,1.4,2.2c-0.1,0-0.1-0.1-0.2-0.1c0.1,0.2,0.2,0.4,0.2,0.5l0,0
	c0.5,0.7,1.1,1.4,1.5,2.1c-0.1-0.4-0.1-0.7-0.1-1c-0.1-0.1-0.1-0.2-0.2-0.3c-0.1-0.1-0.2-0.2-0.3-0.3c0.3,0.9,0.5,1.5,0.5,1.5
	c-0.5-0.6-0.8-1.4-1.1-2.3c-0.3-0.4-0.6-0.9-0.9-1.4C92.8,43.4,92.4,43.1,92.1,42.7z M92.6,42.7c0,0,0-0.1-0.1-0.1c0,0,0,0,0,0
	C92.5,42.6,92.5,42.6,92.6,42.7z M94.1,40.1c0,0.2,0,0.4,0.1,0.5c0.1-0.5,0.2-0.9,0.3-1.4c0-0.1,0-0.1,0-0.2c0,0.1-0.1,0.2-0.1,0.3
	C94.2,39.6,94.1,39.8,94.1,40.1z M95.9,46.8c-0.1-0.3-0.2-0.7-0.3-1c0,0.3,0,0.6,0,0.9c0.1,0.1,0.2,0.3,0.3,0.3
	C95.9,47,95.9,46.9,95.9,46.8z M96,44.8c0,0,0,0.1,0,0.1C96,44.9,96,44.9,96,44.8C96,44.8,96,44.8,96,44.8z M95,44.7
	C95,44.7,95,44.7,95,44.7C95,44.7,95,44.7,95,44.7C95,44.7,95,44.7,95,44.7z M95.3,43.2c-0.2-0.5-0.3-1-0.4-1.5
	c0,1.2,0.1,2.2,0.2,2.7c0.1-0.3,0.1-0.6,0.2-0.8C95.3,43.5,95.3,43.4,95.3,43.2z M95.6,47.1c0.1,0.3,0.2,0.6,0.3,0.8
	c0-0.2,0-0.5,0-0.7c-0.1-0.1-0.2-0.1-0.2-0.2C95.6,47,95.6,47,95.6,47.1z M95.7,47.7c0,0.2,0.1,0.4,0.1,0.6c0.1,0.1,0.1,0.1,0.2,0.2
	c0-0.2,0-0.3-0.1-0.5C95.9,47.9,95.8,47.8,95.7,47.7z M95.8,50C95.8,50,95.8,50,95.8,50C95.8,50,95.8,50,95.8,50
	C95.8,50,95.8,50,95.8,50C95.8,50,95.8,50,95.8,50z M98.5,52.1c0-0.1,0-0.2,0-0.3c0,0,0,0.1,0,0.1C98.5,52,98.5,52.1,98.5,52.1z
	 M97.3,47.9c-0.1-0.2-0.2-0.5-0.2-0.7c-0.1,1.2,0.1,2.3,0.2,3.2c0.1,0.1,0.1,0.2,0.1,0.3c0,0,0,0,0,0c-0.1-0.6-0.2-1.1-0.2-1.5
	C97.1,48.8,97.2,48.3,97.3,47.9z M96.1,43.2c0,0,0,0.1-0.1,0.2c0,0.1,0,0.1,0,0.1c0,0,0-0.1-0.1-0.1c0,0,0,0.1,0,0.1
	c0,0.1-0.1,0.1-0.1,0.2c0,0,0,0,0,0c0,0.2,0.1,0.3,0.1,0.4c0-0.2,0.1-0.4,0.1-0.6C96.1,43.4,96.1,43.3,96.1,43.2z M93.9,42.1
	c0,0.9,0.2,1.9,0.4,2.7c0,0.1,0.1,0.2,0.1,0.2c-0.2-0.7-0.2-1.4-0.3-2.1C94.1,42.6,94,42.3,93.9,42.1z M86.4,36.8
	c0-0.1-0.1-0.1-0.1-0.2c0,0,0,0-0.1-0.1c0,0.1,0,0.1,0.1,0.2C86.3,36.7,86.4,36.8,86.4,36.8z M84.7,34.9c-0.3-0.2-0.6-0.4-0.9-0.7
	c0.1,0.1,0.1,0.2,0.2,0.2c0.4,0.4,0.8,0.8,1.2,1.2c0-0.1-0.1-0.2-0.1-0.3C85,35.2,84.9,35.1,84.7,34.9z M84,33.8
	c-0.1-0.1-0.3-0.2-0.4-0.4c0.3,0.4,0.5,0.7,0.8,0.9C84.2,34.1,84.1,34,84,33.8z M80.9,31.1c0.3,0.5,0.6,0.9,0.7,1.1
	c0.6,0.5,1.1,1.1,1.7,1.6c0.1,0,0.1,0.1,0.2,0.1c-0.5-0.5-0.9-1-1.3-1.5c-0.2-0.2-0.5-0.4-0.7-0.6C81.3,31.5,81.1,31.3,80.9,31.1z
	 M78.6,31.2c0.7,0.3,1.3,0.6,1.8,1c-0.3-0.2-0.6-0.5-0.8-0.7c-0.1,0-0.1,0-0.2-0.1C79.1,31.3,78.8,31.2,78.6,31.2z M82.4,34.4
	c0.1,0,0.2,0.1,0.3,0.1c0.1,0,0.3,0.1,0.4,0.2c0,0,0,0-0.1-0.1C82.8,34.6,82.6,34.5,82.4,34.4z M91.3,46.7c0.1,0.1,0.2,0.2,0.2,0.3
	c1.1,0.4,2.2,0.8,3.1,1.4c-0.1-0.1-0.1-0.2-0.2-0.2C93.7,47.7,92.6,47.2,91.3,46.7z M97.2,45.8C97.2,45.8,97.2,45.9,97.2,45.8
	c0.1,0.4,0.2,0.9,0.3,1.2c0,0,0-0.1,0-0.1C97.4,46.6,97.3,46.2,97.2,45.8z M95.1,40.1C95.1,40.1,95.1,40.2,95.1,40.1
	c0,0.2,0,0.4,0,0.5C95.2,40.5,95.1,40.3,95.1,40.1z M94.7,36.5c-0.1,0.2-0.2,0.3-0.2,0.5c-0.2,0.5-0.3,1.2-0.4,1.8
	c0.1-0.2,0.2-0.4,0.4-0.6C94.4,37.6,94.5,37,94.7,36.5z M93.3,43c0.1,0.2,0.2,0.3,0.3,0.5c-0.1-0.7-0.2-1.3-0.2-1.8
	c0-0.6,0-1.2,0.2-1.7c0-0.2,0-0.5-0.1-0.7c-0.1-1.9,0.8-3.3,1.6-4.1c0-0.1,0.1-0.1,0.1-0.2c-0.1,0.1-0.3,0.3-0.4,0.4
	C92.7,37.6,93.1,41.3,93.3,43z M90.7,38.3c0-0.1,0-0.3,0-0.4c0,0.5,0,1.1,0.1,1.6c0,0.1,0.1,0.2,0.1,0.3
	C90.9,39.2,90.8,38.7,90.7,38.3z M89.6,34.7c0,0.1,0,0.2-0.1,0.2c0,0.1,0,0.1,0,0.2c0,0,0-0.1,0-0.1C89.6,34.9,89.6,34.8,89.6,34.7z
	 M87.8,28.7c-0.2,0.2-0.5,0.5-0.7,0.7c-1.1,1.3-1.4,2.9-1.3,4.3c0.2,0.6,0.4,1.3,0.6,1.9C86.2,35,86,34.4,86,33.9
	c-0.2-1.2,0.2-2.2,0.8-3C87.1,30,87.4,29.3,87.8,28.7z M79.6,21.9c-0.4,0.4-0.8,0.9-1.2,1.6c-0.3,0.6-0.4,1.3-0.3,1.9
	c0.1,0.5,0.3,1,0.5,1.5c0-0.1,0-0.3,0-0.4c0-0.1,0-0.1,0-0.2C78.4,24.6,79,23,79.6,21.9z M77.3,23.2c-0.1,0.1-0.1,0.2-0.2,0.4
	c0,0.2,0,0.5,0,0.7C77.1,23.9,77.2,23.5,77.3,23.2z M77.6,28.1c0.9,0.9,1.6,1.4,1.6,1.4c-0.6-0.3-1.2-0.7-1.8-1.1
	c0.5,0.4,1,0.8,1.5,1.3c0.4,0.2,0.7,0.4,1,0.6c-0.2-0.3-0.4-0.6-0.5-0.9c-0.4-0.4-0.8-0.9-1-1.4c0.4,0.7,0.7,1.2,0.7,1.2
	c-0.6-0.4-1.1-0.9-1.5-1.5C77.5,27.8,77.5,28,77.6,28.1z M55.3,13.2c-0.2-0.1-0.3-0.1-0.5-0.2c0.2,0.3,0.4,0.6,0.6,0.9
	c0.5,0.3,0.8,0.5,0.8,0.5c-0.1,0-0.2-0.1-0.3-0.1c0.3,0.1,0.5,0.3,0.8,0.4c-0.1-0.2-0.2-0.3-0.3-0.5c-0.1-0.2-0.2-0.3-0.3-0.4
	c-0.1-0.1-0.2-0.2-0.3-0.3c0,0-0.1-0.1-0.1-0.1c-0.4-0.4-0.8-0.9-1-1.4c-0.1-0.2-0.3-0.4-0.4-0.5c0,0.4,0.2,0.7,0.3,1.1
	C55,13,55.3,13.2,55.3,13.2z M56.8,13c0.1,0.2,0.1,0.3,0.2,0.5c0.4,0.5,0.9,0.9,1.3,1.3c-0.5-0.6-0.8-1.3-1.1-1.8
	c-0.3-0.5-0.4-1.1-0.4-1.6C56.7,11.9,56.7,12.5,56.8,13z M67,20.8c-0.2-0.2-0.4-0.5-0.6-0.8c0.2,0.2,0.3,0.5,0.5,0.7
	C66.9,20.7,66.9,20.8,67,20.8z M60.3,13.9c0-0.1-0.1-0.2-0.1-0.3c-0.1,0.8,0.1,1.6,0.4,2.3c1.2,1.5,2.5,2.5,2.5,2.5
	c-0.1-0.1-0.3-0.1-0.4-0.2c0.4,0.2,0.8,0.4,1.1,0.7c-0.1-0.1-0.2-0.2-0.3-0.3c-0.8-0.7-1.4-1.6-1.8-2.4
	C61.2,15.5,60.7,14.6,60.3,13.9z M58.9,15.9c0.1,0.1,0.3,0.3,0.4,0.4c-0.1-0.1-0.1-0.2-0.2-0.3C59.1,16,59,15.9,58.9,15.9z
	 M56.6,15.1c0.2,0.1,0.4,0.2,0.6,0.3c0-0.1-0.1-0.1-0.1-0.2C56.9,15.1,56.8,15.1,56.6,15.1z M71.5,23.4c-0.5-0.5-1-1-1.4-1.5
	c0.5,0.8,0.9,1.3,0.9,1.3c-0.2-0.1-0.3-0.2-0.5-0.3c0.2,0.3,0.3,0.5,0.5,0.8c0.1,0,0.1,0.1,0.2,0.1c0.5,0.2,0.9,0.5,1.1,0.8
	c0,0,0.1,0.1,0.1,0.1C72.1,24.2,71.8,23.8,71.5,23.4z M74.8,27.5c0,0-0.1-0.1-0.1-0.1c-0.3-0.1-0.6-0.1-1-0.2c0.1,0,0.2,0,0.2,0.1
	C74.2,27.3,74.5,27.4,74.8,27.5z M68.1,21.1c0.2,0.3,0.4,0.6,0.6,0.9c0.2,0.1,0.4,0.3,0.7,0.4c0,0,0,0,0-0.1
	C68.8,22,68.4,21.6,68.1,21.1z M71.6,15.4c-0.5,0.4-1,1-1.4,1.6c-0.4,0.6-0.5,1.3-0.4,2c0.2,0.6,0.4,1.1,0.7,1.6c0-0.1,0-0.3,0-0.4
	c0-0.1,0-0.2,0-0.2C70.1,18.2,70.8,16.6,71.6,15.4z M70,15.2c0,0.1-0.1,0.2-0.1,0.3c0.2-0.3,0.5-0.5,0.7-0.8
	C70.4,14.9,70.2,15.1,70,15.2z M68.7,16.7c-0.1,0.1-0.1,0.2-0.2,0.4c0,0.2,0,0.5,0.1,0.7c0,0,0,0,0,0C68.5,17.4,68.6,17.1,68.7,16.7
	z M67.3,17.5c0-0.2-0.1-0.4-0.1-0.5c0-0.1,0-0.3,0-0.4c-0.4,1.3-0.1,2.6,0.5,3.7c-0.3-0.8-0.5-1.6-0.5-2.2
	C67.2,17.8,67.2,17.7,67.3,17.5z M66.3,19.9c-0.7-1-1-2.2-1.2-3c0,0,0-0.1,0-0.1C65.2,17.9,65.7,19,66.3,19.9z M65,19.2
	c-0.1,0-0.1-0.1-0.2-0.1c0.1,0.1,0.2,0.2,0.3,0.3C65.1,19.3,65.1,19.2,65,19.2z M59.3,14C59.3,14,59.3,14.1,59.3,14
	c0.1-0.4,0.3-0.9,0.6-1.3c0-0.2-0.1-0.5-0.1-0.7c-0.1,0.2-0.2,0.4-0.3,0.7C59.3,13.1,59.3,13.6,59.3,14z M57.6,9.8
	c0,0.1,0,0.2-0.1,0.4c-0.1,0.7,0,1.3,0.2,2c-0.1-1.6,0.6-3,1.3-4C58.8,8.4,58.2,9,57.6,9.8z M52.7,10.4c0.3,0.4,0.5,0.8,0.8,1.1
	c0-0.3,0.1-0.6,0.2-0.9c-0.3-0.6-0.4-1.1-0.4-1.7C53.1,9.3,52.8,9.8,52.7,10.4z M52.7,11.3c0.1,0.2,0.1,0.4,0.3,0.6
	c0.3,0.3,0.6,0.6,1,0.8c-0.1-0.2-0.2-0.3-0.2-0.5C53.4,12,53,11.6,52.7,11.3z M49.5,9.6c0.5,1.2,1.7,2.3,3,3.1
	c-0.2-0.2-0.4-0.4-0.5-0.6c-1.1-0.9-1.9-1.9-2.5-2.7c-0.1-0.1-0.2-0.2-0.2-0.4C49.4,9.3,49.5,9.4,49.5,9.6z M55.1,20
	c0.1,0,0.2,0,0.4,0c1.9-0.1,4.3-0.1,6.4,0.2C59.9,19.9,57.6,19.7,55.1,20z M65.7,21.1c-0.1-0.1-0.2-0.1-0.3-0.2
	c-0.8-0.2-1.7-0.4-2.8-0.6c0.9,0.2,1.7,0.4,2.3,0.7C65.2,21,65.4,21,65.7,21.1z M62.3,20.2C62.3,20.2,62.3,20.2,62.3,20.2
	C62.3,20.2,62.3,20.2,62.3,20.2z M75.7,39.2c1.4-0.1,2.9-0.2,4.4-0.2c-1.1-0.1-2.4,0-3.6,0.1C76.2,39.2,75.9,39.2,75.7,39.2z
	 M88.6,41.1c0.3,0.1,0.5,0.2,0.8,0.4c0,0-0.1-0.1-0.1-0.1c-0.2-0.1-0.4-0.2-0.6-0.2C88.7,41.1,88.6,41.1,88.6,41.1z M83.4,41.6
	c0.5,0,1,0,1.5,0.1C84,41.5,83,41.4,82,41.3C82.5,41.4,83,41.5,83.4,41.6z M79.1,43.2c0.6,0,1.3,0.1,2,0.2c1.2-0.1,2.5-0.1,3.8,0
	c-1.6-0.3-3.4-0.6-5.4-0.6c-1.1,0-2.2,0-3.2,0c-2.6,0.4-4.5,1-5.3,1.2C73.7,43.5,76.6,43.1,79.1,43.2z M88.6,46.2
	c0.4,0.1,0.8,0.2,1.1,0.3c0,0,0.1,0,0.1,0c-0.4-0.2-0.8-0.3-1.3-0.5C88.5,46.1,88.5,46.1,88.6,46.2z M97.2,53.7
	C97.2,53.7,97.2,53.7,97.2,53.7C97.2,53.7,97.2,53.7,97.2,53.7C97.3,53.7,97.2,53.7,97.2,53.7z M94.6,54c0,0-0.1,0-0.1,0
	c0.1,0,0.2,0.1,0.3,0.1C94.7,54,94.6,54,94.6,54z"/>
</svg>
