<?xml version="1.0" encoding="utf-8"?>
<!-- Generator: Adobe Illustrator 18.1.1, SVG Export Plug-In . SVG Version: 6.00 Build 0)  -->
<svg version="1.1" id="Layer_1" xmlns="http://www.w3.org/2000/svg" xmlns:xlink="http://www.w3.org/1999/xlink" x="0px" y="0px"
	 viewBox="0 0 287.5 384.4" enable-background="new 0 0 287.5 384.4" xml:space="preserve">
<g>
	<radialGradient id="SVGID_1_" cx="143.7573" cy="192.1845" r="169.7072" gradientUnits="userSpaceOnUse">
		<stop  offset="0" style="stop-color:#98BF55"/>
		<stop  offset="1" style="stop-color:#1B5B16"/>
	</radialGradient>
	<path fill="url(#SVGID_1_)" d="M284.8,83.4c0.5-0.7,1-1.2,1.4-1.6c0.5-0.1,0.9-0.3,1.3-0.5c0,0-0.3,0-0.9,0
		c0.4-0.4,0.6-0.6,0.6-0.6c-0.5,0.1-1,0.3-1.5,0.6c-0.4,0-0.9,0-1.4-0.1c0.9-0.3,1.4-0.4,1.4-0.4c-1.4-0.2-2.9-0.1-4.4,0.2
		c-2.8-0.3-6.2-1-9.4-2.3c0.2-0.1,0.5-0.2,0.7-0.3c0,0-0.5,0-1.4,0c-3.4-1.5-6.4-3.7-8.2-7c-3.7-7-3.4-14-3.4-14s-2,13.9,5.1,20.4
		c-1.2-0.2-2.5-0.4-3.8-0.7c-1-0.9-2-1.9-3.1-2.9c-0.4-0.4-0.8-0.8-1.3-1.1c-0.8-0.7-1.6-1.4-2.5-2.2c-0.6-0.8-1.4-1.5-2.4-2.1
		c-0.5-0.5-1.1-0.9-1.6-1.4c-3.2-6.4-3.7-12.2-3.7-12.2s0,4.3,1.1,9.4c-0.8-1.9-1.5-3.9-2-6.2c-0.4-1.8-0.7-3.7-0.9-5.4
		c0-0.5,0-0.8,0-0.8s0,0.1,0,0.4c-1.1-9.3-0.3-16.7-0.3-16.7s-2.6,14.7-0.1,26.7c-0.2-0.1-0.4-0.3-0.5-0.4c-0.6-0.9-1.5-1.7-2.7-2.4
		c-1.7-6.4-1.5-11.5-1.5-11.5s-0.4,3.9-0.1,8.9c-1.9-5.3-2.3-9.2-2.3-9.2s0,0,0,0.1c-0.8-6.6-0.6-11.2-0.6-11.2s-1.1,10,0.3,20.2
		c-1.6-1.2-3.3-2.4-5-3.5c-1.2-10.1-0.4-18.2-0.4-18.2s-1.3,7.9-1.2,17.1c-1-0.7-1.9-1.3-2.9-2c-0.3-1.5-0.4-2.4-0.4-2.4
		s0,0.8,0.1,2.2c-0.8-0.6-1.7-1.1-2.5-1.7c-0.1-4.7,0.3-7.9,0.3-7.9s-0.6,3.1-0.9,7.5c-0.8-0.5-1.7-1.1-2.6-1.6
		c-0.3-0.3-0.6-0.6-1-0.9c0.1-8,1.1-13.8,1.1-13.8s-1.4,5.7-2.2,13.1c-0.6-0.3-1.3-0.6-2-0.9c-6.5-4-13.6-7.9-21.1-11.7
		c-1-0.9-2.4-1.6-4.1-2c-2.4-1.2-4.9-2.3-7.4-3.4c-1.2-1.2-3.2-2-5.6-2.4c-3.1-1.3-6.3-2.6-9.5-3.8c-0.6-0.3-1.2-0.5-1.9-0.7
		c-4.3-1.6-8.8-3.1-13.3-4.6c-1-0.5-2.2-0.9-3.6-1.1c-17.8-5.3-37.4-9.4-58.8-11.3c-0.5,0-1-0.1-1.5-0.1C87.1,2.2,83,2,79.1,2.2
		C75.5,2.1,71.8,2,68.2,1.9c-4.6-2.7-15.6-2.1-22.9-0.8C43.2,1.5,41,2,38.9,2.7c-0.2,0-0.4,0-0.6,0l0,0.1C20,8.8,0,24,0,24
		s11.1-7.7,26.6-14.6c4.1-1.8,8.1-3.2,11.9-4.2l0,0.2c9.3-0.7,18.3-1,27.1-0.9C47.4,10.2,28,28.2,28,28.2s10-8.3,24.4-15.8
		C60.9,8,69.2,6,76.1,5.2C59.5,9.7,46.7,31.1,46.7,31.1s6-8.6,16.6-16.5C72.9,7.5,84.2,6,91.9,6c-2.8,0.6-5.6,1.5-7.8,2.4
		c-13.9,5.5-27.9,24.1-27.9,24.1s6.3-7.5,16.1-15C83.3,8.9,95,7.1,100.2,6.7c1.3,0.2,2.7,0.3,4,0.5c-2.3,0.4-4.5,1-6.7,1.6
		c-1.7,0.4-3.3,0.8-4.7,1.2c-19.9,6-36.2,31.4-36.2,31.4s3.1-4.2,8.7-9.7c-4.6,5-7.4,8.8-7.4,8.8s7.9-9.5,20.3-18.9
		c3.8-2.9,7.7-5.2,11.5-6.9c7.9-3.1,15.7-4.2,21.6-4.5c-3.3,0.9-6.6,2-9.3,3.2c-16.8,7-34.3,29.1-34.3,29.1s7.9-9,19.8-18.1
		c3.4-2.6,6.9-4.7,10.2-6.5C83,27.4,70.3,44.3,70.3,44.3s8.1-9.7,20.6-19.3c15.4-11.7,31.7-13.4,37.6-13.6c2,0.4,4.1,0.9,6.1,1.4
		c-2.4,0.2-4.9,0.6-7.3,1.2c-6.4,0.4-14.5,2.9-20.2,5.2C85.7,28,63.8,56,63.8,56s9.9-11.4,25-22.8c6.7-5.1,13.6-8.7,19.8-11.2
		C94.5,31,82.4,45.2,82.4,45.2s8.9-9.4,22.2-18.4c8.4-5.7,16.8-8.6,23.8-10.2c1-0.1,2-0.3,2.8-0.3c-0.1,0-0.2,0-0.3,0.1
		c-18.7,5-39.4,27.1-39.4,27.1s6.9-6.6,17.5-13.7c-16.7,11.8-31,29.9-31,29.9s10.1-11.5,25.4-23.2c6.7-5.1,13.4-8.7,19.6-11.2
		c-16.6,9.7-31.9,27.2-31.9,27.2s9.6-10,24-19.8c17-11.7,33.8-13.4,40.5-13.6c0.7,0.2,1.5,0.5,2.2,0.7c-4.1,0.4-8.4,1.2-11.8,2.1
		c-2,0.6-4.1,1.3-6.1,2.2c-0.2,0.1-0.4,0.1-0.6,0.2c-22.3,8-47,35.7-47,35.7s9.1-9.3,23.1-19.4c-5.6,4.9-9.3,8.8-9.3,8.8
		s9.4-9,23.2-17.4c0.4-0.2,0.7-0.4,1.1-0.7c14.8-7.3,28-8.9,34.5-9.2c0.6,0.2,1.1,0.4,1.7,0.6c-5.4-0.2-11.9,0.8-16.8,2
		C129.3,29.5,104.6,52,104.6,52s10.9-9,26.4-17.3c0.5-0.3,0.9-0.5,1.4-0.7C115,44.3,99.5,60.3,99.5,60.3s11.4-10.7,28-20.9
		c6.6-4.1,13-6.9,19-8.8c-15.1,7.6-28.6,20.1-28.6,20.1s9.1-7.7,22.6-14.9c-20.4,12-40,33.5-40,33.5s11.9-12,29.4-24.1
		c8.5-5.9,16.8-9.8,24.3-12.5c-18.8,7.7-38.3,25.3-38.3,25.3s11-9.1,26.8-17.6c0.9-0.5,1.8-0.9,2.6-1.4
		c-10.6,7.9-18.8,17.4-18.8,17.4s7.7-8,19.5-15.9c-12.6,9.7-23.1,22.7-23.1,22.7s8.4-9.5,21.1-19.2c8.6-6.6,17.2-10.3,24.3-12.4
		c0.9-0.1,1.7-0.3,2.5-0.4c-9.7,2.2-20,8.6-27.7,14.2c0-0.2,0-0.3,0-0.3s0,0.1,0,0.3c-7.2,5.3-12.1,9.9-12.1,9.9s4.6-3.9,12.1-8.7
		c0,0.6,0,1.5,0,2.4c-9.9,6.1-17,11.8-17,11.8s6.7-4.9,17-10.6c0,0.6,0,1.2,0,1.9c-9.5,7.9-17.4,16.6-21.6,21.4
		c-0.4-0.7-0.6-1-0.6-1s0.2,0.4,0.5,1.1c-1.9,2.2-3,3.6-3,3.6s1.1-1.3,3.1-3.4c1.5,3.1,5.6,11.2,10.9,18.4c-0.5-0.4-1-0.7-1.6-1.1
		c-10.6-7.9-17.5-16.9-17.5-16.9s10.5,15.4,22.6,22.9c-3.6-2.2-7.3-5-10.9-8.7C113.9,77,106.8,65,106.8,65s13.3,25.3,28.3,35.4
		c-1.7-0.8-3.5-1.8-5.2-3.1c-9.8-7-16-15.3-16-15.3s8.6,13,19.1,19.9c-3.5-1.6-7-3.9-10.5-7c-11-9.7-17.9-20.4-17.9-20.4
		s10.2,17.7,22.6,27.2c-2-1-4-2.2-5.9-3.6C110.8,90.5,104,81.6,104,81.6s15.1,22.3,29.9,26c2.8,0.7,6.4,1.2,9.8,1.1
		c1.5,0.2,3,0.3,4.4,0.3c-4.3,0.9-17.2,2.4-28.7-7.6c-9.2-8-14.9-17-14.9-17s12.4,22.5,26,26.6c4.6,1.4,11.5,2.2,16,0.1
		c-3.9,3-7.4,8.4-9.4,12.5c-6.6,14.1,0.2,38.6,0.2,38.6s-2.2-10.4-1.3-23.1c1.3-19.5,16.2-30.2,16.2-30.2c-1.3,0-2.6,0.4-3.9,1.1
		c0.3-0.3,0.7-0.6,0.9-1c2.6-0.2,4.9-0.8,6.6-2c0.4,0,0.7,0,1.1,0c-0.4,0.4-0.9,0.8-1.3,1.2c-5.4,1.7-11,9.4-14,14.9
		c-6.5,12.3-4.3,32.6-3.3,39.3c-0.5-0.2-0.8-0.4-0.8-0.4s0.3,0.2,0.8,0.5c0.2,1.3,0.3,2.1,0.3,2.1s-0.1-0.7-0.2-2
		c0.6,0.4,1.5,0.9,2.6,1.4c0.2,1.4,0.5,2.7,0.7,3.8c-3.9-3.4-5.9-6.6-5.9-6.6s1.9,3.6,5,7.3c-5.5-1.8-8.8-4.2-8.8-4.2
		s4.2,4,10.3,6.4c0.2,0.9,0.3,1.4,0.3,1.4s-0.1-0.5-0.2-1.4c0.2,0.1,0.5,0.2,0.7,0.3c0.6,0.6,1.3,1.2,2,1.7
		c-2.1-0.3-4.3-0.8-6.3-1.8c-3.8-1.7-7-3.8-9.4-5.8c-0.7-4.4-1.4-10.5-1.5-17.1c-0.1-21.1,13.9-33.3,13.9-33.3
		c-6,0.1-11.5,10-13.9,16.6c-3.6,10-1.3,24.3,0.8,33.2c-3.2-2.6-5-4.8-5-4.8s2,3,5.4,6.4c1,4.1,1.9,6.7,1.9,6.7s-0.6-2.3-1.3-6.1
		c4.9,4.8,12.3,10.2,20.6,9.3c0.2,0,0.4,0,0.5-0.1c0,0.1,0,0.1,0,0.1s0-0.1,0-0.2c0.4-0.1,0.9-0.1,1.3-0.2c0.7,0.1,1.3,0.1,2,0.1
		c0.1,0,0.2,0,0.3,0c-5.8,2.3-12.6,3.8-18.8,1.9c-9.3-2.9-14.8-8.5-14.8-8.5s11.9,15.2,26.1,12c4.2-1,10.3-3.3,15.1-6.8
		c0.5-0.2,0.9-0.3,1.4-0.5c-0.5,0.5-1.1,0.9-1.7,1.4c-3.4,2.5-20.2,13.8-32.4,5.2c-5.2-3.7-9-8.4-11.2-11.7
		c-0.8-4.2-1.6-10.4-1.5-17.4c0.1-8,2.4-14.6,5.2-19.6c0.5-0.7,1-1.3,1.4-1.9c0,0.1-0.1,0.1-0.1,0.2c-6.7,13.9,0.2,38,0.2,38
		s-2.2-10.2-1.3-22.8c1.4-19.2,16.3-29.7,16.3-29.7c-0.9,0-1.8,0.2-2.7,0.5c-3.9,0.9-17.1,3-28.7-7.2c-9-7.9-14.6-16.7-14.6-16.7
		S105,114,118.4,118c1.8,0.5,4,1,6.2,1.2c-0.6,0.1-1.3,0.3-2.1,0.4c-5.3,0.2-11.9-0.7-18.9-4.5c-11.2-6-19.3-13.6-19.3-13.6
		s11.3,11.8,23.1,17.6c-5-1-10.5-3-16.3-6.6C78.1,104.4,68.9,95,68.9,95s20.9,23.8,37.8,27.3c4.5,0.9,10.8,1.4,15.4,0.2
		c1.6-0.1,3.2-0.2,4.7-0.5c-1.1,0.8-2.1,1.7-3.1,2.8c-4,1.3-16.2,4.2-29.7-4.3c-10.8-6.8-18.3-14.9-18.3-14.9s12.2,14.5,24.5,20.7
		c-2.7-0.9-5.5-2.3-8.4-4.1c-10.2-6.5-17.5-13.9-17.5-13.9s16.7,18.7,29.9,21.7c2.1,0.5,4.7,0.8,7.3,0.9c-4.3,1.2-10,2.1-16.3,0.9
		c-3-0.9-6.2-2.2-9.5-4.3c-10.6-6.7-18-14.6-18-14.6s2.7,3.3,6.9,7.3c-5-4.3-8-7.9-8-7.9s16.4,22.5,31.7,23.6c1.1,0.1,2.3,0.1,3.6,0
		c0.8,0.1,1.7,0.1,2.5,0.1c-0.6,0.5-1.2,1.1-1.8,1.8c-4.4,0.8-12.1,1-20.4-4.3c-8.4-5.3-14.3-11.6-14.3-11.6s13.5,15.9,24.4,18.1
		c1.8,0.3,3.9,0.5,6,0.5c-5.5,2-13.9,3.4-22-1.6c-9-5.5-14.9-13-14.9-13s13.1,19.3,25.8,19.6c-5.1,1-11.4,1.1-18.3-1.3
		c-11.7-4.1-20.4-10.2-20.4-10.2s20.1,16.2,34.5,15.1c1.1-0.1,2.2-0.2,3.4-0.4c-4,2.8-7.7,7.6-9.9,11.3c-8,13.6-3.3,38.2-3.3,38.2
		s-1.3-10.4,0.7-23c1.2-7.5,4.4-13.5,7.8-18.1c-6,12.3,5.1,31.3,5.1,31.3s-3.9-8.2-4.4-18.7c-0.5-9.5,4.9-17.1,9.4-21.7
		c-1.1,2-2,4.1-2.5,5.9c-3.5,11.2,4.3,29.4,4.3,29.4s-2.8-7.8-3.5-17.6c-0.7-9.3,2.9-16.4,5.7-20.4c1.2-0.7,2.2-1.5,3-2.4
		c0.1-0.1,0.3-0.1,0.4-0.2c-0.6,1.1-1.1,2.2-1.6,3.3c-0.7,1.2-1.3,2.4-1.7,3.5c-6.1,14.1,4.2,35.2,5.6,37.9
		c-0.7-0.9-1.1-1.5-1.1-1.5s7.1,13.1,17.3,18.3c3.2,2.4,7.3,4.6,11.7,5.1c-3.7,0.7-7.7,0.7-11.5-0.9c-8.7-3.7-14.1-10.1-14.1-10.1
		s7.5,11,17.2,14c-6.2-1.6-10-4.7-10-4.7s11.2,11.6,22.7,6.5c0.2-0.1,0.4-0.2,0.6-0.3c-0.9,0.8-1.9,1.8-3,2.7
		c-2.8,1.4-5.9,2.2-9,1.9c-7.9-0.8-13.5-4.8-13.5-4.8s7.7,6.9,16,7.2c-3.6,1.4-7.5,2.1-11.6,1.1c-9.1-2.2-15.4-7.6-15.4-7.6
		s9.8,10.2,20.1,11c-2.1,1-4.2,1.8-6.4,2.3c-5.5-2.2-9.1-5.5-9.1-5.5s2.9,3.2,7,6c-1.3,0.2-2.7,0.3-4,0.3c-2.6-1.5-4.1-2.8-4.1-2.8
		s1.2,1.2,3.1,2.8c-10.9-0.4-18.2-4.5-18.2-4.5s10.3,7.5,22.1,7.2c1.9,1.1,4,2.2,6.2,2.8c-2.5,0.9-5,1.4-7.6,1.3
		c-9.2-0.3-15.4-4.2-15.4-4.2s1.9,1.6,5,3.2c0.6,0.7,2.2,2.3,4.4,4.1c-3.5-2.1-5.5-4.4-5.5-4.4s1.3,1.9,3.5,4.1c-5.6-1-9.1-3-9.1-3
		s4.8,3.4,11.2,5c2.7,2.3,6.1,4.4,9.8,4.7c-1.3,0.9-2.6,1.7-4,2.4c-1,0.4-2.1,0.8-3.1,1c-4.7-1.7-7.8-4.6-7.8-4.6s2.5,2.8,5.9,5
		c-1.1,0.2-2.2,0.3-3.3,0.2c-9.1-0.2-15.2-4.1-15.2-4.1s2.2,1.8,5.6,3.5c-4.2-1.4-6.6-3.4-6.6-3.4s4.3,4.7,10.5,6.8
		c-0.4,0-0.6,0-0.6,0s0.3,0,0.8,0.1c1.9,0.6,4,1.1,6.2,1c1.3,1,2.9,2,4.6,2.8c-2.9,1.5-6.1,2.6-9.3,2.5c-7.2-0.3-12-3.3-12-3.3
		s10.9,8.7,20.7,3.6c0.9-0.5,2-1.1,3.1-1.9c0.5,0.1,1.1,0.2,1.6,0.3c-5.2,4.5-11.6,8.3-18.7,8.8c-11.7,0.8-20.5-3.1-20.5-3.1
		s14.1,8.2,27.2,5.2c3.5,0.1,8.1-0.4,12.3-2.6c-4.3,3.9-9.6,7.3-15.5,7.6c-9.7,0.6-17-3-17-3s11.9,7.7,22.8,5
		c-2.3,1.1-4.9,1.8-7.5,1.9c-9.3,0.5-16.2-2.5-16.2-2.5s16.1,9.1,27.5,1.8c1.8-1.2,4-2.9,6.1-4.9c-3.4,5-8,10.9-13.4,14.6
		c-2.6,1.4-5.4,2.4-8.4,2.6c-9.6,0.6-16.7-3-16.7-3s2.7,1.7,6.6,3.3c-4.7-1.1-7.6-3-7.6-3s5.4,4.6,12.4,6.4
		c-0.4,0.1-0.6,0.1-0.6,0.1s0.3,0,0.8,0c5.1,1.2,11.1,0.9,16.5-3.8c0.8-0.7,1.6-1.5,2.5-2.5c1.6-1.2,3.1-2.7,4.5-4.5
		c0.1-0.1,0.2-0.2,0.3-0.4c0.1-0.1,0.1-0.1,0.2-0.2c-0.3,1-0.6,2-0.9,3c0.1-0.4,0.2-0.7,0.2-1.1c0,0-8.7,15.4-20.4,16
		c-7.6,0.4-13.3-2.4-13.3-2.4s13.1,8.3,22.4,1.8c3.7-2.6,9.3-8.1,10.8-13.9c-0.4,1.5-0.8,3.1-1.1,4.7c-1.2,3.5-2.3,7.1-3.4,10.8
		c-5,4.3-7.7,17.5-8.4,26.4c-0.2,2.7-0.2,5.5,0,8.5c0,0,0,0,0,0l0,0c1.4,22.7,13.9,49.8,13.9,49.8s-6-14.9-9.6-34.6
		c-0.9-5.2-1.4-10.1-1.4-14.8l0.1,0c2.1-11.1,4.7-21.7,7.6-31.9c1.1,22.5,17.3,50.1,17.3,50.1s-7.1-13.7-11.7-32.3
		c-2.7-11-2.6-21.1-1.3-29.3c0.2,20.4,22.6,40.8,22.6,40.8s-8.7-9.2-15-23.5c-5.7-12.9-4-26.4-1.6-35.2c-0.1,3.4,0.1,6.8,0.5,9.6
		c2.3,17.5,20.8,38.6,20.8,38.6s-7.3-9.3-13.4-22.6c-7.3-15.8-5.3-30.4-4.1-36.1c0.6-1.4,1.1-2.7,1.7-4c-0.2,2.9-0.3,5.8-0.1,8.6
		c-0.1,2.1-0.1,4,0,5.8c1.1,24.6,27.2,50.1,27.2,50.1s-4.2-4.7-9.2-12.6c4.7,6.6,8.5,10.9,8.5,10.9s-9.2-11.7-16.9-28.5
		c-2.4-5.2-3.9-10.3-4.9-15.1c-1.3-10-0.2-19.3,1.3-26.1c0,4,0.4,8.2,0.9,11.6c3.4,21.2,25,47.3,25,47.3s-8.6-11.5-16-27.7
		c-2.1-4.6-3.6-9.1-4.7-13.4c7,19.5,23.8,38.7,23.8,38.7s-9.4-11.9-17.2-28.9c-9.9-21.5-6.2-41.3-4.6-47.6c1.2-2.2,2.4-4.3,3.6-6.5
		c-0.5,3-0.8,6.1-0.9,9.2c-1.5,7.5-1,17.4,0,24.7c3.9,26.9,31.4,59.8,31.4,59.8s-10.9-14.4-20.2-34.9c-4.1-9.1-6.4-17.9-7.5-25.9
		c6.7,18.7,20.3,36.4,20.3,36.4s-8.7-12.7-15.6-30.6c-4.3-11.2-5.3-21.7-5-30.2c0.1-1.2,0.3-2.4,0.5-3.4c0,0.1,0,0.2,0,0.3
		c0.3,22.9,20.9,52.7,20.9,52.7s-6-9.8-11.4-24c9.2,22.5,27.1,44,27.1,44s-11-14.7-20.5-35.5c-4.1-9-6.4-17.7-7.6-25.6
		c6.7,21.7,23.4,44,23.4,44s-9.3-13.8-16.9-32.9c-9.2-23.2-5.7-43.4-3.9-50.8c0.5-0.8,1-1.5,1.6-2.3c-0.9,4.9-1.2,10.3-1.2,14.6
		c0,2.5,0.3,5.1,0.8,7.7c0,0.2,0,0.5,0.1,0.7c2.7,27.9,29.1,63.7,29.1,63.7s-8.6-13-16.6-31.8c4.3,7.8,7.9,13.1,7.9,13.1
		s-8.1-13.2-14.1-31.4c-0.2-0.5-0.3-1-0.5-1.5c-4.4-19.3-2-35.2-0.4-42.5c0.4-0.6,0.9-1.2,1.3-1.8c-2,6.3-2.9,14.3-3,20.3
		c-0.5,24.9,19.4,59.4,19.4,59.4s-7.7-14.9-13-35.1c-0.2-0.6-0.3-1.2-0.4-1.8c7.2,22.8,22,44.9,22,44.9s-9.5-16-16.9-37.8
		c-2.9-8.7-4.3-16.9-4.9-24.3c4.5,19.4,15.7,38.3,15.7,38.3s-6.5-12.5-11.2-29.8c8.3,26.7,28.5,54.9,28.5,54.9s-11-17-20.4-40.3
		c-4.5-11.4-6.8-22.1-7.7-31.4c3.5,23.8,19.1,50.9,19.1,50.9s-7.7-15.2-13.2-35.6c-0.3-1.1-0.6-2.3-0.8-3.4
		c6.3,14.4,15.4,26.3,15.4,26.3s-7.5-11-13.4-26.8c8,17.2,20.7,32.7,20.7,32.7s-9.1-12.2-17-29.5c-5.3-11.6-7.2-22.6-7.6-31.3
		c0.1-1,0.2-2,0.3-3c-0.6,22.7,17.1,52.3,17.1,52.3s-7-13.4-11.6-31.6c-4.2-16.7-1.5-31.3,1.3-40.4c-1.3,5.4-1.7,11.6-1.5,16.5
		c0.1,2.8,0.5,5.6,1.1,8.5c1.3,24.4,16,54.3,16,54.3s-5.9-13.6-10-32.2c9.7,23.3,27.9,45.3,27.9,45.3s-11.5-15.4-21.4-37.2
		c-0.7-1.6-1.4-3.2-2-4.9c5.2,9.3,10.2,15.9,10.2,15.9s-8.2-12.1-14.3-29.1c-0.1-0.3-0.2-0.5-0.3-0.8c-1.4-6.1-2.2-11.9-2.5-17.1
		c0.3-4.2,0.8-8.1,1.5-11.6c0,1-0.1,2-0.1,3c-0.2,3.8-0.1,7.6,0.1,10.8c0.8,10.8,5.8,22.8,11.2,32.9c1.1,2.4,1.8,3.8,1.8,3.8
		s-0.3-0.7-0.8-2.1c6.6,12,13.3,20.9,13.3,20.9s-9.2-13.6-16.6-32.5c-5.8-15-6.1-28.9-5-38.8c-0.1,7.1,1.8,14.8,4.3,22.1
		c4.3,19.4,13.3,37.6,13.3,37.6s-4.5-10.4-8.4-25.5c4.4,9.4,8.8,16.1,8.8,16.1s-2.4-4.2-5.3-11c10.1,19.8,23.8,36.4,23.8,36.4
		s-11.6-15.7-21.7-37.8c-6-13.2-8.5-25.8-9.3-36.3c0.1-0.9,0.1-1.7,0.2-2.6c0.1,1.4,0.2,2.7,0.3,4c2.7,26,27.6,59.7,27.6,59.7
		s-9.1-13.7-17.1-33c-1.8-5.5-4.2-13.5-5.7-22.8c-1.3-8.3-0.9-16,0.3-22.7c0.1,0.6,0.2,1,0.3,1.1c-0.1,1.3-0.2,2.5-0.3,3.7
		c-0.4,7.9,1.8,16.6,4.7,24.5c3.4,16.9,9.5,31.7,9.5,31.7s-3.4-9.5-6.1-23.5c2,4.4,4.1,8.3,5.8,11.3c8.9,18.3,19.7,33.2,19.7,33.2
		s-10.9-16.7-20-39.8c-5.3-13.6-7.2-26.2-7.5-36.7c0.3-2.3,0.6-4.6,1-6.7c0,0.1,0,0.2,0.1,0.2c-0.8,20.2,9.3,43.7,9.3,43.7
		s-4.8-13.3-6.3-30.9c-0.2-2.5-0.3-5-0.2-7.4c0,1.1,0.1,2.2,0.1,3.2c1.6,29.3,27.5,68.4,27.5,68.4s-10.1-17-18-40.3
		c-2-5.8-3.3-11.3-4.2-16.6c1.8,5.7,4,10.9,5.7,14.8c2.2,6.9,4.2,11.4,4.2,11.4s-1-2.8-2.3-7.5c1.1,2.2,1.8,3.4,1.8,3.4
		s-1-2.1-2.4-5.7c-1.3-4.9-2.8-11.3-3.9-18.7c8.5,29,30.9,60.5,30.9,60.5s-11.6-18.1-21.6-42.9c-7.3-18.3-9.1-35-9-47.3
		c0.5-2.3,1-4.5,1.6-6.5c-1.9,9.1-0.6,19.7,1.4,29c2.5,19.2,16.2,41.7,16.2,41.7s-6.4-11.8-11-27.7c-2.8-9.6-3.2-18.5-2.6-25.6
		c0.9,4.3,2.1,8.6,3.4,12.4c2.4,13.6,6.2,24.5,6.2,24.5s-2.1-7.1-3.7-17.9c2.2,5.4,4.4,9.5,5.2,11.1c6.2,17.7,15.5,32.9,15.5,32.9
		s-8.1-14.8-13.8-35c-1.3-4.5-2.1-8.9-2.7-13c2.2,7.4,4.4,12.5,4.4,12.5s-3.1-8.6-5.1-21.2c0-1.1,0-2.2,0-3.2
		c3.6,18.2,13.7,36.4,13.7,36.4s-6.3-12.9-10.2-30.3c-1.2-5.1-1.6-10-1.7-14.6c2.7,14,8.3,26,8.3,26s-4.9-12.4-6.7-29
		c-0.5-4.3-0.4-8.4,0-12.3c0.8-2.8,1.6-4.8,2-5.9c-3.3,22.6,7.4,53.1,7.4,53.1s-2.5-8.4-4.1-20.8c5.4,22.1,18.9,44.2,18.9,44.2
		s-8.2-15-14.1-35.6c-2.6-8.9-3.5-17.3-3.5-24.7c3.2,21,15.6,43.8,15.6,43.8s-6.7-14-11-32.7c-1.3-5.4-1.9-10.5-2.1-15.3
		c2.2,15.9,9,30.5,9,30.5s-4.9-12.4-6.6-29c-0.4-4-0.4-7.9-0.1-11.5c0.2,3.6,0.6,6,0.6,6.5c1,19.2,7.9,38.4,7.9,38.4
		s-3.4-11.7-4.9-27.7c4.8,21.6,16,42.7,16,42.7s-6.6-14.2-11.4-33.6c0.5,1.2,0.8,1.9,0.8,1.9s-0.8-2.2-1.7-5.9
		c-2.7-12.2-2.6-23.2-1.5-32.2c0.3-1.3,0.7-2.6,1.1-3.9c-0.3,2.5-0.3,4-0.3,4s0.3-3,1.5-7.4c0.7-1.7,1.4-3.3,2.2-4.7
		c-1,4-1.6,8.1-2,11.7c-2.6,25.7,14.9,62.9,14.9,62.9s-2.8-6.8-5.8-17.4c0,0.1,0,0.1,0,0.1s-1.9-6.4-3.1-16.2
		c2.5,7.9,5.1,13.4,5.1,13.4s-4.2-10.5-6.1-25.1c-0.1-1.6-0.1-3.2-0.1-4.8c0-3.1,0.2-6.1,0.6-9c1.4,24,16.9,52.9,16.9,52.9
		s-7.1-15-11.6-35.1c-1.1-4.8-1.7-9.5-1.9-13.9c1.9,14.3,7.9,26.8,7.9,26.8s-4.6-11.8-5.6-27.8c-0.6-10.5,2.3-20,5.9-27.4
		c0.2,0,0.5,0,0.7,0c-0.6,1.2-1.1,2.4-1.5,3.5c-7.4,19.1,3.7,48.2,3.7,48.2s-3.8-12.5-3.8-28.6c0-2.4,0.2-4.8,0.5-7
		c1,13.6,7.3,26,7.3,26s-4.2-10.3-4.8-24.3c-0.3-6.7,1.2-13,3.4-18.5c1.2-0.4,2.4-1,3.7-1.7c0.4,0.2,0.5,0.3,0.5,0.3
		c-0.1-0.2-0.2-0.3-0.3-0.5c0.2-0.1,0.4-0.2,0.5-0.3c1.2,0.6,1.9,0.9,1.9,0.9c-0.3-0.5-0.7-1-1.1-1.4c2.5-1.7,4.7-4,5.6-6.8
		c0,0-2.5,2.7-6.3,4.9c-0.4-0.4-0.9-1.1-1.5-1.8c4.5-7.1,9-11.2,9-11.2c-0.5,0.1-1,0.2-1.5,0.4L284.8,83.4z M122.2,22.3
		c6-2.6,11.7-4.1,16.7-4.9C133.2,18.3,126.9,20.3,122.2,22.3z M147.5,17.1c-1.9-0.3-4.2-0.3-6.6,0c2.7-0.4,5.2-0.5,7.2-0.6
		c0.4,0.1,0.8,0.2,1.2,0.3C148.7,16.9,148.1,17,147.5,17.1z M118,167.4c-1.1-1.7-1.7-2.9-1.7-2.9s0.7,1.9,2.1,4.5
		c0.8,3.2,1.5,5.1,1.5,5.1s-0.4-1.5-0.9-4c3.9,7.2,11.6,18.5,21.6,17.6c0.9-0.1,1.9-0.2,3-0.5c2.4-0.1,5-0.7,7.7-1.9
		c-0.9,0.6-1.7,1.1-2.6,1.7c-1.5,0.7-3,1.3-4.5,1.7c-0.6,0.1-1.1,0.1-1.7,0.1c-8.5,0.1-14.1-3.1-14.1-3.1c-3-2.7-4.6-5.2-4.6-5.2
		s2,4.2,5.6,8.1c-4.2-1-6.8-2.4-6.8-2.4s3.5,2.5,8.5,4.2c0.5,0.5,1.1,0.9,1.7,1.4c-8.2-1.4-13-5.9-13-5.9s3.3,4.1,8.4,6.8
		c-3.6-0.4-6.6-1.2-8.8-2c-0.8-0.9-1.4-1.6-1.9-2.2c-1.2-4.4-3.5-13.5-4.2-24.3c-0.4-6.7,0.5-12.7,2-17.8
		C115,153.8,116.6,161.9,118,167.4z M127.8,196.6c-2.6-1.1-4.7-2.6-6.5-4.1c4.5,2.1,10.9,3.9,17.8,2.2c0.3,0,0.6-0.1,0.9-0.2
		c0.5,0,1,0,1.5,0c-1.9,1-3.9,1.9-6,2.6C132.9,197.7,130.3,197.7,127.8,196.6z M131,201.6c-0.9,0.2-1.8,0.3-2.7,0.4
		c-0.5-0.1-1-0.3-1.4-0.5C128.2,201.7,129.5,201.8,131,201.6C130.9,201.6,131,201.6,131,201.6z M133.5,189.4c-2-1.1-3.8-2.4-5.2-3.6
		c0.1,0.1,3.1,2.3,7.6,3.9C135.1,189.6,134.3,189.5,133.5,189.4z M118.3,190.2c-0.1-0.1-0.2-0.1-0.4-0.2c-0.1-0.3-0.2-0.5-0.3-0.9
		C117.9,189.5,118.1,189.9,118.3,190.2z M116.8,193.1c-2.5-3.2-3.8-5.8-3.8-5.8s0.8,2,2.3,4.7c-1.5-1.1-2.4-1.9-2.4-1.9s1.1,1.3,3,3
		c0.7,1.1,1.4,2.3,2.3,3.5c-5.8-2.2-9.2-5.3-9.2-5.3s4.7,5.5,11.7,8.4c0.7,0.7,1.4,1.5,2.1,2.1c-2.3-0.3-4.5-1-6.7-2.1
		c-7.3-3.9-12.4-9.7-14.5-12.4c-0.4-0.9-1.9-4.7-3.1-10.1c1.6,5.4,3.2,9.1,3.2,9.1s-3.6-9.8-4.4-22.2c-0.3-3.8,0.1-7.3,0.8-10.5
		c2-6.4,5.6-11.7,8.8-15.4c-1.2,2.4-2.2,5.1-2.8,7.3c-3.8,13.8,4.9,35.9,4.9,35.9s-3.1-9.5-4-21.5c-0.2-3.4,0-6.6,0.4-9.5
		c-0.5,13.8,6.6,30.4,6.6,30.4s-3.6-9.9-4.5-22.5c-0.8-11.4,3.5-20.2,7.1-25.4c0.6-0.5,1.1-1.1,1.4-1.8c0.4-0.4,0.8-0.8,1.2-1.2
		c1.2-0.4,2.2-1,2.9-1.8c0.4-0.1,0.8-0.3,1.2-0.5c-0.7,1-1.4,2.1-2,3.2c-3.4,4.1-6,10.2-7.4,14.9c-4.1,13.8,2.2,34.3,4.9,42.1
		c-0.3-0.5-0.5-0.8-0.5-0.8s0.3,0.6,0.8,1.4c0.2,0.6,0.4,1.1,0.5,1.5c-2-0.8-3.2-1.6-3.2-1.6s1.3,1.1,3.5,2.4
		c0.1,0.1,0.1,0.2,0.1,0.2s0-0.1-0.1-0.2c0.3,0.2,0.6,0.3,0.9,0.5c0.5,0.7,1.1,1.5,1.7,2.3c-0.1,0-0.1-0.1-0.1-0.1s0.1,0.1,0.2,0.2
		c0.9,1,1.8,2.1,2.9,3.1C120.9,195.7,118.6,194.3,116.8,193.1z M122.2,197.9c-0.4-0.1-0.8-0.2-1.2-0.3c-0.6-0.6-1.2-1.2-1.8-1.8
		C120.1,196.6,121.1,197.3,122.2,197.9z M126.4,206.4c0.5,0,1.1-0.1,1.6-0.1c0.6-0.1,1.3-0.2,2-0.4c0.7,0.1,1.4,0.1,2.1,0.1
		c2.3-0.1,5.3-0.8,8.3-2.1C136.2,205.9,131.3,207.3,126.4,206.4z M113.3,232c-0.9-0.2-1.8-0.5-2.6-0.8c0.9-0.1,1.8-0.3,2.8-0.5
		c1.7,0.8,3.6,1.3,5.4,1.4c-0.1,0-0.2,0.1-0.2,0.1C116.9,232.5,115.1,232.4,113.3,232z M103.2,238.8c-3.3-1.6-5.7-3.4-6.6-4.2
		c3.9,2,9.5,4,15.4,3.2c-2.4,0.8-4.9,1.2-7.4,1.1C104.1,238.9,103.6,238.8,103.2,238.8z M109.1,240.8c2-0.2,4.1-0.7,6-1.7
		c1.9-0.9,4.3-2.3,6.6-4c-1.4,1.4-2.9,3-4.5,4.5c-0.6,0.3-1.3,0.6-1.9,0.9C113.3,241.1,111.2,241.3,109.1,240.8z M106.3,254.3
		c-2.1-0.2-4-0.7-5.6-1.4c2-0.2,4.1-0.7,6.2-1.8c1.1,0.3,2.2,0.4,3.3,0.3C109.1,252.4,107.8,253.4,106.3,254.3z M113.2,250.6
		c0.6-0.2,1.2-0.5,1.8-0.9c-0.9,1.1-1.9,2.2-2.9,3.3c-0.7,0.4-1.5,0.8-2.2,1C111,253,112.2,251.8,113.2,250.6z M104.2,264.7
		c-0.7,0.3-1.4,0.5-2,0.8c0.4-0.2,0.9-0.5,1.3-0.8c2.9-1.9,6.6-5,9.8-8.7c0.8-0.4,1.5-1,2.2-1.7
		C112.5,258.7,108.8,262.8,104.2,264.7z M120.4,243.1c0.1-0.4,0.2-0.7,0.2-1.1c0,0-0.6,1-1.8,2.7c-0.9,0.8-2,1.6-3.2,2.3
		c0.3-0.5,0.5-1.1,0.7-1.6c0,0-0.8,1-2.3,2.5c-1.3,0.6-2.7,1.1-4.1,1.3c0.6-0.4,1.2-0.9,1.9-1.4c1.7-1,3.4-2.2,5-3.7
		c0.1-0.1,0.2-0.2,0.3-0.3c0.4-0.3,0.8-0.7,1.2-1.1c0.5-0.3,1-0.7,1.6-1.1c0.6-0.3,1.2-0.7,1.8-1.1
		C121.4,241.3,120.9,242.2,120.4,243.1z M123.2,240.6c0.1-0.5,0.3-1,0.4-1.5c0.2-0.2,0.4-0.3,0.6-0.5
		C123.8,239.3,123.5,239.9,123.2,240.6z M125.8,232.9c0.2-0.3,0.4-0.6,0.5-0.9c0.3-0.2,0.6-0.4,0.9-0.6
		C126.8,231.9,126.3,232.4,125.8,232.9z M134.3,220c0.2-0.5,0.4-1,0.6-1.5c0,0-3.6,4.5-9,8.8c-2.7,1.4-5.6,2.2-8.7,2
		c0.3-0.1,0.7-0.3,1-0.5c2.5-1.3,5.6-3.2,8.7-5.5c2.8-1.5,6-3.6,8.6-6.4c0.4-0.3,0.8-0.6,1.2-0.9C135.8,217.4,135.1,218.7,134.3,220
		z M136.6,213c0.1-0.2,0.2-0.3,0.3-0.5c0.2-0.1,0.4-0.2,0.6-0.4C137.3,212.4,137,212.7,136.6,213z M128.5,212.8
		c3.1-0.6,7.3-2.1,11-4.6C136.2,210.4,132.4,212.2,128.5,212.8z M142.7,205.8c-0.1,0.1-0.2,0.3-0.3,0.4c-0.8,0.6-1.7,1.2-2.6,1.8
		C140.8,207.4,141.8,206.6,142.7,205.8z M141.3,222.4c-0.6,6.8-0.1,14.6,0.8,20.6C140.7,235.4,140.7,228.4,141.3,222.4z
		 M143.6,212.4c-1,2.1-1.6,4.7-2,7.6c0.5-3.4,1.1-6.5,1.7-9c0.2-0.4,0.5-0.8,0.7-1.2C143.9,210.7,143.7,211.5,143.6,212.4z
		 M147,199.9c-1,0.7-2.1,1.5-3.4,2.2c1.7-1.1,3.4-2.6,4.7-4.3c0.1,0,0.1-0.1,0.2-0.1C148,198.4,147.5,199.2,147,199.9z M155.8,187.6
		c-1.1,0.9-2,2.3-2.8,3.8c-0.1,0.2-0.3,0.4-0.4,0.5c-0.9,0.6-1.8,1.2-2.9,1.8c0.3-0.5,0.6-1,0.9-1.6c0,0-1.8,1.4-4.7,3.2
		c1.9-1.4,3.8-3,5.5-4.9c1.5-1,3.1-2.1,4.6-3.3C156,187.3,155.9,187.4,155.8,187.6z M231,68.6c0.1,0.1,0.1,0.3,0.2,0.4
		c-0.1-0.1-0.3-0.3-0.4-0.4C230.9,68.6,230.9,68.6,231,68.6z M230.6,61.3c0,0.1,0,0.2,0,0.3c-0.2,0-0.3,0-0.5,0
		c0-0.1-0.1-0.2-0.1-0.3C230.2,61.3,230.4,61.3,230.6,61.3z M230.6,69.1c-0.1,0-0.2,0-0.3,0c0,0,0,0,0-0.1
		C230.4,69.1,230.5,69.1,230.6,69.1z M230.3,88c-0.9,0.4-1.8,0.8-2.7,1.3c-0.2,0-0.4,0-0.6-0.1c0,0-0.1-0.1-0.1-0.1
		c0.1-0.1,0.2-0.1,0.2-0.2c0.4-0.1,0.9-0.2,1.3-0.4c0,0-0.2,0-0.6-0.1c0.4-0.2,0.7-0.4,1-0.6C229.4,88,229.8,88,230.3,88z
		 M230.1,95.2c0,0-0.1,0.1-0.1,0.1c-0.4,0.4-0.7,0.8-1.1,1.3c-0.1,0-0.2-0.1-0.2-0.1C229.2,96,229.7,95.6,230.1,95.2z M227.2,114.9
		c0.1-0.5,0.2-1,0.4-1.4c0.3-0.2,0.6-0.4,0.9-0.6c-0.1,0.4-0.2,0.9-0.2,1.3C228,114.3,227.7,114.6,227.2,114.9z M228.2,114.3
		c0,0.1,0,0.1,0,0.2c-0.1,0-0.2,0.1-0.2,0.1C228,114.5,228.1,114.4,228.2,114.3z M221.7,106.5C221.7,106.5,221.6,106.5,221.7,106.5
		c0-0.1,0-0.2,0-0.2c0.2,0,0.5-0.1,0.7-0.1c0.3,0,0.6,0,0.9,0.1c-0.1,0.2-0.2,0.4-0.3,0.6c0,0,0,0,0,0c-0.3-0.1-0.6-0.1-0.9-0.2
		c-0.1,0-0.2-0.1-0.3-0.1c0.1-0.1,0.2-0.1,0.3-0.2C222.1,106.3,222,106.4,221.7,106.5z M222.9,98.8c-0.4,0.5-0.8,0.9-1.2,1.4
		c0,0,0,0,0,0c-0.1,0-0.1-0.1-0.2-0.1c0.8-1,1.6-1.9,2.4-2.8C223.6,97.8,223.2,98.3,222.9,98.8z M225.6,90.1c0.2,0,0.4-0.1,0.7-0.2
		c0,0,0.1,0.1,0.1,0.1c-1.2,0.8-2.4,1.6-3.5,2.5c-0.1-0.1-0.1-0.1-0.1-0.1s0,0.1,0.1,0.1c-0.1,0.1-0.3,0.2-0.4,0.3
		c-0.4,0.2-0.8,0.5-1.3,0.7C222.7,92.3,224.2,91.1,225.6,90.1z M223.7,78.5c0.4-0.1,0.8-0.3,1.3-0.4c0.2,0.2,0.3,0.4,0.5,0.5
		c-0.3,0.1-0.7,0.2-1,0.3C224.1,78.8,223.9,78.6,223.7,78.5z M226.6,98.9c0.3-0.1,0.5-0.2,0.8-0.3c-0.6,0.9-1.2,1.8-1.7,2.7
		c-0.1,0-0.2,0-0.3,0c-0.3-0.1-0.7-0.2-1-0.3c0.1-0.1,0.2-0.3,0.3-0.4C225.4,100,226,99.4,226.6,98.9z M223.9,115.7
		c0.5-0.3,1-0.6,1.5-0.9c-0.1,0.5-0.1,0.9-0.2,1.4c-0.5,0.3-1.1,0.7-1.8,1.1C223.6,116.8,223.7,116.3,223.9,115.7z M225.1,112.3
		c0.1-0.1,0.1-0.2,0.2-0.4c0.2,0,0.4-0.1,0.7-0.1c0,0.1,0,0.2-0.1,0.3C225.6,112.2,225.4,112.3,225.1,112.3z M225.7,124.4
		c0.6-1.6,1.3-3,1.9-4.2c0,0.5-0.1,1-0.1,1.4c-0.7,1.4-1.3,2.8-1.9,4.3C225.6,125.4,225.7,124.9,225.7,124.4z M228.2,111.3
		C228.2,111.2,228.2,111.2,228.2,111.3C228.3,111.2,228.3,111.2,228.2,111.3C228.3,111.2,228.3,111.2,228.2,111.3z M227.8,68.9
		c0.1,0,0.2,0,0.2,0c0.1,0.2,0.1,0.4,0.2,0.6c0,0-0.1,0-0.1,0C228,69.3,227.9,69.1,227.8,68.9z M228.3,54.6c0.1,0.1,0.2,0.1,0.3,0.2
		c-0.2,0-0.5-0.1-0.7-0.1c0,0,0-0.1,0-0.1C228,54.6,228.2,54.6,228.3,54.6z M228.5,61.2c0,0.1,0,0.1,0.1,0.2c-0.3,0-0.5,0-0.8,0
		c0-0.1,0-0.1,0-0.2C228,61.2,228.2,61.2,228.5,61.2z M227.3,66c-0.2,0-0.4,0.1-0.7,0.1c0-0.1-0.1-0.2-0.1-0.2c0.2,0,0.5,0,0.7,0
		C227.3,65.9,227.3,66,227.3,66z M227,54.5c0.1,0,0.1,0,0.2,0c0,0,0,0.1,0,0.1c-0.2,0-0.3-0.1-0.5-0.1c0,0,0,0,0,0
		C226.8,54.5,226.9,54.5,227,54.5z M226.6,61.2c0,0,0,0.1,0,0.1c-0.4,0-0.8,0-1.2,0c0,0,0-0.1,0-0.1
		C225.8,61.2,226.2,61.2,226.6,61.2z M225,68.9c0.1,0.2,0.1,0.4,0.2,0.6c-0.1-0.2-0.2-0.4-0.3-0.5C224.9,68.9,224.9,68.9,225,68.9z
		 M224.3,66.1c0,0.1,0,0.2,0.1,0.2c-0.3,0-0.6,0-0.8,0.1c0,0,0,0,0,0c0-0.1-0.1-0.1-0.1-0.2C223.7,66.1,224,66.1,224.3,66.1z
		 M223.6,61.3C223.6,61.3,223.6,61.3,223.6,61.3C223.6,61.3,223.6,61.3,223.6,61.3c-0.2,0-0.3,0-0.5,0
		C223.2,61.4,223.4,61.3,223.6,61.3z M221.1,80.1C221.1,80.1,221.1,80.1,221.1,80.1c-0.1,0.1-0.2,0.1-0.3,0.1
		c-0.2-0.2-0.4-0.3-0.6-0.5c0.1,0,0.2-0.1,0.3-0.1C220.6,79.7,220.8,79.9,221.1,80.1z M220.2,69.9c0.2,0.4,0.3,0.8,0.5,1.3
		c-0.5,0.2-1.1,0.3-1.6,0.5c-0.2-0.4-0.3-0.9-0.5-1.3C219.2,70.2,219.7,70.1,220.2,69.9z M217,64.9c0-0.1,0-0.2-0.1-0.3
		c0.5-0.1,1-0.1,1.4-0.2c0,0,0,0.1,0,0.1C218,64.6,217.5,64.7,217,64.9z M217.5,97.5c-0.1,0.1-0.3,0.3-0.4,0.4c0,0,0,0-0.1,0.1
		c0,0,0,0,0,0c0.1-0.1,0.2-0.3,0.4-0.4C217.5,97.5,217.5,97.5,217.5,97.5z M214.1,71.9c0.2,0.4,0.4,0.8,0.6,1.2c0,0-0.1,0-0.1,0
		c-0.2-0.4-0.4-0.8-0.6-1.2C214,71.9,214.1,71.9,214.1,71.9z M213.7,60.4c-0.1,0-0.2,0-0.3,0c0-0.1,0-0.3-0.1-0.4
		c0.8-0.1,1.6-0.2,2.3-0.3c0,0.1,0,0.2,0,0.2C215,60,214.4,60.2,213.7,60.4z M215.2,106.2c-0.1,0.2-0.2,0.4-0.2,0.6
		c-0.4,0-0.7-0.1-1.1-0.1c0.1-0.2,0.3-0.4,0.4-0.6C214.6,106.1,214.9,106.2,215.2,106.2z M214.8,82.6
		C214.8,82.6,214.8,82.6,214.8,82.6C214.8,82.6,214.8,82.6,214.8,82.6C214.8,82.6,214.8,82.6,214.8,82.6z M214.5,65.6
		c-0.1-0.2-0.1-0.5-0.2-0.7c0.5-0.1,1.1-0.2,1.6-0.2c0,0.2,0,0.3,0,0.5C215.4,65.3,215,65.5,214.5,65.6z M215.9,57
		c0-0.1,0-0.2,0-0.4c0.3,0,0.6,0,1,0c0,0.1,0,0.2,0,0.2C216.6,56.9,216.2,57,215.9,57z M217.3,59.4
		C217.3,59.5,217.3,59.5,217.3,59.4c-0.4,0.1-0.8,0.2-1.1,0.3c0-0.1,0-0.1,0-0.2C216.5,59.5,216.9,59.5,217.3,59.4z M216.9,70.9
		c0,0.1,0.1,0.3,0.1,0.4c-0.1-0.1-0.1-0.2-0.2-0.4C216.8,70.9,216.8,70.9,216.9,70.9z M217.5,56.8c0-0.1,0-0.1,0-0.2
		c0.4,0,0.8,0,1.2,0c0,0,0,0,0,0.1C218.3,56.7,217.9,56.8,217.5,56.8z M219,78.4c-0.1,0-0.2,0.1-0.3,0.1c-0.1-0.1-0.2-0.2-0.3-0.2
		c0.1,0,0.2-0.1,0.3-0.1C218.8,78.3,218.9,78.3,219,78.4z M215.6,47.7c1,0.1,1.8,0.2,2.5,0.3c0.2,0.1,0.5,0.3,0.7,0.4
		c0,0.1,0,0.1,0,0.2c-1.4-0.3-3-0.6-4.6-0.8C214.6,47.7,215.1,47.7,215.6,47.7z M213.9,56.8c0.6,0,1.2-0.1,1.8-0.1
		c0,0.1,0,0.3,0,0.4c-0.9,0.1-1.8,0.3-2.7,0.5c0-0.2,0-0.4-0.1-0.6C213.3,56.9,213.6,56.8,213.9,56.8z M213.3,118.5
		C213.3,118.5,213.2,118.5,213.3,118.5C213.2,118.5,213.2,118.5,213.3,118.5C213.2,118.5,213.3,118.5,213.3,118.5z M198.1,113.5
		C198.1,113.5,198,113.5,198.1,113.5c0-0.1,0-0.3,0-0.4c0,0,0.1,0,0.1,0C198.2,113.2,198.1,113.4,198.1,113.5z M198.3,119.1
		c0,0.1,0,0.3,0,0.4c0,0,0,0-0.1,0C198.2,119.3,198.3,119.2,198.3,119.1z M198.2,120.6c-0.1,0.7-0.1,1.3-0.1,2
		c-0.2,0-0.4-0.1-0.6-0.1c0.2-0.6,0.3-1.3,0.5-1.9C198,120.6,198.1,120.6,198.2,120.6z M197.5,115.4c0-0.1,0-0.2,0.1-0.3
		c0,0,0,0,0,0C197.6,115.2,197.6,115.3,197.5,115.4C197.6,115.4,197.6,115.4,197.5,115.4z M197.7,101.2c-0.8,0.6-1.6,1.1-2.3,1.6
		c0.5-0.9,1-1.7,1.5-2.4C197.2,100.7,197.4,100.9,197.7,101.2C197.7,101.2,197.7,101.2,197.7,101.2z M186.1,116.3c-0.6-0.6-1-1-1-1
		s0.3,0.5,0.9,1.2c-0.4,1.9-0.7,3.9-0.9,5.9c-0.4-0.2-0.9-0.5-1.3-0.8c-1-0.7-2-1.3-2.9-2c0.9-4,2.2-7.5,3.6-10.5
		c0.5,0.3,1.1,0.5,1.7,0.8c0.4,0.5,0.8,1,1.3,1.6c-0.2,0.4-0.3,0.8-0.5,1.2C186.7,113.9,186.4,115.1,186.1,116.3z M187,149
		c-0.1,0.1-0.2,0.1-0.3,0.2C186.9,149.1,186.9,149,187,149C187,148.9,187,148.9,187,149z M180.3,142.1c0-0.3-0.1-0.6-0.1-1
		c1.7,0.5,3.6,0.8,5.6,0.6c0,0.1,0,0.3,0.1,0.4C184.1,142.3,182.2,142.3,180.3,142.1z M182.9,146.4c-0.6,0.2-1.3,0.3-2,0.4
		c0-0.1,0-0.1,0-0.2C181.5,146.6,182.2,146.5,182.9,146.4z M167.1,162.6c-0.1-0.4-0.2-0.8-0.3-1.3c1.8-0.2,3.7-0.6,5.6-1.3
		C170.7,160.9,169,161.8,167.1,162.6z M168.2,167.4c-0.2,0.1-0.4,0.2-0.7,0.3C167.8,167.6,168,167.5,168.2,167.4
		C168.2,167.4,168.2,167.4,168.2,167.4z M148.5,158.2c-0.1-0.8-0.2-1.7-0.2-2.6c0.6,0.6,1.2,1.1,1.9,1.6c0.1,1.1,0.3,2,0.4,2.6
		C149.7,159.3,149.1,158.7,148.5,158.2z M154.9,164.7c-2.2-0.3-4.2-0.9-5.8-1.5c-0.2-1.3-0.3-2.7-0.5-4.1
		C150.1,160.9,152.2,163,154.9,164.7z M156.9,140c0.6,0.8,1.3,1.6,2,2.3c-0.1,3.8-0.1,7.1,0,9.6c-0.6-0.3-1.2-0.6-1.7-1
		c-0.7-3.6-1.5-8.1-1.9-13c0.2,0.3,0.5,0.6,0.7,0.9c0.4,6.6,1.3,11.4,1.3,11.4S156.8,146.2,156.9,140z M210.1,98.5
		C210.1,98.5,210.1,98.5,210.1,98.5c0.1-0.2,0.3-0.4,0.4-0.5c0,0,0,0,0,0C210.4,98.2,210.2,98.3,210.1,98.5z M210.5,102.3
		c0.1,0,0.2,0.1,0.3,0.1c-0.1,0.3-0.3,0.6-0.4,0.9c0,0,0,0,0,0c-0.2,0-0.3-0.1-0.5-0.1C210.1,102.9,210.3,102.6,210.5,102.3z
		 M210.1,72c-0.2-0.1-0.3-0.2-0.5-0.3c0.7-0.2,1.3-0.4,1.9-0.6c0,0.1,0,0.1,0,0.2C211.1,71.5,210.6,71.7,210.1,72z M209.5,67.4
		c-0.7,0.1-1.4,0.3-2.1,0.4c-0.2-0.4-0.4-0.9-0.6-1.3c1.2-0.3,2.4-0.6,3.5-0.9c0.1,0.4,0.1,0.9,0.2,1.3
		C210.2,67.1,209.8,67.3,209.5,67.4z M209,104.6c0.1,0,0.1,0,0.2,0.1c-0.3,0.3-0.5,0.6-0.7,0.9c0,0,0,0,0,0
		C208.7,105.3,208.8,104.9,209,104.6z M207.4,79.7c0.2-0.1,0.4-0.2,0.6-0.2c0.2,0.4,0.5,0.8,0.7,1.2c-0.1,0-0.2,0.1-0.3,0.1
		C208.2,80.5,207.8,80.1,207.4,79.7z M205.3,94c-0.5-0.5-0.9-1-1.3-1.5c0.7,0.1,1.4,0.1,2.1,0.1c0.1,0.2,0.3,0.4,0.4,0.6
		C206.1,93.5,205.7,93.7,205.3,94z M205.7,106.5c-0.3,0.7-0.6,1.5-0.8,2.2c-0.2,0-0.4,0-0.6,0c0.3-0.8,0.6-1.6,0.9-2.4
		C205.3,106.4,205.5,106.4,205.7,106.5z M204.6,84.7c0.4,0.3,0.9,0.6,1.3,0.8c-0.1,0.1-0.2,0.1-0.3,0.2c-0.6-0.2-1.1-0.4-1.7-0.6
		C204.1,85,204.3,84.8,204.6,84.7z M204,81.2c0.2-0.1,0.5-0.2,0.7-0.3c0.3,0.5,0.7,1,1.1,1.5c-0.1,0-0.1,0.1-0.2,0.1
		C205.2,82.1,204.6,81.6,204,81.2z M206,104.4c0.3-0.2,0.6-0.4,0.9-0.6c-0.2,0.3-0.3,0.7-0.5,1c-0.2-0.1-0.3-0.1-0.5-0.2
		C205.9,104.6,205.9,104.5,206,104.4z M206.5,92.6c0.3,0,0.6,0,0.9,0c-0.2,0.1-0.4,0.3-0.6,0.4C206.7,92.8,206.6,92.7,206.5,92.6z
		 M207.1,86.2c-0.2-0.1-0.5-0.1-0.7-0.2c0.1,0,0.1-0.1,0.2-0.1C206.7,86,206.9,86.1,207.1,86.2z M205.4,77c-0.2-0.3-0.4-0.7-0.6-1
		c0.5-0.3,1.1-0.5,1.7-0.8c0.1,0.4,0.2,0.8,0.4,1.2C206.3,76.6,205.8,76.8,205.4,77z M204.3,75.1c-0.2-0.4-0.4-0.7-0.5-1.1
		c0,0,0-0.1,0-0.1c0.7-0.3,1.4-0.6,2.1-0.9c0.1,0,0.1,0.1,0.2,0.1c0.1,0.3,0.1,0.6,0.2,0.9C205.5,74.4,204.9,74.7,204.3,75.1z
		 M202.6,84.4c-0.6-0.5-1.2-1-1.8-1.6c0.3-0.1,0.5-0.2,0.8-0.4c0,0,0.1,0.1,0.1,0.1c0.5,0.4,1.1,0.9,1.7,1.3
		C203.1,84,202.9,84.2,202.6,84.4z M203.2,92.6c0,0-0.1,0-0.1,0C203.1,92.6,203.1,92.6,203.2,92.6C203.2,92.6,203.2,92.6,203.2,92.6
		z M194.2,97.3c-0.2-0.2-0.3-0.3-0.3-0.3c1-0.7,1.7-1.1,1.7-1.1c-0.6-0.1-1.2,0-1.8,0.1c0.2-0.2,0.4-0.4,0.4-0.4
		c-0.9,0-1.8,0.3-2.7,0.7c-1,0-2.6-0.2-4.4-0.5c0.9-0.6,2-1.5,3.4-2.4c2,1.2,4.1,2,6.1,2.2C195.7,96.2,194.9,96.8,194.2,97.3z
		 M195.8,97c-0.3,0.3-0.6,0.7-0.9,1c-0.1-0.1-0.2-0.2-0.3-0.3C195,97.5,195.4,97.3,195.8,97z M189,108.1c-0.2,0.4-0.3,0.8-0.5,1.1
		c-1.1-0.8-1.6-1.3-1.6-1.3s0.5,0.7,1.4,1.6c0,0,0,0.1,0,0.1c-0.2-0.1-0.3-0.1-0.5-0.2c-0.8-0.8-1.6-1.5-2.3-2.3
		c0.7-1.3,1.4-2.5,2.1-3.6c0.7,0.7,1.5,1.5,2.4,2.2c-0.3,0.6-0.6,1.2-0.9,1.8c-1.5-0.8-2.3-1.5-2.3-1.5S187.6,107,189,108.1z
		 M190.9,133.7c0.2,0,0.4,0,0.6-0.1c0,0,0,0,0,0.1c-0.8,0.1-1.6,0.2-2.4,0.2c0-0.1,0-0.1,0-0.2C189.7,133.7,190.3,133.7,190.9,133.7
		z M190.3,129.5c0.4,0.1,0.8,0.1,1.2,0.1c0,0,0,0,0,0c0,0,0,0,0,0.1c-0.1,0-0.2,0-0.2,0C190.9,129.6,190.6,129.6,190.3,129.5z
		 M189.3,127.6C189.3,127.7,189.3,127.7,189.3,127.6c-0.7,0-1.3-0.1-2-0.2c0-0.2,0-0.4,0.1-0.7C188,127.1,188.6,127.4,189.3,127.6z
		 M187.8,123.7c0.2-1.1,0.4-2.2,0.6-3.2c0.3,0.3,0.8,0.8,1.5,1.4c-0.1,0.8-0.2,1.6-0.3,2.4C189,124.2,188.4,123.9,187.8,123.7z
		 M190,121.5c-0.7-0.4-1.2-0.8-1.6-1.1c0.1-0.4,0.2-0.8,0.3-1.2c0.4,0.4,0.9,0.8,1.5,1.2C190.1,120.8,190,121.2,190,121.5z
		 M181.6,101.8c-0.7,0.2-1.4,0.4-2,0.8c2-1.7,3.4-2.6,3.7-2.7c-0.5,0.6-1.1,1.2-1.6,1.9C181.6,101.8,181.6,101.8,181.6,101.8
		c-0.1-0.2-0.1-0.3-0.1-0.3S181.5,101.6,181.6,101.8z M175.4,102.9c0.4-0.5,0.7-0.9,1-1.2c1.8-1.7,3-2.6,3-2.6c-1.4,0-2.7,0.5-4,1.2
		c0.9-0.6,1.4-1,1.4-1c-0.4,0-0.8,0-1.2,0c0.6-0.3,1.2-0.6,1.8-1c2.1,0.6,4.1,0.7,5.9-0.1c0.1,0.2,0.3,0.5,0.6,0.9
		c-0.2,0.2-0.5,0.5-0.7,0.7C180.8,99.5,178.1,100.8,175.4,102.9z M169.8,141.2c-0.6-0.2-1.1-0.4-1.5-0.6c0-0.2,0-0.4,0-0.6
		C168.7,140.3,169.2,140.8,169.8,141.2z M168.1,137C168.1,137,168.1,137,168.1,137c0.9,0.4,1.9,0.8,3,1.1c0,0.3,0,0.6,0,0.9
		c-0.1,0-0.1-0.1-0.2-0.1C170,138.4,169,137.7,168.1,137z M171.2,145c0,0.7,0,1.3,0.1,1.9c-0.8-0.2-1.7-0.4-2.5-0.6
		c-0.1-0.9-0.2-1.9-0.3-2.9C169.3,144,170.2,144.6,171.2,145z M171.2,137.1c-1.1-0.2-2.2-0.5-3.1-0.8c0-0.6,0-1.2,0-1.7
		c0-1.1,0.1-2.1,0.1-3.1c0.1,0.1,1.1,1.9,3,3.9C171.2,135.9,171.2,136.5,171.2,137.1z M161.3,136.1c0.1,2.2,0.4,4.4,0.7,6.5
		c-0.7-0.5-1.3-1-1.9-1.5c0.2-1.8,0.5-3.7,0.9-5.6C161.1,135.7,161.2,135.9,161.3,136.1z M161.1,134.4c0-0.2,0.1-0.4,0.1-0.5
		c0,0.2,0,0.4,0,0.7C161.2,134.5,161.2,134.4,161.1,134.4z M162.5,145.8c0,0.1,0,0.2,0,0.2c-1.3-0.8-2.3-1.5-2.8-1.9
		c0-0.3,0.1-0.5,0.1-0.8C160.7,144.2,161.6,145,162.5,145.8z M162.7,147c0.4,2.4,1,4.8,1.5,7c-1-0.2-2-0.5-2.9-0.9
		c-0.7-0.3-1.4-0.6-2-1c0.1-2,0.2-4.7,0.5-7.9C160.3,144.8,161.3,145.8,162.7,147z M164,144c-0.1-1.1-0.2-2.2-0.3-3.4
		c0-0.5-0.1-1.1-0.1-1.6c0.1,0.1,0.3,0.3,0.4,0.4c0.4,2,0.8,3.8,1.2,5.3c-0.2-0.1-0.3-0.2-0.5-0.3C164.6,144.4,164.3,144.2,164,144z
		 M166.3,135.6c-0.6-0.5-1.2-1-1.8-1.6c-0.1-1.9-0.1-4,0-6.1c0-0.2,0-0.4,0-0.5c0.5-3,1.3-5.7,2.1-8.2c0.2,0.4,0.5,0.7,0.8,1.2
		C166.2,125,166,130.4,166.3,135.6z M166.7,139.4c-0.7-0.5-1.3-1-1.9-1.5c0-0.5-0.1-1-0.1-1.5c0.6,0.7,1.2,1.3,1.9,2
		C166.6,138.7,166.6,139.1,166.7,139.4z M165.1,140.5c0.6,0.6,1.3,1.2,2,1.8c0.2,1.2,0.4,2.4,0.6,3.6c-0.7-0.3-1.3-0.6-1.9-0.9
		C165.5,143.7,165.3,142.2,165.1,140.5z M167.7,119.8c-0.3-0.3-0.6-0.6-0.9-0.9c0.3-0.9,0.6-1.7,1-2.5c1.2-2,2.4-3.8,3.7-5.4
		c0.1,0.1,0.1,0.2,0.2,0.3c-1.4,2.3-2.6,4.8-3.4,6.9C168,118.6,167.8,119.2,167.7,119.8z M162.1,94.7c0.1-0.1,0.3-0.2,0.5-0.4
		c0.9,0.6,1.9,1.2,2.9,1.8C164.4,95.7,163.2,95.2,162.1,94.7z M165.3,101.7c-0.2,0-0.3-0.1-0.5-0.1c0,0,0,0,0,0
		C165,101.6,165.2,101.6,165.3,101.7z M147,72.2c0.2-0.2,0.4-0.4,0.7-0.6c0.2,1.5,0.4,3.2,0.7,5c-0.4-1-0.7-2.1-1-3.2
		C147.2,73,147.1,72.6,147,72.2z M147.1,80.9c0-0.1-0.1-0.1-0.1-0.2c0,0,0,0,0,0C147.1,80.8,147.1,80.8,147.1,80.9z M148.3,56.2
		c0,0.9,0.1,2,0.2,3.2c-1.3,0.9-2.6,1.8-3.6,2.6c-0.2-0.9-0.3-1.9-0.4-2.8C145.6,58.2,146.9,57.2,148.3,56.2z M144.2,57.8
		c0-0.1,0-0.1,0-0.2c0.3-0.2,0.6-0.4,1.1-0.8C144.9,57.2,144.6,57.5,144.2,57.8z M148.8,63c0,0.2,0,0.4,0.1,0.6
		c-0.5,0.5-1,1-1.6,1.5c-0.1-0.8-0.1-1.2-0.1-1.2s0,0.5,0,1.3c-0.5,0.5-1,1-1.5,1.5c-0.3-1.5-0.6-2.9-0.8-4.2
		c1.1-0.7,2.3-1.5,3.6-2.3c0.1,0.9,0.2,1.8,0.3,2.8c-1,0.9-1.5,1.4-1.5,1.4S147.8,63.8,148.8,63z M183.9,65.3c0,0.1,0.1,0.2,0.1,0.4
		c0,0.2,0.1,0.3,0.1,0.5c-0.5,0.3-1,0.6-1.5,1c-0.1-0.3-0.3-0.7-0.4-1C182.8,65.8,183.3,65.5,183.9,65.3z M183.4,62.7
		C183.4,62.7,183.4,62.6,183.4,62.7c0.1,0.1,0.1,0.2,0.1,0.2C183.4,62.8,183.4,62.8,183.4,62.7z M202.3,65.2
		c-0.2-0.3-0.5-0.6-0.7-0.9c1-0.3,2-0.5,2.9-0.7c0,0.1,0.1,0.3,0.1,0.4C203.8,64.4,203,64.8,202.3,65.2z M204.7,67.2
		c0.2-0.1,0.4-0.1,0.6-0.2c0,0.4,0,0.9,0.1,1.3c0,0-0.1,0-0.1,0c-0.4-0.3-0.7-0.7-1-1C204.3,67.3,204.5,67.2,204.7,67.2z
		 M200.2,61.9c0-0.3-0.1-0.5-0.1-0.7c1.2-0.5,2.5-0.9,3.7-1.4c0,0.2,0.1,0.4,0.1,0.6C202.6,60.9,201.4,61.4,200.2,61.9z M199.7,66.6
		c-1.1,0.6-2.2,1.3-3.2,1.9c-0.3,0.1-0.6,0.3-0.9,0.4c-0.3-0.8-0.7-1.7-0.9-2.5c1.4-0.5,2.7-1,4.1-1.4
		C199.1,65.6,199.4,66.1,199.7,66.6z M199.5,61.4C199.6,61.4,199.6,61.4,199.5,61.4C199.6,61.4,199.6,61.4,199.5,61.4
		C199.6,61.4,199.6,61.4,199.5,61.4z M199.6,57c1-0.3,2-0.6,3-0.9C201.6,56.4,200.6,56.7,199.6,57C199.6,57,199.6,57,199.6,57z
		 M193,72.8c-0.1-0.2-0.2-0.4-0.4-0.7c0.7-0.4,1.5-0.9,2.3-1.3c0.1,0.3,0.2,0.6,0.3,0.9C194.5,72.1,193.7,72.5,193,72.8z M193.7,82
		C193.6,82,193.6,82,193.7,82c-0.7-0.6-1.2-1.2-1.8-1.9c0,0,0.1,0,0.1-0.1C192.5,80.7,193.1,81.4,193.7,82z M199.5,57.1
		c-0.6,0.2-1.3,0.4-1.9,0.7c0,0,0,0,0,0c0,0,0,0,0-0.1C198.2,57.4,198.9,57.2,199.5,57.1C199.5,57,199.5,57,199.5,57.1z M196.1,54.3
		C196.1,54.3,196.1,54.2,196.1,54.3c0.7-0.3,1.3-0.4,2-0.6C197.5,53.9,196.8,54.1,196.1,54.3z M197.4,62.3c0.1,0.3,0.2,0.5,0.4,0.8
		c-0.5,0.3-1.1,0.5-1.6,0.8c-0.7,0.3-1.3,0.5-2,0.8c-0.1-0.3-0.2-0.5-0.2-0.8C195,63.3,196.2,62.8,197.4,62.3z M194.5,69.5
		c-0.9,0.4-1.8,0.8-2.7,1.2c-0.4-0.8-0.8-1.7-1.2-2.6c1.1-0.5,2.1-0.9,3.2-1.3C194,67.7,194.2,68.6,194.5,69.5z M191.3,79.2
		C191.3,79.2,191.3,79.2,191.3,79.2c-0.4-0.4-0.7-0.8-1-1.2c0,0,0-0.1-0.1-0.1c0,0,0,0,0,0C190.6,78.3,191,78.7,191.3,79.2z
		 M191.1,88.4c0.9,0.7,1.9,1.3,3,1.7c-0.4,0.3-0.7,0.5-1.1,0.8c-0.9-0.6-1.9-1.2-2.8-2C190.5,88.8,190.8,88.6,191.1,88.4z
		 M193.7,82.1C193.7,82.1,193.7,82,193.7,82.1c0.2,0.2,0.4,0.3,0.6,0.5c0,0,0,0,0,0C194,82.4,193.8,82.3,193.7,82.1z M194.2,74.8
		c0.5-0.2,1-0.4,1.5-0.6c-0.5,0.3-0.9,0.5-1.3,0.8C194.3,74.9,194.2,74.9,194.2,74.8z M194.5,82.9c0.1,0.1,0.1,0.1,0.2,0.2
		C194.7,83,194.6,82.9,194.5,82.9C194.5,82.9,194.5,82.9,194.5,82.9z M194.7,75.5c0.5-0.3,1.1-0.6,1.7-0.8c0.1,0.3,0.3,0.7,0.5,1
		c-0.5,0.3-1,0.6-1.5,0.9C195.1,76.2,194.9,75.9,194.7,75.5z M196.6,71.2c-0.2-0.3-0.3-0.7-0.4-1c0.1-0.1,0.2-0.1,0.3-0.2
		c1.3-0.5,2.6-0.9,3.9-1.4c0.1,0.4,0.1,0.7,0.2,1.1C199.2,70.1,197.9,70.6,196.6,71.2z M201.2,72.5c0.1,0.2,0.1,0.4,0.2,0.6
		c-1,0.5-2,1.1-2.9,1.6c-0.2-0.3-0.3-0.5-0.5-0.8C199,73.5,200.1,73,201.2,72.5z M195.4,52.4c-0.1-0.3-0.2-0.6-0.3-0.9
		c0.6-0.2,1.1-0.3,1.6-0.5c2.1-0.3,4.1-0.5,6.1-0.7C200.4,50.9,197.9,51.6,195.4,52.4z M195.8,58.4
		C195.8,58.4,195.8,58.4,195.8,58.4c-1,0.5-2,0.9-3,1.4c0,0,0,0,0,0c0.3-0.1,0.6-0.3,0.9-0.4C194.3,59,195,58.7,195.8,58.4z
		 M191.8,55.8c0-0.1,0-0.1,0-0.2c0.1-0.1,0.3-0.1,0.4-0.2c0.8-0.3,1.5-0.5,2.3-0.7c0,0,0,0.1,0,0.1
		C193.7,55.1,192.8,55.4,191.8,55.8z M192.3,59.9C192.2,59.9,192.2,59.9,192.3,59.9C192.2,59.9,192.2,59.9,192.3,59.9
		C192.3,59.9,192.3,59.9,192.3,59.9z M193.1,64.2c0.1,0.3,0.1,0.5,0.2,0.8c-1.1,0.5-2.2,1.1-3.4,1.7c-0.1-0.3-0.2-0.5-0.3-0.8
		C190.8,65.3,191.9,64.7,193.1,64.2z M185,84.3c0.4-0.2,0.7-0.5,1.1-0.7c1.2,1.5,2.5,2.8,3.9,4c-0.3,0.2-0.6,0.4-0.8,0.6
		C187.8,87.1,186.4,85.8,185,84.3z M187.4,91.4c-0.2-0.1-0.4-0.2-0.6-0.3c0,0,0.1-0.1,0.1-0.1C187.1,91.2,187.3,91.3,187.4,91.4z
		 M170.4,88.5c1.2-0.8,2.4-1.6,3.7-2.5c2.5,2.6,5.8,5.3,9.2,6.6c-0.7,0.6-1.5,1.2-2.2,1.7C177.6,93.2,173.9,91.4,170.4,88.5z
		 M177.5,98.3c-0.1,0-0.3,0-0.5,0c0.1,0,0.1-0.1,0.2-0.1C177.2,98.2,177.3,98.2,177.5,98.3z M167.5,74c0.4,1.2,0.8,2.3,1.2,3.4
		c-1.6,1.3-3.1,2.6-4.6,3.9c-0.9-1.6-1.8-3.3-2.6-5.1c1.7-1.2,3.5-2.5,5.5-3.8C167.2,72.9,167.4,73.4,167.5,74
		C167.5,74,167.5,74,167.5,74C167.5,74,167.5,74,167.5,74z M169.4,78.9c0.2,0.5,0.5,1,0.7,1.5c-1.8,1.5-3.3,2.8-4.2,3.6
		c-0.4-0.5-0.7-1-1.1-1.6C166.3,81.3,167.8,80.1,169.4,78.9z M186.3,80.2c0.4,0.6,0.8,1.1,1.2,1.6c0,0-0.1,0.1-0.1,0.1
		c-0.2-0.2-0.4-0.4-0.6-0.6c-0.6-0.7-1.2-1.4-1.7-2.1c0.1-0.1,0.2-0.1,0.3-0.2c0,0,0,0,0.1,0C185.8,79.4,186,79.8,186.3,80.2
		c-0.1,0-0.1,0.1-0.1,0.1S186.2,80.2,186.3,80.2z M186.3,74.2c0.1,0,0.1-0.1,0.2-0.1c0.1,0.3,0.3,0.7,0.4,1
		C186.7,74.8,186.5,74.5,186.3,74.2z M189.5,73.4c-0.1-0.2-0.2-0.3-0.3-0.5c0.1,0,0.1-0.1,0.2-0.1C189.5,73,189.5,73.2,189.5,73.4
		C189.6,73.3,189.5,73.4,189.5,73.4z M190,84.3c-0.7-0.6-1.4-1.2-2-1.8c0,0,0.1-0.1,0.1-0.1c0.2,0.2,0.4,0.4,0.6,0.6
		C189,83.4,189.5,83.8,190,84.3z M188.7,63.3c0,0,0-0.1,0-0.1c0.3-0.1,0.6-0.3,1-0.4C189.3,62.9,189,63.1,188.7,63.3z M189.1,72.1
		c-0.1,0.1-0.2,0.1-0.3,0.2c-0.5-0.8-1.1-1.6-1.6-2.4c0.3-0.2,0.6-0.3,0.9-0.5C188.4,70.3,188.7,71.2,189.1,72.1z M185.7,83.1
		c-0.4,0.3-0.7,0.5-1.1,0.8c-0.8-0.9-1.7-2-2.5-3.1c0.5-0.3,0.9-0.5,1.4-0.8C184.3,81.1,185,82.1,185.7,83.1z M179.2,82.7
		c0.6,1,1.3,1.9,2,2.7c0.2,0.2,0.4,0.5,0.6,0.7c-0.5,0.4-0.9,0.8-1.4,1.1c-1.2-0.9-2.3-1.9-3.5-3.1
		C177.6,83.7,178.4,83.2,179.2,82.7z M176,83.2c-1.1-1.3-2.2-2.7-3.3-4.3c1.1-0.8,2.2-1.6,3.5-2.4c0.7,1.8,1.4,3.4,2.3,5
		C177.6,82.1,176.8,82.7,176,83.2z M181.3,79.6c-0.5-0.7-1-1.5-1.4-2.3c0.5-0.3,1.1-0.5,1.7-0.9c0.4,0.7,0.8,1.5,1.2,2.2
		C182.3,78.9,181.8,79.3,181.3,79.6z M184.1,77.8C184.1,77.8,184.1,77.8,184.1,77.8c0.2-0.1,0.3-0.2,0.5-0.4c0,0,0,0,0,0.1
		C184.4,77.6,184.2,77.7,184.1,77.8z M184,77.7c-0.5-0.6-0.9-1.3-1.3-1.9c0.3-0.1,0.6-0.3,0.8-0.4c0.3,0.6,0.6,1.2,1,1.8
		C184.3,77.5,184.2,77.6,184,77.7z M182.5,75.6c-0.5-0.8-1-1.5-1.4-2.2c0.4-0.2,0.8-0.5,1.2-0.7c0.3,0.8,0.7,1.7,1.1,2.5
		C183.1,75.3,182.8,75.4,182.5,75.6z M180.6,72.4c-0.2-0.3-0.4-0.6-0.5-1c0.5-0.3,1-0.6,1.4-0.9c0.1,0.3,0.2,0.7,0.4,1
		C181.4,71.8,181,72.1,180.6,72.4z M180.3,73.8c0.3,0.8,0.7,1.6,1.1,2.4c-0.6,0.4-1.2,0.7-1.7,1c-0.4-0.7-0.8-1.5-1.2-2.2
		C179.2,74.6,179.8,74.2,180.3,73.8z M178.2,74.1c-0.2-0.4-0.3-0.7-0.5-1.1c0.6-0.4,1.2-0.8,1.8-1.2c0.1,0.3,0.3,0.7,0.4,1.1
		C179.3,73.2,178.8,73.7,178.2,74.1z M176.9,71.1c-0.3-0.7-0.5-1.3-0.7-2c0.6-0.3,1.2-0.6,1.9-1c0.2,0.5,0.4,1.1,0.6,1.7
		C178.1,70.2,177.5,70.6,176.9,71.1z M176.1,68.4C176.1,68.4,176,68.5,176.1,68.4c-0.2-0.3-0.3-0.6-0.4-0.9
		c-0.1-0.2-0.1-0.4-0.2-0.6c0.6-0.4,1.3-0.7,1.9-1.1c0.1,0.3,0.2,0.8,0.4,1.4C177.2,67.6,176.6,68,176.1,68.4z M175.9,75.8
		c-1.2,0.9-2.4,1.8-3.5,2.7c-0.3-0.4-0.5-0.8-0.7-1.2c1.2-0.9,2.5-1.8,3.8-2.7C175.6,74.9,175.7,75.3,175.9,75.8z M170.9,75.7
		c-0.5-0.9-0.9-1.9-1.3-2.9c0.9-0.6,2.2-1.3,3.7-2.1c-1.6,1.3-2.5,2.1-2.5,2.1s1.2-1,3.5-2.5c0.2,0.8,0.4,1.6,0.7,2.4
		C173.5,73.6,172.2,74.7,170.9,75.7z M169.5,72.6c-0.2-0.5-0.4-1-0.6-1.5c1.5-1,3.1-2.1,4.8-3.1c0.1,0.5,0.3,1.1,0.4,1.6
		C172.2,70.9,170.6,71.9,169.5,72.6z M170.2,80.7c0.8,1.4,1.6,2.8,2.6,3.9c0.2,0.2,0.3,0.4,0.5,0.6c-1.3,0.9-2.5,1.9-3.6,2.8
		c-1.2-1-2.3-2.1-3.4-3.4c-0.1-0.2-0.3-0.3-0.4-0.5C166.9,83.3,168.3,82.1,170.2,80.7z M180.6,87.4c0.4-0.3,0.9-0.6,1.4-1
		c1.2,1.3,2.6,2.7,4.2,4c-0.1,0.1-0.2,0.2-0.3,0.3C184.2,89.9,182.4,88.8,180.6,87.4z M189.7,76.9c0.2,0.2,0.3,0.5,0.5,0.7
		c0,0,0,0,0,0C190,77.4,189.8,77.1,189.7,76.9z M187.1,57.9c0-0.2-0.1-0.3-0.1-0.5c1.5-0.6,3.1-1.2,4.7-1.8c0,0.1,0,0.2,0,0.2
		C190.2,56.5,188.6,57.1,187.1,57.9z M187.4,67.1c0.1,0.3,0.2,0.6,0.3,0.8c-0.4,0.2-0.8,0.5-1.2,0.7c-0.2-0.3-0.3-0.5-0.4-0.8
		C186.5,67.6,186.9,67.3,187.4,67.1z M186.3,73.5c-0.1,0.1-0.2,0.1-0.3,0.2c-0.5-0.8-0.9-1.6-1.4-2.4c0.3-0.2,0.5-0.3,0.8-0.5
		C185.7,71.7,186,72.6,186.3,73.5z M184,70.1c-0.1-0.3-0.3-0.6-0.4-0.9c0.4-0.2,0.8-0.5,1.1-0.7c0.1,0.3,0.2,0.6,0.3,0.9
		C184.7,69.7,184.3,69.9,184,70.1z M181.7,64.4c-0.1-0.3-0.2-0.5-0.3-0.8c0.5-0.3,1.1-0.5,1.6-0.8c0.1,0.2,0.1,0.4,0.2,0.6
		C182.7,63.8,182.2,64.1,181.7,64.4z M180.6,61.3c-0.1-0.4-0.2-0.7-0.3-1.1c0.5-0.2,1.1-0.5,1.6-0.7c0.1,0.3,0.2,0.6,0.3,0.9
		C181.7,60.7,181.2,61,180.6,61.3z M180.7,68.3c-0.6,0.4-1.1,0.8-1.7,1.2c-0.3-0.6-0.5-1.1-0.7-1.6c0.6-0.3,1.3-0.7,2-1
		C180.4,67.4,180.6,67.9,180.7,68.3z M177.9,67.1c-0.2-0.5-0.4-1-0.5-1.3c0.7-0.4,1.5-0.8,2.2-1.2c0.1,0.4,0.2,0.7,0.3,1.1
		C179.2,66.1,178.6,66.6,177.9,67.1z M174.9,64.8c-0.2-0.6-0.3-1.1-0.4-1.7c1.3-0.7,2.7-1.4,4.3-2.1c0.1,0.4,0.2,0.8,0.3,1.3
		C177.7,63.1,176.3,64,174.9,64.8z M174.4,62.7c-0.2-0.6-0.3-1.3-0.5-1.9c1.4-0.8,2.9-1.6,4.3-2.4c0.1,0.6,0.2,1.2,0.4,1.8
		C177,61.1,175.6,61.9,174.4,62.7z M177,55c-1.3,0.6-2.6,1.2-3.9,1.9c-0.2-1-0.4-2-0.5-2.9c1.4-0.7,3-1.5,4.6-2.3
		c0.1,1,0.3,1.9,0.4,2.9C177.3,54.8,177.1,54.9,177,55z M172.8,63.7c-2.9,1.9-4.7,3.1-4.7,3.1s1.7-1.1,4.8-2.8
		c0.1,0.7,0.2,1.3,0.4,2c-1.7,1.1-3.3,2.3-4.9,3.5c-0.1-0.2-0.1-0.4-0.2-0.7c-0.4-1.3-0.7-2.5-1-3.7c0.3-0.2,0.6-0.4,0.9-0.6
		c1.5-1,3-2,4.4-2.8C172.5,62.3,172.7,63,172.8,63.7z M166.6,62.7c-0.1-0.4-0.2-0.8-0.3-1.2c1.4-0.7,2.9-1.4,4.6-2.2
		C169.3,60.5,167.9,61.6,166.6,62.7z M166.1,60.6c-0.2-1-0.4-1.9-0.5-2.8c1.7-1,3.7-2.2,5.9-3.3c0.1,1,0.2,2,0.3,3
		C169.8,58.5,167.9,59.6,166.1,60.6z M165.7,66.1c0.3,1.5,0.6,3.1,1,4.6c-1.9,1.4-3.8,2.9-5.5,4.3c-0.6-1.4-1.1-2.9-1.5-4.5
		C161.5,69.1,163.6,67.6,165.7,66.1z M162.6,66.2c-1.2,0.9-2.3,1.8-3.4,2.8c-0.3-1.1-0.6-2.2-0.8-3.3c1.8-1,4.1-2.2,6.7-3.5
		c0.1,0.6,0.2,1.1,0.2,1.7C164.3,64.6,163.4,65.4,162.6,66.2z M158.3,65.3c-0.2-0.7-0.3-1.3-0.4-2c1.9-1.4,3.9-2.9,6-4.4
		c0.3-0.2,0.5-0.3,0.8-0.5c0.1,0.9,0.2,1.9,0.3,2.9C162.4,62.7,160.1,64.1,158.3,65.3z M157.5,61.8c-0.2-0.9-0.3-1.8-0.5-2.7
		c2.4-1.8,4.8-3.5,7.2-4.9c0,0.7,0.1,1.4,0.2,2.2C162,58.1,159.7,59.9,157.5,61.8z M156.7,66.3c-0.2,0.1-0.4,0.2-0.5,0.3
		c-0.2-0.6-0.4-1.1-0.6-1.6c0.3-0.2,0.6-0.5,0.9-0.7C156.5,65,156.6,65.6,156.7,66.3z M156.5,55.4c0.8-0.4,1.6-0.9,2.4-1.3
		c-0.8,0.6-1.6,1.2-2.3,1.9C156.5,55.8,156.5,55.6,156.5,55.4z M155.8,66.8c-1.9,1.3-3.1,2.1-3.1,2.1s1.1-0.7,3.1-1.9
		c0.3,1.1,0.8,2.3,1.2,3.7c-1.6,1.4-3.1,2.7-4.5,4c-0.7-2-1.2-4-1.7-5.9c1.4-1.2,2.9-2.4,4.5-3.7C155.5,65.7,155.6,66.3,155.8,66.8z
		 M156.3,66.8c0.2-0.1,0.3-0.2,0.5-0.3c0.1,0.8,0.3,1.6,0.4,2.4C156.8,68.2,156.5,67.5,156.3,66.8z M156.3,54.2
		c-0.2-1.2-0.3-2.3-0.4-3.4c2.7-1.7,5.4-3.2,8.1-4.5c0,0.9,0,2.1,0.1,3.4C161.3,51.2,158.7,52.7,156.3,54.2z M155.9,59.9
		c0.1,1,0.2,2,0.3,3c-0.4,0.3-0.7,0.6-1.1,1c-0.5-1.4-0.8-2.3-0.8-2.3s0.2,0.9,0.6,2.4c-1.5,1.4-3,2.7-4.4,4
		c-0.3-1.1-0.5-2.2-0.7-3.2C151.8,63.1,153.8,61.5,155.9,59.9z M149.5,62.9c0-0.2-0.1-0.3-0.1-0.5c1.4-1.1,3.3-2.7,5.8-4.5
		C153.3,59.6,151.3,61.3,149.5,62.9z M149.6,68.9c-0.5,0.5-1,1-1.5,1.5c-0.3-1.4-0.4-2.7-0.6-3.7c0.5-0.4,1-0.9,1.6-1.3
		C149.2,66.5,149.4,67.7,149.6,68.9z M144.5,69.3c0.2,1.3,0.4,2.6,0.7,3.9c-0.5,0.6-1.1,1.1-1.5,1.6c-0.6-1.1-1.1-2.2-1.6-3.3
		C142.8,70.8,143.7,70.1,144.5,69.3z M145.3,73.7c0.4,2.2,1,4.3,1.6,6.4c-0.1,0.1-0.1,0.1-0.2,0.2c-1.1-1.8-2.1-3.5-2.9-5.2
		C144.3,74.6,144.8,74.2,145.3,73.7z M146.8,71.6c-0.3-1.2-0.6-2.4-0.8-3.6c0.4-0.4,0.9-0.7,1.3-1.1c0.1,1.1,0.1,2.5,0.3,4
		C147.3,71.1,147.1,71.4,146.8,71.6z M148.2,71.1c0.5-0.4,1-0.9,1.5-1.3c0.4,2.1,0.8,4.2,1.3,6.3c-0.5,0.5-1,0.9-1.4,1.3
		C149,75.1,148.5,73,148.2,71.1z M151.3,77.1c0.5,1.7,1,3.3,1.6,4.9c-0.5,0.4-1,0.9-1.4,1.3c-0.6-1.7-1.2-3.4-1.6-5
		C150.3,77.9,150.8,77.5,151.3,77.1z M152.9,75.8c1.5-1.2,3-2.4,4.7-3.7c0.2,0.5,0.4,1,0.6,1.5c0.3,1.1,0.6,2.1,0.9,3.2
		c-1.5,1.2-2.9,2.4-4.2,3.6c-0.6-1.2-1.2-2.6-1.7-4C153,76.2,153,76,152.9,75.8z M159.4,77.8c0.7,2,1.4,3.9,2.3,5.7
		c-1,0.9-2.1,1.8-3,2.7c-1.2-1.5-2.4-3.2-3.5-5.2C156.5,80,157.9,78.9,159.4,77.8z M162.2,84.5c0.7,1.3,1.4,2.4,2.2,3.5
		c0.6,0.8,1.4,1.7,2.2,2.6c-0.6,0.5-1.2,1-1.7,1.4c-1.9-1.3-3.8-3-5.7-5.1C160.2,86.2,161.1,85.4,162.2,84.5z M165.2,92.2
		c0.5-0.4,1.1-0.8,1.7-1.3c1.7,1.8,3.7,3.6,5.8,5C170.7,95.3,168,94.1,165.2,92.2z M173.2,100c-0.5,0.2-1,0.5-1.5,0.8
		c-0.3-0.1-0.6-0.1-1-0.2c-0.4-0.1-0.8-0.3-1.3-0.5C170.7,100.1,172,100.1,173.2,100z M173.1,108.9c-0.4,0.6-0.8,1.3-1.2,1.9
		c-0.1-0.1-0.1-0.1-0.2-0.2C172.1,110,172.6,109.5,173.1,108.9z M168.2,131.4c0.2-3,0.7-5.8,1.5-8.4c0.8,0.9,1.6,1.8,2.6,2.7
		c-0.5,2.9-0.8,5.8-1,8.6C169.3,132.8,168.3,131.5,168.2,131.4z M173.7,137.5c-0.5-0.1-1-0.2-1.5-0.3c0-0.3,0.1-0.6,0.1-0.9
		C172.7,136.7,173.2,137.1,173.7,137.5z M172.5,135.2c0.2-1.7,0.5-3.5,0.9-5.4c0.1,2.1,0.2,4.2,0.4,6.2
		C173.3,135.7,172.9,135.4,172.5,135.2z M172.1,138.5c0.7,0.2,1.4,0.4,2.1,0.6c0.1,0.5,0.2,1.1,0.2,1.6c-0.8-0.3-1.6-0.7-2.4-1.1
		C172,139.2,172,138.8,172.1,138.5z M172.6,124.1c-1-0.7-1.8-1.4-2.6-2.1c0.9-3,2.1-5.7,3.4-8.1c0.5,0.7,1,1.3,1.5,2.1
		C173.9,118.5,173.2,121.3,172.6,124.1z M173.3,98c0.7-0.1,1.5-0.2,2.2-0.5c0.4,0.2,0.9,0.4,1.3,0.5c-0.1,0.1-0.2,0.2-0.3,0.2
		C175.7,98.2,174.6,98.1,173.3,98z M183.5,98.2c0.1-0.1,0.2-0.1,0.4-0.2c0.4,0.1,0.8,0.1,1.3,0.1c-0.3,0.3-0.7,0.5-1,0.8
		C183.8,98.6,183.6,98.3,183.5,98.2z M185,108.3c0.1,0.1,0.2,0.2,0.2,0.3c-0.1,0-0.2-0.1-0.3-0.1C184.9,108.4,185,108.4,185,108.3z
		 M181.9,94.6c0.7-0.5,1.5-1.1,2.3-1.6c2,0.6,3.9,0.8,5.7,0.1c0.1,0,0.1,0.1,0.2,0.1c-1.3,1-2.4,1.9-3.2,2.6
		C185.3,95.5,183.6,95.2,181.9,94.6z M187.7,98.1c0,0,0.1,0,0.1,0c0.1,0.1,0.1,0.3,0.2,0.4c-0.6,0.4-1.1,0.8-1.6,1.3
		C186.9,99.2,187.4,98.6,187.7,98.1z M188.2,102.8c0.3-0.5,0.6-0.9,0.9-1.3c0.1-0.1,0.3-0.2,0.4-0.3c0.5,0.8,1,1.6,1.7,2.5
		c-0.2,0.3-0.3,0.6-0.5,0.9C189.8,104,188.9,103.4,188.2,102.8z M188.1,98.1c0.3,0,0.5-0.1,0.8-0.1c0,0,0,0-0.1,0.1
		c-0.2,0.1-0.3,0.2-0.5,0.3C188.2,98.3,188.1,98.2,188.1,98.1z M189.8,100.4c0.2-0.3,0.4-0.6,0.7-0.9c0.1-0.1,0.3-0.2,0.4-0.4
		c0.1,0.1,0.1,0.2,0.2,0.3C190.7,99.9,190.3,100.2,189.8,100.4C189.9,100.5,189.8,100.5,189.8,100.4z M191,99.2
		c1.1-0.9,2.1-1.7,2.8-2.2c0.1,0.1,0.2,0.2,0.3,0.4c-1,0.7-2,1.5-2.9,2.1C191.1,99.4,191,99.3,191,99.2z M193.6,91.3
		c0.4-0.3,0.8-0.5,1.3-0.8c0.1,0,0.1,0.1,0.2,0.1c0.8,0.3,1.6,0.6,2.5,0.8c-0.8,0.5-1.5,0.9-1.9,1.1C195,92.1,194.3,91.7,193.6,91.3
		z M197.5,79.3c-0.5-0.5-0.9-1.1-1.3-1.7c0.4-0.2,0.9-0.5,1.3-0.7c0.3,0.6,0.7,1.2,1,1.7C198.1,78.9,197.8,79.1,197.5,79.3z
		 M198.7,79.1c0.2,0.3,0.4,0.6,0.6,0.8c-0.3,0.2-0.6,0.3-0.9,0.5c-0.2-0.2-0.4-0.5-0.7-0.8C198.1,79.4,198.4,79.2,198.7,79.1z
		 M199.8,80.5c0.1,0.2,0.2,0.3,0.4,0.5c-0.2,0.1-0.5,0.3-0.7,0.4c-0.2-0.2-0.3-0.4-0.5-0.5C199.2,80.8,199.5,80.6,199.8,80.5z
		 M199.3,76c0.5-0.3,1.1-0.6,1.6-0.8c0.3-0.2,0.6-0.3,0.9-0.4c0.2,0.5,0.3,1,0.5,1.5c-0.7,0.4-1.4,0.8-2,1.2
		C200,77,199.6,76.5,199.3,76z M202.7,76.9c0.2,0.4,0.3,0.7,0.5,1.1c-0.6,0.3-1.1,0.5-1.7,0.8c-0.3-0.3-0.5-0.6-0.8-0.9
		C201.4,77.6,202,77.3,202.7,76.9z M202.4,79.7c-0.1-0.1-0.1-0.1-0.2-0.2c0.5-0.2,1-0.4,1.4-0.6c0,0,0,0.1,0.1,0.1
		C203.3,79.2,202.8,79.5,202.4,79.7z M203,72.3c-0.1-0.1-0.1-0.3-0.2-0.4c0.3-0.1,0.7-0.2,1-0.3c0,0,0,0,0.1,0.1
		c0,0,0.1,0.1,0.2,0.1C203.8,71.9,203.4,72.1,203,72.3z M205.5,59.8c-0.3,0.1-0.6,0.2-0.9,0.3c-0.1-0.2-0.1-0.4-0.2-0.6
		c0.4-0.1,0.7-0.2,1.1-0.4C205.5,59.4,205.5,59.6,205.5,59.8z M196.2,46.2c-0.9,0.2-1.7,0.4-2.6,0.7c-0.1-0.3-0.1-0.5-0.2-0.7
		c4.2-0.8,8.2-1.1,11.7-1.1C201.9,45.2,198.8,45.7,196.2,46.2z M193.8,51.9c0.1,0.3,0.2,0.7,0.3,1c-0.8,0.3-1.7,0.6-2.5,1
		c0-0.2,0-0.3,0-0.3s0,0.1,0,0.3c-1.7,0.7-3.3,1.4-4.9,2.1c-0.1-0.5-0.2-0.9-0.3-1.4C188.8,53.6,191.4,52.7,193.8,51.9z M186.5,64.1
		c0,0.1,0.1,0.3,0.1,0.4c-0.6,0.4-1.2,0.7-1.8,1.1c-0.1-0.2-0.2-0.4-0.3-0.7C185.1,64.7,185.8,64.4,186.5,64.1z M183.7,63.1
		c-0.1-0.2-0.1-0.3-0.1-0.5c0.8-0.4,1.5-0.7,2.3-1.1c0,0.1,0,0.1,0,0.2C185.2,62.1,184.5,62.6,183.7,63.1z M182.3,60.3
		c-0.1-0.3-0.2-0.6-0.3-0.8c1-0.5,2.1-0.9,3.2-1.4c0,0.2,0.1,0.4,0.1,0.6C184.3,59.3,183.3,59.8,182.3,60.3z M180,59.4
		c-0.2-0.6-0.3-1.1-0.5-1.7c1.7-0.9,3.5-1.7,5.2-2.4c0.1,0.5,0.2,1,0.3,1.5C183.2,57.7,181.6,58.5,180,59.4z M184.3,45
		c0-0.1,0-0.2-0.1-0.3c0.2-0.1,0.4-0.1,0.6-0.2c0.7-0.1,1.4-0.3,2.1-0.4C186.1,44.4,185.2,44.7,184.3,45z M183.6,40.3
		c0-0.1,0-0.1,0-0.2c0.5-0.1,1-0.2,1.5-0.2C184.6,40,184.1,40.1,183.6,40.3z M183.8,48.8c0.1,0.7,0.2,1.3,0.2,2
		c-1.9,1-3.7,2-5.5,3.2c-0.2-0.9-0.4-1.8-0.6-2.7c1.1-0.5,2.3-1,3.5-1.6C182.2,49.4,183,49.1,183.8,48.8z M177.3,48
		c0-0.2-0.1-0.5-0.1-0.7c2.1-0.9,4.2-1.7,6.2-2.4c0,0.1,0,0.2,0,0.3C181.4,46.1,179.3,47,177.3,48z M176.4,43
		c-0.1-0.5-0.1-0.9-0.2-1.3c2.4-0.7,4.7-1.2,6.8-1.5c0,0.1,0,0.2,0,0.2C180.8,41.1,178.6,42,176.4,43z M176.6,47.6
		c0,0.2,0.1,0.5,0.1,0.8c-1.5,0.8-3.1,1.7-4.6,2.7c-0.1-0.4-0.1-0.8-0.2-1.2C173.5,49,175,48.3,176.6,47.6z M171.3,45.7
		c-0.1-0.8-0.2-1.6-0.2-2.3c1.7-0.6,3.3-1.1,4.9-1.6c0,0.4,0.1,0.9,0.1,1.4C174.5,44,172.9,44.8,171.3,45.7z M171.2,50.2
		c0,0.4,0.1,0.9,0.1,1.4c-2,1.3-4.1,2.7-6,4.1c-0.1-0.7-0.2-1.4-0.3-2C167,52.4,169.1,51.2,171.2,50.2z M167.8,47.8
		c-1.1,0.6-2.3,1.1-3.4,1.7c-0.1-1.3-0.2-2.4-0.3-3.3c2.3-1.1,4.5-2,6.7-2.8c0,0.7,0,1.6,0.1,2.5C169.9,46.6,168.8,47.2,167.8,47.8z
		 M170.8,40.5c-2.3,0.8-4.5,1.8-6.8,3c0,0,0-0.1,0-0.1s0,0,0,0.1c-2.8,1.5-5.6,3.3-8.3,5.2c-0.1-0.7-0.1-1.3-0.2-1.9
		c1.1-0.8,2.2-1.5,3.4-2.3c0.2-0.1,0.4-0.2,0.6-0.4c3.9-2,7.8-3.6,11.4-4.8C170.8,39.7,170.8,40,170.8,40.5z M155.5,56
		c0,0.3,0,0.6,0.1,0.8c-2.6,2.2-4.8,4.1-6.2,5.5c-0.2-0.9-0.3-1.7-0.4-2.5C150.9,58.6,153.1,57.3,155.5,56z M148.9,59.1
		c-0.2-1.2-0.3-2.2-0.4-3c1.8-1.4,3.8-2.8,5.8-4.1c0.3-0.2,0.7-0.4,1-0.6c0,1.1,0.1,2.3,0.2,3.5C153.1,56.3,150.8,57.7,148.9,59.1z
		 M148.3,54.3c-0.1-0.8-0.1-1.2-0.1-1.2S148.2,53.6,148.3,54.3c-0.6,0.5-1.2,1-1.7,1.4c-1.1,0.8-1.9,1.5-2.4,1.8
		c-0.1-0.6-0.2-1.2-0.2-1.8c2.9-2.5,6.7-5.6,11.2-8.7c0,0.6,0,1.3,0,2C152.8,50.7,150.5,52.5,148.3,54.3z M143.9,55.1
		c0-0.3-0.1-0.6-0.1-0.9c0.5-0.4,0.9-0.7,1.4-1.1c1.2-0.9,2.4-1.7,3.6-2.6C146.9,52.1,145.3,53.7,143.9,55.1z M143.5,51.9
		c-0.1-0.6-0.1-1.2-0.1-1.7c2.3-1.2,4.7-2.5,7.2-3.7C148.2,48.1,145.8,50,143.5,51.9z M143.5,59.9c0.1,0.9,0.1,1.9,0.2,2.8
		c-2.2,1.6-3.6,2.8-4.1,3.1c-0.3-0.8-0.6-1.6-0.8-2.1C140.3,62.5,141.8,61.2,143.5,59.9z M143.7,63c0.2,1.6,0.3,3.2,0.6,4.8
		c-0.9,0.9-1.8,1.8-2.7,2.7c-0.8-1.8-1.5-3.4-2-4.7C140.1,65.5,141.5,64.5,143.7,63z M142.8,75.7c-0.7,0.7-1.2,1.3-1.7,1.8
		c-0.5-1.4-0.9-2.7-1.3-3.9c0.5-0.5,1-1,1.6-1.5C141.8,73.3,142.3,74.5,142.8,75.7z M142.9,75.9c0.8,1.8,1.6,3.7,2.6,5.6
		c-0.7,0.7-1.3,1.3-1.9,1.9c-1-2-1.7-4-2.4-5.8C141.6,77.1,142.2,76.6,142.9,75.9z M145.7,81.9c0.8,1.5,1.6,3,2.6,4.4
		c-0.8,0.8-1.5,1.4-2.1,2c0-0.1-0.1-0.1-0.1-0.2c-0.9-1.5-1.6-3-2.3-4.4C144.3,83.1,145,82.5,145.7,81.9z M148.4,86.5
		c1.3,2,2.7,3.8,4.2,5.4c-0.7,0.7-1.4,1.4-2,2c-1.6-1.6-3-3.4-4.3-5.6C146.8,87.9,147.5,87.3,148.4,86.5z M152.1,84.7
		c-0.1-0.2-0.1-0.3-0.2-0.4c-0.1-0.2-0.1-0.3-0.2-0.5c0.5-0.4,1-0.8,1.5-1.2c0.9,2.1,1.9,4.1,3.1,5.8c-0.3,0.3-0.7,0.6-1,0.9
		C154.2,87.9,153.1,86.4,152.1,84.7z M156.8,89c0.5,0.6,1,1.2,1.5,1.8c1.1,1.1,2.5,2.3,4.1,3.4c-0.2,0.1-0.3,0.3-0.5,0.4
		c-1.2-0.6-2.3-1.2-3.5-2c-0.9-0.8-1.8-1.8-2.6-2.8C156.1,89.6,156.4,89.3,156.8,89z M161.7,100.1c0.5,0.3,1.1,0.5,1.6,0.8
		c-0.2,0-0.4,0.1-0.6,0.1c-0.5-0.2-1.1-0.3-1.6-0.5C161.3,100.3,161.5,100.2,161.7,100.1z M161.1,103.4c0.4,0.1,0.9,0.2,1.3,0.3
		c-0.2,0.1-0.5,0.1-0.7,0.2c-0.5,0-1.5,0.1-2.9,0.1c0.1-0.1,0.2-0.1,0.3-0.2C159.7,103.8,160.4,103.6,161.1,103.4z M163,104.9
		C163,104.9,163,104.9,163,104.9c0.4-0.3,0.8-0.6,1.1-0.9c0.6,0.1,1.3,0.1,1.9,0.1c0,0,0,0,0,0c-0.9,0.3-1.8,0.8-2.6,1.4
		c-1.2,0.6-2.3,1.6-3.3,2.9c-0.1,0.2-0.3,0.3-0.4,0.5C161.6,106.2,163,104.9,163,104.9z M171.1,103.8c-2.6,2.9-4.8,6.5-6.1,9.5
		c-0.8,1.7-1.3,3.5-1.7,5.4c-1.4,3.3-2.4,7-3.1,10.8c-1-1.2-1.7-2.2-2.1-2.8C160.2,115.9,166.4,108.3,171.1,103.8z M160.1,130.3
		c-0.1,0.8-0.3,1.6-0.4,2.5c-1-1.3-1.7-2.3-2.1-2.9c0.1-0.7,0.2-1.4,0.3-2.1c0.1-0.3,0.1-0.7,0.2-1
		C158.5,127.6,159.2,128.8,160.1,130.3z M159.6,133.6c-0.3,2.3-0.5,4.6-0.6,6.7c-0.7-0.6-1.4-1.3-2.1-1.9c0.1-2.5,0.3-5.4,0.7-8.4
		C158,130.7,158.7,132,159.6,133.6z M158,153.6c-0.1,0-0.1,0-0.2,0c0,0,0-0.1,0-0.1C157.8,153.5,157.9,153.5,158,153.6z
		 M157.4,153.5c-0.7-0.1-1.3-0.3-1.9-0.4c-0.1-0.4-0.3-1.1-0.4-2c0.7,0.7,1.4,1.3,2.2,1.9C157.3,153.2,157.3,153.3,157.4,153.5z
		 M155.4,153c-2.3-0.5-4-1.2-5.2-1.6c0-1.7,0-3.6,0.1-5.7c1,1.3,2.5,3.2,4.4,5.1C155,151.8,155.2,152.6,155.4,153z M150.2,151.7
		c1.6,0.9,4.3,2.3,7.6,3.3c0.4,1.3,0.8,2.4,1,3.1c-2.4-0.4-4.7-1.1-6.8-2.4c-0.6-0.4-1.2-0.7-1.8-1.1
		C150.2,153.7,150.2,152.7,150.2,151.7z M158.2,155c0.3,0.1,0.7,0.2,1,0.3c0,0.6,0.1,0.9,0.1,0.9s0-0.3,0-0.9
		c0.9,0.2,1.9,0.4,2.9,0.6c0.9,0.4,1.9,0.7,2.9,0.9c0.1,0.4,0.2,0.9,0.4,1.3c-2.1,0.2-4.2,0.2-6.3-0.1
		C158.8,157.3,158.5,156.3,158.2,155z M164.5,148.3c0.7,0.5,1.4,0.9,2.2,1.3c0,0.1,0,0.1,0,0.1s0,0,0-0.1c0.6,0.3,1.3,0.7,2,0.9
		c0.3,1.1,0.5,2.2,0.8,3.1c-1.3,0.2-2.6,0.4-3.9,0.5c-0.1,0-0.1,0-0.2,0C165.1,152.3,164.8,150.3,164.5,148.3z M170.4,157.1
		c0,0.1,0,0.1,0,0.2c-1.4,0.4-2.8,0.7-4.3,0.9c-0.1-0.3-0.1-0.7-0.2-1C167.3,157.3,168.8,157.3,170.4,157.1z M170.6,157.2
		c0,0,0-0.1,0-0.1c0.1,0,0.1,0,0.2,0c0.6-0.1,1.2-0.3,1.9-0.4C172,156.8,171.3,157,170.6,157.2z M169.8,153.6
		c-0.2-0.9-0.3-1.8-0.5-2.8c1.8,0.7,3.8,1.1,6,1.2C173.6,152.7,171.7,153.2,169.8,153.6z M171.5,147c0-0.5,0-1.1,0.1-1.7
		c1.2,0.6,2.5,1,3.9,1.3c0.1,0.3,0.1,0.5,0.2,0.8C174.3,147.3,172.9,147.2,171.5,147z M175.3,114.8c-0.6-0.6-1.1-1.1-1.5-1.6
		c2-3.6,4.2-6.5,5.9-8.4C177.9,107.9,176.4,111.5,175.3,114.8z M177.8,125c-0.6-0.3-1-0.4-1-0.4s0.3,0.2,0.9,0.6c0,0.8,0,1.5,0,2.3
		c-0.6-0.3-1.1-0.6-1.6-0.9c0.3-2.6,0.8-5.1,1.3-7.4c0.2,0.2,0.4,0.5,0.7,0.7C178,121.5,177.8,123.2,177.8,125z M178,132.6
		c-0.9-0.3-1.6-0.5-2.2-0.7c0-1,0.1-2.1,0.1-3c0.6,0.4,1.2,0.9,1.9,1.3C177.9,130.9,177.9,131.8,178,132.6z M178.1,133.3
		c0.1,1.6,0.3,3.2,0.5,4.8c-0.3,0-0.6,0-0.8,0c-0.6-0.3-1.3-0.5-1.8-0.8c0-0.1,0-0.2,0-0.3c-0.1-1.6-0.1-3.2-0.1-4.7
		C176.4,132.4,177.1,132.8,178.1,133.3z M178.5,117.7c-0.2-0.1-0.3-0.3-0.5-0.4c0.5-1.8,1.1-3.4,1.7-5c0.3-0.5,0.6-1,0.9-1.5
		c-0.4,0.9-0.7,1.7-1,2.5C179.2,114.7,178.8,116.2,178.5,117.7z M183.1,126.1c0,0,0.6,0.4,1.6,1c-1.5-0.3-2.7-0.6-3.8-0.9
		c-0.3-0.2-0.7-0.4-0.9-0.6c0.1-1.2,0.3-2.3,0.5-3.4c1.4,1.2,2.9,2.4,4.5,3.4c0,0.4,0,0.9,0,1.3
		C183.8,126.4,183.1,126.1,183.1,126.1z M184.9,130c-1.8-0.3-3.5-0.9-5.1-1.6c0-0.7,0.1-1.4,0.1-2.1c0.4,0.2,0.9,0.4,1.4,0.6
		c1,0.8,2.2,1.6,3.6,2.4C184.9,129.6,184.9,129.8,184.9,130z M185,133.2c0,0.2,0,0.4,0,0.6c-2-0.1-3.8-0.4-5.3-0.8
		c0-0.6,0-1.2,0-1.9C181.4,132,183.1,132.7,185,133.2z M185.2,135.4c0.1,0.8,0.1,1.6,0.2,2.4c-1.8,0.3-3.6,0.4-5.4,0.4
		c-0.1-1.3-0.2-2.7-0.2-4.2C181.3,134.5,183.1,135,185.2,135.4z M189.1,133.7c0,0.1,0,0.1,0,0.2c-0.1,0-0.3,0-0.4,0
		c-0.5,0-1.1,0-1.6,0c0-0.1,0-0.2,0-0.4C187.7,133.6,188.4,133.7,189.1,133.7z M191.6,135.6c0,0.2,0,0.4,0,0.6
		c-1.5,0.5-3,0.9-4.5,1.2c0-0.6,0-1.2,0-1.8C188.5,135.7,190,135.7,191.6,135.6z M190.4,124.6c0.1-0.6,0.3-1.2,0.4-1.9
		c0.3,0.2,0.6,0.5,1,0.7c0,0.5-0.1,1-0.1,1.5C191.3,124.8,190.8,124.7,190.4,124.6z M191,122.1c0.1-0.3,0.1-0.5,0.2-0.8
		c0.3,0.2,0.5,0.4,0.8,0.6c0,0.2-0.1,0.4-0.1,0.7C191.6,122.4,191.3,122.2,191,122.1z M190.3,119.4c-0.5-0.3-1-0.6-1.4-0.9
		c0.4-1.5,0.8-3,1.3-4.4c0.4,0.3,0.7,0.6,1.1,0.9C190.9,116.5,190.6,118,190.3,119.4z M190.9,112c0-0.1,0.1-0.2,0.1-0.2
		c0.3,0.2,0.6,0.5,1,0.7c0,0.1-0.1,0.2-0.1,0.3C191.6,112.5,191.2,112.3,190.9,112z M191.5,110.5c0.1-0.2,0.1-0.3,0.2-0.5
		c0.3,0.2,0.6,0.3,0.9,0.5c0,0.1-0.1,0.2-0.1,0.2C192.2,110.6,191.9,110.5,191.5,110.5z M190.1,100.8c0.4-0.3,0.8-0.6,1.3-0.9
		c0.3,0.4,0.7,1,1.1,1.6c-0.2,0.4-0.5,0.8-0.7,1.1C191.2,102,190.6,101.3,190.1,100.8z M191.5,99.8c0.9-0.6,1.9-1.3,3-2
		c0.1,0.1,0.2,0.2,0.3,0.4c-0.7,0.9-1.4,1.9-2.1,2.9C192.2,100.6,191.8,100.2,191.5,99.8z M195.3,104.7c-0.1,0.2-0.2,0.4-0.4,0.7
		c-0.2-0.2-0.5-0.4-0.7-0.6c0.1-0.3,0.3-0.5,0.4-0.8C194.9,104.3,195.1,104.5,195.3,104.7z M193.8,113.5c0,0.1-0.1,0.2-0.1,0.3
		c-0.1,0-0.1-0.1-0.2-0.1c0,0,0-0.1,0-0.1c0-0.1,0.1-0.1,0.1-0.2C193.7,113.4,193.7,113.5,193.8,113.5z M194.8,135.1
		c-0.5,0.2-1,0.4-1.5,0.5c0-0.1,0-0.2,0-0.3C193.8,135.3,194.3,135.2,194.8,135.1z M194.1,125.3c0-0.2,0-0.3,0.1-0.5
		c0.3,0.2,0.6,0.3,0.9,0.5c0,0,0,0.1,0,0.1C194.7,125.4,194.4,125.4,194.1,125.3z M194.4,123.6c0-0.1,0-0.2,0.1-0.3
		c0.2,0.1,0.4,0.2,0.7,0.3c0,0.1,0,0.2,0,0.2C194.9,123.7,194.6,123.6,194.4,123.6z M194.8,121.7c0.2-0.7,0.3-1.4,0.5-2c0,0,0,0,0,0
		c-0.1,0.7-0.1,1.5-0.1,2.2C195,121.8,194.9,121.7,194.8,121.7z M195.1,110C195.1,110,195.1,110,195.1,110c0.1-0.3,0.2-0.6,0.4-0.9
		c0,0,0,0,0,0C195.4,109.4,195.3,109.7,195.1,110z M195.1,103.3c0.6-0.4,1.2-0.7,1.8-1.2c-0.4,0.6-0.8,1.1-1.2,1.7
		C195.6,103.6,195.4,103.5,195.1,103.3z M195.7,92.5c0.4-0.2,1.1-0.6,2-1.1c0.1,0,0.1,0,0.2,0c0.4,0.6,0.9,1.3,1.5,2.1
		c-0.2,0.1-0.4,0.2-0.5,0.4C198,93.6,197,93.1,195.7,92.5z M198.5,91.6c1,0.2,2,0.4,3,0.6c-0.5,0.3-1,0.7-1.5,1
		C199.4,92.6,198.9,92.1,198.5,91.6z M203.2,92.6c0.4,0.6,0.8,1.3,1.2,2c-0.5,0.4-0.9,0.7-1.4,1.1c-0.6-0.4-1.1-0.9-1.6-1.3
		C202.5,93.3,203.2,92.7,203.2,92.6z M202.7,113.2c0.2,0.1,0.5,0.3,0.8,0.4c0,0.2-0.1,0.4-0.1,0.6c-0.3,0-0.6,0-0.9,0
		C202.5,113.8,202.6,113.5,202.7,113.2z M202.9,116c0,0.2-0.1,0.3-0.1,0.5c-0.3,0-0.6-0.1-0.9-0.1c0-0.1,0.1-0.3,0.1-0.4
		C202.3,115.9,202.6,115.9,202.9,116z M202.9,125c0.3,0,0.6,0,0.9-0.1c0.7-0.1,1.4-0.2,2.3-0.4c0,0,0,0.1,0,0.1
		C205,124.8,203.9,124.9,202.9,125C202.9,125,202.9,125,202.9,125z M203.2,122.9c0.1-0.4,0.2-0.8,0.2-1.2c1,0.1,2,0.1,3.1,0.1
		c0,0.2-0.1,0.5-0.1,0.7C205.4,122.6,204.3,122.8,203.2,122.9z M205.2,120c-0.4,0-0.9,0-1.3,0c0.1-0.3,0.2-0.6,0.3-0.9
		c0.9,0,1.9,0,3,0c-0.1,0.3-0.1,0.5-0.2,0.8C206.4,119.9,205.8,120,205.2,120z M206.9,124.3c0.2,0,0.3-0.1,0.5-0.1
		c0,0.1,0,0.1,0,0.2c-0.2,0-0.4,0.1-0.6,0.1C206.9,124.4,206.9,124.4,206.9,124.3z M205,116.6c0.1-0.2,0.2-0.5,0.3-0.7
		c0.6,0,1.2-0.1,1.8-0.1c0.2,0,0.4,0,0.6-0.1c0,0.3-0.1,0.7-0.1,1C206.7,116.7,205.8,116.7,205,116.6z M207,113.2
		c-0.2,0-0.3-0.1-0.5-0.1c0-0.1,0.1-0.1,0.1-0.2c0,0,0,0,0,0c0.4,0.1,0.8,0.2,1.2,0.2c0,0.1,0,0.2,0,0.3
		C207.5,113.3,207.2,113.3,207,113.2z M207.6,102.4c-0.2-0.1-0.4-0.1-0.6-0.2c0.2-0.3,0.3-0.6,0.5-0.9c0.1-0.1,0.2-0.2,0.3-0.3
		c0.2,0.1,0.3,0.2,0.5,0.3C208,101.6,207.8,102,207.6,102.4z M208.3,121.7c0.3,0,0.6-0.1,0.9-0.1c0,0.1,0,0.2-0.1,0.3
		c-0.3,0.1-0.6,0.1-0.9,0.2C208.2,121.9,208.2,121.8,208.3,121.7z M208.5,119.6c0-0.2,0.1-0.4,0.1-0.6c0.4,0,0.8-0.1,1.3-0.1
		c0,0.2-0.1,0.3-0.1,0.5C209.3,119.5,208.9,119.6,208.5,119.6z M209.3,116.7c0.1-0.4,0.3-0.8,0.5-1.2c0.4,0.1,0.8,0.1,1.2,0.1
		c-0.1,0.3-0.3,0.7-0.4,1C210.1,116.7,209.7,116.7,209.3,116.7z M210.4,113.7c0-0.1,0.1-0.2,0.1-0.3c0.4,0,0.9,0.1,1.3,0.1
		c0,0,0,0,0,0C211.4,113.5,210.9,113.6,210.4,113.7z M210.8,89.8c-0.1,0-0.1-0.1-0.2-0.1c0.9,0.1,1.7,0.1,2.6,0.1
		c-0.1,0-0.2,0.1-0.2,0.1c-0.1,0-0.2,0-0.3,0.1C212.1,89.9,211.4,89.9,210.8,89.8z M211.6,72.9c0.1-0.1,0.3-0.1,0.5-0.2
		c0.1,0.2,0.1,0.4,0.2,0.5C212,73.1,211.8,73,211.6,72.9z M212.5,66.3c-0.2,0.1-0.4,0.1-0.6,0.2c-0.1-0.4-0.2-0.7-0.3-1.1
		c0.3-0.1,0.5-0.1,0.7-0.1C212.4,65.6,212.5,65.9,212.5,66.3z M211.9,60.4c-0.5,0-0.9,0.1-1.4,0.1c0,0,0,0,0-0.1
		c0.5-0.1,0.9-0.2,1.4-0.3C211.9,60.3,211.9,60.4,211.9,60.4z M211.8,57.3c0,0.2,0,0.4,0,0.6c-0.6,0.1-1.1,0.3-1.7,0.5
		c0-0.2,0-0.3-0.1-0.5C210.6,57.6,211.2,57.5,211.8,57.3z M209.7,58.4c-1.2,0.3-2.4,0.7-3.6,1.2c0-0.2,0-0.4,0-0.6
		c1.2-0.4,2.4-0.8,3.6-1.1C209.7,58.1,209.7,58.2,209.7,58.4z M206.1,40.9c0.1,0,0.1,0.1,0.2,0.1c-0.3,0-0.5-0.1-0.8-0.1
		c-0.3-0.1-0.6-0.1-0.9-0.2C205.1,40.8,205.7,40.8,206.1,40.9z M193.8,34.6c0.1,0,0.3,0,0.4,0c0.7,0.3,1.4,0.7,2,1
		c-1.3-0.4-2.7-0.7-4.3-0.9C192.6,34.7,193.3,34.6,193.8,34.6z M192.5,46.3c0.1,0.3,0.1,0.6,0.2,0.8c-2.5,0.8-4.9,1.8-7.4,3
		c-0.1-0.6-0.2-1.2-0.3-1.8C187.5,47.5,190,46.8,192.5,46.3z M188.2,32.3c-1.7,0.1-3.5,0.2-5.3,0.5c0-0.2,0-0.3,0-0.5
		C184.8,32.2,186.6,32.2,188.2,32.3z M180.3,37.9c-1.5,0.3-3,0.7-4.4,1c0-0.2,0-0.3,0-0.3s0,0.1,0,0.3c-1.6,0.4-3.1,0.9-4.4,1.3
		c-0.2,0.1-0.4,0.1-0.6,0.2c0-0.5-0.1-0.9-0.1-1.1c0.7-0.3,1.5-0.5,2.2-0.7c3.5-0.7,6.7-1.1,9.7-1.3
		C181.9,37.5,181.1,37.7,180.3,37.9z M178.2,27.3c0.1,0,0.2,0.1,0.3,0.1c-0.7,0-1.4,0-2.2,0.1c-0.2,0-0.5,0-0.7,0
		C176.6,27.4,177.5,27.3,178.2,27.3z M154.9,39.8c10.3-5.3,20.2-7.1,27.8-7.5c0,0.1,0,0.3,0,0.5c-3,0.4-5.9,1.1-8.3,1.8
		c-2.2,0.6-4.5,1.6-6.7,2.6c-4.1,1.3-8.4,3.1-12.4,5.1c0-0.8,0-1.2,0-1.2s0,0.4,0,1.2c-4.2,2-8.2,4.3-11.8,6.6
		c-0.1-1-0.1-1.8-0.1-2.4C146.5,44.4,150.5,42,154.9,39.8z M143.4,97.5c-1.9-1.1-3.8-2.5-5.7-4.2c-8.3-7.8-13.2-16.5-13.2-16.5
		s3.9,8.1,9.9,15.3c-0.1-0.1-0.3-0.3-0.4-0.4c-6.4-7.4-10.7-14.9-12.3-17.8c4-4.2,11.6-11.6,21.5-19.3c0,0.4,0,0.7,0,1.1
		c-3.5,3.5-5.6,6-5.6,6s2.1-2.1,5.7-5.3c0,0.7,0.1,1.4,0.1,2.2c-1.7,1.6-3.3,3.1-4.8,4.5c-0.2-0.5-0.2-0.7-0.2-0.7s0.1,0.3,0.2,0.8
		c-4.9,4.8-8,8.4-8,8.4s3-3.2,8.2-7.6c0.4,1.5,1.2,4.2,2.3,7.3c-0.5,0.5-1,1-1.5,1.6c-0.7-2.5-1-4.1-1-4.1s0.2,1.7,0.8,4.4
		c-5.9,6.2-9.6,10.8-9.6,10.8s3.6-4.1,9.8-9.9c0.3,1.3,0.6,2.7,1,4.2c-0.4,0.5-0.7,0.7-0.7,0.7s0.2-0.2,0.7-0.7c0.5,2,1.2,4.1,2,6.3
		c-2.2,2.3-3.5,3.7-3.5,3.7s1.3-1.3,3.6-3.5c0.6,1.7,1.3,3.4,2.1,5c-0.1,0.1-0.1,0.1-0.1,0.1s0,0,0.1-0.1c1.1,2.2,2.4,4.4,3.9,6.2
		c-1,1-1.7,1.8-2.2,2.3C145.4,98,144.4,97.8,143.4,97.5z M146.4,98.3c0.5-0.5,1.3-1.3,2.3-2.2c0.9,1.1,1.9,2.1,2.9,2.9
		C150,98.9,148.3,98.6,146.4,98.3z M150.8,94.2c0.7-0.6,1.4-1.2,2.1-1.9c0.2,0.2,0.5,0.5,0.7,0.7c0.9,1.5,2,2.8,3.2,3.8
		c0.8,0.7,1.6,1.3,2.6,2c-0.6,0.1-1.2,0.1-1.8,0.2C155.3,97.8,153,96.3,150.8,94.2z M158.8,115.4c0.4-0.6,0.8-1.2,1.2-1.7
		c-3.7,6.8-4.3,16.1-4,23.6c-0.3-0.3-0.5-0.5-0.7-0.8c0,0,0,0,0-0.1C154.6,127.9,156.5,120.7,158.8,115.4z M156.5,150.5
		c-0.7-0.4-1.3-0.9-1.9-1.3c-0.6-3.4-1.3-8.4-1.3-14.2c0.1,0.1,0.1,0.2,0.2,0.3C154.1,140.8,155.3,146.2,156.5,150.5z M153.3,133.6
		c0,0.3,0,0.6,0.1,0.9c0,0-0.1-0.1-0.1-0.1C153.3,134.1,153.3,133.8,153.3,133.6z M154.2,148.9c-1.7-1.3-3-2.6-3.8-3.5
		c0.1-3,0.4-6.4,0.9-9.9c0.1-0.8,0.2-1.5,0.4-2.3C151.9,139.2,153.2,145,154.2,148.9z M151.4,124.4c-1.8,6.2-2.3,13.3-2.2,19.6
		c0,0,0-0.1,0-0.1s0,0,0,0.1c0,2.5,0.2,4.9,0.3,7c-0.6-0.3-0.9-0.4-0.9-0.4s0.3,0.2,0.9,0.6c0.1,1,0.2,2,0.3,3
		c-0.6-0.4-1.2-0.8-1.7-1.3c-0.1-2.3-0.2-4.8-0.3-7.3C147.8,137.4,149.3,130.3,151.4,124.4z M146,134.3c-0.5,5.6-0.3,11.6,0.4,17.3
		c-0.4-0.4-0.8-0.7-1.2-1.1C145,146.6,145.1,140.8,146,134.3z M141.4,144.1c0.4-6.1,1.7-11.5,3.6-16.1c-1.4,8-0.9,16.6-0.3,22.1
		c-1.4-1.3-2.5-2.6-3.4-3.6C141.4,145.7,141.4,144.9,141.4,144.1z M139.5,139.5c0.1-0.4,0.1-0.8,0.2-1.3c-0.2,1.9-0.2,3.9-0.3,5.8
		c-0.2-0.3-0.3-0.5-0.4-0.6C139.2,142.1,139.3,140.8,139.5,139.5z M138.7,162.3c-0.3-3.4-0.6-10.5,0.3-18.9c0.1,0.2,0.2,0.4,0.4,0.8
		c0,6.7,0.8,13.3,1.6,18.3c-1-1-1.6-1.7-1.6-1.7s0.6,1,1.7,2.4c0,0,0,0,0,0C140.1,162.9,139.3,162.6,138.7,162.3z M141.3,147.2
		c1,1.5,2.2,3.2,3.7,5c0.3,2.2,0.6,3.5,0.6,3.5s-0.2-1.2-0.3-3.2c0.4,0.5,0.9,1,1.4,1.5c0.1,0.9,0.3,1.8,0.4,2.7
		c-0.6-0.6-0.9-1-0.9-1s0.3,0.5,0.9,1.4c0.3,2,0.6,3.9,1,5.6c-3.6-1.4-5.6-3-5.6-3s2.2,2.3,5.9,4.3c0.1,0.3,0.1,0.6,0.2,0.9
		c-2.5-0.4-4.6-0.9-6.3-1.4c-0.1-0.1-0.3-0.2-0.4-0.3C141.4,159,141.1,153.4,141.3,147.2z M147.2,169.8c-1.2-0.2-2.3-0.4-3.3-0.7
		c-0.5-0.4-1-0.8-1.5-1.2c-0.1-1.1-0.3-2.3-0.5-3.7c0,0,0,0,0,0c1.6,1.9,3.9,4.2,6.7,5.8C148.2,169.9,147.7,169.8,147.2,169.8z
		 M144.2,165.1c1.4,0.6,3,1.1,4.7,1.5c0.1,0.4,0.2,0.9,0.3,1.3C147.2,167.1,145.6,166.1,144.2,165.1z M149.2,164.6
		c0.4,0.2,0.9,0.4,1.4,0.7c-0.4,0-0.9-0.1-1.3-0.2C149.3,165,149.3,164.8,149.2,164.6z M149.5,172.3c0.3,0,0.5,0.1,0.8,0.1
		c0,0.1,0,0.1,0,0.2C150,172.4,149.8,172.3,149.5,172.3z M150.9,172.6c-0.1,0-0.2,0-0.3-0.1c0-0.1,0-0.1,0-0.2c1,0.1,2,0.1,3,0
		C152.6,172.5,151.7,172.6,150.9,172.6z M157.7,169c-2.5,0.4-5,0.3-7.4-0.6c-0.2-0.1-0.4-0.2-0.6-0.2c-0.1-0.4-0.1-0.9-0.2-1.4
		c3.5,0.8,7.4,1.1,11.5,0.3c0.3,0,0.5-0.1,0.8-0.1c0.5,0,0.9,0,1.4,0C161.5,167.8,159.7,168.4,157.7,169z M162.2,164.3
		c-1.7,0-3.4-0.2-5-0.8c-2.7-1-4.9-2.3-6.6-3.6c-0.1-0.6-0.1-1.4-0.2-2.5c3.4,2.6,7.5,4.5,12,4.3c0.9,0,1.8-0.2,2.8-0.3
		c0.4,0,0.7,0,1.1-0.1c0.1,0.5,0.3,1,0.4,1.4C165.2,163.4,163.7,163.9,162.2,164.3z M165.6,181.8c-0.1,0.3-0.1,0.5-0.2,0.8
		c0.2-1.2,0.4-2.3,0.6-3.3c0.1-0.1,0.2-0.3,0.3-0.4C166,179.8,165.8,180.8,165.6,181.8z M168,169.9c-0.5,0.2-1,0.4-1.5,0.7
		c0.8-0.5,1.6-1.1,2.3-1.7c0,0.1,0.1,0.1,0.1,0.2C168.6,169.3,168.3,169.6,168,169.9z M173.7,165.4c-1.5,1.7-3,3.4-4.5,5.2
		c1.6-2,2.9-4,3.8-6.1c0,0-1.6,1.9-4.3,4.5c0-0.1,0-0.1-0.1-0.2c1.2-1,2.3-2.2,3.1-3.5c0,0-1.3,0.9-3.6,2c0,0,0,0,0-0.1
		c1.5-1,3-2,4.4-3.3c1.1-0.5,2.2-1.2,3.3-1.9C175.2,163.1,174.4,164.2,173.7,165.4z M176.1,139.5c0.2,0,0.4,0.1,0.6,0.1
		c0.7,0.4,1.5,0.8,2.3,1.1c0.1,0.4,0.1,0.8,0.2,1.2c-1-0.2-2-0.4-2.9-0.6C176.2,140.7,176.2,140.1,176.1,139.5z M177,147.3
		c0-0.2-0.1-0.4-0.1-0.6c0.4,0,0.8,0.1,1.2,0.1c0.6,0,1.3,0,2-0.1c0,0.1,0,0.2,0.1,0.2C179.1,147.1,178.1,147.2,177,147.3z
		 M179.1,158.1c0.7-0.6,1.3-1.2,1.9-1.9c0.4-0.4,0.8-0.8,1.2-1.2c0.1,0.3,0.2,0.6,0.2,0.8C181.8,156.4,180.6,157.2,179.1,158.1
		C179.1,158.2,179.1,158.1,179.1,158.1z M179.4,165.9c0.2-0.9,0.3-1.7,0.5-2.3c0.1-0.2,0.1-0.5,0.2-0.7c0.1,0.3,0.2,0.6,0.3,0.9
		C180,164.4,179.7,165.1,179.4,165.9z M180.4,163.5c-0.1-0.3-0.2-0.6-0.2-0.9c0.8-0.9,1.7-1.8,2.5-2.7
		C181.9,161,181.1,162.2,180.4,163.5z M182.5,155.8C182.5,155.8,182.5,155.8,182.5,155.8c-0.1-0.3-0.1-0.5-0.2-0.9
		c0.3-0.3,0.6-0.7,0.9-1c1.4-1,2.9-2.2,4.2-3.4c0,0.1,0,0.1,0,0.2C185.8,152.4,184.1,154.1,182.5,155.8z M187.6,142
		c-0.1,0-0.2,0-0.3,0c0-0.2,0-0.3,0-0.5c0.3,0,0.5-0.1,0.8-0.1c1.1-0.2,2.4-0.6,3.8-1c0,0.1,0,0.1,0,0.2
		C190.5,141.1,189.1,141.6,187.6,142z M188.1,150C188.1,149.9,188.1,149.9,188.1,150c0.1-0.2,0.3-0.4,0.4-0.5
		C188.4,149.6,188.3,149.8,188.1,150z M187.9,148.3c0-0.1,0-0.2,0-0.3c0.1-0.1,0.1-0.2,0.2-0.2c0.7-0.4,1.3-0.8,2-1.2
		C189.5,147,188.7,147.6,187.9,148.3z M191.3,151.8c-0.2,0.3-0.3,0.7-0.5,1c0.3-0.8,0.5-1.5,0.8-2.1c0.1-0.1,0.1-0.1,0.2-0.2
		C191.7,150.9,191.5,151.3,191.3,151.8z M190.7,147.4c-0.3,0.2-0.6,0.5-0.9,0.7c0.9-1,1.7-2,2.3-3c0.1,0,0.1-0.1,0.2-0.1
		c0,0.2,0.1,0.5,0.1,0.7C191.9,146.2,191.3,146.8,190.7,147.4z M192.2,120.5c-0.2-0.1-0.5-0.3-0.7-0.4c0.2-0.7,0.4-1.4,0.6-2.1
		c0.1,0.1,0.3,0.2,0.5,0.3C192.4,119,192.3,119.7,192.2,120.5z M192.6,118c-0.2-0.1-0.3-0.1-0.5-0.2c0.2-0.6,0.4-1.2,0.6-1.9
		c0.1,0.1,0.2,0.1,0.3,0.2C192.9,116.8,192.7,117.4,192.6,118z M192.2,109c0.2-0.4,0.4-0.9,0.6-1.3c0.3,0.2,0.5,0.3,0.8,0.5
		c-0.2,0.4-0.3,0.8-0.5,1.2C192.8,109.2,192.5,109.1,192.2,109z M193.3,139.9c0.4-0.1,0.8-0.3,1.3-0.5
		C194.2,139.7,193.7,139.8,193.3,139.9C193.3,140,193.3,140,193.3,139.9z M193.5,144.7c0-0.2,0-0.4,0-0.6c0.2-0.2,0.4-0.4,0.6-0.6
		c0.3-0.1,0.6-0.2,1-0.3C194.5,143.7,194,144.2,193.5,144.7z M195.2,160.3c0-0.2-0.1-0.6-0.2-1.3c0.4-1.9,0.8-3.8,1.3-5.5
		C195.7,155.7,195.4,158.1,195.2,160.3z M197,124.3c0.3,0.1,0.5,0.2,0.8,0.2C197.5,124.5,197.2,124.4,197,124.3
		C197,124.3,197,124.3,197,124.3z M198.3,135.8C198.3,135.9,198.3,135.9,198.3,135.8c-0.3,0.1-0.5,0.2-0.8,0.4
		C197.8,136.1,198.1,136,198.3,135.8z M198.1,139.8c0.1-0.1,0.2-0.2,0.2-0.3c0.1-0.1,0.2-0.1,0.4-0.2c0,0.1,0,0.2,0,0.2
		C198.5,139.6,198.3,139.7,198.1,139.8z M199,110.8C198.9,110.8,198.9,110.8,199,110.8c-0.1-0.1,0-0.1,0-0.2c0,0,0,0,0.1,0.1
		C199,110.8,199,110.8,199,110.8z M198.5,100.2c-0.1,0.1-0.2,0.2-0.3,0.3c-0.3-0.2-0.7-0.5-1-0.7c1.3-1.9,2.5-3.5,3.5-4.7
		c0.4,0.5,0.8,0.9,1.3,1.4C200.7,97.8,199.5,99.1,198.5,100.2z M200.2,135.1C200.2,135,200.2,135,200.2,135.1
		c0.4-0.3,0.9-0.5,1.3-0.8c0,0,0,0.1,0,0.1C201.1,134.6,200.6,134.8,200.2,135.1z M201.6,122.9c-0.3,0-0.6,0-0.9,0
		c0.1-0.5,0.2-1.1,0.2-1.6c0.3,0.1,0.6,0.1,0.9,0.1C201.7,122,201.7,122.4,201.6,122.9z M202,119.9c-0.3,0-0.6,0-0.8-0.1
		c0.1-0.3,0.1-0.6,0.2-0.9c0.3,0,0.6,0.1,0.9,0.1C202.1,119.3,202.1,119.6,202,119.9z M202.3,133.8c0.9-0.5,1.8-1,2.7-1.6
		c0,0.1,0,0.2,0,0.3c-0.7,0.4-1.6,0.9-2.7,1.4C202.3,134,202.3,133.9,202.3,133.8z M204.9,133.6c0,0.1,0,0.1,0,0.2
		c-0.3,0.2-0.6,0.4-1,0.6C204.2,134.2,204.5,133.9,204.9,133.6z M202.5,143.6c0-0.1,0-0.1,0-0.2c0,0,0,0.1,0,0.1
		C202.5,143.5,202.5,143.6,202.5,143.6z M202.6,143.2c0-0.1,0-0.2,0-0.3c0.1-0.3,0.1-0.6,0.2-0.9c0.5-1.3,0.9-2.4,1.3-3.2
		c0.4-0.4,0.9-0.8,1.3-1.2C204.4,139.3,203.5,141.2,202.6,143.2z M208,131.4c-0.6,0.5-1.2,1-1.7,1.5c-0.4,0.3-0.8,0.6-1.3,0.9
		c0-0.1,0-0.1,0-0.2c0.9-0.8,1.7-1.6,2.4-2.4c0,0-0.8,0.5-2.2,1.3c0-0.1,0-0.2,0.1-0.3c1-0.6,1.9-1.2,2.8-1.9c0,0.2,0.1,0.4,0.1,0.6
		C208,131,208,131.2,208,131.4z M208,130.5c0-0.1,0-0.2,0-0.3c0,0,0,0,0,0C208,130.3,208,130.4,208,130.5z M208.7,123.9
		c-0.2,0.1-0.3,0.1-0.5,0.2c0,0-0.1,0-0.1,0c0-0.1,0-0.1,0-0.2c0.2-0.1,0.4-0.1,0.7-0.2C208.7,123.9,208.7,123.9,208.7,123.9z
		 M210.2,170.4c-0.8-4-1.1-7.9-1.1-11.6c0.2,4.6,0.7,9.3,1.6,13.9C210.5,172,210.3,171.2,210.2,170.4z M211.4,128.5
		c-0.5,0.4-1,0.8-1.4,1.2c0-0.4,0.1-0.8,0.2-1.1c0.4-0.4,0.9-0.8,1.3-1.2c0,0,0,0,0,0C211.4,127.8,211.4,128.1,211.4,128.5z
		 M213.5,126.7c-0.6,0.5-1.3,1.1-1.9,1.6c0-0.3,0.1-0.7,0.1-1.2c0.4-0.3,0.8-0.6,1.3-0.9c0.2-0.1,0.4-0.2,0.6-0.3
		C213.5,126.2,213.5,126.4,213.5,126.7z M214,77.3c0,0,0.1,0,0.1,0c0.1,0.1,0.2,0.3,0.3,0.4c-0.1,0-0.2,0.1-0.3,0.1
		c-0.2-0.2-0.3-0.3-0.5-0.5C213.7,77.4,213.9,77.3,214,77.3z M214.4,116.4c-0.2,0-0.4,0-0.6,0.1c0-0.1,0.1-0.3,0.1-0.4
		c0-0.1,0.1-0.2,0.1-0.3c0.2,0,0.3,0,0.5,0C214.4,115.9,214.4,116.1,214.4,116.4z M214.7,125.3c0.4-0.2,0.8-0.4,1.2-0.7
		c-0.1,0.1-0.3,0.2-0.4,0.3c-0.3,0.2-0.5,0.4-0.8,0.6C214.7,125.6,214.7,125.5,214.7,125.3z M214.7,131c0-0.1,0-0.3,0.1-0.4
		c0.3-0.6,0.5-1.3,0.8-1.8c0.1-0.1,0.3-0.2,0.4-0.3C215.5,129.3,215.1,130.1,214.7,131z M216.1,83.5c0,0,0.1,0,0.1,0
		c0,0,0.1,0,0.1,0.1c0,0-0.1,0-0.1,0.1C216.2,83.6,216.1,83.6,216.1,83.5z M216.3,116.1c0.1-0.2,0.1-0.4,0.2-0.6
		c0.4-0.1,0.8-0.1,1.3-0.2c0,0.2,0,0.4-0.1,0.6C217.3,116,216.8,116.1,216.3,116.1z M217.9,147.5c-0.4,1.4-0.7,3-0.9,4.5
		c0.1-3.3,0.5-6.4,1-9.3C217.8,144.2,217.8,145.8,217.9,147.5z M218,113.6c-0.2,0-0.4,0-0.6,0.1c0.2-0.1,0.4-0.1,0.7-0.2
		C218,113.5,218,113.6,218,113.6z M218.6,110.5c-0.1,0-0.2,0-0.3,0c0.1-0.2,0.2-0.4,0.3-0.6c0,0,0.1,0,0.1,0
		C218.7,110.1,218.6,110.3,218.6,110.5z M218.3,84.9c0.1,0,0.2-0.1,0.3-0.1c1.3,0.7,2.8,1.3,4.3,1.8c-0.2,0.1-0.4,0.2-0.5,0.2
		C221,86.4,219.7,85.7,218.3,84.9z M219.7,118.1c-0.1,0-0.1,0.1-0.2,0.1C219.5,118.1,219.6,118.1,219.7,118.1
		C219.6,118,219.6,118,219.7,118.1C219.7,118,219.7,118,219.7,118.1z M220.3,115.4c-0.4,0.1-0.9,0.2-1.4,0.3c0-0.2,0.1-0.4,0.1-0.6
		c0.5-0.1,0.9-0.2,1.4-0.3C220.4,115.1,220.3,115.3,220.3,115.4z M220.7,118.9c0,0-0.1,0-0.1,0.1
		C220.6,118.9,220.6,118.9,220.7,118.9c0-0.1,0-0.1,0-0.1C220.7,118.8,220.7,118.9,220.7,118.9z M220.9,113.2
		c-0.5,0.1-1,0.2-1.5,0.2c0-0.1,0.1-0.3,0.1-0.4c0.3-0.1,0.7-0.2,1-0.3c0.2,0,0.4,0,0.6-0.1C221,112.8,220.9,113,220.9,113.2z
		 M220.3,110.3c0.1-0.4,0.2-0.7,0.4-1.1c0.3-0.1,0.6-0.2,0.9-0.3c0.3,0,0.5,0,0.8-0.1c-0.2,0.4-0.3,0.9-0.4,1.3
		C221.3,110.2,220.8,110.3,220.3,110.3z M222.2,136.4c0,0.2-0.1,0.3-0.1,0.5c0.7-3.4,1.5-6.5,2.5-9.2c0,0.3,0,0.7,0,1
		C223.6,131.3,222.8,134,222.2,136.4z M230,186.6c-1.1-2.5-3.6-8.5-5.8-16.6c-0.4-3.2-0.7-6.7-0.9-10.2c-0.3-6.3,0.1-12.2,1.1-17.5
		c-0.1,4,0.2,8,0.8,12c-0.2,2.2-0.3,4.4-0.3,6.4C224.9,168.9,227.1,178,230,186.6z M229,134.5c-0.3,1.1-0.5,2.2-0.7,3.3
		c-0.2,0.5-0.4,1.1-0.6,1.7c0.4-2.6,0.9-5.2,1.5-7.5C229.2,132.8,229.1,133.6,229,134.5z M229.3,118.3c-0.3,0.5-0.6,1.1-1,1.7
		c0.1-0.5,0.2-1,0.3-1.6c0.3-0.2,0.5-0.4,0.8-0.6C229.4,117.9,229.4,118.1,229.3,118.3z M230.6,113.3c-0.2,0.1-0.4,0.3-0.6,0.4l0,0
		c-0.1,0-0.2,0.1-0.3,0.1c0.1-0.5,0.3-1.1,0.4-1.6c0.3-0.1,0.6-0.2,0.8-0.3C230.8,112.3,230.7,112.8,230.6,113.3z M230.7,83.5
		c-0.1,0-0.2-0.1-0.3-0.1c0.4,0,0.8-0.1,1.2-0.2C231.3,83.3,231,83.4,230.7,83.5z M239.2,68.3c0.1,0.1,0.1,0.3,0.2,0.4
		c-0.2-0.2-0.4-0.3-0.6-0.4C239,68.3,239.1,68.3,239.2,68.3z M235.8,109.1c0.1-0.2,0.1-0.4,0.2-0.5c0.5-0.1,1.1-0.2,1.7-0.4
		c-0.7,0.5-1.4,1-2.1,1.5c0,0,0-0.1,0-0.1c0.5-0.3,1.1-0.7,1.5-1C237.1,108.6,236.6,108.8,235.8,109.1z M235.7,76.1
		c0.1,0,0.1,0,0.2,0c0,0,0.1,0.1,0.1,0.1c-0.1,0-0.1,0-0.2,0C235.8,76.2,235.8,76.2,235.7,76.1z M236.9,106.4
		c0.1-0.2,0.2-0.3,0.2-0.5c0.5-0.1,1.1-0.1,1.6-0.2C238.3,105.9,237.6,106.1,236.9,106.4z M236.9,98.6
		C236.9,98.6,236.9,98.6,236.9,98.6c0.1-0.1,0.2-0.1,0.3-0.1c0,0-0.1,0.1-0.1,0.1C237,98.6,236.9,98.6,236.9,98.6z M232.6,107.2
		c-0.3,0-0.5,0-0.8,0.1c0,0,0-0.1,0-0.1c0.3-0.1,0.6-0.2,0.9-0.3C232.7,107,232.6,107.1,232.6,107.2z M232.8,61.5
		c1.6,0.1,3.1,0.3,4.4,0.6c0,0.2,0.1,0.3,0.1,0.5c-1.4-0.3-2.9-0.5-4.4-0.7C232.9,61.7,232.9,61.6,232.8,61.5z M234.8,125.9
		c-0.3,1.2-0.5,2.5-0.7,3.7c-0.2,0.1-0.4,0.2-0.7,0.4c0.5-1.6,1-3.1,1.5-4.4C234.9,125.7,234.9,125.8,234.8,125.9z M235.3,100.8
		c0.1,0,0.2,0.1,0.3,0.1c-0.2,0.1-0.3,0.1-0.5,0.2C235.2,100.9,235.2,100.8,235.3,100.8z M237.4,117.8c-0.2,0.6-0.5,1.3-0.7,1.9
		c-0.4,0.2-0.8,0.5-1.2,0.9c0.8-2.1,1.6-4.1,2.4-5.9C237.7,115.7,237.5,116.8,237.4,117.8z M240.2,105.9c-0.6,0.1-1.1,0.3-1.7,0.4
		c0.3-0.2,0.7-0.5,1-0.7c0.3-0.1,0.6-0.1,0.9-0.2C240.3,105.6,240.3,105.7,240.2,105.9z M241.9,101.8c-0.9,0.1-1.9,0.2-2.8,0.3
		c0.1-0.3,0.3-0.5,0.5-0.8c0.8,0,1.7,0,2.6,0C242.1,101.5,242,101.7,241.9,101.8z M244,138.7c-0.1-1.2-0.3-5.6,0.1-11.6
		c0.2-1.1,0.4-2.2,0.6-3.2C243.9,128.5,243.7,133.6,244,138.7z M246.1,69.6c-0.2-0.2-0.4-0.4-0.6-0.6c0.1,0,0.2,0,0.3,0.1
		C246,69.3,246.1,69.5,246.1,69.6C246.1,69.6,246.1,69.6,246.1,69.6z M260.4,83.2C260.4,83.2,260.4,83.2,260.4,83.2
		C260.4,83.2,260.4,83.2,260.4,83.2C260.4,83.2,260.4,83.2,260.4,83.2z M262.1,108.7c0-0.1,0.1-0.3,0.1-0.4c0.1-0.2,0.2-0.5,0.3-0.7
		C262.4,107.9,262.3,108.3,262.1,108.7z M263.8,83.9c-0.1-0.1-0.1-0.2-0.2-0.3c0,0,0,0,0,0C263.7,83.7,263.8,83.8,263.8,83.9
		C263.9,83.8,263.8,83.9,263.8,83.9z M267.5,79.8C267.5,79.8,267.5,79.8,267.5,79.8C267.5,79.8,267.5,79.8,267.5,79.8
		C267.5,79.8,267.5,79.8,267.5,79.8z M270.7,99.2c-0.2,0-0.5,0.1-0.7,0.1c0.6-1.1,1.1-2.1,1.7-3.1c0.2,0.1,0.4,0.1,0.5,0.2
		C271.7,97.3,271.2,98.2,270.7,99.2z M273.6,94.2c-0.2-0.1-0.4-0.2-0.5-0.2c0.1-0.1,0.1-0.2,0.2-0.3C273.3,93.8,273.5,94,273.6,94.2
		C273.6,94.1,273.6,94.2,273.6,94.2z M272.4,84.3c-0.3,0-0.6,0.1-0.9,0.2c-1-0.1-2.1-0.1-3.2,0c-0.7-0.7-1.4-1.4-2.1-2.1
		c3,0.4,6.2,0.5,9.1-0.2c0.4,0.1,0.7,0.1,1.1,0.2C275,82.9,273.7,83.6,272.4,84.3z M275.5,97.8C275.5,97.8,275.5,97.8,275.5,97.8
		C275.5,97.8,275.5,97.8,275.5,97.8C275.5,97.8,275.5,97.8,275.5,97.8z M276,90.8c-0.3,0.3-0.5,0.7-0.8,1c-0.1-0.2-0.3-0.3-0.4-0.5
		c1.1-1.6,2.1-2.8,2.8-3.8c0.3-0.1,0.6-0.3,0.8-0.4c0.1-0.1,0.2-0.1,0.3-0.2C277.8,88.2,276.8,89.5,276,90.8z M276.1,85.1
		c0,0-0.1,0-0.1,0.1c-0.3,0.1-0.7,0.2-1,0.3c2-1.1,3.9-2.1,5.6-2.8c0.2,0,0.5,0,0.7,0C280,83.2,278.2,84,276.1,85.1z"/>
	<radialGradient id="SVGID_2_" cx="64.6972" cy="186.1584" r="20.4436" gradientUnits="userSpaceOnUse">
		<stop  offset="0" style="stop-color:#98BF55"/>
		<stop  offset="1" style="stop-color:#1B5B16"/>
	</radialGradient>
	<path fill="url(#SVGID_2_)" d="M60,173.3c-8.7,13.7-6.9,39.2-6.9,39.2s-0.1-10.8,3.1-23.7c4.9-19.7,20.3-29.1,20.3-29.1
		C71,159.1,63.7,167.5,60,173.3z"/>
	<radialGradient id="SVGID_3_" cx="116.835" cy="99.1045" r="20.1247" gradientUnits="userSpaceOnUse">
		<stop  offset="0" style="stop-color:#98BF55"/>
		<stop  offset="1" style="stop-color:#1B5B16"/>
	</radialGradient>
	<path fill="url(#SVGID_3_)" d="M120.2,113.2c5.9,2.6,15.9,4.7,19.6-0.1c0,0-16.6,3.2-30.8-11.3c-9.3-9.5-15-19.5-15-19.5
		S106.4,107.2,120.2,113.2z"/>
	<radialGradient id="SVGID_4_" cx="56.0762" cy="151.7296" r="19.5074" gradientUnits="userSpaceOnUse">
		<stop  offset="0" style="stop-color:#98BF55"/>
		<stop  offset="1" style="stop-color:#1B5B16"/>
	</radialGradient>
	<path fill="url(#SVGID_4_)" d="M50.9,154c-12.3-3.2-21.7-8.4-21.7-8.4s21.9,13.8,36.6,12.2c6.3-0.7,16-3.5,17.1-8.9
		C83,148.9,69.8,158.8,50.9,154z"/>
</g>
</svg>
