<?xml version="1.0" encoding="utf-8"?>
<!-- Generator: Adobe Illustrator 18.1.1, SVG Export Plug-In . SVG Version: 6.00 Build 0)  -->
<svg version="1.1" id="Isolation_Mode" xmlns="http://www.w3.org/2000/svg" xmlns:xlink="http://www.w3.org/1999/xlink" x="0px"
	 y="0px" viewBox="0 0 431.8 274.6" enable-background="new 0 0 431.8 274.6" xml:space="preserve">
<radialGradient id="SVGID_1_" cx="215.8817" cy="137.2938" r="180.9068" gradientUnits="userSpaceOnUse">
	<stop  offset="0" style="stop-color:#98BF55"/>
	<stop  offset="1" style="stop-color:#1B5B16"/>
</radialGradient>
<path fill="url(#SVGID_1_)" d="M394.8,59c-7.8-6.5-20.6-14.8-27.1-13.3c-2.5-1.3-4.9-2.6-7.3-3.9c-6.2-4.5-13.5-8.7-19-9.1
	c-0.7-0.3-1.4-0.6-2.1-0.9c-23-10-45.3-17-66.5-21.6c-3.8-1.9-7.3-2.8-9.9-2c-4-0.8-8.1-1.4-12-2c-3.2-1.4-6.2-2-8.5-1.2
	c-2.7-0.3-5.5-0.6-8.2-0.9c-4.3-1.8-8.2-2.6-10.9-1.2c0,0,0.4,0.1,1,0.3c-2.7-0.2-5.3-0.3-8-0.5c-2.1-0.8-4.1-1.2-5.9-1.3
	c-3.5-1.2-6.6-1.5-8.6-0.3c0,0,1.6,0.4,4.2,1.3c-0.9,0-1.9,0-2.8,0C197.6,0.2,191.9-1,189,1c0,0,0.8,0.1,2.2,0.4c0,0,0,0,0,0
	c0,0,1.1,0.2,2.9,0.8c-1.4-0.2-2.7-0.3-3.8-0.2c-1.8-0.3-3.3-0.3-4.7,0c-4.7-1.2-9-1.5-11.3,0.3c0,0,1.1,0.1,2.9,0.4c0,0,0,0,0,0
	c0,0,0.6,0.2,1.7,0.5c-0.8,0.1-1.7,0.1-2.5,0.2c-0.9,0-1.7,0-2.5,0.1c-0.7,0-1.4,0.1-1.9,0.2c-0.2,0-0.3,0-0.5,0
	c-4.2-0.9-8-1-10.1,0.7c0,0,0.7,0,1.8,0.2c0,0-0.1,0-0.1,0c-0.9,0-1.8,0.1-2.5,0.3c-0.6,0.1-1.1,0.1-1.7,0.2c-1.5-0.3-2.9-0.3-4,0.1
	c0,0,0.2,0.1,0.6,0.4c-10.3,1.4-19.8,3.2-28.4,5.2c-2.8-0.3-5.3,0-7.2,1.2c0,0,0.5,0.1,1.4,0.2c-6.4,1.6-12.2,3.3-17.4,4.9
	c-16.1-0.4-27.7,3.1-27.7,3.1s0,0.1,0.1,0.4c-2,0.5-3.1,0.9-3.1,0.9s0.8,1.9,3.7,2.6c-0.3,0.2-0.7,0.4-1.1,0.7
	c-0.1-0.2-0.2-0.3-0.2-0.3S51.7,37.7,34.8,58.9C18,80.1,10.9,97.2,6.3,106.1C1.7,115,25.2,76,39.5,59.4c1.9-2.2,3.8-4.3,5.6-6.1
	C32.9,70.4,27.3,84.8,23.7,92.5c-1.2,2.6,0,0.7,2.5-3.5c-15.8,27.3-21.5,47.6-25.7,58.9c-4.5,12.2,19.9-42,36.1-66.4
	c2.2-3.3,4.3-6.3,6.4-9.1c-13.2,24.3-18,43.5-21.4,53.8C18,137.1,37.4,89.3,50.3,68.7C61.7,50.6,70.4,43.4,77,37.2
	c-0.7,1.4-1.6,3.3-2.7,5.8c-9.1,9.8-25.2,29-35.7,51.1c-15.3,32.2-19,55.3-22.1,67.8c-3.1,12.5,15-43.5,28.5-69.2
	c2.6-4.9,5-9.2,7.4-13.1c-0.2,0.5-0.5,1.1-0.7,1.6c-12.2,28.3-15.3,49.8-17.9,61.3C31.2,154,45.9,103.4,56.6,81
	c4-8.4,7.7-14.7,11.2-19.7c-0.3,1.2-0.6,2.4-1,3.6c-1.2,3.8-2.3,7.8-3.1,11.9c-4.8,8.3-9.5,17.6-13.1,27.5
	c-12,32.7-13.4,55.6-15.3,68c-1.4,9.4,5.4-20.5,13.5-47c-1.1,6.6-1.7,11.9-2.3,15.8c-0.9,5.9,2.5-8.6,7.2-25
	c-0.7,4.5-1.1,8.3-1.5,11.5c-1.6,9.2-2.5,16.9-3.2,22.9c-4,15.8-5.4,27.7-6.9,35.6c-1.8,9.5,6.1-20.6,15.2-47.2
	c-0.6,4.9-0.9,9.4-1.1,13.4c-1.3,7.5-2,13.6-2.8,18.2c-0.7,4.1,0.4,0.3,2.4-7.4c-0.1,2.4-0.1,4.6-0.2,6.5c-0.3,5.6,1.1-4.5,3.5-18.9
	c0.2-0.9,0.5-1.7,0.7-2.6c0,0.6,0,1.2-0.1,1.7c-0.2,3.4,0.4,0.1,1.4-6.5c0.3-1.2,0.6-2.3,1-3.5c0,0.5,0,1.1-0.1,1.6
	c-0.1,3,0.2,0.6,0.9-4.7c0.9-3,1.7-6,2.6-8.9c-1.2,11.9-1.3,21.2-1.5,27.6c-2.9,17.6-3.1,30.9-3.6,39.8c-1.6,8.7-2.6,15.6-3.5,20.7
	c-1.4,7.9,3.7-11.5,10.6-33.5c0,0,0,0,0,0c-1.4,8-2.1,14.5-2.9,19.3c-1.5,9.6,5.9-23.3,13.8-48.4c-2,18.2-1.6,32.3-1,42.6
	c-1.6,13.7-1.6,24-2,31.1c-0.4,5.9,1.1-3.6,3.7-18.2c-0.1,2.6-0.2,4.9-0.3,6.9c-0.6,9.1,3-19.3,7.9-44.4c0.9-3.6,1.7-7.1,2.6-10.4
	c0.4,2.9,0.7,5.3,1,7.4c0.4,3.7,0.2-1.6-0.1-10.3c0.3-1,0.6-2.1,0.9-3c0.6-1.9,1.2-3.7,1.8-5.5c0.1,1.3,0.3,2.6,0.5,3.9
	c-0.1,11.3,0.7,20.8,1.7,28.5c-1.6,20.3-0.4,35.1-0.3,44.1c0.1,3.5,0.3,1.3,0.7-4.2c0.2,4.7,0.5,8.7,0.6,12
	c0.4,12.4,2.5-44.2,8.4-71.5c0.3-1.3,0.6-2.5,0.8-3.7c0.6,2.6,1.1,4.8,1.4,6.7c0.7,3.2,0-1.3-0.9-8.8c0.2-0.9,0.5-1.9,0.7-2.8
	c0.5,2.2,1,4.3,1.5,6.3c-0.1,1.4-0.3,2.8-0.4,4.2c-0.4,5.7-0.6,11.1-0.6,16c-0.1,0.5-0.2,0.9-0.3,1.4c-6.5,32.3-4.5,54-4.4,65.9
	c0,5.8,0.9-4.1,2.5-18.7c0,3.8,0.1,7.1,0.1,9.9c-0.1,7.2,1.2-10.4,3.5-30.4c0.6,6.4,1.3,11.6,1.7,15.6c0.4,4.3,0.4-0.8,0.3-9.9
	c0.9,6.2,1.8,11.2,2.4,15.2c1.3,9.4-1-26.5,0.2-52.5c2-7.6,4.1-13.9,6.1-19.2c-2.2,9.1-4.2,20-4.8,31.6c-1.5,30,2,50.8,3.2,62.2
	c1.2,11.3-1.5-40,0.5-64.1c1-11.5,2.5-19.8,4.2-26.4c0.8,1.8,1.5,3.4,2.1,4.8c-1.8,7.9-3.1,16.5-3.6,25.3c-1.6,31.5,3.3,52.2,5,63.7
	c1.7,11.5-2.5-41.1-0.2-66.5c2.4-26.7,8.6-38,11.5-48.6c0.3-1.2,0.5-2.3,0.7-3.2c0.8,0.5,1.7,0.9,2.6,1.4c-0.1,0.4-0.3,1.7,2.3,3.7
	c-2.2-0.7-3.6-1.1-3.6-1.1s-0.1,0.6,0.5,1.5c-1.5-0.4-2.4-0.6-2.4-0.6s-0.4,0.8,0.7,2.1c-1.5,5.7-6.2,26.1-5.1,48.8
	c1.3,26.8,6,45,8,55c2,10-4.7-35.4-5-57c-0.4-22.6,2.9-31.6,4-40.4c0.3-2.1,0.3-3.7,0.1-4.9c0.4,0.3,0.9,0.5,1.5,0.8
	c-0.2,0.6-0.2,1.6,0.9,3.2c-0.7-0.3-1.1-0.5-1.1-0.5s-0.7,1.2,1.4,3.3c-1.9,6.6-7.5,28.6-5.8,51.6c2,27.5,8.4,45.2,11,55.1
	c2.7,9.9-6.5-35.6-7.3-57.8c-0.5-15.1,1-24.7,2.5-32.2c0.1,7.3,0.8,16.9,2.9,26.9c4.4,20.9,10.2,34.8,13,42.5
	c2.7,7.7-8-27.4-11.1-44.3c-2.6-14.2-2.3-21.7-2.3-27.8c0.3,0.6,0.8,1.3,1.4,2.1c0,1.6,0,10.4,1.7,22.4c0.4,5.5,1.1,11.5,2.6,17.5
	c3.3,13.8,7.5,24.3,10.8,32c2.2,5.9,4.1,10.6,5.4,14.1c1.1,2.9,0.2,0.1-1.5-5.4c0.2,0.4,0.3,0.8,0.5,1.1c3.3,7.5-9.4-27-12.8-44.1
	c-3.5-17.5-1.9-25.5-2-32.7c0.6,0.6,1.3,1.3,2,1.9c0.3,0.4,0.6,0.8,0.8,1.1c0.1,1.7,0.2,3.9,0.4,6.3c-1.8-2.2-2.9-3.4-2.9-3.4
	s-1.6,1.4,2.3,7.1c0.4,0.5,0.7,1.1,1.1,1.6c0.9,9.2,2.6,21.2,6.1,33.6c7.2,26,15.2,42.9,19.1,52.4c3.9,9.4-11.9-33.8-17.2-54.8
	c-2.3-9.2-3.5-16.2-4.2-21.8c1.8,8.6,5.4,21.4,12.7,33.5c6.1,10.1,12.4,18,17.9,24.3c3.5,9.3,5.7,15.1,4.5,11.1
	c-0.7-2.4-1.5-5.4-2.5-8.9c4.9,5.3,9,9.4,11.9,12.4c3.9,4.2-4.6-6.5-13.9-19.2c-1.3-4.2-2.9-9-4.8-14.2c-2-7.5-4.9-20-12.3-36.2
	c-0.6-1.3-1.2-2.6-1.9-3.9c0.4,0.7,0.9,1.5,1.3,2.3c6.6,14.7,13.7,32.9,11.8,27.3c-0.9-2.7-2.1-6.4-3.7-11
	c7,15.8,14.6,35.6,12.6,29.5c-1.7-5.2-4.1-13.4-8.3-24.1c7.3,14.4,13.3,27.4,11.2,22c-2.2-5.8-5.2-15.1-10.7-26.9
	c3.3,5.6,6.2,10.8,7.9,13.8c4.1,8,6.6,12.9,5,9.3c-1.9-4.5-4.5-11.4-8.4-19.9c1.4,2.3,2,3.2,1.1,1.6c-1-1.8-2.2-4.1-3.7-6.9
	c-2.7-5.5-5.9-11.6-9.8-18.1c-4.1-6.9-8.7-12.9-12.8-17.9c0.8,0.6,1.6,1.3,2.5,2c2,2,4.2,4.2,6.5,6.8c0,0,0,0,0,0.1
	c10,17.1,21.8,42.3,19.1,35.3c-1.1-2.8-2.4-6.5-4.1-10.9c0.3,0.5,0.6,1.1,0.9,1.6c1.9,3.7,3.1,6,3.1,5.7c6.5,12,11.2,21.3,9.3,16.6
	c-2.4-5.6-5.6-14.5-11.2-25.8c9.3,13.5,17.1,25.9,14.4,20.7c-2.4-4.4-5.5-11.2-10.3-19.4c8.1,10.5,14.5,19.4,11.9,15.3
	c-4.3-6.9-11.4-20.1-25.7-36.2c-1-1.1-2-2.2-3-3.2c-0.2-0.4-0.4-0.7-0.6-1.1c5.7,6.2,12.7,14.7,18.1,21.3
	c7.6,11.4,13.5,20.8,11.1,16.3c-1.1-2.1-2.5-4.7-4.1-7.8c1.6,1.9,2,2.4,0.9,0.8c-0.6-0.8-1.2-1.8-2-2.8c-4.3-8-10.5-18.7-19.7-30.7
	c-3.7-4.8-7.7-9.1-11.5-12.7c0,0,0,0,0,0c1.9,1.8,4,3.9,6.3,6.3c10.9,11.6,30.4,39,26.4,32.8c-3.3-5.2-8.4-14.3-17.4-25.8
	c0.5,0.5,1,1,1.5,1.5c7.4,8.9,13.2,16.2,10.7,12.7c-1.3-1.8-2.9-4-4.7-6.7c12.6,13,24.5,26.5,20.6,21.5
	c-5.6-7.2-14.9-21.2-32.9-37.7c-0.2-0.2-0.5-0.4-0.7-0.7c-2.3-2.7-4.7-5.5-7.4-8.5c-0.3-0.4-0.6-0.7-1-1c2.5,1.9,5.2,4.1,8.2,6.7
	c14.1,12.1,41.1,41.8,35.3,34.9c-5.7-6.9-15.7-20.2-32.8-35.9c-6.6-6.1-13.4-11-19.3-14.8c3.8,1.8,8.1,4.1,13,7.2c0,0,0,0,0,0
	c14.7,13.7,33.5,34.6,28.9,28.7c-1.9-2.4-4.2-5.6-7.1-9.3c0.5,0.5,1,0.9,1.5,1.4c2.9,2.9,4.7,4.7,4.6,4.5
	c9.9,9.8,17.1,17.4,13.8,13.4c-3.2-3.9-7.7-9.8-14.1-17c7.8,6.5,12.8,10.9,9.8,7.9c-1.5-1.5-3.3-3.3-5.4-5.4
	c1.3,1.1,2.6,2.2,3.8,3.1c1.3,1.2,1.9,1.7,1.6,1.4c5.4,4.5,8.3,6.9,5.9,4.5c-4.4-4.5-10.9-11.9-21.1-20.7
	c-5.8-5.9-13.1-12.8-22.2-20.2c-2.9-2.4-5.9-4.6-8.8-6.7c-0.3-0.5-0.7-1-1.1-1.6c1.8,1.1,3.6,2.3,5.6,3.6
	c17.4,11.8,49.3,41.7,42.7,34.7c-6.6-7-17.8-20.9-38.7-36.3c-4.8-3.5-9.9-6.6-14.8-9.3c-0.1-0.1-0.2-0.2-0.3-0.4
	c4.6,2.3,9.8,5.1,15.8,8.9c19.6,12.4,56.1,44.1,48.5,36.6c-7.6-7.4-20.5-22-44.2-38.3c-6.6-4.6-13.6-8.4-20.1-11.5
	c-0.7-1.2-1.6-2.5-2.5-4c5.5,2.5,12.3,6,21.2,11.7c18.5,11.8,54.8,41.8,47,34.8c-7.7-7-21.3-20.8-44-36.2
	c-8.8-6-17.7-10.6-25.3-14.1c4.9,1.5,10.4,3.6,16.8,6.4c19.5,13.5,44.7,34.7,38.4,28.7c-2.6-2.5-5.8-5.9-10-9.9
	c6.6,5.1,10.3,7.9,7.4,5.3c-2.7-2.4-6.2-5.8-10.6-9.7c15.6,9.5,29.1,18.3,23.8,14.3c-2-1.5-4.4-3.3-7.2-5.5
	c11.4,7,19.1,11.8,14.8,8.6c-8.7-6.6-23.6-19.8-50.1-33.2c-0.4-0.2-0.8-0.4-1.2-0.6c-3.7-2.7-7.6-5.5-12-8.4c-1.1-0.7-2.1-1.4-3.2-2
	c-1.2-1.4-2.5-2.9-3.9-4.4c0.8,0.3,1.5,0.7,2.3,1c5,4.8,8.1,7.7,6,5.5c-1.2-1.3-2.6-2.8-4.2-4.6c1,0.5,2,0.9,3.1,1.5
	c22.6,11,64.9,40.7,56,33.6c-2.4-1.9-5.1-4.3-8.5-7c4.2,2.7,5.9,3.8,3.4,1.8c-6.6-5.1-16.9-14-32.4-24c-3.4-3.2-7.3-6.7-12-10.5
	c0.1-0.7,0.3-1.6,0.5-2.9c3.8,3,5.6,4.5,3.7,2.7c-1-1-2.2-2.1-3.5-3.3c0-0.2,0.1-0.5,0.1-0.7c2.3,1,4.8,2.1,7.3,3.3
	c0.2,0.1,0.5,0.3,0.7,0.4c-0.6,3.7-1,5.9-1,5.9s0.6-2.2,1.3-5.7c3.3,1.7,6.7,3.5,10,5.3c-0.5,3.2-0.9,5-0.9,5s0.5-1.8,1.1-4.9
	c5.3,2.9,10.4,5.7,14.6,8c-0.4,3.4-0.6,5.4-0.6,5.4s0.4-2,0.9-5.2c4.6,2.5,8.2,4.5,9.9,5.4c-0.1,0.4-0.1,0.6-0.1,0.6s0-0.2,0.1-0.6
	c1.5,0.8,1.6,0.8,0.1-0.3c0-0.2,0.1-0.5,0.1-0.7c3.7,2,6.6,3.5,8.5,4.5c-0.7,4.5-1.2,7.2-1.2,7.2s0.7-2.7,1.6-7
	c2.2,1.1,2.6,1.2,0.6-0.1c-0.2-0.1-0.3-0.2-0.5-0.3c1.5-7.5,3.5-19.6,3.2-31c0.5,11.5-0.6,20.1-0.6,20.1s4.8-26.7-1.4-42.8
	c0-0.1-0.1-0.1-0.1-0.2c0.4,0.6,0.8,1.4,1.2,2.2c2.6,5.9,4.8,13.5,5.2,22.5c0.6,14.4-1.4,25.8-1.4,25.8s3.7-16.3,2.7-31.3
	c1.5,5.9,2.5,12.7,2.4,20.2c-0.2,17-3.1,30.2-3.1,30.2s8.3-30.8,3.3-50.7c-1.3-5-3.5-11.5-6.2-16.2c-0.6-1.8-1.2-3.7-1.9-5.7
	c0.7,0.6,1.3,1.1,2,1.7c2.5,3.6,10.7,16.5,10.5,34.9c-0.2,14.1-2.8,25.1-2.8,25.1s5.3-18.3,4.3-33.9c0.5,3.3,0.8,6.9,0.7,10.8
	c-0.2,13.5-2.5,23.9-2.5,23.9s6.4-24.5,2.7-40.2c-0.6-2.5-1.5-5.5-2.6-8.4c2.9,4.4,6.1,10.5,8,17.9c0.7,3.6,1.1,7.6,1.1,11.9
	c-0.2,13.9-2.8,24.7-2.8,24.7s1.2-4.1,2.4-10.1c-1,7-2.3,11.5-2.3,11.5s9.4-25.3,3.3-42.8c-0.4-1.3-1-2.6-1.6-4
	c-0.7-2-1.6-4.2-2.6-6.2c0.7,0.7,1.4,1.5,2.1,2.2c2.2,3.3,7.9,13.1,7.6,26.7c-0.2,11-2.2,19.6-2.2,19.6s5.8-20,2.4-32.9
	c-0.5-2.1-1.4-4.5-2.4-6.9c3.9,5.5,8.8,14.4,8.7,25.1c0,11.8-3,20.8-3,20.8s8.5-20.7,3-35c3.1,5.4,6,12.4,7.3,20.9
	c2.2,14.3,1.6,25.9,1.6,25.9s2.6-24.1-3-40.1c4.7,6.3,9.3,13.1,13.8,20.2l0,0c1.2,3.3,2.4,6.8,3.2,10.8c3.2,14.7,3.5,26.9,3.5,26.9
	s0.4-28.7-7.4-44.7c-3-6.1-8.4-14.6-12.8-16.1c-1.6-2.1-3.2-4.1-4.8-6.1c-2.3-3.8-5.1-7.5-7.8-9.4c-5.7-6.5-11.5-12.6-17.4-18.1
	c-2.9-10.4-8.3-27.7-16.1-42.7c4.8,5.9,7.6,9.9,7.6,9.9s-3.9-6.3-9.8-14.1c-1.7-2.9-3.4-5.7-5.2-8.2c1.7,1.9,3.5,3.8,5.2,5.9
	c5.7,7,10.5,13.8,14,19.2c4.7,9.8,7.1,16.9,7.1,16.9s-1.4-5-4-12.1c2.9,4.7,4.5,7.6,4.5,7.6s-2-4.2-5.5-10.3
	c-3.4-8.7-8.4-19.8-14.8-29c0.9,0.9,1.8,1.8,2.7,2.8c7,7.8,12.5,15.2,16.1,20.5c0.2,0.4,0.4,0.8,0.6,1.2
	c10.2,20.5,14.8,38.4,14.8,38.4s-2.6-12.3-7.8-26.8c0.7,1.5,1.1,2.3,1.1,2.3s-0.7-1.7-1.9-4.4c-1.8-4.9-3.9-9.9-6.2-14.8
	c1.1,1.5,1.7,2.3,1.7,2.3s-0.8-1.3-2.2-3.4c-2-4.1-4.3-8.1-6.7-11.7c5.2,7,8.2,12.1,8.2,12.1s-2.5-4.8-6.5-11.1
	c2.3,3,4.4,5.8,6.3,8.5c8.3,16.7,12,30.9,12,30.9s-1.9-9.1-5.8-20.4c0.8,1.7,1.7,3.5,2.5,5.4c10.7,24.8,15.4,45.9,15.4,45.9
	s-5.5-31.6-17.5-57.4c12,17.7,18.9,32.9,18.9,32.9s-14-34.9-32.4-54.7c-1.8-2.7-3.8-5.2-5.9-7.4c-1.7-1.7-3.7-3.6-5.9-5.5
	c4.9,3.6,10.1,8.2,14.9,14.1c11,13.5,17.5,25.9,17.5,25.9S251,38.7,241.6,26c2.7,3.1,5.4,6.6,8,10.5c11.4,17.7,17.4,33.7,17.4,33.7
	s-11.8-37-30.1-54c0.8,0.6,1.7,1.3,2.6,2c6.6,6.9,14,16.9,19.7,30.1c8.4,19.7,12.2,36.4,12.2,36.4s-3.9-22.2-12.3-41.9
	c8.5,16.9,12.4,31.4,12.4,31.4s-3.4-16.5-10.6-32.7c0.7,1.1,1.4,2.1,2.1,3.3c12.5,20.1,19.5,38,19.5,38s-11.2-33.4-27.7-54.5
	c6.7,7.9,13.7,17.9,19.7,30.2c12.3,25.5,18.5,47.5,18.5,47.5s-9-38-24.6-65.2c10.6,17.1,16.2,32,16.2,32s-7.6-23.6-19.9-42.2
	c5.5,6.1,11.1,13.6,16,22.6c12.4,22.8,18.8,42.8,18.8,42.8s-7.8-28.9-21.1-52.3c0.4,0.6,0.7,1.1,1.1,1.7
	c12.4,19.8,19.1,37.5,19.1,37.5s-14.2-42.6-34.2-61.4c-5.3-4.9-12.9-10.9-19.5-13.9c0.9,0.1,1.8,0.2,2.7,0.4
	c6.3,3.8,21.4,14.2,34.4,33.6c0.3,0.5,0.6,1,0.9,1.5c10.4,18.9,15.6,35.6,15.6,35.6s-1.8-7-5.2-16.5c9.6,20.9,14.2,37.8,14.2,37.8
	s-11.1-48.9-31.3-72.5c-0.1-0.2-0.3-0.3-0.5-0.5c-1.8-2.4-3.7-4.7-5.6-6.7c-3.6-3.6-8.5-7.8-13.3-11c0.9,0.1,1.7,0.3,2.6,0.4
	c5.7,3.2,25.7,15.8,38.8,42.9c10.1,20.8,14.9,38.9,14.9,38.9s-6.7-30.7-19.4-52.8c5.4,7,10.8,15.6,15.2,25.9
	c10.2,23.7,14.6,43.9,14.6,43.9s-5.2-30.6-16.8-55.4c7.6,15.2,11.3,27.4,11.3,27.4s-10-39.6-27.9-57.4c-0.1-0.1-0.2-0.2-0.2-0.2
	c0.9,0.6,1.9,1.3,2.9,2.2c6.9,6.3,14.6,15.2,20.6,27.3c9.6,19.3,13.9,36.1,13.9,36.1s-5.1-24.6-15.5-44.5c5.5,7,11,15.6,15.5,26
	c10.1,23.3,14.4,43.2,14.4,43.2S333.7,65.8,315,42c-5-6.4-12.6-14.4-19.4-19c-2.9-2.7-6.1-5.2-9.2-7.2c2.3,0.6,4.5,1.2,6.8,1.9
	c0.1,0.1,23.8,11.8,36.5,41.4c8.3,19.4,11.6,36.1,11.6,36.1s-4.1-28.4-14.9-49.1c2.7,4.2,5.2,8.9,7.5,14.1
	c7.9,18.5,11.3,34.3,11.3,34.3s-6.4-37.6-21-56.6c-2.3-3.1-5.4-6.6-8.6-9.7C322,32.4,330,38.6,337,47.4c3.2,4.5,6.2,9.7,8.7,15.6
	c8.2,19.1,11.4,35.6,11.4,35.6s-0.9-6.4-3-15.3c3,10.2,4,17.2,4,17.2s-3.1-40.8-21.7-60.5c-1.3-1.4-2.9-2.9-4.6-4.5
	c-2.5-2.6-5.3-5.2-8.1-7.5c1.1,0.4,2.2,0.9,3.3,1.3c0,0-0.1,0-0.1,0c0,0,18.2,9.2,28.1,32.4c6.4,15.2,9,28.2,9,28.2
	s-4.6-31.1-16.9-46.5c-2-2.5-4.6-5.3-7.3-7.8c8.5,4.9,20.3,13.8,26.7,28.4c7.1,16.1,8.7,30.3,8.7,30.3s-1.5-33.9-17.4-49.7
	c7.3,5.3,15.3,12.9,22.2,23.6c11.7,18,17.8,34.3,17.8,34.3s-11.6-35.8-29.3-53.6c10,5.4,20,11.5,30.2,18.2c4,3.9,8,8.4,11.9,13.7
	c13.1,18,21,34.3,21,34.3S414.8,75.6,394.8,59z M150.5,129.2c-6.9-2.8-12.8-4.8-16.7-6c0-2.6-1.5-2.9-1.5-2.9s-0.5,0.7-1.3,2.1
	c-0.4-0.1-0.7-0.2-1-0.3c-0.3-0.4-0.6-0.6-0.6-0.6s-5.6,9.2-11.3,23.1c-0.1-0.5-0.3-1-0.4-1.5c3-11.5,6.5-18.8,8.7-25.6
	c1,0.5,2.5,1.1,4.4,1.6c2.4,0.7,4.9,1.2,7.7,1.8c0.9,0.6,2,1.2,3.5,1.9c1.1,0.5,2.3,1,3.4,1.5C147,125.8,148.7,127.3,150.5,129.2z
	 M148.5,170.8c-0.2-0.7-0.4-1.3-0.6-1.7c0.2,0.2,0.4,0.5,0.7,0.7C148.6,170.1,148.5,170.5,148.5,170.8z M145.2,161.8
	c0.2,0.2,0.5,0.4,0.7,0.6c0.9,0.8,1.9,1.5,3,2.2c0.5,0.9,1.4,2,3.3,3.5c0.1,0.1,0.1,0.1,0.2,0.2c0.4,0.5,0.9,1.2,1.6,2
	c-4.5-4.4-7.9-7.1-8.8-7.9C145.2,162.2,145.2,162,145.2,161.8z M159.3,175.7c-0.1-0.1-0.2-0.3-0.3-0.4c0.9,0.9,1.9,1.9,2.9,3.1
	c0.1,0.2,0.3,0.4,0.4,0.7C161.3,177.9,160.3,176.8,159.3,175.7z M168.7,187c-0.1-0.2-0.2-0.5-0.3-0.7c1.7,2.3,3.5,4.9,5.5,8
	c-0.3-0.4-0.5-0.7-0.8-1C171.7,191.1,170.2,189,168.7,187z M137.7,132.6C137.7,132.6,137.7,132.6,137.7,132.6
	C137.7,132.6,137.7,132.6,137.7,132.6C137.7,132.6,137.7,132.6,137.7,132.6z M144.8,147c0.2,0.3,0.3,0.6,0.6,1
	c-0.7-0.6-1.3-1-1.8-1.5C144,146.7,144.4,146.9,144.8,147z M85,157.3c-0.6,2.1-1.1,4.1-1.6,6.1c0.6-6.3,1.3-12.8,2-18.8
	c0.5,2.8,0.9,5.1,1.2,7.1c0,0,0,0,0,0c0,0.1-0.1,0.3-0.1,0.4C86,153.8,85.4,155.5,85,157.3z M178.8,9c3,2.1,6.8,5,11.1,8.7
	c-0.6-0.4-1.2-0.8-1.8-1.2c-1.8-1.7-3.8-3.2-5.7-4.4c-3.3-2.1-7.7-4.4-11.9-5.8c0.1,0,0.1,0,0.2,0C173,6.9,175.8,7.8,178.8,9z
	 M207.7,57.4c-1.1-1.1-2.3-1.9-3.4-2.3c-0.2-0.1-0.3-0.2-0.5-0.3c-2.6-5.4-5.4-10.6-8.4-15.3c0.3,0.1,0.5,0.1,0.8,0.2
	c7,7.2,11.1,12.6,11.1,12.6s-3.7-5.4-9.6-12.2c0.9,0.2,1.7,0.4,2.4,0.5c3.9,5.1,7.7,10.8,11.2,17.2c0.6,1.1,1.2,2.2,1.7,3.3
	C211.2,59.8,209.4,58.6,207.7,57.4z M218.3,111c-0.3-0.2-0.7-0.4-1-0.6c0.2-5.2,0.2-12.2-0.4-19.4c0.6,1.5,1.1,2.9,1.6,4.2
	C218.7,101.7,218.5,107.2,218.3,111z M152.2,104.9c-2.1-2.1-4.5-4.2-7-6.5c0.2,0.1,0.5,0.1,0.7,0.2c0.1,0,0.1,0.1,0.2,0.1
	c4.4,2.7,9.7,6.3,15.2,10.2C158.2,107.5,155.2,106.2,152.2,104.9z M116.9,148.1c-0.1-0.2-0.1-0.4-0.2-0.6c0-0.2,0.1-0.4,0.1-0.6
	c0.1,0.2,0.1,0.4,0.2,0.6C117,147.7,117,147.9,116.9,148.1z M116.4,149.5c0,0.1-0.1,0.3-0.1,0.4c0-0.2,0.1-0.3,0.1-0.5
	C116.3,149.4,116.4,149.4,116.4,149.5z M105.9,128.6c-0.1-3-0.1-5.7,0-8.1c0.8-1.3,1.5-2.6,2.3-3.9c0.2,1.5,0.4,3,0.6,4.6
	C107.9,123.5,106.9,125.9,105.9,128.6z M165.5,7.4c-0.6-0.1-1.3-0.2-1.9-0.3c-0.1,0-0.2-0.1-0.2-0.1c0.3,0,0.5-0.1,0.8-0.1
	C164.6,7,165,7.2,165.5,7.4z M210.9,107C210.9,107,210.9,107,210.9,107c-0.4-0.2-0.7-0.5-1.1-0.7c0.1-1.7,0.2-3.3,0.3-5.1
	c0.3,0.9,0.5,1.4,0.5,1.4s-0.2-0.6-0.5-1.6c0.1-3.9,0.1-8-0.1-12c0.1,0,0.1,0.1,0.2,0.1C211.1,97.6,211,104.3,210.9,107z
	 M206.8,109.5c-1.9-1.1-4-2.3-6.2-3.5c0-0.1,0-0.2,0.1-0.3c2.1,0.8,4.2,1.6,6.2,2.4C206.9,108.6,206.9,109.1,206.8,109.5z
	 M151,119.1c-0.2-0.1-0.3-0.1-0.5-0.2c-0.1-0.2-0.2-0.3-0.4-0.5c0.2,0.1,0.4,0.2,0.5,0.2C150.8,118.8,150.9,119,151,119.1z
	 M152.2,119.4c0.1,0.1,0.3,0.1,0.4,0.2C152.5,119.6,152.4,119.6,152.2,119.4C152.3,119.5,152.2,119.5,152.2,119.4z M148,118.1
	c-4.3-1.3-8.2-2.3-11.4-3.1c-2.7-1.9-4.4-2.9-4.4-2.9s-0.4,0.6,0.6,2c-2.3-0.5-4-0.8-5.2-1c0.2-1.5,0.2-2.5,0-3.3
	c5.3,1.8,11.4,3.5,19.5,7.1C147.4,117.4,147.7,117.8,148,118.1z M208.6,105.5c-0.4-0.3-0.9-0.6-1.3-0.9c0.1-2.9,0.1-6.4,0-10.1
	c0.5,1.1,0.9,2.1,1.2,3C208.6,100.2,208.6,102.9,208.6,105.5z M184.2,103.9c0.1-0.9,0.3-1.8,0.4-2.7c2,0.8,3.9,1.6,5.8,2.5
	c-0.2,1.8-0.3,3.3-0.5,4.4C188.1,106.7,186.2,105.3,184.2,103.9z M166.2,100.2c-0.6-0.3-1.2-0.5-1.8-0.8c0-0.2,0-0.4,0.1-0.6
	c0.7,0.6,1.4,1.1,1.9,1.5C166.4,100.3,166.3,100.3,166.2,100.2z M163.8,99.1c-0.1-0.1-0.2-0.1-0.4-0.2c-1.8-1.6-3.8-3.2-5.9-5
	c0-0.3,0-0.6,0-0.9c2.4,1.9,4.6,3.7,6.3,5.1C163.8,98.5,163.8,98.8,163.8,99.1z M124.4,95.9c0.1,0.1,0.3,0.2,0.4,0.3
	c-4-0.9-6.6-1.4-7.1-1.5c-0.4-0.8-1.1-0.9-1.1-0.9s-1.1,1.4-2.8,4c-0.3,0-0.6-0.1-0.6-0.1s0,0,0,0c0-2.3-1.1-2.9-1.1-2.9
	s-0.1,0.2-0.3,0.4c0.8-1.2,1.3-2.3,1.7-3.2c1.2,0.7,3,1.4,5.8,2c1.2,0.3,2.5,0.5,3.8,0.7C123.5,95.1,123.9,95.4,124.4,95.9z
	 M117.8,98.4c0.2-1,0.3-1.8,0.2-2.4c0.6,0.9,2.2,2.2,5.7,3.5C121.4,99.1,119.5,98.7,117.8,98.4z M181.2,44.2c0.1,0,0.1,0.1,0.2,0.1
	c0.4,0.4,0.7,0.9,1.1,1.3c-0.1-0.1-0.2-0.2-0.3-0.3C181.8,45,181.5,44.6,181.2,44.2z M108.9,99.7C108.9,99.7,108.9,99.7,108.9,99.7
	c0.2-0.4,0.4-0.7,0.7-1C109.4,99,109.2,99.4,108.9,99.7z M194.9,90c-0.1-0.1-0.3-0.2-0.4-0.3c0.1-0.4,0.1-0.9,0.1-1.3
	c0.1,0,0.2,0.1,0.3,0.1C194.9,89,194.9,89.5,194.9,90z M192.5,98.4c0-0.1-0.1-0.3-0.1-0.4c0.2,0.1,0.5,0.3,0.7,0.4
	c0,0.1,0,0.2,0,0.3C192.8,98.6,192.7,98.5,192.5,98.4z M188.8,92.5c0-0.8,0-1.7-0.1-2.6c0.6,1.3,1.1,2.4,1.5,3.5
	C189.8,93.1,189.3,92.8,188.8,92.5z M87.1,113.3c-0.4,1-0.7,2.1-1.1,3.2c0-1.4,0-2.7,0.1-4.1c1.3-5.6,2.7-10.3,4.2-14.3
	c-0.7,3.4-1.4,7.1-2,11C87.9,110.5,87.5,111.9,87.1,113.3z M191.1,93.9c-0.1,0-0.1-0.1-0.2-0.1c-0.6-1.7-1.3-3.7-2.2-5.8
	c0-0.3,0-0.6-0.1-1c0.9,0.5,1.8,1,2.5,1.4C191.1,90.2,191.1,92.1,191.1,93.9z M186.2,91c-0.1-0.1-0.2-0.1-0.3-0.2
	c0.2-1.7,0.3-3.4,0.4-5.2c0,0,0,0,0,0C186.3,87.7,186.2,89.5,186.2,91z M101.2,61c0.8,0.1,1.6,0.1,2.4,0.2c2.8,1.1,5.9,2.1,9.6,3.5
	c-6.4-1.2-11.5-1.8-14.2-2.1c0.3-0.7,0.5-1.3,0.6-1.8C100.1,60.9,100.7,60.9,101.2,61z M169.8,55.1c0.5,0.7,1,1.5,1.5,2.2
	c0.2,0.7,0.4,1.4,0.6,2.1c-0.4-0.2-0.9-0.4-1.3-0.6c-0.3-1.3-0.6-2.5-1-3.8C169.7,55.1,169.7,55.1,169.8,55.1z M180.4,57.1
	c0.1,0.4,0.3,0.8,0.4,1.3c-0.1-0.1-0.2-0.1-0.3-0.2c-0.3-0.9-0.6-1.8-0.9-2.8C179.8,55.9,180.1,56.5,180.4,57.1z M184.6,82.2
	c-0.6-0.4-1.3-0.7-2-1.1c0-1,0.1-1.9,0.1-2.9c0.2,0.1,0.5,0.2,0.7,0.3c0.4,0.8,0.8,1.6,1.1,2.3C184.5,81.3,184.6,81.7,184.6,82.2z
	 M141.2,40c0.3,0.4,0.6,0.8,0.9,1.2c0.1,0.2,0.2,0.5,0.3,0.7c-0.5-0.2-0.9-0.3-1.4-0.5c-0.2-0.5-0.5-1.1-0.8-1.6
	C140.7,39.9,140.9,40,141.2,40z M139.2,80.1c-0.3-0.1-0.6-0.2-0.9-0.4c0-0.4,0-0.7,0-1.1c0.2,0.1,0.4,0.2,0.6,0.3c1,0.7,2,1.4,3,2.2
	C141,80.7,140.1,80.4,139.2,80.1z M158.1,59.8c0.1,0.1,0.2,0.3,0.3,0.4c-0.4-0.2-0.8-0.5-1.3-0.7c0,0,0-0.1,0-0.1
	C157.5,59.6,157.8,59.7,158.1,59.8z M169.8,80.3c-0.5-0.3-1-0.7-1.5-1c0-0.6-0.1-1.3-0.2-2c0.2,0.1,0.4,0.2,0.5,0.3
	c0.4,0.7,0.7,1.3,1,1.9C169.7,79.7,169.7,80,169.8,80.3z M147.4,80c0-0.3,0-0.7,0-1c1.6,0.7,3.2,1.4,5,2.2c0,0.6,0,1.2,0,1.7
	C150.8,81.9,149.1,81,147.4,80z M167.8,78.9c-0.7-0.4-1.3-0.9-2-1.3c0-0.5,0-1,0-1.5c0.4,0.2,0.8,0.3,1.3,0.5
	c0.2,0.1,0.4,0.2,0.6,0.3c0,0.3,0.1,0.6,0.1,0.8C167.8,78.2,167.8,78.6,167.8,78.9z M142.8,77.6c-0.4-0.3-0.8-0.6-1.2-0.9
	c0.4,0.2,0.9,0.3,1.3,0.5c0,0.2,0,0.3,0,0.5C142.9,77.6,142.9,77.6,142.8,77.6z M160.5,74.2c-0.1-0.1-0.1-0.2-0.2-0.3
	c0.5,0.2,1,0.4,1.6,0.6c0,0.2,0,0.4,0.1,0.6C161.5,74.8,161,74.5,160.5,74.2z M141.8,67.1c0.1,0,0.1,0,0.2,0.1c0,0,0.1,0,0.1,0.1
	c0,0.1,0,0.1,0,0.2C142,67.3,141.9,67.2,141.8,67.1z M143.2,68.4c0-0.2,0-0.4,0-0.6c0.8,0.4,1.5,0.8,2.3,1.2
	c0.1,0.6,0.1,1.1,0.2,1.7C144.9,69.9,144.1,69.1,143.2,68.4z M150.1,60.5c0.1,0.3,0.1,0.5,0.1,0.8c-0.5-0.4-1-0.7-1.5-1.1
	c0-0.1,0-0.2,0-0.2C149.2,60.1,149.6,60.3,150.1,60.5z M147.5,72.4c-0.1-0.1-0.2-0.2-0.3-0.3c0-0.8-0.1-1.5-0.1-2.3
	c0.4,0.2,0.8,0.4,1.1,0.6c0.2,1.1,0.4,2,0.5,2.8C148.3,72.9,147.9,72.6,147.5,72.4z M140.9,58.7C140.9,58.7,140.9,58.7,140.9,58.7
	c-0.2-0.1-0.4-0.1-0.6-0.2c-0.1,0-0.2-0.1-0.3-0.1c0-0.1,0-0.2,0-0.3C140.3,58.3,140.6,58.5,140.9,58.7z M148.9,73.3
	c-0.1-0.8-0.2-1.7-0.3-2.8c0.2,0.1,0.5,0.3,0.7,0.4c0,0.7,0.1,1.1,0.1,1.1s0-0.4,0-1c0.8,0.4,1.6,0.8,2.4,1.3
	c0.1,0.8,0.1,1.5,0.2,2.2c-1-0.4-1.9-0.7-2.9-1.1C149,73.4,149,73.4,148.9,73.3z M152.6,72.7c0.6,0.3,1.1,0.6,1.7,0.9
	c0.1,1,0.2,1.7,0.2,1.8c-0.6-0.2-1.2-0.5-1.8-0.7C152.7,74.1,152.7,73.4,152.6,72.7z M155.7,64.3c-0.1-0.5-0.2-1-0.3-1.5
	c0.4,0.2,0.7,0.3,1.1,0.5c0.1,0.5,0.1,0.9,0.2,1.3C156.3,64.5,156,64.4,155.7,64.3z M138.8,57.4c0,0.2,0.1,0.3,0.1,0.5
	c-0.2-0.1-0.4-0.2-0.7-0.3c0-0.2-0.1-0.4-0.1-0.6C138.4,57.1,138.6,57.2,138.8,57.4z M154.5,75.4c0-0.1,0-0.7,0-1.8
	c0.4,0.2,0.8,0.4,1.2,0.6c0,0.3,0.1,0.7,0.1,1c0,0.2,0.1,0.4,0.1,0.7C155.4,75.8,154.9,75.6,154.5,75.4z M157.3,75.2
	C157.3,75.2,157.3,75.2,157.3,75.2c0,0.2,0,0.4,0,0.6C157.3,75.6,157.3,75.4,157.3,75.2z M167.9,68.4
	C167.9,68.4,167.9,68.4,167.9,68.4c0.1,0,0.3,0.1,0.4,0.2C168.2,68.5,168,68.5,167.9,68.4z M162.3,66.5
	C162.2,66.4,162.2,66.4,162.3,66.5C162.3,66.4,162.3,66.4,162.3,66.5C162.3,66.5,162.3,66.5,162.3,66.5z M160.7,65.9
	c-0.9-0.3-1.8-0.6-2.7-0.9c-0.1-0.4-0.2-0.8-0.2-1.2c0.9,0.4,1.9,0.8,2.8,1.2C160.6,65.4,160.7,65.7,160.7,65.9z M136.7,56
	c0.1,0.3,0.2,0.7,0.3,1c-0.1,0-0.2-0.1-0.3-0.1c-0.1-0.3-0.1-0.6-0.2-0.9C136.6,55.9,136.6,56,136.7,56z M157.4,76.3
	c0-0.3,0-0.6,0.1-1c0.7,0.4,1.4,0.8,2.1,1.2c0.1,0.4,0.1,0.8,0.2,1.2c-0.8-0.3-1.6-0.7-2.4-1C157.4,76.5,157.4,76.4,157.4,76.3z
	 M159.9,77.7c0-0.3-0.1-0.7-0.1-1.1c0.4,0.2,0.9,0.5,1.3,0.7c0.2,0.4,0.5,0.8,0.7,1.2C161.2,78.3,160.6,78,159.9,77.7z M171.4,74
	c0.4,0.1,0.8,0.3,1.2,0.4c0,0.1,0,0.2,0,0.3C172.2,74.5,171.8,74.3,171.4,74z M166,67.7c-0.2-0.1-0.4-0.1-0.6-0.2c0-0.1,0-0.2,0-0.3
	c0.2,0.1,0.4,0.2,0.5,0.2C165.9,67.6,166,67.7,166,67.7z M134,68.8c0.1,0.1,0.2,0.1,0.4,0.2c-0.4-0.1-0.8-0.2-1.1-0.3
	c0-0.1,0-0.2,0-0.3C133.5,68.6,133.7,68.7,134,68.8z M162.9,74.9c0.3,0.1,0.6,0.3,1,0.4c0,0.4,0,0.7,0.1,1.1c-0.3-0.2-0.7-0.4-1-0.6
	C163,75.5,162.9,75.2,162.9,74.9z M173.1,75c0-0.1,0-0.3,0-0.4c0.6,0.2,1.1,0.4,1.7,0.6c0,0.3,0,0.6,0.1,0.9
	C174.2,75.8,173.7,75.4,173.1,75z M170.5,67.1c-0.1-0.7-0.2-1.5-0.3-2.2c0.2,0.1,0.5,0.2,0.7,0.3c0.2,0.8,0.4,1.6,0.5,2.4
	C171.1,67.5,170.7,67.3,170.5,67.1z M167.9,65.7c-0.1,0-0.1-0.1-0.2-0.1c0-0.4-0.1-0.8-0.1-1.3C167.7,64.8,167.8,65.3,167.9,65.7z
	 M136,46.8c-0.2-0.1-0.5-0.1-0.7-0.2c-0.4-1.2-0.9-2.4-1.3-3.6c0.2,0,0.4,0.1,0.5,0.1C135,44.3,135.5,45.5,136,46.8z M143.7,78
	c-0.1,0-0.2-0.1-0.3-0.1c0-0.2,0-0.3,0-0.5c0.7,0.3,1.4,0.6,2.2,0.9c0.2,0.1,0.5,0.2,0.7,0.3c0,0.3,0,0.6,0.1,0.9
	C145.5,79,144.6,78.5,143.7,78z M163,79.1C163,79.1,163,79.1,163,79.1c0-0.3,0-0.5,0-0.7c0.4,0.2,0.7,0.4,1.1,0.6c0,0.2,0,0.4,0,0.6
	C163.7,79.4,163.4,79.2,163,79.1z M165.8,79.9c0.7,0.4,1.4,0.8,2.1,1.2c0,0.1,0,0.1,0,0.2c-0.7-0.3-1.4-0.7-2.1-1
	C165.8,80.2,165.8,80.1,165.8,79.9z M167.9,81.1c0.1,0.1,0.2,0.1,0.3,0.2c0,0.1,0,0.1,0,0.2c-0.1-0.1-0.2-0.1-0.3-0.2
	C167.9,81.3,167.9,81.2,167.9,81.1z M172.3,68.2c0-0.1,0-0.3-0.1-0.4c0.1,0.2,0.2,0.4,0.3,0.6C172.5,68.3,172.4,68.2,172.3,68.2z
	 M165.1,64.2c0-0.2,0-0.4-0.1-0.6C165.1,63.8,165.1,64,165.1,64.2C165.2,64.2,165.1,64.2,165.1,64.2z M145.4,49.3
	c-0.1,0-0.2-0.1-0.3-0.1c-0.6-0.8-1.2-1.7-1.9-2.5c-0.1-0.3-0.2-0.7-0.4-1c0.5,0.2,1,0.3,1.5,0.5C144.7,47.2,145.1,48.2,145.4,49.3z
	 M133.6,54.1c0,0,0.1,0,0.1,0c0.2,0.1,0.4,0.3,0.7,0.4c0.1,0.5,0.2,1,0.3,1.5c-0.2-0.1-0.5-0.2-0.7-0.3c-0.3-0.2-0.7-0.3-1-0.5
	c-0.6-0.3-1.2-0.6-1.8-0.8c-0.1-0.4-0.1-0.8-0.2-1.1C131.9,53.5,132.8,53.8,133.6,54.1z M137.7,78.3c0,0.4,0.1,0.8,0.1,1.1
	c-0.8-0.3-1.5-0.6-2.3-0.9c-0.6-0.3-1.2-0.7-1.8-1c0-0.3,0-0.6,0-1C135,77.1,136.3,77.7,137.7,78.3z M152.6,81.4
	c1.3,0.6,2.6,1.2,3.9,1.8c0.1,0.8,0.1,1.6,0.2,2.3c-1.3-0.8-2.7-1.7-4.1-2.5C152.6,82.5,152.6,81.9,152.6,81.4z M168.4,81.6
	c0-0.1,0-0.1,0-0.2c0.5,0.3,1,0.5,1.4,0.8c0,0,0,0,0,0C169.4,82.1,168.9,81.8,168.4,81.6z M171.7,81.6c-0.1-0.3-0.2-0.5-0.4-0.8
	c0-0.6,0-1.2,0-1.8c0.6,0.3,0.7,0.3,0-0.2c0-0.2,0-0.3,0-0.5c0.5,0.2,0.9,0.4,1.4,0.6c0.2,0.1,0.4,0.2,0.5,0.3
	c0.1,1.2,0.2,1.9,0.2,1.9s0-0.7-0.1-1.8c0.6,0.3,1.2,0.7,1.7,1c0,1.3,0.1,2.5,0.1,3.7C174.1,83.3,172.9,82.5,171.7,81.6z M177.1,77
	c0.2,0.3,0.3,0.6,0.5,1c-0.2-0.1-0.3-0.2-0.5-0.3C177.1,77.4,177.1,77.2,177.1,77z M182.4,64.5c-0.2-0.1-0.4-0.2-0.7-0.3
	c-0.3-1.7-0.6-3.4-1-5c0.1,0,0.2,0.1,0.4,0.1C181.5,61,182,62.7,182.4,64.5z M183.2,68.2c0.4,2.2,0.7,4.4,1,6.8
	c-0.2-0.1-0.3-0.1-0.5-0.2c-0.2-0.1-0.4-0.2-0.6-0.4c-0.1-0.3-0.3-0.7-0.5-1c-0.1-1.9-0.2-3.8-0.4-5.7
	C182.5,68,182.8,68.1,183.2,68.2z M180.4,72.9c-0.9-0.5-1.8-1.1-2.8-1.7c-0.2-0.9-0.3-1.8-0.5-2.8c0-0.2,0-0.3,0-0.5
	c0.4,0.1,0.7,0.3,0.9,0.4c0.8,1.5,1.6,3,2.4,4.4C180.4,72.8,180.4,72.8,180.4,72.9z M177,67.5c0-0.3,0-0.7-0.1-1
	c0.3,0.5,0.5,0.9,0.8,1.4C177.5,67.8,177.2,67.6,177,67.5z M173.9,68.5c-0.4-0.8-0.8-1.6-1.2-2.4c0.3,0.1,0.5,0.2,0.8,0.3
	C173.7,67.1,173.8,67.8,173.9,68.5z M164.3,54.4c0.2,0.6,0.4,1.3,0.6,2c0,0-0.1,0-0.1,0c-0.2-0.7-0.4-1.4-0.6-2.1
	C164.2,54.3,164.2,54.4,164.3,54.4z M162.3,62.6c-0.1-0.1-0.2-0.1-0.3-0.2c-0.2-0.4-0.4-0.8-0.7-1.2c0.2,0.1,0.5,0.2,0.7,0.3
	C162.2,61.9,162.3,62.2,162.3,62.6z M132.1,67.9c0,0.2,0.1,0.4,0.1,0.6c-0.5-0.1-1-0.2-1.5-0.4c0-0.3,0-0.6,0-1
	C131.1,67.4,131.6,67.7,132.1,67.9z M133.2,76.4c0,0.3,0.1,0.6,0.1,0.9c-1.9-1.1-3.8-2-5.6-2.9c0,0,0-0.1,0-0.1
	C129.4,74.8,131.3,75.5,133.2,76.4z M157.7,86.2c0-0.8,0-1.6,0-2.4c1.1,0.6,2.3,1.1,3.5,1.7c0.4,0.3,0.9,0.6,1.3,0.9
	c0,0.6,0,1.2,0,1.8c-1-0.2-1.9-0.5-2.9-0.7C158.9,87,158.3,86.6,157.7,86.2z M162.8,86.6c0.5,0.3,0.9,0.6,1.4,0.9c0,0.4,0,0.7,0,1.1
	c-0.5-0.1-1-0.2-1.4-0.4C162.7,87.7,162.8,87.1,162.8,86.6z M165.4,88.4c0.5,0.3,0.9,0.6,1.4,0.9c-0.5-0.1-1-0.3-1.4-0.4
	C165.4,88.7,165.4,88.5,165.4,88.4z M177,80.8c0.5,0.2,0.9,0.4,1.4,0.6c0,0.2,0.1,0.3,0.1,0.5c-0.1-0.1-0.2-0.2-0.4-0.3
	C177.7,81.4,177.3,81.1,177,80.8C177,80.8,177,80.8,177,80.8z M178.7,78.6c-0.1-0.7-0.2-1.3-0.3-2c0.8,0.3,1.7,0.6,2.5,1
	c0.1,0.8,0.2,1.6,0.2,2.3c0,0.1,0,0.3,0,0.4C180.4,79.8,179.5,79.2,178.7,78.6z M187.7,76.7c-0.2-1.9-0.5-3.7-0.9-5.6
	c0-0.4-0.1-0.9-0.1-1.3c0.9,0.4,1.8,0.8,2.7,1.2c0.5,2.3,0.9,4.6,1.2,7.1C189.7,77.6,188.7,77.1,187.7,76.7z M186.4,66.6
	c-0.2-1.9-0.6-3.8-1-5.7c0.8,0.2,0.8,0.2-0.1-0.3c-0.5-2.2-1.1-4.3-1.9-6.2c1.8,3.6,3.8,8.1,5.2,13.4
	C187.9,67.4,187.2,67,186.4,66.6z M179.4,66.7c0,0,0-0.1-0.1-0.1c0,0,0,0,0,0C179.3,66.6,179.4,66.7,179.4,66.7z M173.3,65.4
	c-0.4-0.2-0.9-0.5-1.3-0.8c-0.1-0.2-0.2-0.5-0.3-0.7c0-0.2-0.1-0.4-0.1-0.5c0.5,0.2,1,0.4,1.5,0.6C173.1,64.4,173.2,64.9,173.3,65.4
	z M151.2,51.2c-0.2-0.6-0.3-1.2-0.5-1.8c0.6,0.7,1.1,1.5,1.7,2.2C152.1,51.5,151.7,51.4,151.2,51.2z M130.5,67.1
	c0,0.4,0.1,0.7,0.1,1c-0.7-0.2-1.4-0.3-2.1-0.5c-0.3-0.2-0.6-0.3-0.9-0.5c0-0.5,0-0.9-0.1-1.4C128.5,66.1,129.4,66.6,130.5,67.1z
	 M127.2,74C127.2,74.1,127.2,74.1,127.2,74c-0.2,0-0.4-0.1-0.6-0.2C126.8,73.9,127,74,127.2,74z M170.1,90.1c0,0.1,0,0.1,0,0.2
	c-0.2-0.1-0.3-0.3-0.5-0.4C169.8,89.9,170,90,170.1,90.1z M174.6,89.1c0,0.1,0.1,0.2,0.1,0.3c-0.7-0.4-1.3-0.8-2-1.2
	C173.3,88.5,173.9,88.8,174.6,89.1z M175.2,89.3c0,0.1,0,0.1,0,0.2c0-0.1-0.1-0.2-0.1-0.3C175.1,89.3,175.1,89.3,175.2,89.3z
	 M176.7,85.1c0-0.1,0-0.2,0-0.4c0.1-1,0.2-2.2,0.3-3.4c0.7,0.4,1.2,0.6,1.5,0.8c0.3,1.8,0.5,3.4,0.7,4.8
	C178.4,86.3,177.5,85.7,176.7,85.1z M181.2,82.9c0,0.9,0,1.7,0,2.6c-0.3-0.8-0.7-1.9-1.3-3.3C180.3,82.4,180.8,82.6,181.2,82.9z
	 M187,80.9c0.2,1,0.3,2,0.4,2.9c-0.2-0.1-0.3-0.2-0.5-0.3C187,82.7,187,81.8,187,80.9z M188.1,80.3c1,0.4,1.9,0.7,2.8,1.1
	c0,0.5,0.1,1,0.1,1.5c0,1,0.1,2,0.1,2.9c-0.8-0.5-1.7-1-2.7-1.5C188.4,83.1,188.2,81.7,188.1,80.3z M178.4,62.4c0,0.1,0,0.1,0,0.2
	c-0.6-0.3-1.1-0.5-1.7-0.8c-0.2-0.3-0.3-0.6-0.5-0.9c-0.2-1.2-0.4-2.4-0.7-3.6c0.5,0.2,1,0.4,1.5,0.6
	C177.6,59.3,178.1,60.8,178.4,62.4z M168.8,57.7c0,0.1,0.1,0.3,0.1,0.4c-0.1,0-0.2-0.1-0.2-0.1c-0.3-1.1-0.6-2.2-1-3.3
	c0-0.1-0.1-0.3-0.2-0.4c0,0,0.1,0,0.1,0C168.1,55.4,168.5,56.6,168.8,57.7z M156.6,53.2c-0.1-0.2-0.3-0.4-0.4-0.7
	c0-0.1-0.1-0.3-0.1-0.4C156.2,52.4,156.4,52.8,156.6,53.2C156.6,53.2,156.6,53.2,156.6,53.2z M126.6,66.6c-0.6-0.3-1.2-0.7-1.8-1
	c0-0.3,0-0.6,0-1c0.5,0.2,1.1,0.5,1.7,0.7C126.5,65.7,126.5,66.1,126.6,66.6z M103.5,67.9c0.3,0.1,0.6,0.1,0.9,0.2
	c1,0.2,2,0.4,3,0.5c0.1,0,0.2,0.1,0.3,0.1c1.8,0.5,3.6,1,5.6,1.4c0.6,0.4,1.5,0.9,2.5,1.5c0.7,0.4,1.5,0.7,2.2,1
	c-7.2-2-12.6-3.1-14.8-3.5C103.4,68.7,103.5,68.3,103.5,67.9z M121.1,79c1.6,0.6,3.2,1.4,5,2.2c-2-0.2-3.9-0.3-5.6-0.4
	c-3-1.7-5.4-2.9-6.9-3.6C115.9,77.8,118.4,78.4,121.1,79z M176.4,90c1.1,0.5,2.2,1.1,3.3,1.6c0,0.3,0.1,0.6,0.1,0.8
	c-1.1-0.7-2.2-1.4-3.4-2.1C176.4,90.2,176.4,90.1,176.4,90z M179.8,92.4c0-0.2,0-0.5,0-0.8c0.4,0.2,0.8,0.4,1.2,0.6
	c0,0.3,0,0.6,0,0.9C180.6,92.9,180.2,92.7,179.8,92.4z M180.2,87.6c-0.2-0.1-0.4-0.3-0.6-0.4c-0.1-1.6-0.3-3.4-0.5-5.5
	c0.2,0.1,0.3,0.2,0.5,0.3c0.7,1.6,1.3,2.8,1.7,3.6c0,0.9,0,1.7,0,2.5C180.8,87.9,180.5,87.8,180.2,87.6z M191.1,86.9
	c0,0.1,0,0.3,0,0.4c-0.5-0.3-1-0.7-1.5-1.1C190.1,86.5,190.6,86.7,191.1,86.9z M175.4,53.4c0.4,0.9,0.8,1.9,1.2,2.9
	c-0.5-0.2-0.9-0.5-1.4-0.7c-0.5-1.9-1.1-3.7-1.9-5.4C174.1,51.3,174.8,52.3,175.4,53.4z M157.4,44.9c0.4,1,0.7,1.9,1.1,3
	c-0.2-0.1-0.4-0.2-0.6-0.2c-0.5-1.4-1-2.7-1.6-4C156.7,44.1,157,44.5,157.4,44.9z M159.6,51.4c0.3,1,0.6,2.1,0.9,3.2
	c-0.2-0.1-0.5-0.2-0.7-0.3c-0.3-1.1-0.5-2.1-0.8-3.2C159.2,51.3,159.4,51.4,159.6,51.4z M129.4,41.9c0.2,0.1,0.5,0.1,0.7,0.2
	c0.5,1.2,1.1,2.5,1.6,3.8c-0.9-0.2-1.8-0.4-2.7-0.5c-0.4-1.3-0.8-2.6-1.3-3.8C128.3,41.6,128.9,41.7,129.4,41.9z M127.9,52.3
	c0.1,0.2,0.1,0.5,0.2,0.7c-0.7-0.3-1.4-0.6-2-0.8c0-0.1,0-0.3-0.1-0.4C126.6,51.9,127.3,52.1,127.9,52.3z M124.8,65.5
	c-2.6-1.4-5.1-2.7-7.5-3.8c0.1,0,0.3,0,0.4,0c2.1,0.7,4.4,1.6,7,2.7C124.7,64.9,124.7,65.3,124.8,65.5z M102.8,70.5
	c0,0.1,0.1,0.1,0.2,0.2c-0.1,0-0.1,0-0.2,0C102.8,70.6,102.8,70.6,102.8,70.5z M104.8,74.7C104.8,74.7,104.7,74.7,104.8,74.7
	C104.7,74.7,104.7,74.7,104.8,74.7C104.7,74.7,104.8,74.7,104.8,74.7z M107.9,75.8c1.4,0.4,2.7,0.8,4.2,1.1c0.2,0.6,0.8,1.8,3.8,3.7
	c0.1,0.1,0.2,0.1,0.3,0.2c-0.2,0-0.3,0-0.5,0c-1.1-0.4-2.1-0.8-3.1-1.1c-0.6-1-1.4-1.1-1.4-1.1s-0.1,0.2-0.2,0.5
	c-0.3-0.3-0.5-0.3-0.5-0.3s0,0.1-0.1,0.2c-1-0.3-2-0.6-2.8-0.9C107.8,77.1,107.9,76.4,107.9,75.8z M181.7,93.6c0-0.3,0.1-0.7,0.1-1
	c0.8,0.4,1.6,0.8,2.4,1.2c0,0.4-0.1,0.8-0.1,1.2c-0.1,0-0.2-0.1-0.3-0.1C183.1,94.5,182.4,94.1,181.7,93.6z M182.2,88.7
	c0.1-1.7,0.3-3.4,0.3-5.1c0.7,0.4,1.4,0.8,2.1,1.1c0,0.1,0,0.2,0,0.4c0,1.7-0.1,3.3-0.1,4.9C183.7,89.5,182.9,89.1,182.2,88.7z
	 M192.5,87.5c0.5,0.2,1,0.4,1.4,0.6c0,0.4,0,0.8-0.1,1.2c-0.5-0.3-0.9-0.7-1.4-1C192.4,88,192.5,87.8,192.5,87.5z M192.5,86.7
	c0.1-1.5,0.1-3.1,0.1-4.6c0.5,0.2,1,0.4,1.4,0.6c0,1.7,0,3.3-0.1,4.8C193.5,87.2,193,87,192.5,86.7z M194.9,86.2c0,0.6,0,1.2,0,1.9
	c-0.1,0-0.1-0.1-0.2-0.1C194.7,87.3,194.8,86.8,194.9,86.2z M193.8,75.7c0.1,1.4,0.1,2.7,0.2,4c-0.5-0.2-1-0.5-1.5-0.7
	c-0.1-2.4-0.3-4.7-0.6-7c0.5,0.2,0.9,0.4,1.4,0.6c0.2,0.8,0.3,1.7,0.5,2.5C193.8,75.3,193.8,75.5,193.8,75.7z M198.1,62
	c1.1,3.1,2.1,6.6,2.8,10.7c-0.2-0.4-0.5-0.9-0.8-1.5c-0.7-4-1.7-7.8-3.1-11.2C197.4,60.6,197.7,61.3,198.1,62z M195.9,63.3
	c-1.3-2.3-2.8-4.9-4.5-7.6c-0.2-0.5-0.4-0.9-0.7-1.4c0.3,0.1,0.6,0.2,0.9,0.3C193.1,57.2,194.6,60.1,195.9,63.3z M193.9,63.2
	c0-0.1-0.1-0.3-0.1-0.4c0.2,0.5,0.4,0.9,0.6,1.3C194.3,63.8,194.1,63.5,193.9,63.2z M194.7,64.7c-0.3-0.7-0.7-2-1.3-3.5
	c-0.1-0.3-0.2-0.6-0.3-0.9c1.4,2.1,2.6,4,3.7,5.7c0.7,2,1.2,4,1.7,6.2C197.4,69.8,196.1,67.2,194.7,64.7z M196.2,71.7
	c0.1,0.2,0.2,0.4,0.3,0.6c-0.1,0-0.1-0.1-0.2-0.1C196.2,71.9,196.2,71.8,196.2,71.7z M200.2,71.6c0.3,0.5,0.5,0.9,0.7,1.3
	c0.1,0.7,0.2,1.4,0.3,2.1c-0.2-0.1-0.4-0.2-0.6-0.4C200.5,73.6,200.3,72.6,200.2,71.6z M189,51.1c-0.2-0.3-0.3-0.5-0.5-0.8
	c-0.2-0.4-0.3-0.7-0.5-1.1c0.5,0.6,1,1.3,1.5,2.1C189.4,51.2,189.2,51.2,189,51.1z M190.6,62.4c0.8,2.4,1.5,4.9,2.1,7.7
	c-0.4-0.2-0.8-0.5-1.3-0.7c-0.3-1.7-0.7-3.4-1.2-5c-0.6-1.9-1.4-4-2.3-6.1c0.8,1.1,1.5,2.2,2.2,3.3
	C190.3,61.9,190.5,62.1,190.6,62.4z M153.5,42.9c0.7,1.2,1.3,2.5,2,3.8c-0.1,0-0.2-0.1-0.3-0.1c-0.3-0.5-0.7-1-1-1.5
	c-0.3-0.8-0.6-1.5-0.9-2.2C153.4,42.9,153.4,42.9,153.5,42.9z M124.6,33.3c-0.3,0-0.6-0.1-0.9-0.1c-0.2-0.4-0.4-0.7-0.6-1.1
	C123.5,32.5,124,32.9,124.6,33.3z M124.1,51.2c0,0.1,0,0.1,0,0.2c-0.2-0.1-0.4-0.1-0.5-0.2c0-0.1,0-0.1,0-0.2
	C123.8,51.1,124,51.2,124.1,51.2z M96.4,67.2c0.4-0.6,0.8-1.2,1.1-1.8c0.4,0.4,1,0.8,1.8,1.2c-1.8,2.8-4.8,7.5-8.2,13.8
	c1.4-4.3,2.7-7.7,3.7-10.9C95.4,68.7,95.9,67.9,96.4,67.2z M96.1,87c0.3-1.3,0.4-2.4,0.4-3.2c1-2.1,2-4,2.8-6c0-0.1,0.1-0.2,0.1-0.3
	c0.6-1,1.2-2,1.7-3.1c0.3-0.5,0.5-1,0.7-1.4c0.3,0.3,0.7,0.6,1.2,0.9c-1.2,2.1-4.2,7.8-7.6,15.8C95.7,88.7,95.9,87.9,96.1,87z
	 M185.4,95.6c0-0.4,0.1-0.7,0.1-1.1c1.1,0.5,2.1,1.1,3.1,1.6c0,0.3,0,0.5,0,0.8C187.6,96.4,186.5,96,185.4,95.6z M186.4,91.1
	c0.1-1.4,0.3-3.1,0.4-5.2c0.1,0,0.1,0.1,0.2,0.1c0.3,0.7,0.7,1.4,1,2.1c0.2,1.5,0.3,2.8,0.4,4.1C187.7,91.9,187.1,91.5,186.4,91.1z
	 M192,94.4c0.1-0.8,0.1-1.6,0.2-2.4c0,1.1,0,1.7,0,1.7s0.1-1.2,0.1-3.2c0-0.5,0.1-1,0.1-1.6c0.5,0.3,1,0.5,1.4,0.8
	c-0.1,2.1-0.3,4-0.4,5.6C192.9,95,192.5,94.7,192,94.4z M196.7,74.1c0.3,0.2,0.7,0.3,1,0.4c0.6,1.2,1.2,2.3,1.8,3.4
	c0.2,1.7,0.4,3.3,0.6,4.9c-0.7-0.4-1.4-0.7-2.1-1.1C197.7,79.2,197.2,76.6,196.7,74.1z M200.7,75.9c0.2,0.1,0.4,0.2,0.6,0.3
	c0.1,1,0.2,2,0.3,3c-0.3-0.6-0.5-1.2-0.8-1.8C200.8,76.8,200.8,76.3,200.7,75.9z M172.7,41c-0.2-0.2-0.4-0.4-0.6-0.6
	c-0.1-0.1-0.2-0.2-0.2-0.3c0.2,0.1,0.3,0.3,0.5,0.4C172.4,40.7,172.6,40.8,172.7,41z M147.4,37c0,0-0.1,0-0.1,0
	c-0.1-0.1-0.2-0.3-0.3-0.4c0.1,0,0.1,0,0.2,0.1C147.2,36.7,147.3,36.9,147.4,37z M122.3,50.7C122.3,50.7,122.2,50.7,122.3,50.7
	C122.2,50.7,122.3,50.7,122.3,50.7C122.3,50.7,122.3,50.7,122.3,50.7z M134.6,87.9c1.1,0.1,2.3,0.2,3.5,0.3c0,0.8,0,1.2,0,1.2
	s0-0.4,0.1-1.2c0.2,0,0.4,0,0.6,0.1c0.8,0.5,1.6,1,2.4,1.5c1.2,0.8,2.6,1.7,3.9,2.7c-0.7-0.2-1.3-0.4-2-0.5
	C140.3,90.5,137.4,89.1,134.6,87.9z M144.7,89c0.7,0.1,1.3,0.2,2,0.3c0,0.4,0,0.8,0,1.1C146,89.9,145.3,89.5,144.7,89z M172.1,96.1
	c0.9,0.4,1.8,0.7,2.8,1.1c0,0.2,0,0.4,0,0.6C174,97.3,173.1,96.7,172.1,96.1z M188.9,96.9c0-0.2,0-0.5,0-0.7c0.7,0.3,1.4,0.7,2,1
	c0,0.2,0,0.3,0,0.5C190.2,97.5,189.6,97.2,188.9,96.9z M191.6,97.7c0.2,0.1,0.3,0.2,0.5,0.3c0.1,0.2,0.1,0.3,0.2,0.4
	c-0.2-0.1-0.5-0.2-0.7-0.3C191.6,97.9,191.6,97.8,191.6,97.7z M193.1,98.7c0-0.1,0-0.2,0-0.2c0.5,0.2,0.9,0.5,1.4,0.7
	c0,0,0,0.1,0,0.1C194.1,99.1,193.6,98.9,193.1,98.7z M193.7,95.5c0.3-1.5,0.5-3.4,0.8-5.4c0.2,0.1,0.3,0.2,0.5,0.2
	c0,2-0.1,4-0.2,5.9C194.4,95.9,194,95.7,193.7,95.5z M196.7,89.3c1,0.4,1.1,0.3,0-0.3c0.1-1.7,0.1-3.5,0.1-5.2
	c0.1,0,0.1,0.1,0.2,0.1c1,5.7,1.6,10.9,1.9,15c-0.9-0.6-1.8-1.2-2.8-1.8C196.4,94.5,196.6,91.9,196.7,89.3z M198.3,84.4
	c0.7,0.3,1.3,0.5,2,0.8c0.6,7,0.5,12.5,0.4,14.9c-0.5-0.3-0.9-0.6-1.4-0.9C199.3,95.1,199,89.9,198.3,84.4z M201.3,85.6
	c0.2,0.1,0.4,0.2,0.6,0.2c0,0.1,0,0.1,0,0.2c-0.1,5.4-0.5,10.3-0.9,14.3c-0.1,0-0.1-0.1-0.2-0.1C201.1,97.8,201.5,92.2,201.3,85.6z
	 M201.3,83.5c0-0.8-0.1-1.5-0.1-2.3c0.2,0.5,0.5,1,0.7,1.5c0,0.4,0,0.8,0,1.2C201.7,83.7,201.5,83.6,201.3,83.5z M203.4,83.1
	c0-0.1,0-0.3,0-0.4C203.4,82.8,203.4,83,203.4,83.1C203.4,83.1,203.4,83.1,203.4,83.1z M182.8,36.7c3.2,3.2,6.6,6.9,9.7,11.3
	c-0.1,0-0.1,0-0.2,0c-1.1-0.6-2.2-1.2-3.3-1.8c-1.8-2-4-4.5-6.6-7.1c-0.6-0.9-1.1-1.9-1.7-2.8C181.5,36.4,182.1,36.6,182.8,36.7z
	 M188,45.5c-0.2-0.1-0.5-0.3-0.7-0.4c-0.7-0.7-1.5-1.2-2.2-1.7c-0.3-0.6-0.6-1.1-0.9-1.7C185.5,43.1,186.8,44.4,188,45.5z
	 M125.1,44.6c-0.2,0-0.4-0.1-0.7-0.1c-0.3-1-0.6-2-0.9-3C124,42.5,124.6,43.5,125.1,44.6z M94.2,59.1c0.4,0.2,0.8,0.5,1.4,0.7
	c-0.7,0.8-1.4,1.7-2.2,2.8C93.9,61.1,94.1,60,94.2,59.1z M99.5,96.2c1.4-2.8,2.6-5.4,3.8-7.8c-0.4,1.8-1,4.7-1.6,8.5
	c-1.2,1.6-2.5,3.4-3.8,5.3C98.5,100,99,98.1,99.5,96.2z M104.1,86.8c0.7-1.6,1.4-3.1,2-4.6c0.1-0.3,0.2-0.5,0.3-0.7
	c0.7,0.3,1.5,0.7,2.4,1.1c0,0.1-0.1,0.1-0.1,0.2c-0.6,0-0.9,0-0.9,0s-0.1,0.5,0.4,1.2c-0.9,2.2-1.9,5-3.1,8.4
	c-0.1,0.1-0.2,0.3-0.4,0.5c0-0.1,0-0.2,0-0.4C105.3,88.7,104.6,87.3,104.1,86.8z M119.3,87.2C119.3,87.2,119.3,87.2,119.3,87.2
	c-0.3,0-0.7,0-1-0.1C118.6,87.1,118.9,87.1,119.3,87.2z M152.4,94.7c-1.7-1.3-3.5-2.7-5.4-4.1c0-0.4,0.1-0.9,0.1-1.3
	c0.5,0.1,0.9,0.2,1.4,0.2c2.7,1.9,5.6,4.1,8.4,6.4c0,0.1,0,0.3,0,0.4C155.4,95.8,153.9,95.3,152.4,94.7z M153.1,90.6
	c1.2,0.7,2.5,1.4,3.8,2.1c0,0.3,0,0.6,0,0.9C155.7,92.6,154.5,91.6,153.1,90.6z M175.7,98.3c0-0.3,0.1-0.5,0.1-0.8
	c1.6,0.6,3.2,1.3,4.8,1.9c-0.1,0.7-0.1,1.3-0.2,1.9C178.8,100.3,177.3,99.3,175.7,98.3z M195.8,99.8c0.1,0,0.1,0.1,0.2,0.1
	C195.9,99.9,195.9,99.9,195.8,99.8C195.8,99.8,195.8,99.8,195.8,99.8z M201.6,100.7c0.7-4.2,1.4-9.2,1.7-14.3c0.1,0,0.2,0.1,0.3,0.1
	c0.1,6.3-0.3,11.7-0.7,15C202.4,101.2,202,100.9,201.6,100.7z M204.6,88.4c0.5,1.1,0.9,2.1,1.4,3c0.5,4.9,0.7,9.3,0.8,12.8
	c-1.2-0.8-2.4-1.7-3.8-2.6C203.6,98.5,204.3,93.8,204.6,88.4z M205,87.1c0.2,0.1,0.3,0.1,0.5,0.2c0.1,0.5,0.1,1.1,0.2,1.6
	C205.5,88.3,205.2,87.7,205,87.1z M204.8,85.4c0-1,0.1-2,0.1-2.9c0.2,0.9,0.3,1.7,0.4,2.6c0,0.2,0.1,0.4,0.1,0.6
	C205.1,85.6,204.9,85.5,204.8,85.4z M204.7,72.7c0.5,1.6,0.9,3.3,1.3,5.1c-0.1-0.1-0.2-0.1-0.3-0.2
	C205.4,75.9,205.1,74.3,204.7,72.7z M160.3,34.9c0.5,0.5,1.1,1.1,1.8,2c0.1,0.1,0.1,0.2,0.2,0.3c-0.1,0-0.3-0.1-0.4-0.1
	c-1-1-1.9-1.9-2.9-2.6C159.5,34.6,159.9,34.7,160.3,34.9z M142.6,31c-0.2,0-0.4-0.1-0.6-0.1c-0.7-0.7-1.4-1.4-2.1-2
	c0.2,0,0.5,0.1,0.7,0.1C141.2,29.6,141.9,30.3,142.6,31z M119.7,42.6c-2.2-1-4.5-1.9-6.7-2.8c-1-0.5-2-0.9-3-1.3
	c2.5,0.2,5.2,0.6,8.3,1.1C118.8,40.6,119.3,41.6,119.7,42.6z M96.3,52.5c1.6,0.4,3.1,0.7,4.8,1c0.3,0.1,0.7,0.3,1.1,0.4
	c-4.7-1.1-7.6-1.6-7.6-1.6s-0.9,2,4.7,3.9c-0.2,0-0.5,0-0.7,0c0,0,0,0,0,0s0,0,0,0c-2.1,0-3.7,0-4.8,0c-0.4-0.5-0.8-0.6-0.8-0.6
	s-0.1,0.2-0.4,0.6c-0.1,0-0.2,0-0.2,0s0,0.1,0.1,0.3c-0.7,1.2-2,3.6-3.6,7c0.1-0.4,0.3-0.9,0.4-1.3c0.9-1.7,1.8-3.4,2.6-5
	c1.2-2.7,1.7-4.5,1.7-5.8C94.2,52,95.1,52.3,96.3,52.5z M79.9,101.7c1.5-7.9,3.3-14.1,5.1-19.1c0.1-0.1,0.2-0.3,0.3-0.4
	c-1,4.2-1.9,8.9-2.5,13.8c-1,2-2,4.1-3,6.2C79.8,102,79.9,101.9,79.9,101.7z M113.2,98.5c0,0.1,0,0.1,0,0.2c0,0,0,0.1-0.1,0.1
	C113.2,98.6,113.2,98.5,113.2,98.5z M114.2,89.3c0.2-2.2-1.1-2.7-1.1-2.7s-0.4,0.4-1.1,1.2c0.1-0.2,0.1-0.3,0.2-0.5
	c0.1-0.4,0.2-0.7,0.3-1.1c0.7,0.2,1.4,0.3,2.3,0.4c-0.3,0-0.4,0-0.4,0s-0.1,1.4,2.3,2.8C115.7,89.4,114.9,89.4,114.2,89.3z
	 M157.3,96.2c0.2,0.2,0.5,0.4,0.7,0.6c-0.2-0.1-0.5-0.2-0.7-0.3C157.3,96.4,157.3,96.3,157.3,96.2z M162.7,96
	c0.4,0.2,0.8,0.5,1.2,0.7c0,0.2,0,0.3,0,0.5C163.5,96.8,163.1,96.4,162.7,96z M180.6,101.5c0.1-0.6,0.2-1.2,0.3-1.9
	c0.9,0.4,1.9,0.8,2.8,1.1c-0.1,0.9-0.2,1.8-0.3,2.6C182.5,102.8,181.6,102.2,180.6,101.5z M198.3,104.7c0.3,0.1,0.6,0.3,1,0.4
	c0,0.1,0,0.1,0,0.2C199,105.1,198.7,104.9,198.3,104.7C198.3,104.8,198.3,104.8,198.3,104.7z M199.4,105.3c0-0.1,0-0.1,0-0.2
	c0.3,0.1,0.6,0.3,1,0.4c0,0.1,0,0.2,0,0.3C200,105.7,199.7,105.5,199.4,105.3z M207.2,92.9c-0.1-1.7-0.2-3.3-0.3-5.1
	c0.3,0.1,0.6,0.2,0.9,0.4c0.3,2.6,0.5,5.3,0.6,8.2C208.1,95.3,207.7,94.2,207.2,92.9z M206.9,86.5c-0.2-2.8-0.6-5.7-1.1-8.5
	c0.1,0,0.2,0.1,0.3,0.1c0.6,2.8,1.2,5.7,1.6,8.9C207.4,86.9,207.2,86.7,206.9,86.5z M198.6,51.6c-0.2-0.1-0.4-0.2-0.5-0.3
	c-0.7-0.7-1.4-1.3-2.1-1.8c-2.5-4.2-5.3-8.2-8.2-11.7c0.7,0.1,1.3,0.3,1.9,0.4C192.7,42.3,195.7,46.7,198.6,51.6z M107.1,40.9
	c-4.6-0.6-8.4-0.9-11.1-1c-1.9-0.7-3.6-1.3-4.9-1.8c2,0,4,0,6.2,0C100.2,38.8,103.4,39.7,107.1,40.9z M93.1,46.4
	C93.1,46.4,93.1,46.4,93.1,46.4c0,0.4,0.3,1.2,1.7,2C93,48.2,92,48.2,92,48.2S92,48.3,92,48.6c-1.4-0.2-2.2-0.2-2.2-0.2
	s-0.1,1,1.6,2.2c-0.1,0.2-0.2,0.4-0.4,0.6C90.8,51,90.6,51,90.6,51s-0.7,0.9-1.8,2.6c0.2-1.8-0.4-2.5-0.8-2.8c0,0,0,0,0,0
	c1.2-2.1,1.9-3.7,2.2-5C91,46,92,46.2,93.1,46.4z M65.6,92.3c1.7-4.7,3.5-8.8,5.1-12.4c-1.4,4-2.6,8.2-3.6,12.6
	c-0.1,0.4-0.2,0.8-0.2,1.2c-0.4,1.3-0.8,2.7-1.1,4c-0.3,1.2-0.6,2.3-0.8,3.5c-0.1,0.2-0.1,0.5-0.2,0.7c0.2-3.1,0.5-6.3,0.8-9.3
	C65.5,92.5,65.6,92.4,65.6,92.3z M76.2,136.6c1.4-6.9,2.9-13.4,4.4-18.6c0.5-1.6,0.9-3.1,1.4-4.5c0,0.5,0,1.1,0,1.6
	c-0.1,0.3-0.1,0.7-0.2,1c-1.3,7.5-2.1,14.2-2.5,20.2c-1.2,2.5-2.4,5.1-3.5,7.8C75.8,141.8,76,139.3,76.2,136.6z M111.5,111.2
	c0,1.2-0.1,2.5-0.1,4c-0.4,1-0.9,2-1.4,3.1c-0.2-1.4-0.3-2.8-0.4-4C110.2,113.2,110.9,112.2,111.5,111.2z M117.9,111.3
	c0.8-2.4,1.1-4.1,1-5.4c0.3,0.3,0.8,0.6,1.3,0.9C119.5,108.2,118.7,109.6,117.9,111.3z M118.1,103.2c-0.3-0.3-0.5-0.5-0.5-0.5
	s-1.6,2.7-3.9,7.5c0-0.2,0-0.4,0-0.6c0-0.7-0.1-1.4-0.2-1.9c0.8-1.3,1.5-2.6,2.2-3.9c0.4-0.8,0.7-1.5,1-2.2c1,0.5,2.2,1,3.8,1.4
	c0.5,0.2,1,0.3,1.5,0.4c-0.1,0.2-0.2,0.3-0.3,0.5C120,103.6,118.8,103.3,118.1,103.2z M129.5,97.4c-1.1-0.8-2-1.5-2.9-2.1
	c1,0.1,2,0.3,3.1,0.4c0.8,0.7,1.7,1.6,2.7,2.5C131.4,97.9,130.4,97.6,129.5,97.4z M167.7,100.9c-0.1,0-0.2-0.1-0.3-0.1c0,0,0,0,0,0
	c-0.8-0.8-1.7-1.7-2.7-2.7c0-0.3,0.1-0.5,0.1-0.8c1.7,1,3.5,2.1,5.3,3.2c0,0.5,0,0.9-0.1,1.4C169.2,101.5,168.4,101.2,167.7,100.9z
	 M190,108.1c0.2-1.1,0.5-2.6,0.7-4.3c1.1,0.5,2.2,1,3.3,1.4c-0.2,2-0.4,3.8-0.6,5.5C192.4,109.8,191.2,109,190,108.1z M210,88.2
	c-0.1-1.4-0.2-2.8-0.3-4.1c0.2,1.4,0.4,2.9,0.5,4.2C210.1,88.3,210,88.3,210,88.2z M210.9,83.2c0.4,0.9,0.6,1.5,0.6,1.5
	s-0.2-0.7-0.6-1.8c-0.2-1.9-0.4-3.9-0.8-5.8c1.3,3.9,2.3,8.2,3,12.9c-0.1-0.1-0.3-0.1-0.4-0.2c-0.4-0.2-0.9-0.5-1.4-0.7
	C211.3,87.1,211.1,85.1,210.9,83.2z M205.4,58.3c0.3,0.2,0.6,0.4,0.9,0.6c0.1,0.1,0.1,0.2,0.2,0.3c-0.3-0.1-0.5-0.2-0.8-0.4
	C205.5,58.6,205.5,58.5,205.4,58.3z M189.2,30.8c-0.1-0.1-0.1-0.1-0.2-0.2c-3.2-4-7.2-8.4-11.3-12.5c6.4,4.9,14,11.9,21.4,21.2
	c-0.9-0.3-1.9-0.7-2.9-1C194,35.9,191.7,33.4,189.2,30.8z M183.7,30.6c1.3,1.5,2.6,3.1,3.8,4.7c-0.9-0.3-1.8-0.6-2.7-0.9
	c-4.4-5.7-9.3-11-14.4-14.7c-0.9-0.6-1.8-1.3-2.8-1.9c0.6,0.3,1.3,0.6,1.9,1C174,21.8,178.9,25.8,183.7,30.6z M178.2,40.5
	c-0.3-0.2-0.6-0.3-1-0.5c-2-1.9-4.3-4-6.8-6c0.7,0.1,1.4,0.3,2.1,0.4C174.4,36.3,176.3,38.3,178.2,40.5z M105,23.9
	c0.2,0.1,0.3,0.2,0.5,0.4c-9.5,0.8-17.1,2.1-21.2,3c0-0.2,0-0.4,0-0.5c2.5-1.1,5.8-2.3,9.6-3.7C96.9,22.9,100.5,23.2,105,23.9z
	 M115,30.1c0.1,0.1,0.2,0.2,0.3,0.3c0.1,0.1,0.1,0.2,0.2,0.3C115.3,30.5,115.1,30.3,115,30.1C114.9,30.1,114.9,30.1,115,30.1z
	 M79.5,49.5c-1.9,2.5-4.5,6.1-7.3,10.7c1.5-4.2,3.1-7.6,4.5-10.6c1.7-2,3.3-3.8,4.7-5.7C80.9,45.5,80.2,47.3,79.5,49.5z M74.1,147
	c0,0.3,0,0.5,0.1,0.8c-0.1,0.2-0.2,0.4-0.3,0.7c0-0.1,0-0.3,0-0.4C74,147.7,74.1,147.4,74.1,147z M87.1,132.5
	c0.1,5.3,0.3,10.1,0.7,14.4c-0.3,1.1-0.6,2.2-0.9,3.4c0,0.1,0,0.1-0.1,0.2c-0.1-2.7-0.3-7.5-0.5-13.3
	C86.6,135.6,86.9,134,87.1,132.5z M89.6,127.6c0.8-1.3,1.5-2.6,2.3-3.9c-0.1,3.7-0.1,7.2,0,10.5c-0.8,2.1-1.5,4.3-2.2,6.5
	C89.5,136.3,89.5,131.7,89.6,127.6z M95.2,121.1c0.1-1.1,0.2-2.1,0.3-3.1c0.9-1.4,1.8-2.7,2.7-4c-0.9,3.3-1.6,6.7-2.3,10.2
	c-0.3,0.7-0.6,1.4-0.9,2.1C95.1,124.5,95.1,122.7,95.2,121.1z M100.4,131.1c0-0.1,0-0.2,0-0.3c0.1-0.3,0.3-0.5,0.4-0.8
	c0.3,3.7,0.7,7.1,1.2,10.4c-1,3.5-2,7.1-2.8,10.8C99.5,143.8,99.8,136.7,100.4,131.1z M102.7,126.5c0.1-0.2,0.2-0.5,0.4-0.7
	c0,2.2,0.1,4.5,0.3,6.8c0.1,0.9,0.2,1.8,0.3,2.7c-0.1,0.2-0.1,0.4-0.2,0.6C103.1,132.5,102.8,129.3,102.7,126.5z M122.9,112.7
	c0.3-0.7,0.6-1.4,0.9-2.1c0.3-0.6,0.5-1.2,0.7-1.8c0.3,0.1,0.5,0.2,0.8,0.3c-0.5,1.1-1.3,2.9-2.4,5.3
	C122.9,113.8,122.9,113.2,122.9,112.7z M135,98.9c-1-1-2-2-3-2.9c1.2,0.2,2.5,0.4,3.8,0.6c1.8,1.3,3.8,2.7,5.9,4.4
	C139.4,100.2,137.1,99.5,135,98.9z M145.8,101.5c-1.6-1.4-3.2-2.7-4.8-3.9c0.2,0,0.4,0.1,0.7,0.1c2,1.7,4.2,3.6,6.5,5.7
	c-0.2-0.1-0.3-0.1-0.5-0.2C147.1,102.6,146.5,102.1,145.8,101.5z M162.9,103.7c0.2,0.1,0.4,0.1,0.5,0.2c0,0.1,0,0.2,0,0.3
	C163.2,104,163.1,103.9,162.9,103.7z M170.4,102c0-0.4,0.1-0.8,0.1-1.3c1.4,0.8,2.7,1.7,4.1,2.5c0,0.2,0,0.3,0,0.5
	c-0.7-0.3-1.5-0.7-2.3-1C171.6,102.5,171,102.2,170.4,102z M175,103.5c0.8,0.5,1.6,1,2.3,1.5c-0.8-0.4-1.6-0.7-2.4-1.1
	C175,103.8,175,103.7,175,103.5z M203.7,118.8c-2.8-2.3-6-4.9-9.6-7.7c0.3-1.7,0.6-3.6,0.9-5.5c1.5,0.6,2.9,1.3,4.3,1.9
	c0,0.3,0,0.5,0,0.5s0-0.2,0-0.5c0.2,0.1,0.4,0.2,0.7,0.3c-0.4,2.3-0.7,3.7-0.7,3.7s0.3-1.3,0.8-3.6c2.4,1.1,4.7,2,6.6,2.9
	c0,1.9-0.1,3-0.1,3s0.1-1.1,0.2-2.9c0.5,0.2,1,0.4,1.5,0.6c-0.1,3.7-0.4,7.1-0.6,9.9C206.5,120.5,205.2,119.7,203.7,118.8z
	 M207.1,109.6c0-0.4,0.1-0.9,0.1-1.4c0.5,0.2,0.9,0.4,1.4,0.6c0,0.6,0,1.1,0,1.6C208,110.2,207.5,109.9,207.1,109.6z M209.6,109.2
	c1.7,0.7,3.3,1.3,4.8,1.9c0,0.9,0,1.8,0,2.6c-0.2-0.1-0.4-0.2-0.6-0.3c-1.3-0.7-2.7-1.5-4.3-2.4
	C209.5,110.4,209.6,109.8,209.6,109.2z M210.9,107.1c0.2-2.7,0.7-9.5,0.4-17.4c0.8,0.3,1.4,0.5,1.9,0.7c0.2,1.6,0.4,3.3,0.6,5.1
	c0.4,4.8,0.6,9.4,0.6,13.5C213.3,108.3,212.1,107.7,210.9,107.1z M215,89c0.1,0.5,0.1,0.9,0.2,1.4c1.1,7.7,1.5,14.7,1.6,19.8
	c-0.5-0.3-1-0.5-1.5-0.8C215.7,103.1,215.7,95.9,215,89z M218.1,90.1c0,0.5,0.1,1,0.1,1.4c-0.6-2-1.3-4-2-6.1
	c-0.7-5-1.9-9.8-3.6-13.9c-1.6-3.8-3.9-8.4-6.6-12c0.3,0.1,0.6,0.2,0.8,0.3c3.2,4.9,8.7,15.1,11.1,29.2
	C218,89.3,218,89.7,218.1,90.1z M151.5,9.6c-0.3,0-0.5-0.1-0.8-0.1c-1.1-0.3-2.2-0.4-3.1-0.4c0.3,0,0.6-0.1,0.8-0.1
	C149.3,9.2,150.3,9.4,151.5,9.6z M166.8,29.4c-1.3-0.3-2.7-0.6-4.1-1c-2.5-1.6-4.9-2.9-7.2-3.8c-2.2-2-4.4-3.8-6.7-5.2
	c-0.8-0.5-1.6-1-2.5-1.5c3.1,0.9,6.5,2.2,10,3.8C159.6,23.9,163.2,26.4,166.8,29.4z M79.8,24.3c1.9-0.1,3.8-0.4,5.9-0.7
	c-3.4,1.4-5.9,2.5-7.4,3.2c0.8-1,1.1-1.8,1.2-2.5C79.6,24.3,79.7,24.3,79.8,24.3z M111.5,29.9c0.8,0.9,1.6,1.8,2.3,2.7
	c-8.1-0.3-15.1,0-20.1,0.3c-2.3-0.6-4.1-1.1-5.4-1.4C93.9,30.7,100.6,29.5,111.5,29.9z M86.6,37.8c0.2,0.7,1,2,4.5,3.4
	c0.1,0,0.2,0.1,0.3,0.1c-0.7,0-1,0-1,0s0,0.1,0,0.3c-0.2,0-0.4,0-0.6,0c-0.1-0.2-0.2-0.2-0.2-0.2s-0.1,0.1-0.2,0.2
	c-0.5,0-0.7,0-0.7,0s-0.1,0.2,0,0.5c-1.9,0-3,0-3,0s0,0.8,1.1,1.7c-0.2,0.2-0.6,0.7-1.2,1.5c-0.2-0.2-0.3-0.2-0.3-0.2
	s-0.3,0.3-0.8,0.9c0-0.1,0.1-0.2,0.1-0.4c1.2-4.1,0.6-5.6,0-6.2c0.4-0.7,0.7-1.4,1-2C85.8,37.7,86.1,37.7,86.6,37.8z M165.5,106.2
	c-0.5-0.5-1.1-1-1.7-1.6c0-0.2,0-0.3,0.1-0.5c1.2,0.4,2.5,0.9,3.8,1.4c0.6,0.2,1.3,0.5,2,0.8c-0.1,1.2-0.2,2.2-0.2,2.9
	C168.2,108.2,166.9,107.2,165.5,106.2z M208.3,121.6c0.4-2.8,0.8-6.1,1.1-9.8c2.3,1,4,1.8,5,2.1c-0.1,5.2-0.4,9.2-0.6,11.2
	C212,124,210.2,122.9,208.3,121.6z M215,114.2C215.1,114.2,215.1,114.2,215,114.2c0.1-0.9,0.1-1.8,0.2-2.7c0.6,0.2,1.1,0.4,1.6,0.7
	c0,4-0.1,6.4-0.1,6.4s0.2-2.4,0.4-6.3c0.3,0.1,0.7,0.3,1,0.4c-0.2,2.1-0.3,3.4-0.3,3.4s0.2-1.2,0.5-3.3c0.3,0.1,0.5,0.2,0.8,0.3
	c-0.2,6.5-0.7,11.8-1.1,15c-1.3-0.9-2.7-1.9-4.2-2.8C214.1,123.2,214.6,119.2,215,114.2z M218.6,111.1c0.2-1.8,0.5-4,0.7-6.5
	c0,2.4,0,4.6,0,6.8C219,111.3,218.8,111.2,218.6,111.1z M220.8,101.8c2.6,7.5,3.9,12.1,3.9,12.1s-1.3-5.6-3.9-14.1
	c0-7.3-0.6-14.8-2.5-21.1c-0.1-0.2-0.1-0.4-0.2-0.6c-0.4-2-1-3.8-1.6-5.6c-1.2-3.1-2.9-6.8-4.9-10c0.5,0.4,1,0.7,1.6,1.1
	c3.1,4.4,11.1,17.6,11.8,36.8c0.2,5.2,0.1,10-0.2,14.1c-1.4-0.8-2.9-1.6-4.6-2.5C220.5,108.8,220.7,105.3,220.8,101.8z M226,90.8
	c1.4,5.8,2.4,12.6,2.3,20.1c0,1.9-0.1,3.7-0.2,5.5c-0.2-0.1-0.4-0.2-0.6-0.3c-0.7-0.3-1.3-0.7-2-1.1C226.3,107.9,226.9,99,226,90.8z
	 M218.5,67.6c0.1,0.1,0.2,0.1,0.2,0.2c1.2,1.6,2.5,3.6,3.8,6c-1-1.9-2.2-3.5-3.4-4.7C219,68.6,218.8,68.1,218.5,67.6z M220.3,66.4
	c-1.2-1.3-2.3-2.3-3.5-2.9c-3.4-7.5-7.3-15.1-11.6-22c0.1,0,0.1,0-0.1-0.1c-3-4.8-6.3-9.2-9.8-12.9c-3.8-4.1-8.7-8.7-13.7-12.6
	c0.3,0.2,0.6,0.3,0.9,0.5c3.7,2.5,7.6,5.5,11.5,9.2c0.2,0.2,0.3,0.3,0.5,0.5c10,11.6,15.7,22.5,15.7,22.5s-2.9-6.3-7.6-13.9
	c0.9,1.1,1.8,2.3,2.7,3.5c12.1,16.3,18.9,30.9,18.9,30.9s-9.1-22.1-22.3-39c0.1,0.1,0.3,0.3,0.4,0.4c6.2,7.3,12.5,16.4,17.9,27.4
	c2.2,4.5,4.2,8.9,6,13.1C224.2,69.5,222.2,67.9,220.3,66.4z M232.8,8.3c-1.5-1-2.9-1.8-4.2-2.3c0.3,0,0.7,0.1,1,0.1
	c1.1,0.7,2.4,1.6,3.9,2.7C233.3,8.6,233.1,8.4,232.8,8.3z M135.8,11.3c-0.4,0.1-0.8,0.3-1.2,0.5c0,0,0.3,0.1,0.9,0.2
	c-0.3,0.2-0.6,0.3-0.9,0.5c0,0,1.7,0.1,4.5,0.6c0.4,0.2,0.9,0.3,1.4,0.5c-1.4-0.3-2.9-0.4-4.2-0.5c-1.2-0.5-2.5-0.9-3.7-1.2
	C133.6,11.8,134.7,11.5,135.8,11.3z M129.3,14.3c-0.4,0.2-0.8,0.5-1.2,0.8c0,0,1.5-0.1,4.2,0.2c4.7,1.7,10.3,4.3,16.1,8.1
	c-0.6,0.1-1.2,0.2-1.8,0.5c0,0,2.1,0.8,5.5,2.5c-2.6-0.5-5.2-0.9-8-1.3c-3.7-2.3-7.3-4.1-10.5-4.7c-5.2-2.8-10.1-4.2-13.1-2.5
	c0,0,2.2,0.7,5.9,2.4c-1.6-0.4-3.1-0.7-4.8-1.1c-0.6-0.1-1.3-0.3-1.9-0.4c-2.3-1-4.5-1.8-6.5-2.1c4.1-1.1,8.4-2.3,13.1-3.4
	C127.2,13.6,128.2,13.9,129.3,14.3z M32.6,78.6c5.6-9.1,12.7-20.3,18.1-26.9c12-14.8,19.7-17.9,25.4-22.7c0.3-0.2,0.5-0.5,0.8-0.7
	l0.4,0.8c-0.6,0.2-0.9,0.2-0.9,0.2s0.1,0.3,0.4,0.8C69.8,35.9,48.2,54.6,32.6,78.6z M80.5,33.7c0.6-0.6,1-1.2,1.4-1.7
	c0.6,0,1.3,0,2.1,0c0.7,0,1.4-0.1,2.2-0.2c0.1,0.2,0.2,0.4,0.4,0.6c-1.1-0.2-1.8-0.3-1.8-0.3s-0.2,0.4,0.2,1.1
	c-0.3,0.2-0.7,0.7-1.3,1.3c-1.5,0.1-2.4,0.3-2.4,0.3s0.1,0.6,0.8,1.4c-0.1,0.1-0.3,0.3-0.4,0.4c-0.2-0.3-0.4-0.4-0.5-0.5
	c-0.3-1.4-1.2-1.5-1.2-1.5s-0.4,0.6-1,1.8c-0.1-0.3-0.2-0.6-0.3-0.8C79.3,34.9,79.9,34.3,80.5,33.7z M60.4,108.8c0,2.5,0,4.9,0,7.1
	c-0.2,0.5-0.4,1-0.6,1.5c-2.2,5.4-4,10.5-5.6,15.3C56,125.1,58.1,116.6,60.4,108.8z M72.3,108c0-0.1,0.1-0.1,0.1-0.2
	c0.3,3,0.6,5.8,0.9,8.4c0,0.7-0.1,1.4-0.1,2.1c-1.1,3.1-2.1,6.3-3,9.5c-1.5,5.4-2.8,10.6-3.8,15.5C67.9,133,70,119.3,72.3,108z
	 M64.5,177.1c1.6-8.6,3.5-18.7,5.7-28.4c-0.7,5.2-1.2,10-1.5,14.3C67.1,168,65.7,172.7,64.5,177.1z M108,148.5
	c1.4-4.6,2.8-8.7,4.2-12.3c0,0.1,0.1,0.3,0.1,0.4c-1.3,5.3-2.6,11.1-3.5,17.1C108.6,152,108.3,150.3,108,148.5z M122.6,158.9
	c1.8-6.9,3.6-11.7,4.8-16.6c0.4-1.8,0.6-3.2,0.7-4.3c1.5-2.9,2.8-5.5,4-8c0.1-0.2,0.1-0.4,0.2-0.5c0.8,0.5,1.7,1,2.9,1.6
	c0.1,0,0.1,0.1,0.2,0.1c-0.1,0.1-0.1,0.3-0.2,0.5c-1.4-0.6-2.3-0.9-2.3-0.9s-0.8,1.1,1.3,3.1c-2.3,5.6-6.6,16.9-9.8,30.8
	C124,163,123.3,161.1,122.6,158.9z M145.5,153.9c0.2,0.1,0.4,0.2,0.6,0.3c0,0.4,0,0.9,0.3,1.6c-0.1-0.1-0.2-0.1-0.2-0.1
	s-0.6,1.6,3.7,5c0,0,0,0,0,0c-2.1-1.4-3.8-2.5-5.1-3.3c0,0,0,0,0,0c0.2-1.6,0.3-2.9,0.2-3.9C145.2,153.7,145.4,153.8,145.5,153.9z
	 M174.2,226.8c-7-12.7-8.9-21-10.3-27.5c2.9,4.4,6.3,10,10.2,17.8c3.5,7.2,7.9,17.9,11.7,27.5C181.3,238.3,177,231.9,174.2,226.8z
	 M178.9,221.2c-0.5-1.2-1.1-2.4-1.6-3.7c-4.7-10.2-10.4-19.2-15.3-26c-1.1-3.2-2.5-4.3-3.4-4.6c-0.2-0.3-0.5-0.6-0.7-0.9
	c-0.2-2.3-0.3-4.5-0.6-6.5c3.3,4.1,7.4,9.6,12.4,19.7C172.5,204.9,175.9,213.5,178.9,221.2z M178.4,182.2c1.5,1.8,3.1,3.8,4.7,6.1
	c-2.2-2.6-4.5-5.2-7-8c-1.2-1.3-2.3-2.5-3.5-3.6c-0.3-0.6-0.7-1.1-1-1.7c-0.3-0.5-0.6-0.9-0.9-1.4
	C173.1,176.1,175.6,178.8,178.4,182.2z M170.1,164.5c0.4,0.4,0.9,0.9,1.3,1.4c-2-1.5-4.1-3-6-4.3c-4-3.3-7.7-5.9-10.5-7.7
	c-1.1-1.1-2.1-2.1-3-3c3,1.9,6.3,3.6,10.6,6.2C164.7,159.1,167.2,161.5,170.1,164.5z M163.4,144.4c-2.7-1.8-5.3-3.4-7.8-4.9
	c2.1,1.1,4.4,2.3,6.9,3.7C162.8,143.6,163.1,144,163.4,144.4z M156.7,136.1c-0.3-0.2-0.6-0.3-0.9-0.5
	C156.1,135.8,156.4,135.9,156.7,136.1C156.7,136,156.7,136.1,156.7,136.1z M159.6,133.2c-1.6-0.8-3.2-1.5-4.7-2.2
	c-1.5-1.6-3-3.2-4.4-4.7c1.8,0.7,3.7,1.5,5.9,2.4C157.6,130.6,158.7,132.1,159.6,133.2z M158.8,116.8c-4.8-2.7-9.6-5.1-14.1-7.1
	c-0.1-0.1-0.2-0.2-0.3-0.3c3.3,1.1,6.9,2.3,10.9,4C156.5,114.5,157.7,115.7,158.8,116.8z M173.6,112.4c-1.3-1.1-2.7-2.1-4.1-3.2
	c0.1-0.7,0.2-1.6,0.4-2.8c0.2,0.1,0.3,0.1,0.5,0.2c1.3,1.1,2.5,2,3.6,2.9C173.8,110.7,173.7,111.7,173.6,112.4z M174,108.7
	c-0.4-0.4-0.8-0.8-1.2-1.1c0.4,0.2,0.8,0.4,1.3,0.5C174.1,108.3,174.1,108.5,174,108.7z M217.7,130.7c0,0-0.1,0-0.1-0.1
	c-1.5-1-3.2-2.2-5.2-3.5c1.9,1,3.7,2,5.4,2.8C217.8,130.2,217.7,130.4,217.7,130.7z M218.2,128.2c0.6-3.2,1.4-8.5,1.9-14.7
	c1.8,0.7,3.3,1.4,4.6,1.9c-0.5,7.8-1.3,12.9-1.3,12.9s1.1-5.3,2-12.7c1.2,0.5,2.1,0.8,2.7,1c-0.3,6.9-1,12.9-1.6,17.3
	C224.1,132.3,221.4,130.4,218.2,128.2z M228.7,90.9c-0.1-0.3-0.1-0.6-0.2-0.8c-1.1-4.5-3-10.1-5.3-14.7
	C225.4,79.5,227.5,84.7,228.7,90.9z M222.8,74.4c0,0.1,0.1,0.1,0.1,0.2C222.9,74.5,222.9,74.4,222.8,74.4z M240,83.1
	c-3.6-3.4-7.3-6.6-10.9-9.7c-3.2-9-7.3-18.8-12-27.8c2.9,3.3,4.5,5.4,4.5,5.4s-2.1-3-5.6-7.3c-2.4-4.4-5-8.5-7.7-12.2
	c6.4,7.2,10,12.8,10,12.8s-14.8-25.1-31.6-34.5c0.7,0.3,1.5,0.7,2.3,1.1c6.2,4,13.5,10,19.9,18.8c9.5,12.9,15,24.5,15,24.5
	s-6.4-15.5-15.9-28.5c9.2,10.9,14.4,20.9,14.4,20.9S218,36.8,211,27c5.6,6.5,11.2,14.7,16.1,24.6C233.1,64,237.3,75.4,240,83.1z
	 M214.7,22.7c4.3,4.3,7.9,8.4,10.8,11.8c0.7,1.1,1.4,2.1,2.1,3.3c1.6,2.6,3,5.1,4.3,7.6C227.1,37.8,221.2,29.5,214.7,22.7z
	 M231.4,33.4c2,2.5,4,5.3,5.9,8.2C235.5,38.9,233.6,36.2,231.4,33.4z M222.2,18.3c-0.3-0.3-0.7-0.6-1-1c1.4,1.2,2.9,2.4,4.3,3.8
	c0.3,0.3,0.6,0.6,0.9,1c0.6,0.7,1.2,1.3,1.8,2C226.4,22.2,224.3,20.2,222.2,18.3z M268.9,11.8c2.7,1.5,6.1,3.6,9.7,6.3
	c-2.6-1.9-5.1-3.4-7.4-4.2c-1.2-0.9-2.4-1.7-3.5-2.4C268.1,11.6,268.5,11.7,268.9,11.8z M296.9,36.7c-0.1-0.2-0.3-0.4-0.4-0.5
	c-4.2-5.4-10-11.8-15.8-16.5C285.9,23.9,291.6,29.5,296.9,36.7z M279.4,18.7c0.1,0.1,0.1,0.1,0.2,0.2
	C279.6,18.8,279.5,18.7,279.4,18.7z"/>
</svg>
