<?xml version="1.0" encoding="utf-8"?>
<!-- Generator: Adobe Illustrator 18.1.1, SVG Export Plug-In . SVG Version: 6.00 Build 0)  -->
<svg version="1.1" id="Layer_1" xmlns="http://www.w3.org/2000/svg" xmlns:xlink="http://www.w3.org/1999/xlink" x="0px" y="0px"
	 viewBox="226.1 337 158.5 117.2" enable-background="new 226.1 337 158.5 117.2" xml:space="preserve">
<g>
	<radialGradient id="SVGID_1_" cx="305.3685" cy="385.4861" r="65.7043" gradientUnits="userSpaceOnUse">
		<stop  offset="0.5071" style="stop-color:#E3B6BF"/>
		<stop  offset="1" style="stop-color:#1B0C75"/>
	</radialGradient>
	<path fill="url(#SVGID_1_)" d="M363.4,339.8c2.1,0.6,4.3,1.3,6.5,2.3c8.5,3.8,14.7,8,14.7,8s-11-8.4-21.1-11.6l0-0.1
		c-0.1,0-0.2,0-0.3,0c-1.2-0.4-2.4-0.7-3.5-0.9c-4.1-0.7-10.1-1.1-12.6,0.4c-2,0-4,0.1-6,0.2c-2.2-0.1-4.4,0-6.1,0.4
		c-0.3,0-0.6,0-0.8,0.1c-11.8,1.1-22.6,3.3-32.4,6.2c-0.8,0.1-1.4,0.3-2,0.6c-2.5,0.8-5,1.6-7.3,2.5c-0.4,0.1-0.7,0.2-1.1,0.4
		c-1.8,0.7-3.5,1.4-5.2,2.1c-1.3,0.2-2.4,0.7-3.1,1.3c-1.4,0.6-2.8,1.2-4.1,1.9c-0.9,0.2-1.7,0.6-2.3,1.1c-4.2,2.1-8,4.2-11.6,6.4
		c-0.4,0.1-0.8,0.3-1.1,0.5c-0.4-4.1-1.2-7.2-1.2-7.2s0.6,3.2,0.6,7.6c-0.2,0.2-0.4,0.3-0.5,0.5c-0.5,0.3-0.9,0.6-1.4,0.9
		c-0.2-2.4-0.5-4.1-0.5-4.1s0.2,1.7,0.2,4.3c-0.5,0.3-0.9,0.6-1.4,0.9c0.1-0.8,0.1-1.2,0.1-1.2s0,0.5-0.2,1.3
		c-0.5,0.4-1.1,0.7-1.6,1.1c0.1-5-0.6-9.4-0.6-9.4s0.5,4.5-0.2,10c-0.9,0.7-1.9,1.3-2.7,2c0.8-5.6,0.2-11.1,0.2-11.1
		s0.1,2.6-0.3,6.2c0,0,0-0.1,0-0.1s-0.2,2.2-1.3,5.1c0.2-2.8,0-4.9,0-4.9s0.1,2.8-0.9,6.4c-0.6,0.4-1.2,0.8-1.5,1.3
		c-0.1,0.1-0.2,0.2-0.3,0.2c1.4-6.6-0.1-14.7-0.1-14.7s0.5,4.1-0.2,9.2c0-0.1,0-0.2,0-0.2s0,0.2,0,0.4c-0.1,1-0.3,2-0.5,3
		c-0.3,1.2-0.6,2.4-1.1,3.4c0.7-2.8,0.6-5.2,0.6-5.2s-0.3,3.2-2.1,6.7c-0.3,0.3-0.6,0.5-0.9,0.8c-0.6,0.3-1,0.7-1.3,1.1
		c-0.5,0.4-0.9,0.8-1.4,1.2c-0.3,0.2-0.5,0.4-0.7,0.6c-0.6,0.5-1.2,1.1-1.7,1.6c-0.7,0.2-1.4,0.3-2.1,0.4c3.9-3.6,2.8-11.3,2.8-11.3
		s0.2,3.9-1.9,7.7c-1,1.8-2.7,3-4.5,3.9c-0.5,0-0.8,0-0.8,0c0.1,0.1,0.3,0.1,0.4,0.2c-1.8,0.7-3.6,1.1-5.2,1.3
		c-0.8-0.2-1.7-0.2-2.5-0.1c0,0,0.3,0.1,0.8,0.2c-1.1,0.1-1.8,0-1.8,0c1.2,0.5,2.5,0.7,3.9,0.7c0.9,0.4,2,0.9,3.1,1.5
		c-1.4-0.4-2.8-0.6-4.1-0.3c0,0,2.5,0.6,5.5,2.1c-1.8,1.9-3,3.4-3.5,4.1c-2.1-1.3-3.5-2.7-3.5-2.7c0.5,1.6,1.7,2.8,3.1,3.8
		c-0.2,0.3-0.4,0.5-0.6,0.8c0,0,0.4-0.2,1-0.5c0.1,0.1,0.2,0.1,0.3,0.2c0,0.1-0.1,0.2-0.1,0.3c0,0,0.1-0.1,0.3-0.2
		c1,0.6,2,1,2.8,1.2c2.1,0.6,4.4-0.1,6.3-1.1c0,0,0,0,0,0c2.1,4.8,2,8.9,2,8.9s0.6-4.8-1-9.3c0.8,1,1.6,2.1,2.2,3.3
		c2.7,5.4,3.2,10.1,3.2,10.1s-0.1-8.7-4.3-14.3c0.2-0.1,0.3-0.2,0.5-0.4c1.4,1.5,2.7,3.2,3.5,5.2c2.3,5.5,2.3,10.1,2.3,10.1
		s0.5-5.1-1.1-10.2c0.6,1.5,1.2,3.1,1.5,4.9c1.5,7.4,0.9,13.6,0.9,13.6s1.8-12.1-1.6-20.3c0.6,0.9,1.2,1.8,1.7,2.9
		c0.3,0.5,0.5,1.1,0.7,1.6c1.6,5.2,1.6,9.4,1.6,9.4s0.2-2.3-0.1-5.3c1.1,3.4,1.3,5.9,1.3,5.9s0,0,0-0.1c0.5,4,0.4,6.8,0.4,6.8
		s1.3-15.2-4.1-23.3c-0.4-0.5-0.8-1.1-1.2-1.7c0,0,0,0,0,0c0.5,0.1,1,0.3,1.4,0.5c0.3,0.3,0.6,0.6,0.9,0.9c2,2.8,3.8,6.5,4.7,11
		c0.2,1.4,0.2,2.2,0.2,2.2s0-0.3,0-0.8c1.2,7.3,0.7,13,0.7,13s1.2-8.8-0.3-16.8c2.1,5.6,2.5,10,2.5,10s-0.5-11.2-5.3-18.2
		c0,0,0.1,0,0.1,0.1c1.3,1.6,2.4,3.5,3.1,5.6c2,5.8,2,10.7,2,10.7s0.5-6-1.2-11.6c0.7,1.6,1.3,3.4,1.7,5.4
		c1.3,6.9,0.8,12.7,0.8,12.7s1.4-9.6-0.7-17.1c1.2,2.5,2.2,5.4,2.6,8.8c0.9,7.8-0.1,14.1-0.1,14.1s2-9.6,0.7-17.8
		c1.3,4.4,1.7,7.6,1.7,7.6s-0.5-11.4-5.3-18.4c0.1,0.1,0.3,0.1,0.4,0.2c0.3,0.3,0.7,0.6,1.1,1c0.8,1.2,1.5,2.6,2,4.1
		c2,5.8,2,10.7,2,10.7s0.4-4.9-0.8-10c0.7,1.5,1.3,3.2,1.7,5.1c1.2,6.4,0.7,11.7,0.7,11.7s1.3-7.7-0.2-14.3c0.2,0.3,0.4,0.7,0.5,1.1
		c1.2,4.5,1.4,7.9,1.4,7.9s0.1-2-0.2-4.9c0.5,1.5,0.8,3.1,1,4.8c0.9,7.7-0.1,13.9-0.1,13.9s1.4-6.6,1.1-13.5
		c0.1-0.6,0.3-2.3,0.4-4.5c1.1,3.8,1.4,6.6,1.4,6.6s-0.2-4.3-1.4-9.2c-0.1-1.5-0.3-3.1-0.6-4.7c1.4,2.3,2.7,5.3,3.1,8.9
		c0.7,6.1,0,11,0,11s2-9.7-0.1-16.5c-0.4-2.2-1.1-4.4-2.1-6.5c0.2,0.1,0.3,0.2,0.5,0.3c1.8,3.9,3.3,9.1,3.2,15.5
		c-0.1,9.9-2,17.8-2,17.8s4.2-14.2,3-25.2c0.7,2.6,1.2,5,1.4,6.8c0,1.4-0.1,2.3-0.1,2.3s0.1-0.5,0.2-1.4c0.2,1.8,0.3,2.9,0.3,2.9
		s0.1-1.8-0.1-4.5c0.1-1.6,0.1-3.6,0-5.9c0.5,1.9,0.9,4,1,6.2c0.5,9-0.9,16.3-0.9,16.3s4.5-17.2,0.3-27.2c-0.1-0.4-0.3-0.7-0.5-1.1
		c0.4,0.8,0.8,1.6,1.1,2.5c2.2,6.1,2.4,11.3,2.4,11.3s0.4-11.1-4.3-17.6c0.4,0.2,0.7,0.5,1,0.7c2.2,3.8,4.4,9.3,4.4,16.3
		c0,9.2-1.8,16.5-1.8,16.5s5.4-17.3,1.8-27.6c-1-2.8-2.7-6.4-4.8-8.7c1.5,0.9,2.7,1.8,3.7,2.5c2.3,3.2,5.2,8.8,5.2,16.3
		c0,8.1-1.7,14.6-1.7,14.6s4.9-15.3,1.8-24.3c-0.2-0.4-0.3-0.9-0.5-1.4c0.2,0.3,0.3,0.5,0.5,0.8c1.4,3.6,2.5,8.2,2.1,13.6
		c-0.6,9-2.9,16.1-2.9,16.1s4.1-10.5,4.3-20c1.2,6.5,1,11.6,1,11.6s1.2-11.7-2.1-19.8c-0.6-1.8-1.4-3.8-2.5-5.6
		c2.4,2.7,6.4,8.3,6.4,16.4c0,7.5-1.6,13.5-1.6,13.5s4.8-14.2,1.5-22.6c-0.6-1.6-1.5-3.4-2.7-5.1c1,1.2,2,2.5,2.9,4.1
		c0.7,1.8,1.4,3.8,1.8,6.1c0,0.1,0,0.2,0,0.3c0.2,6.6-1.2,12-1.2,12s1-3,1.7-6.9c0,0.6,0,1.3-0.1,1.9c-0.6,8.9-2.9,15.9-2.9,15.9
		s4-10.3,4.3-19.6c1.3,6.9,1.1,12.4,1.1,12.4s1.3-12.3-2.3-20.7c-0.2-1.1-0.5-2.1-0.9-3c-0.7-1.6-1.9-3.7-3.4-5.2
		c2.7,2.5,6.3,7,7.3,13.2c1.1,6.8,0.4,12.4,0.4,12.4s2.5-12.7-1.5-20.2c0.2,0.3,0.4,0.6,0.6,0.9c1.3,2.9,2.3,6.9,2,11.6
		c-0.5,7-2.3,12.6-2.3,12.6s2.8-7.2,3.3-14.2c0.1,6.2-1.2,11-1.2,11s1.9-5.5,2.2-11.3c0.1,0.4,0.2,0.8,0.2,1.3
		c1.1,7.7,0.3,14,0.3,14s2.1-11.6-0.4-20.1c1.2,3.2,2,7.2,2,11.7c-0.1,9.3-1.9,16.7-1.9,16.7s3.9-12.8,2.9-23
		c0.9,6.6,0.2,11.8,0.2,11.8s1.6-8.1,0.3-15.3c1,2.6,1.8,5.5,2,8.9c0.5,8.5-0.9,15.3-0.9,15.3s2.6-9.8,1.8-18.6
		c0,0.2,0.1,0.5,0.1,0.7c1.1,7.6,0.3,13.8,0.3,13.8s2.7-14.7-1.7-22.9c-1.6-3.1-4.7-7.3-7.7-8.2c-0.2-0.2-0.5-0.4-0.7-0.6
		c0.2,0,0.4,0,0.6,0c1,0.7,2.3,1,3.7,1.1c0.2,0.2,0.3,0.4,0.5,0.5c-0.7-0.4-1.4-0.6-2.1-0.6c0,0,8.2,5.9,8.9,16.7
		c0.5,7-0.7,12.8-0.7,12.8s3.8-13.5,0.1-21.3c-1.1-2.3-3-5.3-5.2-6.9c2.5,1.2,6.3,0.7,8.8-0.1c7.5-2.3,14.3-14.7,14.3-14.7
		s-3.1,4.9-8.2,9.3c-6.3,5.5-13.4,4.7-15.8,4.2c0.8,0,1.6-0.1,2.5-0.2c1.9,0.1,3.9-0.2,5.4-0.6c8.2-2,16.5-14.3,16.5-14.3
		s-3.8,4.9-9.5,9.2c-1.1,0.8-2.2,1.5-3.3,2c6.8-5.2,12.5-15,12.5-15s-3.8,5.9-9.9,11.2c-1.9,1.7-3.9,2.9-5.8,3.8
		c5.8-3.8,10.5-11,10.5-11s-3.4,4.5-8.8,8.4c-1,0.7-1.9,1.2-2.9,1.7c8.3-5.6,15.6-19.5,15.6-19.5s-3.9,6.6-10.2,13c-2,2-4,3.6-6,4.8
		c6.7-4.1,12.5-12.6,12.5-12.6s-3.8,4.9-9.7,9.3c-0.3,0.2-0.6,0.4-0.9,0.6c3-3.9,5.2-8.4,6-10.1c1.1,1.2,1.7,1.8,1.7,1.8
		s-0.6-0.8-1.7-2c0.2-0.4,0.3-0.6,0.3-0.6s-0.1,0.2-0.3,0.6c-2.3-2.6-6.7-7.5-11.9-11.8c0-0.4,0-0.7,0-1.1c5.7,3.1,9.4,5.8,9.4,5.8
		s-4-3.2-9.4-6.5c0-0.5,0-1,0-1.3c4.1,2.7,6.7,4.8,6.7,4.8s-2.7-2.5-6.7-5.4c0-0.1,0-0.2,0-0.2s0,0.1,0,0.2
		c-4.2-3.1-9.9-6.6-15.2-7.8c0.4,0.1,0.9,0.1,1.4,0.2c3.9,1.2,8.6,3.2,13.4,6.8c7,5.3,11.6,10.6,11.6,10.6s-5.7-7.1-12.7-12.5
		c6.5,4.3,10.7,8.8,10.7,8.8s-4.5-5.2-10.4-9.6c0.5,0.2,1,0.5,1.5,0.7c8.7,4.7,14.8,9.7,14.8,9.7s-10.7-9.7-21.1-14
		c4.1,1.5,8.7,3.6,13.4,6.9c9.6,6.7,16.2,13.3,16.2,13.3s-10.8-11.9-22.1-18.5c7.4,4,12.4,8.2,12.4,8.2s-7.5-6.9-15.8-11.1
		c3.3,1.1,6.9,2.6,10.5,4.9c9.1,5.6,15.4,11.5,15.4,11.5s-8.5-8.8-18.1-14.5c0.3,0.1,0.5,0.3,0.8,0.4c8.6,4.6,14.5,9.6,14.5,9.6
		s-13.6-12.4-24.9-15.1c-2.7-0.6-6.3-1.2-9.2-1.1c0.3-0.1,0.6-0.2,0.9-0.3c3.5,0.2,10.8,1,19,5.1c0.2,0.1,0.4,0.2,0.6,0.4
		c7.6,4.6,12.8,9.6,12.8,9.6s-2-2.1-5.1-4.9c7.7,5.5,12.7,10.7,12.7,10.7s-13.6-15.3-25.9-19.7c-0.1,0-0.2-0.1-0.3-0.1
		c-1.1-0.5-2.3-0.9-3.4-1.2c-1.9-0.5-4.2-1-6.5-1.2c0.4-0.1,0.8-0.3,1.2-0.4c3.7,0.1,12.9,1.1,22.3,7.5c7.9,5.4,13.2,10.9,13.2,10.9
		s-8.4-9.6-17.6-15c3.4,1.4,7.1,3.4,10.8,6.2c8.5,6.4,14,12.8,14,12.8s-7.9-10-17.1-16.5c5.9,3.9,9.6,7.6,9.6,7.6
		s-11.4-12.2-21.7-15c0,0-0.1,0-0.1,0c0.5,0,1,0.1,1.6,0.2c3.9,0.9,8.5,2.5,13.1,5.6c7.4,5,12.3,10.1,12.3,10.1s-6.7-7.8-14.5-12.8
		c3.5,1.4,7.2,3.4,10.9,6.2c8.3,6.3,13.8,12.6,13.8,12.6s-12.1-15.4-23.9-20.2c-3.2-1.3-7.6-2.6-11.1-2.9c-1.3-0.3-2.7-0.5-4-0.6
		c1.1-0.3,2.2-0.5,3.3-0.8c3.2,0.1,12.2,1,20.7,7.5c6.9,5.3,11.4,10.6,11.4,10.6s-7-9.4-15.1-14.6c1.8,1,3.7,2.1,5.6,3.6
		c6.6,5,10.9,10,10.9,10s-9.7-12.2-18.9-16.1c-1.5-0.6-3.3-1.3-5.1-1.7c3.3,0.2,7.5,0.8,11.9,2.5c2.1,1,4.2,2.2,6.3,3.8
		c6.8,5.2,11.2,10.4,11.2,10.4s-1.6-2.1-4.1-4.9c3.1,3,4.8,5.3,4.8,5.3s-9-14-19.9-17.3c-0.8-0.2-1.7-0.5-2.6-0.7
		c-1.2-0.4-2.4-0.7-3.7-0.9c0.7-0.1,1.5-0.2,2.2-0.3c2.9,0.2,9.3,1.2,15.4,5.9c5.4,4.1,8.9,8.3,8.9,8.3s-7.7-10.2-15.4-13.3
		c-1.2-0.5-2.8-1-4.3-1.3c4.2,0,10.5,0.8,15.7,4.8c5.8,4.3,9.2,9.1,9.2,9.1s-7-11.8-16.2-14.3c3.8,0.4,8.4,1.5,13.1,4
		c7.9,4.1,13.4,8.7,13.4,8.7s-10.7-9.9-20.7-13c4.8,0,9.8,0.1,14.9,0.5L363.4,339.8z M281.6,389.8c-0.5-0.4-1.1-0.9-1.8-1.4
		c0,0,0.1,0,0.1-0.1c1,0.4,2.1,0.3,3.1-0.1c0.4,0.3,0.9,0.6,1.3,0.9C283.4,389.4,282.5,389.6,281.6,389.8z M233.7,388.9
		c0.1-0.1,0.2-0.3,0.4-0.4c0.7-0.3,1.7-0.7,3-1.1c0.1,0.1,0.2,0.1,0.3,0.2c-0.6,0.2-1.2,0.4-1.7,0.6
		C235,388.4,234.3,388.7,233.7,388.9z M286.2,352.1c0.1,0,0.1-0.1,0.2-0.1c0.4,0,0.9,0.1,1.4,0.1c-0.1,0-0.3,0-0.4,0
		C287,352.1,286.6,352.1,286.2,352.1z M296.6,397c-0.1-0.1-0.2-0.2-0.2-0.3c-0.6-0.7-1.2-1.3-1.8-1.6c-0.5-0.3-0.9-0.6-1.4-0.7
		c0,0,0,0,0,0c0.3,0,0.7,0,1-0.1c0.2,0.1,0.4,0.3,0.6,0.5c0,0,0,0,0,0C294.7,394.8,295.5,395.6,296.6,397z M290.4,358.7
		c0,0.1,0,0.3,0,0.6c-0.1,0-0.2-0.1-0.3-0.1c-0.7-0.2-1.6-0.5-2.4-0.7c0-0.1,0-0.2,0-0.2s0,0.1,0,0.2c-0.8-0.2-1.6-0.4-2.4-0.6
		c-0.4-0.1-0.9-0.2-1.3-0.3c1.6,0.1,3.4,0.3,5.3,0.7C289.6,358.4,290,358.5,290.4,358.7z M285.2,385.1c-0.2-0.2-0.5-0.4-0.7-0.6
		c0.1-0.1,0.2-0.3,0.3-0.4c0.4-0.5,0.7-1,1.1-1.5c0.4,0.3,0.8,0.5,1.3,0.8C286.5,384,285.8,384.6,285.2,385.1z M297.8,371
		c-1.2-1-2.5-2-3.8-3c0-0.4,0.1-0.8,0.1-1.2c1.3,0.8,2.7,1.7,4,2.7C298,370,297.9,370.5,297.8,371z M297.3,388
		c-0.6,0.4-1.3,0.8-1.9,1.1c-0.1-0.1-0.2-0.1-0.2-0.2c0.9-0.6,1.6-1.3,2.2-1.9c0.3-0.3,0.6-0.6,0.8-1c0.2,0.2,0.4,0.3,0.5,0.5
		C298.3,387.1,297.8,387.6,297.3,388z M281.3,382.1C281.3,382.1,281.2,382.1,281.3,382.1c0.2-0.3,0.4-0.6,0.6-1c0,0,0.1,0,0.1,0
		s0,0-0.1-0.1c0.2-0.2,0.3-0.4,0.4-0.7c0,0,0,0,0,0c0.1,0,0.1,0.1,0.2,0.1c-0.3,0.4-0.6,0.8-1,1.2
		C281.5,381.9,281.4,382,281.3,382.1z M259.5,367c0.1,0,0.1,0,0.2,0c0,0,0,0,0,0c-0.1,0-0.2,0-0.3,0c0,0,0,0,0-0.1
		C259.4,367,259.5,367,259.5,367z M287.5,374.7c-0.3-0.2-0.6-0.5-0.9-0.7c0.1-0.3,0.2-0.6,0.2-0.7c0.3,0.2,0.7,0.4,1,0.6
		c0,0.1-0.1,0.2-0.1,0.4C287.7,374.4,287.6,374.6,287.5,374.7C287.6,374.7,287.6,374.7,287.5,374.7z M277.5,382.5
		C277.5,382.5,277.5,382.5,277.5,382.5c0.1-0.1,0.2-0.2,0.3-0.3c0,0,0,0,0,0C277.8,382.3,277.6,382.4,277.5,382.5z M262.1,384.9
		c-0.1,0-0.2-0.1-0.3-0.1c0.8-0.3,1.6-0.6,2.4-1c0.1,0,0.1,0,0.2,0.1C263.5,384.2,262.8,384.6,262.1,384.9z M285.6,368.8
		c-0.1,0.3-0.2,0.6-0.3,0.9c-0.9-0.5-1.8-0.9-2.7-1.4c0.1-0.3,0.1-0.6,0.1-0.8C283.7,367.9,284.7,368.3,285.6,368.8z M284.5,372.5
		c-0.3-0.2-0.6-0.4-0.8-0.6c0-0.1,0.1-0.2,0.1-0.3c0.3,0.1,0.6,0.3,0.9,0.4C284.6,372.2,284.5,372.4,284.5,372.5z M285.6,372.6
		c0.4,0.2,0.8,0.4,1.2,0.7c-0.1,0.2-0.2,0.4-0.3,0.7c-0.3-0.3-0.7-0.5-1.1-0.8C285.5,373,285.5,372.8,285.6,372.6z M283.5,371.5
		c0,0,0,0.1-0.1,0.1C283.5,371.6,283.5,371.6,283.5,371.5C283.5,371.5,283.5,371.5,283.5,371.5z M283.3,371.7
		c-0.4-0.3-0.8-0.5-1.2-0.8c0,0,0-0.1,0-0.1c0.4,0.2,0.8,0.4,1.3,0.6C283.4,371.6,283.4,371.6,283.3,371.7z M269.7,381.5
		c0,0-0.1-0.1-0.1-0.1c0.1-0.2,0.3-0.4,0.4-0.7c0.1,0,0.2,0.1,0.3,0.1C270.1,381.1,269.9,381.3,269.7,381.5z M266.7,368.3
		c0.2,0,0.3,0.1,0.5,0.1c0,0.1,0,0.2,0,0.3c-0.5-0.1-1-0.2-1.5-0.3c0-0.1,0-0.1,0-0.2C266,368.2,266.4,368.2,266.7,368.3z
		 M272,378.4c-0.3-0.2-0.7-0.4-1-0.6c0-0.2,0.1-0.3,0.1-0.5c0,0,0.1,0,0.1-0.1c0.4,0.1,0.8,0.3,1.1,0.5c0,0,0,0,0,0
		C272.2,378,272.1,378.2,272,378.4z M265,372.6c0,0.1,0,0.1,0,0.2c-0.3-0.1-0.5-0.1-0.8-0.2c0,0,0,0,0-0.1
		C264.5,372.5,264.7,372.5,265,372.6z M271.4,374.6c0-0.2,0-0.5,0-0.7c0.1,0,0.2,0.1,0.3,0.1c0.1,0,0.2,0.1,0.3,0.1
		C271.9,374.3,271.7,374.5,271.4,374.6C271.5,374.6,271.4,374.6,271.4,374.6z M270.6,373.7c-0.1,0.2-0.2,0.5-0.3,0.7
		c-0.4-0.1-0.8-0.2-1.1-0.2c-0.2-0.1-0.4-0.2-0.6-0.2c0-0.2,0.1-0.5,0.1-0.7C269.3,373.3,269.9,373.5,270.6,373.7z M265.1,376.1
		c0,0.1-0.1,0.1-0.1,0.2C265,376.2,265,376.1,265.1,376.1C265.1,376.1,265.1,376.1,265.1,376.1z M266.3,377.3
		c0.1-0.2,0.2-0.5,0.3-0.7c0,0,0.1,0,0.1,0C266.5,376.9,266.4,377.1,266.3,377.3C266.3,377.3,266.3,377.3,266.3,377.3z M264.1,375.8
		c-0.1,0.2-0.2,0.5-0.3,0.7c-0.3-0.1-0.6-0.2-0.9-0.3c0.1-0.2,0.2-0.5,0.3-0.7C263.5,375.6,263.8,375.7,264.1,375.8z M267.7,377.1
		c0.1,0,0.2,0.1,0.2,0.1c-0.1,0.1-0.2,0.1-0.4,0.2C267.7,377.3,267.7,377.2,267.7,377.1z M268,376.3C268,376.2,268,376.2,268,376.3
		c0.4,0,0.7,0.1,1.1,0.2c-0.1,0.1-0.2,0.1-0.3,0.2C268.5,376.5,268.3,376.4,268,376.3z M268,373c-0.1,0.2-0.1,0.4-0.2,0.6
		c-0.1,0-0.2-0.1-0.3-0.1c0-0.2,0.1-0.4,0.1-0.6C267.7,373,267.8,373,268,373z M266.4,373.2c-0.3-0.1-0.5-0.2-0.8-0.2
		c0-0.1,0-0.2,0-0.3c0.3,0,0.6,0.1,0.9,0.1C266.5,372.9,266.4,373,266.4,373.2z M260.7,375c-0.1,0.1-0.1,0.2-0.2,0.3
		C260.5,375.2,260.6,375.1,260.7,375C260.6,375,260.6,375,260.7,375z M254.7,379C254.6,379,254.6,379,254.7,379
		c-0.1,0.1-0.1,0-0.2,0c0,0,0,0,0.1-0.1C254.6,379,254.6,379,254.7,379z M260.4,380.3c0.1-0.1,0.2-0.2,0.3-0.3
		c0.2,0.1,0.5,0.1,0.7,0.2c-0.1,0.1-0.3,0.2-0.4,0.3C260.7,380.4,260.5,380.4,260.4,380.3z M266.4,379.9c0-0.1,0.1-0.2,0.1-0.2
		c0,0,0,0,0.1,0c0.1,0,0.1,0,0.2,0.1c-0.1,0.1-0.2,0.2-0.3,0.3C266.5,379.9,266.5,379.9,266.4,379.9z M273.1,372.9
		c-0.4-0.2-0.8-0.4-1.3-0.6c0-0.1,0-0.2,0.1-0.2c0.5,0.1,1.1,0.2,1.6,0.4C273.4,372.6,273.2,372.8,273.1,372.9z M271.3,369.9
		c0-0.1,0-0.2,0-0.3c0.2,0.1,0.4,0.1,0.6,0.2c0,0.1-0.1,0.2-0.1,0.3C271.7,370.1,271.5,370,271.3,369.9z M259.1,375
		c-0.1,0.1-0.1,0.2-0.2,0.3c0,0,0,0-0.1,0c0-0.1,0.1-0.2,0.1-0.3C259,375,259,375,259.1,375z M257.7,375.1c0,0-0.1,0-0.1,0
		C257.6,375.1,257.6,375.1,257.7,375.1C257.7,375.1,257.7,375.1,257.7,375.1z M264,380.1c0,0,0.1,0,0.1,0c0,0-0.1,0.1-0.1,0.1
		c0,0-0.1,0-0.1-0.1C264,380.2,264,380.1,264,380.1z M272.2,370.3c0-0.1,0-0.2,0.1-0.3c0.7,0.2,1.3,0.5,2,0.7c0,0.1,0,0.3-0.1,0.4
		C273.6,370.8,272.9,370.5,272.2,370.3z M271,369.8c-0.7-0.2-1.3-0.4-2-0.6c0-0.1,0-0.2,0-0.3c0.6,0.2,1.3,0.4,2,0.6
		C271,369.6,271,369.7,271,369.8z M268.8,369.1c-0.3-0.1-0.6-0.2-0.9-0.2c0-0.1,0-0.2,0-0.3c0.3,0.1,0.6,0.2,1,0.3
		C268.8,368.9,268.8,369,268.8,369.1z M268.6,370.3C268.6,370.3,268.6,370.3,268.6,370.3c-0.3,0-0.5,0-0.8,0c0,0,0-0.1,0-0.1
		C268.1,370.2,268.3,370.3,268.6,370.3z M257.2,375c0-0.1,0.1-0.2,0.1-0.2c0,0,0.1,0,0.1,0C257.3,374.9,257.2,375,257.2,375z
		 M262.7,381.1C262.8,381.1,262.8,381.1,262.7,381.1c0.1-0.1,0.3-0.2,0.4-0.3c0.1,0,0.1,0,0.2,0.1c-0.1,0.1-0.2,0.2-0.4,0.3
		C262.9,381.2,262.8,381.2,262.7,381.1z M270.6,379.1c0.1-0.2,0.1-0.4,0.2-0.7c0.3,0.1,0.6,0.3,0.9,0.4c-0.1,0.2-0.2,0.4-0.3,0.6
		C271.1,379.3,270.9,379.2,270.6,379.1z M272.1,376.5C272.1,376.5,272.1,376.5,272.1,376.5c0.1-0.1,0.1-0.1,0.1-0.1
		c0.2,0,0.4,0.1,0.6,0.2c0,0.1-0.1,0.2-0.1,0.2C272.5,376.7,272.3,376.6,272.1,376.5z M274.1,375.4c0-0.2,0.1-0.4,0.1-0.6
		c0.7,0.3,1.5,0.5,2.1,0.8c0.1,0,0.1,0.1,0.2,0.1c-0.1,0.2-0.2,0.4-0.2,0.6C275.5,375.9,274.8,375.6,274.1,375.4z M276.3,374.8
		c-0.6-0.4-1.2-0.7-1.8-1.1c0.2-0.3,0.4-0.6,0.5-0.9c0.7,0.2,1.5,0.5,2.2,0.8c-0.2,0.5-0.3,0.9-0.5,1.4
		C276.6,374.9,276.4,374.8,276.3,374.8z M274.6,370.8C274.6,370.8,274.6,370.8,274.6,370.8C274.6,370.8,274.6,370.8,274.6,370.8
		C274.6,370.8,274.6,370.8,274.6,370.8z M267,370c0,0.1,0,0.2,0,0.2c-0.1,0-0.1,0-0.2,0c-0.4-0.1-0.7-0.2-1.1-0.3c0,0,0-0.1,0-0.1
		C266.2,369.9,266.6,370,267,370z M265.5,369.9c-0.2,0-0.4-0.1-0.6-0.1c0,0,0,0,0,0C265,369.8,265.2,369.8,265.5,369.9
		C265.5,369.8,265.5,369.9,265.5,369.9z M261.5,373.4c0,0,0,0.1-0.1,0.1c0,0,0,0,0,0c-0.2,0-0.3,0-0.5,0c0,0,0-0.1,0-0.1
		C261.1,373.4,261.3,373.4,261.5,373.4z M266.2,382.5C266.2,382.5,266.2,382.5,266.2,382.5C266.2,382.5,266.2,382.5,266.2,382.5
		C266.2,382.5,266.2,382.5,266.2,382.5z M272.3,380.5C272.3,380.5,272.4,380.5,272.3,380.5c0.3,0,0.6,0.2,0.8,0.3
		c0,0-0.1,0.1-0.1,0.1C272.8,380.8,272.6,380.7,272.3,380.5z M272.6,380c0.1-0.2,0.2-0.4,0.3-0.6c0.4,0.2,0.7,0.4,1.1,0.6
		c-0.1,0.2-0.3,0.3-0.4,0.5C273.2,380.3,272.9,380.1,272.6,380z M273,379c0.1-0.3,0.2-0.5,0.3-0.8c0.2,0.1,0.3,0.2,0.5,0.2
		c0.3,0.2,0.6,0.3,0.9,0.5c-0.2,0.3-0.4,0.5-0.6,0.8C273.8,379.5,273.4,379.2,273,379z M273.6,377.3c0-0.1,0.1-0.2,0.1-0.3
		c0.6,0.3,1.2,0.5,1.8,0.8c-0.1,0.1-0.2,0.3-0.3,0.4C274.7,377.9,274.1,377.6,273.6,377.3z M276.4,378.2c0.3,0.2,0.6,0.3,0.9,0.5
		c-0.1,0.2-0.3,0.4-0.4,0.6c-0.3-0.2-0.5-0.3-0.8-0.5C276.2,378.5,276.3,378.3,276.4,378.2z M276.8,377.9c0.3,0.1,0.5,0.2,0.8,0.3
		c0,0-0.1,0.1-0.1,0.1C277.3,378.2,277,378,276.8,377.9z M277,376.5c0.1-0.2,0.1-0.3,0.2-0.5c0.4,0.3,0.9,0.5,1.3,0.7
		c-0.1,0.1-0.1,0.2-0.2,0.4C277.8,376.9,277.4,376.7,277,376.5z M277.4,375.3c0.2-0.5,0.3-1,0.4-1.5c0.6,0.2,1.2,0.5,1.7,0.7
		c-0.2,0.5-0.4,1-0.7,1.4C278.4,375.7,277.9,375.5,277.4,375.3z M276.5,372.1c-0.3-0.1-0.6-0.3-0.9-0.4c0.1-0.1,0.1-0.3,0.2-0.4
		c0.6,0.3,1.3,0.6,1.9,0.9c0,0.1-0.1,0.3-0.1,0.4C277.2,372.4,276.9,372.3,276.5,372.1z M278.4,369.9c-0.6-0.2-1.1-0.5-1.7-0.7
		c0,0,0,0,0,0c0.4,0.2,0.8,0.3,1.2,0.5C278.1,369.7,278.2,369.8,278.4,369.9C278.4,369.9,278.4,369.9,278.4,369.9z M278.6,370
		C278.6,370,278.7,370,278.6,370C278.7,370,278.6,370,278.6,370C278.6,370,278.6,370,278.6,370z M275.7,368.8
		C275.7,368.8,275.7,368.8,275.7,368.8c-0.4-0.1-0.7-0.2-1.1-0.4c0,0,0,0,0,0C275,368.5,275.3,368.6,275.7,368.8
		C275.7,368.8,275.7,368.8,275.7,368.8z M274.6,368.4c-0.6-0.2-1.1-0.4-1.7-0.5C273.5,368,274,368.2,274.6,368.4
		C274.6,368.4,274.6,368.4,274.6,368.4z M265.6,368.2c0,0.1,0,0.1,0,0.2c-0.2,0-0.4-0.1-0.5-0.1c0,0,0-0.1,0-0.1
		C265.2,368.2,265.4,368.2,265.6,368.2z M264.7,368.3c-0.2,0-0.4,0-0.6-0.1c0,0,0,0,0,0c0.2,0,0.4,0,0.6,0
		C264.7,368.2,264.7,368.3,264.7,368.3z M261.4,370.8C261.4,370.8,261.4,370.8,261.4,370.8C261.4,370.8,261.4,370.8,261.4,370.8
		c0.1,0,0.2,0,0.3,0C261.6,370.8,261.5,370.8,261.4,370.8z M259.7,373.3c0,0,0,0.1,0,0.1c-0.1,0-0.2,0-0.4-0.1c0,0,0-0.1,0-0.1
		C259.5,373.3,259.6,373.3,259.7,373.3z M265.4,383C265.4,383,265.5,383,265.4,383C265.5,383,265.4,383.1,265.4,383
		C265.4,383.1,265.4,383.1,265.4,383C265.4,383,265.4,383,265.4,383z M271.1,382.4c0.2-0.3,0.4-0.5,0.6-0.8c0.1,0.1,0.3,0.1,0.4,0.2
		C271.8,382,271.5,382.2,271.1,382.4C271.2,382.4,271.2,382.4,271.1,382.4z M274.3,381.6c0.1-0.1,0.1-0.2,0.2-0.3
		c0.2,0.1,0.3,0.1,0.5,0.2c-0.1,0.1-0.2,0.2-0.3,0.3C274.5,381.8,274.4,381.7,274.3,381.6z M274.7,381c0.1-0.2,0.2-0.3,0.3-0.5
		c0.2,0.1,0.4,0.2,0.5,0.3c-0.1,0.1-0.2,0.3-0.4,0.4C275.1,381.2,274.9,381.1,274.7,381z M275.2,380.3c0.2-0.3,0.4-0.6,0.6-0.9
		c0.2,0.1,0.5,0.3,0.7,0.4c-0.2,0.3-0.5,0.6-0.7,0.9C275.6,380.6,275.4,380.5,275.2,380.3z M280.1,377.4c0-0.1,0.1-0.2,0.1-0.3
		c0,0,0.1,0,0.1,0.1C280.3,377.3,280.2,377.3,280.1,377.4C280.1,377.4,280.1,377.4,280.1,377.4z M280.4,376.7c0.2-0.5,0.4-1,0.5-1.5
		c0.2,0.1,0.3,0.2,0.5,0.3c-0.3,0.4-0.6,0.9-0.9,1.3C280.5,376.8,280.4,376.8,280.4,376.7z M278.1,372.8c0-0.2,0.1-0.3,0.1-0.5
		c0.6,0.3,1.3,0.6,1.9,0.9c-0.1,0.1-0.1,0.3-0.2,0.4C279.3,373.4,278.7,373.1,278.1,372.8z M280.1,371.6c0.2,0.1,0.4,0.1,0.5,0.2
		c0,0,0,0,0,0.1C280.4,371.8,280.3,371.7,280.1,371.6z M260.4,370.8c-0.2,0-0.4,0-0.7,0c0,0,0,0,0-0.1
		C259.9,370.7,260.2,370.7,260.4,370.8C260.4,370.8,260.4,370.8,260.4,370.8z M257.6,382.9c0,0-0.1,0.1-0.1,0.1
		c-0.2-0.1-0.3-0.1-0.5-0.2C257.1,382.9,257.4,382.9,257.6,382.9z M270.8,384.3C270.8,384.3,270.8,384.3,270.8,384.3
		c0,0.1-0.2,0.1-0.3,0.2C270.6,384.4,270.7,384.4,270.8,384.3z M271.1,384.1c0.2-0.1,0.5-0.3,0.7-0.4c0.1,0.1,0.3,0.1,0.4,0.2
		c-0.3,0.1-0.6,0.2-0.9,0.3C271.2,384.2,271.2,384.2,271.1,384.1z M273.4,382.5C273.5,382.5,273.5,382.4,273.4,382.5
		c0.2,0,0.4,0.1,0.5,0.1c-0.3,0.3-0.7,0.6-1,0.9c-0.1-0.1-0.3-0.2-0.4-0.3C272.8,383,273.1,382.7,273.4,382.5z M281.8,374.8
		c-0.2-0.1-0.4-0.3-0.6-0.4c0-0.2,0.1-0.3,0.1-0.5c0.2,0.1,0.5,0.3,0.7,0.4C282,374.5,281.9,374.7,281.8,374.8z M281.7,372.5
		c0-0.1,0-0.2,0.1-0.2c0.4,0.2,0.8,0.3,1.1,0.5c-0.1,0.1-0.1,0.2-0.2,0.4C282.4,373,282.1,372.7,281.7,372.5z M284.2,370.3
		c0.1-0.2,0.1-0.4,0.1-0.5c0.3,0.1,0.6,0.3,0.9,0.4c-0.1,0.2-0.1,0.4-0.2,0.6C284.8,370.6,284.5,370.4,284.2,370.3z M284.3,369.8
		c-0.1,0.1-0.1,0.3-0.2,0.5c-0.5-0.3-1.1-0.6-1.6-0.9c0-0.1,0-0.2,0.1-0.4C283.1,369.3,283.7,369.5,284.3,369.8z M281.5,368.9
		c-0.8-0.4-1.7-0.8-2.5-1.1c0,0,0-0.1,0-0.1c0.9,0.3,1.8,0.6,2.6,1C281.5,368.7,281.5,368.8,281.5,368.9z M259.1,370.8
		c-0.1,0-0.3,0-0.4,0c0,0,0-0.1,0-0.1C258.8,370.7,258.9,370.7,259.1,370.8C259.1,370.8,259.1,370.8,259.1,370.8z M252.6,374.9
		c0-0.1,0.1-0.2,0.1-0.2c0.1,0,0.1,0,0.2,0C252.8,374.7,252.7,374.8,252.6,374.9z M277.9,382.2c0.3-0.3,0.6-0.7,0.9-1.1c0,0,0,0,0,0
		C278.5,381.5,278.2,381.9,277.9,382.2C277.9,382.2,277.9,382.2,277.9,382.2z M279.2,380.6c0.2-0.2,0.4-0.5,0.5-0.7c0,0,0,0,0,0
		c0,0,0,0,0,0.1C279.5,380.2,279.4,380.4,279.2,380.6C279.2,380.7,279.2,380.6,279.2,380.6z M279.8,379.7c0.1-0.1,0.2-0.3,0.3-0.4
		C280,379.5,279.9,379.6,279.8,379.7C279.8,379.8,279.8,379.7,279.8,379.7z M285.9,371.3c0.1-0.2,0.1-0.5,0.2-0.7
		c0.9,0.4,1.7,0.8,2.4,1.2c-0.1,0.3-0.2,0.6-0.2,0.9C287.4,372.2,286.7,371.8,285.9,371.3z M286.2,370.2c0.1-0.3,0.1-0.7,0.2-1
		c0.8,0.4,1.6,0.8,2.4,1.3c-0.1,0.3-0.2,0.7-0.3,1.1C287.8,371.1,287,370.6,286.2,370.2z M281.9,367.1c-0.1,0.3-0.1,0.5-0.2,0.8
		c-0.9-0.4-1.8-0.8-2.7-1.2c0-0.1,0-0.2,0-0.2s0,0.1,0,0.2c-0.5-0.2-0.9-0.4-1.4-0.5c0.1-0.2,0.1-0.4,0.1-0.6
		C279.1,366,280.5,366.5,281.9,367.1z M278.6,367.5c0.1,0,0.2,0.1,0.2,0.1c0,0,0,0.1,0,0.1c-0.5-0.2-1-0.4-1.5-0.5c0,0,0,0,0-0.1
		C277.8,367.2,278.2,367.4,278.6,367.5z M276.5,366.9c-0.4-0.1-0.7-0.2-1.1-0.3C275.7,366.7,276.1,366.8,276.5,366.9
		C276.5,366.9,276.5,366.9,276.5,366.9z M257.8,370.9c-0.1,0-0.2,0-0.3,0c0,0,0-0.1,0-0.1c0.1,0,0.2,0,0.3,0
		C257.8,370.8,257.8,370.8,257.8,370.9z M277.4,382.7C277.4,382.7,277.4,382.7,277.4,382.7c0,0-0.1,0.1-0.1,0.1
		C277.3,382.7,277.3,382.7,277.4,382.7z M281.8,377.8c0,0,0.1,0,0.1,0.1c-0.1,0.2-0.2,0.3-0.3,0.5
		C281.7,378.2,281.7,378,281.8,377.8z M281.9,377.5c0.2-0.5,0.4-1,0.5-1.5c0.1,0.1,0.3,0.2,0.4,0.3c-0.2,0.5-0.5,0.9-0.8,1.3
		C282,377.6,282,377.5,281.9,377.5z M282.6,375.3c0-0.2,0.1-0.3,0.1-0.5c0.2,0.1,0.4,0.3,0.6,0.4c-0.1,0.2-0.2,0.3-0.2,0.5
		C283,375.5,282.8,375.4,282.6,375.3z M283.1,373.4c0-0.1,0-0.2,0.1-0.3c0-0.1,0.1-0.1,0.1-0.2c0.3,0.1,0.6,0.3,0.9,0.4
		c-0.1,0.2-0.1,0.4-0.2,0.6C283.7,373.8,283.4,373.6,283.1,373.4z M288.9,374.5c0.9,0.6,1.8,1.1,2.6,1.7c-0.1,0.3-0.2,0.6-0.3,0.8
		c-0.6-0.4-1.5-1-2.5-1.6C288.7,375.1,288.8,374.8,288.9,374.5z M289.1,373.4c0.1-0.4,0.1-0.7,0.2-1.1c1.7,0.9,2.6,1.5,2.6,1.5
		s-1-0.7-2.6-1.7c0.1-0.4,0.1-0.7,0.2-1.1c0.8,0.5,1.6,1,2.4,1.6c0.2,0.1,0.3,0.2,0.5,0.3c-0.2,0.7-0.4,1.4-0.6,2
		c0,0.1-0.1,0.2-0.1,0.4C290.9,374.6,290,374,289.1,373.4z M293.3,373.4c1.2,0.8,2.3,1.6,3.3,2.4c-0.2,0.9-0.5,1.7-0.8,2.5
		c-1-0.8-2-1.6-3-2.4C293,375.1,293.1,374.3,293.3,373.4z M287.1,367.3c-0.1-0.1-0.2-0.1-0.3-0.2c0.1-0.6,0.2-1.1,0.2-1.6
		c0.9,0.4,1.7,0.8,2.5,1.2c-0.1,0.5-0.2,1.1-0.3,1.6C288.5,368,287.8,367.6,287.1,367.3z M287,363.1c0,0.1,0,0.2-0.1,0.4
		c-1.1-0.6-2.3-1.1-3.4-1.5c0-0.1,0-0.1,0-0.2C284.6,362.1,285.8,362.6,287,363.1z M287.2,363.6c0-0.1,0-0.3,0-0.4
		c0.9,0.4,1.7,0.8,2.6,1.2c0,0.2-0.1,0.4-0.1,0.7C288.9,364.6,288.1,364.1,287.2,363.6z M283,361.6c0,0.1,0,0.1,0,0.2
		c-0.5-0.2-0.9-0.3-1.4-0.5c0.4,0.1,0.8,0.1,1.2,0.2C282.8,361.5,282.9,361.6,283,361.6z M284.6,364.4c0.7,0.3,1.3,0.6,1.9,0.9
		c-0.1,0.5-0.2,1-0.3,1.5c-1-0.6-2-1.2-3-1.7c0-0.4,0.1-0.7,0.1-1.1C283.7,364,284.1,364.2,284.6,364.4z M277.1,365.4
		c-0.1,0.2-0.1,0.3-0.2,0.5c-1.4-0.5-2.7-0.9-4.1-1.1c1.1,0.1,2.2,0.2,3.4,0.4C276.5,365.2,276.8,365.3,277.1,365.4z M248.9,375.4
		C248.9,375.4,248.9,375.4,248.9,375.4c0-0.1,0.1-0.2,0.1-0.3c0.1,0,0.1,0,0.2,0C249.1,375.2,249,375.3,248.9,375.4z M283.4,378.6
		c0.2,0.1,0.3,0.2,0.5,0.2c-0.2,0.3-0.5,0.7-0.7,1c-0.1-0.1-0.2-0.1-0.3-0.2C283.1,379.3,283.3,378.9,283.4,378.6z M283.5,378.4
		c0.2-0.4,0.4-0.9,0.6-1.4c0.2,0.1,0.4,0.3,0.6,0.4c-0.2,0.4-0.5,0.8-0.8,1.2C283.8,378.6,283.7,378.5,283.5,378.4z M284.4,376.4
		c0.1-0.2,0.1-0.4,0.2-0.5c0.3,0.2,0.5,0.3,0.8,0.5c-0.1,0.2-0.2,0.3-0.3,0.5C284.8,376.7,284.6,376.6,284.4,376.4z M285,374.7
		c0.1-0.3,0.2-0.5,0.2-0.8c0.4,0.2,0.7,0.4,1.1,0.5c-0.1,0.3-0.3,0.5-0.4,0.9C285.6,375.1,285.3,374.9,285,374.7z M286.4,374.5
		c0.4,0.2,0.7,0.4,1,0.5c-0.1,0.4-0.3,0.8-0.4,1.1c-0.3-0.2-0.7-0.5-1-0.7C286.2,375.1,286.3,374.8,286.4,374.5z M288.6,375.7
		c1.2,0.8,1.9,1.4,1.9,1.4s-0.5-0.4-1.4-1.1c0.8,0.5,1.5,0.9,2,1.2c-0.2,0.6-0.5,1.1-0.7,1.6c-0.7-0.6-1.5-1.1-2.2-1.7
		C288.4,376.6,288.5,376.1,288.6,375.7z M292.3,377.8C292.3,377.8,292.3,377.8,292.3,377.8C292.3,377.8,292.3,377.8,292.3,377.8
		c0.1-0.3,0.2-0.6,0.3-0.9c1.1,0.7,2.1,1.4,3,2.1c-0.4,1-0.9,2-1.4,2.8c-0.8-0.7-1.7-1.4-2.5-2.1C291.8,379,292.1,378.4,292.3,377.8
		z M296.8,379.9c0.8,0.6,1.6,1.2,2.3,1.8c-0.6,1.1-1.2,2-1.9,2.9c-0.5-0.5-1.1-1-1.7-1.5C296,382,296.4,381,296.8,379.9z M296.9,375
		c-0.6-0.5-1.2-1-1.9-1.5c-0.4-0.4-1-0.8-1.5-1.3c0-0.3,0.1-0.6,0.1-0.9c1.4,0.7,2.7,1.4,3.7,1.9C297.2,373.8,297,374.4,296.9,375z
		 M298.2,373.7c0.1,0.1,0.2,0.1,0.3,0.2c-0.2,0.4-0.3,0.8-0.5,1.2C298.1,374.6,298.1,374.1,298.2,373.7z M292.8,371.6
		c-0.7-0.6-1.5-1.2-2.4-1.9c0.9,0.4,1.7,0.8,2.5,1.2C292.9,371.1,292.8,371.3,292.8,371.6z M289.9,368.7c0.1-0.6,0.1-1.1,0.2-1.7
		c1.2,0.6,2.3,1.3,3.3,1.8c-0.1,0.5-0.2,1-0.3,1.5C292,369.8,291,369.2,289.9,368.7z M290.2,365.4c0-0.3,0-0.5,0.1-0.7
		c1.1,0.6,2.3,1.2,3.4,1.9c-0.1,0.4-0.1,0.7-0.2,1.1C292.4,366.9,291.3,366.1,290.2,365.4z M287.5,360.8c0-0.3,0-0.5,0.1-0.8
		c0.9,0.2,1.8,0.5,2.7,0.9c0,0.4-0.1,0.8-0.1,1.3C289.3,361.7,288.4,361.2,287.5,360.8z M287.4,360.7c-1.2-0.6-2.4-1.1-3.6-1.4
		c0,0,0-0.1,0-0.1c1.2,0.2,2.4,0.5,3.7,0.9C287.4,360.2,287.4,360.5,287.4,360.7z M283.4,359.2c-0.3-0.1-0.5-0.2-0.8-0.2
		C282.8,359,283.1,359,283.4,359.2C283.4,359.1,283.4,359.1,283.4,359.2z M282.7,363.7c-0.1,0.3-0.1,0.7-0.2,1
		c-1.3-0.7-2.7-1.2-4.1-1.7c0-0.2,0.1-0.3,0.1-0.5C279.8,362.8,281.2,363.2,282.7,363.7z M256.2,371c-0.8,0.1-1.7,0.2-2.4,0.4
		c0-0.1,0-0.2,0.1-0.3c0.7-0.1,1.5-0.2,2.4-0.3C256.2,370.9,256.2,371,256.2,371z M241.1,382.8C241.1,382.8,241.1,382.9,241.1,382.8
		C241,382.9,241.1,382.9,241.1,382.8C241.1,382.8,241.1,382.8,241.1,382.8z M279.9,383.4c0.3-0.2,0.5-0.5,0.7-0.7
		c0.1-0.1,0.2-0.2,0.3-0.3c0,0,0.1,0,0.1,0C280.7,382.8,280.3,383.1,279.9,383.4z M282.9,379.7C282.9,379.7,282.9,379.7,282.9,379.7
		c0.1,0,0.2,0.1,0.3,0.2c0,0,0,0,0,0C283,379.8,283,379.7,282.9,379.7z M284.5,379.1c0.4,0.2,0.7,0.3,0.9,0.5
		c-0.3,0.4-0.5,0.9-0.8,1.3c-0.3-0.2-0.5-0.3-0.8-0.5C284.1,379.9,284.3,379.5,284.5,379.1z M285.5,379.5c-0.3-0.2-0.6-0.3-0.9-0.5
		c0.2-0.4,0.4-0.9,0.6-1.3c0.3,0.2,0.6,0.4,1,0.6C285.9,378.7,285.7,379.1,285.5,379.5z M285.4,377.1c0.1-0.2,0.2-0.4,0.2-0.6
		c0.3,0.2,0.6,0.4,1,0.7c-0.1,0.2-0.2,0.4-0.3,0.6C286.1,377.6,285.8,377.4,285.4,377.1z M287.9,378.1c0.7,0.5,1.4,1,2.1,1.5
		c-0.1,0.2-0.3,0.5-0.4,0.7c-0.6-0.5-1.2-1-1.9-1.5C287.7,378.5,287.8,378.3,287.9,378.1z M291.2,380.5c0.9,0.6,1.7,1.3,2.5,1.9
		c-0.2,0.3-0.4,0.6-0.6,0.9c-0.5-0.4-1.3-1.1-2.3-2C291,381,291.1,380.8,291.2,380.5z M294,385.5c0.4-0.6,0.8-1.2,1.2-1.9
		c0.6,0.5,1.1,0.9,1.6,1.3c-1,1.1-2.1,2.1-3.1,2.8c-0.3-0.3-0.6-0.5-0.9-0.8C293.2,386.4,293.6,386,294,385.5z M299,386.2
		c-0.2-0.2-0.4-0.3-0.5-0.5c0.7-0.9,1.2-2,1.7-3.2c0.3,0.2,0.6,0.5,0.8,0.7c0,0.1-0.1,0.2-0.1,0.3c0,0.1-0.1,0.2-0.1,0.2
		C300.2,384.6,299.6,385.5,299,386.2z M301.1,382.9c-0.3-0.2-0.5-0.5-0.8-0.7c0.3-0.9,0.6-1.8,0.9-2.7c0.3,0.2,0.5,0.5,0.8,0.7
		C301.7,381,301.4,382,301.1,382.9z M300.2,379.1c-0.3,0.8-0.6,1.5-0.9,2.2c-0.7-0.6-1.5-1.3-2.3-2c0.2-0.6,0.3-1.2,0.5-1.8
		c0.1-0.3,0.2-0.6,0.3-0.8c0.9,0.7,1.8,1.4,2.6,2.1C300.3,378.9,300.3,379,300.2,379.1z M298,376c0.3-0.7,0.5-1.4,0.7-2
		c1.1,0.6,1.7,1,1.7,1s-0.6-0.4-1.7-1.1c0.1-0.3,0.2-0.6,0.3-0.9c0.9,0.7,1.7,1.4,2.5,2c-0.3,1-0.6,2.1-0.9,3.2
		C299.7,377.5,298.9,376.7,298,376z M298.5,373.7c-0.1-0.1-0.2-0.1-0.3-0.2c0.1-0.4,0.1-0.7,0.2-1.1c0.2,0.1,0.3,0.3,0.5,0.4
		C298.8,373.1,298.6,373.4,298.5,373.7z M297.4,373c-1-0.6-2.3-1.4-3.7-2.2c0.1-0.5,0.1-1.1,0.2-1.6c0.2,0.1,0.3,0.2,0.4,0.3
		c1.2,0.8,2.3,1.6,3.3,2.4C297.5,372.2,297.4,372.6,297.4,373z M292.1,363.3c-0.6-0.4-1.1-0.7-1.7-1c0-0.5,0-0.9,0-1.4
		c1.2,0.4,2.4,0.9,3.7,1.5c0,0.5-0.1,1.1-0.2,1.8C293.4,364,292.7,363.7,292.1,363.3z M277.9,362.8c-0.5-0.1-1-0.3-1.4-0.4
		c-1.4-0.3-3.2-0.5-4.9-0.7c2,0,4.2,0.2,6.5,0.6C278,362.5,277.9,362.7,277.9,362.8z M259,367.1C259,367.1,259,367.1,259,367.1
		c-0.2,0.1-0.3,0.1-0.4,0.1c0.1,0,0.1-0.1,0.2-0.1C258.8,367.1,258.9,367.1,259,367.1z M239.3,383.1c0,0-0.1,0.1-0.1,0.1
		c0,0,0,0,0,0C239.2,383.2,239.2,383.1,239.3,383.1C239.3,383.1,239.3,383.1,239.3,383.1z M239,386.9c0.1,0,0.1,0,0.2-0.1
		c0.1,0.1,0.2,0.1,0.3,0.2c-0.1,0-0.2,0.1-0.3,0.1C239.1,387.1,239.1,387,239,386.9z M267.4,386.6c0,0-0.1,0-0.1,0
		c0,0-0.1,0-0.1-0.1c0.5,0,0.9,0,1.4-0.1c0,0-0.1,0-0.1,0.1C268.1,386.5,267.7,386.5,267.4,386.6z M282,383.1
		c0.2,0.1,0.4,0.3,0.6,0.4c-0.7,0.8-1.5,1.5-2.3,2.1c-0.2-0.1-0.3-0.2-0.5-0.3C280.7,384.6,281.4,383.9,282,383.1z M282.2,382.8
		c0.4-0.5,0.8-1.1,1.2-1.7c0.3,0.1,0.5,0.3,0.8,0.4c-0.4,0.6-0.9,1.2-1.4,1.7C282.6,383.1,282.4,383,282.2,382.8z M286.2,381.9
		c0.5-0.8,0.9-1.8,1.3-2.7c0.7,0.5,1.3,0.9,1.9,1.3c-0.6,0.9-1.2,1.7-1.8,2.4C287.1,382.5,286.7,382.2,286.2,381.9z M289.3,383.6
		c0.5-0.6,1-1.4,1.4-2.2c1.1,0.8,1.9,1.4,2.4,1.8c-0.1,0.1-0.1,0.2-0.2,0.3c-0.6,0.7-1.2,1.3-1.9,1.9c-0.6-0.5-1.3-1-2-1.5
		C289.2,383.8,289.3,383.7,289.3,383.6z M292.6,387.1c0.3,0.2,0.6,0.5,0.9,0.7c-1.5,1-3,1.7-4.2,2
		C290.5,389.1,291.6,388.1,292.6,387.1z M295.3,389.2c-0.6,0.3-1.3,0.6-1.9,0.8c0.6-0.3,1.1-0.6,1.6-1
		C295.1,389,295.2,389.1,295.3,389.2z M293.7,392.9C293.7,392.9,293.8,392.9,293.7,392.9c-0.1,0-0.2,0.1-0.3,0.1
		C293.6,393,293.7,393,293.7,392.9z M301.3,378.9c0.3-1.2,0.5-2.3,0.7-3.5c0.3,0.3,0.6,0.5,0.8,0.7c-0.2,1-0.5,2.2-0.8,3.5
		C301.9,379.4,301.6,379.2,301.3,378.9z M302.2,375c0.1-0.7,0.2-1.3,0.3-2c0.3,0.2,0.6,0.5,0.9,0.7c-0.1,0.6-0.2,1.2-0.3,2
		C302.7,375.5,302.5,375.3,302.2,375z M301.6,374.4c-0.8-0.7-1.6-1.4-2.4-2.2c0.2-0.8,0.3-1.3,0.3-1.3s-0.1,0.5-0.4,1.3
		c-0.2-0.2-0.4-0.4-0.6-0.5c0.1-0.6,0.1-1.1,0.2-1.6c1.2,0.9,2.3,1.8,3.3,2.7C301.9,373.2,301.7,373.8,301.6,374.4z M299,368.9
		c1.4,1,2.5,1.9,3.2,2.5c0,0.1,0,0.2-0.1,0.3C301.2,370.7,300.1,369.8,299,368.9z M297,366.8c0.5,0.2,0.9,0.5,1.3,0.7
		c0,0.1,0,0.2,0,0.3C297.9,367.5,297.5,367.2,297,366.8z M294.2,364.4c0-0.7,0-1.4,0-1.9c1.5,0.7,3,1.5,4.5,2.5
		c-0.1,0.6-0.1,1.2-0.2,1.9C297.1,366,295.7,365.2,294.2,364.4z M264,363.6c0.1-0.1,0.3-0.2,0.4-0.2c0.4-0.1,0.8-0.1,1.4-0.2
		c0.2,0,0.5,0,0.8,0.1C265.7,363.4,264.8,363.5,264,363.6C264,363.7,264,363.7,264,363.6z M262.6,392.4c-0.3-0.3-0.5-0.7-0.8-1
		c-0.2-0.3-0.3-0.6-0.5-0.8c0.7,0.7,1.3,1.4,1.9,2.3C262.9,392.7,262.7,392.6,262.6,392.4z M257.7,385.5c0.2,0,0.5,0,0.7,0
		c0.2,0.1,0.3,0.2,0.5,0.3c-0.2,0-0.3,0.1-0.3,0.1c0.2,0.1,0.5,0.2,0.7,0.2c0.1,0,0.1,0.1,0.2,0.1c-0.2,0-0.3,0-0.4,0.1
		C258.6,386,258.1,385.7,257.7,385.5z M279.3,385.7c0.2,0.1,0.3,0.2,0.5,0.3c-0.5,0.4-1.1,0.8-1.6,1.1c-0.2-0.1-0.4-0.3-0.6-0.4
		C278.2,386.4,278.7,386.1,279.3,385.7z M281.5,387.2C281.6,387.2,281.6,387.2,281.5,387.2c0,0.1-0.1,0.1-0.2,0.2
		C281.4,387.3,281.5,387.3,281.5,387.2z M282,386.8c0.9-0.7,1.6-1.5,2.3-2.2c0.3,0.2,0.5,0.4,0.8,0.5c-1,0.8-2,1.4-2.9,1.8
		C282.1,386.9,282.1,386.9,282,386.8z M288.7,384.4c0.7,0.5,1.4,0.9,2,1.4c-1.9,1.6-4,2.6-5.9,3.2c-0.4-0.3-0.8-0.6-1.2-0.9
		C285.5,387.3,287.3,385.8,288.7,384.4z M287.9,390.7c0.4,0.2,0.8,0.2,1.2,0.3c-0.7,0.1-1.3,0.1-1.8,0.2c-0.1,0-0.1-0.1-0.2-0.1
		C287.4,390.9,287.7,390.8,287.9,390.7z M289.1,392.1c0.7,0.1,1.4,0.1,2.1,0c-0.3,0.1-0.5,0.2-0.7,0.3c-0.2,0-0.4,0.1-0.5,0.1
		C289.7,392.3,289.4,392.2,289.1,392.1z M295.1,394.2c0.2,0,0.5-0.1,0.7-0.2c0.4,0.1,0.8,0.2,1.2,0.2c0.1,0,0.1,0.1,0.2,0.1
		c-0.8,0-1.4,0-1.6,0C295.4,394.2,295.2,394.2,295.1,394.2z M294.9,392.6c-0.1,0-0.2,0-0.3-0.1c0.3-0.1,0.6-0.3,0.9-0.4
		c0.1,0.1,0.2,0.1,0.3,0.2C295.5,392.5,295.2,392.6,294.9,392.6z M303.6,381.5C303.6,381.5,303.6,381.5,303.6,381.5c0,0,0,0.1,0,0.1
		C303.5,381.5,303.5,381.5,303.6,381.5z M303.7,381.1c0.3-1.1,0.6-2.3,0.9-3.5c0.3,0.3,0.6,0.5,0.8,0.8
		C304.9,379.3,304.3,380.2,303.7,381.1C303.7,381.2,303.7,381.2,303.7,381.1z M303.4,377.5c-0.2,0.6-0.4,1.2-0.5,1.7
		c0.2-1,0.3-1.9,0.4-2.8c0.1,0.1,0.2,0.2,0.4,0.3C303.5,377,303.5,377.2,303.4,377.5z M303.7,376.4c-0.1-0.1-0.3-0.3-0.4-0.4
		c0.1-0.8,0.1-1.6,0.2-2.2c0.2,0.2,0.5,0.4,0.7,0.6C304,375.1,303.8,375.8,303.7,376.4z M303.5,372.9c0-0.5,0-0.7,0-0.7
		S303.5,372.4,303.5,372.9c-0.3-0.3-0.6-0.6-0.9-0.8c0-0.1,0-0.2,0-0.3c0.5,0.4,0.8,0.7,0.8,0.7s-0.3-0.3-0.8-0.8
		c0.1-0.5,0.1-1.1,0.1-1.5c0.7,0.5,1.4,0.9,2,1.3c-0.1,0.8-0.3,1.5-0.4,2.3C304,373.4,303.8,373.1,303.5,372.9z M302.3,371.3
		c-0.8-0.7-2-1.8-3.4-3c0-0.2,0-0.3,0-0.5c1.3,0.7,2.6,1.4,3.6,2.1C302.4,370.4,302.4,370.8,302.3,371.3z M298.9,367.2
		c0-0.7,0.1-1.3,0.1-1.9c0.2,0.1,0.4,0.2,0.5,0.4c1.1,0.8,2.2,1.5,3.2,2.3c-0.1,0.5-0.1,1-0.2,1.7
		C301.5,368.8,300.2,368,298.9,367.2z M294.2,361C294.2,361,294.2,360.9,294.2,361C294.2,360.9,294.2,361,294.2,361
		c-1.2-0.7-2.5-1.2-3.8-1.7c0-0.3,0-0.5,0-0.6c2,0.7,4.1,1.6,6.3,2.7c0.1,0.1,0.2,0.1,0.3,0.2c0.6,0.4,1.3,0.8,1.9,1.2
		c0,0.3-0.1,0.7-0.1,1C297.3,362.8,295.8,361.8,294.2,361z M277.8,356c0.3,0,0.6,0,1.1,0.1c-0.9,0.1-1.7,0.3-2.4,0.5
		c0.4-0.2,0.7-0.4,1.1-0.6C277.6,356,277.7,356,277.8,356z M271.8,359.5c-0.2,0-0.3,0.1-0.5,0.1c-0.2,0-0.3,0-0.5,0
		c0,0,0.1,0,0.1-0.1C271.2,359.5,271.5,359.5,271.8,359.5z M258.7,390.6c-0.3-0.4-0.6-0.7-0.9-1.1c0,0-0.1-0.1-0.1-0.1
		c0.4,0.4,0.9,0.8,1.4,1.2c-0.1,0-0.2,0-0.3,0C258.8,390.6,258.8,390.6,258.7,390.6z M264.9,390.9c-0.1-0.1-0.2-0.2-0.2-0.2
		c0,0,0,0,0.1,0c0.1,0.1,0.2,0.3,0.3,0.4C265,391.1,265,391,264.9,390.9z M262,388.2c-0.8-0.6-1.6-1.2-2.4-1.7
		c0.2,0.1,0.4,0.1,0.7,0.2c0.7,0.5,1.6,1.2,2.4,2C262.5,388.5,262.2,388.4,262,388.2z M274.2,396.3c0.1,0.2,0.2,0.3,0.2,0.5
		c0,0,0,0,0,0C274.3,396.6,274.3,396.4,274.2,396.3z M275.6,387.4c0.5,0.3,0.9,0.5,1.1,0.6c-0.7,0.3-1.3,0.6-1.8,0.8
		c-0.5-0.3-0.9-0.6-1.4-1C274.3,387.7,274.9,387.6,275.6,387.4z M276.7,388c-0.2-0.1-0.6-0.3-1-0.6c0.5-0.1,1-0.3,1.4-0.4
		c0,0,0.1,0,0.1,0c0.2,0.2,0.5,0.3,0.7,0.4C277.5,387.5,277.1,387.8,276.7,388z M287,391.1C287,391.1,287,391.1,287,391.1
		c-0.1,0.1-0.2,0.1-0.2,0.1C286.9,391.1,286.9,391.1,287,391.1z M301,391.5c0.6-0.5,1.1-1,1.6-1.6c0.5,0.5,1,0.9,1.3,1.2
		C302.9,391.4,301.9,391.5,301,391.5z M297.7,391.5c-0.4,0-0.7-0.1-1-0.1c0.5-0.4,1-0.7,1.4-1.1c0.7-0.6,1.2-1.3,1.8-2.1
		c0.1-0.1,0.3-0.3,0.4-0.4c0.4,0.4,0.8,0.7,1.2,1.1C300.3,390,299,390.9,297.7,391.5z M301.6,388.8c-0.3-0.3-0.7-0.7-1.1-1.1
		c0.8-0.9,1.6-1.9,2.3-3c0.5,0.4,0.9,0.7,1.2,1C303.3,386.9,302.5,387.9,301.6,388.8z M304.1,385.5c0,0-0.1,0.1-0.1,0.1
		c-0.3-0.3-0.7-0.7-1.1-1.1c0.5-0.8,1-1.6,1.4-2.4c0.4,0.3,0.7,0.7,1.1,1C305,383.9,304.6,384.7,304.1,385.5z M304.4,381.9
		c0.5-1,1-2.1,1.4-3.1c0.4,0.4,0.7,0.7,0.9,0.9c-0.4,1-0.8,2.1-1.3,3.2C305.2,382.6,304.8,382.3,304.4,381.9z M305.9,378.7
		c0.3-0.7,0.5-1.3,0.8-2c0.3,0.3,0.6,0.5,0.9,0.8c-0.2,0.6-0.4,1.4-0.7,2.1C306.6,379.4,306.3,379.1,305.9,378.7z M305.4,378.2
		c-0.3-0.3-0.5-0.6-0.8-0.9c0.1-0.7,0.3-1.4,0.4-2.2c0.5,0.4,0.9,0.8,1.4,1.2C306,377,305.7,377.6,305.4,378.2z M305.1,374.4
		c0.1-0.9,0.2-1.8,0.3-2.7c1.2,0.8,2,1.4,2.3,1.5c-0.3,0.7-0.6,1.6-1.1,2.6C306.1,375.4,305.6,374.9,305.1,374.4z M307.6,373.3
		c-0.2-0.2-1-0.8-2.2-1.7c0.1-0.5,0.1-1.1,0.1-1.6c0.9,0.7,1.8,1.5,2.5,2.1C308,372.4,307.8,372.8,307.6,373.3z M304.8,371.1
		c-0.6-0.4-1.3-0.9-2-1.4c0-0.7,0.1-1.3,0.1-1.8c0.7,0.6,1.5,1.1,2.1,1.6C305,370.1,304.9,370.6,304.8,371.1z M304.5,368.3
		c0.3,0.2,0.5,0.3,0.6,0.4c0,0,0,0.1,0,0.1C304.9,368.7,304.7,368.5,304.5,368.3z M305.1,368.7c-0.2-0.2-0.7-0.5-1.3-1
		c-0.3-0.3-0.6-0.5-0.9-0.8c0-0.5,0-0.7,0-0.7s0,0.2-0.1,0.7c-1.2-1-2.5-2-3.8-2.9c0-0.4,0-0.7,0-1.1c2.5,1.7,4.6,3.4,6.2,4.8
		C305.2,368.1,305.2,368.4,305.1,368.7z M302.6,364.8c0.7,0.5,1.3,0.9,2,1.4c0.3,0.2,0.5,0.4,0.8,0.6c0,0.2,0,0.3-0.1,0.5
		C304.5,366.6,303.6,365.7,302.6,364.8z M280.9,354.8c0.9,0,1.9,0,3,0c0,0.1,0,0.2,0,0.3C282.8,354.9,281.8,354.8,280.9,354.8z
		 M237.2,381C237.2,381,237.1,381,237.2,381C237.1,381,237.1,381,237.2,381C237.2,381,237.2,381,237.2,381z M232.8,382.3
		c1.6,0.4,3.4,0.3,5,0.1c-0.4,0.4-0.8,0.8-1.2,1.2c-0.6-0.1-1.2-0.1-1.8,0c-0.2,0-0.3-0.1-0.5-0.1c-0.7-0.4-1.4-0.8-2.2-1.1
		C232.4,382.4,232.6,382.3,232.8,382.3z M238.9,391.4c-2.2,0.7-4.3,0.3-6.1-0.5c1.1-0.5,2.6-1.2,4.5-1.7c0.5-0.1,1-0.2,1.6-0.3
		c0.5,0.6,1,1.3,1.3,2.1C239.7,391.1,239.3,391.3,238.9,391.4z M241,388.6c0.2,0,0.3,0,0.5,0c0.4,0.4,0.8,0.7,1.2,1.1
		c-0.2,0.1-0.3,0.2-0.5,0.3C241.9,389.5,241.5,389,241,388.6z M269.9,408.9c-0.2-3.3-0.8-6.7-2.2-9.5c-0.3-0.6-0.7-1.3-1.2-2.1
		c-0.4-1.4-1-2.8-1.7-4.1c1.3,1.6,2.5,3.5,3.4,5.6c0.5,1.2,1,2.4,1.3,3.5C270,405.5,270,407.9,269.9,408.9z M269.7,395.3
		c-0.4-0.5-0.7-0.9-1.1-1.3c-0.2-0.5-0.4-0.9-0.7-1.4c0,0,0,0,0.1,0C268.6,393.4,269.2,394.3,269.7,395.3z M270.3,393.5
		c-0.5-1-1.1-1.8-1.8-2.7c0.6,0.6,1.2,1.2,1.8,1.9c0.2,0.4,0.4,0.7,0.6,1.1C270.6,393.8,270.4,393.7,270.3,393.5z M274.5,396.9
		C274.5,396.9,274.5,396.9,274.5,396.9c0.5,1.1,0.9,2.2,1.2,3.4c0.1,0.2,0.1,0.5,0.2,0.7C275.5,399.6,275,398.2,274.5,396.9z
		 M275.7,392.8c-0.2-0.2-0.3-0.4-0.5-0.6c-1.2-1.4-3-3-4.9-4.2c0.7,0,1.5,0,2.2-0.1c0.1,0,0.1,0.1,0.2,0.1c0,0-0.1,0-0.1,0
		c0,0,0.4,0.4,1.1,1.2c-0.1,0-0.1,0-0.1,0c0.1,0,0.2,0.1,0.2,0.1c0.8,0.9,1.9,2.4,3.1,4.3C276.5,393.4,276.1,393.1,275.7,392.8z
		 M276.3,389.7c1.1-0.1,2.3-0.6,3.4-1.2c0.8,0.5,1.4,1,1.9,1.3c-1,0.2-1.8,0.2-2.4,0.2c-0.5-0.2-1-0.4-1.5-0.4c0,0,0.1,0.1,0.2,0.2
		c-0.3-0.1-0.7-0.1-1,0c0,0,1.1,0.7,2.7,2c0.2,0.2,0.3,0.4,0.5,0.6C279.1,391.7,277.8,390.7,276.3,389.7z M280.5,391
		C280.5,391,280.5,391,280.5,391c0.2,0,0.4,0,0.6,0c0.2,0.3,0.5,0.6,0.7,0.9C281.4,391.7,281,391.3,280.5,391z M283.6,392
		c0.2,0.1,0.9,0.6,2,1.5c-0.4-0.2-0.8-0.4-1.2-0.4C284.2,392.7,283.9,392.3,283.6,392z M283.6,392c-0.3-0.3-0.7-0.7-1-0.9
		c0.2,0,0.5,0,0.7-0.1c1.1,0.5,2.3,0.5,3.5,0.2c0.3,0.2,0.6,0.4,1,0.6c-0.2,0-0.4,0-0.7,0c0,0,0.3,0.2,0.8,0.5
		c-0.7-0.4-1.5-0.7-2.2-0.7c0,0,0.7,0.5,1.7,1.5c0.2,0.2,0.3,0.4,0.6,0.7C286.4,392.6,284.9,391.8,283.6,392z M317.5,377.7
		c-0.9,1.6-3.3,5.7-6.8,9.8c-0.1,0.1-0.1,0.2-0.2,0.2c3.3-4,5.4-8.5,5.4-8.5s-2.7,4.8-7.3,9.1c-1,1-2.1,1.7-3.1,2.3
		c-0.6,0.2-1.1,0.3-1.6,0.4c-0.3-0.3-0.7-0.7-1.2-1.3c0.8-1,1.5-2.2,2.1-3.4c0,0,0.1,0.1,0.1,0.1s0,0-0.1-0.1
		c0.4-0.9,0.8-1.8,1.2-2.8c1.3,1.2,2,1.9,2,1.9s-0.7-0.8-1.9-2c0.4-1.2,0.8-2.4,1.1-3.4c0.2,0.2,0.4,0.4,0.4,0.4s-0.1-0.1-0.4-0.4
		c0.2-0.8,0.4-1.6,0.6-2.3c3.4,3.2,5.4,5.5,5.4,5.5s-2-2.5-5.3-6c0.3-1.5,0.4-2.4,0.4-2.4s-0.2,0.9-0.6,2.2
		c-0.3-0.3-0.5-0.6-0.8-0.9c0.6-1.7,1-3.2,1.3-4c2.9,2.5,4.5,4.2,4.5,4.2s-1.7-2-4.4-4.6c0.1-0.3,0.1-0.4,0.1-0.4s0,0.1-0.1,0.4
		c-0.8-0.8-1.7-1.6-2.6-2.5c0-0.4,0-0.8,0.1-1.2c2,1.7,3.1,2.9,3.1,2.9s-1.2-1.4-3.1-3.3c0-0.2,0-0.4,0-0.6
		C311.1,371.3,315.3,375.4,317.5,377.7z M305.5,365.6c-1.3-1-2.6-2.1-3.9-3c1.4,0.7,2.7,1.4,4,2.1
		C305.5,364.9,305.5,365.2,305.5,365.6z M305.7,362.6c0,0.3,0,0.8-0.1,1.3c-2-1.2-4.2-2.5-6.5-3.6c0-0.4,0-0.7,0-0.7s0,0.2,0,0.7
		c-2.3-1.1-4.6-2.1-6.9-2.8c-1.2-0.6-2.5-1.1-3.7-1.5c-1.3-0.4-2.9-0.7-4.6-1c0-0.1,0-0.2,0-0.3c4.2,0.2,9.7,1.2,15.3,4.1
		C301.7,360.1,303.8,361.4,305.7,362.6z M303,346.1c1.2,0,2.5,0.1,4,0.3c-1.4-0.2-2.6-0.2-3.7,0c-0.3,0-0.7-0.1-1-0.1
		C302.6,346.2,302.8,346.2,303,346.1z M317.8,349.5c-0.2-0.1-0.3-0.1-0.5-0.2c-2.6-1.1-6.1-2.2-9.2-2.7
		C310.9,347,314.3,347.9,317.8,349.5z M307.4,346.5C307.4,346.5,307.5,346.5,307.4,346.5C307.5,346.5,307.4,346.5,307.4,346.5z"/>
	<radialGradient id="SVGID_2_" cx="310.5666" cy="416.1503" r="20.3184" gradientUnits="userSpaceOnUse">
		<stop  offset="0.5071" style="stop-color:#E3B6BF"/>
		<stop  offset="1" style="stop-color:#1B0C75"/>
	</radialGradient>
	<path fill="url(#SVGID_2_)" d="M306.2,400.1c0,0,7.7,6.7,7.6,18.4c0,7.6-1.7,13.7-1.7,13.7s4.7-14.3,1.7-22.9
		C312.6,405.6,309.5,400.2,306.2,400.1z"/>
	<radialGradient id="SVGID_3_" cx="361.7906" cy="451.5249" r="29.5569" gradientUnits="userSpaceOnUse">
		<stop  offset="0.5071" style="stop-color:#E3B6BF"/>
		<stop  offset="1" style="stop-color:#1B0C75"/>
	</radialGradient>
	<path fill="url(#SVGID_3_)" d="M353.7,441.1c1.7,7.1,1.7,13,1.7,13s0.9-14.1-3.8-21.6c-2.1-3.2-6.1-7.9-9.1-7.5
		C342.5,425.1,351,430.2,353.7,441.1z"/>
	<radialGradient id="SVGID_4_" cx="320.2107" cy="391.6128" r="20.3177" gradientUnits="userSpaceOnUse">
		<stop  offset="0.5071" style="stop-color:#E3B6BF"/>
		<stop  offset="1" style="stop-color:#1B0C75"/>
	</radialGradient>
	<path fill="url(#SVGID_4_)" d="M318.4,399.4c7.6-3.3,14.5-17.1,14.5-17.1s-3.2,5.5-8.3,10.8c-7.8,8-17,6.2-17,6.2
		C309.6,402,315.1,400.8,318.4,399.4z"/>
	
		<radialGradient id="SVGID_5_" cx="360.6981" cy="418.5617" r="10.7543" fx="371.4483" fy="418.2634" gradientUnits="userSpaceOnUse">
		<stop  offset="0.5071" style="stop-color:#E3B6BF"/>
		<stop  offset="1" style="stop-color:#1B0C75"/>
	</radialGradient>
	<path fill="url(#SVGID_5_)" d="M348.3,424c8.1,0.9,20.2-6.7,20.2-6.7s-5.2,2.9-12,4.6c-10.4,2.7-17.7-2.8-17.7-2.8
		C339.5,422.1,344.8,423.6,348.3,424z"/>
	<radialGradient id="SVGID_6_" cx="310.5931" cy="415.2658" r="27.1649" gradientUnits="userSpaceOnUse">
		<stop  offset="0.5071" style="stop-color:#E3B6BF"/>
		<stop  offset="1" style="stop-color:#1B0C75"/>
	</radialGradient>
	<path fill="url(#SVGID_6_)" d="M357.9,410.7c0,0-4.8,3.4-11.2,5.6c-3.8,1.3-7.3,1.3-10.1,0.7c7-0.2,14.3-10.8,14.3-10.8
		s-3.3,4.1-8.2,7.2c-4.5,2.8-9.1,2-12.2,0.9c1.2,0,2.3-0.1,3.3-0.3c6.1-1.2,13.5-10,13.5-10s-3.3,3.5-7.9,6.4
		c-4.6,2.9-8.8,2.8-11.2,2.4c-0.3-0.4-0.7-0.7-1-1c0.5,0,0.9,0,1.4,0c0.7,0,1.4,0,2,0c8.5-0.6,17.5-13,17.5-13s-1.7,2-4.4,4.4
		c2.3-2.2,3.8-4,3.8-4s-4.1,4.4-9.9,8.1c-1.8,1.1-3.6,1.9-5.3,2.4c-3.5,0.7-6.6,0.2-9-0.5c1.4,0,2.8-0.2,4-0.5
		c7.3-1.7,16.5-12,16.5-12s-4,4.1-9.7,7.7c-1.6,1-3.2,1.8-4.7,2.3c6.8-3.4,13.5-11.4,13.5-11.4s-4.2,4.5-10.1,8.2
		c-7.4,4.7-14.2,3.1-16.4,2.4c-0.5-0.6-1.1-1.1-1.7-1.6c0.8,0.2,1.7,0.3,2.6,0.3c2.6,0.7,6,0.4,8.5-0.1c9.3-1.9,20.8-15,20.8-15
		s-5.1,5.2-12.2,9.7c-3.2,2-6.2,3.1-9,3.6c6.5-3.2,12.7-9.7,12.7-9.7s-4.5,4.2-10.7,7.5c-3.9,2.1-7.5,2.6-10.4,2.5
		c-0.4-0.1-0.8-0.1-1.1-0.2c1.2-0.1,2.4-0.4,3.4-0.7c7.4-2.2,14.1-14.4,14.1-14.4s-3.1,4.9-8.1,9.2c-6.4,5.6-13.7,4.5-15.8,4
		c-0.5-0.2-1-0.3-1.5-0.3c0,0,8.2,5.8,9,16.4c0.5,6.9-0.7,12.6-0.7,12.6s3.8-13.3,0.1-20.9c0,0,0-0.1-0.1-0.1
		c0.2,0.3,0.5,0.7,0.8,1.1c1.5,2.8,2.9,6.4,2.9,10.8c0,7-1.5,12.7-1.5,12.7s2.8-8.1,2.5-15.4c0.8,2.8,1.4,6.1,1.1,9.8
		c-0.5,8.3-2.7,14.9-2.7,14.9s6.2-15.4,3.4-25c-0.8-2.6-2.2-6-4.1-8.2c-0.3-0.6-0.7-1.2-1.1-1.8c0.2,0.1,0.4,0.2,0.7,0.3
		c0.4,0.5,0.9,0.8,1.6,1c0.2,0.2,0.4,0.5,0.7,0.7c0.2,0.4,0.5,0.7,0.8,1c2,2.9,4.3,7.8,3.9,14c-0.5,6.9-2.5,12.4-2.5,12.4
		s3.9-9.1,3.7-16.8c0.3,1.6,0.4,3.3,0.2,5.2c-0.5,6.6-2.2,11.8-2.2,11.8s4.8-12.2,2.7-19.8c-0.3-1.2-0.9-2.7-1.5-4
		c1.8,2,3.8,4.9,4.9,8.5c0.4,1.8,0.6,3.7,0.4,5.8c-0.5,6.8-2.4,12.2-2.4,12.2s0.9-2,1.8-5c-0.8,3.5-1.8,5.7-1.8,5.7
		s6.8-12.8,3.2-21.1c-0.3-0.6-0.6-1.3-1-1.9c-0.3-0.6-0.6-1.2-0.9-1.8c0.1,0,0.2,0.1,0.2,0.1c0.4,0.5,1,0.9,1.7,1.3
		c1.6,2.2,3.5,6.1,3.2,11.3c-0.4,5.4-1.9,9.7-1.9,9.7s4.3-10,2.4-16.2c-0.3-1-0.8-2.2-1.4-3.3c2.5,2.5,5.4,6.7,5.2,12
		c-0.3,5.8-2.4,10.3-2.4,10.3s6.1-10.5,2.8-17.3c1.9,2.5,3.6,5.8,4.3,10c1.1,6.9,0.4,12.7,0.4,12.7s2.6-13.6-1.8-21
		c-1.2-2.1-3.3-4.7-5.5-6.2c0.7,0.1,1.3,0.2,1.9,0.2C346.9,419.6,357.9,410.7,357.9,410.7z"/>
</g>
</svg>
