<?xml version="1.0" encoding="utf-8"?>
<!-- Generator: Adobe Illustrator 18.1.1, SVG Export Plug-In . SVG Version: 6.00 Build 0)  -->
<svg version="1.1" id="Isolation_Mode" xmlns="http://www.w3.org/2000/svg" xmlns:xlink="http://www.w3.org/1999/xlink" x="0px"
	 y="0px" viewBox="0 0 841.9 595.3" enable-background="new 0 0 841.9 595.3" xml:space="preserve">
<radialGradient id="SVGID_1_" cx="540.5723" cy="310.2302" r="180.9068" gradientUnits="userSpaceOnUse">
	<stop  offset="0" style="stop-color:#98BF55"/>
	<stop  offset="1" style="stop-color:#1B5B16"/>
</radialGradient>
<path fill="url(#SVGID_1_)" d="M719.5,231.9c-7.8-6.5-20.6-14.8-27.1-13.3c-2.5-1.3-4.9-2.6-7.3-3.9c-6.2-4.5-13.5-8.7-19-9.1
	c-0.7-0.3-1.4-0.6-2.1-0.9c-23-10-45.3-17-66.5-21.6c-3.8-1.9-7.3-2.8-9.9-2c-4-0.8-8.1-1.4-12-2c-3.2-1.4-6.2-2-8.5-1.2
	c-2.7-0.3-5.5-0.6-8.2-0.9c-4.3-1.8-8.2-2.6-10.9-1.2c0,0,0.4,0.1,1,0.3c-2.7-0.2-5.3-0.3-8-0.5c-2.1-0.8-4.1-1.2-5.9-1.3
	c-3.5-1.2-6.6-1.5-8.6-0.3c0,0,1.6,0.4,4.2,1.3c-0.9,0-1.9,0-2.8,0c-5.6-2.3-11.3-3.5-14.3-1.5c0,0,0.8,0.1,2.2,0.4c0,0,0,0,0,0
	c0,0,1.1,0.2,2.9,0.8c-1.4-0.2-2.7-0.3-3.8-0.2c-1.8-0.3-3.3-0.3-4.7,0c-4.7-1.2-9-1.5-11.3,0.3c0,0,1.1,0.1,2.9,0.4c0,0,0,0,0,0
	c0,0,0.6,0.2,1.7,0.5c-0.8,0.1-1.7,0.1-2.5,0.2c-0.9,0-1.7,0-2.5,0.1c-0.7,0-1.4,0.1-1.9,0.2c-0.2,0-0.3,0-0.5,0
	c-4.2-0.9-8-1-10.1,0.7c0,0,0.7,0,1.8,0.2c0,0-0.1,0-0.1,0c-0.9,0-1.8,0.1-2.5,0.3c-0.6,0.1-1.1,0.1-1.7,0.2c-1.5-0.3-2.9-0.3-4,0.1
	c0,0,0.2,0.1,0.6,0.4c-10.3,1.4-19.8,3.2-28.4,5.2c-2.8-0.3-5.3,0-7.2,1.2c0,0,0.5,0.1,1.4,0.2c-6.4,1.6-12.2,3.3-17.4,4.9
	c-16.1-0.4-27.7,3.1-27.7,3.1s0,0.1,0.1,0.4c-2,0.5-3.1,0.9-3.1,0.9s0.8,1.9,3.7,2.6c-0.3,0.2-0.7,0.4-1.1,0.7
	c-0.1-0.2-0.2-0.3-0.2-0.3s-23.9,13.3-40.8,34.5c-16.9,21.2-24,38.2-28.5,47.1c-4.6,8.9,18.9-30,33.2-46.6c1.9-2.2,3.8-4.3,5.6-6.1
	c-12.1,17.1-17.7,31.5-21.3,39.1c-1.2,2.6,0,0.7,2.5-3.5c-15.8,27.3-21.5,47.6-25.7,58.9c-4.5,12.2,19.9-42,36.1-66.4
	c2.2-3.3,4.3-6.3,6.4-9.1c-13.2,24.3-18,43.5-21.4,53.8c-3.6,10.9,15.8-36.9,28.7-57.5c11.3-18.1,20.1-25.3,26.6-31.5
	c-0.7,1.4-1.6,3.3-2.7,5.8c-9.1,9.8-25.2,29-35.7,51.1c-15.3,32.2-19,55.3-22.1,67.8c-3.1,12.5,15-43.5,28.5-69.2
	c2.6-4.9,5-9.2,7.4-13.1c-0.2,0.5-0.5,1.1-0.7,1.6c-12.2,28.3-15.3,49.8-17.9,61.3c-2.6,11.4,12.1-39.2,22.8-61.5
	c4-8.4,7.7-14.7,11.2-19.7c-0.3,1.2-0.6,2.4-1,3.6c-1.2,3.8-2.3,7.8-3.1,11.9c-4.8,8.3-9.5,17.6-13.1,27.5
	c-12,32.7-13.4,55.6-15.3,68c-1.4,9.4,5.4-20.5,13.5-47c-1.1,6.6-1.7,11.9-2.3,15.8c-0.9,5.9,2.5-8.6,7.2-25
	c-0.7,4.5-1.1,8.3-1.5,11.5c-1.6,9.2-2.5,16.9-3.2,22.9c-4,15.8-5.4,27.7-6.9,35.6c-1.8,9.5,6.1-20.6,15.2-47.2
	c-0.6,4.9-0.9,9.4-1.1,13.4c-1.3,7.5-2,13.6-2.8,18.2c-0.7,4.1,0.4,0.3,2.4-7.4c-0.1,2.4-0.1,4.6-0.2,6.5c-0.3,5.6,1.1-4.5,3.5-18.9
	c0.2-0.9,0.5-1.7,0.7-2.6c0,0.6,0,1.2-0.1,1.7c-0.2,3.4,0.4,0.1,1.4-6.5c0.3-1.2,0.6-2.3,1-3.5c0,0.5,0,1.1-0.1,1.6
	c-0.1,3,0.2,0.6,0.9-4.7c0.9-3,1.7-6,2.6-8.9c-1.2,11.9-1.3,21.2-1.5,27.6c-2.9,17.6-3.1,30.9-3.6,39.8c-1.6,8.7-2.6,15.6-3.5,20.7
	c-1.4,7.9,3.7-11.5,10.6-33.5c0,0,0,0,0,0c-1.4,8-2.1,14.5-2.9,19.3c-1.5,9.6,5.9-23.3,13.8-48.4c-2,18.2-1.6,32.3-1,42.6
	c-1.6,13.7-1.6,24-2,31.1c-0.4,5.9,1.1-3.6,3.7-18.2c-0.1,2.6-0.2,4.9-0.3,6.9c-0.6,9.1,3-19.3,7.9-44.4c0.9-3.6,1.7-7.1,2.6-10.4
	c0.4,2.9,0.7,5.3,1,7.4c0.4,3.7,0.2-1.6-0.1-10.3c0.3-1,0.6-2.1,0.9-3c0.6-1.9,1.2-3.7,1.8-5.5c0.1,1.3,0.3,2.6,0.5,3.9
	c-0.1,11.3,0.7,20.8,1.7,28.5c-1.6,20.3-0.4,35.1-0.3,44.1c0.1,3.5,0.3,1.3,0.7-4.2c0.2,4.7,0.5,8.7,0.6,12
	c0.4,12.4,2.5-44.2,8.4-71.5c0.3-1.3,0.6-2.5,0.8-3.7c0.6,2.6,1.1,4.8,1.4,6.7c0.7,3.2,0-1.3-0.9-8.8c0.2-0.9,0.5-1.9,0.7-2.8
	c0.5,2.2,1,4.3,1.5,6.3c-0.1,1.4-0.3,2.8-0.4,4.2c-0.4,5.7-0.6,11.1-0.6,16c-0.1,0.5-0.2,0.9-0.3,1.4c-6.5,32.3-4.5,54-4.4,65.9
	c0,5.8,0.9-4.1,2.5-18.7c0,3.8,0.1,7.1,0.1,9.9c-0.1,7.2,1.2-10.4,3.5-30.4c0.6,6.4,1.3,11.6,1.7,15.6c0.4,4.3,0.4-0.8,0.3-9.9
	c0.9,6.2,1.8,11.2,2.4,15.2c1.3,9.4-1-26.5,0.2-52.5c2-7.6,4.1-13.9,6.1-19.2c-2.2,9.1-4.2,20-4.8,31.6c-1.5,30,2,50.8,3.2,62.2
	c1.2,11.3-1.5-40,0.5-64.1c1-11.5,2.5-19.8,4.2-26.4c0.8,1.8,1.5,3.4,2.1,4.8c-1.8,7.9-3.1,16.5-3.6,25.3c-1.6,31.5,3.3,52.2,5,63.7
	c1.7,11.5-2.5-41.1-0.2-66.5c2.4-26.7,8.6-38,11.5-48.6c0.3-1.2,0.5-2.3,0.7-3.2c0.8,0.5,1.7,0.9,2.6,1.4c-0.1,0.4-0.3,1.7,2.3,3.7
	c-2.2-0.7-3.6-1.1-3.6-1.1s-0.1,0.6,0.5,1.5c-1.5-0.4-2.4-0.6-2.4-0.6s-0.4,0.8,0.7,2.1c-1.5,5.7-6.2,26.1-5.1,48.8
	c1.3,26.8,6,45,8,55c2,10-4.7-35.4-5-57c-0.4-22.6,2.9-31.6,4-40.4c0.3-2.1,0.3-3.7,0.1-4.9c0.4,0.3,0.9,0.5,1.5,0.8
	c-0.2,0.6-0.2,1.6,0.9,3.2c-0.7-0.3-1.1-0.5-1.1-0.5s-0.7,1.2,1.4,3.3c-1.9,6.6-7.5,28.6-5.8,51.6c2,27.5,8.4,45.2,11,55.1
	c2.7,9.9-6.5-35.6-7.3-57.8c-0.5-15.1,1-24.7,2.5-32.2c0.1,7.3,0.8,16.9,2.9,26.9c4.4,20.9,10.2,34.8,13,42.5
	c2.7,7.7-8-27.4-11.1-44.3c-2.6-14.2-2.3-21.7-2.3-27.8c0.3,0.6,0.8,1.3,1.4,2.1c0,1.6,0,10.4,1.7,22.4c0.4,5.5,1.1,11.5,2.6,17.5
	c3.3,13.8,7.5,24.3,10.8,32c2.2,5.9,4.1,10.6,5.4,14.1c1.1,2.9,0.2,0.1-1.5-5.4c0.2,0.4,0.3,0.8,0.5,1.1c3.3,7.5-9.4-27-12.8-44.1
	c-3.5-17.5-1.9-25.5-2-32.7c0.6,0.6,1.3,1.3,2,1.9c0.3,0.4,0.6,0.8,0.8,1.1c0.1,1.7,0.2,3.9,0.4,6.3c-1.8-2.2-2.9-3.4-2.9-3.4
	s-1.6,1.4,2.3,7.1c0.4,0.5,0.7,1.1,1.1,1.6c0.9,9.2,2.6,21.2,6.1,33.6c7.2,26,15.2,42.9,19.1,52.4c3.9,9.4-11.9-33.8-17.2-54.8
	c-2.3-9.2-3.5-16.2-4.2-21.8c1.8,8.6,5.4,21.4,12.7,33.5c6.1,10.1,12.4,18,17.9,24.3c3.5,9.3,5.7,15.1,4.5,11.1
	c-0.7-2.4-1.5-5.4-2.5-8.9c4.9,5.3,9,9.4,11.9,12.4c3.9,4.2-4.6-6.5-13.9-19.2c-1.3-4.2-2.9-9-4.8-14.2c-2-7.5-4.9-20-12.3-36.2
	c-0.6-1.3-1.2-2.6-1.9-3.9c0.4,0.7,0.9,1.5,1.3,2.3c6.6,14.7,13.7,32.9,11.8,27.3c-0.9-2.7-2.1-6.4-3.7-11
	c7,15.8,14.6,35.6,12.6,29.5c-1.7-5.2-4.1-13.4-8.3-24.1c7.3,14.4,13.3,27.4,11.2,22c-2.2-5.8-5.2-15.1-10.7-26.9
	c3.3,5.6,6.2,10.8,7.9,13.8c4.1,8,6.6,12.9,5,9.3c-1.9-4.5-4.5-11.4-8.4-19.9c1.4,2.3,2,3.2,1.1,1.6c-1-1.8-2.2-4.1-3.7-6.9
	c-2.7-5.5-5.9-11.6-9.8-18.1c-4.1-6.9-8.7-12.9-12.8-17.9c0.8,0.6,1.6,1.3,2.5,2c2,2,4.2,4.2,6.5,6.8c0,0,0,0,0,0.1
	c10,17.1,21.8,42.3,19.1,35.3c-1.1-2.8-2.4-6.5-4.1-10.9c0.3,0.5,0.6,1.1,0.9,1.6c1.9,3.7,3.1,6,3.1,5.7c6.5,12,11.2,21.3,9.3,16.6
	c-2.4-5.6-5.6-14.5-11.2-25.8c9.3,13.5,17.1,25.9,14.4,20.7c-2.4-4.4-5.5-11.2-10.3-19.4c8.1,10.5,14.5,19.4,11.9,15.3
	c-4.3-6.9-11.4-20.1-25.7-36.2c-1-1.1-2-2.2-3-3.2c-0.2-0.4-0.4-0.7-0.6-1.1c5.7,6.2,12.7,14.7,18.1,21.3
	c7.6,11.4,13.5,20.8,11.1,16.3c-1.1-2.1-2.5-4.7-4.1-7.8c1.6,1.9,2,2.4,0.9,0.8c-0.6-0.8-1.2-1.8-2-2.8c-4.3-8-10.5-18.7-19.7-30.7
	c-3.7-4.8-7.7-9.1-11.5-12.7c0,0,0,0,0,0c1.9,1.8,4,3.9,6.3,6.3c10.9,11.6,30.4,39,26.4,32.8c-3.3-5.2-8.4-14.3-17.4-25.8
	c0.5,0.5,1,1,1.5,1.5c7.4,8.9,13.2,16.2,10.7,12.7c-1.3-1.8-2.9-4-4.7-6.7c12.6,13,24.5,26.5,20.6,21.5
	c-5.6-7.2-14.9-21.2-32.9-37.7c-0.2-0.2-0.5-0.4-0.7-0.7c-2.3-2.7-4.7-5.5-7.4-8.5c-0.3-0.4-0.6-0.7-1-1c2.5,1.9,5.2,4.1,8.2,6.7
	c14.1,12.1,41.1,41.8,35.3,34.9c-5.7-6.9-15.7-20.2-32.8-35.9c-6.6-6.1-13.4-11-19.3-14.8c3.8,1.8,8.1,4.1,13,7.2c0,0,0,0,0,0
	c14.7,13.7,33.5,34.6,28.9,28.7c-1.9-2.4-4.2-5.6-7.1-9.3c0.5,0.5,1,0.9,1.5,1.4c2.9,2.9,4.7,4.7,4.6,4.5
	c9.9,9.8,17.1,17.4,13.8,13.4c-3.2-3.9-7.7-9.8-14.1-17c7.8,6.5,12.8,10.9,9.8,7.9c-1.5-1.5-3.3-3.3-5.4-5.4
	c1.3,1.1,2.6,2.2,3.8,3.1c1.3,1.2,1.9,1.7,1.6,1.4c5.4,4.5,8.3,6.9,5.9,4.5c-4.4-4.5-10.9-11.9-21.1-20.7
	c-5.8-5.9-13.1-12.8-22.2-20.2c-2.9-2.4-5.9-4.6-8.8-6.7c-0.3-0.5-0.7-1-1.1-1.6c1.8,1.1,3.6,2.3,5.6,3.6
	c17.4,11.8,49.3,41.7,42.7,34.7c-6.6-7-17.8-20.9-38.7-36.3c-4.8-3.5-9.9-6.6-14.8-9.3c-0.1-0.1-0.2-0.2-0.3-0.4
	c4.6,2.3,9.8,5.1,15.8,8.9c19.6,12.4,56.1,44.1,48.5,36.6c-7.6-7.4-20.5-22-44.2-38.3c-6.6-4.6-13.6-8.4-20.1-11.5
	c-0.7-1.2-1.6-2.5-2.5-4c5.5,2.5,12.3,6,21.2,11.7c18.5,11.8,54.8,41.8,47,34.8c-7.7-7-21.3-20.8-44-36.2
	c-8.8-6-17.7-10.6-25.3-14.1c4.9,1.5,10.4,3.6,16.8,6.4c19.5,13.5,44.7,34.7,38.4,28.7c-2.6-2.5-5.8-5.9-10-9.9
	c6.6,5.1,10.3,7.9,7.4,5.3c-2.7-2.4-6.2-5.8-10.6-9.7c15.6,9.5,29.1,18.3,23.8,14.3c-2-1.5-4.4-3.3-7.2-5.5
	c11.4,7,19.1,11.8,14.8,8.6c-8.7-6.6-23.6-19.8-50.1-33.2c-0.4-0.2-0.8-0.4-1.2-0.6c-3.7-2.7-7.6-5.5-12-8.4c-1.1-0.7-2.1-1.4-3.2-2
	c-1.2-1.4-2.5-2.9-3.9-4.4c0.8,0.3,1.5,0.7,2.3,1c5,4.8,8.1,7.7,6,5.5c-1.2-1.3-2.6-2.8-4.2-4.6c1,0.5,2,0.9,3.1,1.5
	c22.6,11,64.9,40.7,56,33.6c-2.4-1.9-5.1-4.3-8.5-7c4.2,2.7,5.9,3.8,3.4,1.8c-6.6-5.1-16.9-14-32.4-24c-3.4-3.2-7.3-6.7-12-10.5
	c0.1-0.7,0.3-1.6,0.5-2.9c3.8,3,5.6,4.5,3.7,2.7c-1-1-2.2-2.1-3.5-3.3c0-0.2,0.1-0.5,0.1-0.7c2.3,1,4.8,2.1,7.3,3.3
	c0.2,0.1,0.5,0.3,0.7,0.4c-0.6,3.7-1,5.9-1,5.9s0.6-2.2,1.3-5.7c3.3,1.7,6.7,3.5,10,5.3c-0.5,3.2-0.9,5-0.9,5s0.5-1.8,1.1-4.9
	c5.3,2.9,10.4,5.7,14.6,8c-0.4,3.4-0.6,5.4-0.6,5.4s0.4-2,0.9-5.2c4.6,2.5,8.2,4.5,9.9,5.4c-0.1,0.4-0.1,0.6-0.1,0.6s0-0.2,0.1-0.6
	c1.5,0.8,1.6,0.8,0.1-0.3c0-0.2,0.1-0.5,0.1-0.7c3.7,2,6.6,3.5,8.5,4.5c-0.7,4.5-1.2,7.2-1.2,7.2s0.7-2.7,1.6-7
	c2.2,1.1,2.6,1.2,0.6-0.1c-0.2-0.1-0.3-0.2-0.5-0.3c1.5-7.5,3.5-19.6,3.2-31c0.5,11.5-0.6,20.1-0.6,20.1s4.8-26.7-1.4-42.8
	c0-0.1-0.1-0.1-0.1-0.2c0.4,0.6,0.8,1.4,1.2,2.2c2.6,5.9,4.8,13.5,5.2,22.5c0.6,14.4-1.4,25.8-1.4,25.8s3.7-16.3,2.7-31.3
	c1.5,5.9,2.5,12.7,2.4,20.2c-0.2,17-3.1,30.2-3.1,30.2s8.3-30.8,3.3-50.7c-1.3-5-3.5-11.5-6.2-16.2c-0.6-1.8-1.2-3.7-1.9-5.7
	c0.7,0.6,1.3,1.1,2,1.7c2.5,3.6,10.7,16.5,10.5,34.9c-0.2,14.1-2.8,25.1-2.8,25.1s5.3-18.3,4.3-33.9c0.5,3.3,0.8,6.9,0.7,10.8
	c-0.2,13.5-2.5,23.9-2.5,23.9s6.4-24.5,2.7-40.2c-0.6-2.5-1.5-5.5-2.6-8.4c2.9,4.4,6.1,10.5,8,17.9c0.7,3.6,1.1,7.6,1.1,11.9
	c-0.2,13.9-2.8,24.7-2.8,24.7s1.2-4.1,2.4-10.1c-1,7-2.3,11.5-2.3,11.5s9.4-25.3,3.3-42.8c-0.4-1.3-1-2.6-1.6-4
	c-0.7-2-1.6-4.2-2.6-6.2c0.7,0.7,1.4,1.5,2.1,2.2c2.2,3.3,7.9,13.1,7.6,26.7c-0.2,11-2.2,19.6-2.2,19.6s5.8-20,2.4-32.9
	c-0.5-2.1-1.4-4.5-2.4-6.9c3.9,5.5,8.8,14.4,8.7,25.1c0,11.8-3,20.8-3,20.8s8.5-20.7,3-35c3.1,5.4,6,12.4,7.3,20.9
	c2.2,14.3,1.6,25.9,1.6,25.9s2.6-24.1-3-40.1c4.7,6.3,9.3,13.1,13.8,20.2l0,0c1.2,3.3,2.4,6.8,3.2,10.8c3.2,14.7,3.5,26.9,3.5,26.9
	s0.4-28.7-7.4-44.7c-3-6.1-8.4-14.6-12.8-16.1c-1.6-2.1-3.2-4.1-4.8-6.1c-2.3-3.8-5.1-7.5-7.8-9.4c-5.7-6.5-11.5-12.6-17.4-18.1
	c-2.9-10.4-8.3-27.7-16.1-42.7c4.8,5.9,7.6,9.9,7.6,9.9s-3.9-6.3-9.8-14.1c-1.7-2.9-3.4-5.7-5.2-8.2c1.7,1.9,3.5,3.8,5.2,5.9
	c5.7,7,10.5,13.8,14,19.2c4.7,9.8,7.1,16.9,7.1,16.9s-1.4-5-4-12.1c2.9,4.7,4.5,7.6,4.5,7.6s-2-4.2-5.5-10.3
	c-3.4-8.7-8.4-19.8-14.8-29c0.9,0.9,1.8,1.8,2.7,2.8c7,7.8,12.5,15.2,16.1,20.5c0.2,0.4,0.4,0.8,0.6,1.2
	c10.2,20.5,14.8,38.4,14.8,38.4s-2.6-12.3-7.8-26.8c0.7,1.5,1.1,2.3,1.1,2.3s-0.7-1.7-1.9-4.4c-1.8-4.9-3.9-9.9-6.2-14.8
	c1.1,1.5,1.7,2.3,1.7,2.3s-0.8-1.3-2.2-3.4c-2-4.1-4.3-8.1-6.7-11.7c5.2,7,8.2,12.1,8.2,12.1s-2.5-4.8-6.5-11.1
	c2.3,3,4.4,5.8,6.3,8.5c8.3,16.7,12,30.9,12,30.9s-1.9-9.1-5.8-20.4c0.8,1.7,1.7,3.5,2.5,5.4c10.7,24.8,15.4,45.9,15.4,45.9
	S587,246,575,220.2c12,17.7,18.9,32.9,18.9,32.9s-14-34.9-32.4-54.7c-1.8-2.7-3.8-5.2-5.9-7.4c-1.7-1.7-3.7-3.6-5.9-5.5
	c4.9,3.6,10.1,8.2,14.9,14.1c11,13.5,17.5,25.9,17.5,25.9s-6.4-13.8-15.9-26.5c2.7,3.1,5.4,6.6,8,10.5
	c11.4,17.7,17.4,33.7,17.4,33.7s-11.8-37-30.1-54c0.8,0.6,1.7,1.3,2.6,2c6.6,6.9,14,16.9,19.7,30.1c8.4,19.7,12.2,36.4,12.2,36.4
	s-3.9-22.2-12.3-41.9c8.5,16.9,12.4,31.4,12.4,31.4s-3.4-16.5-10.6-32.7c0.7,1.1,1.4,2.1,2.1,3.3c12.5,20.1,19.5,38,19.5,38
	s-11.2-33.4-27.7-54.5c6.7,7.9,13.7,17.9,19.7,30.2c12.3,25.5,18.5,47.5,18.5,47.5s-9-38-24.6-65.2c10.6,17.1,16.2,32,16.2,32
	s-7.6-23.6-19.9-42.2c5.5,6.1,11.1,13.6,16,22.6c12.4,22.8,18.8,42.8,18.8,42.8s-7.8-28.9-21.1-52.3c0.4,0.6,0.7,1.1,1.1,1.7
	c12.4,19.8,19.1,37.5,19.1,37.5s-14.2-42.6-34.2-61.4c-5.3-4.9-12.9-10.9-19.5-13.9c0.9,0.1,1.8,0.2,2.7,0.4
	c6.3,3.8,21.4,14.2,34.4,33.6c0.3,0.5,0.6,1,0.9,1.5c10.4,18.9,15.6,35.6,15.6,35.6s-1.8-7-5.2-16.5c9.6,20.9,14.2,37.8,14.2,37.8
	s-11.1-48.9-31.3-72.5c-0.1-0.2-0.3-0.3-0.5-0.5c-1.8-2.4-3.7-4.7-5.6-6.7c-3.6-3.6-8.5-7.8-13.3-11c0.9,0.1,1.7,0.3,2.6,0.4
	c5.7,3.2,25.7,15.8,38.8,42.9c10.1,20.8,14.9,38.9,14.9,38.9s-6.7-30.7-19.4-52.8c5.4,7,10.8,15.6,15.2,25.9
	c10.2,23.7,14.6,43.9,14.6,43.9s-5.2-30.6-16.8-55.4c7.6,15.2,11.3,27.4,11.3,27.4s-10-39.6-27.9-57.4c-0.1-0.1-0.2-0.2-0.2-0.2
	c0.9,0.6,1.9,1.3,2.9,2.2c6.9,6.3,14.6,15.2,20.6,27.3c9.6,19.3,13.9,36.1,13.9,36.1s-5.1-24.6-15.5-44.5c5.5,7,11,15.6,15.5,26
	c10.1,23.3,14.4,43.2,14.4,43.2s-7.9-47.5-26.6-71.4c-5-6.4-12.6-14.4-19.4-19c-2.9-2.7-6.1-5.2-9.2-7.2c2.3,0.6,4.5,1.2,6.8,1.9
	c0.1,0.1,23.8,11.8,36.5,41.4c8.3,19.4,11.6,36.1,11.6,36.1s-4.1-28.4-14.9-49.1c2.7,4.2,5.2,8.9,7.5,14.1
	c7.9,18.5,11.3,34.3,11.3,34.3s-6.4-37.6-21-56.6c-2.3-3.1-5.4-6.6-8.6-9.7c6.4,4.1,14.4,10.3,21.4,19.1c3.2,4.5,6.2,9.7,8.7,15.6
	c8.2,19.1,11.4,35.6,11.4,35.6s-0.9-6.4-3-15.3c3,10.2,4,17.2,4,17.2s-3.1-40.8-21.7-60.5c-1.3-1.4-2.9-2.9-4.6-4.5
	c-2.5-2.6-5.3-5.2-8.1-7.5c1.1,0.4,2.2,0.9,3.3,1.3c0,0-0.1,0-0.1,0c0,0,18.2,9.2,28.1,32.4c6.4,15.2,9,28.2,9,28.2
	s-4.6-31.1-16.9-46.5c-2-2.5-4.6-5.3-7.3-7.8c8.5,4.9,20.3,13.8,26.7,28.4c7.1,16.1,8.7,30.3,8.7,30.3s-1.5-33.9-17.4-49.7
	c7.3,5.3,15.3,12.9,22.2,23.6c11.7,18,17.8,34.3,17.8,34.3s-11.6-35.8-29.3-53.6c10,5.4,20,11.5,30.2,18.2c4,3.9,8,8.4,11.9,13.7
	c13.1,18,21,34.3,21,34.3S739.5,248.5,719.5,231.9z M475.2,302.2c-6.9-2.8-12.8-4.8-16.7-6c0-2.6-1.5-2.9-1.5-2.9s-0.5,0.7-1.3,2.1
	c-0.4-0.1-0.7-0.2-1-0.3c-0.3-0.4-0.6-0.6-0.6-0.6s-5.6,9.2-11.3,23.1c-0.1-0.5-0.3-1-0.4-1.5c3-11.5,6.5-18.8,8.7-25.6
	c1,0.5,2.5,1.1,4.4,1.6c2.4,0.7,4.9,1.2,7.7,1.8c0.9,0.6,2,1.2,3.5,1.9c1.1,0.5,2.3,1,3.4,1.5C471.7,298.7,473.4,300.3,475.2,302.2z
	 M473.2,343.8c-0.2-0.7-0.4-1.3-0.6-1.7c0.2,0.2,0.4,0.5,0.7,0.7C473.3,343.1,473.2,343.4,473.2,343.8z M469.9,334.7
	c0.2,0.2,0.5,0.4,0.7,0.6c0.9,0.8,1.9,1.5,3,2.2c0.5,0.9,1.4,2,3.3,3.5c0.1,0.1,0.1,0.1,0.2,0.2c0.4,0.5,0.9,1.2,1.6,2
	c-4.5-4.4-7.9-7.1-8.8-7.9C469.9,335.1,469.9,334.9,469.9,334.7z M484,348.6c-0.1-0.1-0.2-0.3-0.3-0.4c0.9,0.9,1.9,1.9,2.9,3.1
	c0.1,0.2,0.3,0.4,0.4,0.7C486,350.8,485,349.7,484,348.6z M493.4,360c-0.1-0.2-0.2-0.5-0.3-0.7c1.7,2.3,3.5,4.9,5.5,8
	c-0.3-0.4-0.5-0.7-0.8-1C496.4,364,494.9,361.9,493.4,360z M462.4,305.5C462.4,305.5,462.4,305.5,462.4,305.5
	C462.4,305.5,462.4,305.5,462.4,305.5C462.4,305.5,462.4,305.5,462.4,305.5z M469.5,320c0.2,0.3,0.3,0.6,0.6,1
	c-0.7-0.6-1.3-1-1.8-1.5C468.7,319.6,469.1,319.8,469.5,320z M409.7,330.2c-0.6,2.1-1.1,4.1-1.6,6.1c0.6-6.3,1.3-12.8,2-18.8
	c0.5,2.8,0.9,5.1,1.2,7.1c0,0,0,0,0,0c0,0.1-0.1,0.3-0.1,0.4C410.7,326.7,410.1,328.5,409.7,330.2z M503.5,181.9
	c3,2.1,6.8,5,11.1,8.7c-0.6-0.4-1.2-0.8-1.8-1.2c-1.8-1.7-3.8-3.2-5.7-4.4c-3.3-2.1-7.7-4.4-11.9-5.8c0.1,0,0.1,0,0.2,0
	C497.7,179.8,500.5,180.7,503.5,181.9z M532.3,230.3c-1.1-1.1-2.3-1.9-3.4-2.3c-0.2-0.1-0.3-0.2-0.5-0.3c-2.6-5.4-5.4-10.6-8.4-15.3
	c0.3,0.1,0.5,0.1,0.8,0.2c7,7.2,11.1,12.6,11.1,12.6s-3.7-5.4-9.6-12.2c0.9,0.2,1.7,0.4,2.4,0.5c3.9,5.1,7.7,10.8,11.2,17.2
	c0.6,1.1,1.2,2.2,1.7,3.3C535.9,232.7,534.1,231.5,532.3,230.3z M543,283.9c-0.3-0.2-0.7-0.4-1-0.6c0.2-5.2,0.2-12.2-0.4-19.4
	c0.6,1.5,1.1,2.9,1.6,4.2C543.4,274.6,543.2,280.2,543,283.9z M476.9,277.9c-2.1-2.1-4.5-4.2-7-6.5c0.2,0.1,0.5,0.1,0.7,0.2
	c0.1,0,0.1,0.1,0.2,0.1c4.4,2.7,9.7,6.3,15.2,10.2C482.9,280.4,479.8,279.1,476.9,277.9z M441.6,321c-0.1-0.2-0.1-0.4-0.2-0.6
	c0-0.2,0.1-0.4,0.1-0.6c0.1,0.2,0.1,0.4,0.2,0.6C441.7,320.7,441.6,320.8,441.6,321z M441.1,322.4c0,0.1-0.1,0.3-0.1,0.4
	c0-0.2,0.1-0.3,0.1-0.5C441,322.3,441,322.4,441.1,322.4z M430.6,301.5c-0.1-3-0.1-5.7,0-8.1c0.8-1.3,1.5-2.6,2.3-3.9
	c0.2,1.5,0.4,3,0.6,4.6C432.6,296.4,431.6,298.9,430.6,301.5z M490.2,180.3c-0.6-0.1-1.3-0.2-1.9-0.3c-0.1,0-0.2-0.1-0.2-0.1
	c0.3,0,0.5-0.1,0.8-0.1C489.3,179.9,489.7,180.1,490.2,180.3z M535.6,280C535.6,279.9,535.5,279.9,535.6,280
	c-0.4-0.2-0.7-0.5-1.1-0.7c0.1-1.7,0.2-3.3,0.3-5.1c0.3,0.9,0.5,1.4,0.5,1.4s-0.2-0.6-0.5-1.6c0.1-3.9,0.1-8-0.1-12
	c0.1,0,0.1,0.1,0.2,0.1C535.7,270.5,535.7,277.3,535.6,280z M531.5,282.4c-1.9-1.1-4-2.3-6.2-3.5c0-0.1,0-0.2,0.1-0.3
	c2.1,0.8,4.2,1.6,6.2,2.4C531.5,281.5,531.5,282,531.5,282.4z M475.7,292c-0.2-0.1-0.3-0.1-0.5-0.2c-0.1-0.2-0.2-0.3-0.4-0.5
	c0.2,0.1,0.4,0.2,0.5,0.2C475.5,291.8,475.6,291.9,475.7,292z M476.9,292.4c0.1,0.1,0.3,0.1,0.4,0.2
	C477.2,292.5,477.1,292.5,476.9,292.4C476.9,292.4,476.9,292.4,476.9,292.4z M472.7,291.1c-4.3-1.3-8.2-2.3-11.4-3.1
	c-2.7-1.9-4.4-2.9-4.4-2.9s-0.4,0.6,0.6,2c-2.3-0.5-4-0.8-5.2-1c0.2-1.5,0.2-2.5,0-3.3c5.3,1.8,11.4,3.5,19.5,7.1
	C472.1,290.3,472.4,290.7,472.7,291.1z M533.3,278.4c-0.4-0.3-0.9-0.6-1.3-0.9c0.1-2.9,0.1-6.4,0-10.1c0.5,1.1,0.9,2.1,1.2,3
	C533.3,273.1,533.3,275.8,533.3,278.4z M508.8,276.8c0.1-0.9,0.3-1.8,0.4-2.7c2,0.8,3.9,1.6,5.8,2.5c-0.2,1.8-0.3,3.3-0.5,4.4
	C512.8,279.6,510.9,278.2,508.8,276.8z M490.9,273.2c-0.6-0.3-1.2-0.5-1.8-0.8c0-0.2,0-0.4,0.1-0.6c0.7,0.6,1.4,1.1,1.9,1.5
	C491.1,273.2,491,273.2,490.9,273.2z M488.4,272.1c-0.1-0.1-0.2-0.1-0.4-0.2c-1.8-1.6-3.8-3.2-5.9-5c0-0.3,0-0.6,0-0.9
	c2.4,1.9,4.6,3.7,6.3,5.1C488.5,271.4,488.5,271.8,488.4,272.1z M449.1,268.8c0.1,0.1,0.3,0.2,0.4,0.3c-4-0.9-6.6-1.4-7.1-1.5
	c-0.4-0.8-1.1-0.9-1.1-0.9s-1.1,1.4-2.8,4c-0.3,0-0.6-0.1-0.6-0.1s0,0,0,0c0-2.3-1.1-2.9-1.1-2.9s-0.1,0.2-0.3,0.4
	c0.8-1.2,1.3-2.3,1.7-3.2c1.2,0.7,3,1.4,5.8,2c1.2,0.3,2.5,0.5,3.8,0.7C448.2,268,448.6,268.4,449.1,268.8z M442.5,271.4
	c0.2-1,0.3-1.8,0.2-2.4c0.6,0.9,2.2,2.2,5.7,3.5C446.1,272,444.1,271.7,442.5,271.4z M505.8,217.2c0.1,0,0.1,0.1,0.2,0.1
	c0.4,0.4,0.7,0.9,1.1,1.3c-0.1-0.1-0.2-0.2-0.3-0.3C506.5,217.9,506.2,217.5,505.8,217.2z M433.6,272.7
	C433.6,272.6,433.6,272.6,433.6,272.7c0.2-0.4,0.4-0.7,0.7-1C434.1,271.9,433.8,272.3,433.6,272.7z M519.6,263
	c-0.1-0.1-0.3-0.2-0.4-0.3c0.1-0.4,0.1-0.9,0.1-1.3c0.1,0,0.2,0.1,0.3,0.1C519.6,262,519.6,262.5,519.6,263z M517.2,271.3
	c0-0.1-0.1-0.3-0.1-0.4c0.2,0.1,0.5,0.3,0.7,0.4c0,0.1,0,0.2,0,0.3C517.5,271.5,517.3,271.4,517.2,271.3z M513.5,265.5
	c0-0.8,0-1.7-0.1-2.6c0.6,1.3,1.1,2.4,1.5,3.5C514.5,266,514,265.8,513.5,265.5z M411.8,286.2c-0.4,1-0.7,2.1-1.1,3.2
	c0-1.4,0-2.7,0.1-4.1c1.3-5.6,2.7-10.3,4.2-14.3c-0.7,3.4-1.4,7.1-2,11C412.6,283.4,412.2,284.8,411.8,286.2z M515.7,266.8
	c-0.1,0-0.1-0.1-0.2-0.1c-0.6-1.7-1.3-3.7-2.2-5.8c0-0.3,0-0.6-0.1-1c0.9,0.5,1.8,1,2.5,1.4C515.8,263.2,515.8,265,515.7,266.8z
	 M510.9,263.9c-0.1-0.1-0.2-0.1-0.3-0.2c0.2-1.7,0.3-3.4,0.4-5.2c0,0,0,0,0,0C511,260.7,510.9,262.5,510.9,263.9z M425.9,233.9
	c0.8,0.1,1.6,0.1,2.4,0.2c2.8,1.1,5.9,2.1,9.6,3.5c-6.4-1.2-11.5-1.8-14.2-2.1c0.3-0.7,0.5-1.3,0.6-1.8
	C424.8,233.8,425.3,233.9,425.9,233.9z M494.5,228.1c0.5,0.7,1,1.5,1.5,2.2c0.2,0.7,0.4,1.4,0.6,2.1c-0.4-0.2-0.9-0.4-1.3-0.6
	c-0.3-1.3-0.6-2.5-1-3.8C494.4,228,494.4,228.1,494.5,228.1z M505.1,230c0.1,0.4,0.3,0.8,0.4,1.3c-0.1-0.1-0.2-0.1-0.3-0.2
	c-0.3-0.9-0.6-1.8-0.9-2.8C504.5,228.9,504.8,229.5,505.1,230z M509.3,255.2c-0.6-0.4-1.3-0.7-2-1.1c0-1,0.1-1.9,0.1-2.9
	c0.2,0.1,0.5,0.2,0.7,0.3c0.4,0.8,0.8,1.6,1.1,2.3C509.2,254.2,509.2,254.7,509.3,255.2z M465.9,213c0.3,0.4,0.6,0.8,0.9,1.2
	c0.1,0.2,0.2,0.5,0.3,0.7c-0.5-0.2-0.9-0.3-1.4-0.5c-0.2-0.5-0.5-1.1-0.8-1.6C465.3,212.9,465.6,212.9,465.9,213z M463.9,253
	c-0.3-0.1-0.6-0.2-0.9-0.4c0-0.4,0-0.7,0-1.1c0.2,0.1,0.4,0.2,0.6,0.3c1,0.7,2,1.4,3,2.2C465.7,253.7,464.8,253.3,463.9,253z
	 M482.8,232.8c0.1,0.1,0.2,0.3,0.3,0.4c-0.4-0.2-0.8-0.5-1.3-0.7c0,0,0-0.1,0-0.1C482.2,232.5,482.5,232.6,482.8,232.8z
	 M494.5,253.2c-0.5-0.3-1-0.7-1.5-1c0-0.6-0.1-1.3-0.2-2c0.2,0.1,0.4,0.2,0.5,0.3c0.4,0.7,0.7,1.3,1,1.9
	C494.4,252.7,494.4,252.9,494.5,253.2z M472.1,252.9c0-0.3,0-0.7,0-1c1.6,0.7,3.2,1.4,5,2.2c0,0.6,0,1.2,0,1.7
	C475.5,254.9,473.8,253.9,472.1,252.9z M492.5,251.9c-0.7-0.4-1.3-0.9-2-1.3c0-0.5,0-1,0-1.5c0.4,0.2,0.8,0.3,1.3,0.5
	c0.2,0.1,0.4,0.2,0.6,0.3c0,0.3,0.1,0.6,0.1,0.8C492.5,251.1,492.5,251.5,492.5,251.9z M467.5,250.5c-0.4-0.3-0.8-0.6-1.2-0.9
	c0.4,0.2,0.9,0.3,1.3,0.5c0,0.2,0,0.3,0,0.5C467.6,250.5,467.6,250.5,467.5,250.5z M485.2,247.2c-0.1-0.1-0.1-0.2-0.2-0.3
	c0.5,0.2,1,0.4,1.6,0.6c0,0.2,0,0.4,0.1,0.6C486.2,247.8,485.7,247.5,485.2,247.2z M466.5,240.1c0.1,0,0.1,0,0.2,0.1
	c0,0,0.1,0,0.1,0.1c0,0.1,0,0.1,0,0.2C466.7,240.3,466.6,240.2,466.5,240.1z M467.9,241.3c0-0.2,0-0.4,0-0.6
	c0.8,0.4,1.5,0.8,2.3,1.2c0.1,0.6,0.1,1.1,0.2,1.7C469.6,242.8,468.7,242.1,467.9,241.3z M474.8,233.4c0.1,0.3,0.1,0.5,0.1,0.8
	c-0.5-0.4-1-0.7-1.5-1.1c0-0.1,0-0.2,0-0.2C473.9,233.1,474.3,233.3,474.8,233.4z M472.2,245.3c-0.1-0.1-0.2-0.2-0.3-0.3
	c0-0.8-0.1-1.5-0.1-2.3c0.4,0.2,0.8,0.4,1.1,0.6c0.2,1.1,0.4,2,0.5,2.8C473,245.8,472.6,245.6,472.2,245.3z M465.6,231.7
	C465.6,231.7,465.6,231.7,465.6,231.7c-0.2-0.1-0.4-0.1-0.6-0.2c-0.1,0-0.2-0.1-0.3-0.1c0-0.1,0-0.2,0-0.3
	C465,231.3,465.3,231.5,465.6,231.7z M473.6,246.3c-0.1-0.8-0.2-1.7-0.3-2.8c0.2,0.1,0.5,0.3,0.7,0.4c0,0.7,0.1,1.1,0.1,1.1
	s0-0.4,0-1c0.8,0.4,1.6,0.8,2.4,1.3c0.1,0.8,0.1,1.5,0.2,2.2c-1-0.4-1.9-0.7-2.9-1.1C473.7,246.3,473.7,246.3,473.6,246.3z
	 M477.3,245.6c0.6,0.3,1.1,0.6,1.7,0.9c0.1,1,0.2,1.7,0.2,1.8c-0.6-0.2-1.2-0.5-1.8-0.7C477.4,247,477.3,246.3,477.3,245.6z
	 M480.4,237.3c-0.1-0.5-0.2-1-0.3-1.5c0.4,0.2,0.7,0.3,1.1,0.5c0.1,0.5,0.1,0.9,0.2,1.3C481,237.5,480.7,237.4,480.4,237.3z
	 M463.5,230.3c0,0.2,0.1,0.3,0.1,0.5c-0.2-0.1-0.4-0.2-0.7-0.3c0-0.2-0.1-0.4-0.1-0.6C463.1,230,463.3,230.2,463.5,230.3z
	 M479.2,248.4c0-0.1,0-0.7,0-1.8c0.4,0.2,0.8,0.4,1.2,0.6c0,0.3,0.1,0.7,0.1,1c0,0.2,0.1,0.4,0.1,0.7
	C480.1,248.7,479.6,248.6,479.2,248.4z M482,248.2C482,248.2,482,248.2,482,248.2c0,0.2,0,0.4,0,0.6C482,248.6,482,248.4,482,248.2z
	 M492.6,241.4C492.6,241.4,492.6,241.4,492.6,241.4c0.1,0,0.3,0.1,0.4,0.2C492.9,241.5,492.7,241.4,492.6,241.4z M486.9,239.4
	C486.9,239.4,486.9,239.3,486.9,239.4C487,239.3,487,239.4,486.9,239.4C487,239.4,487,239.4,486.9,239.4z M485.4,238.9
	c-0.9-0.3-1.8-0.6-2.7-0.9c-0.1-0.4-0.2-0.8-0.2-1.2c0.9,0.4,1.9,0.8,2.8,1.2C485.3,238.3,485.4,238.6,485.4,238.9z M461.4,228.9
	c0.1,0.3,0.2,0.7,0.3,1c-0.1,0-0.2-0.1-0.3-0.1c-0.1-0.3-0.1-0.6-0.2-0.9C461.3,228.9,461.3,228.9,461.4,228.9z M482.1,249.2
	c0-0.3,0-0.6,0.1-1c0.7,0.4,1.4,0.8,2.1,1.2c0.1,0.4,0.1,0.8,0.2,1.2c-0.8-0.3-1.6-0.7-2.4-1C482.1,249.4,482.1,249.3,482.1,249.2z
	 M484.6,250.6c0-0.3-0.1-0.7-0.1-1.1c0.4,0.2,0.9,0.5,1.3,0.7c0.2,0.4,0.5,0.8,0.7,1.2C485.9,251.2,485.2,250.9,484.6,250.6z
	 M496.1,246.9c0.4,0.1,0.8,0.3,1.2,0.4c0,0.1,0,0.2,0,0.3C496.9,247.5,496.5,247.2,496.1,246.9z M490.7,240.7
	c-0.2-0.1-0.4-0.1-0.6-0.2c0-0.1,0-0.2,0-0.3c0.2,0.1,0.4,0.2,0.5,0.2C490.6,240.5,490.6,240.6,490.7,240.7z M458.7,241.8
	c0.1,0.1,0.2,0.1,0.4,0.2c-0.4-0.1-0.8-0.2-1.1-0.3c0-0.1,0-0.2,0-0.3C458.2,241.5,458.4,241.6,458.7,241.8z M487.6,247.9
	c0.3,0.1,0.6,0.3,1,0.4c0,0.4,0,0.7,0.1,1.1c-0.3-0.2-0.7-0.4-1-0.6C487.6,248.4,487.6,248.1,487.6,247.9z M497.8,248
	c0-0.1,0-0.3,0-0.4c0.6,0.2,1.1,0.4,1.7,0.6c0,0.3,0,0.6,0.1,0.9C498.9,248.7,498.3,248.4,497.8,248z M495.1,240.1
	c-0.1-0.7-0.2-1.5-0.3-2.2c0.2,0.1,0.5,0.2,0.7,0.3c0.2,0.8,0.4,1.6,0.5,2.4C495.8,240.4,495.4,240.2,495.1,240.1z M492.6,238.6
	c-0.1,0-0.1-0.1-0.2-0.1c0-0.4-0.1-0.8-0.1-1.3C492.4,237.7,492.5,238.2,492.6,238.6z M460.6,219.7c-0.2-0.1-0.5-0.1-0.7-0.2
	c-0.4-1.2-0.9-2.4-1.3-3.6c0.2,0,0.4,0.1,0.5,0.1C459.7,217.3,460.2,218.5,460.6,219.7z M468.4,250.9c-0.1,0-0.2-0.1-0.3-0.1
	c0-0.2,0-0.3,0-0.5c0.7,0.3,1.4,0.6,2.2,0.9c0.2,0.1,0.5,0.2,0.7,0.3c0,0.3,0,0.6,0.1,0.9C470.2,251.9,469.3,251.4,468.4,250.9z
	 M487.7,252C487.7,252,487.7,252,487.7,252c0-0.3,0-0.5,0-0.7c0.4,0.2,0.7,0.4,1.1,0.6c0,0.2,0,0.4,0,0.6
	C488.4,252.3,488.1,252.2,487.7,252z M490.4,252.9c0.7,0.4,1.4,0.8,2.1,1.2c0,0.1,0,0.1,0,0.2c-0.7-0.3-1.4-0.7-2.1-1
	C490.4,253.1,490.4,253,490.4,252.9z M492.6,254.1c0.1,0.1,0.2,0.1,0.3,0.2c0,0.1,0,0.1,0,0.2c-0.1-0.1-0.2-0.1-0.3-0.2
	C492.6,254.2,492.6,254.1,492.6,254.1z M497,241.1c0-0.1,0-0.3-0.1-0.4c0.1,0.2,0.2,0.4,0.3,0.6C497.2,241.2,497.1,241.2,497,241.1z
	 M489.8,237.1c0-0.2,0-0.4-0.1-0.6C489.8,236.8,489.8,237,489.8,237.1C489.8,237.2,489.8,237.2,489.8,237.1z M470.1,222.3
	c-0.1,0-0.2-0.1-0.3-0.1c-0.6-0.8-1.2-1.7-1.9-2.5c-0.1-0.3-0.2-0.7-0.4-1c0.5,0.2,1,0.3,1.5,0.5
	C469.4,220.1,469.7,221.2,470.1,222.3z M458.3,227c0,0,0.1,0,0.1,0c0.2,0.1,0.4,0.3,0.7,0.4c0.1,0.5,0.2,1,0.3,1.5
	c-0.2-0.1-0.5-0.2-0.7-0.3c-0.3-0.2-0.7-0.3-1-0.5c-0.6-0.3-1.2-0.6-1.8-0.8c-0.1-0.4-0.1-0.8-0.2-1.1
	C456.6,226.5,457.4,226.7,458.3,227z M462.4,251.3c0,0.4,0.1,0.8,0.1,1.1c-0.8-0.3-1.5-0.6-2.3-0.9c-0.6-0.3-1.2-0.7-1.8-1
	c0-0.3,0-0.6,0-1C459.7,250,461,250.6,462.4,251.3z M477.3,254.3c1.3,0.6,2.6,1.2,3.9,1.8c0.1,0.8,0.1,1.6,0.2,2.3
	c-1.3-0.8-2.7-1.7-4.1-2.5C477.3,255.4,477.3,254.9,477.3,254.3z M493.1,254.5c0-0.1,0-0.1,0-0.2c0.5,0.3,1,0.5,1.4,0.8c0,0,0,0,0,0
	C494.1,255,493.6,254.8,493.1,254.5z M496.4,254.6c-0.1-0.3-0.2-0.5-0.4-0.8c0-0.6,0-1.2,0-1.8c0.6,0.3,0.7,0.3,0-0.2
	c0-0.2,0-0.3,0-0.5c0.5,0.2,0.9,0.4,1.4,0.6c0.2,0.1,0.4,0.2,0.5,0.3c0.1,1.2,0.2,1.9,0.2,1.9s0-0.7-0.1-1.8c0.6,0.3,1.2,0.7,1.7,1
	c0,1.3,0.1,2.5,0.1,3.7C498.8,256.2,497.6,255.4,496.4,254.6z M501.8,249.9c0.2,0.3,0.3,0.6,0.5,1c-0.2-0.1-0.3-0.2-0.5-0.3
	C501.8,250.3,501.8,250.1,501.8,249.9z M507.1,237.4c-0.2-0.1-0.4-0.2-0.7-0.3c-0.3-1.7-0.6-3.4-1-5c0.1,0,0.2,0.1,0.4,0.1
	C506.2,233.9,506.7,235.6,507.1,237.4z M507.9,241.2c0.4,2.2,0.7,4.4,1,6.8c-0.2-0.1-0.3-0.1-0.5-0.2c-0.2-0.1-0.4-0.2-0.6-0.4
	c-0.1-0.3-0.3-0.7-0.5-1c-0.1-1.9-0.2-3.8-0.4-5.7C507.2,240.9,507.5,241,507.9,241.2z M505.1,245.8c-0.9-0.5-1.8-1.1-2.8-1.7
	c-0.2-0.9-0.3-1.8-0.5-2.8c0-0.2,0-0.3,0-0.5c0.4,0.1,0.7,0.3,0.9,0.4c0.8,1.5,1.6,3,2.4,4.4C505.1,245.7,505.1,245.7,505.1,245.8z
	 M501.7,240.4c0-0.3,0-0.7-0.1-1c0.3,0.5,0.5,0.9,0.8,1.4C502.2,240.7,501.9,240.6,501.7,240.4z M498.6,241.4
	c-0.4-0.8-0.8-1.6-1.2-2.4c0.3,0.1,0.5,0.2,0.8,0.3C498.3,240,498.5,240.7,498.6,241.4z M488.9,227.4c0.2,0.6,0.4,1.3,0.6,2
	c0,0-0.1,0-0.1,0c-0.2-0.7-0.4-1.4-0.6-2.1C488.9,227.2,488.9,227.3,488.9,227.4z M487,235.5c-0.1-0.1-0.2-0.1-0.3-0.2
	c-0.2-0.4-0.4-0.8-0.7-1.2c0.2,0.1,0.5,0.2,0.7,0.3C486.9,234.8,487,235.1,487,235.5z M456.8,240.8c0,0.2,0.1,0.4,0.1,0.6
	c-0.5-0.1-1-0.2-1.5-0.4c0-0.3,0-0.6,0-1C455.8,240.4,456.3,240.6,456.8,240.8z M457.9,249.3c0,0.3,0.1,0.6,0.1,0.9
	c-1.9-1.1-3.8-2-5.6-2.9c0,0,0-0.1,0-0.1C454.1,247.8,455.9,248.5,457.9,249.3z M482.4,259.1c0-0.8,0-1.6,0-2.4
	c1.1,0.6,2.3,1.1,3.5,1.7c0.4,0.3,0.9,0.6,1.3,0.9c0,0.6,0,1.2,0,1.8c-1-0.2-1.9-0.5-2.9-0.7C483.6,259.9,483,259.5,482.4,259.1z
	 M487.5,259.5c0.5,0.3,0.9,0.6,1.4,0.9c0,0.4,0,0.7,0,1.1c-0.5-0.1-1-0.2-1.4-0.4C487.4,260.6,487.5,260.1,487.5,259.5z
	 M490.1,261.3c0.5,0.3,0.9,0.6,1.4,0.9c-0.5-0.1-1-0.3-1.4-0.4C490.1,261.6,490.1,261.5,490.1,261.3z M501.7,253.7
	c0.5,0.2,0.9,0.4,1.4,0.6c0,0.2,0.1,0.3,0.1,0.5c-0.1-0.1-0.2-0.2-0.4-0.3C502.4,254.3,502,254,501.7,253.7
	C501.7,253.8,501.7,253.7,501.7,253.7z M503.4,251.6c-0.1-0.7-0.2-1.3-0.3-2c0.8,0.3,1.7,0.6,2.5,1c0.1,0.8,0.2,1.6,0.2,2.3
	c0,0.1,0,0.3,0,0.4C505.1,252.7,504.2,252.1,503.4,251.6z M512.4,249.6c-0.2-1.9-0.5-3.7-0.9-5.6c0-0.4-0.1-0.9-0.1-1.3
	c0.9,0.4,1.8,0.8,2.7,1.2c0.5,2.3,0.9,4.6,1.2,7.1C514.4,250.6,513.4,250.1,512.4,249.6z M511.1,239.5c-0.2-1.9-0.6-3.8-1-5.7
	c0.8,0.2,0.8,0.2-0.1-0.3c-0.5-2.2-1.1-4.3-1.9-6.2c1.8,3.6,3.8,8.1,5.2,13.4C512.6,240.4,511.9,239.9,511.1,239.5z M504,239.7
	c0,0,0-0.1-0.1-0.1c0,0,0,0,0,0C504,239.6,504,239.6,504,239.7z M498,238.3c-0.4-0.2-0.9-0.5-1.3-0.8c-0.1-0.2-0.2-0.5-0.3-0.7
	c0-0.2-0.1-0.4-0.1-0.5c0.5,0.2,1,0.4,1.5,0.6C497.8,237.4,497.9,237.8,498,238.3z M475.9,224.2c-0.2-0.6-0.3-1.2-0.5-1.8
	c0.6,0.7,1.1,1.5,1.7,2.2C476.8,224.5,476.3,224.3,475.9,224.2z M455.1,240c0,0.4,0.1,0.7,0.1,1c-0.7-0.2-1.4-0.3-2.1-0.5
	c-0.3-0.2-0.6-0.3-0.9-0.5c0-0.5,0-0.9-0.1-1.4C453.1,239.1,454.1,239.5,455.1,240z M451.9,247C451.9,247,451.9,247,451.9,247
	c-0.2,0-0.4-0.1-0.6-0.2C451.5,246.8,451.7,246.9,451.9,247z M494.8,263c0,0.1,0,0.1,0,0.2c-0.2-0.1-0.3-0.3-0.5-0.4
	C494.5,262.9,494.7,262.9,494.8,263z M499.3,262c0,0.1,0.1,0.2,0.1,0.3c-0.7-0.4-1.3-0.8-2-1.2C498,261.4,498.6,261.7,499.3,262z
	 M499.8,262.3c0,0.1,0,0.1,0,0.2c0-0.1-0.1-0.2-0.1-0.3C499.8,262.2,499.8,262.3,499.8,262.3z M501.3,258c0-0.1,0-0.2,0-0.4
	c0.1-1,0.2-2.2,0.3-3.4c0.7,0.4,1.2,0.6,1.5,0.8c0.3,1.8,0.5,3.4,0.7,4.8C503.1,259.3,502.2,258.7,501.3,258z M505.9,255.8
	c0,0.9,0,1.7,0,2.6c-0.3-0.8-0.7-1.9-1.3-3.3C505,255.3,505.5,255.6,505.9,255.8z M511.7,253.8c0.2,1,0.3,2,0.4,2.9
	c-0.2-0.1-0.3-0.2-0.5-0.3C511.7,255.6,511.7,254.7,511.7,253.8z M512.8,253.3c1,0.4,1.9,0.7,2.8,1.1c0,0.5,0.1,1,0.1,1.5
	c0,1,0.1,2,0.1,2.9c-0.8-0.5-1.7-1-2.7-1.5C513,256,512.9,254.7,512.8,253.3z M503.1,235.3c0,0.1,0,0.1,0,0.2
	c-0.6-0.3-1.1-0.5-1.7-0.8c-0.2-0.3-0.3-0.6-0.5-0.9c-0.2-1.2-0.4-2.4-0.7-3.6c0.5,0.2,1,0.4,1.5,0.6
	C502.3,232.2,502.7,233.7,503.1,235.3z M493.5,230.7c0,0.1,0.1,0.3,0.1,0.4c-0.1,0-0.2-0.1-0.2-0.1c-0.3-1.1-0.6-2.2-1-3.3
	c0-0.1-0.1-0.3-0.2-0.4c0,0,0.1,0,0.1,0C492.8,228.4,493.2,229.5,493.5,230.7z M481.3,226.1c-0.1-0.2-0.3-0.4-0.4-0.7
	c0-0.1-0.1-0.3-0.1-0.4C480.9,225.4,481.1,225.7,481.3,226.1C481.3,226.1,481.3,226.1,481.3,226.1z M451.3,239.5
	c-0.6-0.3-1.2-0.7-1.8-1c0-0.3,0-0.6,0-1c0.5,0.2,1.1,0.5,1.7,0.7C451.2,238.6,451.2,239.1,451.3,239.5z M428.2,240.8
	c0.3,0.1,0.6,0.1,0.9,0.2c1,0.2,2,0.4,3,0.5c0.1,0,0.2,0.1,0.3,0.1c1.8,0.5,3.6,1,5.6,1.4c0.6,0.4,1.5,0.9,2.5,1.5
	c0.7,0.4,1.5,0.7,2.2,1c-7.2-2-12.6-3.1-14.8-3.5C428.1,241.6,428.2,241.2,428.2,240.8z M445.8,251.9c1.6,0.6,3.2,1.4,5,2.2
	c-2-0.2-3.9-0.3-5.6-0.4c-3-1.7-5.4-2.9-6.9-3.6C440.6,250.8,443.1,251.3,445.8,251.9z M501.1,262.9c1.1,0.5,2.2,1.1,3.3,1.6
	c0,0.3,0.1,0.6,0.1,0.8c-1.1-0.7-2.2-1.4-3.4-2.1C501.1,263.1,501.1,263,501.1,262.9z M504.5,265.4c0-0.2,0-0.5,0-0.8
	c0.4,0.2,0.8,0.4,1.2,0.6c0,0.3,0,0.6,0,0.9C505.3,265.9,504.9,265.6,504.5,265.4z M504.9,260.5c-0.2-0.1-0.4-0.3-0.6-0.4
	c-0.1-1.6-0.3-3.4-0.5-5.5c0.2,0.1,0.3,0.2,0.5,0.3c0.7,1.6,1.3,2.8,1.7,3.6c0,0.9,0,1.7,0,2.5C505.5,260.9,505.2,260.7,504.9,260.5
	z M515.8,259.8c0,0.1,0,0.3,0,0.4c-0.5-0.3-1-0.7-1.5-1.1C514.8,259.4,515.3,259.6,515.8,259.8z M500.1,226.3
	c0.4,0.9,0.8,1.9,1.2,2.9c-0.5-0.2-0.9-0.5-1.4-0.7c-0.5-1.9-1.1-3.7-1.9-5.4C498.8,224.2,499.5,225.3,500.1,226.3z M482.1,217.9
	c0.4,1,0.7,1.9,1.1,3c-0.2-0.1-0.4-0.2-0.6-0.2c-0.5-1.4-1-2.7-1.6-4C481.4,217,481.7,217.5,482.1,217.9z M484.3,224.4
	c0.3,1,0.6,2.1,0.9,3.2c-0.2-0.1-0.5-0.2-0.7-0.3c-0.3-1.1-0.5-2.1-0.8-3.2C483.9,224.2,484.1,224.3,484.3,224.4z M454.1,214.8
	c0.2,0.1,0.5,0.1,0.7,0.2c0.5,1.2,1.1,2.5,1.6,3.8c-0.9-0.2-1.8-0.4-2.7-0.5c-0.4-1.3-0.8-2.6-1.3-3.8
	C453,214.5,453.6,214.7,454.1,214.8z M452.6,225.2c0.1,0.2,0.1,0.5,0.2,0.7c-0.7-0.3-1.4-0.6-2-0.8c0-0.1,0-0.3-0.1-0.4
	C451.3,224.9,452,225,452.6,225.2z M449.4,238.5c-2.6-1.4-5.1-2.7-7.5-3.8c0.1,0,0.3,0,0.4,0c2.1,0.7,4.4,1.6,7,2.7
	C449.4,237.9,449.4,238.2,449.4,238.5z M427.5,243.5c0,0.1,0.1,0.1,0.2,0.2c-0.1,0-0.1,0-0.2,0C427.5,243.6,427.5,243.5,427.5,243.5
	z M429.4,247.6C429.4,247.7,429.4,247.7,429.4,247.6C429.4,247.7,429.4,247.6,429.4,247.6C429.4,247.6,429.4,247.6,429.4,247.6z
	 M432.6,248.7c1.4,0.4,2.7,0.8,4.2,1.1c0.2,0.6,0.8,1.8,3.8,3.7c0.1,0.1,0.2,0.1,0.3,0.2c-0.2,0-0.3,0-0.5,0
	c-1.1-0.4-2.1-0.8-3.1-1.1c-0.6-1-1.4-1.1-1.4-1.1s-0.1,0.2-0.2,0.5c-0.3-0.3-0.5-0.3-0.5-0.3s0,0.1-0.1,0.2c-1-0.3-2-0.6-2.8-0.9
	C432.5,250.1,432.6,249.4,432.6,248.7z M506.4,266.6c0-0.3,0.1-0.7,0.1-1c0.8,0.4,1.6,0.8,2.4,1.2c0,0.4-0.1,0.8-0.1,1.2
	c-0.1,0-0.2-0.1-0.3-0.1C507.8,267.5,507.1,267,506.4,266.6z M506.9,261.6c0.1-1.7,0.3-3.4,0.3-5.1c0.7,0.4,1.4,0.8,2.1,1.1
	c0,0.1,0,0.2,0,0.4c0,1.7-0.1,3.3-0.1,4.9C508.4,262.5,507.6,262.1,506.9,261.6z M517.2,260.4c0.5,0.2,1,0.4,1.4,0.6
	c0,0.4,0,0.8-0.1,1.2c-0.5-0.3-0.9-0.7-1.4-1C517.1,261,517.1,260.7,517.2,260.4z M517.2,259.6c0.1-1.5,0.1-3.1,0.1-4.6
	c0.5,0.2,1,0.4,1.4,0.6c0,1.7,0,3.3-0.1,4.8C518.2,260.2,517.7,259.9,517.2,259.6z M519.5,259.1c0,0.6,0,1.2,0,1.9
	c-0.1,0-0.1-0.1-0.2-0.1C519.4,260.3,519.5,259.7,519.5,259.1z M518.5,248.7c0.1,1.4,0.1,2.7,0.2,4c-0.5-0.2-1-0.5-1.5-0.7
	c-0.1-2.4-0.3-4.7-0.6-7c0.5,0.2,0.9,0.4,1.4,0.6c0.2,0.8,0.3,1.7,0.5,2.5C518.5,248.3,518.5,248.5,518.5,248.7z M522.7,234.9
	c1.1,3.1,2.1,6.6,2.8,10.7c-0.2-0.4-0.5-0.9-0.8-1.5c-0.7-4-1.7-7.8-3.1-11.2C522,233.6,522.4,234.2,522.7,234.9z M520.5,236.3
	c-1.3-2.3-2.8-4.9-4.5-7.6c-0.2-0.5-0.4-0.9-0.7-1.4c0.3,0.1,0.6,0.2,0.9,0.3C517.8,230.1,519.3,233,520.5,236.3z M518.6,236.1
	c0-0.1-0.1-0.3-0.1-0.4c0.2,0.5,0.4,0.9,0.6,1.3C518.9,236.7,518.8,236.4,518.6,236.1z M519.4,237.7c-0.3-0.7-0.7-2-1.3-3.5
	c-0.1-0.3-0.2-0.6-0.3-0.9c1.4,2.1,2.6,4,3.7,5.7c0.7,2,1.2,4,1.7,6.2C522.1,242.7,520.8,240.2,519.4,237.7z M520.9,244.6
	c0.1,0.2,0.2,0.4,0.3,0.6c-0.1,0-0.1-0.1-0.2-0.1C520.9,244.9,520.9,244.7,520.9,244.6z M524.9,244.5c0.3,0.5,0.5,0.9,0.7,1.3
	c0.1,0.7,0.2,1.4,0.3,2.1c-0.2-0.1-0.4-0.2-0.6-0.4C525.2,246.5,525,245.5,524.9,244.5z M513.7,224c-0.2-0.3-0.3-0.5-0.5-0.8
	c-0.2-0.4-0.3-0.7-0.5-1.1c0.5,0.6,1,1.3,1.5,2.1C514.1,224.2,513.9,224.1,513.7,224z M515.3,235.4c0.8,2.4,1.5,4.9,2.1,7.7
	c-0.4-0.2-0.8-0.5-1.3-0.7c-0.3-1.7-0.7-3.4-1.2-5c-0.6-1.9-1.4-4-2.3-6.1c0.8,1.1,1.5,2.2,2.2,3.3
	C515,234.8,515.2,235.1,515.3,235.4z M478.2,215.8c0.7,1.2,1.3,2.5,2,3.8c-0.1,0-0.2-0.1-0.3-0.1c-0.3-0.5-0.7-1-1-1.5
	c-0.3-0.8-0.6-1.5-0.9-2.2C478.1,215.8,478.1,215.8,478.2,215.8z M449.2,206.2c-0.3,0-0.6-0.1-0.9-0.1c-0.2-0.4-0.4-0.7-0.6-1.1
	C448.2,205.5,448.7,205.8,449.2,206.2z M448.8,224.2c0,0.1,0,0.1,0,0.2c-0.2-0.1-0.4-0.1-0.5-0.2c0-0.1,0-0.1,0-0.2
	C448.5,224.1,448.7,224.1,448.8,224.2z M421.1,240.1c0.4-0.6,0.8-1.2,1.1-1.8c0.4,0.4,1,0.8,1.8,1.2c-1.8,2.8-4.8,7.5-8.2,13.8
	c1.4-4.3,2.7-7.7,3.7-10.9C420.1,241.6,420.6,240.9,421.1,240.1z M420.8,260c0.3-1.3,0.4-2.4,0.4-3.2c1-2.1,2-4,2.8-6
	c0-0.1,0.1-0.2,0.1-0.3c0.6-1,1.2-2,1.7-3.1c0.3-0.5,0.5-1,0.7-1.4c0.3,0.3,0.7,0.6,1.2,0.9c-1.2,2.1-4.2,7.8-7.6,15.8
	C420.4,261.7,420.6,260.8,420.8,260z M510.1,268.5c0-0.4,0.1-0.7,0.1-1.1c1.1,0.5,2.1,1.1,3.1,1.6c0,0.3,0,0.5,0,0.8
	C512.3,269.4,511.2,268.9,510.1,268.5z M511.1,264c0.1-1.4,0.3-3.1,0.4-5.2c0.1,0,0.1,0.1,0.2,0.1c0.3,0.7,0.7,1.4,1,2.1
	c0.2,1.5,0.3,2.8,0.4,4.1C512.4,264.8,511.7,264.4,511.1,264z M516.7,267.4c0.1-0.8,0.1-1.6,0.2-2.4c0,1.1,0,1.7,0,1.7
	s0.1-1.2,0.1-3.2c0-0.5,0.1-1,0.1-1.6c0.5,0.3,1,0.5,1.4,0.8c-0.1,2.1-0.3,4-0.4,5.6C517.6,268,517.1,267.7,516.7,267.4z M521.4,247
	c0.3,0.2,0.7,0.3,1,0.4c0.6,1.2,1.2,2.3,1.8,3.4c0.2,1.7,0.4,3.3,0.6,4.9c-0.7-0.4-1.4-0.7-2.1-1.1
	C522.4,252.2,521.9,249.6,521.4,247z M525.4,248.8c0.2,0.1,0.4,0.2,0.6,0.3c0.1,1,0.2,2,0.3,3c-0.3-0.6-0.5-1.2-0.8-1.8
	C525.5,249.8,525.5,249.3,525.4,248.8z M497.4,213.9c-0.2-0.2-0.4-0.4-0.6-0.6c-0.1-0.1-0.2-0.2-0.2-0.3c0.2,0.1,0.3,0.3,0.5,0.4
	C497.1,213.6,497.3,213.8,497.4,213.9z M472.1,209.9c0,0-0.1,0-0.1,0c-0.1-0.1-0.2-0.3-0.3-0.4c0.1,0,0.1,0,0.2,0.1
	C471.9,209.7,472,209.8,472.1,209.9z M447,223.7C447,223.7,446.9,223.7,447,223.7C446.9,223.7,447,223.7,447,223.7
	C447,223.7,447,223.7,447,223.7z M459.3,260.8c1.1,0.1,2.3,0.2,3.5,0.3c0,0.8,0,1.2,0,1.2s0-0.4,0.1-1.2c0.2,0,0.4,0,0.6,0.1
	c0.8,0.5,1.6,1,2.4,1.5c1.2,0.8,2.6,1.7,3.9,2.7c-0.7-0.2-1.3-0.4-2-0.5C464.9,263.4,462.1,262.1,459.3,260.8z M469.3,261.9
	c0.7,0.1,1.3,0.2,2,0.3c0,0.4,0,0.8,0,1.1C470.7,262.9,470,262.4,469.3,261.9z M496.8,269.1c0.9,0.4,1.8,0.7,2.8,1.1
	c0,0.2,0,0.4,0,0.6C498.7,270.2,497.8,269.6,496.8,269.1z M513.6,269.9c0-0.2,0-0.5,0-0.7c0.7,0.3,1.4,0.7,2,1c0,0.2,0,0.3,0,0.5
	C514.9,270.4,514.2,270.2,513.6,269.9z M516.3,270.6c0.2,0.1,0.3,0.2,0.5,0.3c0.1,0.2,0.1,0.3,0.2,0.4c-0.2-0.1-0.5-0.2-0.7-0.3
	C516.3,270.8,516.3,270.7,516.3,270.6z M517.8,271.6c0-0.1,0-0.2,0-0.2c0.5,0.2,0.9,0.5,1.4,0.7c0,0,0,0.1,0,0.1
	C518.8,272,518.3,271.8,517.8,271.6z M518.4,268.4c0.3-1.5,0.5-3.4,0.8-5.4c0.2,0.1,0.3,0.2,0.5,0.2c0,2-0.1,4-0.2,5.9
	C519.1,268.9,518.7,268.7,518.4,268.4z M521.4,262.2c1,0.4,1.1,0.3,0-0.3c0.1-1.7,0.1-3.5,0.1-5.2c0.1,0,0.1,0.1,0.2,0.1
	c1,5.7,1.6,10.9,1.9,15c-0.9-0.6-1.8-1.2-2.8-1.8C521,267.4,521.2,264.8,521.4,262.2z M523,257.3c0.7,0.3,1.3,0.5,2,0.8
	c0.6,7,0.5,12.5,0.4,14.9c-0.5-0.3-0.9-0.6-1.4-0.9C523.9,268,523.7,262.8,523,257.3z M526,258.5c0.2,0.1,0.4,0.2,0.6,0.2
	c0,0.1,0,0.1,0,0.2c-0.1,5.4-0.5,10.3-0.9,14.3c-0.1,0-0.1-0.1-0.2-0.1C525.7,270.7,526.2,265.2,526,258.5z M526,256.4
	c0-0.8-0.1-1.5-0.1-2.3c0.2,0.5,0.5,1,0.7,1.5c0,0.4,0,0.8,0,1.2C526.4,256.7,526.2,256.6,526,256.4z M528.1,256c0-0.1,0-0.3,0-0.4
	C528.1,255.7,528.1,255.9,528.1,256C528.1,256,528.1,256,528.1,256z M507.5,209.6c3.2,3.2,6.6,6.9,9.7,11.3c-0.1,0-0.1,0-0.2,0
	c-1.1-0.6-2.2-1.2-3.3-1.8c-1.8-2-4-4.5-6.6-7.1c-0.6-0.9-1.1-1.9-1.7-2.8C506.1,209.3,506.8,209.5,507.5,209.6z M512.7,218.4
	c-0.2-0.1-0.5-0.3-0.7-0.4c-0.7-0.7-1.5-1.2-2.2-1.7c-0.3-0.6-0.6-1.1-0.9-1.7C510.2,216.1,511.5,217.3,512.7,218.4z M449.8,217.5
	c-0.2,0-0.4-0.1-0.7-0.1c-0.3-1-0.6-2-0.9-3C448.7,215.4,449.3,216.4,449.8,217.5z M418.9,232c0.4,0.2,0.8,0.5,1.4,0.7
	c-0.7,0.8-1.4,1.7-2.2,2.8C418.6,234.1,418.8,232.9,418.9,232z M424.2,269.2c1.4-2.8,2.6-5.4,3.8-7.8c-0.4,1.8-1,4.7-1.6,8.5
	c-1.2,1.6-2.5,3.4-3.8,5.3C423.1,273,423.7,271,424.2,269.2z M428.8,259.8c0.7-1.6,1.4-3.1,2-4.6c0.1-0.3,0.2-0.5,0.3-0.7
	c0.7,0.3,1.5,0.7,2.4,1.1c0,0.1-0.1,0.1-0.1,0.2c-0.6,0-0.9,0-0.9,0s-0.1,0.5,0.4,1.2c-0.9,2.2-1.9,5-3.1,8.4
	c-0.1,0.1-0.2,0.3-0.4,0.5c0-0.1,0-0.2,0-0.4C430,261.6,429.3,260.2,428.8,259.8z M444,260.1C444,260.1,444,260.1,444,260.1
	c-0.3,0-0.7,0-1-0.1C443.3,260.1,443.6,260.1,444,260.1z M477,267.7c-1.7-1.3-3.5-2.7-5.4-4.1c0-0.4,0.1-0.9,0.1-1.3
	c0.5,0.1,0.9,0.2,1.4,0.2c2.7,1.9,5.6,4.1,8.4,6.4c0,0.1,0,0.3,0,0.4C480.1,268.7,478.6,268.2,477,267.7z M477.8,263.5
	c1.2,0.7,2.5,1.4,3.8,2.1c0,0.3,0,0.6,0,0.9C480.4,265.5,479.1,264.5,477.8,263.5z M500.4,271.3c0-0.3,0.1-0.5,0.1-0.8
	c1.6,0.6,3.2,1.3,4.8,1.9c-0.1,0.7-0.1,1.3-0.2,1.9C503.5,273.3,502,272.3,500.4,271.3z M520.5,272.8c0.1,0,0.1,0.1,0.2,0.1
	C520.6,272.8,520.6,272.8,520.5,272.8C520.5,272.8,520.5,272.8,520.5,272.8z M526.3,273.6c0.7-4.2,1.4-9.2,1.7-14.3
	c0.1,0,0.2,0.1,0.3,0.1c0.1,6.3-0.3,11.7-0.7,15C527.1,274.2,526.7,273.9,526.3,273.6z M529.3,261.3c0.5,1.1,0.9,2.1,1.4,3
	c0.5,4.9,0.7,9.3,0.8,12.8c-1.2-0.8-2.4-1.7-3.8-2.6C528.3,271.5,529,266.7,529.3,261.3z M529.7,260c0.2,0.1,0.3,0.1,0.5,0.2
	c0.1,0.5,0.1,1.1,0.2,1.6C530.2,261.2,529.9,260.6,529.7,260z M529.4,258.3c0-1,0.1-2,0.1-2.9c0.2,0.9,0.3,1.7,0.4,2.6
	c0,0.2,0.1,0.4,0.1,0.6C529.8,258.5,529.6,258.4,529.4,258.3z M529.4,245.6c0.5,1.6,0.9,3.3,1.3,5.1c-0.1-0.1-0.2-0.1-0.3-0.2
	C530.1,248.9,529.8,247.2,529.4,245.6z M485,207.8c0.5,0.5,1.1,1.1,1.8,2c0.1,0.1,0.1,0.2,0.2,0.3c-0.1,0-0.3-0.1-0.4-0.1
	c-1-1-1.9-1.9-2.9-2.6C484.2,207.5,484.6,207.7,485,207.8z M467.3,204c-0.2,0-0.4-0.1-0.6-0.1c-0.7-0.7-1.4-1.4-2.1-2
	c0.2,0,0.5,0.1,0.7,0.1C465.9,202.5,466.6,203.2,467.3,204z M444.4,215.6c-2.2-1-4.5-1.9-6.7-2.8c-1-0.5-2-0.9-3-1.3
	c2.5,0.2,5.2,0.6,8.3,1.1C443.5,213.5,443.9,214.5,444.4,215.6z M421,225.5c1.6,0.4,3.1,0.7,4.8,1c0.3,0.1,0.7,0.3,1.1,0.4
	c-4.7-1.1-7.6-1.6-7.6-1.6s-0.9,2,4.7,3.9c-0.2,0-0.5,0-0.7,0c0,0,0,0,0,0s0,0,0,0c-2.1,0-3.7,0-4.8,0c-0.4-0.5-0.8-0.6-0.8-0.6
	s-0.1,0.2-0.4,0.6c-0.1,0-0.2,0-0.2,0s0,0.1,0.1,0.3c-0.7,1.2-2,3.6-3.6,7c0.1-0.4,0.3-0.9,0.4-1.3c0.9-1.7,1.8-3.4,2.6-5
	c1.2-2.7,1.7-4.5,1.7-5.8C418.9,224.9,419.8,225.2,421,225.5z M404.6,274.7c1.5-7.9,3.3-14.1,5.1-19.1c0.1-0.1,0.2-0.3,0.3-0.4
	c-1,4.2-1.9,8.9-2.5,13.8c-1,2-2,4.1-3,6.2C404.5,275,404.5,274.8,404.6,274.7z M437.9,271.4c0,0.1,0,0.1,0,0.2c0,0,0,0.1-0.1,0.1
	C437.9,271.5,437.9,271.5,437.9,271.4z M438.9,262.3c0.2-2.2-1.1-2.7-1.1-2.7s-0.4,0.4-1.1,1.2c0.1-0.2,0.1-0.3,0.2-0.5
	c0.1-0.4,0.2-0.7,0.3-1.1c0.7,0.2,1.4,0.3,2.3,0.4c-0.3,0-0.4,0-0.4,0s-0.1,1.4,2.3,2.8C440.4,262.4,439.6,262.3,438.9,262.3z
	 M482,269.2c0.2,0.2,0.5,0.4,0.7,0.6c-0.2-0.1-0.5-0.2-0.7-0.3C482,269.4,482,269.3,482,269.2z M487.4,268.9
	c0.4,0.2,0.8,0.5,1.2,0.7c0,0.2,0,0.3,0,0.5C488.2,269.7,487.8,269.3,487.4,268.9z M505.3,274.5c0.1-0.6,0.2-1.2,0.3-1.9
	c0.9,0.4,1.9,0.8,2.8,1.1c-0.1,0.9-0.2,1.8-0.3,2.6C507.2,275.7,506.3,275.1,505.3,274.5z M523,277.7c0.3,0.1,0.6,0.3,1,0.4
	c0,0.1,0,0.1,0,0.2C523.7,278,523.4,277.9,523,277.7C523,277.7,523,277.7,523,277.7z M524.1,278.3c0-0.1,0-0.1,0-0.2
	c0.3,0.1,0.6,0.3,1,0.4c0,0.1,0,0.2,0,0.3C524.7,278.6,524.4,278.5,524.1,278.3z M531.9,265.9c-0.1-1.7-0.2-3.3-0.3-5.1
	c0.3,0.1,0.6,0.2,0.9,0.4c0.3,2.6,0.5,5.3,0.6,8.2C532.8,268.3,532.4,267.1,531.9,265.9z M531.6,259.5c-0.2-2.8-0.6-5.7-1.1-8.5
	c0.1,0,0.2,0.1,0.3,0.1c0.6,2.8,1.2,5.7,1.6,8.9C532.1,259.8,531.8,259.6,531.6,259.5z M523.3,224.5c-0.2-0.1-0.4-0.2-0.5-0.3
	c-0.7-0.7-1.4-1.3-2.1-1.8c-2.5-4.2-5.3-8.2-8.2-11.7c0.7,0.1,1.3,0.3,1.9,0.4C517.4,215.2,520.4,219.7,523.3,224.5z M431.8,213.9
	c-4.6-0.6-8.4-0.9-11.1-1c-1.9-0.7-3.6-1.3-4.9-1.8c2,0,4,0,6.2,0C424.9,211.8,428,212.6,431.8,213.9z M417.8,219.3
	C417.8,219.3,417.8,219.3,417.8,219.3c0,0.4,0.3,1.2,1.7,2c-1.8-0.2-2.7-0.2-2.7-0.2s-0.1,0.1-0.1,0.4c-1.4-0.2-2.2-0.2-2.2-0.2
	s-0.1,1,1.6,2.2c-0.1,0.2-0.2,0.4-0.4,0.6c-0.2-0.1-0.4-0.2-0.4-0.2s-0.7,0.9-1.8,2.6c0.2-1.8-0.4-2.5-0.8-2.8c0,0,0,0,0,0
	c1.2-2.1,1.9-3.7,2.2-5C415.7,218.9,416.7,219.1,417.8,219.3z M390.3,265.3c1.7-4.7,3.5-8.8,5.1-12.4c-1.4,4-2.6,8.2-3.6,12.6
	c-0.1,0.4-0.2,0.8-0.2,1.2c-0.4,1.3-0.8,2.7-1.1,4c-0.3,1.2-0.6,2.3-0.8,3.5c-0.1,0.2-0.1,0.5-0.2,0.7c0.2-3.1,0.5-6.3,0.8-9.3
	C390.2,265.4,390.2,265.3,390.3,265.3z M400.8,309.6c1.4-6.9,2.9-13.4,4.4-18.6c0.5-1.6,0.9-3.1,1.4-4.5c0,0.5,0,1.1,0,1.6
	c-0.1,0.3-0.1,0.7-0.2,1c-1.3,7.5-2.1,14.2-2.5,20.2c-1.2,2.5-2.4,5.1-3.5,7.8C400.5,314.8,400.7,312.2,400.8,309.6z M436.1,284.1
	c0,1.2-0.1,2.5-0.1,4c-0.4,1-0.9,2-1.4,3.1c-0.2-1.4-0.3-2.8-0.4-4C434.9,286.2,435.5,285.1,436.1,284.1z M442.6,284.2
	c0.8-2.4,1.1-4.1,1-5.4c0.3,0.3,0.8,0.6,1.3,0.9C444.2,281.1,443.4,282.6,442.6,284.2z M442.8,276.1c-0.3-0.3-0.5-0.5-0.5-0.5
	s-1.6,2.7-3.9,7.5c0-0.2,0-0.4,0-0.6c0-0.7-0.1-1.4-0.2-1.9c0.8-1.3,1.5-2.6,2.2-3.9c0.4-0.8,0.7-1.5,1-2.2c1,0.5,2.2,1,3.8,1.4
	c0.5,0.2,1,0.3,1.5,0.4c-0.1,0.2-0.2,0.3-0.3,0.5C444.7,276.6,443.4,276.3,442.8,276.1z M454.2,270.3c-1.1-0.8-2-1.5-2.9-2.1
	c1,0.1,2,0.3,3.1,0.4c0.8,0.7,1.7,1.6,2.7,2.5C456.1,270.8,455.1,270.5,454.2,270.3z M492.4,273.8c-0.1,0-0.2-0.1-0.3-0.1
	c0,0,0,0,0,0c-0.8-0.8-1.7-1.7-2.7-2.7c0-0.3,0.1-0.5,0.1-0.8c1.7,1,3.5,2.1,5.3,3.2c0,0.5,0,0.9-0.1,1.4
	C493.9,274.4,493.1,274.1,492.4,273.8z M514.7,281c0.2-1.1,0.5-2.6,0.7-4.3c1.1,0.5,2.2,1,3.3,1.4c-0.2,2-0.4,3.8-0.6,5.5
	C517.1,282.8,515.9,281.9,514.7,281z M534.6,261.2c-0.1-1.4-0.2-2.8-0.3-4.1c0.2,1.4,0.4,2.9,0.5,4.2
	C534.8,261.2,534.7,261.2,534.6,261.2z M535.6,256.1c0.4,0.9,0.6,1.5,0.6,1.5s-0.2-0.7-0.6-1.8c-0.2-1.9-0.4-3.9-0.8-5.8
	c1.3,3.9,2.3,8.2,3,12.9c-0.1-0.1-0.3-0.1-0.4-0.2c-0.4-0.2-0.9-0.5-1.4-0.7C536,260,535.8,258.1,535.6,256.1z M530.1,231.2
	c0.3,0.2,0.6,0.4,0.9,0.6c0.1,0.1,0.1,0.2,0.2,0.3c-0.3-0.1-0.5-0.2-0.8-0.4C530.2,231.6,530.2,231.4,530.1,231.2z M513.9,203.8
	c-0.1-0.1-0.1-0.1-0.2-0.2c-3.2-4-7.2-8.4-11.3-12.5c6.4,4.9,14,11.9,21.4,21.2c-0.9-0.3-1.9-0.7-2.9-1
	C518.7,208.8,516.4,206.3,513.9,203.8z M508.3,203.6c1.3,1.5,2.6,3.1,3.8,4.7c-0.9-0.3-1.8-0.6-2.7-0.9c-4.4-5.7-9.3-11-14.4-14.7
	c-0.9-0.6-1.8-1.3-2.8-1.9c0.6,0.3,1.3,0.6,1.9,1C498.7,194.8,503.6,198.7,508.3,203.6z M502.9,213.4c-0.3-0.2-0.6-0.3-1-0.5
	c-2-1.9-4.3-4-6.8-6c0.7,0.1,1.4,0.3,2.1,0.4C499.1,209.3,501,211.3,502.9,213.4z M429.6,196.8c0.2,0.1,0.3,0.2,0.5,0.4
	c-9.5,0.8-17.1,2.1-21.2,3c0-0.2,0-0.4,0-0.5c2.5-1.1,5.8-2.3,9.6-3.7C421.6,195.9,425.2,196.1,429.6,196.8z M439.6,203
	c0.1,0.1,0.2,0.2,0.3,0.3c0.1,0.1,0.1,0.2,0.2,0.3C440,203.5,439.8,203.2,439.6,203C439.6,203,439.6,203,439.6,203z M404.2,222.5
	c-1.9,2.5-4.5,6.1-7.3,10.7c1.5-4.2,3.1-7.6,4.5-10.6c1.7-2,3.3-3.8,4.7-5.7C405.5,218.4,404.9,220.3,404.2,222.5z M398.8,320
	c0,0.3,0,0.5,0.1,0.8c-0.1,0.2-0.2,0.4-0.3,0.7c0-0.1,0-0.3,0-0.4C398.7,320.6,398.8,320.3,398.8,320z M411.8,305.4
	c0.1,5.3,0.3,10.1,0.7,14.4c-0.3,1.1-0.6,2.2-0.9,3.4c0,0.1,0,0.1-0.1,0.2c-0.1-2.7-0.3-7.5-0.5-13.3
	C411.3,308.5,411.6,306.9,411.8,305.4z M414.3,300.6c0.8-1.3,1.5-2.6,2.3-3.9c-0.1,3.7-0.1,7.2,0,10.5c-0.8,2.1-1.5,4.3-2.2,6.5
	C414.2,309.2,414.2,304.7,414.3,300.6z M419.9,294c0.1-1.1,0.2-2.1,0.3-3.1c0.9-1.4,1.8-2.7,2.7-4c-0.9,3.3-1.6,6.7-2.3,10.2
	c-0.3,0.7-0.6,1.4-0.9,2.1C419.7,297.4,419.8,295.6,419.9,294z M425.1,304c0-0.1,0-0.2,0-0.3c0.1-0.3,0.3-0.5,0.4-0.8
	c0.3,3.7,0.7,7.1,1.2,10.4c-1,3.5-2,7.1-2.8,10.8C424.2,316.8,424.5,309.7,425.1,304z M427.4,299.4c0.1-0.2,0.2-0.5,0.4-0.7
	c0,2.2,0.1,4.5,0.3,6.8c0.1,0.9,0.2,1.8,0.3,2.7c-0.1,0.2-0.1,0.4-0.2,0.6C427.8,305.5,427.5,302.3,427.4,299.4z M447.6,285.6
	c0.3-0.7,0.6-1.4,0.9-2.1c0.3-0.6,0.5-1.2,0.7-1.8c0.3,0.1,0.5,0.2,0.8,0.3c-0.5,1.1-1.3,2.9-2.4,5.3
	C447.6,286.7,447.6,286.1,447.6,285.6z M459.7,271.9c-1-1-2-2-3-2.9c1.2,0.2,2.5,0.4,3.8,0.6c1.8,1.3,3.8,2.7,5.9,4.4
	C464.1,273.2,461.8,272.5,459.7,271.9z M470.5,274.4c-1.6-1.4-3.2-2.7-4.8-3.9c0.2,0,0.4,0.1,0.7,0.1c2,1.7,4.2,3.6,6.5,5.7
	c-0.2-0.1-0.3-0.1-0.5-0.2C471.8,275.5,471.1,275,470.5,274.4z M487.6,276.7c0.2,0.1,0.4,0.1,0.5,0.2c0,0.1,0,0.2,0,0.3
	C487.9,277,487.8,276.8,487.6,276.7z M495.1,274.9c0-0.4,0.1-0.8,0.1-1.3c1.4,0.8,2.7,1.7,4.1,2.5c0,0.2,0,0.3,0,0.5
	c-0.7-0.3-1.5-0.7-2.3-1C496.3,275.4,495.7,275.1,495.1,274.9z M499.7,276.5c0.8,0.5,1.6,1,2.3,1.5c-0.8-0.4-1.6-0.7-2.4-1.1
	C499.7,276.7,499.7,276.6,499.7,276.5z M528.4,291.8c-2.8-2.3-6-4.9-9.6-7.7c0.3-1.7,0.6-3.6,0.9-5.5c1.5,0.6,2.9,1.3,4.3,1.9
	c0,0.3,0,0.5,0,0.5s0-0.2,0-0.5c0.2,0.1,0.4,0.2,0.7,0.3c-0.4,2.3-0.7,3.7-0.7,3.7s0.3-1.3,0.8-3.6c2.4,1.1,4.7,2,6.6,2.9
	c0,1.9-0.1,3-0.1,3s0.1-1.1,0.2-2.9c0.5,0.2,1,0.4,1.5,0.6c-0.1,3.7-0.4,7.1-0.6,9.9C531.2,293.5,529.9,292.6,528.4,291.8z
	 M531.7,282.5c0-0.4,0.1-0.9,0.1-1.4c0.5,0.2,0.9,0.4,1.4,0.6c0,0.6,0,1.1,0,1.6C532.7,283.1,532.2,282.8,531.7,282.5z M534.3,282.2
	c1.7,0.7,3.3,1.3,4.8,1.9c0,0.9,0,1.8,0,2.6c-0.2-0.1-0.4-0.2-0.6-0.3c-1.3-0.7-2.7-1.5-4.3-2.4
	C534.2,283.3,534.3,282.8,534.3,282.2z M535.6,280c0.2-2.7,0.7-9.5,0.4-17.4c0.8,0.3,1.4,0.5,1.9,0.7c0.2,1.6,0.4,3.3,0.6,5.1
	c0.4,4.8,0.6,9.4,0.6,13.5C538,281.2,536.8,280.6,535.6,280z M539.7,261.9c0.1,0.5,0.1,0.9,0.2,1.4c1.1,7.7,1.5,14.7,1.6,19.8
	c-0.5-0.3-1-0.5-1.5-0.8C540.4,276.1,540.4,268.9,539.7,261.9z M542.7,263c0,0.5,0.1,1,0.1,1.4c-0.6-2-1.3-4-2-6.1
	c-0.7-5-1.9-9.8-3.6-13.9c-1.6-3.8-3.9-8.4-6.6-12c0.3,0.1,0.6,0.2,0.8,0.3c3.2,4.9,8.7,15.1,11.1,29.2
	C542.7,262.2,542.7,262.6,542.7,263z M476.2,182.6c-0.3,0-0.5-0.1-0.8-0.1c-1.1-0.3-2.2-0.4-3.1-0.4c0.3,0,0.6-0.1,0.8-0.1
	C474,182.1,475,182.3,476.2,182.6z M491.5,202.4c-1.3-0.3-2.7-0.6-4.1-1c-2.5-1.6-4.9-2.9-7.2-3.8c-2.2-2-4.4-3.8-6.7-5.2
	c-0.8-0.5-1.6-1-2.5-1.5c3.1,0.9,6.5,2.2,10,3.8C484.3,196.8,487.9,199.4,491.5,202.4z M404.5,197.3c1.9-0.1,3.8-0.4,5.9-0.7
	c-3.4,1.4-5.9,2.5-7.4,3.2c0.8-1,1.1-1.8,1.2-2.5C404.3,197.3,404.4,197.3,404.5,197.3z M436.2,202.8c0.8,0.9,1.6,1.8,2.3,2.7
	c-8.1-0.3-15.1,0-20.1,0.3c-2.3-0.6-4.1-1.1-5.4-1.4C418.6,203.7,425.3,202.4,436.2,202.8z M411.2,210.8c0.2,0.7,1,2,4.5,3.4
	c0.1,0,0.2,0.1,0.3,0.1c-0.7,0-1,0-1,0s0,0.1,0,0.3c-0.2,0-0.4,0-0.6,0c-0.1-0.2-0.2-0.2-0.2-0.2s-0.1,0.1-0.2,0.2
	c-0.5,0-0.7,0-0.7,0s-0.1,0.2,0,0.5c-1.9,0-3,0-3,0s0,0.8,1.1,1.7c-0.2,0.2-0.6,0.7-1.2,1.5c-0.2-0.2-0.3-0.2-0.3-0.2
	s-0.3,0.3-0.8,0.9c0-0.1,0.1-0.2,0.1-0.4c1.2-4.1,0.6-5.6,0-6.2c0.4-0.7,0.7-1.4,1-2C410.5,210.6,410.8,210.7,411.2,210.8z
	 M490.2,279.1c-0.5-0.5-1.1-1-1.7-1.6c0-0.2,0-0.3,0.1-0.5c1.2,0.4,2.5,0.9,3.8,1.4c0.6,0.2,1.3,0.5,2,0.8c-0.1,1.2-0.2,2.2-0.2,2.9
	C492.9,281.1,491.6,280.1,490.2,279.1z M533,294.6c0.4-2.8,0.8-6.1,1.1-9.8c2.3,1,4,1.8,5,2.1c-0.1,5.2-0.4,9.2-0.6,11.2
	C536.7,297,534.9,295.8,533,294.6z M539.7,287.2C539.8,287.2,539.8,287.1,539.7,287.2c0.1-0.9,0.1-1.8,0.2-2.7
	c0.6,0.2,1.1,0.4,1.6,0.7c0,4-0.1,6.4-0.1,6.4s0.2-2.4,0.4-6.3c0.3,0.1,0.7,0.3,1,0.4c-0.2,2.1-0.3,3.4-0.3,3.4s0.2-1.2,0.5-3.3
	c0.3,0.1,0.5,0.2,0.8,0.3c-0.2,6.5-0.7,11.8-1.1,15c-1.3-0.9-2.7-1.9-4.2-2.8C538.8,296.2,539.3,292.2,539.7,287.2z M543.3,284.1
	c0.2-1.8,0.5-4,0.7-6.5c0,2.4,0,4.6,0,6.8C543.7,284.3,543.5,284.2,543.3,284.1z M545.4,274.8c2.6,7.5,3.9,12.1,3.9,12.1
	s-1.3-5.6-3.9-14.1c0-7.3-0.6-14.8-2.5-21.1c-0.1-0.2-0.1-0.4-0.2-0.6c-0.4-2-1-3.8-1.6-5.6c-1.2-3.1-2.9-6.8-4.9-10
	c0.5,0.4,1,0.7,1.6,1.1c3.1,4.4,11.1,17.6,11.8,36.8c0.2,5.2,0.1,10-0.2,14.1c-1.4-0.8-2.9-1.6-4.6-2.5
	C545.2,281.7,545.4,278.3,545.4,274.8z M550.7,263.7c1.4,5.8,2.4,12.6,2.3,20.1c0,1.9-0.1,3.7-0.2,5.5c-0.2-0.1-0.4-0.2-0.6-0.3
	c-0.7-0.3-1.3-0.7-2-1.1C551,280.8,551.6,271.9,550.7,263.7z M543.2,240.6c0.1,0.1,0.2,0.1,0.2,0.2c1.2,1.6,2.5,3.6,3.8,6
	c-1-1.9-2.2-3.5-3.4-4.7C543.7,241.6,543.4,241.1,543.2,240.6z M544.9,239.3c-1.2-1.3-2.3-2.3-3.5-2.9c-3.4-7.5-7.3-15.1-11.6-22
	c0.1,0,0.1,0-0.1-0.1c-3-4.8-6.3-9.2-9.8-12.9c-3.8-4.1-8.7-8.7-13.7-12.6c0.3,0.2,0.6,0.3,0.9,0.5c3.7,2.5,7.6,5.5,11.5,9.2
	c0.2,0.2,0.3,0.3,0.5,0.5c10,11.6,15.7,22.5,15.7,22.5s-2.9-6.3-7.6-13.9c0.9,1.1,1.8,2.3,2.7,3.5c12.1,16.3,18.9,30.9,18.9,30.9
	s-9.1-22.1-22.3-39c0.1,0.1,0.3,0.3,0.4,0.4c6.2,7.3,12.5,16.4,17.9,27.4c2.2,4.5,4.2,8.9,6,13.1
	C548.9,242.4,546.9,240.9,544.9,239.3z M557.5,181.2c-1.5-1-2.9-1.8-4.2-2.3c0.3,0,0.7,0.1,1,0.1c1.1,0.7,2.4,1.6,3.9,2.7
	C558,181.5,557.8,181.4,557.5,181.2z M460.4,184.3c-0.4,0.1-0.8,0.3-1.2,0.5c0,0,0.3,0.1,0.9,0.2c-0.3,0.2-0.6,0.3-0.9,0.5
	c0,0,1.7,0.1,4.5,0.6c0.4,0.2,0.9,0.3,1.4,0.5c-1.4-0.3-2.9-0.4-4.2-0.5c-1.2-0.5-2.5-0.9-3.7-1.2
	C458.3,184.7,459.4,184.5,460.4,184.3z M454,187.2c-0.4,0.2-0.8,0.5-1.2,0.8c0,0,1.5-0.1,4.2,0.2c4.7,1.7,10.3,4.3,16.1,8.1
	c-0.6,0.1-1.2,0.2-1.8,0.5c0,0,2.1,0.8,5.5,2.5c-2.6-0.5-5.2-0.9-8-1.3c-3.7-2.3-7.3-4.1-10.5-4.7c-5.2-2.8-10.1-4.2-13.1-2.5
	c0,0,2.2,0.7,5.9,2.4c-1.6-0.4-3.1-0.7-4.8-1.1c-0.6-0.1-1.3-0.3-1.9-0.4c-2.3-1-4.5-1.8-6.5-2.1c4.1-1.1,8.4-2.3,13.1-3.4
	C451.9,186.6,452.9,186.9,454,187.2z M357.3,251.5c5.6-9.1,12.7-20.3,18.1-26.9c12-14.8,19.7-17.9,25.4-22.7
	c0.3-0.2,0.5-0.5,0.8-0.7l0.4,0.8c-0.6,0.2-0.9,0.2-0.9,0.2s0.1,0.3,0.4,0.8C394.4,208.8,372.9,227.6,357.3,251.5z M405.2,206.6
	c0.6-0.6,1-1.2,1.4-1.7c0.6,0,1.3,0,2.1,0c0.7,0,1.4-0.1,2.2-0.2c0.1,0.2,0.2,0.4,0.4,0.6c-1.1-0.2-1.8-0.3-1.8-0.3
	s-0.2,0.4,0.2,1.1c-0.3,0.2-0.7,0.7-1.3,1.3c-1.5,0.1-2.4,0.3-2.4,0.3s0.1,0.6,0.8,1.4c-0.1,0.1-0.3,0.3-0.4,0.4
	c-0.2-0.3-0.4-0.4-0.5-0.5c-0.3-1.4-1.2-1.5-1.2-1.5s-0.4,0.6-1,1.8c-0.1-0.3-0.2-0.6-0.3-0.8C404,207.8,404.6,207.2,405.2,206.6z
	 M385,281.8c0,2.5,0,4.9,0,7.1c-0.2,0.5-0.4,1-0.6,1.5c-2.2,5.4-4,10.5-5.6,15.3C380.7,298,382.8,289.6,385,281.8z M397,280.9
	c0-0.1,0.1-0.1,0.1-0.2c0.3,3,0.6,5.8,0.9,8.4c0,0.7-0.1,1.4-0.1,2.1c-1.1,3.1-2.1,6.3-3,9.5c-1.5,5.4-2.8,10.6-3.8,15.5
	C392.6,305.9,394.6,292.2,397,280.9z M389.2,350.1c1.6-8.6,3.5-18.7,5.7-28.4c-0.7,5.2-1.2,10-1.5,14.3
	C391.8,341,390.4,345.7,389.2,350.1z M432.7,321.4c1.4-4.6,2.8-8.7,4.2-12.3c0,0.1,0.1,0.3,0.1,0.4c-1.3,5.3-2.6,11.1-3.5,17.1
	C433.2,325,433,323.2,432.7,321.4z M447.3,331.8c1.8-6.9,3.6-11.7,4.8-16.6c0.4-1.8,0.6-3.2,0.7-4.3c1.5-2.9,2.8-5.5,4-8
	c0.1-0.2,0.1-0.4,0.2-0.5c0.8,0.5,1.7,1,2.9,1.6c0.1,0,0.1,0.1,0.2,0.1c-0.1,0.1-0.1,0.3-0.2,0.5c-1.4-0.6-2.3-0.9-2.3-0.9
	s-0.8,1.1,1.3,3.1c-2.3,5.6-6.6,16.9-9.8,30.8C448.7,336,448,334,447.3,331.8z M470.2,326.8c0.2,0.1,0.4,0.2,0.6,0.3
	c0,0.4,0,0.9,0.3,1.6c-0.1-0.1-0.2-0.1-0.2-0.1s-0.6,1.6,3.7,5c0,0,0,0,0,0c-2.1-1.4-3.8-2.5-5.1-3.3c0,0,0,0,0,0
	c0.2-1.6,0.3-2.9,0.2-3.9C469.9,326.6,470,326.7,470.2,326.8z M498.9,399.8c-7-12.7-8.9-21-10.3-27.5c2.9,4.4,6.3,10,10.2,17.8
	c3.5,7.2,7.9,17.9,11.7,27.5C506,411.3,501.7,404.8,498.9,399.8z M503.6,394.2c-0.5-1.2-1.1-2.4-1.6-3.7
	c-4.7-10.2-10.4-19.2-15.3-26c-1.1-3.2-2.5-4.3-3.4-4.6c-0.2-0.3-0.5-0.6-0.7-0.9c-0.2-2.3-0.3-4.5-0.6-6.5
	c3.3,4.1,7.4,9.6,12.4,19.7C497.2,377.8,500.6,386.4,503.6,394.2z M503.1,355.2c1.5,1.8,3.1,3.8,4.7,6.1c-2.2-2.6-4.5-5.2-7-8
	c-1.2-1.3-2.3-2.5-3.5-3.6c-0.3-0.6-0.7-1.1-1-1.7c-0.3-0.5-0.6-0.9-0.9-1.4C497.8,349,500.3,351.8,503.1,355.2z M494.8,337.4
	c0.4,0.4,0.9,0.9,1.3,1.4c-2-1.5-4.1-3-6-4.3c-4-3.3-7.7-5.9-10.5-7.7c-1.1-1.1-2.1-2.1-3-3c3,1.9,6.3,3.6,10.6,6.2
	C489.4,332,491.9,334.4,494.8,337.4z M488.1,317.4c-2.7-1.8-5.3-3.4-7.8-4.9c2.1,1.1,4.4,2.3,6.9,3.7
	C487.5,316.6,487.8,317,488.1,317.4z M481.4,309c-0.3-0.2-0.6-0.3-0.9-0.5C480.8,308.7,481.1,308.8,481.4,309
	C481.4,309,481.4,309,481.4,309z M484.3,306.2c-1.6-0.8-3.2-1.5-4.7-2.2c-1.5-1.6-3-3.2-4.4-4.7c1.8,0.7,3.7,1.5,5.9,2.4
	C482.3,303.5,483.4,305,484.3,306.2z M483.5,289.7c-4.8-2.7-9.6-5.1-14.1-7.1c-0.1-0.1-0.2-0.2-0.3-0.3c3.3,1.1,6.9,2.3,10.9,4
	C481.2,287.5,482.4,288.6,483.5,289.7z M498.3,285.4c-1.3-1.1-2.7-2.1-4.1-3.2c0.1-0.7,0.2-1.6,0.4-2.8c0.2,0.1,0.3,0.1,0.5,0.2
	c1.3,1.1,2.5,2,3.6,2.9C498.5,283.7,498.4,284.7,498.3,285.4z M498.7,281.6c-0.4-0.4-0.8-0.8-1.2-1.1c0.4,0.2,0.8,0.4,1.3,0.5
	C498.8,281.2,498.7,281.5,498.7,281.6z M542.4,303.6c0,0-0.1,0-0.1-0.1c-1.5-1-3.2-2.2-5.2-3.5c1.9,1,3.7,2,5.4,2.8
	C542.5,303.1,542.4,303.4,542.4,303.6z M542.9,301.1c0.6-3.2,1.4-8.5,1.9-14.7c1.8,0.7,3.3,1.4,4.6,1.9c-0.5,7.8-1.3,12.9-1.3,12.9
	s1.1-5.3,2-12.7c1.2,0.5,2.1,0.8,2.7,1c-0.3,6.9-1,12.9-1.6,17.3C548.8,305.3,546.1,303.3,542.9,301.1z M553.4,263.8
	c-0.1-0.3-0.1-0.6-0.2-0.8c-1.1-4.5-3-10.1-5.3-14.7C550.1,252.4,552.2,257.7,553.4,263.8z M547.5,247.3c0,0.1,0.1,0.1,0.1,0.2
	C547.6,247.4,547.5,247.4,547.5,247.3z M564.6,256.1c-3.6-3.4-7.3-6.6-10.9-9.7c-3.2-9-7.3-18.8-12-27.8c2.9,3.3,4.5,5.4,4.5,5.4
	s-2.1-3-5.6-7.3c-2.4-4.4-5-8.5-7.7-12.2c6.4,7.2,10,12.8,10,12.8s-14.8-25.1-31.6-34.5c0.7,0.3,1.5,0.7,2.3,1.1
	c6.2,4,13.5,10,19.9,18.8c9.5,12.9,15,24.5,15,24.5s-6.4-15.5-15.9-28.5c9.2,10.9,14.4,20.9,14.4,20.9s-4.4-9.7-11.4-19.5
	c5.6,6.5,11.2,14.7,16.1,24.6C557.8,236.9,562,248.3,564.6,256.1z M539.4,195.6c4.3,4.3,7.9,8.4,10.8,11.8c0.7,1.1,1.4,2.1,2.1,3.3
	c1.6,2.6,3,5.1,4.3,7.6C551.8,210.8,545.9,202.5,539.4,195.6z M556.1,206.3c2,2.5,4,5.3,5.9,8.2
	C560.2,211.9,558.2,209.1,556.1,206.3z M546.9,191.3c-0.3-0.3-0.7-0.6-1-1c1.4,1.2,2.9,2.4,4.3,3.8c0.3,0.3,0.6,0.6,0.9,1
	c0.6,0.7,1.2,1.3,1.8,2C551.1,195.1,549,193.2,546.9,191.3z M593.6,184.7c2.7,1.5,6.1,3.6,9.7,6.3c-2.6-1.9-5.1-3.4-7.4-4.2
	c-1.2-0.9-2.4-1.7-3.5-2.4C592.8,184.5,593.2,184.6,593.6,184.7z M621.5,209.7c-0.1-0.2-0.3-0.4-0.4-0.5c-4.2-5.4-10-11.8-15.8-16.5
	C610.6,196.8,616.3,202.4,621.5,209.7z M604.1,191.6c0.1,0.1,0.1,0.1,0.2,0.2C604.3,191.7,604.2,191.7,604.1,191.6z"/>
</svg>
