<?xml version="1.0" encoding="utf-8"?>
<!-- Generator: Adobe Illustrator 18.1.1, SVG Export Plug-In . SVG Version: 6.00 Build 0)  -->
<svg version="1.1" id="Layer_1" xmlns="http://www.w3.org/2000/svg" xmlns:xlink="http://www.w3.org/1999/xlink" x="0px" y="0px"
	 viewBox="0 0 863.3 863.3" enable-background="new 0 0 863.3 863.3" xml:space="preserve">
<g>
	<path fill="#FFFFFF" d="M679.8,672.9H181.9l241.7-240.9L181.9,190.4h499.5L438.9,432.1L679.8,672.9z M208,662.2h445.7L431.2,439.7
		L208,662.2z M431.3,424.4l224-223.3H208L431.3,424.4z"/>
</g>
<g>
	<g>
		<rect x="173.5" y="159.7" fill="#FFFFFF" width="516.4" height="10.8"/>
	</g>
	<g>
		<rect x="173.5" y="692.8" fill="#FFFFFF" width="516.4" height="10.8"/>
	</g>
</g>
<g>
	<path fill="#FFFFFF" d="M431.7,806.6c-50.6,0-99.7-9.9-146-29.5c-44.7-18.9-84.8-45.9-119.2-80.4c-34.4-34.4-61.5-74.5-80.4-119.2
		c-19.6-46.2-29.5-95.3-29.5-146c0-50.6,9.9-99.7,29.5-146c18.9-44.7,45.9-84.8,80.4-119.2S241,105,285.7,86.2
		c46.2-19.6,95.3-29.5,146-29.5c50.6,0,99.7,9.9,146,29.5c44.7,18.9,84.8,45.9,119.2,80.4c34.4,34.4,61.5,74.5,80.4,119.2
		c19.6,46.2,29.5,95.3,29.5,146c0,50.6-9.9,99.7-29.5,146c-18.9,44.7-45.9,84.8-80.4,119.2c-34.4,34.4-74.5,61.5-119.2,80.4
		C531.4,796.7,482.3,806.6,431.7,806.6z M431.7,67.5c-49.2,0-96.9,9.6-141.8,28.6c-43.4,18.3-82.3,44.6-115.8,78
		c-33.4,33.4-59.7,72.4-78,115.8c-19,44.9-28.6,92.6-28.6,141.8s9.6,96.9,28.6,141.8c18.3,43.4,44.6,82.3,78,115.8
		c33.4,33.4,72.4,59.7,115.8,78c44.9,19,92.6,28.6,141.8,28.6s96.9-9.6,141.8-28.6c43.4-18.3,82.3-44.6,115.8-78
		c33.4-33.4,59.7-72.4,78-115.8c19-44.9,28.6-92.6,28.6-141.8s-9.6-96.9-28.6-141.8c-18.3-43.4-44.6-82.3-78-115.8
		c-33.4-33.4-72.4-59.7-115.8-78C528.5,77.1,480.8,67.5,431.7,67.5z"/>
</g>
<g>
	<path fill="#FFFFFF" d="M431.7,863.3c-58.3,0-114.8-11.4-168-33.9c-51.4-21.7-97.6-52.9-137.2-92.5
		c-39.6-39.6-70.8-85.8-92.5-137.2C11.4,546.5,0,489.9,0,431.7c0-58.3,11.4-114.8,33.9-168c21.7-51.4,52.9-97.6,92.5-137.2
		s85.8-70.8,137.2-92.5C316.9,11.4,373.4,0,431.7,0c58.3,0,114.8,11.4,168,33.9c51.4,21.7,97.6,52.9,137.2,92.5
		c39.6,39.6,70.8,85.8,92.5,137.2c22.5,53.2,33.9,109.8,33.9,168c0,58.3-11.4,114.8-33.9,168c-21.7,51.4-52.9,97.6-92.5,137.2
		c-39.6,39.6-85.8,70.8-137.2,92.5C546.5,851.9,489.9,863.3,431.7,863.3z M431.7,10.8c-56.8,0-111.9,11.1-163.8,33.1
		c-50.1,21.2-95.1,51.5-133.8,90.2c-38.7,38.7-69,83.7-90.2,133.8c-21.9,51.9-33.1,107-33.1,163.8s11.1,111.9,33.1,163.8
		c21.2,50.1,51.5,95.1,90.2,133.8c38.7,38.7,83.7,69,133.8,90.2c51.9,21.9,107,33.1,163.8,33.1s111.9-11.1,163.8-33.1
		c50.1-21.2,95.1-51.5,133.8-90.2s69-83.7,90.2-133.8c21.9-51.9,33.1-107,33.1-163.8s-11.1-111.9-33.1-163.8
		c-21.2-50.1-51.5-95.1-90.2-133.8c-38.7-38.7-83.7-69-133.8-90.2C543.6,21.9,488.5,10.8,431.7,10.8z"/>
</g>
<g>
	<g>
		
			<rect x="197.1" y="334.6" transform="matrix(0.7071 0.7071 -0.7071 0.7071 494.1549 36.9723)" fill="#FFFFFF" width="10.8" height="560.7"/>
	</g>
	<g>
		<path fill="#FFFFFF" d="M855.3,46.3L444,457.6c2.6,2.5,5.4,4.8,8.3,6.9L862.9,53.9L855.3,46.3z"/>
	</g>
</g>
<g>
	<g>
		<polygon fill="#FFFFFF" points="571.5,431.2 831.9,170.8 831.9,150.7 561.5,421.1 561.4,441.2 831.9,712.6 831.9,692.5 		"/>
	</g>
	<g>
		<polygon fill="#FFFFFF" points="291.8,432.1 31.4,692.5 31.4,712.6 301.9,442.2 301.9,422.1 31.4,150.7 31.4,170.8 		"/>
	</g>
</g>
</svg>
