<?xml version="1.0" encoding="utf-8"?>
<!-- Generator: Adobe Illustrator 18.1.1, SVG Export Plug-In . SVG Version: 6.00 Build 0)  -->
<svg version="1.1" id="Layer_1" xmlns="http://www.w3.org/2000/svg" xmlns:xlink="http://www.w3.org/1999/xlink" x="0px" y="0px"
	 viewBox="0 0 728.5 117.2" enable-background="new 0 0 728.5 117.2" xml:space="preserve">
<g>
	<path fill="#34A5A5" d="M57.8,48.5c2.7,1.6,4.7,3.6,6.2,5.9c1.4,2.3,2.1,4.9,2.1,7.7c0,2.5-0.6,5.2-1.8,8.1c-1.2,2.9-3,5.5-5.5,7.9
		c-2.5,2.4-5.7,4.5-9.5,6.1c-3.8,1.6-8.4,2.4-13.7,2.4c-4.8,0-9-0.7-12.6-2c-3.6-1.4-6.7-3.1-9.2-5.2c-2.5-2.1-4.4-4.5-5.8-7
		c-1.4-2.6-2.2-5.1-2.7-7.6l12.1-2.3c0.1,0.7,0.4,1.8,0.9,3.1c0.5,1.3,1.4,2.7,2.8,4c1.4,1.3,3.2,2.5,5.5,3.5c2.3,1,5.3,1.4,9,1.4
		c3.8,0,6.9-0.5,9.2-1.5c2.4-1,4.2-2.2,5.5-3.6c1.3-1.4,2.2-2.7,2.7-4.1c0.5-1.4,0.7-2.4,0.7-3c0-1.5-1.5-2.8-4.4-4.1
		c-2.9-1.3-7.5-2-13.8-2c-4.7,0-8.8-0.4-12.1-1c-3.3-0.7-6.1-1.6-8.4-2.8c-2.3-1.1-4.1-2.4-5.4-3.8c-1.3-1.4-2.3-2.7-3-4.1
		C6,43,5.6,41.8,5.4,40.6c-0.2-1.2-0.3-2.1-0.3-2.8c0-2.5,0.6-5.2,1.8-8.1c1.2-2.9,3.1-5.5,5.6-7.9c2.5-2.4,5.7-4.4,9.5-6
		c3.8-1.6,8.4-2.4,13.6-2.4c4.8,0,9,0.7,12.7,2.1c3.6,1.4,6.7,3.1,9.2,5.2s4.4,4.5,5.8,7c1.4,2.6,2.2,5.1,2.6,7.6l-12.1,2.4
		c-0.1-0.7-0.3-1.8-0.8-3.1c-0.5-1.3-1.4-2.7-2.8-4c-1.4-1.3-3.2-2.4-5.5-3.4c-2.3-1-5.3-1.4-9-1.4c-3.7,0-6.8,0.5-9.1,1.5
		c-2.4,1-4.2,2.2-5.6,3.6c-1.3,1.4-2.2,2.7-2.8,4c-0.5,1.3-0.8,2.3-0.8,2.9c0,0.6,0.3,1.3,1,2c0.6,0.7,1.7,1.4,3.1,2
		c1.4,0.6,3.3,1.1,5.6,1.5c2.3,0.4,5.2,0.6,8.5,0.6C45.1,43.8,52.5,45.4,57.8,48.5z"/>
	<path fill="#34A5A5" d="M79.4,13.3h12.3v73.3H79.4V13.3z"/>
	<path fill="#34A5A5" d="M134.1,13.3c3.7,0,7.2,0.8,10.8,2.5c3.5,1.6,6.6,4.1,9.3,7.5c2.7,3.4,4.9,7.6,6.6,12.7
		c1.7,5.1,2.5,11.1,2.5,18c0,6.9-0.9,12.5-2.6,16.8c-1.7,4.3-3.9,7.6-6.6,9.9c-2.7,2.3-5.8,3.9-9.3,4.7c-3.5,0.8-7,1.2-10.6,1.2
		h-28.9V13.3H134.1z M146.2,71.1c1-0.9,1.8-2,2.5-3.3c0.7-1.4,1.2-2.8,1.5-4.4c0.4-1.6,0.6-3.2,0.8-4.8c0.1-1.6,0.2-3.2,0.2-4.8
		c0-6.1-0.7-11-2.1-14.5c-1.4-3.6-2.8-6.2-4.2-8c-2.9-3.7-6.5-5.5-10.8-5.5h-16.9v48.5h16.9C139.8,74.2,143.9,73.2,146.2,71.1z"/>
	<path fill="#34A5A5" d="M231.4,25.8h-42.6v27.2h28.4l-2.4,12.4h-26v8.9h42.6v12.4h-54.9V74.2v-8.9V52.9V25.8v-6.2v-6.2h54.9V25.8z"
		/>
	<path fill="#34A5A5" d="M341.6,42.8c2.3,0.7,4.5,1.7,6.5,3c2,1.4,3.7,3,5.1,4.9c1.4,1.9,2.5,3.9,3.4,6.2c0.8,2.3,1.2,4.7,1.2,7.2
		c0,3.1-0.6,6-1.8,8.8c-1.2,2.7-2.8,5.1-4.8,7.1c-2,2-4.4,3.6-7.1,4.8c-2.7,1.2-5.6,1.8-8.7,1.8h-37.5V13.3h32.4
		c2.3,0,4.5,0.5,6.5,1.3c2,0.9,3.8,2.1,5.3,3.7c1.5,1.5,2.8,3.3,3.7,5.3c0.9,2,1.3,4.2,1.3,6.6c0,2.5-0.5,4.9-1.5,7
		C344.7,39.5,343.3,41.3,341.6,42.8z M332.5,74.5c1.5,0,3-0.3,4.3-0.9c1.4-0.6,2.6-1.4,3.6-2.4c1-1,1.8-2.2,2.4-3.6
		c0.6-1.4,0.9-2.8,0.9-4.3c0-1.5-0.3-3-0.9-4.3c-0.6-1.4-1.4-2.6-2.4-3.6c-1-1-2.2-1.8-3.6-2.4c-1.4-0.6-2.8-0.9-4.3-0.9h-22.3v22.4
		H332.5z M310.3,36.2h17.2c1.7,0,3.1-0.6,4.2-1.8c1.1-1.2,1.7-2.6,1.7-4.2c0-1.6-0.6-3-1.7-4.2c-1.1-1.2-2.5-1.8-4.2-1.8h-17.2V36.2
		z"/>
	<path fill="#34A5A5" d="M406.2,49.9l-1,1.7v35h-12.3v-35l-1-1.7l-21.1-36.6h14.3l14,24.2l14-24.2h14.3L406.2,49.9z"/>
	<path fill="#34A5A5" d="M546.7,48.5c2.7,1.6,4.7,3.6,6.2,5.9c1.4,2.3,2.1,4.9,2.1,7.7c0,2.5-0.6,5.2-1.8,8.1
		c-1.2,2.9-3,5.5-5.5,7.9c-2.5,2.4-5.7,4.5-9.5,6.1c-3.8,1.6-8.4,2.4-13.7,2.4c-4.8,0-9-0.7-12.6-2c-3.6-1.4-6.7-3.1-9.2-5.2
		c-2.5-2.1-4.4-4.5-5.8-7c-1.4-2.6-2.2-5.1-2.7-7.6l12.1-2.3c0.1,0.7,0.3,1.8,0.8,3.1c0.5,1.3,1.4,2.7,2.8,4
		c1.4,1.3,3.2,2.5,5.5,3.5c2.3,1,5.3,1.4,9,1.4c3.8,0,6.9-0.5,9.2-1.5c2.4-1,4.2-2.2,5.6-3.6c1.3-1.4,2.2-2.7,2.7-4.1
		c0.5-1.4,0.7-2.4,0.7-3c0-1.5-1.5-2.8-4.4-4.1c-2.9-1.3-7.5-2-13.8-2c-4.7,0-8.8-0.4-12.1-1c-3.3-0.7-6.1-1.6-8.4-2.8
		c-2.3-1.1-4.1-2.4-5.4-3.8c-1.3-1.4-2.3-2.7-3-4.1c-0.7-1.4-1.1-2.6-1.3-3.8c-0.2-1.2-0.3-2.1-0.3-2.8c0-2.5,0.6-5.2,1.8-8.1
		c1.2-2.9,3-5.5,5.5-7.9c2.5-2.4,5.7-4.4,9.5-6c3.8-1.6,8.4-2.4,13.6-2.4c4.8,0,9,0.7,12.7,2.1c3.6,1.4,6.7,3.1,9.2,5.2
		s4.4,4.5,5.8,7c1.4,2.6,2.2,5.1,2.7,7.6l-12.1,2.4c-0.1-0.7-0.3-1.8-0.8-3.1c-0.5-1.3-1.4-2.7-2.8-4c-1.4-1.3-3.2-2.4-5.6-3.4
		c-2.3-1-5.3-1.4-9-1.4c-3.7,0-6.8,0.5-9.1,1.5c-2.4,1-4.2,2.2-5.5,3.6c-1.3,1.4-2.2,2.7-2.8,4c-0.5,1.3-0.8,2.3-0.8,2.9
		c0,0.6,0.3,1.3,0.9,2c0.6,0.7,1.7,1.4,3.1,2c1.4,0.6,3.3,1.1,5.6,1.5c2.3,0.4,5.2,0.6,8.5,0.6C534,43.8,541.4,45.4,546.7,48.5z"/>
	<path fill="#34A5A5" d="M568.3,13.3h12.3v73.3h-12.3V13.3z"/>
	<path fill="#34A5A5" d="M623,13.3c3.7,0,7.2,0.8,10.8,2.5c3.5,1.6,6.6,4.1,9.3,7.5c2.7,3.4,4.9,7.6,6.5,12.7
		c1.7,5.1,2.5,11.1,2.5,18c0,6.9-0.8,12.5-2.5,16.8c-1.7,4.3-3.9,7.6-6.6,9.9c-2.7,2.3-5.8,3.9-9.3,4.7c-3.5,0.8-7,1.2-10.6,1.2
		h-28.9V13.3H623z M635.1,71.1c1-0.9,1.8-2,2.5-3.3c0.7-1.4,1.2-2.8,1.6-4.4c0.4-1.6,0.6-3.2,0.8-4.8c0.1-1.6,0.2-3.2,0.2-4.8
		c0-6.1-0.7-11-2-14.5c-1.4-3.6-2.8-6.2-4.2-8c-2.9-3.7-6.5-5.5-10.8-5.5h-16.9v48.5H623C628.7,74.2,632.8,73.2,635.1,71.1z"/>
	<path fill="#34A5A5" d="M720.3,25.8h-42.6v27.2h28.4l-2.4,12.4h-26v8.9h42.6v12.4h-54.9V74.2v-8.9V52.9V25.8v-6.2v-6.2h54.9V25.8z"
		/>
</g>
</svg>
