<?xml version="1.0" encoding="utf-8"?>
<!-- Generator: Adobe Illustrator 18.1.1, SVG Export Plug-In . SVG Version: 6.00 Build 0)  -->
<svg version="1.1" id="Layer_1" xmlns="http://www.w3.org/2000/svg" xmlns:xlink="http://www.w3.org/1999/xlink" x="0px" y="0px"
	 viewBox="0 0 1000 1000" enable-background="new 0 0 1000 1000" xml:space="preserve">
<g>
	<g>
		<g>
			<rect x="760.4" y="30.4" fill="#E3B6BF" width="10.8" height="939.3"/>
		</g>
		<g>
			<rect x="227.3" y="30.4" fill="#E3B6BF" width="10.8" height="939.3"/>
		</g>
	</g>
	<g>
		<path fill="#E3B6BF" d="M584.7,136.2c-3.4-0.1-6.7-0.2-10.1-0.3v105.9h0.2v516.4h-0.2v105.9c3.4,0,6.8-0.1,10.1-0.3V136.2z"/>
		<path fill="#E3B6BF" d="M423.7,863.8c3.4,0.1,6.7,0.3,10.1,0.3V135.9c-3.4,0.1-6.8,0.2-10.1,0.3V863.8z"/>
	</g>
	<g>
		<path fill="#E3B6BF" d="M897.7,332c-21.7-51.4-52.9-97.6-92.5-137.2c-39.6-39.6-85.8-70.8-137.2-92.5
			c-48.7-20.6-100.2-31.9-153.3-33.7c-3.4-0.1-6.7-0.2-10.1-0.2v10.8v45.9v10.8c3.4,0,6.8,0.1,10.1,0.3c44,1.7,86.6,11.2,127,28.3
			c43.4,18.3,82.3,44.6,115.8,78c33.4,33.4,59.7,72.4,78,115.8c19,44.9,28.6,92.6,28.6,141.8c0,49.2-9.6,96.9-28.6,141.8
			c-18.3,43.4-44.6,82.3-78,115.8c-33.4,33.4-72.4,59.7-115.8,78c-40.4,17.1-83.1,26.6-127,28.3c-3.4,0.1-6.7,0.2-10.1,0.3v10.8
			v45.9v10.8c3.4,0,6.8-0.1,10.1-0.2c53.1-1.8,104.6-13.1,153.3-33.7c51.4-21.7,97.6-52.9,137.2-92.5
			c39.6-39.6,70.8-85.8,92.5-137.2c22.5-53.2,33.9-109.8,33.9-168C931.7,441.7,920.2,385.2,897.7,332z M887.8,663.8
			c-21.2,50.1-51.5,95.1-90.2,133.8c-38.7,38.7-83.7,69-133.8,90.2c-47.4,20-97.5,31.1-149.1,32.8v-45.9
			c45.4-1.7,89.5-11.5,131.2-29.2c44.7-18.9,84.8-45.9,119.2-80.4c34.4-34.4,61.5-74.5,80.4-119.2c19.6-46.2,29.5-95.3,29.5-146
			c0-50.6-9.9-99.7-29.5-146c-18.9-44.7-45.9-84.8-80.4-119.2c-34.4-34.4-74.5-61.5-119.2-80.4c-41.7-17.6-85.8-27.4-131.2-29.2
			V79.4c51.6,1.8,101.7,12.8,149.1,32.8c50.1,21.2,95.1,51.5,133.8,90.2c38.7,38.7,69,83.7,90.2,133.8
			c21.9,51.9,33.1,107,33.1,163.8S909.7,611.9,887.8,663.8z"/>
		<path fill="#E3B6BF" d="M332,102.3c-51.4,21.7-97.6,52.9-137.2,92.5c-39.6,39.6-70.8,85.8-92.5,137.2
			c-22.5,53.2-33.9,109.8-33.9,168c0,58.3,11.4,114.8,33.9,168c21.7,51.4,52.9,97.6,92.5,137.2c39.6,39.6,85.8,70.8,137.2,92.5
			c48.2,20.4,99.2,31.7,151.7,33.6c3.4,0.1,6.7,0.2,10.1,0.3v-10.8v-45.9v-10.8c-3.4-0.1-6.8-0.2-10.1-0.3
			c-43.4-1.9-85.5-11.3-125.5-28.2c-43.4-18.3-82.3-44.6-115.8-78c-33.4-33.4-59.7-72.4-78-115.8c-19-44.9-28.6-92.6-28.6-141.8
			c0-49.2,9.6-96.9,28.6-141.8c18.3-43.4,44.6-82.3,78-115.8c33.4-33.4,72.4-59.7,115.8-78c39.9-16.9,82-26.3,125.5-28.2
			c3.4-0.1,6.7-0.3,10.1-0.3v-10.8V79.2V68.4c-3.4,0-6.8,0.1-10.1,0.3C431.2,70.6,380.2,81.9,332,102.3z M483.7,125.4
			c-44.9,1.9-88.4,11.7-129.7,29.1c-44.7,18.9-84.8,45.9-119.2,80.4c-34.4,34.4-61.5,74.5-80.4,119.2c-19.6,46.2-29.5,95.3-29.5,146
			c0,50.6,9.9,99.7,29.5,146c18.9,44.7,45.9,84.8,80.4,119.2c34.4,34.4,74.5,61.5,119.2,80.4c41.3,17.4,84.8,27.2,129.7,29.1v45.9
			c-51.1-1.9-100.6-12.9-147.5-32.8c-50.1-21.2-95.1-51.5-133.8-90.2c-38.7-38.7-69-83.7-90.2-133.8c-21.9-51.9-33.1-107-33.1-163.8
			s11.1-111.9,33.1-163.8c21.2-50.1,51.5-95.1,90.2-133.8c38.7-38.7,83.7-69,133.8-90.2c46.9-19.8,96.5-30.8,147.5-32.8V125.4z"/>
	</g>
</g>
</svg>
