<?xml version="1.0" encoding="utf-8"?>
<!-- Generator: Adobe Illustrator 18.1.1, SVG Export Plug-In . SVG Version: 6.00 Build 0)  -->
<svg version="1.1" id="Layer_1" xmlns="http://www.w3.org/2000/svg" xmlns:xlink="http://www.w3.org/1999/xlink" x="0px" y="0px"
	 viewBox="0 0 863.3 863.3" enable-background="new 0 0 863.3 863.3" xml:space="preserve">
<g>
	<g>
		<g>
			<rect x="692" y="-38" fill="#FFFFFF" width="10.8" height="939.3"/>
		</g>
		<g>
			<rect x="158.9" y="-38" fill="#FFFFFF" width="10.8" height="939.3"/>
		</g>
	</g>
	<g>
		<path fill="#FFFFFF" d="M516.4,67.8c-3.4-0.1-6.7-0.2-10.1-0.3v105.9h0.2v516.4h-0.2v105.9c3.4,0,6.8-0.1,10.1-0.3V67.8z"/>
		<path fill="#FFFFFF" d="M355.4,795.4c3.4,0.1,6.7,0.3,10.1,0.3V67.6c-3.4,0.1-6.8,0.2-10.1,0.3V795.4z"/>
	</g>
	<path fill="none" d="M577.6,86.2c44.7,18.9,84.8,45.9,119.2,80.4c34.4,34.4,61.5,74.5,80.4,119.2c19.6,46.2,29.5,95.3,29.5,146
		c0,50.6-9.9,99.7-29.5,146c-18.9,44.7-45.9,84.8-80.4,119.2c-34.4,34.4-74.5,61.5-119.2,80.4c-41.7,17.6-85.8,27.4-131.2,29.2v45.9
		c51.6-1.8,101.7-12.8,149.1-32.8c50.1-21.2,95.1-51.5,133.8-90.2c38.7-38.7,69-83.7,90.2-133.8c21.9-51.9,33.1-107,33.1-163.8
		s-11.1-111.9-33.1-163.8c-21.2-50.1-51.5-95.1-90.2-133.8c-38.7-38.7-83.7-69-133.8-90.2c-47.4-20-97.5-31.1-149.1-32.8V57
		C491.8,58.7,535.9,68.5,577.6,86.2z"/>
	<path fill="none" d="M134.1,134.1c-38.7,38.7-69,83.7-90.2,133.8c-21.9,51.9-33.1,107-33.1,163.8s11.1,111.9,33.1,163.8
		c21.2,50.1,51.5,95.1,90.2,133.8c38.7,38.7,83.7,69,133.8,90.2c46.9,19.8,96.5,30.8,147.5,32.8v-45.9
		c-44.9-1.9-88.4-11.7-129.7-29.1c-44.7-18.9-84.8-45.9-119.2-80.4c-34.4-34.4-61.5-74.5-80.4-119.2c-19.6-46.2-29.5-95.3-29.5-146
		c0-50.6,9.9-99.7,29.5-146c18.9-44.7,45.9-84.8,80.4-119.2c34.4-34.4,74.5-61.5,119.2-80.4C327,68.7,370.5,58.9,415.4,57V11.1
		C364.3,13,314.8,24,267.8,43.9C217.7,65.1,172.7,95.4,134.1,134.1z"/>
	<path fill="none" d="M134.1,134.1c-38.7,38.7-69,83.7-90.2,133.8c-21.9,51.9-33.1,107-33.1,163.8s11.1,111.9,33.1,163.8
		c21.2,50.1,51.5,95.1,90.2,133.8c38.7,38.7,83.7,69,133.8,90.2c46.9,19.8,96.5,30.8,147.5,32.8v-45.9
		c-44.9-1.9-88.4-11.7-129.7-29.1c-44.7-18.9-84.8-45.9-119.2-80.4c-34.4-34.4-61.5-74.5-80.4-119.2c-19.6-46.2-29.5-95.3-29.5-146
		c0-50.6,9.9-99.7,29.5-146c18.9-44.7,45.9-84.8,80.4-119.2c34.4-34.4,74.5-61.5,119.2-80.4C327,68.7,370.5,58.9,415.4,57V11.1
		C364.3,13,314.8,24,267.8,43.9C217.7,65.1,172.7,95.4,134.1,134.1z"/>
	<path fill="none" d="M819.5,267.8c-21.2-50.1-51.5-95.1-90.2-133.8c-38.7-38.7-83.7-69-133.8-90.2c-47.4-20-97.5-31.1-149.1-32.8
		V57c45.4,1.7,89.5,11.5,131.2,29.2c44.7,18.9,84.8,45.9,119.2,80.4c34.4,34.4,61.5,74.5,80.4,119.2c19.6,46.2,29.5,95.3,29.5,146
		c0,50.6-9.9,99.7-29.5,146c-18.9,44.7-45.9,84.8-80.4,119.2c-34.4,34.4-74.5,61.5-119.2,80.4c-41.7,17.6-85.8,27.4-131.2,29.2v45.9
		c51.6-1.8,101.7-12.8,149.1-32.8c50.1-21.2,95.1-51.5,133.8-90.2c38.7-38.7,69-83.7,90.2-133.8c21.9-51.9,33.1-107,33.1-163.8
		S841.4,319.7,819.5,267.8z"/>
	<path fill="#FFFFFF" d="M829.4,263.6c-21.7-51.4-52.9-97.6-92.5-137.2c-39.6-39.6-85.8-70.8-137.2-92.5C551,13.3,499.5,2,446.4,0.3
		c-3.4-0.1-6.7-0.2-10.1-0.2v10.8v45.9v10.8c3.4,0,6.8,0.1,10.1,0.3c44,1.7,86.6,11.2,127,28.3c43.4,18.3,82.3,44.6,115.8,78
		c33.4,33.4,59.7,72.4,78,115.8c19,44.9,28.6,92.6,28.6,141.8c0,49.2-9.6,96.9-28.6,141.8c-18.3,43.4-44.6,82.3-78,115.8
		c-33.4,33.4-72.4,59.7-115.8,78c-40.4,17.1-83.1,26.6-127,28.3c-3.4,0.1-6.7,0.2-10.1,0.3v10.8v45.9v10.8c3.4,0,6.8-0.1,10.1-0.2
		c53.1-1.8,104.6-13.1,153.3-33.7c51.4-21.7,97.6-52.9,137.2-92.5c39.6-39.6,70.8-85.8,92.5-137.2c22.5-53.2,33.9-109.8,33.9-168
		C863.3,373.4,851.9,316.9,829.4,263.6z M819.5,595.5c-21.2,50.1-51.5,95.1-90.2,133.8c-38.7,38.7-83.7,69-133.8,90.2
		c-47.4,20-97.5,31.1-149.1,32.8v-45.9c45.4-1.7,89.5-11.5,131.2-29.2c44.7-18.9,84.8-45.9,119.2-80.4
		c34.4-34.4,61.5-74.5,80.4-119.2c19.6-46.2,29.5-95.3,29.5-146c0-50.6-9.9-99.7-29.5-146c-18.9-44.7-45.9-84.8-80.4-119.2
		c-34.4-34.4-74.5-61.5-119.2-80.4C535.9,68.5,491.8,58.7,446.4,57V11.1c51.6,1.8,101.7,12.8,149.1,32.8
		c50.1,21.2,95.1,51.5,133.8,90.2c38.7,38.7,69,83.7,90.2,133.8c21.9,51.9,33.1,107,33.1,163.8S841.4,543.6,819.5,595.5z"/>
	<path fill="#FFFFFF" d="M263.6,33.9c-51.4,21.7-97.6,52.9-137.2,92.5c-39.6,39.6-70.8,85.8-92.5,137.2C11.4,316.9,0,373.4,0,431.7
		c0,58.3,11.4,114.8,33.9,168c21.7,51.4,52.9,97.6,92.5,137.2c39.6,39.6,85.8,70.8,137.2,92.5c48.2,20.4,99.2,31.7,151.7,33.6
		c3.4,0.1,6.7,0.2,10.1,0.3v-10.8v-45.9v-10.8c-3.4-0.1-6.8-0.2-10.1-0.3c-43.4-1.9-85.5-11.3-125.5-28.2
		c-43.4-18.3-82.3-44.6-115.8-78c-33.4-33.4-59.7-72.4-78-115.8c-19-44.9-28.6-92.6-28.6-141.8c0-49.2,9.6-96.9,28.6-141.8
		c18.3-43.4,44.6-82.3,78-115.8c33.4-33.4,72.4-59.7,115.8-78c39.9-16.9,82-26.3,125.5-28.2c3.4-0.1,6.7-0.3,10.1-0.3V56.7V10.8V0
		c-3.4,0-6.8,0.1-10.1,0.3C362.8,2.2,311.9,13.5,263.6,33.9z M415.4,57c-44.9,1.9-88.4,11.7-129.7,29.1
		c-44.7,18.9-84.8,45.9-119.2,80.4C132.1,200.9,105,241,86.2,285.7c-19.6,46.2-29.5,95.3-29.5,146c0,50.6,9.9,99.7,29.5,146
		c18.9,44.7,45.9,84.8,80.4,119.2c34.4,34.4,74.5,61.5,119.2,80.4c41.3,17.4,84.8,27.2,129.7,29.1v45.9
		c-51.1-1.9-100.6-12.9-147.5-32.8c-50.1-21.2-95.1-51.5-133.8-90.2c-38.7-38.7-69-83.7-90.2-133.8c-21.9-51.9-33.1-107-33.1-163.8
		s11.1-111.9,33.1-163.8c21.2-50.1,51.5-95.1,90.2-133.8c38.7-38.7,83.7-69,133.8-90.2C314.8,24,364.3,13,415.4,11.1V57z"/>
</g>
</svg>
