<?xml version="1.0" encoding="utf-8"?>
<!-- Generator: Adobe Illustrator 18.1.1, SVG Export Plug-In . SVG Version: 6.00 Build 0)  -->
<svg version="1.1" id="Layer_1" xmlns="http://www.w3.org/2000/svg" xmlns:xlink="http://www.w3.org/1999/xlink" x="0px" y="0px"
	 viewBox="-194 -104 1000 1000" enable-background="new -194 -104 1000 1000" xml:space="preserve">
<g>
	<g>
		<path fill="#FFF" d="M554.8,637.9H55.6l242.3-241.5L55.6,154.1h500.7L313.3,396.5L554.8,637.9z M81.8,627.1h446.8L305.5,404.1
			L81.8,627.1z M305.6,388.7l224.6-223.9H81.8L305.6,388.7z"/>
	</g>
	<g>
		<g>
			<rect x="47.2" y="123.4" fill="#FFF" width="517.7" height="10.8"/>
		</g>
		<g>
			<rect x="47.2" y="657.8" fill="#FFF" width="517.7" height="10.8"/>
		</g>
	</g>
	<g>
		<path fill="#FFF" d="M306.1,771.9c-50.7,0-99.9-9.9-146.4-29.6c-44.8-18.9-85-46-119.5-80.6C5.7,627.2-21.5,587-40.4,542.2
			C-60.1,495.9-70,446.7-70,395.8c0-50.7,9.9-99.9,29.6-146.4c18.9-44.8,46-85,80.6-119.5s74.7-61.5,119.5-80.3
			C206,30,255.2,20.1,306.1,20.1c50.7,0,99.9,9.9,146.4,29.6c44.8,18.9,85,46,119.5,80.6c34.5,34.5,61.7,74.7,80.6,119.5
			c19.6,46.3,29.6,95.5,29.6,146.4c0,50.7-9.9,99.9-29.6,146.4c-18.9,44.8-46,85-80.6,119.5c-34.5,34.5-74.7,61.7-119.5,80.6
			C406,762,356.8,771.9,306.1,771.9z M306.1,30.9c-49.3,0-97.1,9.6-142.2,28.7C120.4,78,81.4,104.3,47.8,137.8
			C14.3,171.3-12,210.4-30.4,253.9c-19,45-28.7,92.8-28.7,142.2s9.6,97.1,28.7,142.2c18.3,43.5,44.7,82.5,78.2,116.1
			c33.5,33.5,72.6,59.8,116.1,78.2c45,19,92.8,28.7,142.2,28.7s97.1-9.6,142.2-28.7c43.5-18.3,82.5-44.7,116.1-78.2
			c33.5-33.5,59.8-72.6,78.2-116.1c19-45,28.7-92.8,28.7-142.2s-9.6-97.1-28.7-142.2c-18.3-43.5-44.7-82.5-78.2-116.1
			c-33.5-33.5-72.6-59.8-116.1-78.2C403.1,40.6,355.3,30.9,306.1,30.9z"/>
	</g>
	<g>
		<path fill="#FFF" d="M306.1,828.7c-58.4,0-115.1-11.4-168.4-34C86.1,773,39.8,741.7,0.1,702c-39.7-39.7-71-86-92.7-137.5
			c-22.7-53.3-34.1-110.1-34.1-168.4c0-58.4,11.4-115.1,34-168.4C-71,176.1-39.7,129.8,0,90.1s86-71,137.5-92.7
			C191-25.3,247.6-36.7,306.1-36.7s115.1,11.4,168.4,34C526,19,572.3,50.3,612,90s71,86,92.7,137.5c22.6,53.3,34,110.1,34,168.4
			c0,58.4-11.4,115.1-34,168.4c-21.8,51.5-53,97.8-92.7,137.5c-39.7,39.7-86,71-137.5,92.7C421.1,817.3,364.4,828.7,306.1,828.7z
			 M306.1-25.9c-56.9,0-112.2,11.1-164.2,33.2C91.6,28.5,46.5,58.9,7.7,97.7s-69.2,83.9-90.4,134.1c-22,52-33.2,107.3-33.2,164.2
			s11.1,112.2,33.2,164.2c21.3,50.2,51.6,95.3,90.4,134.1c38.8,38.8,83.9,69.2,134.1,90.4c52,22,107.3,33.2,164.2,33.2
			s112.2-11.1,164.2-33.2c50.2-21.3,95.3-51.6,134.1-90.4c38.8-38.8,69.2-83.9,90.4-134.1c22-52,33.2-107.3,33.2-164.2
			s-11.1-112.2-33.2-164.2c-21.3-50.2-51.6-95.3-90.4-134.1c-38.8-38.8-83.9-69.2-134.1-90.4C418.2-14.8,363-25.9,306.1-25.9z"/>
	</g>
	<g>
		<g>
			
				<rect x="70.9" y="298.8" transform="matrix(-0.7071 -0.7071 0.7071 -0.7071 -279.7469 1043.7239)" fill="#FFF" width="10.8" height="562.1"/>
		</g>
		<g>
			<path fill="#FFF" d="M730.7,9.7L318.4,422c2.6,2.5,5.4,4.8,8.3,6.9L738.3,17.3L730.7,9.7z"/>
		</g>
	</g>
</g>
</svg>
