<?xml version="1.0" encoding="utf-8"?>
<!-- Generator: Adobe Illustrator 18.1.1, SVG Export Plug-In . SVG Version: 6.00 Build 0)  -->
<svg version="1.1" id="Layer_1" xmlns="http://www.w3.org/2000/svg" xmlns:xlink="http://www.w3.org/1999/xlink" x="0px" y="0px"
	 viewBox="0 0 1000 1000" enable-background="new 0 0 1000 1000" xml:space="preserve">
<g>
	<g>
		<path fill="#FFF" d="M500,875c-50.6,0-99.7-9.9-146-29.5c-44.7-18.9-84.8-45.9-119.2-80.4c-34.4-34.4-61.5-74.5-80.4-119.2
			c-19.6-46.2-29.5-95.3-29.5-146c0-50.6,9.9-99.7,29.5-146c18.9-44.7,45.9-84.8,80.4-119.2s74.5-61.5,119.2-80.4
			c46.2-19.6,95.3-29.5,146-29.5c50.6,0,99.7,9.9,146,29.5c44.7,18.9,84.8,45.9,119.2,80.4c34.4,34.4,61.5,74.5,80.4,119.2
			c19.6,46.2,29.5,95.3,29.5,146c0,50.6-9.9,99.7-29.5,146c-18.9,44.7-45.9,84.8-80.4,119.2c-34.4,34.4-74.5,61.5-119.2,80.4
			C599.7,865.1,550.6,875,500,875z M500,135.8c-49.2,0-96.9,9.6-141.8,28.6c-43.4,18.3-82.3,44.6-115.8,78
			c-33.4,33.4-59.7,72.4-78,115.8c-19,44.9-28.6,92.6-28.6,141.8s9.6,96.9,28.6,141.8c18.3,43.4,44.6,82.3,78,115.8
			c33.4,33.4,72.4,59.7,115.8,78c44.9,19,92.6,28.6,141.8,28.6s96.9-9.6,141.8-28.6c43.4-18.3,82.3-44.6,115.8-78
			c33.4-33.4,59.7-72.4,78-115.8c19-44.9,28.6-92.6,28.6-141.8s-9.6-96.9-28.6-141.8c-18.3-43.4-44.6-82.3-78-115.8
			c-33.4-33.4-72.4-59.7-115.8-78C596.9,145.5,549.2,135.8,500,135.8z"/>
	</g>
	<g>
		<path fill="#FFF" d="M500,931.7c-58.3,0-114.8-11.4-168-33.9c-51.4-21.7-97.6-52.9-137.2-92.5c-39.6-39.6-70.8-85.8-92.5-137.2
			c-22.5-53.2-33.9-109.8-33.9-168c0-58.3,11.4-114.8,33.9-168c21.7-51.4,52.9-97.6,92.5-137.2S280.6,124,332,102.3
			c53.2-22.5,109.8-33.9,168-33.9c58.3,0,114.8,11.4,168,33.9c51.4,21.7,97.6,52.9,137.2,92.5c39.6,39.6,70.8,85.8,92.5,137.2
			c22.5,53.2,33.9,109.8,33.9,168c0,58.3-11.4,114.8-33.9,168c-21.7,51.4-52.9,97.6-92.5,137.2c-39.6,39.6-85.8,70.8-137.2,92.5
			C614.8,920.3,558.3,931.7,500,931.7z M500,79.1c-56.8,0-111.9,11.1-163.8,33.1c-50.1,21.2-95.1,51.5-133.8,90.2
			c-38.7,38.7-69,83.7-90.2,133.8c-21.9,51.9-33.1,107-33.1,163.8s11.1,111.9,33.1,163.8c21.2,50.1,51.5,95.1,90.2,133.8
			c38.7,38.7,83.7,69,133.8,90.2c51.9,21.9,107,33.1,163.8,33.1s111.9-11.1,163.8-33.1c50.1-21.2,95.1-51.5,133.8-90.2
			c38.7-38.7,69-83.7,90.2-133.8c21.9-51.9,33.1-107,33.1-163.8s-11.1-111.9-33.1-163.8c-21.2-50.1-51.5-95.1-90.2-133.8
			c-38.7-38.7-83.7-69-133.8-90.2C611.9,90.3,556.8,79.1,500,79.1z"/>
	</g>
	<circle fill="#FFF" cx="504.8" cy="356.5" r="80.2"/>
	<circle fill="#FFF" cx="504.8" cy="626.5" r="80.2"/>
	<path fill="#FFF" d="M500,806.3c-59.4,0-115.1-32.1-156.9-90.4c-41.4-57.7-64.2-134.4-64.2-215.9c0-81.5,22.8-158.1,64.2-215.9
		c41.8-58.3,97.5-90.4,156.9-90.4s115.1,32.1,156.9,90.4c41.4,57.7,64.2,134.4,64.2,215.9c0,81.5-22.8,158.1-64.2,215.9
		C615.1,774.2,559.4,806.3,500,806.3z M500,204.8c-115.8,0-210.1,132.4-210.1,295.2c0,162.8,94.2,295.2,210.1,295.2
		c115.8,0,210.1-132.4,210.1-295.2C710.1,337.2,615.8,204.8,500,204.8z"/>
</g>
<rect x="0" y="493.5" fill="#FFF" width="1000" height="13"/>
</svg>
