<?xml version="1.0" encoding="utf-8"?>
<!-- Generator: Adobe Illustrator 18.1.1, SVG Export Plug-In . SVG Version: 6.00 Build 0)  -->
<svg version="1.1" id="Layer_1" xmlns="http://www.w3.org/2000/svg" xmlns:xlink="http://www.w3.org/1999/xlink" x="0px" y="0px"
	 viewBox="0 0 674 73.3" enable-background="new 0 0 674 73.3" xml:space="preserve">
<g>
	<path fill="#34A5A5" d="M0,12.4V0h73.4v12.4H0z M30.5,73.3h12.4V17.5l-12.4-2.4V73.3z"/>
	<path fill="#34A5A5" d="M142.6,12.4H100v27.2h28.4L126,52h-26v8.9h42.6v12.4H87.7V60.9V52V39.6V12.4V6.2V0h54.9V12.4z"/>
	<path fill="#34A5A5" d="M213.8,73.3h-43.6h-12.3V0h12.3v60.9h41.1L213.8,73.3z"/>
	<path fill="#34A5A5" d="M282.2,12.4h-42.6v27.2H268L265.6,52h-26v8.9h42.6v12.4h-54.9V60.9V52V39.6V12.4V6.2V0h54.9V12.4z"/>
	<path fill="#34A5A5" d="M341.4,2.2c3.3,1.4,6.2,3.4,8.7,5.8c2.5,2.5,4.4,5.3,5.9,8.7c1.4,3.3,2.2,6.8,2.2,10.6
		c0,3.7-0.7,7.2-2.2,10.5c-1.4,3.3-3.4,6.2-5.9,8.7c-2.5,2.5-5.3,4.4-8.7,5.8c-3.3,1.4-6.8,2.2-10.5,2.2h-12.4l-2.4-12.4h14.8
		c2.1,0,4-0.4,5.8-1.1c1.8-0.8,3.4-1.8,4.7-3.2c1.3-1.4,2.4-2.9,3.2-4.7s1.2-3.7,1.2-5.8s-0.4-4-1.2-5.8c-0.8-1.8-1.9-3.4-3.2-4.7
		c-1.3-1.3-2.9-2.4-4.7-3.2c-1.8-0.8-3.7-1.2-5.8-1.2h-17.1v60.9h-12.3V12.4V6.2V0h29.4C334.6,0,338.1,0.7,341.4,2.2z"/>
	<path fill="#34A5A5" d="M409.1,39.5l-2.4,12.4h-24.1v21.4h-12.3V51.9V39.6V0h12.3v39.5H409.1z M412.8,0h12.3v73.3h-12.3V0z"/>
	<path fill="#34A5A5" d="M468.9,0l36.6,73.3h-73.3L468.9,0z M468.9,25l-18.5,37.1h37L468.9,25z"/>
	<path fill="#34A5A5" d="M498.9,12.4V0h73.4v12.4H498.9z M529.4,73.3h12.4V17.5l-12.4-2.4V73.3z"/>
	<path fill="#34A5A5" d="M586.6,0h12.3v73.3h-12.3V0z"/>
	<path fill="#34A5A5" d="M674,62.6c-3.4,3.3-7.3,6-11.7,7.9c-4.4,1.9-9.1,2.8-14.2,2.8c-5.1,0-9.8-1-14.3-2.9
		c-4.5-1.9-8.3-4.6-11.7-7.9c-3.3-3.3-5.9-7.2-7.8-11.6c-1.9-4.4-2.9-9.2-2.9-14.2c0-5.1,1-9.8,2.9-14.3c1.9-4.5,4.5-8.4,7.8-11.7
		c3.3-3.3,7.2-5.9,11.7-7.8C638.3,1,643,0,648.1,0c5.1,0,9.8,1,14.2,2.8c4.4,1.9,8.3,4.6,11.7,8l-8.9,8.9c-2.2-2.2-4.8-3.9-7.6-5.2
		c-2.9-1.3-6-1.9-9.4-1.9c-3.3,0-6.5,0.6-9.4,1.9c-2.9,1.3-5.5,3-7.7,5.2c-2.2,2.2-3.9,4.7-5.2,7.6c-1.3,2.9-1.9,6.1-1.9,9.4
		c0,3.3,0.6,6.5,1.9,9.3c1.3,2.9,3,5.4,5.2,7.6c2.2,2.2,4.7,3.9,7.7,5.1c2.9,1.3,6.1,1.9,9.4,1.9c3.3,0,6.5-0.6,9.4-1.9
		c2.9-1.3,5.4-3,7.6-5.1L674,62.6z M653.8,36.7c0,1.6-0.6,3-1.7,4.1c-1.1,1.1-2.5,1.7-4.1,1.7c-1.6,0-3-0.6-4.2-1.7
		c-1.2-1.1-1.8-2.5-1.8-4.1c0-1.7,0.6-3.1,1.8-4.2c1.2-1.1,2.5-1.7,4.2-1.7c1.6,0,3,0.6,4.1,1.7C653.2,33.6,653.8,35,653.8,36.7z"/>
</g>
</svg>
