<?xml version="1.0" encoding="utf-8"?>
<!-- Generator: Adobe Illustrator 18.1.1, SVG Export Plug-In . SVG Version: 6.00 Build 0)  -->
<svg version="1.1" id="Layer_1" xmlns="http://www.w3.org/2000/svg" xmlns:xlink="http://www.w3.org/1999/xlink" x="0px" y="0px"
	 viewBox="0 0 2902 2902" enable-background="new 0 0 2902 2902" xml:space="preserve">
<g>
	<path fill="#FFFFFF" d="M1697.9,1689.6H1200l241.7-240.9L1200,1207h499.5L1457,1448.7L1697.9,1689.6z M1226.1,1678.8h445.7
		l-222.5-222.5L1226.1,1678.8z M1449.4,1441.1l224-223.3h-447.3L1449.4,1441.1z"/>
</g>
<g>
	<g>
		<rect x="1191.6" y="1179.7" fill="#FFFFFF" width="516.4" height="10.8"/>
	</g>
	<g>
		<rect x="1191.6" y="1712.8" fill="#FFFFFF" width="516.4" height="10.8"/>
	</g>
</g>
<g>
	<path fill="#FFFFFF" d="M1449.8,1826.6c-50.6,0-99.7-9.9-146-29.5c-44.7-18.9-84.8-45.9-119.2-80.4s-61.5-74.5-80.4-119.2
		c-19.6-46.2-29.5-95.3-29.5-146c0-50.6,9.9-99.7,29.5-146c18.9-44.7,45.9-84.8,80.4-119.2s74.5-61.5,119.2-80.4
		c46.2-19.6,95.3-29.5,146-29.5c50.6,0,99.7,9.9,146,29.5c44.7,18.9,84.8,45.9,119.2,80.4c34.4,34.4,61.5,74.5,80.4,119.2
		c19.6,46.2,29.5,95.3,29.5,146c0,50.6-9.9,99.7-29.5,146c-18.9,44.7-45.9,84.8-80.4,119.2c-34.4,34.4-74.5,61.5-119.2,80.4
		C1549.5,1816.7,1500.4,1826.6,1449.8,1826.6z M1449.8,1087.5c-49.2,0-96.9,9.6-141.8,28.6c-43.4,18.3-82.3,44.6-115.8,78
		c-33.4,33.4-59.7,72.4-78,115.8c-19,44.9-28.6,92.6-28.6,141.8s9.6,96.9,28.6,141.8c18.3,43.4,44.6,82.3,78,115.8
		c33.4,33.4,72.4,59.7,115.8,78c44.9,19,92.6,28.6,141.8,28.6s96.9-9.6,141.8-28.6c43.4-18.3,82.3-44.6,115.8-78
		c33.4-33.4,59.7-72.4,78-115.8c19-44.9,28.6-92.6,28.6-141.8s-9.6-96.9-28.6-141.8c-18.3-43.4-44.6-82.3-78-115.8
		c-33.4-33.4-72.4-59.7-115.8-78C1546.6,1097.1,1498.9,1087.5,1449.8,1087.5z"/>
</g>
<g>
	<path fill="#FFFFFF" d="M1449.8,1883.3c-58.3,0-114.8-11.4-168-33.9c-51.4-21.7-97.6-52.9-137.2-92.5
		c-39.6-39.6-70.8-85.8-92.5-137.2c-22.5-53.2-33.9-109.8-33.9-168c0-58.3,11.4-114.8,33.9-168c21.7-51.4,52.9-97.6,92.5-137.2
		c39.6-39.6,85.8-70.8,137.2-92.5c53.2-22.5,109.8-33.9,168-33.9c58.3,0,114.8,11.4,168,33.9c51.4,21.7,97.6,52.9,137.2,92.5
		c39.6,39.6,70.8,85.8,92.5,137.2c22.5,53.2,33.9,109.8,33.9,168c0,58.3-11.4,114.8-33.9,168c-21.7,51.4-52.9,97.6-92.5,137.2
		c-39.6,39.6-85.8,70.8-137.2,92.5C1564.6,1871.9,1508,1883.3,1449.8,1883.3z M1449.8,1030.8c-56.8,0-111.9,11.1-163.8,33.1
		c-50.1,21.2-95.1,51.5-133.8,90.2c-38.7,38.7-69,83.7-90.2,133.8c-21.9,51.9-33.1,107-33.1,163.8c0,56.8,11.1,111.9,33.1,163.8
		c21.2,50.1,51.5,95.1,90.2,133.8c38.7,38.7,83.7,69,133.8,90.2c51.9,21.9,107,33.1,163.8,33.1s111.9-11.1,163.8-33.1
		c50.1-21.2,95.1-51.5,133.8-90.2c38.7-38.7,69-83.7,90.2-133.8c21.9-51.9,33.1-107,33.1-163.8c0-56.8-11.1-111.9-33.1-163.8
		c-21.2-50.1-51.5-95.1-90.2-133.8c-38.7-38.7-83.7-69-133.8-90.2C1561.7,1041.9,1506.6,1030.8,1449.8,1030.8z"/>
</g>
<g>
	<g>
		
			<rect x="1219.6" y="1345.8" transform="matrix(0.7071 0.7071 -0.7071 0.7071 1508.7639 -389.8657)" fill="#FFFFFF" width="10.8" height="560.7"/>
	</g>
	<g>
		
			<rect x="815.4" y="1714" transform="matrix(0.7071 0.7071 -0.7071 0.7071 1650.7452 3.7639)" fill="#FFFFFF" width="10.8" height="560.7"/>
	</g>
	<g>
		
			<rect x="720.2" y="1723.6" transform="matrix(0.7071 0.7071 -0.7071 0.7071 1736.738 115.9151)" fill="#FFFFFF" width="16.6" height="861.4"/>
	</g>
	<g>
		<path fill="#FFFFFF" d="M1877.8,1057.6l-411.3,411.3c2.6,2.5,5.4,4.8,8.3,6.9l410.6-410.6L1877.8,1057.6z"/>
	</g>
	<g>
		<path fill="#FFFFFF" d="M2211.9,690.5l-411.3,411.3c2.6,2.5,5.4,4.8,8.3,6.9l410.6-410.6L2211.9,690.5z"/>
	</g>
	<g>
		<path fill="#FFFFFF" d="M2630.6,332.6l-676,676c4.2,4.1,8.8,7.9,13.7,11.4l674.9-674.9L2630.6,332.6z"/>
	</g>
</g>
</svg>
