<?xml version="1.0" encoding="utf-8"?>
<!-- Generator: Adobe Illustrator 18.1.1, SVG Export Plug-In . SVG Version: 6.00 Build 0)  -->
<svg version="1.1" id="Layer_1" xmlns="http://www.w3.org/2000/svg" xmlns:xlink="http://www.w3.org/1999/xlink" x="0px" y="0px"
	 viewBox="0 0 612 792" enable-background="new 0 0 612 792" xml:space="preserve">
<g>
	<g>
		<linearGradient id="SVGID_1_" gradientUnits="userSpaceOnUse" x1="306" y1="218.811" x2="306" y2="573.189">
			<stop  offset="0" style="stop-color:#FFFFFF"/>
			<stop  offset="1" style="stop-color:#B1D37C"/>
		</linearGradient>
		<path fill="url(#SVGID_1_)" d="M306,573.2c-23.9,0-47.1-4.7-69-13.9c-21.1-8.9-40-21.7-56.3-38c-16.3-16.3-29-35.2-38-56.3
			c-9.2-21.8-13.9-45.1-13.9-69c0-23.9,4.7-47.1,13.9-69c8.9-21.1,21.7-40,38-56.3s35.2-29,56.3-38c21.8-9.2,45.1-13.9,69-13.9
			c23.9,0,47.1,4.7,69,13.9c21.1,8.9,40,21.7,56.3,38c16.3,16.3,29,35.2,38,56.3c9.2,21.8,13.9,45.1,13.9,69
			c0,23.9-4.7,47.1-13.9,69c-8.9,21.1-21.7,40-38,56.3c-16.3,16.3-35.2,29-56.3,38C353.1,568.5,329.9,573.2,306,573.2z M306,223.2
			c-23.3,0-45.9,4.6-67.2,13.6c-20.6,8.7-39,21.2-54.9,37c-15.9,15.9-28.3,34.3-37,54.9c-9,21.3-13.6,43.9-13.6,67.2
			s4.6,45.9,13.6,67.2c8.7,20.6,21.2,39,37,54.9c15.9,15.9,34.3,28.3,54.9,37c21.3,9,43.9,13.6,67.2,13.6s45.9-4.6,67.2-13.6
			c20.6-8.7,39-21.2,54.9-37c15.9-15.9,28.3-34.3,37-54.9c9-21.3,13.6-43.9,13.6-67.2s-4.6-45.9-13.6-67.2
			c-8.7-20.6-21.2-39-37-54.9c-15.9-15.9-34.3-28.3-54.9-37C351.9,227.8,329.3,223.2,306,223.2z"/>
	</g>
	<g>
		<linearGradient id="SVGID_2_" gradientUnits="userSpaceOnUse" x1="306" y1="243.0668" x2="306" y2="548.9332">
			<stop  offset="0" style="stop-color:#FFFFFF"/>
			<stop  offset="1" style="stop-color:#B1D37C"/>
		</linearGradient>
		<path fill="url(#SVGID_2_)" d="M306,548.9c-20.6,0-40.7-4-59.5-12c-18.2-7.7-34.6-18.7-48.6-32.8c-14-14-25.1-30.4-32.8-48.6
			c-8-18.9-12-38.9-12-59.5c0-20.6,4-40.7,12-59.5c7.7-18.2,18.7-34.6,32.8-48.6c14-14,30.4-25.1,48.6-32.8c18.9-8,38.9-12,59.5-12
			c20.6,0,40.7,4,59.5,12c18.2,7.7,34.6,18.7,48.6,32.8c14,14,25.1,30.4,32.8,48.6c8,18.9,12,38.9,12,59.5c0,20.6-4,40.7-12,59.5
			c-7.7,18.2-18.7,34.6-32.8,48.6c-14,14-30.4,25.1-48.6,32.8C346.7,544.9,326.6,548.9,306,548.9z M306,246.9
			c-20.1,0-39.7,3.9-58,11.7c-17.8,7.5-33.7,18.3-47.4,32c-13.7,13.7-24.4,29.6-32,47.4c-7.8,18.4-11.7,37.9-11.7,58
			s3.9,39.7,11.7,58c7.5,17.8,18.3,33.7,32,47.4c13.7,13.7,29.6,24.4,47.4,32c18.4,7.8,37.9,11.7,58,11.7s39.7-3.9,58-11.7
			c17.8-7.5,33.7-18.3,47.4-32s24.4-29.6,32-47.4c7.8-18.4,11.7-37.9,11.7-58s-3.9-39.7-11.7-58c-7.5-17.8-18.3-33.7-32-47.4
			c-13.7-13.7-29.6-24.4-47.4-32C345.7,250.8,326.1,246.9,306,246.9z"/>
	</g>
</g>
<g>
	
		<radialGradient id="SVGID_3_" cx="3392.7405" cy="-2354.5549" r="3604.5769" gradientTransform="matrix(9.046163e-02 0 0 -9.046163e-02 0 174.4414)" gradientUnits="userSpaceOnUse">
		<stop  offset="0" style="stop-color:#1B0C75"/>
		<stop  offset="0.5071" style="stop-color:#E3B6BF"/>
		<stop  offset="1" style="stop-color:#1B0C75"/>
	</radialGradient>
	<polygon fill="url(#SVGID_3_)" points="187.4,487.4 185.3,485.3 76.2,594.3 78.3,596.4 	"/>
	
		<radialGradient id="SVGID_4_" cx="3114.7966" cy="-2554.1465" r="3642.6487" gradientTransform="matrix(9.046163e-02 0 0 -9.046163e-02 0 174.4414)" gradientUnits="userSpaceOnUse">
		<stop  offset="0.5071" style="stop-color:#E3B6BF"/>
		<stop  offset="1" style="stop-color:#1B0C75"/>
	</radialGradient>
	<polygon fill="url(#SVGID_4_)" points="1,681.6 4.2,684.8 171.7,517.3 168.5,514.1 	"/>
	
		<radialGradient id="SVGID_5_" cx="3375.0925" cy="-2400.366" r="3639.2715" gradientTransform="matrix(9.046163e-02 0 0 -9.046163e-02 0 174.4414)" gradientUnits="userSpaceOnUse">
		<stop  offset="0.5071" style="stop-color:#E3B6BF"/>
		<stop  offset="1" style="stop-color:#1B0C75"/>
	</radialGradient>
	<path fill="url(#SVGID_5_)" d="M422.5,283.2l-29.2,29.2c-1.5-1.6-3-3.2-4.5-4.8c-10.9-10.9-23.6-19.5-37.7-25.4
		c-14.6-6.2-30.2-9.3-46.2-9.3c-16,0-31.6,3.1-46.2,9.3c-14.1,6-26.8,14.5-37.7,25.4c-10.9,10.9-19.5,23.6-25.4,37.7
		c-6.2,14.6-9.3,30.2-9.3,46.2c0,16,3.1,31.6,9.3,46.2c4.5,10.7,10.5,20.5,17.9,29.4l-25.8,25.9l2.1,2.1l25.7-25.7
		c1.8,2.1,3.7,4.1,5.7,6.1c10.9,10.9,23.6,19.5,37.7,25.4c14.6,6.2,30.2,9.3,46.2,9.3c16,0,31.6-3.1,46.2-9.3
		c14.1-6,26.8-14.5,37.7-25.4c10.9-10.9,19.5-23.6,25.4-37.7c6.2-14.6,9.3-30.2,9.3-46.2c0-16-3.1-31.6-9.3-46.2
		c-4.7-11.2-11.1-21.5-18.9-30.7l29.4-29.4L422.5,283.2z M198.1,436.6c-6-14.3-9.1-29.4-9.1-45.1s3.1-30.8,9.1-45.1
		c5.8-13.8,14.2-26.2,24.8-36.8s23-19,36.8-24.8c14.3-6,29.4-9.1,45.1-9.1s30.8,3.1,45.1,9.1c13.8,5.8,26.2,14.2,36.8,24.8
		c1.6,1.6,3.1,3.2,4.5,4.8l-8.9,8.9c-1.5-1.6-3-3.3-4.5-4.8c-0.6-0.6-1.3-1.2-1.9-1.9v0h0c-9-8.6-19.4-15.4-30.9-20.2
		c-12.7-5.4-26.2-8.1-40.1-8.1c-13.9,0-27.4,2.7-40.1,8.1c-11.5,4.8-21.8,11.7-30.9,20.2h0v0c-0.6,0.6-1.3,1.2-1.9,1.9
		c-9.5,9.5-16.9,20.5-22.1,32.8c-5.4,12.7-8.1,26.2-8.1,40.1s2.7,27.4,8.1,40.1c3.7,8.8,8.6,17,14.6,24.4l-9,9
		C208.2,456.5,202.5,447,198.1,436.6z M235,463.4c-0.3-0.3-0.7-0.7-1-1c-2-2-3.8-4-5.6-6.1l69.9-69.9l4.3,4.3L236.1,457H373
		L312.9,397l69.1-69.1c6.2,7.5,11.2,15.8,15,24.8c5.2,12.3,7.9,25.5,7.9,39s-2.7,26.6-7.9,39c-5,11.9-12.3,22.6-21.5,31.8
		c-0.3,0.3-0.7,0.7-1,1L235,463.4L235,463.4z M371.4,466.4c-8.2,7.3-17.5,13.2-27.6,17.5c-12.3,5.2-25.5,7.9-39,7.9
		s-26.6-2.7-39-7.9c-10.1-4.3-19.4-10.2-27.6-17.5H371.4z M374.6,319.8c0.3,0.3,0.7,0.7,1,1c1.6,1.6,3.1,3.2,4.5,4.8l-69.3,69.3
		l-4.1-4.1l66.7-66.5H236.1l60,60L226.4,454c-5.7-7.1-10.4-15-13.9-23.4c-5.2-12.3-7.9-25.5-7.9-39s2.7-26.6,7.9-39
		c5-11.9,12.3-22.6,21.5-31.8c0.3-0.3,0.7-0.7,1-1L374.6,319.8L374.6,319.8z M238.1,316.8c8.2-7.3,17.5-13.2,27.6-17.5
		c12.3-5.2,25.5-7.9,39-7.9s26.6,2.7,39,7.9c10.1,4.3,19.4,10.2,27.6,17.5H238.1z M365.8,454.1H243.3l61.4-61.2L365.8,454.1z
		 M243.2,327.3h123l-61.6,61.4L243.2,327.3z M411.4,346.5c6,14.3,9.1,29.4,9.1,45.1s-3.1,30.8-9.1,45.1
		c-5.8,13.8-14.2,26.2-24.8,36.8s-23,19-36.8,24.8c-14.3,6-29.4,9.1-45.1,9.1s-30.8-3.1-45.1-9.1c-13.8-5.8-26.2-14.2-36.8-24.8
		c-2-2-3.8-4-5.7-6.1l9-9c1.8,2.1,3.7,4.1,5.6,6.1c0.6,0.6,1.3,1.2,1.9,1.9v0h0c9,8.6,19.4,15.4,30.9,20.2
		c12.7,5.4,26.2,8.1,40.1,8.1c13.9,0,27.4-2.7,40.1-8.1c11.5-4.8,21.8-11.7,30.9-20.2h0v0c0.6-0.6,1.3-1.2,1.9-1.9
		c9.5-9.5,16.9-20.5,22.1-32.8c5.4-12.7,8.1-26.2,8.1-40.1c0-13.9-2.7-27.4-8.1-40.1c-3.9-9.3-9.2-17.9-15.6-25.7l9-9
		C400.7,325.7,406.8,335.7,411.4,346.5z"/>
	
		<radialGradient id="SVGID_6_" cx="3376.4468" cy="-2369.9844" r="3604.6069" gradientTransform="matrix(9.046163e-02 0 0 -9.046163e-02 0 174.4414)" gradientUnits="userSpaceOnUse">
		<stop  offset="0" style="stop-color:#1B0C75"/>
		<stop  offset="0.5071" style="stop-color:#E3B6BF"/>
		<stop  offset="1" style="stop-color:#1B0C75"/>
	</radialGradient>
	<path fill="url(#SVGID_6_)" d="M516.5,184.3l-2.1-2.1L401.3,295.4c0.7,0.7,1.5,1.3,2.3,1.9L516.5,184.3z"/>
	
		<radialGradient id="SVGID_7_" cx="3381.6348" cy="-2407.9136" r="3610.0515" gradientTransform="matrix(9.046163e-02 0 0 -9.046163e-02 0 174.4414)" gradientUnits="userSpaceOnUse">
		<stop  offset="0" style="stop-color:#1B0C75"/>
		<stop  offset="0.5071" style="stop-color:#E3B6BF"/>
		<stop  offset="1" style="stop-color:#1B0C75"/>
	</radialGradient>
	<path fill="url(#SVGID_7_)" d="M629.5,83.8L443.6,269.7c1.2,1.1,2.4,2.2,3.8,3.1L633,87.3L629.5,83.8z"/>
</g>
</svg>
