<?xml version="1.0" encoding="utf-8"?>
<!-- Generator: Adobe Illustrator 18.1.1, SVG Export Plug-In . SVG Version: 6.00 Build 0)  -->
<svg version="1.1" id="Layer_1" xmlns="http://www.w3.org/2000/svg" xmlns:xlink="http://www.w3.org/1999/xlink" x="0px" y="0px"
	 viewBox="0 0 981.9 117.2" enable-background="new 0 0 981.9 117.2" xml:space="preserve">
<g>
	<path fill="#34A5A5" d="M5,25.8V13.3h73.4v12.4H5z M35.5,86.6h12.4V30.8l-12.4-2.4V86.6z"/>
	<path fill="#34A5A5" d="M128.2,13.3l36.6,73.3H91.5L128.2,13.3z M128.2,38.3l-18.5,37.1h37L128.2,38.3z"/>
	<path fill="#34A5A5" d="M192.7,65.6l-2.1,2.8v18.2h-12.3V13.3h12.3v34.2l25.3-34.2h15.3l-24.9,33.9L192.7,65.6z M208.1,49.8
		l27.2,36.9H220l-19.6-26.5L208.1,49.8z"/>
	<path fill="#34A5A5" d="M303.5,25.8h-42.6v27.2h28.4l-2.4,12.4h-26v8.9h42.6v12.4h-54.9V74.2v-8.9V52.9V25.8v-6.2v-6.2h54.9V25.8z"
		/>
	<path fill="#34A5A5" d="M405.4,49.9l-1,1.7v35h-12.3v-35l-1-1.7L370,13.3h14.3l14,24.2l14-24.2h14.3L405.4,49.9z"/>
	<path fill="#34A5A5" d="M476.5,13.3c5.1,0,9.8,1,14.2,2.9c4.4,1.9,8.3,4.5,11.6,7.8c3.3,3.3,5.9,7.2,7.9,11.7
		c1.9,4.5,2.9,9.2,2.9,14.3c0,5.1-1,9.8-2.9,14.2c-1.9,4.4-4.6,8.3-7.9,11.6c-3.3,3.3-7.2,5.9-11.6,7.9c-4.4,1.9-9.2,2.9-14.2,2.9
		c-5.1,0-9.8-1-14.2-2.9c-4.4-1.9-8.3-4.6-11.7-7.9c-3.3-3.3-6-7.2-7.9-11.6c-1.9-4.4-2.9-9.2-2.9-14.2c0-5.1,1-9.8,2.9-14.3
		c1.9-4.5,4.6-8.4,7.9-11.7c3.3-3.3,7.2-5.9,11.7-7.8C466.7,14.3,471.4,13.3,476.5,13.3z M500.6,50.1c0-3.3-0.6-6.5-1.9-9.4
		c-1.3-2.9-3-5.5-5.2-7.7c-2.2-2.2-4.7-3.9-7.7-5.2c-2.9-1.3-6.1-1.9-9.4-1.9c-3.3,0-6.5,0.6-9.4,1.9s-5.5,3-7.6,5.2
		c-2.2,2.2-3.9,4.7-5.2,7.7c-1.3,2.9-1.9,6.1-1.9,9.4s0.6,6.5,1.9,9.4c1.3,2.9,3,5.5,5.2,7.7c2.2,2.2,4.7,3.9,7.6,5.2
		s6.1,1.9,9.4,1.9c3.3,0,6.5-0.6,9.4-1.9c2.9-1.3,5.5-3,7.7-5.2c2.2-2.2,3.9-4.7,5.2-7.7C500,56.6,500.6,53.4,500.6,50.1z M482.4,50
		c0,1.6-0.6,3-1.8,4.1c-1.2,1.1-2.6,1.7-4.2,1.7s-3-0.6-4.2-1.7c-1.2-1.1-1.8-2.5-1.8-4.1c0-1.7,0.6-3.1,1.8-4.2
		c1.2-1.1,2.6-1.7,4.2-1.7s3,0.6,4.2,1.7C481.8,47,482.4,48.4,482.4,50z"/>
	<path fill="#34A5A5" d="M554.7,86.6c-9.4,0-16.6-2.5-21.7-7.4c-2.1-2.1-3.8-4.6-4.9-7.5c-1.1-2.8-1.7-5.9-1.7-9.2V13.3h12.3v49.3
		c0,7.9,5.3,11.8,16,11.8c5.3,0,9.3-1,12-3.1c2.8-2.1,4.1-5,4.1-8.9V13.3h12.3v49.1c0,2.8-0.5,5.6-1.5,8.5c-1,2.9-2.6,5.5-4.9,7.8
		c-2.3,2.3-5.2,4.2-8.8,5.7C564.4,85.9,560,86.6,554.7,86.6z"/>
	<path fill="#34A5A5" d="M653.1,40.6c0,2.8-0.4,5.5-1.2,8c-0.8,2.5-1.9,4.9-3.3,7c-1.4,2.2-3.2,4.1-5.2,5.8c-2,1.7-4.2,3.1-6.6,4.1
		l15.4,21h-15.3l-13.8-18.8h-9.7l-2.5-12.4h15c2.1,0,4-0.4,5.8-1.1c1.8-0.8,3.4-1.8,4.7-3.2c1.3-1.4,2.4-2.9,3.2-4.7
		s1.2-3.7,1.2-5.8s-0.4-4-1.2-5.8c-0.8-1.8-1.9-3.4-3.2-4.7c-1.3-1.3-2.9-2.4-4.7-3.2s-3.7-1.2-5.8-1.2h-17.1v60.9h-12.3V25.8v-6.2
		v-6.2h29.4c3.7,0,7.2,0.7,10.5,2.2s6.2,3.4,8.7,5.8c2.5,2.5,4.4,5.3,5.8,8.7C652.4,33.3,653.1,36.8,653.1,40.6z"/>
	<path fill="#34A5A5" d="M719.7,25.8V13.3h73.4v12.4H719.7z M750.2,86.6h12.4V30.8l-12.4-2.4V86.6z"/>
	<path fill="#34A5A5" d="M806.4,13.3h12.3v73.3h-12.3V13.3z"/>
	<path fill="#34A5A5" d="M843.5,86.6h-11.3l9.2-73.3l22.1,37.1l11.8,19.9l-6.5,10.8l-9.6-16l-10.7-18.2L843.5,86.6z M877.5,66.8
		L871,55.8l25.6-42.5l9,73.3h-11.3l-4.8-39.8l-11.1,18.3L877.5,66.8z"/>
	<path fill="#34A5A5" d="M973.7,25.8h-42.6v27.2h28.4l-2.4,12.4h-26v8.9h42.6v12.4h-54.9V74.2v-8.9V52.9V25.8v-6.2v-6.2h54.9V25.8z"
		/>
</g>
</svg>
