<?xml version="1.0" encoding="utf-8"?>
<!-- Generator: Adobe Illustrator 18.1.1, SVG Export Plug-In . SVG Version: 6.00 Build 0)  -->
<svg version="1.1" id="Layer_1" xmlns="http://www.w3.org/2000/svg" xmlns:xlink="http://www.w3.org/1999/xlink" x="0px" y="0px"
	 viewBox="236 247.3 140.2 23.2" enable-background="new 236 247.3 140.2 23.2" xml:space="preserve">
<g>
	<polygon fill="#53D3D7" points="253.4,247.3 236,247.3 236,251.2 248.3,251.2 242.7,258.2 236,266.6 236,270.5 253.4,270.5 
		253.4,266.6 241,266.6 245.2,261.3 245.2,261.3 253.4,251.2 	"/>
	<path fill="#53D3D7" d="M272.7,251.2h-13.5v8.6h9l-0.8,3.9h-8.2v2.8h13.5v3.9h-17.4v-3.9v-2.8v-3.9v-8.6v-2v-2h17.4V251.2z"/>
	<path fill="#53D3D7" d="M288.8,256.7c0.7,0.2,1.4,0.5,2,1c0.6,0.4,1.2,0.9,1.6,1.5c0.4,0.6,0.8,1.2,1.1,2c0.3,0.7,0.4,1.5,0.4,2.3
		c0,1-0.2,1.9-0.5,2.8c-0.4,0.9-0.9,1.6-1.5,2.2c-0.7,0.7-1.4,1.2-2.2,1.5c-0.9,0.4-1.8,0.5-2.7,0.5H275v-23.2h10.2
		c0.7,0,1.4,0.1,2.1,0.4s1.2,0.7,1.7,1.2s0.9,1.1,1.2,1.7c0.3,0.7,0.4,1.3,0.4,2.1c0,0.8-0.2,1.5-0.5,2.2
		C289.8,255.6,289.3,256.2,288.8,256.7z M285.9,266.7c0.5,0,0.9-0.1,1.4-0.3c0.4-0.2,0.8-0.4,1.1-0.8c0.3-0.3,0.6-0.7,0.8-1.1
		c0.2-0.4,0.3-0.9,0.3-1.4s-0.1-0.9-0.3-1.4c-0.2-0.4-0.4-0.8-0.8-1.1c-0.3-0.3-0.7-0.6-1.1-0.8c-0.4-0.2-0.9-0.3-1.4-0.3h-7.1v7.1
		H285.9z M278.9,254.6h5.4c0.5,0,1-0.2,1.3-0.5c0.4-0.4,0.5-0.8,0.5-1.3c0-0.5-0.2-0.9-0.5-1.3c-0.4-0.4-0.8-0.5-1.3-0.5h-5.4V254.6
		z"/>
	<path fill="#53D3D7" d="M313.7,256c0,0.9-0.1,1.7-0.4,2.5c-0.3,0.8-0.6,1.5-1.1,2.2c-0.5,0.7-1,1.3-1.6,1.8c-0.6,0.5-1.3,1-2.1,1.3
		l4.9,6.6h-4.9l-4.4-5.9h-3.1l-0.8-3.9h4.7c0.7,0,1.3-0.1,1.8-0.4c0.6-0.2,1.1-0.6,1.5-1c0.4-0.4,0.8-0.9,1-1.5
		c0.3-0.6,0.4-1.2,0.4-1.8c0-0.7-0.1-1.3-0.4-1.8c-0.3-0.6-0.6-1.1-1-1.5c-0.4-0.4-0.9-0.8-1.5-1c-0.6-0.3-1.2-0.4-1.8-0.4h-5.4
		v19.3h-3.9v-19.3v-2v-2h9.3c1.2,0,2.3,0.2,3.3,0.7c1.1,0.5,2,1.1,2.7,1.9c0.8,0.8,1.4,1.7,1.9,2.7
		C313.4,253.6,313.7,254.8,313.7,256z"/>
	<path fill="#53D3D7" d="M326.1,247.3l11.6,23.2h-23.2L326.1,247.3z M326.1,255.2l-5.9,11.7h11.7L326.1,255.2z"/>
	<path fill="#53D3D7" d="M347.8,264.8c-1.1-0.1-2.2-0.4-3.2-0.8c-1-0.5-1.9-1.1-2.6-1.9c-0.7-0.8-1.3-1.7-1.7-2.7
		c-0.4-1-0.6-2.1-0.6-3.3c0-1.2,0.2-2.3,0.7-3.4c0.5-1.1,1.1-2,1.9-2.8s1.7-1.4,2.8-1.9c1.1-0.5,2.2-0.7,3.4-0.7s2.3,0.2,3.4,0.7
		c1.1,0.5,2,1.1,2.8,1.9c0.8,0.8,1.4,1.7,1.9,2.8c0.5,1.1,0.7,2.2,0.7,3.4c0,1.1-0.2,2.1-0.5,3.1c-0.4,1-0.9,1.8-1.5,2.6l-7.1,8.7
		h-4.8L347.8,264.8z M348.4,250.6c-0.8,0-1.5,0.1-2.1,0.4c-0.7,0.3-1.2,0.7-1.8,1.2c-0.5,0.5-0.9,1.1-1.2,1.8
		c-0.3,0.7-0.4,1.4-0.4,2.1s0.1,1.5,0.4,2.1s0.7,1.2,1.2,1.8s1.1,0.9,1.8,1.2c0.7,0.3,1.4,0.4,2.1,0.4c0.5,0,0.9-0.1,1.4-0.2
		s0.8-0.3,1.2-0.5c0.3-0.2,0.6-0.4,0.8-0.6c0.3-0.2,0.5-0.4,0.7-0.7c0.4-0.5,0.7-1,1-1.7c0.2-0.6,0.4-1.3,0.4-1.9
		c0-0.8-0.1-1.5-0.4-2.1c-0.3-0.7-0.7-1.2-1.2-1.8c-0.5-0.5-1.1-0.9-1.7-1.2C349.8,250.7,349.1,250.6,348.4,250.6z M350.2,256.1
		c0,0.5-0.2,0.9-0.5,1.3c-0.4,0.4-0.8,0.5-1.3,0.5c-0.5,0-1-0.2-1.3-0.5c-0.4-0.4-0.5-0.8-0.5-1.3c0-0.5,0.2-0.9,0.5-1.3
		c0.4-0.4,0.8-0.5,1.3-0.5c0.5,0,0.9,0.2,1.3,0.5C350,255.1,350.2,255.6,350.2,256.1z"/>
	<path fill="#53D3D7" d="M372.5,254.6c0.8,0.5,1.4,1.2,2,1.9c0.5,0.7,1,1.6,1.3,2.4c0.3,0.9,0.5,1.8,0.5,2.8c0,1.2-0.2,2.3-0.7,3.4
		c-0.5,1.1-1.1,2-1.9,2.8c-0.8,0.8-1.7,1.4-2.8,1.9c-1.1,0.5-2.2,0.7-3.4,0.7c-1.5,0-2.9-0.3-4.2-1.1c-1.3-0.7-2.3-1.7-3.1-2.9
		c-0.3-0.4-0.5-0.7-0.7-1.1c-0.2-0.4-0.3-0.8-0.5-1.2l-0.1-0.2l3.3-3.3l0,0.8v0.2c0,0.9,0.2,1.7,0.6,2.4c0.4,0.9,1.1,1.6,1.9,2.1
		c0.8,0.5,1.8,0.8,2.8,0.8c0.7,0,1.4-0.1,2-0.4c0.6-0.3,1.2-0.7,1.7-1.1s0.8-1,1.1-1.7c0.3-0.6,0.4-1.3,0.4-2.1c0-0.7-0.1-1.3-0.4-2
		c-0.3-0.6-0.6-1.2-1.1-1.6c-0.5-0.5-1-0.8-1.6-1.1c-0.6-0.3-1.3-0.4-2-0.5l-0.1,0l-2.7-1.8l2.6-4h-7.6v-3.4h14l-4,6
		C370.8,253.6,371.7,254,372.5,254.6z"/>
</g>
</svg>
