<?xml version="1.0" encoding="utf-8"?>
<!-- Generator: Adobe Illustrator 18.1.1, SVG Export Plug-In . SVG Version: 6.00 Build 0)  -->
<svg version="1.1" id="Layer_1" xmlns="http://www.w3.org/2000/svg" xmlns:xlink="http://www.w3.org/1999/xlink" x="0px" y="0px"
	 viewBox="0 0 664.9 110" enable-background="new 0 0 664.9 110" xml:space="preserve">
<g>
	<polygon fill="#B1D37C" points="82.5,0 0,0 0,18.6 58.6,18.6 32,51.6 0,91.4 0,110 82.5,110 82.5,91.4 23.9,91.4 44,66.5 
		43.9,66.4 82.5,18.6 	"/>
	<path fill="#B1D37C" d="M174.1,18.6h-63.9v40.8h42.6L149.2,78h-39v13.4h63.9V110H91.8V91.4V78V59.4V18.6V9.3V0h82.4V18.6z"/>
	<path fill="#B1D37C" d="M250.5,44.2c3.5,1,6.7,2.5,9.7,4.6c2.9,2.1,5.5,4.5,7.6,7.3c2.1,2.8,3.8,5.9,5,9.4
		c1.2,3.5,1.8,7.1,1.8,10.9c0,4.7-0.9,9.1-2.6,13.1c-1.8,4.1-4.2,7.6-7.2,10.6c-3.1,3.1-6.6,5.5-10.6,7.2c-4.1,1.8-8.4,2.6-13,2.6
		H185V0h48.6c3.5,0,6.8,0.7,9.8,2c3,1.3,5.7,3.2,8,5.5c2.3,2.3,4.1,5,5.5,8c1.4,3.1,2,6.3,2,9.8c0,3.8-0.8,7.3-2.2,10.6
		C255.2,39.2,253.1,42,250.5,44.2z M236.9,91.8c2.3,0,4.5-0.5,6.5-1.4c2-0.9,3.8-2.1,5.4-3.6c1.5-1.5,2.8-3.3,3.7-5.3
		c0.9-2,1.3-4.2,1.3-6.5c0-2.3-0.5-4.5-1.3-6.5c-0.9-2-2.1-3.8-3.7-5.3c-1.5-1.5-3.3-2.7-5.4-3.6c-2-0.9-4.2-1.4-6.5-1.4h-33.5v33.6
		H236.9z M203.6,34.4h25.8c2.5,0,4.6-0.9,6.3-2.6c1.7-1.7,2.5-3.9,2.5-6.4c0-2.4-0.8-4.5-2.5-6.2c-1.7-1.7-3.8-2.6-6.3-2.6h-25.8
		V34.4z"/>
	<path fill="#B1D37C" d="M368.4,41c0,4.2-0.6,8.2-1.8,12c-1.2,3.8-2.9,7.3-5,10.6c-2.2,3.3-4.7,6.1-7.7,8.7c-3,2.6-6.3,4.6-9.9,6.2
		l23.1,31.5h-23l-20.7-28.2h-14.5l-3.8-18.6h22.5c3.1,0,6-0.6,8.7-1.7s5-2.7,7-4.8c2-2,3.6-4.4,4.8-7.1c1.2-2.7,1.8-5.6,1.8-8.7
		c0-3.1-0.6-6-1.8-8.7c-1.2-2.7-2.8-5-4.8-7c-2-2-4.3-3.6-7-4.8s-5.6-1.8-8.7-1.8H302V110h-18.5V18.6V9.3V0h44.1
		c5.6,0,10.9,1.1,15.8,3.2c5,2.2,9.3,5.1,13,8.8c3.7,3.7,6.6,8,8.8,13C367.4,29.9,368.4,35.2,368.4,41z"/>
	<path fill="#B1D37C" d="M427.3,0l54.9,110h-110L427.3,0z M427.3,37.5l-27.8,55.7h55.5L427.3,37.5z"/>
	<path fill="#B1D37C" d="M530.2,83.1c-5.4-0.4-10.5-1.7-15.1-4c-4.7-2.3-8.8-5.3-12.3-9c-3.5-3.7-6.3-8-8.2-12.9
		c-2-4.9-3-10.1-3-15.6c0-5.7,1.1-11.1,3.3-16.1c2.2-5,5.2-9.5,8.9-13.2s8.1-6.7,13.2-8.9c5-2.2,10.4-3.3,16.1-3.3
		s11.1,1.1,16.1,3.3c5,2.2,9.5,5.2,13.2,8.9s6.7,8.2,8.9,13.2c2.2,5.1,3.3,10.4,3.3,16.1c0,5.2-0.9,10.1-2.6,14.6
		c-1.8,4.6-4.2,8.7-7.3,12.4L531.1,110h-22.7L530.2,83.1z M533.1,15.5c-3.6,0-7,0.7-10.1,2c-3.2,1.4-5.9,3.2-8.3,5.6
		s-4.3,5.2-5.6,8.3s-2,6.5-2,10.1s0.7,7,2,10.1s3.2,5.9,5.6,8.3c2.4,2.4,5.2,4.3,8.3,5.6c3.1,1.4,6.5,2,10.1,2
		c2.3,0,4.5-0.3,6.5-0.8c2-0.5,4-1.3,5.8-2.3c1.4-0.8,2.7-1.7,3.9-2.7c1.2-1,2.3-2,3.4-3.1c2-2.3,3.5-4.9,4.7-7.9
		c1.1-2.9,1.7-6,1.7-9.2c0-3.6-0.7-7-2-10.1s-3.2-5.9-5.5-8.3c-2.4-2.4-5.1-4.3-8.2-5.6C540.1,16.1,536.7,15.5,533.1,15.5z
		 M541.8,41.6c0,2.4-0.9,4.5-2.6,6.1c-1.7,1.7-3.8,2.5-6.1,2.5c-2.5,0-4.6-0.8-6.3-2.5c-1.7-1.7-2.6-3.8-2.6-6.1s0.8-4.5,2.6-6.2
		c1.7-1.7,3.8-2.6,6.3-2.6c2.4,0,4.4,0.9,6.1,2.6C540.9,37.1,541.8,39.2,541.8,41.6z"/>
	<path fill="#B1D37C" d="M647.3,34.4c3.6,2.6,6.8,5.7,9.4,9.1c2.6,3.5,4.6,7.4,6.1,11.6c1.4,4.3,2.2,8.7,2.2,13.3
		c0,5.7-1.1,11.1-3.3,16.1c-2.2,5.1-5.2,9.4-8.9,13.2s-8.2,6.7-13.3,8.9c-5.1,2.2-10.5,3.3-16.2,3.3c-7,0-13.6-1.6-19.7-5
		c-6.2-3.3-11.1-7.9-14.9-13.8c-1.2-1.7-2.2-3.5-3.1-5.4c-0.9-1.9-1.6-3.8-2.2-5.9l-0.3-0.9l15.6-15.5l-0.2,3.8v1.1
		c0,4.1,0.9,7.9,2.7,11.2c2.1,4.2,5.1,7.5,9.1,10c3.9,2.5,8.3,3.7,13.1,3.7c3.4,0,6.6-0.6,9.6-2c3-1.3,5.6-3.1,7.9-5.3
		s4-4.9,5.3-7.9c1.3-3,2-6.2,2-9.8c0-3.3-0.6-6.4-1.9-9.4c-1.3-2.9-3-5.6-5.1-7.8c-2.2-2.2-4.7-4-7.6-5.4c-2.9-1.4-6-2.1-9.3-2.2
		l-0.3-0.2l-12.8-8.4l12.5-18.8h-36.2V0h66.6l-18.9,28.5C639.6,29.8,643.7,31.8,647.3,34.4z"/>
</g>
</svg>
